<svg version="1.1" viewBox="0.0 0.0 1062.254593175853 928.2309711286089" fill="none" stroke="none" stroke-linecap="square" stroke-miterlimit="10" xmlns:xlink="http://www.w3.org/1999/xlink" xmlns="http://www.w3.org/2000/svg"><clipPath id="p.0"><path d="m0 0l1062.2546 0l0 928.23096l-1062.2546 0l0 -928.23096z" clip-rule="nonzero"/></clipPath><g clip-path="url(#p.0)"><path fill="#000000" fill-opacity="0.0" d="m0 0l1062.2546 0l0 928.23096l-1062.2546 0z" fill-rule="evenodd"/><path fill="#cc0000" d="m136.73766 69.519684l69.67786 0l0 0c9.127991 0 16.527695 7.665451 16.527695 17.121262c0 9.455811 -7.399704 17.121262 -16.527695 17.121262l-69.67786 0l0 0c-9.127983 0 -16.52768 -7.665451 -16.52768 -17.121262c0 -9.455811 7.3996964 -17.121262 16.52768 -17.121262z" fill-rule="evenodd"/><path fill="#ffffff" d="m158.70155 92.657196q-2.0 0 -3.21875 -0.515625l0 -1.53125q1.5 0.578125 3.0625 0.578125q1.296875 0 1.875 -0.296875q0.59375 -0.3125 0.59375 -1.140625q0 -0.53125 -0.25 -0.84375q-0.25 -0.3125 -0.8125 -0.53125q-0.5625 -0.234375 -1.671875 -0.515625q-1.671875 -0.4375 -2.34375 -1.09375q-0.671875 -0.671875 -0.671875 -1.828125q0 -1.375 1.0 -2.140625q1.015625 -0.765625 2.953125 -0.765625q0.84375 0 1.640625 0.125q0.796875 0.125 1.28125 0.296875l0 1.53125q-1.203125 -0.453125 -2.6875 -0.453125q-1.21875 0 -1.828125 0.3125q-0.59375 0.3125 -0.59375 1.09375q0 0.453125 0.21875 0.734375q0.21875 0.28125 0.734375 0.5q0.53125 0.21875 1.5625 0.46875q1.8125 0.46875 2.515625 1.203125q0.703125 0.734375 0.703125 1.90625q0 1.375 -1.03125 2.140625q-1.03125 0.765625 -3.03125 0.765625zm8.101273 0q-1.203125 0 -1.8125 -0.625q-0.609375 -0.640625 -0.609375 -1.78125l0 -3.96875l-1.109375 0l0 -1.359375l1.109375 0l0 -1.75l1.734375 -0.53125l0 2.28125l2.015625 0l-0.109375 1.359375l-1.90625 0l0 3.859375q0 0.65625 0.296875 0.921875q0.296875 0.265625 1.0 0.265625q0.421875 0 0.90625 -0.15625l0 1.234375q-0.625 0.25 -1.515625 0.25zm4.7167664 0q-1.15625 0 -1.921875 -0.59375q-0.765625 -0.609375 -0.765625 -1.71875q0 -1.125 0.75 -1.765625q0.765625 -0.65625 2.296875 -0.65625l2.421875 0l0 -0.328125q0 -0.5625 -0.171875 -0.875q-0.15625 -0.3125 -0.609375 -0.453125q-0.453125 -0.15625 -1.28125 -0.15625q-1.34375 0 -2.515625 0.40625l0 -1.296875q0.546875 -0.203125 1.28125 -0.328125q0.734375 -0.140625 1.5625 -0.140625q1.6875 0 2.546875 0.6875q0.859375 0.6875 0.859375 2.1875l0 4.875l-1.484375 0l-0.125 -0.765625q-0.46875 0.46875 -1.15625 0.703125q-0.6875 0.21875 -1.6875 0.21875zm0.46875 -1.25q0.75 0 1.34375 -0.25q0.59375 -0.25 0.96875 -0.71875l0 -1.328125l-2.390625 0q-0.78125 0 -1.125 0.296875q-0.34375 0.28125 -0.34375 0.90625q0 0.578125 0.390625 0.84375q0.390625 0.25 1.15625 0.25zm5.923889 -6.484375l1.59375 0l0.09375 0.875q0.546875 -0.359375 1.296875 -0.640625q0.75 -0.28125 1.484375 -0.40625l0 1.328125q-0.6875 0.140625 -1.484375 0.40625q-0.796875 0.25 -1.25 0.546875l0 5.46875l-1.734375 0l0 -7.578125zm8.762634 7.734375q-1.203125 0 -1.8125 -0.625q-0.609375 -0.640625 -0.609375 -1.78125l0 -3.96875l-1.109375 0l0 -1.359375l1.109375 0l0 -1.75l1.734375 -0.53125l0 2.28125l2.015625 0l-0.109375 1.359375l-1.90625 0l0 3.859375q0 0.65625 0.296875 0.921875q0.296875 0.265625 1.0 0.265625q0.421875 0 0.90625 -0.15625l0 1.234375q-0.625 0.25 -1.515625 0.25z" fill-rule="nonzero"/><path fill="#000000" fill-opacity="0.0" d="m171.57527 103.76221l0 28.724411" fill-rule="evenodd"/><path stroke="#000000" stroke-width="1.0" stroke-linejoin="round" stroke-linecap="butt" d="m171.57527 103.7622l0 22.724411" fill-rule="evenodd"/><path fill="#000000" stroke="#000000" stroke-width="1.0" stroke-linecap="butt" d="m169.92354 126.48661l1.6517334 4.5380936l1.6517334 -4.5380936z" fill-rule="evenodd"/><path fill="#4a86e8" d="m100.18372 132.48557l142.78085 0l0 58.98224l-142.78085 0z" fill-rule="evenodd"/><path fill="#000000" fill-opacity="0.0" d="m118.031334 132.48557l0 58.98224m107.085625 -58.98224l0 58.98224" fill-rule="evenodd"/><path fill="#000000" fill-opacity="0.0" d="m100.18372 132.48557l142.78085 0l0 58.98224l-142.78085 0z" fill-rule="evenodd"/><path stroke="#ffffff" stroke-width="3.0" stroke-linejoin="round" stroke-linecap="butt" d="m118.031334 132.48557l0 58.98224m107.085625 -58.98224l0 58.98224" fill-rule="evenodd"/><path stroke="#ffffff" stroke-width="3.0" stroke-linejoin="round" stroke-linecap="butt" d="m100.18372 132.48557l142.78085 0l0 58.98224l-142.78085 0z" fill-rule="evenodd"/><path fill="#ffffff" d="m146.95334 167.99294q-0.765625 0 -1.484375 -0.109375q-0.71875 -0.09375 -1.1875 -0.265625l0 -1.484375q0.53125 0.21875 1.171875 0.328125q0.65625 0.109375 1.28125 0.109375q0.921875 0 1.28125 -0.15625q0.375 -0.15625 0.375 -0.625q0 -0.421875 -0.34375 -0.609375q-0.328125 -0.203125 -1.25 -0.5l-0.484375 -0.15625q-1.140625 -0.390625 -1.671875 -0.859375q-0.53125 -0.46875 -0.53125 -1.390625q0 -1.078125 0.765625 -1.625q0.765625 -0.5625 2.40625 -0.5625q0.625 0 1.21875 0.109375q0.609375 0.09375 1.03125 0.234375l0 1.453125q-0.421875 -0.171875 -0.96875 -0.265625q-0.53125 -0.09375 -1.015625 -0.09375q-0.875 0 -1.28125 0.15625q-0.390625 0.140625 -0.390625 0.5625q0 0.359375 0.296875 0.546875q0.3125 0.1875 1.203125 0.46875l0.34375 0.109375q0.9375 0.296875 1.4375 0.59375q0.515625 0.296875 0.75 0.71875q0.234375 0.421875 0.234375 1.09375q0 2.21875 -3.1875 2.21875zm8.736511 0q-2.015625 0 -3.09375 -0.984375q-1.0625 -1.0 -1.0625 -2.984375q0 -1.875 0.9375 -2.90625q0.953125 -1.03125 2.8125 -1.03125q1.671875 0 2.5625 0.890625q0.90625 0.875 0.90625 2.34375l0 1.40625l-5.546875 0q0.125 1.09375 0.78125 1.515625q0.65625 0.421875 2.0625 0.421875q0.578125 0 1.171875 -0.109375q0.59375 -0.109375 1.0625 -0.28125l0 1.28125q-1.0 0.4375 -2.59375 0.4375zm1.53125 -4.390625l0 -0.53125q0 -0.8125 -0.453125 -1.234375q-0.453125 -0.4375 -1.4375 -0.4375q-1.1875 0 -1.65625 0.515625q-0.46875 0.515625 -0.46875 1.6875l4.015625 0zm6.1232605 4.390625q-1.203125 0 -1.8125 -0.625q-0.609375 -0.640625 -0.609375 -1.78125l0 -3.96875l-1.109375 0l0 -1.359375l1.109375 0l0 -1.75l1.734375 -0.53125l0 2.28125l2.015625 0l-0.109375 1.359375l-1.90625 0l0 3.859375q0 0.65625 0.296875 0.921875q0.296875 0.265625 1.0 0.265625q0.421875 0 0.90625 -0.15625l0 1.234375q-0.625 0.25 -1.515625 0.25zm5.25177 0q-1.359375 0 -2.09375 -0.75q-0.734375 -0.765625 -0.734375 -2.203125l0 -4.78125l1.75 0l0 4.78125q0 0.84375 0.40625 1.25q0.421875 0.390625 1.296875 0.390625q0.609375 0 1.15625 -0.21875q0.546875 -0.234375 0.96875 -0.65625l0 -5.546875l1.71875 0l0 7.578125l-1.578125 0l-0.078125 -0.78125q-1.203125 0.9375 -2.8125 0.9375zm6.5136414 -7.734375l1.5 0l0.09375 0.75q0.53125 -0.46875 1.140625 -0.6875q0.609375 -0.234375 1.421875 -0.234375q1.6875 0 2.5625 0.921875q0.890625 0.90625 0.890625 2.90625q0 2.015625 -0.9375 3.046875q-0.921875 1.03125 -2.578125 1.03125q-1.375 0 -2.359375 -0.640625l0 3.9375l-1.734375 0l0 -11.03125zm3.640625 6.421875q1.125 0 1.65625 -0.6875q0.546875 -0.6875 0.546875 -2.09375q0 -1.34375 -0.5 -1.90625q-0.484375 -0.578125 -1.65625 -0.578125q-1.171875 0 -1.953125 0.8125l0 3.78125q0.765625 0.671875 1.90625 0.671875zm13.419525 2.3125q-1.109375 -0.984375 -1.640625 -2.59375q-0.515625 -1.609375 -0.515625 -3.40625q0 -1.8125 0.515625 -3.40625q0.53125 -1.609375 1.640625 -2.59375l1.96875 0q-2.359375 2.046875 -2.359375 6.0q0 3.953125 2.359375 6.0l-1.96875 0zm2.7312622 0q1.234375 -1.078125 1.796875 -2.578125q0.5625 -1.5 0.5625 -3.421875q0 -3.96875 -2.359375 -6.0l1.984375 0q1.09375 0.984375 1.609375 2.59375q0.53125 1.609375 0.53125 3.40625q0 1.796875 -0.53125 3.40625q-0.515625 1.609375 -1.609375 2.59375l-1.984375 0z" fill-rule="nonzero"/><path fill="#000000" fill-opacity="0.0" d="m172.06168 191.4672l-0.9763794 28.283463" fill-rule="evenodd"/><path stroke="#000000" stroke-width="1.0" stroke-linejoin="round" stroke-linecap="butt" d="m172.06168 191.4672l-0.76937866 22.287033" fill-rule="evenodd"/><path fill="#000000" stroke="#000000" stroke-width="1.0" stroke-linecap="butt" d="m169.64156 213.69724l1.4941864 4.592392l1.807312 -4.478409z" fill-rule="evenodd"/><path fill="#4a86e8" d="m100.185036 220.191l142.78085 0l0 58.982224l-142.78085 0z" fill-rule="evenodd"/><path fill="#000000" fill-opacity="0.0" d="m118.032646 220.191l0 58.982224m107.085625 -58.982224l0 58.982224" fill-rule="evenodd"/><path fill="#000000" fill-opacity="0.0" d="m100.185036 220.191l142.78085 0l0 58.982224l-142.78085 0z" fill-rule="evenodd"/><path stroke="#ffffff" stroke-width="3.0" stroke-linejoin="round" stroke-linecap="butt" d="m118.032646 220.191l0 58.982224m107.085625 -58.982224l0 58.982224" fill-rule="evenodd"/><path stroke="#ffffff" stroke-width="3.0" stroke-linejoin="round" stroke-linecap="butt" d="m100.185036 220.191l142.78085 0l0 58.982224l-142.78085 0z" fill-rule="evenodd"/><path fill="#ffffff" d="m150.67403 255.69836q-0.953125 0 -1.421875 -0.453125q-0.453125 -0.46875 -0.453125 -1.515625l0 -8.96875l1.734375 0l0 8.8125q0 0.4375 0.15625 0.609375q0.15625 0.15625 0.484375 0.15625q0.390625 0 0.734375 -0.09375l0 1.265625q-0.53125 0.1875 -1.234375 0.1875zm5.51001 0q-3.953125 0 -3.953125 -3.953125q0 -3.953125 3.953125 -3.953125q3.96875 0 3.96875 3.953125q0 3.953125 -3.96875 3.953125zm0 -1.46875q1.203125 0 1.703125 -0.578125q0.5 -0.578125 0.5 -1.90625q0 -1.3125 -0.5 -1.875q-0.5 -0.578125 -1.703125 -0.578125q-1.1875 0 -1.6875 0.578125q-0.5 0.5625 -0.5 1.875q0 1.328125 0.5 1.90625q0.5 0.578125 1.6875 0.578125zm8.896027 1.46875q-3.953125 0 -3.953125 -3.953125q0 -3.953125 3.953125 -3.953125q3.96875 0 3.96875 3.953125q0 3.953125 -3.96875 3.953125zm0 -1.46875q1.203125 0 1.703125 -0.578125q0.5 -0.578125 0.5 -1.90625q0 -1.3125 -0.5 -1.875q-0.5 -0.578125 -1.703125 -0.578125q-1.1875 0 -1.6875 0.578125q-0.5 0.5625 -0.5 1.875q0 1.328125 0.5 1.90625q0.5 0.578125 1.6875 0.578125zm5.6710205 -6.265625l1.5 0l0.09375 0.75q0.53125 -0.46875 1.140625 -0.6875q0.609375 -0.234375 1.421875 -0.234375q1.6875 0 2.5625 0.921875q0.890625 0.90625 0.890625 2.90625q0 2.015625 -0.9375 3.046875q-0.921875 1.03125 -2.578125 1.03125q-1.375 0 -2.359375 -0.640625l0 3.9375l-1.734375 0l0 -11.03125zm3.640625 6.421875q1.125 0 1.65625 -0.6875q0.546875 -0.6875 0.546875 -2.09375q0 -1.34375 -0.5 -1.90625q-0.484375 -0.578125 -1.65625 -0.578125q-1.171875 0 -1.953125 0.8125l0 3.78125q0.765625 0.671875 1.90625 0.671875zm13.419525 2.3125q-1.109375 -0.984375 -1.640625 -2.59375q-0.515625 -1.609375 -0.515625 -3.40625q0 -1.8125 0.515625 -3.40625q0.53125 -1.609375 1.640625 -2.59375l1.96875 0q-2.359375 2.046875 -2.359375 6.0q0 3.953125 2.359375 6.0l-1.96875 0zm2.7312622 0q1.234375 -1.078125 1.796875 -2.578125q0.5625 -1.5 0.5625 -3.421875q0 -3.96875 -2.359375 -6.0l1.984375 0q1.09375 0.984375 1.609375 2.59375q0.53125 1.609375 0.53125 3.40625q0 1.796875 -0.53125 3.40625q-0.515625 1.609375 -1.609375 2.59375l-1.984375 0z" fill-rule="nonzero"/><path fill="#4a86e8" d="m365.0761 125.232285l127.1181 0l0 58.992126l-127.1181 0z" fill-rule="evenodd"/><path fill="#ffffff" d="m383.59134 147.96335q0 -1.59375 1.265625 -1.984375l-1.734375 -0.421875l0 -1.796875q0.71875 -0.640625 1.78125 -1.046875q1.0625 -0.421875 2.359375 -0.421875q1.96875 0 2.953125 0.8125q1.0 0.8125 1.0 2.625l0 5.359375l-1.734375 0l0 -5.40625q0 -1.109375 -0.515625 -1.546875q-0.515625 -0.4375 -1.765625 -0.4375q-0.78125 0 -1.484375 0.234375q-0.6875 0.21875 -1.09375 0.578125l0 0.296875l1.828125 0.453125l0 1.15625q-0.625 0.15625 -0.890625 0.515625q-0.25 0.34375 -0.25 1.046875l0 3.109375l-1.71875 0l0 -3.125zm6.745514 -6.4375q-0.765625 0 -1.28125 -0.5q-0.53125 -0.5 -0.53125 -1.234375q0 -0.75 0.53125 -1.25q0.515625 -0.5 1.28125 -0.5q0.75 0 1.28125 0.5q0.515625 0.5 0.515625 1.25q0 0.734375 -0.515625 1.234375q-0.53125 0.5 -1.28125 0.5zm0 -1.0q0.3125 0 0.53125 -0.21875q0.203125 -0.234375 0.203125 -0.515625q0 -0.3125 -0.203125 -0.53125q-0.21875 -0.234375 -0.53125 -0.234375q-0.3125 0 -0.53125 0.234375q-0.234375 0.21875 -0.234375 0.53125q0 0.28125 0.234375 0.515625q0.234375 0.21875 0.53125 0.21875zm6.171875 5.125q0 -0.703125 -0.140625 -1.109375q-0.140625 -0.40625 -0.546875 -0.625q-0.40625 -0.21875 -1.171875 -0.21875q-0.515625 0 -1.125 0.109375q-0.59375 0.109375 -1.078125 0.3125l0 -1.34375q0.5 -0.21875 1.1875 -0.34375q0.6875 -0.140625 1.34375 -0.140625q1.734375 0 2.5 0.75q0.78125 0.75 0.78125 2.390625l0 5.65625l-1.75 0l0 -5.4375zm3.7900085 -3.203125l1.734375 0l0 2.71875l2.5 0q0.90625 0 1.28125 -0.375q0.375 -0.390625 0.375 -1.21875l0 -1.125l1.734375 0l0 1.078125q0 1.8125 -1.296875 2.28125q0.6875 0.234375 0.953125 0.765625q0.265625 0.53125 0.265625 1.328125l0 3.1875l-1.734375 0l0 -2.96875q0 -0.9375 -0.359375 -1.28125q-0.34375 -0.34375 -1.28125 -0.34375l-2.4375 0l0 4.59375l-1.734375 0l0 -8.640625zm12.601501 8.796875q-1.390625 0 -2.171875 -0.8125q-0.765625 -0.828125 -0.765625 -2.3125l0 -5.671875l1.734375 0l0 5.578125q0 0.96875 0.421875 1.40625q0.421875 0.421875 1.359375 0.421875q0.6875 0 1.328125 -0.28125q0.640625 -0.296875 1.0625 -0.75l0 -6.375l1.734375 0l0 8.640625l-1.578125 0l-0.09375 -0.9375q-1.265625 1.09375 -3.03125 1.09375zm9.945648 0q-1.609375 0 -2.578125 -1.078125q-0.953125 -1.078125 -0.953125 -3.265625q0 -2.203125 1.109375 -3.40625q1.125 -1.203125 3.3125 -1.203125q1.40625 0 2.34375 0.484375q0.9375 0.484375 1.375 1.28125q0.4375 0.796875 0.4375 1.75l0 5.28125l-1.75 0l0 -5.203125q0 -1.03125 -0.5625 -1.609375q-0.5625 -0.578125 -1.875 -0.578125q-1.390625 0 -2.046875 0.796875q-0.65625 0.796875 -0.65625 2.40625q0 1.578125 0.53125 2.265625q0.53125 0.6875 1.625 0.6875q0.734375 0 1.09375 -0.125l0 1.328125q-0.53125 0.1875 -1.40625 0.1875zm7.0849 -5.625q0 -1.609375 0.953125 -2.46875q0.96875 -0.859375 2.953125 -0.859375q1.984375 0 2.9375 0.859375q0.953125 0.859375 0.953125 2.46875l0 5.46875l-1.734375 0l0 -5.625q0 -1.765625 -2.15625 -1.765625q-1.078125 0 -1.625 0.4375q-0.546875 0.421875 -0.546875 1.328125l0 1.765625q0.703125 -0.578125 1.6875 -0.578125l1.03125 0l0.0625 1.390625l-1.140625 0q-0.984375 0 -1.640625 0.546875l0 2.5l-1.734375 0l0 -5.46875zm6.058777 -7.125l1.734375 0l0 2.625l-1.734375 0l0 -2.625zm7.03125 7.15625q0 -0.703125 -0.140625 -1.109375q-0.140625 -0.40625 -0.546875 -0.625q-0.40625 -0.21875 -1.171875 -0.21875q-0.515625 0 -1.125 0.109375q-0.59375 0.109375 -1.078125 0.3125l0 -1.34375q0.5 -0.21875 1.1875 -0.34375q0.6875 -0.140625 1.34375 -0.140625q1.734375 0 2.5 0.75q0.78125 0.75 0.78125 2.390625l0 5.65625l-1.75 0l0 -5.4375zm3.4618835 4.578125q0.390625 -0.890625 1.0625 -1.640625q0.671875 -0.765625 1.6875 -1.640625q0.984375 -0.84375 1.390625 -1.265625q0.421875 -0.4375 0.59375 -0.84375q0.171875 -0.421875 0.171875 -1.03125q0 -0.84375 -0.5 -1.265625q-0.484375 -0.421875 -1.578125 -0.421875q-1.15625 0 -2.4375 0.46875l0 -1.53125q0.5625 -0.1875 1.328125 -0.3125q0.765625 -0.125 1.453125 -0.125q1.6875 0 2.578125 0.84375q0.90625 0.84375 0.90625 2.328125q0 1.015625 -0.484375 1.75q-0.484375 0.734375 -1.515625 1.65625l-0.265625 0.25q-0.90625 0.78125 -1.375 1.25q-0.46875 0.46875 -0.796875 1.046875l4.546875 0l0 1.34375l-6.765625 0l0 -0.859375zm8.144012 -4.125l6.109375 0l0 1.359375l-6.109375 0l0 -1.359375zm9.159912 -3.78125l-1.671875 0.28125l0 -1.453125l3.390625 -0.53125l0 10.46875l-1.71875 0l0 -8.765625zm6.354004 8.921875q-0.71875 0 -1.578125 -0.140625q-0.84375 -0.125 -1.34375 -0.3125l0 -1.53125q1.203125 0.5 2.6875 0.5q1.28125 0 1.875 -0.375q0.59375 -0.375 0.59375 -1.28125q0 -1.578125 -2.125 -1.578125l-1.5625 0l0.140625 -1.296875l1.296875 0q2.03125 0 2.03125 -1.59375q0 -0.78125 -0.546875 -1.140625q-0.53125 -0.375 -1.703125 -0.375q-0.640625 0 -1.3125 0.125q-0.65625 0.125 -1.1875 0.34375l0 -1.484375q0.515625 -0.203125 1.28125 -0.34375q0.765625 -0.140625 1.484375 -0.140625q1.828125 0 2.78125 0.78125q0.953125 0.78125 0.953125 2.078125q0 0.8125 -0.390625 1.46875q-0.390625 0.65625 -1.15625 0.921875q0.890625 0.25 1.328125 0.859375q0.4375 0.59375 0.4375 1.484375q0 1.5 -1.0625 2.265625q-1.0625 0.765625 -2.921875 0.765625z" fill-rule="nonzero"/><path fill="#ffffff" d="m394.25784 170.08835q-1.671875 0 -1.671875 -1.65625l0 -6.984375l1.71875 0l0 6.546875q0 0.359375 0.171875 0.546875q0.171875 0.171875 0.53125 0.171875l0.734375 0l0 1.375l-1.484375 0zm7.146393 0.15625q-1.875 0 -2.90625 -0.875q-1.03125 -0.890625 -1.03125 -2.640625l0 -5.28125l1.734375 0l0 5.34375q0 1.0625 0.546875 1.5625q0.5625 0.5 1.65625 0.5q1.109375 0 1.671875 -0.5q0.5625 -0.5 0.5625 -1.5625l0 -7.90625l1.71875 0l0 7.84375q0 1.75 -1.03125 2.640625q-1.015625 0.875 -2.921875 0.875zm-2.1889954 -10.0625q-0.9375 0 -1.46875 -0.46875q-0.53125 -0.484375 -0.53125 -1.375q0 -0.890625 0.5625 -1.40625q0.5625 -0.53125 1.578125 -0.53125l3.53125 0l-0.078125 1.03125l-3.28125 0q-0.5625 0 -0.828125 0.21875q-0.265625 0.21875 -0.265625 0.6875q0 0.859375 0.890625 0.859375q0.84375 0 0.84375 -0.671875l0 -0.34375l1.0625 0l0 0.34375q0 0.328125 0.1875 0.484375q0.171875 0.140625 0.546875 0.140625l0.625 0l0 1.0l-0.734375 0q-0.40625 0 -0.71875 -0.109375q-0.3125 -0.125 -0.453125 -0.390625q-0.15625 0.265625 -0.578125 0.40625q-0.421875 0.125 -0.890625 0.125zm11.125 10.0625q-1.390625 0 -2.171875 -0.8125q-0.765625 -0.828125 -0.765625 -2.3125l0 -5.671875l1.734375 0l0 5.578125q0 0.96875 0.421875 1.40625q0.421875 0.421875 1.359375 0.421875q0.6875 0 1.328125 -0.28125q0.640625 -0.296875 1.0625 -0.75l0 -6.375l1.734375 0l0 8.640625l-1.578125 0l-0.09375 -0.9375q-1.265625 1.09375 -3.03125 1.09375zm12.662537 -10.453125l1.734375 0l0 10.296875l-1.734375 0l0 -10.296875zm3.7600098 0l1.53125 0l5.375 7.578125l0 -7.578125l1.71875 0l0 10.296875l-1.53125 0l-5.359375 -7.5625l0 7.5625l-1.734375 0l0 -10.296875zm10.672028 0l4.578125 0q1.71875 0 2.59375 0.9375q0.875 0.9375 0.875 2.5q0 1.53125 -0.953125 2.46875q-0.953125 0.921875 -2.578125 0.921875l-2.78125 0l0 3.46875l-1.734375 0l0 -10.296875zm4.203125 5.453125q1.0 0 1.546875 -0.53125q0.546875 -0.546875 0.546875 -1.484375q0 -1.0 -0.515625 -1.53125q-0.515625 -0.546875 -1.5 -0.546875l-2.546875 0l0 4.09375l2.46875 0zm9.627533 5.0q-2.140625 0 -3.3125 -1.015625q-1.171875 -1.03125 -1.171875 -2.96875l0 -6.46875l1.75 0l0 6.40625q0 1.28125 0.703125 1.9375q0.703125 0.640625 2.03125 0.640625q1.3125 0 2.015625 -0.640625q0.703125 -0.65625 0.703125 -1.9375l0 -6.40625l1.734375 0l0 6.46875q0 1.9375 -1.171875 2.96875q-1.15625 1.015625 -3.28125 1.015625zm9.065277 -9.09375l-3.296875 0l0 -1.359375l8.3125 0l0 1.359375l-3.28125 0l0 8.9375l-1.734375 0l0 -8.9375z" fill-rule="nonzero"/><path fill="#000000" fill-opacity="0.0" d="m428.14304 96.950134l-0.9763794 28.283463" fill-rule="evenodd"/><path stroke="#000000" stroke-width="1.0" stroke-linejoin="round" stroke-linecap="butt" d="m428.14304 96.950134l-0.76934814 22.287033" fill-rule="evenodd"/><path fill="#000000" stroke="#000000" stroke-width="1.0" stroke-linecap="butt" d="m425.72293 119.18018l1.4941711 4.5923767l1.807312 -4.478409z" fill-rule="evenodd"/><path fill="#000000" fill-opacity="0.0" d="m428.14304 184.22572l-0.9763794 28.283463" fill-rule="evenodd"/><path stroke="#000000" stroke-width="1.0" stroke-linejoin="round" stroke-linecap="butt" d="m428.14304 184.22572l-0.76934814 22.287033" fill-rule="evenodd"/><path fill="#000000" stroke="#000000" stroke-width="1.0" stroke-linecap="butt" d="m425.72293 206.45578l1.4941711 4.5923767l1.807312 -4.478409z" fill-rule="evenodd"/><path fill="#000000" fill-opacity="0.0" d="m172.06233 282.4672l0 24.999908l-96.39069 0l0 -54.480225l24.98912 0" fill-rule="evenodd"/><path stroke="#000000" stroke-width="1.0" stroke-linejoin="round" stroke-linecap="butt" d="m172.06233 282.4672l0 24.999908l-96.39069 0l0 -54.480225l18.98912 0" fill-rule="evenodd"/><path fill="#000000" stroke="#000000" stroke-width="1.0" stroke-linecap="butt" d="m94.66076 254.63861l4.538101 -1.6517334l-4.538101 -1.6517334z" fill-rule="evenodd"/><path fill="#cc0000" d="m393.7954 69.519684l69.67786 0l0 0c9.127991 0 16.52768 7.665451 16.52768 17.121262c0 9.455811 -7.3996887 17.121262 -16.52768 17.121262l-69.67786 0l0 0c-9.127991 0 -16.52768 -7.665451 -16.52768 -17.121262c0 -9.455811 7.3996887 -17.121262 16.52768 -17.121262z" fill-rule="evenodd"/><path fill="#ffffff" d="m404.01352 92.657196q-0.765625 0 -1.484375 -0.109375q-0.71875 -0.09375 -1.1875 -0.265625l0 -1.484375q0.53125 0.21875 1.171875 0.328125q0.65625 0.109375 1.28125 0.109375q0.921875 0 1.28125 -0.15625q0.375 -0.15625 0.375 -0.625q0 -0.421875 -0.34375 -0.609375q-0.328125 -0.203125 -1.25 -0.5l-0.484375 -0.15625q-1.140625 -0.390625 -1.671875 -0.859375q-0.53125 -0.46875 -0.53125 -1.390625q0 -1.078125 0.765625 -1.625q0.765625 -0.5625 2.40625 -0.5625q0.625 0 1.21875 0.109375q0.609375 0.09375 1.03125 0.234375l0 1.453125q-0.421875 -0.171875 -0.96875 -0.265625q-0.53125 -0.09375 -1.015625 -0.09375q-0.875 0 -1.28125 0.15625q-0.390625 0.140625 -0.390625 0.5625q0 0.359375 0.296875 0.546875q0.3125 0.1875 1.203125 0.46875l0.34375 0.109375q0.9375 0.296875 1.4375 0.59375q0.515625 0.296875 0.75 0.71875q0.234375 0.421875 0.234375 1.09375q0 2.21875 -3.1875 2.21875zm8.736511 0q-2.015625 0 -3.09375 -0.984375q-1.0625 -1.0 -1.0625 -2.984375q0 -1.875 0.9375 -2.90625q0.953125 -1.03125 2.8125 -1.03125q1.671875 0 2.5625 0.890625q0.90625 0.875 0.90625 2.34375l0 1.40625l-5.546875 0q0.125 1.09375 0.78125 1.515625q0.65625 0.421875 2.0625 0.421875q0.578125 0 1.171875 -0.109375q0.59375 -0.109375 1.0625 -0.28125l0 1.28125q-1.0 0.4375 -2.59375 0.4375zm1.53125 -4.390625l0 -0.53125q0 -0.8125 -0.453125 -1.234375q-0.453125 -0.4375 -1.4375 -0.4375q-1.1875 0 -1.65625 0.515625q-0.46875 0.515625 -0.46875 1.6875l4.015625 0zm6.1232605 4.390625q-1.203125 0 -1.8125 -0.625q-0.609375 -0.640625 -0.609375 -1.78125l0 -3.96875l-1.109375 0l0 -1.359375l1.109375 0l0 -1.75l1.734375 -0.53125l0 2.28125l2.015625 0l-0.109375 1.359375l-1.90625 0l0 3.859375q0 0.65625 0.296875 0.921875q0.296875 0.265625 1.0 0.265625q0.421875 0 0.90625 -0.15625l0 1.234375q-0.625 0.25 -1.515625 0.25zm5.25177 0q-1.359375 0 -2.09375 -0.75q-0.734375 -0.765625 -0.734375 -2.203125l0 -4.78125l1.75 0l0 4.78125q0 0.84375 0.40625 1.25q0.421875 0.390625 1.296875 0.390625q0.609375 0 1.15625 -0.21875q0.546875 -0.234375 0.96875 -0.65625l0 -5.546875l1.71875 0l0 7.578125l-1.578125 0l-0.078125 -0.78125q-1.203125 0.9375 -2.8125 0.9375zm6.5136414 -7.734375l1.5 0l0.09375 0.75q0.53125 -0.46875 1.140625 -0.6875q0.609375 -0.234375 1.421875 -0.234375q1.6875 0 2.5625 0.921875q0.890625 0.90625 0.890625 2.90625q0 2.015625 -0.9375 3.046875q-0.921875 1.03125 -2.578125 1.03125q-1.375 0 -2.359375 -0.640625l0 3.9375l-1.734375 0l0 -11.03125zm3.640625 6.421875q1.125 0 1.65625 -0.6875q0.546875 -0.6875 0.546875 -2.09375q0 -1.34375 -0.5 -1.90625q-0.484375 -0.578125 -1.65625 -0.578125q-1.171875 0 -1.953125 0.8125l0 3.78125q0.765625 0.671875 1.90625 0.671875zm13.419525 2.3125q-1.109375 -0.984375 -1.640625 -2.59375q-0.515625 -1.609375 -0.515625 -3.40625q0 -1.8125 0.515625 -3.40625q0.53125 -1.609375 1.640625 -2.59375l1.96875 0q-2.359375 2.046875 -2.359375 6.0q0 3.953125 2.359375 6.0l-1.96875 0zm2.7312622 0q1.234375 -1.078125 1.796875 -2.578125q0.5625 -1.5 0.5625 -3.421875q0 -3.96875 -2.359375 -6.0l1.984375 0q1.09375 0.984375 1.609375 2.59375q0.53125 1.609375 0.53125 3.40625q0 1.796875 -0.53125 3.40625q-0.515625 1.609375 -1.609375 2.59375l-1.984375 0z" fill-rule="nonzero"/><path fill="#cc0000" d="m392.81772 212.50919l69.67786 0l0 0c9.127991 0 16.52768 7.665451 16.52768 17.121262c0 9.455811 -7.3996887 17.121262 -16.52768 17.121262l-69.67786 0l0 0c-9.127991 0 -16.52768 -7.665451 -16.52768 -17.121262c0 -9.455811 7.3996887 -17.121262 16.52768 -17.121262z" fill-rule="evenodd"/><path fill="#ffffff" d="m422.58975 235.6467q-0.34375 0 -0.75 -0.0625q-0.390625 -0.046875 -0.625 -0.140625l-1.28125 -3.40625l-1.109375 0l0.078125 -1.3125l2.125 0l1.328125 3.546875q1.140625 0.046875 1.828125 -0.71875q0.6875 -0.765625 0.6875 -2.46875q0 -1.125 -0.296875 -1.765625q-0.296875 -0.65625 -0.96875 -0.9375q-0.671875 -0.28125 -1.859375 -0.28125q-1.46875 0 -2.734375 0.421875l0 -1.34375q1.515625 -0.484375 3.203125 -0.484375q2.234375 0 3.28125 1.109375q1.0625 1.109375 1.0625 3.28125q0 1.453125 -0.546875 2.484375q-0.53125 1.03125 -1.4375 1.5625q-0.90625 0.515625 -1.984375 0.515625zm9.604004 0q-1.875 0 -2.90625 -0.875q-1.03125 -0.890625 -1.03125 -2.640625l0 -5.28125l1.734375 0l0 5.34375q0 1.0625 0.546875 1.5625q0.5625 0.5 1.65625 0.5q1.109375 0 1.671875 -0.5q0.5625 -0.5 0.5625 -1.5625l0 -5.34375l1.71875 0l0 5.28125q0 1.75 -1.03125 2.640625q-1.015625 0.875 -2.921875 0.875z" fill-rule="nonzero"/><path fill="#cc0000" d="m650.85315 62.70866l69.67786 0l0 0c9.127991 0 16.52771 7.665447 16.52771 17.121258c0 9.455811 -7.399719 17.121262 -16.52771 17.121262l-69.67786 0l0 0c-9.127991 0 -16.52771 -7.665451 -16.52771 -17.121262c0 -9.455811 7.399719 -17.121258 16.52771 -17.121258z" fill-rule="evenodd"/><path fill="#ffffff" d="m664.79065 85.84617q-0.953125 0 -1.421875 -0.453125q-0.453125 -0.46875 -0.453125 -1.515625l0 -8.96875l1.734375 0l0 8.8125q0 0.4375 0.15625 0.609375q0.15625 0.15625 0.484375 0.15625q0.390625 0 0.734375 -0.09375l0 1.265625q-0.53125 0.1875 -1.234375 0.1875zm5.51001 0q-3.953125 0 -3.953125 -3.953125q0 -3.953125 3.953125 -3.953125q3.96875 0 3.96875 3.953125q0 3.953125 -3.96875 3.953125zm0 -1.46875q1.203125 0 1.703125 -0.578125q0.5 -0.578125 0.5 -1.90625q0 -1.3125 -0.5 -1.875q-0.5 -0.578125 -1.703125 -0.578125q-1.1875 0 -1.6875 0.578125q-0.5 0.5625 -0.5 1.875q0 1.328125 0.5 1.90625q0.5 0.578125 1.6875 0.578125zm8.895996 1.46875q-3.953125 0 -3.953125 -3.953125q0 -3.953125 3.953125 -3.953125q3.96875 0 3.96875 3.953125q0 3.953125 -3.96875 3.953125zm0 -1.46875q1.203125 0 1.703125 -0.578125q0.5 -0.578125 0.5 -1.90625q0 -1.3125 -0.5 -1.875q-0.5 -0.578125 -1.703125 -0.578125q-1.1875 0 -1.6875 0.578125q-0.5 0.5625 -0.5 1.875q0 1.328125 0.5 1.90625q0.5 0.578125 1.6875 0.578125zm5.6710205 -6.265625l1.5 0l0.09375 0.75q0.53125 -0.46875 1.140625 -0.6875q0.609375 -0.234375 1.421875 -0.234375q1.6875 0 2.5625 0.921875q0.890625 0.90625 0.890625 2.90625q0 2.015625 -0.9375 3.046875q-0.921875 1.03125 -2.578125 1.03125q-1.375 0 -2.359375 -0.640625l0 3.9375l-1.734375 0l0 -11.03125zm3.640625 6.421875q1.125 0 1.65625 -0.6875q0.546875 -0.6875 0.546875 -2.09375q0 -1.34375 -0.5 -1.90625q-0.484375 -0.578125 -1.65625 -0.578125q-1.171875 0 -1.953125 0.8125l0 3.78125q0.765625 0.671875 1.90625 0.671875zm13.419556 2.3125q-1.109375 -0.984375 -1.640625 -2.59375q-0.515625 -1.609375 -0.515625 -3.40625q0 -1.8125 0.515625 -3.40625q0.53125 -1.609375 1.640625 -2.59375l1.96875 0q-2.359375 2.046875 -2.359375 6.0q0 3.953125 2.359375 6.0l-1.96875 0zm2.7312622 0q1.234375 -1.078125 1.796875 -2.578125q0.5625 -1.5 0.5625 -3.421875q0 -3.96875 -2.359375 -6.0l1.984375 0q1.09375 0.984375 1.609375 2.59375q0.53125 1.609375 0.53125 3.40625q0 1.796875 -0.53125 3.40625q-0.515625 1.609375 -1.609375 2.59375l-1.984375 0z" fill-rule="nonzero"/><path fill="#000000" fill-opacity="0.0" d="m686.66797 96.950134l-0.9763794 28.283463" fill-rule="evenodd"/><path stroke="#000000" stroke-width="1.0" stroke-linejoin="round" stroke-linecap="butt" d="m686.66797 96.950134l-0.76934814 22.287033" fill-rule="evenodd"/><path fill="#000000" stroke="#000000" stroke-width="1.0" stroke-linecap="butt" d="m684.24786 119.18018l1.4942017 4.5923767l1.807312 -4.478409z" fill-rule="evenodd"/><path fill="#0f9d58" d="m583.613 266.99738l13.622009 -54.48819l191.51184 0l-13.62207 54.48819z" fill-rule="evenodd"/><path fill="#ffffff" d="m642.16003 245.76953q-1.0 0 -1.9375 -0.171875q-0.9375 -0.1875 -1.625 -0.5l0 -4.546875l3.65625 0l0.109375 1.59375l-1.71875 0l0 1.734375q0.28125 0.109375 0.71875 0.171875q0.4375 0.046875 0.8125 0.046875q0.890625 0 1.390625 -0.265625q0.515625 -0.28125 0.75 -0.875q0.234375 -0.609375 0.234375 -1.625q0 -1.109375 -0.28125 -1.71875q-0.28125 -0.609375 -0.90625 -0.859375q-0.625 -0.265625 -1.734375 -0.265625q-1.53125 0 -2.921875 0.4375l0 -1.609375q0.703125 -0.25 1.625 -0.375q0.9375 -0.125 1.828125 -0.125q2.296875 0 3.359375 1.140625q1.078125 1.125 1.078125 3.375q0 2.1875 -1.078125 3.3125q-1.0625 1.125 -3.359375 1.125zm1.871521 -12.625l2.171875 0l0 2.640625l-2.171875 0l0 -2.640625zm7.125 7.15625q0 -0.921875 -0.359375 -1.359375q-0.359375 -0.453125 -1.328125 -0.453125q-0.5 0 -1.09375 0.125q-0.59375 0.109375 -1.078125 0.296875l0 -1.578125q0.5 -0.234375 1.203125 -0.375q0.703125 -0.140625 1.390625 -0.140625q1.8125 0 2.609375 0.765625q0.8125 0.765625 0.8125 2.421875l0 5.609375l-2.15625 0l0 -5.3125zm7.057495 5.46875q-1.390625 0 -2.203125 -0.84375q-0.796875 -0.84375 -0.796875 -2.34375l0 -5.609375l2.171875 0l0 5.484375q0 0.875 0.375 1.265625q0.390625 0.375 1.171875 0.375q0.59375 0 1.171875 -0.25q0.59375 -0.265625 0.9375 -0.65625l0 -6.21875l2.15625 0l0 8.640625l-1.984375 0l-0.09375 -0.84375q-1.25 1.0 -2.90625 1.0zm6.8880615 -5.515625q0 -1.625 1.0 -2.53125q1.0 -0.90625 3.078125 -0.90625q2.09375 0 3.078125 0.90625q1.0 0.90625 1.0 2.53125l0 5.359375l-2.171875 0l0 -5.515625q0 -0.78125 -0.5 -1.1875q-0.5 -0.421875 -1.40625 -0.421875q-0.9375 0 -1.421875 0.421875q-0.484375 0.40625 -0.484375 1.1875l0 1.546875q0.671875 -0.515625 1.5 -0.515625l1.03125 0l0.078125 1.71875l-1.15625 0q-0.84375 0 -1.453125 0.46875l0 2.296875l-2.171875 0l0 -5.359375zm5.9854736 -7.109375l2.171875 0l0 2.640625l-2.171875 0l0 -2.640625zm7.125 7.15625q0 -0.921875 -0.359375 -1.359375q-0.359375 -0.453125 -1.328125 -0.453125q-0.5 0 -1.09375 0.125q-0.59375 0.109375 -1.078125 0.296875l0 -1.578125q0.5 -0.234375 1.203125 -0.375q0.703125 -0.140625 1.390625 -0.140625q1.8125 0 2.609375 0.765625q0.8125 0.765625 0.8125 2.421875l0 5.609375l-2.15625 0l0 -5.3125zm4.057556 -4.984375l4.84375 0q1.734375 0 2.625 0.96875q0.90625 0.96875 0.90625 2.578125q0 1.03125 -0.4375 1.84375q-0.4375 0.796875 -1.265625 1.234375q-0.8125 0.4375 -1.890625 0.4375l-2.609375 0l0 3.234375l-2.171875 0l0 -10.296875zm4.328125 5.359375q0.90625 0 1.390625 -0.484375q0.484375 -0.484375 0.484375 -1.328125q0 -0.890625 -0.453125 -1.359375q-0.453125 -0.484375 -1.34375 -0.484375l-2.234375 0l0 3.65625l2.15625 0zm5.808655 -5.734375l2.34375 0l0 1.703125l-2.34375 0l0 -1.703125zm0.171875 4.6875l-1.140625 0l0.203125 -1.59375l3.09375 0l0 7.578125l-2.15625 0l0 -5.984375zm3.9953613 -1.59375l2.0 0l0.078125 0.71875q0.515625 -0.390625 1.21875 -0.640625q0.703125 -0.25 1.453125 -0.25q1.5 0 2.1875 0.703125q0.703125 0.6875 0.703125 2.1875l0 4.859375l-2.15625 0l0 -4.75q0 -0.78125 -0.328125 -1.09375q-0.3125 -0.3125 -1.15625 -0.3125q-0.484375 0 -0.984375 0.21875q-0.5 0.203125 -0.84375 0.5625l0 5.375l-2.171875 0l0 -7.578125zm14.839539 6.53125q0.375 -0.828125 1.0 -1.515625q0.625 -0.703125 1.671875 -1.625l0.421875 -0.375q0.75 -0.6875 1.0625 -1.015625q0.3125 -0.328125 0.4375 -0.671875q0.140625 -0.34375 0.140625 -0.875q0 -0.734375 -0.484375 -1.109375q-0.46875 -0.375 -1.40625 -0.375q-1.234375 0 -2.484375 0.5l0 -1.90625q0.59375 -0.203125 1.40625 -0.328125q0.8125 -0.125 1.5625 -0.125q1.765625 0 2.671875 0.875q0.921875 0.875 0.921875 2.421875q0 0.984375 -0.46875 1.71875q-0.453125 0.734375 -1.40625 1.546875l-0.25 0.21875q-0.71875 0.625 -1.1875 1.09375q-0.46875 0.453125 -0.796875 0.9375l4.203125 0l0 1.65625l-7.015625 0l0 -1.046875zm8.208008 -4.140625l6.171875 0l0 1.6875l-6.171875 0l0 -1.6875zm11.922546 -3.453125l-4.71875 0l0 -1.65625l7.078125 0l0 1.328125l-3.78125 8.96875l-2.25 0l3.671875 -8.640625z" fill-rule="nonzero"/><path fill="#4a86e8" d="m620.1772 295.28085l127.1181 0l0 58.992126l-127.1181 0z" fill-rule="evenodd"/><path fill="#ffffff" d="m651.8878 312.49628l1.734375 0l0 2.71875l2.5 0q0.90625 0 1.28125 -0.375q0.375 -0.390625 0.375 -1.21875l0 -1.125l1.734375 0l0 1.078125q0 1.8125 -1.296875 2.28125q0.6875 0.234375 0.953125 0.765625q0.265625 0.53125 0.265625 1.328125l0 3.1875l-1.734375 0l0 -2.96875q0 -0.9375 -0.359375 -1.28125q-0.34375 -0.34375 -1.28125 -0.34375l-2.4375 0l0 4.59375l-1.734375 0l0 -8.640625zm12.601501 8.796875q-1.390625 0 -2.171875 -0.8125q-0.765625 -0.828125 -0.765625 -2.3125l0 -5.671875l1.734375 0l0 5.578125q0 0.96875 0.421875 1.40625q0.421875 0.421875 1.359375 0.421875q0.6875 0 1.328125 -0.28125q0.640625 -0.296875 1.0625 -0.75l0 -6.375l1.734375 0l0 8.640625l-1.578125 0l-0.09375 -0.9375q-1.265625 1.09375 -3.03125 1.09375zm2.9612427 -12.75l1.734375 0l0 2.625l-1.734375 0l0 -2.625zm5.921875 12.75q-1.5 0 -2.59375 -0.46875l0 -1.390625q1.078125 0.46875 2.171875 0.46875q1.109375 0 1.734375 -0.296875q0.640625 -0.3125 0.90625 -0.984375q0.28125 -0.671875 0.28125 -1.796875q0 -1.671875 -0.6875 -2.375q-0.671875 -0.703125 -2.25 -0.703125q-1.109375 0 -2.15625 0.46875l0 -1.390625q1.140625 -0.484375 2.546875 -0.484375q2.125 0 3.171875 1.140625q1.0625 1.125 1.0625 3.34375q0 2.203125 -1.03125 3.34375q-1.015625 1.125 -3.15625 1.125zm9.202026 0q-1.03125 0 -1.609375 -0.203125l-2.421875 -5.921875l1.6875 0l1.96875 4.796875q1.359375 0.0625 1.984375 -0.78125q0.640625 -0.84375 0.640625 -2.640625q0 -1.046875 -0.203125 -1.640625q-0.1875 -0.59375 -0.640625 -0.84375q-0.4375 -0.25 -1.25 -0.25l-0.609375 0l0 -1.3125l0.828125 0q1.84375 0 2.703125 0.984375q0.859375 0.984375 0.859375 3.046875q0 2.4375 -1.078125 3.609375q-1.0625 1.15625 -2.859375 1.15625zm7.336548 -0.15625q-1.671875 0 -1.671875 -1.65625l0 -6.984375l1.71875 0l0 6.546875q0 0.359375 0.171875 0.546875q0.171875 0.171875 0.53125 0.171875l0.734375 0l0 1.375l-1.484375 0zm5.3494873 0.15625q-1.5 0 -2.59375 -0.46875l0 -1.390625q1.078125 0.46875 2.171875 0.46875q1.109375 0 1.734375 -0.296875q0.640625 -0.3125 0.90625 -0.984375q0.28125 -0.671875 0.28125 -1.796875q0 -1.671875 -0.6875 -2.375q-0.671875 -0.703125 -2.25 -0.703125q-1.109375 0 -2.15625 0.46875l0 -1.390625q1.140625 -0.484375 2.546875 -0.484375q2.125 0 3.171875 1.140625q1.0625 1.125 1.0625 3.34375q0 2.203125 -1.03125 3.34375q-1.015625 1.125 -3.15625 1.125zm8.483276 0q-1.328125 0 -2.140625 -0.640625q-0.8125 -0.65625 -0.8125 -2.0q0 -1.28125 0.859375 -1.96875q0.875 -0.703125 2.5 -0.703125l2.640625 0l0 -0.546875q0 -0.640625 -0.21875 -1.0q-0.203125 -0.375 -0.6875 -0.53125q-0.46875 -0.15625 -1.3125 -0.15625q-1.53125 0 -2.8125 0.421875l0 -1.34375q0.65625 -0.21875 1.46875 -0.34375q0.828125 -0.140625 1.625 -0.140625q1.890625 0 2.78125 0.796875q0.90625 0.78125 0.90625 2.46875l0 5.53125l-1.75 0l0 -3.8125l-2.53125 0q-0.921875 0 -1.359375 0.3125q-0.4375 0.296875 -0.4375 1.015625q0 0.6875 0.390625 0.96875q0.40625 0.28125 1.34375 0.28125q0.640625 0 1.109375 -0.125l0 1.328125q-0.6875 0.1875 -1.5625 0.1875zm10.082092 -5.59375q0 -0.703125 -0.140625 -1.109375q-0.140625 -0.40625 -0.546875 -0.625q-0.40625 -0.21875 -1.171875 -0.21875q-0.515625 0 -1.125 0.109375q-0.59375 0.109375 -1.078125 0.3125l0 -1.34375q0.5 -0.21875 1.1875 -0.34375q0.6875 -0.140625 1.34375 -0.140625q1.734375 0 2.5 0.75q0.78125 0.75 0.78125 2.390625l0 5.65625l-1.75 0l0 -5.4375z" fill-rule="nonzero"/><path fill="#ffffff" d="m662.23395 340.29315q-0.75 0 -1.546875 -0.125q-0.796875 -0.109375 -1.3125 -0.328125l0 -1.53125q0.546875 0.25 1.25 0.375q0.71875 0.125 1.390625 0.125q1.25 0 1.828125 -0.421875q0.578125 -0.4375 0.578125 -1.40625q0 -0.921875 -0.453125 -1.328125q-0.4375 -0.421875 -1.59375 -0.421875l-3.046875 0l0 -1.0625l0.265625 -4.328125l5.859375 0l-0.140625 1.34375l-4.234375 0l-0.1875 2.703125l1.75 0q1.828125 0 2.671875 0.78125q0.859375 0.765625 0.859375 2.34375q0 1.5625 -1.015625 2.421875q-1.0 0.859375 -2.921875 0.859375zm9.86499 0.125q-2.375 0 -3.453125 -1.359375q-1.078125 -1.359375 -1.078125 -3.953125q0 -2.6875 1.046875 -4.0625q1.0625 -1.375 3.484375 -1.375q2.390625 0 3.453125 1.375q1.0625 1.375 1.0625 4.0625q0 2.59375 -1.09375 3.953125q-1.078125 1.359375 -3.421875 1.359375zm0 -1.484375q1.46875 0 2.109375 -0.96875q0.640625 -0.984375 0.640625 -2.859375q0 -2.0 -0.625 -2.96875q-0.625 -0.96875 -2.125 -0.96875q-1.515625 0 -2.140625 0.96875q-0.625 0.96875 -0.625 2.96875q0 1.890625 0.640625 2.859375q0.640625 0.96875 2.125 0.96875zm10.416016 1.484375q-2.375 0 -3.453125 -1.359375q-1.078125 -1.359375 -1.078125 -3.953125q0 -2.6875 1.046875 -4.0625q1.0625 -1.375 3.484375 -1.375q2.390625 0 3.453125 1.375q1.0625 1.375 1.0625 4.0625q0 2.59375 -1.09375 3.953125q-1.078125 1.359375 -3.421875 1.359375zm0 -1.484375q1.46875 0 2.109375 -0.96875q0.640625 -0.984375 0.640625 -2.859375q0 -2.0 -0.625 -2.96875q-0.625 -0.96875 -2.125 -0.96875q-1.515625 0 -2.140625 0.96875q-0.625 0.96875 -0.625 2.96875q0 1.890625 0.640625 2.859375q0.640625 0.96875 2.125 0.96875zm6.2128906 -6.375l1.59375 0l0.078125 0.796875q1.21875 -0.96875 2.671875 -0.96875q0.78125 0 1.25 0.25q0.46875 0.25 0.71875 0.75q0.578125 -0.46875 1.265625 -0.734375q0.703125 -0.265625 1.59375 -0.265625q1.3125 0 1.9375 0.671875q0.625 0.671875 0.625 2.0625l0 5.015625l-1.703125 0l0 -4.828125q0 -0.875 -0.375 -1.234375q-0.375 -0.359375 -1.203125 -0.359375q-0.546875 0 -1.046875 0.203125q-0.484375 0.1875 -0.828125 0.578125q0.09375 0.296875 0.09375 0.78125l0 4.859375l-1.625 0l0 -4.8125q0 -0.875 -0.296875 -1.234375q-0.296875 -0.375 -1.078125 -0.375q-1.0 0 -1.96875 0.90625l0 5.515625l-1.703125 0l0 -7.578125zm16.21167 7.734375q-0.765625 0 -1.484375 -0.109375q-0.71875 -0.09375 -1.1875 -0.265625l0 -1.484375q0.53125 0.21875 1.171875 0.328125q0.65625 0.109375 1.28125 0.109375q0.921875 0 1.28125 -0.15625q0.375 -0.15625 0.375 -0.625q0 -0.421875 -0.34375 -0.609375q-0.328125 -0.203125 -1.25 -0.5l-0.484375 -0.15625q-1.140625 -0.390625 -1.671875 -0.859375q-0.53125 -0.46875 -0.53125 -1.390625q0 -1.078125 0.765625 -1.625q0.765625 -0.5625 2.40625 -0.5625q0.625 0 1.21875 0.109375q0.609375 0.09375 1.03125 0.234375l0 1.453125q-0.421875 -0.171875 -0.96875 -0.265625q-0.53125 -0.09375 -1.015625 -0.09375q-0.875 0 -1.28125 0.15625q-0.390625 0.140625 -0.390625 0.5625q0 0.359375 0.296875 0.546875q0.3125 0.1875 1.203125 0.46875l0.34375 0.109375q0.9375 0.296875 1.4375 0.59375q0.515625 0.296875 0.75 0.71875q0.234375 0.421875 0.234375 1.09375q0 2.21875 -3.1875 2.21875z" fill-rule="nonzero"/><path fill="#000000" fill-opacity="0.0" d="m684.2244 181.97375l-0.9763794 28.283463" fill-rule="evenodd"/><path stroke="#000000" stroke-width="1.0" stroke-linejoin="round" stroke-linecap="butt" d="m684.2244 181.97375l-0.76934814 22.287033" fill-rule="evenodd"/><path fill="#000000" stroke="#000000" stroke-width="1.0" stroke-linecap="butt" d="m681.80426 204.20381l1.4942017 4.5923767l1.807312 -4.478409z" fill-rule="evenodd"/><path fill="#000000" fill-opacity="0.0" d="m684.2244 266.0853l-0.9763794 28.283478" fill-rule="evenodd"/><path stroke="#000000" stroke-width="1.0" stroke-linejoin="round" stroke-linecap="butt" d="m684.2244 266.0853l-0.76934814 22.287048" fill-rule="evenodd"/><path fill="#000000" stroke="#000000" stroke-width="1.0" stroke-linecap="butt" d="m681.80426 288.31534l1.4942017 4.592407l1.807312 -4.478424z" fill-rule="evenodd"/><path fill="#0f9d58" d="m581.1706 437.04462l13.62207 -54.48819l191.51178 0l-13.622009 54.48819z" fill-rule="evenodd"/><path fill="#ffffff" d="m614.93964 405.36365l4.84375 0q1.734375 0 2.625 0.96875q0.90625 0.96875 0.90625 2.578125q0 1.03125 -0.4375 1.84375q-0.4375 0.796875 -1.265625 1.234375q-0.8125 0.4375 -1.890625 0.4375l-2.609375 0l0 3.234375l-2.171875 0l0 -10.296875zm4.328125 5.359375q0.90625 0 1.390625 -0.484375q0.484375 -0.484375 0.484375 -1.328125q0 -0.890625 -0.453125 -1.359375q-0.453125 -0.484375 -1.34375 -0.484375l-2.234375 0l0 3.65625l2.15625 0zm5.808655 -5.734375l2.34375 0l0 1.703125l-2.34375 0l0 -1.703125zm0.171875 4.6875l-1.140625 0l0.203125 -1.59375l3.09375 0l0 7.578125l-2.15625 0l0 -5.984375zm3.9954224 -1.59375l2.0 0l0.078125 0.71875q0.515625 -0.390625 1.21875 -0.640625q0.703125 -0.25 1.453125 -0.25q1.5 0 2.1875 0.703125q0.703125 0.6875 0.703125 2.1875l0 4.859375l-2.15625 0l0 -4.75q0 -0.78125 -0.328125 -1.09375q-0.3125 -0.3125 -1.15625 -0.3125q-0.484375 0 -0.984375 0.21875q-0.5 0.203125 -0.84375 0.5625l0 5.375l-2.171875 0l0 -7.578125zm14.839478 6.53125q0.375 -0.828125 1.0 -1.515625q0.625 -0.703125 1.671875 -1.625l0.421875 -0.375q0.75 -0.6875 1.0625 -1.015625q0.3125 -0.328125 0.4375 -0.671875q0.140625 -0.34375 0.140625 -0.875q0 -0.734375 -0.484375 -1.109375q-0.46875 -0.375 -1.40625 -0.375q-1.234375 0 -2.484375 0.5l0 -1.90625q0.59375 -0.203125 1.40625 -0.328125q0.8125 -0.125 1.5625 -0.125q1.765625 0 2.671875 0.875q0.921875 0.875 0.921875 2.421875q0 0.984375 -0.46875 1.71875q-0.453125 0.734375 -1.40625 1.546875l-0.25 0.21875q-0.71875 0.625 -1.1875 1.09375q-0.46875 0.453125 -0.796875 0.9375l4.203125 0l0 1.65625l-7.015625 0l0 -1.046875zm8.208069 -4.140625l6.171875 0l0 1.6875l-6.171875 0l0 -1.6875zm11.922485 -3.453125l-4.71875 0l0 -1.65625l7.078125 0l0 1.328125l-3.78125 8.96875l-2.25 0l3.671875 -8.640625zm13.603027 8.796875q-1.953125 0 -3.046875 -0.921875q-1.078125 -0.921875 -1.078125 -2.703125l0 -5.171875l2.171875 0l0 5.203125q0 0.96875 0.484375 1.453125q0.484375 0.46875 1.46875 0.46875q0.96875 0 1.453125 -0.46875q0.484375 -0.484375 0.484375 -1.453125l0 -7.765625l2.171875 0l0 7.734375q0 1.78125 -1.09375 2.703125q-1.078125 0.921875 -3.015625 0.921875zm8.737427 0q-1.34375 0 -2.171875 -0.65625q-0.828125 -0.65625 -0.828125 -2.0625q0 -1.296875 0.875 -1.984375q0.890625 -0.703125 2.53125 -0.703125l2.453125 0l0 -0.40625q0 -0.8125 -0.453125 -1.140625q-0.453125 -0.328125 -1.578125 -0.328125q-1.515625 0 -2.875 0.4375l0 -1.609375q0.6875 -0.234375 1.546875 -0.359375q0.875 -0.140625 1.671875 -0.140625q1.9375 0 2.890625 0.828125q0.953125 0.8125 0.953125 2.53125l0 5.4375l-2.15625 0l0 -3.65625l-2.328125 0q-0.734375 0 -1.109375 0.25q-0.375 0.25 -0.375 0.84375q0 0.59375 0.34375 0.828125q0.34375 0.21875 1.1875 0.21875q0.734375 0 1.109375 -0.125l0 1.578125q-0.71875 0.21875 -1.6875 0.21875zm2.8511353 -12.625l2.171875 0l0 2.640625l-2.171875 0l0 -2.640625zm7.3125 12.625q-1.0 0 -1.9375 -0.171875q-0.9375 -0.1875 -1.625 -0.5l0 -4.546875l3.65625 0l0.109375 1.59375l-1.71875 0l0 1.734375q0.28125 0.109375 0.71875 0.171875q0.4375 0.046875 0.8125 0.046875q0.890625 0 1.390625 -0.265625q0.515625 -0.28125 0.75 -0.875q0.234375 -0.609375 0.234375 -1.625q0 -1.109375 -0.28125 -1.71875q-0.28125 -0.609375 -0.90625 -0.859375q-0.625 -0.265625 -1.734375 -0.265625q-1.53125 0 -2.921875 0.4375l0 -1.609375q0.703125 -0.25 1.625 -0.375q0.9375 -0.125 1.828125 -0.125q2.296875 0 3.359375 1.140625q1.078125 1.125 1.078125 3.375q0 2.1875 -1.078125 3.3125q-1.0625 1.125 -3.359375 1.125zm9.652771 0q-1.890625 0 -3.015625 -0.65625q-1.125 -0.65625 -1.125 -2.125q0 -0.59375 0.265625 -1.078125q0.28125 -0.484375 0.8125 -0.796875q-0.46875 -0.203125 -0.765625 -0.65625q-0.28125 -0.453125 -0.28125 -1.078125q0 -1.234375 0.765625 -1.890625q0.78125 -0.671875 2.09375 -0.671875q0.890625 0 1.484375 0.21875l0 1.59375q-0.453125 -0.140625 -1.09375 -0.140625q-0.609375 0 -0.90625 0.21875q-0.296875 0.203125 -0.296875 0.671875q0 0.5 0.3125 0.71875q0.328125 0.203125 1.03125 0.203125l0.890625 0l0.078125 1.578125l-0.984375 0q-1.359375 0 -1.359375 1.109375q0 0.5625 0.484375 0.84375q0.484375 0.265625 1.515625 0.265625q2.03125 0 2.03125 -1.6875l0 -5.4375l2.15625 0l0 5.25q0 1.828125 -1.046875 2.6875q-1.03125 0.859375 -3.046875 0.859375zm8.118286 -0.15625q-1.03125 0 -1.46875 -0.421875q-0.421875 -0.421875 -0.421875 -1.375l0 -5.28125q0 -1.609375 1.046875 -2.34375l-2.3125 0l0 -1.6875l4.921875 0l0 1.578125q-0.796875 0.28125 -1.15625 0.90625q-0.34375 0.609375 -0.34375 1.65625l0 4.609375q0 0.671875 0.65625 0.671875l0.546875 0l0 1.6875l-1.46875 0zm2.3342285 -8.640625l2.078125 0l1.125 5.546875l1.3125 -4.171875l0 -1.375l1.515625 0l1.53125 5.546875l1.515625 -8.109375l2.0625 0l-2.421875 11.203125l-1.875 0l-1.421875 -4.9375l-1.546875 4.9375l-1.859375 0l-2.015625 -8.640625zm20.547546 8.796875q-0.75 0 -1.59375 -0.125q-0.84375 -0.125 -1.390625 -0.375l0 -1.859375q0.546875 0.234375 1.296875 0.375q0.75 0.125 1.390625 0.125q1.125 0 1.640625 -0.359375q0.515625 -0.359375 0.515625 -1.1875q0 -0.78125 -0.390625 -1.109375q-0.375 -0.34375 -1.390625 -0.34375l-3.109375 0l0 -1.21875l0.265625 -4.375l6.125 0l-0.15625 1.65625l-4.125 0l-0.140625 2.265625l1.546875 0q1.84375 0 2.703125 0.8125q0.875 0.796875 0.875 2.390625q0 1.5625 -1.046875 2.453125q-1.03125 0.875 -3.015625 0.875zm5.256775 -10.453125l2.25 0l2.859375 7.875l2.859375 -7.875l2.25 0l-3.921875 10.296875l-2.359375 0l-3.9375 -10.296875z" fill-rule="nonzero"/><path fill="#4a86e8" d="m622.6207 125.2336l127.1181 0l0 58.992126l-127.1181 0z" fill-rule="evenodd"/><path fill="#ffffff" d="m641.5721 138.83966q0 -0.8125 0.265625 -1.34375q0.28125 -0.546875 0.96875 -0.75l-1.625 -0.4375l0 -2.0625q0.75 -0.625 1.84375 -1.03125q1.09375 -0.421875 2.40625 -0.421875q2.046875 0 3.078125 0.828125q1.03125 0.8125 1.03125 2.75l0 5.21875l-2.15625 0l0 -5.265625q0 -1.0 -0.46875 -1.421875q-0.46875 -0.4375 -1.59375 -0.4375q-0.6875 0 -1.296875 0.21875q-0.609375 0.203125 -0.984375 0.515625l0 0.234375l1.765625 0.46875l0 1.3125q-0.625 0.171875 -0.84375 0.53125q-0.21875 0.359375 -0.21875 1.109375l0 2.734375l-2.171875 0l0 -2.75zm6.9520264 -6.796875q-0.8125 0 -1.375 -0.515625q-0.5625 -0.53125 -0.5625 -1.328125q0 -0.796875 0.5625 -1.328125q0.5625 -0.53125 1.375 -0.53125q0.8125 0 1.375 0.53125q0.546875 0.53125 0.546875 1.328125q0 0.796875 -0.546875 1.328125q-0.5625 0.515625 -1.375 0.515625zm0 -1.140625q0.28125 0 0.5 -0.21875q0.203125 -0.21875 0.203125 -0.484375q0 -0.296875 -0.203125 -0.5q-0.21875 -0.21875 -0.5 -0.21875q-0.28125 0 -0.5 0.21875q-0.21875 0.203125 -0.21875 0.5q0 0.265625 0.21875 0.484375q0.21875 0.21875 0.5 0.21875zm5.984375 5.375q0 -0.921875 -0.359375 -1.359375q-0.359375 -0.453125 -1.328125 -0.453125q-0.5 0 -1.09375 0.125q-0.59375 0.109375 -1.078125 0.296875l0 -1.578125q0.5 -0.234375 1.203125 -0.375q0.703125 -0.140625 1.390625 -0.140625q1.8125 0 2.609375 0.765625q0.8125 0.765625 0.8125 2.421875l0 5.609375l-2.15625 0l0 -5.3125zm4.057495 -3.328125l2.171875 0l0 2.625l2.140625 0q0.796875 0 1.125 -0.34375q0.328125 -0.359375 0.328125 -1.109375l0 -1.171875l2.15625 0l0 1.09375q0 1.796875 -1.234375 2.296875q0.640625 0.265625 0.90625 0.765625q0.265625 0.5 0.265625 1.265625l0 3.21875l-2.15625 0l0 -2.96875q0 -0.828125 -0.3125 -1.140625q-0.3125 -0.328125 -1.125 -0.328125l-2.09375 0l0 4.4375l-2.171875 0l0 -8.640625zm12.76001 8.796875q-1.390625 0 -2.203125 -0.84375q-0.796875 -0.84375 -0.796875 -2.34375l0 -5.609375l2.171875 0l0 5.484375q0 0.875 0.375 1.265625q0.390625 0.375 1.171875 0.375q0.59375 0 1.171875 -0.25q0.59375 -0.265625 0.9375 -0.65625l0 -6.21875l2.15625 0l0 8.640625l-1.984375 0l-0.09375 -0.84375q-1.25 1.0 -2.90625 1.0zm10.1848755 0q-1.640625 0 -2.625 -1.0625q-0.984375 -1.0625 -0.984375 -3.234375q0 -2.234375 1.140625 -3.4375q1.15625 -1.21875 3.375 -1.21875q1.46875 0 2.453125 0.5q0.984375 0.484375 1.4375 1.3125q0.453125 0.8125 0.453125 1.765625l0 5.21875l-2.15625 0l0 -5.078125q0 -0.96875 -0.515625 -1.5q-0.5 -0.546875 -1.703125 -0.546875q-2.4375 0 -2.4375 2.984375q0 1.40625 0.484375 2.015625q0.484375 0.609375 1.46875 0.609375q0.734375 0 1.109375 -0.125l0 1.578125q-0.59375 0.21875 -1.5 0.21875zm8.823059 -0.15625q-1.03125 0 -1.46875 -0.421875q-0.421875 -0.421875 -0.421875 -1.375l0 -3.453125q0 -0.8125 0.296875 -1.359375q0.3125 -0.5625 0.859375 -1.171875q0.3125 -0.34375 0.453125 -0.546875q0.140625 -0.203125 0.140625 -0.40625q0 -0.40625 -0.234375 -0.5625q-0.21875 -0.171875 -0.71875 -0.171875q-0.859375 0 -1.6875 0.484375l0 -1.5625q0.46875 -0.28125 1.140625 -0.4375q0.671875 -0.171875 1.328125 -0.171875q1.1875 0 1.796875 0.46875q0.625 0.46875 0.625 1.375q0 0.578125 -0.234375 1.0q-0.21875 0.40625 -0.65625 1.0q-0.46875 0.59375 -0.71875 1.0625q-0.234375 0.453125 -0.234375 1.078125l0 2.8125q0 0.671875 0.65625 0.671875l0.546875 0l0 1.6875l-1.46875 0zm3.1281128 -8.640625l2.171875 0l0 2.625l2.140625 0q0.796875 0 1.125 -0.34375q0.328125 -0.359375 0.328125 -1.109375l0 -1.171875l2.15625 0l0 1.09375q0 1.796875 -1.234375 2.296875q0.640625 0.265625 0.90625 0.765625q0.265625 0.5 0.265625 1.265625l0 3.21875l-2.15625 0l0 -2.96875q0 -0.828125 -0.3125 -1.140625q-0.3125 -0.328125 -1.125 -0.328125l-2.09375 0l0 4.4375l-2.171875 0l0 -8.640625zm3.9787598 -2.609375l-1.25 0l0 -1.46875l2.703125 0l0 1.421875l3.421875 0l-0.078125 1.46875l-4.796875 0l0 -1.421875zm11.54126 0.953125l4.84375 0q1.734375 0 2.625 0.96875q0.90625 0.96875 0.90625 2.578125q0 1.03125 -0.4375 1.84375q-0.4375 0.796875 -1.265625 1.234375q-0.8125 0.4375 -1.890625 0.4375l-2.609375 0l0 3.234375l-2.171875 0l0 -10.296875zm4.328125 5.359375q0.90625 0 1.390625 -0.484375q0.484375 -0.484375 0.484375 -1.328125q0 -0.890625 -0.453125 -1.359375q-0.453125 -0.484375 -1.34375 -0.484375l-2.234375 0l0 3.65625l2.15625 0zm5.808655 -5.734375l2.34375 0l0 1.703125l-2.34375 0l0 -1.703125zm0.171875 4.6875l-1.140625 0l0.203125 -1.59375l3.09375 0l0 7.578125l-2.15625 0l0 -5.984375zm3.9954224 -1.59375l2.0 0l0.078125 0.71875q0.515625 -0.390625 1.21875 -0.640625q0.703125 -0.25 1.453125 -0.25q1.5 0 2.1875 0.703125q0.703125 0.6875 0.703125 2.1875l0 4.859375l-2.15625 0l0 -4.75q0 -0.78125 -0.328125 -1.09375q-0.3125 -0.3125 -1.15625 -0.3125q-0.484375 0 -0.984375 0.21875q-0.5 0.203125 -0.84375 0.5625l0 5.375l-2.171875 0l0 -7.578125z" fill-rule="nonzero"/><path fill="#ffffff" d="m675.0055 159.54279q0.375 -0.828125 1.0 -1.515625q0.625 -0.703125 1.671875 -1.625l0.421875 -0.375q0.75 -0.6875 1.0625 -1.015625q0.3125 -0.328125 0.4375 -0.671875q0.140625 -0.34375 0.140625 -0.875q0 -0.734375 -0.484375 -1.109375q-0.46875 -0.375 -1.40625 -0.375q-1.234375 0 -2.484375 0.5l0 -1.90625q0.59375 -0.203125 1.40625 -0.328125q0.8125 -0.125 1.5625 -0.125q1.765625 0 2.671875 0.875q0.921875 0.875 0.921875 2.421875q0 0.984375 -0.46875 1.71875q-0.453125 0.734375 -1.40625 1.546875l-0.25 0.21875q-0.71875 0.625 -1.1875 1.09375q-0.46875 0.453125 -0.796875 0.9375l4.203125 0l0 1.65625l-7.015625 0l0 -1.046875zm8.208069 -4.140625l6.171875 0l0 1.6875l-6.171875 0l0 -1.6875zm11.922485 -3.453125l-4.71875 0l0 -1.65625l7.078125 0l0 1.328125l-3.78125 8.96875l-2.25 0l3.671875 -8.640625z" fill-rule="nonzero"/><path fill="#ffffff" d="m643.3994 179.58966q-1.015625 0 -1.453125 -0.421875q-0.4375 -0.421875 -0.4375 -1.375l0 -6.84375l2.171875 0l0 6.28125q0 0.671875 0.65625 0.671875l0.53125 0l0 1.6875l-1.46875 0zm7.1155396 0.15625q-1.953125 0 -3.046875 -0.921875q-1.078125 -0.921875 -1.078125 -2.703125l0 -5.171875l2.171875 0l0 5.203125q0 0.96875 0.484375 1.453125q0.484375 0.46875 1.46875 0.46875q0.96875 0 1.453125 -0.46875q0.484375 -0.484375 0.484375 -1.453125l0 -7.765625l2.171875 0l0 7.734375q0 1.78125 -1.09375 2.703125q-1.078125 0.921875 -3.015625 0.921875zm-2.4523926 -9.5625q-0.984375 0 -1.515625 -0.5q-0.546875 -0.515625 -0.546875 -1.4375q0 -0.90625 0.578125 -1.453125q0.578125 -0.5625 1.640625 -0.5625l3.578125 0l-0.09375 1.203125l-3.28125 0q-0.46875 0 -0.71875 0.1875q-0.25 0.1875 -0.25 0.625q0 0.75 0.75 0.75q0.734375 0 0.734375 -0.640625l0 -0.28125l1.28125 0l0 0.28125q0 0.328125 0.171875 0.46875q0.171875 0.125 0.515625 0.125l0.609375 0l0 1.203125l-0.765625 0q-0.421875 0 -0.734375 -0.125q-0.328125 -0.125 -0.453125 -0.375q-0.15625 0.234375 -0.59375 0.390625q-0.4375 0.140625 -0.90625 0.140625zm11.455383 9.5625q-1.390625 0 -2.203125 -0.84375q-0.796875 -0.84375 -0.796875 -2.34375l0 -5.609375l2.171875 0l0 5.484375q0 0.875 0.375 1.265625q0.390625 0.375 1.171875 0.375q0.59375 0 1.171875 -0.25q0.59375 -0.265625 0.9375 -0.65625l0 -6.21875l2.15625 0l0 8.640625l-1.984375 0l-0.09375 -0.84375q-1.25 1.0 -2.90625 1.0zm17.335571 0q-5.0 0 -5.0 -5.265625q0 -2.78125 1.234375 -4.0625q1.25 -1.296875 3.765625 -1.296875q2.53125 0 3.765625 1.296875q1.25 1.28125 1.25 4.0625q0 5.265625 -5.015625 5.265625zm0 -1.84375q1.453125 0 2.140625 -0.828125q0.6875 -0.84375 0.6875 -2.59375q0 -1.90625 -0.671875 -2.703125q-0.671875 -0.8125 -2.15625 -0.8125q-1.46875 0 -2.140625 0.8125q-0.671875 0.796875 -0.671875 2.703125q0 1.75 0.6875 2.59375q0.6875 0.828125 2.125 0.828125zm11.043762 1.84375q-2.15625 0 -3.390625 -1.03125q-1.21875 -1.046875 -1.21875 -3.0l0 -6.421875l2.15625 0l0 6.265625q0 1.171875 0.625 1.765625q0.640625 0.578125 1.828125 0.578125q1.1875 0 1.8125 -0.578125q0.625 -0.59375 0.625 -1.765625l0 -6.265625l2.15625 0l0 6.421875q0 1.9375 -1.21875 2.984375q-1.21875 1.046875 -3.375 1.046875zm8.864014 -8.796875l-3.171875 0l0 -1.65625l8.484375 0l0 1.65625l-3.15625 0l0 8.640625l-2.15625 0l0 -8.640625zm6.492798 -1.65625l4.84375 0q1.734375 0 2.625 0.96875q0.90625 0.96875 0.90625 2.578125q0 1.03125 -0.4375 1.84375q-0.4375 0.796875 -1.265625 1.234375q-0.8125 0.4375 -1.890625 0.4375l-2.609375 0l0 3.234375l-2.171875 0l0 -10.296875zm4.328125 5.359375q0.90625 0 1.390625 -0.484375q0.484375 -0.484375 0.484375 -1.328125q0 -0.890625 -0.453125 -1.359375q-0.453125 -0.484375 -1.34375 -0.484375l-2.234375 0l0 3.65625l2.15625 0zm9.771118 5.09375q-2.15625 0 -3.390625 -1.03125q-1.21875 -1.046875 -1.21875 -3.0l0 -6.421875l2.15625 0l0 6.265625q0 1.171875 0.625 1.765625q0.640625 0.578125 1.828125 0.578125q1.1875 0 1.8125 -0.578125q0.625 -0.59375 0.625 -1.765625l0 -6.265625l2.15625 0l0 6.421875q0 1.9375 -1.21875 2.984375q-1.21875 1.046875 -3.375 1.046875zm8.864014 -8.796875l-3.171875 0l0 -1.65625l8.484375 0l0 1.65625l-3.15625 0l0 8.640625l-2.15625 0l0 -8.640625z" fill-rule="nonzero"/><path fill="#000000" fill-opacity="0.0" d="m684.2244 354.27298l-0.9763794 28.283447" fill-rule="evenodd"/><path stroke="#000000" stroke-width="1.0" stroke-linejoin="round" stroke-linecap="butt" d="m684.2244 354.27298l-0.76934814 22.287018" fill-rule="evenodd"/><path fill="#000000" stroke="#000000" stroke-width="1.0" stroke-linecap="butt" d="m681.80426 376.50302l1.4942017 4.5923767l1.807312 -4.478424z" fill-rule="evenodd"/><path fill="#000000" fill-opacity="0.0" d="m684.2244 439.2966l-0.9763794 28.283447" fill-rule="evenodd"/><path stroke="#000000" stroke-width="1.0" stroke-linejoin="round" stroke-linecap="butt" d="m684.2244 439.2966l-0.76934814 22.287018" fill-rule="evenodd"/><path fill="#000000" stroke="#000000" stroke-width="1.0" stroke-linecap="butt" d="m681.80426 461.52664l1.4942017 4.5923767l1.807312 -4.4783936z" fill-rule="evenodd"/><path fill="#cc0000" d="m650.8518 797.1076l69.67786 0l0 0c9.127991 0 16.52771 7.6654663 16.52771 17.121277c0 9.455811 -7.399719 17.121277 -16.52771 17.121277l-69.67786 0l0 0c-9.127991 0 -16.527649 -7.6654663 -16.527649 -17.121277c0 -9.455811 7.399658 -17.121277 16.527649 -17.121277z" fill-rule="evenodd"/><path fill="#ffffff" d="m680.62384 820.2451q-0.34375 0 -0.75 -0.0625q-0.390625 -0.046875 -0.625 -0.140625l-1.28125 -3.40625l-1.109375 0l0.078125 -1.3125l2.125 0l1.328125 3.546875q1.140625 0.046875 1.828125 -0.71875q0.6875 -0.765625 0.6875 -2.46875q0 -1.125 -0.296875 -1.765625q-0.296875 -0.65625 -0.96875 -0.9375q-0.671875 -0.28125 -1.859375 -0.28125q-1.46875 0 -2.734375 0.421875l0 -1.34375q1.515625 -0.484375 3.203125 -0.484375q2.234375 0 3.28125 1.109375q1.0625 1.109375 1.0625 3.28125q0 1.453125 -0.546875 2.484375q-0.53125 1.03125 -1.4375 1.5625q-0.90625 0.515625 -1.984375 0.515625zm9.604065 0q-1.875 0 -2.90625 -0.875q-1.03125 -0.890625 -1.03125 -2.640625l0 -5.28125l1.734375 0l0 5.34375q0 1.0625 0.546875 1.5625q0.5625 0.5 1.65625 0.5q1.109375 0 1.671875 -0.5q0.5625 -0.5 0.5625 -1.5625l0 -5.34375l1.71875 0l0 5.28125q0 1.75 -1.03125 2.640625q-1.015625 0.875 -2.921875 0.875z" fill-rule="nonzero"/><path fill="#4a86e8" d="m620.1772 465.3281l127.1181 0l0 58.992096l-127.1181 0z" fill-rule="evenodd"/><path fill="#ffffff" d="m639.1285 478.93414q0 -0.8125 0.265625 -1.34375q0.28125 -0.546875 0.96875 -0.75l-1.625 -0.4375l0 -2.0625q0.75 -0.625 1.84375 -1.03125q1.09375 -0.421875 2.40625 -0.421875q2.046875 0 3.078125 0.828125q1.03125 0.8125 1.03125 2.75l0 5.21875l-2.15625 0l0 -5.265625q0 -1.0 -0.46875 -1.421875q-0.46875 -0.4375 -1.59375 -0.4375q-0.6875 0 -1.296875 0.21875q-0.609375 0.203125 -0.984375 0.515625l0 0.234375l1.765625 0.46875l0 1.3125q-0.625 0.171875 -0.84375 0.53125q-0.21875 0.359375 -0.21875 1.109375l0 2.734375l-2.171875 0l0 -2.75zm6.9520264 -6.796875q-0.8125 0 -1.375 -0.515625q-0.5625 -0.53125 -0.5625 -1.328125q0 -0.796875 0.5625 -1.328125q0.5625 -0.53125 1.375 -0.53125q0.8125 0 1.375 0.53125q0.546875 0.53125 0.546875 1.328125q0 0.796875 -0.546875 1.328125q-0.5625 0.515625 -1.375 0.515625zm0 -1.140625q0.28125 0 0.5 -0.21875q0.203125 -0.21875 0.203125 -0.484375q0 -0.296875 -0.203125 -0.5q-0.21875 -0.21875 -0.5 -0.21875q-0.28125 0 -0.5 0.21875q-0.21875 0.203125 -0.21875 0.5q0 0.265625 0.21875 0.484375q0.21875 0.21875 0.5 0.21875zm5.984375 5.375q0 -0.921875 -0.359375 -1.359375q-0.359375 -0.453125 -1.328125 -0.453125q-0.5 0 -1.09375 0.125q-0.59375 0.109375 -1.078125 0.296875l0 -1.578125q0.5 -0.234375 1.203125 -0.375q0.703125 -0.140625 1.390625 -0.140625q1.8125 0 2.609375 0.765625q0.8125 0.765625 0.8125 2.421875l0 5.609375l-2.15625 0l0 -5.3125zm4.057495 -3.328125l2.171875 0l0 2.625l2.140625 0q0.796875 0 1.125 -0.34375q0.328125 -0.359375 0.328125 -1.109375l0 -1.171875l2.15625 0l0 1.09375q0 1.796875 -1.234375 2.296875q0.640625 0.265625 0.90625 0.765625q0.265625 0.5 0.265625 1.265625l0 3.21875l-2.15625 0l0 -2.96875q0 -0.828125 -0.3125 -1.140625q-0.3125 -0.328125 -1.125 -0.328125l-2.09375 0l0 4.4375l-2.171875 0l0 -8.640625zm12.760071 8.796875q-1.390625 0 -2.203125 -0.84375q-0.796875 -0.84375 -0.796875 -2.34375l0 -5.609375l2.171875 0l0 5.484375q0 0.875 0.375 1.265625q0.390625 0.375 1.171875 0.375q0.59375 0 1.171875 -0.25q0.59375 -0.265625 0.9375 -0.65625l0 -6.21875l2.15625 0l0 8.640625l-1.984375 0l-0.09375 -0.84375q-1.25 1.0 -2.90625 1.0zm10.1848755 0q-1.640625 0 -2.625 -1.0625q-0.984375 -1.0625 -0.984375 -3.234375q0 -2.234375 1.140625 -3.4375q1.15625 -1.21875 3.375 -1.21875q1.46875 0 2.453125 0.5q0.984375 0.484375 1.4375 1.3125q0.453125 0.8125 0.453125 1.765625l0 5.21875l-2.15625 0l0 -5.078125q0 -0.96875 -0.515625 -1.5q-0.5 -0.546875 -1.703125 -0.546875q-2.4375 0 -2.4375 2.984375q0 1.40625 0.484375 2.015625q0.484375 0.609375 1.46875 0.609375q0.734375 0 1.109375 -0.125l0 1.578125q-0.59375 0.21875 -1.5 0.21875zm8.822998 -0.15625q-1.03125 0 -1.46875 -0.421875q-0.421875 -0.421875 -0.421875 -1.375l0 -3.453125q0 -0.8125 0.296875 -1.359375q0.3125 -0.5625 0.859375 -1.171875q0.3125 -0.34375 0.453125 -0.546875q0.140625 -0.203125 0.140625 -0.40625q0 -0.40625 -0.234375 -0.5625q-0.21875 -0.171875 -0.71875 -0.171875q-0.859375 0 -1.6875 0.484375l0 -1.5625q0.46875 -0.28125 1.140625 -0.4375q0.671875 -0.171875 1.328125 -0.171875q1.1875 0 1.796875 0.46875q0.625 0.46875 0.625 1.375q0 0.578125 -0.234375 1.0q-0.21875 0.40625 -0.65625 1.0q-0.46875 0.59375 -0.71875 1.0625q-0.234375 0.453125 -0.234375 1.078125l0 2.8125q0 0.671875 0.65625 0.671875l0.546875 0l0 1.6875l-1.46875 0zm3.1281738 -8.640625l2.171875 0l0 2.625l2.140625 0q0.796875 0 1.125 -0.34375q0.328125 -0.359375 0.328125 -1.109375l0 -1.171875l2.15625 0l0 1.09375q0 1.796875 -1.234375 2.296875q0.640625 0.265625 0.90625 0.765625q0.265625 0.5 0.265625 1.265625l0 3.21875l-2.15625 0l0 -2.96875q0 -0.828125 -0.3125 -1.140625q-0.3125 -0.328125 -1.125 -0.328125l-2.09375 0l0 4.4375l-2.171875 0l0 -8.640625zm3.9787598 -2.609375l-1.25 0l0 -1.46875l2.703125 0l0 1.421875l3.421875 0l-0.078125 1.46875l-4.796875 0l0 -1.421875zm11.54126 0.953125l4.84375 0q1.734375 0 2.625 0.96875q0.90625 0.96875 0.90625 2.578125q0 1.03125 -0.4375 1.84375q-0.4375 0.796875 -1.265625 1.234375q-0.8125 0.4375 -1.890625 0.4375l-2.609375 0l0 3.234375l-2.171875 0l0 -10.296875zm4.328125 5.359375q0.90625 0 1.390625 -0.484375q0.484375 -0.484375 0.484375 -1.328125q0 -0.890625 -0.453125 -1.359375q-0.453125 -0.484375 -1.34375 -0.484375l-2.234375 0l0 3.65625l2.15625 0zm5.808655 -5.734375l2.34375 0l0 1.703125l-2.34375 0l0 -1.703125zm0.171875 4.6875l-1.140625 0l0.203125 -1.59375l3.09375 0l0 7.578125l-2.15625 0l0 -5.984375zm3.9953613 -1.59375l2.0 0l0.078125 0.71875q0.515625 -0.390625 1.21875 -0.640625q0.703125 -0.25 1.453125 -0.25q1.5 0 2.1875 0.703125q0.703125 0.6875 0.703125 2.1875l0 4.859375l-2.15625 0l0 -4.75q0 -0.78125 -0.328125 -1.09375q-0.3125 -0.3125 -1.15625 -0.3125q-0.484375 0 -0.984375 0.21875q-0.5 0.203125 -0.84375 0.5625l0 5.375l-2.171875 0l0 -7.578125z" fill-rule="nonzero"/><path fill="#ffffff" d="m673.1818 500.8404q-4.171875 0 -4.171875 -3.015625q0 -0.859375 0.4375 -1.515625q0.4375 -0.671875 1.21875 -0.953125q-0.6875 -0.296875 -1.046875 -0.859375q-0.34375 -0.578125 -0.34375 -1.265625q0 -1.40625 0.96875 -2.203125q0.984375 -0.8125 2.9375 -0.8125q2.0 0 2.953125 0.796875q0.953125 0.796875 0.953125 2.21875q0 0.734375 -0.359375 1.328125q-0.34375 0.59375 -1.078125 0.90625q1.703125 0.609375 1.703125 2.359375q0 3.015625 -4.171875 3.015625zm0.421875 -6.03125q0.78125 -0.203125 1.109375 -0.53125q0.328125 -0.34375 0.328125 -1.0q0 -0.703125 -0.453125 -1.03125q-0.453125 -0.328125 -1.40625 -0.328125q-0.9375 0 -1.40625 0.328125q-0.453125 0.3125 -0.453125 1.03125q0 0.5625 0.296875 0.890625q0.296875 0.328125 0.921875 0.4375l1.0625 0.203125zm-0.421875 4.359375q1.09375 0 1.609375 -0.328125q0.515625 -0.328125 0.515625 -1.046875q0 -0.640625 -0.34375 -0.9375q-0.328125 -0.296875 -1.15625 -0.46875l-1.234375 -0.265625q-0.75 0.171875 -1.140625 0.53125q-0.375 0.34375 -0.375 1.078125q0 0.765625 0.515625 1.109375q0.53125 0.328125 1.609375 0.328125zm5.380127 -3.671875l6.171875 0l0 1.6875l-6.171875 0l0 -1.6875zm9.031921 -3.171875l-1.671875 0.28125l0 -1.8125l3.84375 -0.578125l0 10.46875l-2.171875 0l0 -8.359375zm6.734619 8.515625q-0.71875 0 -1.625 -0.140625q-0.90625 -0.140625 -1.4375 -0.359375l0 -1.875q1.234375 0.515625 2.75 0.515625q1.171875 0 1.703125 -0.328125q0.53125 -0.328125 0.53125 -1.125q0 -0.671875 -0.46875 -0.96875q-0.46875 -0.296875 -1.40625 -0.296875l-1.625 0l0.15625 -1.578125l1.34375 0q0.9375 0 1.359375 -0.3125q0.4375 -0.3125 0.4375 -0.984375q0 -0.671875 -0.5 -1.0q-0.484375 -0.328125 -1.546875 -0.328125q-0.671875 0 -1.359375 0.140625q-0.671875 0.125 -1.203125 0.375l0 -1.84375q0.53125 -0.21875 1.328125 -0.359375q0.8125 -0.15625 1.609375 -0.15625q1.859375 0 2.859375 0.796875q1.0 0.78125 1.0 2.078125q0 0.796875 -0.359375 1.453125q-0.359375 0.640625 -1.046875 0.921875q0.8125 0.25 1.21875 0.84375q0.40625 0.59375 0.40625 1.453125q0 1.53125 -1.109375 2.3125q-1.109375 0.765625 -3.015625 0.765625z" fill-rule="nonzero"/><path fill="#ffffff" d="m640.9559 519.68414q-1.015625 0 -1.453125 -0.421875q-0.4375 -0.421875 -0.4375 -1.375l0 -6.84375l2.171875 0l0 6.28125q0 0.671875 0.65625 0.671875l0.53125 0l0 1.6875l-1.46875 0zm7.1154785 0.15625q-1.953125 0 -3.046875 -0.921875q-1.078125 -0.921875 -1.078125 -2.703125l0 -5.171875l2.171875 0l0 5.203125q0 0.96875 0.484375 1.453125q0.484375 0.46875 1.46875 0.46875q0.96875 0 1.453125 -0.46875q0.484375 -0.484375 0.484375 -1.453125l0 -7.765625l2.171875 0l0 7.734375q0 1.78125 -1.09375 2.703125q-1.078125 0.921875 -3.015625 0.921875zm-2.4523315 -9.5625q-0.984375 0 -1.515625 -0.5q-0.546875 -0.515625 -0.546875 -1.4375q0 -0.90625 0.578125 -1.453125q0.578125 -0.5625 1.640625 -0.5625l3.578125 0l-0.09375 1.203125l-3.28125 0q-0.46875 0 -0.71875 0.1875q-0.25 0.1875 -0.25 0.625q0 0.75 0.75 0.75q0.734375 0 0.734375 -0.640625l0 -0.28125l1.28125 0l0 0.28125q0 0.328125 0.171875 0.46875q0.171875 0.125 0.515625 0.125l0.609375 0l0 1.203125l-0.765625 0q-0.421875 0 -0.734375 -0.125q-0.328125 -0.125 -0.453125 -0.375q-0.15625 0.234375 -0.59375 0.390625q-0.4375 0.140625 -0.90625 0.140625zm11.455383 9.5625q-1.390625 0 -2.203125 -0.84375q-0.796875 -0.84375 -0.796875 -2.34375l0 -5.609375l2.171875 0l0 5.484375q0 0.875 0.375 1.265625q0.390625 0.375 1.171875 0.375q0.59375 0 1.171875 -0.25q0.59375 -0.265625 0.9375 -0.65625l0 -6.21875l2.15625 0l0 8.640625l-1.984375 0l-0.09375 -0.84375q-1.25 1.0 -2.90625 1.0zm17.33551 0q-5.0 0 -5.0 -5.265625q0 -2.78125 1.234375 -4.0625q1.25 -1.296875 3.765625 -1.296875q2.53125 0 3.765625 1.296875q1.25 1.28125 1.25 4.0625q0 5.265625 -5.015625 5.265625zm0 -1.84375q1.453125 0 2.140625 -0.828125q0.6875 -0.84375 0.6875 -2.59375q0 -1.90625 -0.671875 -2.703125q-0.671875 -0.8125 -2.15625 -0.8125q-1.46875 0 -2.140625 0.8125q-0.671875 0.796875 -0.671875 2.703125q0 1.75 0.6875 2.59375q0.6875 0.828125 2.125 0.828125zm11.043762 1.84375q-2.15625 0 -3.390625 -1.03125q-1.21875 -1.046875 -1.21875 -3.0l0 -6.421875l2.15625 0l0 6.265625q0 1.171875 0.625 1.765625q0.640625 0.578125 1.828125 0.578125q1.1875 0 1.8125 -0.578125q0.625 -0.59375 0.625 -1.765625l0 -6.265625l2.15625 0l0 6.421875q0 1.9375 -1.21875 2.984375q-1.21875 1.046875 -3.375 1.046875zm8.864075 -8.796875l-3.171875 0l0 -1.65625l8.484375 0l0 1.65625l-3.15625 0l0 8.640625l-2.15625 0l0 -8.640625zm6.492737 -1.65625l4.84375 0q1.734375 0 2.625 0.96875q0.90625 0.96875 0.90625 2.578125q0 1.03125 -0.4375 1.84375q-0.4375 0.796875 -1.265625 1.234375q-0.8125 0.4375 -1.890625 0.4375l-2.609375 0l0 3.234375l-2.171875 0l0 -10.296875zm4.328125 5.359375q0.90625 0 1.390625 -0.484375q0.484375 -0.484375 0.484375 -1.328125q0 -0.890625 -0.453125 -1.359375q-0.453125 -0.484375 -1.34375 -0.484375l-2.234375 0l0 3.65625l2.15625 0zm9.771179 5.09375q-2.15625 0 -3.390625 -1.03125q-1.21875 -1.046875 -1.21875 -3.0l0 -6.421875l2.15625 0l0 6.265625q0 1.171875 0.625 1.765625q0.640625 0.578125 1.828125 0.578125q1.1875 0 1.8125 -0.578125q0.625 -0.59375 0.625 -1.765625l0 -6.265625l2.15625 0l0 6.421875q0 1.9375 -1.21875 2.984375q-1.21875 1.046875 -3.375 1.046875zm8.864014 -8.796875l-3.171875 0l0 -1.65625l8.484375 0l0 1.65625l-3.15625 0l0 8.640625l-2.15625 0l0 -8.640625z" fill-rule="nonzero"/><path fill="#000000" fill-opacity="0.0" d="m686.66797 524.3202l-0.9763794 28.283508" fill-rule="evenodd"/><path stroke="#000000" stroke-width="1.0" stroke-linejoin="round" stroke-linecap="butt" d="m686.66797 524.3202l-0.76934814 22.287048" fill-rule="evenodd"/><path fill="#000000" stroke="#000000" stroke-width="1.0" stroke-linecap="butt" d="m684.24786 546.55023l1.4942017 4.592407l1.807312 -4.4783936z" fill-rule="evenodd"/><path fill="#0f9d58" d="m583.1235 607.09186l13.622009 -54.48816l191.51184 0l-13.62207 54.48816z" fill-rule="evenodd"/><path fill="#ffffff" d="m638.1185 585.864q-1.0 0 -1.9375 -0.171875q-0.9375 -0.1875 -1.625 -0.5l0 -4.546875l3.65625 0l0.109375 1.59375l-1.71875 0l0 1.734375q0.28125 0.109375 0.71875 0.171875q0.4375 0.046875 0.8125 0.046875q0.890625 0 1.390625 -0.265625q0.515625 -0.28125 0.75 -0.875q0.234375 -0.609375 0.234375 -1.625q0 -1.109375 -0.28125 -1.71875q-0.28125 -0.609375 -0.90625 -0.859375q-0.625 -0.265625 -1.734375 -0.265625q-1.53125 0 -2.921875 0.4375l0 -1.609375q0.703125 -0.25 1.625 -0.375q0.9375 -0.125 1.828125 -0.125q2.296875 0 3.359375 1.140625q1.078125 1.125 1.078125 3.375q0 2.1875 -1.078125 3.3125q-1.0625 1.125 -3.359375 1.125zm1.871521 -12.625l2.171875 0l0 2.640625l-2.171875 0l0 -2.640625zm7.125 7.15625q0 -0.921875 -0.359375 -1.359375q-0.359375 -0.453125 -1.328125 -0.453125q-0.5 0 -1.09375 0.125q-0.59375 0.109375 -1.078125 0.296875l0 -1.578125q0.5 -0.234375 1.203125 -0.375q0.703125 -0.140625 1.390625 -0.140625q1.8125 0 2.609375 0.765625q0.8125 0.765625 0.8125 2.421875l0 5.609375l-2.15625 0l0 -5.3125zm7.057495 5.46875q-1.390625 0 -2.203125 -0.84375q-0.796875 -0.84375 -0.796875 -2.34375l0 -5.609375l2.171875 0l0 5.484375q0 0.875 0.375 1.265625q0.390625 0.375 1.171875 0.375q0.59375 0 1.171875 -0.25q0.59375 -0.265625 0.9375 -0.65625l0 -6.21875l2.15625 0l0 8.640625l-1.984375 0l-0.09375 -0.84375q-1.25 1.0 -2.90625 1.0zm6.8880615 -5.515625q0 -1.625 1.0 -2.53125q1.0 -0.90625 3.078125 -0.90625q2.09375 0 3.078125 0.90625q1.0 0.90625 1.0 2.53125l0 5.359375l-2.171875 0l0 -5.515625q0 -0.78125 -0.5 -1.1875q-0.5 -0.421875 -1.40625 -0.421875q-0.9375 0 -1.421875 0.421875q-0.484375 0.40625 -0.484375 1.1875l0 1.546875q0.671875 -0.515625 1.5 -0.515625l1.03125 0l0.078125 1.71875l-1.15625 0q-0.84375 0 -1.453125 0.46875l0 2.296875l-2.171875 0l0 -5.359375zm5.9854736 -7.109375l2.171875 0l0 2.640625l-2.171875 0l0 -2.640625zm7.125 7.15625q0 -0.921875 -0.359375 -1.359375q-0.359375 -0.453125 -1.328125 -0.453125q-0.5 0 -1.09375 0.125q-0.59375 0.109375 -1.078125 0.296875l0 -1.578125q0.5 -0.234375 1.203125 -0.375q0.703125 -0.140625 1.390625 -0.140625q1.8125 0 2.609375 0.765625q0.8125 0.765625 0.8125 2.421875l0 5.609375l-2.15625 0l0 -5.3125zm4.057556 -4.984375l4.84375 0q1.734375 0 2.625 0.96875q0.90625 0.96875 0.90625 2.578125q0 1.03125 -0.4375 1.84375q-0.4375 0.796875 -1.265625 1.234375q-0.8125 0.4375 -1.890625 0.4375l-2.609375 0l0 3.234375l-2.171875 0l0 -10.296875zm4.328125 5.359375q0.90625 0 1.390625 -0.484375q0.484375 -0.484375 0.484375 -1.328125q0 -0.890625 -0.453125 -1.359375q-0.453125 -0.484375 -1.34375 -0.484375l-2.234375 0l0 3.65625l2.15625 0zm5.808655 -5.734375l2.34375 0l0 1.703125l-2.34375 0l0 -1.703125zm0.171875 4.6875l-1.140625 0l0.203125 -1.59375l3.09375 0l0 7.578125l-2.15625 0l0 -5.984375zm3.9953613 -1.59375l2.0 0l0.078125 0.71875q0.515625 -0.390625 1.21875 -0.640625q0.703125 -0.25 1.453125 -0.25q1.5 0 2.1875 0.703125q0.703125 0.6875 0.703125 2.1875l0 4.859375l-2.15625 0l0 -4.75q0 -0.78125 -0.328125 -1.09375q-0.3125 -0.3125 -1.15625 -0.3125q-0.484375 0 -0.984375 0.21875q-0.5 0.203125 -0.84375 0.5625l0 5.375l-2.171875 0l0 -7.578125zm19.011414 7.734375q-4.171875 0 -4.171875 -3.015625q0 -0.859375 0.4375 -1.515625q0.4375 -0.671875 1.21875 -0.953125q-0.6875 -0.296875 -1.046875 -0.859375q-0.34375 -0.578125 -0.34375 -1.265625q0 -1.40625 0.96875 -2.203125q0.984375 -0.8125 2.9375 -0.8125q2.0 0 2.953125 0.796875q0.953125 0.796875 0.953125 2.21875q0 0.734375 -0.359375 1.328125q-0.34375 0.59375 -1.078125 0.90625q1.703125 0.609375 1.703125 2.359375q0 3.015625 -4.171875 3.015625zm0.421875 -6.03125q0.78125 -0.203125 1.109375 -0.53125q0.328125 -0.34375 0.328125 -1.0q0 -0.703125 -0.453125 -1.03125q-0.453125 -0.328125 -1.40625 -0.328125q-0.9375 0 -1.40625 0.328125q-0.453125 0.3125 -0.453125 1.03125q0 0.5625 0.296875 0.890625q0.296875 0.328125 0.921875 0.4375l1.0625 0.203125zm-0.421875 4.359375q1.09375 0 1.609375 -0.328125q0.515625 -0.328125 0.515625 -1.046875q0 -0.640625 -0.34375 -0.9375q-0.328125 -0.296875 -1.15625 -0.46875l-1.234375 -0.265625q-0.75 0.171875 -1.140625 0.53125q-0.375 0.34375 -0.375 1.078125q0 0.765625 0.515625 1.109375q0.53125 0.328125 1.609375 0.328125zm5.380127 -3.671875l6.171875 0l0 1.6875l-6.171875 0l0 -1.6875zm9.031921 -3.171875l-1.671875 0.28125l0 -1.8125l3.84375 -0.578125l0 10.46875l-2.171875 0l0 -8.359375zm6.734619 8.515625q-0.71875 0 -1.625 -0.140625q-0.90625 -0.140625 -1.4375 -0.359375l0 -1.875q1.234375 0.515625 2.75 0.515625q1.171875 0 1.703125 -0.328125q0.53125 -0.328125 0.53125 -1.125q0 -0.671875 -0.46875 -0.96875q-0.46875 -0.296875 -1.40625 -0.296875l-1.625 0l0.15625 -1.578125l1.34375 0q0.9375 0 1.359375 -0.3125q0.4375 -0.3125 0.4375 -0.984375q0 -0.671875 -0.5 -1.0q-0.484375 -0.328125 -1.546875 -0.328125q-0.671875 0 -1.359375 0.140625q-0.671875 0.125 -1.203125 0.375l0 -1.84375q0.53125 -0.21875 1.328125 -0.359375q0.8125 -0.15625 1.609375 -0.15625q1.859375 0 2.859375 0.796875q1.0 0.78125 1.0 2.078125q0 0.796875 -0.359375 1.453125q-0.359375 0.640625 -1.046875 0.921875q0.8125 0.25 1.21875 0.84375q0.40625 0.59375 0.40625 1.453125q0 1.53125 -1.109375 2.3125q-1.109375 0.765625 -3.015625 0.765625z" fill-rule="nonzero"/><path fill="#000000" fill-opacity="0.0" d="m686.66797 607.0906l-0.9763794 28.283447" fill-rule="evenodd"/><path stroke="#000000" stroke-width="1.0" stroke-linejoin="round" stroke-linecap="butt" d="m686.66797 607.0906l-0.76934814 22.286987" fill-rule="evenodd"/><path fill="#000000" stroke="#000000" stroke-width="1.0" stroke-linecap="butt" d="m684.24786 629.3206l1.4942017 4.592346l1.807312 -4.4783936z" fill-rule="evenodd"/><path fill="#4a86e8" d="m622.6207 635.3753l127.1181 0l0 58.992126l-127.1181 0z" fill-rule="evenodd"/><path fill="#ffffff" d="m654.33136 652.59076l1.734375 0l0 2.71875l2.5 0q0.90625 0 1.28125 -0.375q0.375 -0.390625 0.375 -1.21875l0 -1.125l1.734375 0l0 1.078125q0 1.8125 -1.296875 2.28125q0.6875 0.234375 0.953125 0.765625q0.265625 0.53125 0.265625 1.328125l0 3.1875l-1.734375 0l0 -2.96875q0 -0.9375 -0.359375 -1.28125q-0.34375 -0.34375 -1.28125 -0.34375l-2.4375 0l0 4.59375l-1.734375 0l0 -8.640625zm12.601501 8.796875q-1.390625 0 -2.171875 -0.8125q-0.765625 -0.828125 -0.765625 -2.3125l0 -5.671875l1.734375 0l0 5.578125q0 0.96875 0.421875 1.40625q0.421875 0.421875 1.359375 0.421875q0.6875 0 1.328125 -0.28125q0.640625 -0.296875 1.0625 -0.75l0 -6.375l1.734375 0l0 8.640625l-1.578125 0l-0.09375 -0.9375q-1.265625 1.09375 -3.03125 1.09375zm2.9613037 -12.75l1.734375 0l0 2.625l-1.734375 0l0 -2.625zm5.921875 12.75q-1.5 0 -2.59375 -0.46875l0 -1.390625q1.078125 0.46875 2.171875 0.46875q1.109375 0 1.734375 -0.296875q0.640625 -0.3125 0.90625 -0.984375q0.28125 -0.671875 0.28125 -1.796875q0 -1.671875 -0.6875 -2.375q-0.671875 -0.703125 -2.25 -0.703125q-1.109375 0 -2.15625 0.46875l0 -1.390625q1.140625 -0.484375 2.546875 -0.484375q2.125 0 3.171875 1.140625q1.0625 1.125 1.0625 3.34375q0 2.203125 -1.03125 3.34375q-1.015625 1.125 -3.15625 1.125zm9.202026 0q-1.03125 0 -1.609375 -0.203125l-2.421875 -5.921875l1.6875 0l1.96875 4.796875q1.359375 0.0625 1.984375 -0.78125q0.640625 -0.84375 0.640625 -2.640625q0 -1.046875 -0.203125 -1.640625q-0.1875 -0.59375 -0.640625 -0.84375q-0.4375 -0.25 -1.25 -0.25l-0.609375 0l0 -1.3125l0.828125 0q1.84375 0 2.703125 0.984375q0.859375 0.984375 0.859375 3.046875q0 2.4375 -1.078125 3.609375q-1.0625 1.15625 -2.859375 1.15625zm7.336487 -0.15625q-1.671875 0 -1.671875 -1.65625l0 -6.984375l1.71875 0l0 6.546875q0 0.359375 0.171875 0.546875q0.171875 0.171875 0.53125 0.171875l0.734375 0l0 1.375l-1.484375 0zm5.3494873 0.15625q-1.5 0 -2.59375 -0.46875l0 -1.390625q1.078125 0.46875 2.171875 0.46875q1.109375 0 1.734375 -0.296875q0.640625 -0.3125 0.90625 -0.984375q0.28125 -0.671875 0.28125 -1.796875q0 -1.671875 -0.6875 -2.375q-0.671875 -0.703125 -2.25 -0.703125q-1.109375 0 -2.15625 0.46875l0 -1.390625q1.140625 -0.484375 2.546875 -0.484375q2.125 0 3.171875 1.140625q1.0625 1.125 1.0625 3.34375q0 2.203125 -1.03125 3.34375q-1.015625 1.125 -3.15625 1.125zm8.483276 0q-1.328125 0 -2.140625 -0.640625q-0.8125 -0.65625 -0.8125 -2.0q0 -1.28125 0.859375 -1.96875q0.875 -0.703125 2.5 -0.703125l2.640625 0l0 -0.546875q0 -0.640625 -0.21875 -1.0q-0.203125 -0.375 -0.6875 -0.53125q-0.46875 -0.15625 -1.3125 -0.15625q-1.53125 0 -2.8125 0.421875l0 -1.34375q0.65625 -0.21875 1.46875 -0.34375q0.828125 -0.140625 1.625 -0.140625q1.890625 0 2.78125 0.796875q0.90625 0.78125 0.90625 2.46875l0 5.53125l-1.75 0l0 -3.8125l-2.53125 0q-0.921875 0 -1.359375 0.3125q-0.4375 0.296875 -0.4375 1.015625q0 0.6875 0.390625 0.96875q0.40625 0.28125 1.34375 0.28125q0.640625 0 1.109375 -0.125l0 1.328125q-0.6875 0.1875 -1.5625 0.1875zm10.082153 -5.59375q0 -0.703125 -0.140625 -1.109375q-0.140625 -0.40625 -0.546875 -0.625q-0.40625 -0.21875 -1.171875 -0.21875q-0.515625 0 -1.125 0.109375q-0.59375 0.109375 -1.078125 0.3125l0 -1.34375q0.5 -0.21875 1.1875 -0.34375q0.6875 -0.140625 1.34375 -0.140625q1.734375 0 2.5 0.75q0.78125 0.75 0.78125 2.390625l0 5.65625l-1.75 0l0 -5.4375z" fill-rule="nonzero"/><path fill="#ffffff" d="m664.6775 680.38763q-0.75 0 -1.546875 -0.125q-0.796875 -0.109375 -1.3125 -0.328125l0 -1.53125q0.546875 0.25 1.25 0.375q0.71875 0.125 1.390625 0.125q1.25 0 1.828125 -0.421875q0.578125 -0.4375 0.578125 -1.40625q0 -0.921875 -0.453125 -1.328125q-0.4375 -0.421875 -1.59375 -0.421875l-3.046875 0l0 -1.0625l0.265625 -4.328125l5.859375 0l-0.140625 1.34375l-4.234375 0l-0.1875 2.703125l1.75 0q1.828125 0 2.671875 0.78125q0.859375 0.765625 0.859375 2.34375q0 1.5625 -1.015625 2.421875q-1.0 0.859375 -2.921875 0.859375zm9.865051 0.125q-2.375 0 -3.453125 -1.359375q-1.078125 -1.359375 -1.078125 -3.953125q0 -2.6875 1.046875 -4.0625q1.0625 -1.375 3.484375 -1.375q2.390625 0 3.453125 1.375q1.0625 1.375 1.0625 4.0625q0 2.59375 -1.09375 3.953125q-1.078125 1.359375 -3.421875 1.359375zm0 -1.484375q1.46875 0 2.109375 -0.96875q0.640625 -0.984375 0.640625 -2.859375q0 -2.0 -0.625 -2.96875q-0.625 -0.96875 -2.125 -0.96875q-1.515625 0 -2.140625 0.96875q-0.625 0.96875 -0.625 2.96875q0 1.890625 0.640625 2.859375q0.640625 0.96875 2.125 0.96875zm10.416016 1.484375q-2.375 0 -3.453125 -1.359375q-1.078125 -1.359375 -1.078125 -3.953125q0 -2.6875 1.046875 -4.0625q1.0625 -1.375 3.484375 -1.375q2.390625 0 3.453125 1.375q1.0625 1.375 1.0625 4.0625q0 2.59375 -1.09375 3.953125q-1.078125 1.359375 -3.421875 1.359375zm0 -1.484375q1.46875 0 2.109375 -0.96875q0.640625 -0.984375 0.640625 -2.859375q0 -2.0 -0.625 -2.96875q-0.625 -0.96875 -2.125 -0.96875q-1.515625 0 -2.140625 0.96875q-0.625 0.96875 -0.625 2.96875q0 1.890625 0.640625 2.859375q0.640625 0.96875 2.125 0.96875zm6.2128906 -6.375l1.59375 0l0.078125 0.796875q1.21875 -0.96875 2.671875 -0.96875q0.78125 0 1.25 0.25q0.46875 0.25 0.71875 0.75q0.578125 -0.46875 1.265625 -0.734375q0.703125 -0.265625 1.59375 -0.265625q1.3125 0 1.9375 0.671875q0.625 0.671875 0.625 2.0625l0 5.015625l-1.703125 0l0 -4.828125q0 -0.875 -0.375 -1.234375q-0.375 -0.359375 -1.203125 -0.359375q-0.546875 0 -1.046875 0.203125q-0.484375 0.1875 -0.828125 0.578125q0.09375 0.296875 0.09375 0.78125l0 4.859375l-1.625 0l0 -4.8125q0 -0.875 -0.296875 -1.234375q-0.296875 -0.375 -1.078125 -0.375q-1.0 0 -1.96875 0.90625l0 5.515625l-1.703125 0l0 -7.578125zm16.211609 7.734375q-0.765625 0 -1.484375 -0.109375q-0.71875 -0.09375 -1.1875 -0.265625l0 -1.484375q0.53125 0.21875 1.171875 0.328125q0.65625 0.109375 1.28125 0.109375q0.921875 0 1.28125 -0.15625q0.375 -0.15625 0.375 -0.625q0 -0.421875 -0.34375 -0.609375q-0.328125 -0.203125 -1.25 -0.5l-0.484375 -0.15625q-1.140625 -0.390625 -1.671875 -0.859375q-0.53125 -0.46875 -0.53125 -1.390625q0 -1.078125 0.765625 -1.625q0.765625 -0.5625 2.40625 -0.5625q0.625 0 1.21875 0.109375q0.609375 0.09375 1.03125 0.234375l0 1.453125q-0.421875 -0.171875 -0.96875 -0.265625q-0.53125 -0.09375 -1.015625 -0.09375q-0.875 0 -1.28125 0.15625q-0.390625 0.140625 -0.390625 0.5625q0 0.359375 0.296875 0.546875q0.3125 0.1875 1.203125 0.46875l0.34375 0.109375q0.9375 0.296875 1.4375 0.59375q0.515625 0.296875 0.75 0.71875q0.234375 0.421875 0.234375 1.09375q0 2.21875 -3.1875 2.21875z" fill-rule="nonzero"/><path fill="#000000" fill-opacity="0.0" d="m686.1772 687.958l-0.9763794 28.283447" fill-rule="evenodd"/><path stroke="#000000" stroke-width="1.0" stroke-linejoin="round" stroke-linecap="butt" d="m686.1772 687.958l-0.76934814 22.287048" fill-rule="evenodd"/><path fill="#000000" stroke="#000000" stroke-width="1.0" stroke-linecap="butt" d="m683.757 710.18805l1.4942017 4.592407l1.807312 -4.4784546z" fill-rule="evenodd"/><path fill="#0f9d58" d="m581.1706 770.7297l13.62207 -54.48822l191.51178 0l-13.622009 54.48822z" fill-rule="evenodd"/><path fill="#ffffff" d="m624.11566 729.5487l4.84375 0q1.734375 0 2.625 0.96875q0.90625 0.96875 0.90625 2.578125q0 1.03125 -0.4375 1.84375q-0.4375 0.796875 -1.265625 1.234375q-0.8125 0.4375 -1.890625 0.4375l-2.609375 0l0 3.234375l-2.171875 0l0 -10.296875zm4.328125 5.359375q0.90625 0 1.390625 -0.484375q0.484375 -0.484375 0.484375 -1.328125q0 -0.890625 -0.453125 -1.359375q-0.453125 -0.484375 -1.34375 -0.484375l-2.234375 0l0 3.65625l2.15625 0zm5.808655 -5.734375l2.34375 0l0 1.703125l-2.34375 0l0 -1.703125zm0.171875 4.6875l-1.140625 0l0.203125 -1.59375l3.09375 0l0 7.578125l-2.15625 0l0 -5.984375zm3.9953613 -1.59375l2.0 0l0.078125 0.71875q0.515625 -0.390625 1.21875 -0.640625q0.703125 -0.25 1.453125 -0.25q1.5 0 2.1875 0.703125q0.703125 0.6875 0.703125 2.1875l0 4.859375l-2.15625 0l0 -4.75q0 -0.78125 -0.328125 -1.09375q-0.3125 -0.3125 -1.15625 -0.3125q-0.484375 0 -0.984375 0.21875q-0.5 0.203125 -0.84375 0.5625l0 5.375l-2.171875 0l0 -7.578125zm19.011414 7.734375q-4.171875 0 -4.171875 -3.015625q0 -0.859375 0.4375 -1.515625q0.4375 -0.671875 1.21875 -0.953125q-0.6875 -0.296875 -1.046875 -0.859375q-0.34375 -0.578125 -0.34375 -1.265625q0 -1.40625 0.96875 -2.203125q0.984375 -0.8125 2.9375 -0.8125q2.0 0 2.953125 0.796875q0.953125 0.796875 0.953125 2.21875q0 0.734375 -0.359375 1.328125q-0.34375 0.59375 -1.078125 0.90625q1.703125 0.609375 1.703125 2.359375q0 3.015625 -4.171875 3.015625zm0.421875 -6.03125q0.78125 -0.203125 1.109375 -0.53125q0.328125 -0.34375 0.328125 -1.0q0 -0.703125 -0.453125 -1.03125q-0.453125 -0.328125 -1.40625 -0.328125q-0.9375 0 -1.40625 0.328125q-0.453125 0.3125 -0.453125 1.03125q0 0.5625 0.296875 0.890625q0.296875 0.328125 0.921875 0.4375l1.0625 0.203125zm-0.421875 4.359375q1.09375 0 1.609375 -0.328125q0.515625 -0.328125 0.515625 -1.046875q0 -0.640625 -0.34375 -0.9375q-0.328125 -0.296875 -1.15625 -0.46875l-1.234375 -0.265625q-0.75 0.171875 -1.140625 0.53125q-0.375 0.34375 -0.375 1.078125q0 0.765625 0.515625 1.109375q0.53125 0.328125 1.609375 0.328125zm5.380127 -3.671875l6.171875 0l0 1.6875l-6.171875 0l0 -1.6875zm9.031921 -3.171875l-1.671875 0.28125l0 -1.8125l3.84375 -0.578125l0 10.46875l-2.171875 0l0 -8.359375zm6.734619 8.515625q-0.71875 0 -1.625 -0.140625q-0.90625 -0.140625 -1.4375 -0.359375l0 -1.875q1.234375 0.515625 2.75 0.515625q1.171875 0 1.703125 -0.328125q0.53125 -0.328125 0.53125 -1.125q0 -0.671875 -0.46875 -0.96875q-0.46875 -0.296875 -1.40625 -0.296875l-1.625 0l0.15625 -1.578125l1.34375 0q0.9375 0 1.359375 -0.3125q0.4375 -0.3125 0.4375 -0.984375q0 -0.671875 -0.5 -1.0q-0.484375 -0.328125 -1.546875 -0.328125q-0.671875 0 -1.359375 0.140625q-0.671875 0.125 -1.203125 0.375l0 -1.84375q0.53125 -0.21875 1.328125 -0.359375q0.8125 -0.15625 1.609375 -0.15625q1.859375 0 2.859375 0.796875q1.0 0.78125 1.0 2.078125q0 0.796875 -0.359375 1.453125q-0.359375 0.640625 -1.046875 0.921875q0.8125 0.25 1.21875 0.84375q0.40625 0.59375 0.40625 1.453125q0 1.53125 -1.109375 2.3125q-1.109375 0.765625 -3.015625 0.765625zm15.519043 0q-1.953125 0 -3.046875 -0.921875q-1.078125 -0.921875 -1.078125 -2.703125l0 -5.171875l2.171875 0l0 5.203125q0 0.96875 0.484375 1.453125q0.484375 0.46875 1.46875 0.46875q0.96875 0 1.453125 -0.46875q0.484375 -0.484375 0.484375 -1.453125l0 -7.765625l2.171875 0l0 7.734375q0 1.78125 -1.09375 2.703125q-1.078125 0.921875 -3.015625 0.921875zm8.737366 0q-1.34375 0 -2.171875 -0.65625q-0.828125 -0.65625 -0.828125 -2.0625q0 -1.296875 0.875 -1.984375q0.890625 -0.703125 2.53125 -0.703125l2.453125 0l0 -0.40625q0 -0.8125 -0.453125 -1.140625q-0.453125 -0.328125 -1.578125 -0.328125q-1.515625 0 -2.875 0.4375l0 -1.609375q0.6875 -0.234375 1.546875 -0.359375q0.875 -0.140625 1.671875 -0.140625q1.9375 0 2.890625 0.828125q0.953125 0.8125 0.953125 2.53125l0 5.4375l-2.15625 0l0 -3.65625l-2.328125 0q-0.734375 0 -1.109375 0.25q-0.375 0.25 -0.375 0.84375q0 0.59375 0.34375 0.828125q0.34375 0.21875 1.1875 0.21875q0.734375 0 1.109375 -0.125l0 1.578125q-0.71875 0.21875 -1.6875 0.21875zm2.8511963 -12.625l2.171875 0l0 2.640625l-2.171875 0l0 -2.640625zm7.3125 12.625q-1.0 0 -1.9375 -0.171875q-0.9375 -0.1875 -1.625 -0.5l0 -4.546875l3.65625 0l0.109375 1.59375l-1.71875 0l0 1.734375q0.28125 0.109375 0.71875 0.171875q0.4375 0.046875 0.8125 0.046875q0.890625 0 1.390625 -0.265625q0.515625 -0.28125 0.75 -0.875q0.234375 -0.609375 0.234375 -1.625q0 -1.109375 -0.28125 -1.71875q-0.28125 -0.609375 -0.90625 -0.859375q-0.625 -0.265625 -1.734375 -0.265625q-1.53125 0 -2.921875 0.4375l0 -1.609375q0.703125 -0.25 1.625 -0.375q0.9375 -0.125 1.828125 -0.125q2.296875 0 3.359375 1.140625q1.078125 1.125 1.078125 3.375q0 2.1875 -1.078125 3.3125q-1.0625 1.125 -3.359375 1.125zm9.652771 0q-1.890625 0 -3.015625 -0.65625q-1.125 -0.65625 -1.125 -2.125q0 -0.59375 0.265625 -1.078125q0.28125 -0.484375 0.8125 -0.796875q-0.46875 -0.203125 -0.765625 -0.65625q-0.28125 -0.453125 -0.28125 -1.078125q0 -1.234375 0.765625 -1.890625q0.78125 -0.671875 2.09375 -0.671875q0.890625 0 1.484375 0.21875l0 1.59375q-0.453125 -0.140625 -1.09375 -0.140625q-0.609375 0 -0.90625 0.21875q-0.296875 0.203125 -0.296875 0.671875q0 0.5 0.3125 0.71875q0.328125 0.203125 1.03125 0.203125l0.890625 0l0.078125 1.578125l-0.984375 0q-1.359375 0 -1.359375 1.109375q0 0.5625 0.484375 0.84375q0.484375 0.265625 1.515625 0.265625q2.03125 0 2.03125 -1.6875l0 -5.4375l2.15625 0l0 5.25q0 1.828125 -1.046875 2.6875q-1.03125 0.859375 -3.046875 0.859375zm8.118225 -0.15625q-1.03125 0 -1.46875 -0.421875q-0.421875 -0.421875 -0.421875 -1.375l0 -5.28125q0 -1.609375 1.046875 -2.34375l-2.3125 0l0 -1.6875l4.921936 0l0 1.578125q-0.79693604 0.28125 -1.156311 0.90625q-0.34375 0.609375 -0.34375 1.65625l0 4.609375q0 0.671875 0.65625 0.671875l0.54693604 0l0 1.6875l-1.468811 0zm2.3342896 -8.640625l2.078125 0l1.125 5.546875l1.3125 -4.171875l0 -1.375l1.515625 0l1.53125 5.546875l1.515625 -8.109375l2.0625 0l-2.421875 11.203125l-1.875 0l-1.421875 -4.9375l-1.546875 4.9375l-1.859375 0l-2.015625 -8.640625z" fill-rule="nonzero"/><path fill="#ffffff" d="m677.5145 759.00183q-0.75 0 -1.59375 -0.125q-0.84375 -0.125 -1.390625 -0.375l0 -1.859375q0.546875 0.234375 1.296875 0.375q0.75 0.125 1.390625 0.125q1.125 0 1.640625 -0.359375q0.515625 -0.359375 0.515625 -1.1875q0 -0.78125 -0.390625 -1.109375q-0.375 -0.34375 -1.390625 -0.34375l-3.109375 0l0 -1.21875l0.265625 -4.375l6.125 0l-0.15625 1.65625l-4.125 0l-0.140625 2.265625l1.546875 0q1.84375 0 2.703125 0.8125q0.875 0.796875 0.875 2.390625q0 1.5625 -1.046875 2.453125q-1.03125 0.875 -3.015625 0.875zm5.256775 -10.453125l2.25 0l2.859375 7.875l2.859375 -7.875l2.25 0l-3.921875 10.296875l-2.359375 0l-3.9375 -10.296875z" fill-rule="nonzero"/><path fill="#000000" fill-opacity="0.0" d="m684.2244 770.7297l-0.9763794 28.283447" fill-rule="evenodd"/><path stroke="#000000" stroke-width="1.0" stroke-linejoin="round" stroke-linecap="butt" d="m684.2244 770.7297l-0.76934814 22.287048" fill-rule="evenodd"/><path fill="#000000" stroke="#000000" stroke-width="1.0" stroke-linecap="butt" d="m681.80426 792.9597l1.4942017 4.592346l1.807312 -4.4783936z" fill-rule="evenodd"/></g></svg>