<svg version="1.1" viewBox="0.0 0.0 960.0 720.0" fill="none" stroke="none" stroke-linecap="square" stroke-miterlimit="10" xmlns:xlink="http://www.w3.org/1999/xlink" xmlns="http://www.w3.org/2000/svg"><clipPath id="p.0"><path d="m0 0l960.0 0l0 720.0l-960.0 0l0 -720.0z" clip-rule="nonzero"/></clipPath><g clip-path="url(#p.0)"><path fill="#000000" fill-opacity="0.0" d="m0 0l960.0 0l0 720.0l-960.0 0z" fill-rule="evenodd"/><path fill="#cc0000" d="m383.24817 74.32021l69.67786 0l0 0c9.127991 0 16.52768 7.6654434 16.52768 17.121254c0 9.455811 -7.3996887 17.121262 -16.52768 17.121262l-69.67786 0l0 0c-9.127991 0 -16.52771 -7.665451 -16.52771 -17.121262c0 -9.455811 7.399719 -17.121254 16.52771 -17.121254z" fill-rule="evenodd"/><path fill="#ffffff" d="m393.46628 97.45772q-0.765625 0 -1.484375 -0.109375q-0.71875 -0.09375 -1.1875 -0.265625l0 -1.484375q0.53125 0.21875 1.171875 0.328125q0.65625 0.109375 1.28125 0.109375q0.921875 0 1.28125 -0.15625q0.375 -0.15625 0.375 -0.625q0 -0.421875 -0.34375 -0.609375q-0.328125 -0.203125 -1.25 -0.5l-0.484375 -0.15625q-1.140625 -0.390625 -1.671875 -0.859375q-0.53125 -0.46875 -0.53125 -1.390625q0 -1.078125 0.765625 -1.625q0.765625 -0.5625 2.40625 -0.5625q0.625 0 1.21875 0.109375q0.609375 0.09375 1.03125 0.234375l0 1.453125q-0.421875 -0.171875 -0.96875 -0.265625q-0.53125 -0.09375 -1.015625 -0.09375q-0.875 0 -1.28125 0.15625q-0.390625 0.140625 -0.390625 0.5625q0 0.359375 0.296875 0.546875q0.3125 0.1875 1.203125 0.46875l0.34375 0.109375q0.9375 0.296875 1.4375 0.59375q0.515625 0.296875 0.75 0.71875q0.234375 0.421875 0.234375 1.09375q0 2.21875 -3.1875 2.21875zm8.736511 0q-2.015625 0 -3.09375 -0.984375q-1.0625 -1.0 -1.0625 -2.984375q0 -1.875 0.9375 -2.90625q0.953125 -1.03125 2.8125 -1.03125q1.671875 0 2.5625 0.890625q0.90625 0.875 0.90625 2.34375l0 1.40625l-5.546875 0q0.125 1.09375 0.78125 1.515625q0.65625 0.421875 2.0625 0.421875q0.578125 0 1.171875 -0.109375q0.59375 -0.109375 1.0625 -0.28125l0 1.28125q-1.0 0.4375 -2.59375 0.4375zm1.53125 -4.390625l0 -0.53125q0 -0.8125 -0.453125 -1.234375q-0.453125 -0.4375 -1.4375 -0.4375q-1.1875 0 -1.65625 0.515625q-0.46875 0.515625 -0.46875 1.6875l4.015625 0zm6.1232605 4.390625q-1.203125 0 -1.8125 -0.625q-0.609375 -0.640625 -0.609375 -1.78125l0 -3.96875l-1.109375 0l0 -1.359375l1.109375 0l0 -1.75l1.734375 -0.53125l0 2.28125l2.015625 0l-0.109375 1.359375l-1.90625 0l0 3.859375q0 0.65625 0.296875 0.921875q0.296875 0.265625 1.0 0.265625q0.421875 0 0.90625 -0.15625l0 1.234375q-0.625 0.25 -1.515625 0.25zm5.25177 0q-1.359375 0 -2.09375 -0.75q-0.734375 -0.765625 -0.734375 -2.203125l0 -4.78125l1.75 0l0 4.78125q0 0.84375 0.40625 1.25q0.421875 0.390625 1.296875 0.390625q0.609375 0 1.15625 -0.21875q0.546875 -0.234375 0.96875 -0.65625l0 -5.546875l1.71875 0l0 7.578125l-1.578125 0l-0.078125 -0.78125q-1.203125 0.9375 -2.8125 0.9375zm6.5136414 -7.734375l1.5 0l0.09375 0.75q0.53125 -0.46875 1.140625 -0.6875q0.609375 -0.234375 1.421875 -0.234375q1.6875 0 2.5625 0.921875q0.890625 0.90625 0.890625 2.90625q0 2.015625 -0.9375 3.046875q-0.921875 1.03125 -2.578125 1.03125q-1.375 0 -2.359375 -0.640625l0 3.9375l-1.734375 0l0 -11.03125zm3.640625 6.421875q1.125 0 1.65625 -0.6875q0.546875 -0.6875 0.546875 -2.09375q0 -1.34375 -0.5 -1.90625q-0.484375 -0.578125 -1.65625 -0.578125q-1.171875 0 -1.953125 0.8125l0 3.78125q0.765625 0.671875 1.90625 0.671875zm13.419525 2.3125q-1.109375 -0.984375 -1.640625 -2.59375q-0.515625 -1.609375 -0.515625 -3.40625q0 -1.8125 0.515625 -3.40625q0.53125 -1.609375 1.640625 -2.59375l1.96875 0q-2.359375 2.046875 -2.359375 6.0q0 3.953125 2.359375 6.0l-1.96875 0zm2.7312622 0q1.234375 -1.078125 1.796875 -2.578125q0.5625 -1.5 0.5625 -3.421875q0 -3.96875 -2.359375 -6.0l1.984375 0q1.09375 0.984375 1.609375 2.59375q0.53125 1.609375 0.53125 3.40625q0 1.796875 -0.53125 3.40625q-0.515625 1.609375 -1.609375 2.59375l-1.984375 0z" fill-rule="nonzero"/><path fill="#0f9d58" d="m315.521 201.6588l13.62204 -54.48819l191.51181 0l-13.62204 54.48819z" fill-rule="evenodd"/><path fill="#ffffff" d="m366.22794 180.43095q-0.921875 0 -1.75 -0.125q-0.8125 -0.125 -1.3125 -0.328125l0 -1.75q0.578125 0.234375 1.3125 0.390625q0.734375 0.140625 1.34375 0.140625q1.09375 0 1.53125 -0.171875q0.453125 -0.171875 0.453125 -0.65625q0 -0.296875 -0.171875 -0.484375q-0.15625 -0.203125 -0.46875 -0.328125q-0.3125 -0.140625 -0.984375 -0.359375l-0.6875 -0.234375q-1.296875 -0.4375 -1.90625 -0.96875q-0.59375 -0.546875 -0.59375 -1.5q0 -1.1875 0.921875 -1.875q0.921875 -0.703125 2.671875 -0.703125q0.71875 0 1.484375 0.109375q0.765625 0.109375 1.25 0.265625l0 1.734375q-0.484375 -0.203125 -1.171875 -0.3125q-0.671875 -0.125 -1.25 -0.125q-0.875 0 -1.375 0.1875q-0.484375 0.1875 -0.484375 0.671875q0 0.359375 0.328125 0.5625q0.34375 0.1875 1.25 0.46875q0.296875 0.078125 0.734375 0.25q0.9375 0.3125 1.46875 0.65625q0.53125 0.328125 0.78125 0.796875q0.25 0.46875 0.25 1.1875q0 1.234375 -0.953125 1.875q-0.953125 0.625 -2.671875 0.625zm-0.81134033 -12.53125l1.765625 0l0 1.078125l3.984375 0l-0.078125 1.46875l-5.671875 0l0 -2.546875zm10.0625 12.53125q-1.953125 0 -3.046875 -0.921875q-1.078125 -0.921875 -1.078125 -2.703125l0 -5.171875l2.171875 0l0 5.203125q0 0.96875 0.484375 1.453125q0.484375 0.46875 1.46875 0.46875q0.96875 0 1.453125 -0.46875q0.484375 -0.484375 0.484375 -1.453125l0 -5.203125l2.171875 0l0 5.171875q0 1.78125 -1.09375 2.703125q-1.078125 0.921875 -3.015625 0.921875zm6.0030212 -5.515625q0 -1.625 1.0 -2.53125q1.0 -0.90625 3.078125 -0.90625q2.09375 0 3.078125 0.90625q1.0 0.90625 1.0 2.53125l0 5.359375l-2.171875 0l0 -5.515625q0 -0.78125 -0.5 -1.1875q-0.5 -0.421875 -1.40625 -0.421875q-0.9375 0 -1.421875 0.421875q-0.484375 0.40625 -0.484375 1.1875l0 1.546875q0.671875 -0.515625 1.5 -0.515625l1.03125 0l0.078125 1.71875l-1.15625 0q-0.84375 0 -1.453125 0.46875l0 2.296875l-2.171875 0l0 -5.359375zm5.985504 -7.109375l2.171875 0l0 2.640625l-2.171875 0l0 -2.640625zm7.125 7.15625q0 -0.921875 -0.359375 -1.359375q-0.359375 -0.453125 -1.328125 -0.453125q-0.5 0 -1.09375 0.125q-0.59375 0.109375 -1.078125 0.296875l0 -1.578125q0.5 -0.234375 1.203125 -0.375q0.703125 -0.140625 1.390625 -0.140625q1.8125 0 2.609375 0.765625q0.8125 0.765625 0.8125 2.421875l0 5.609375l-2.15625 0l0 -5.3125zm9.817535 -4.984375l4.84375 0q1.734375 0 2.625 0.96875q0.90625 0.96875 0.90625 2.578125q0 1.03125 -0.4375 1.84375q-0.4375 0.796875 -1.265625 1.234375q-0.8125 0.4375 -1.890625 0.4375l-2.609375 0l0 3.234375l-2.171875 0l0 -10.296875zm4.328125 5.359375q0.90625 0 1.390625 -0.484375q0.484375 -0.484375 0.484375 -1.328125q0 -0.890625 -0.453125 -1.359375q-0.453125 -0.484375 -1.34375 -0.484375l-2.234375 0l0 3.65625l2.15625 0zm5.808655 -5.734375l2.34375 0l0 1.703125l-2.34375 0l0 -1.703125zm0.171875 4.6875l-1.140625 0l0.203125 -1.59375l3.09375 0l0 7.578125l-2.15625 0l0 -5.984375zm3.9953918 -1.59375l2.0 0l0.078125 0.71875q0.515625 -0.390625 1.21875 -0.640625q0.703125 -0.25 1.453125 -0.25q1.5 0 2.1875 0.703125q0.703125 0.6875 0.703125 2.1875l0 4.859375l-2.15625 0l0 -4.75q0 -0.78125 -0.328125 -1.09375q-0.3125 -0.3125 -1.15625 -0.3125q-0.484375 0 -0.984375 0.21875q-0.5 0.203125 -0.84375 0.5625l0 5.375l-2.171875 0l0 -7.578125zm14.839508 6.53125q0.375 -0.828125 1.0 -1.515625q0.625 -0.703125 1.671875 -1.625l0.421875 -0.375q0.75 -0.6875 1.0625 -1.015625q0.3125 -0.328125 0.4375 -0.671875q0.140625 -0.34375 0.140625 -0.875q0 -0.734375 -0.484375 -1.109375q-0.46875 -0.375 -1.40625 -0.375q-1.234375 0 -2.484375 0.5l0 -1.90625q0.59375 -0.203125 1.40625 -0.328125q0.8125 -0.125 1.5625 -0.125q1.765625 0 2.671875 0.875q0.921875 0.875 0.921875 2.421875q0 0.984375 -0.46875 1.71875q-0.453125 0.734375 -1.40625 1.546875l-0.25 0.21875q-0.71875 0.625 -1.1875 1.09375q-0.46875 0.453125 -0.796875 0.9375l4.203125 0l0 1.65625l-7.015625 0l0 -1.046875zm13.968048 -4.140625l6.171875 0l0 1.6875l-6.171875 0l0 -1.6875zm14.791901 -3.171875l-1.671875 0.28125l0 -1.8125l3.84375 -0.578125l0 10.46875l-2.171875 0l0 -8.359375zm6.734619 8.515625q-0.71875 0 -1.625 -0.140625q-0.90625 -0.140625 -1.4375 -0.359375l0 -1.875q1.234375 0.515625 2.75 0.515625q1.171875 0 1.703125 -0.328125q0.53125 -0.328125 0.53125 -1.125q0 -0.671875 -0.46875 -0.96875q-0.46875 -0.296875 -1.40625 -0.296875l-1.625 0l0.15625 -1.578125l1.34375 0q0.9375 0 1.359375 -0.3125q0.4375 -0.3125 0.4375 -0.984375q0 -0.671875 -0.5 -1.0q-0.484375 -0.328125 -1.546875 -0.328125q-0.671875 0 -1.359375 0.140625q-0.671875 0.125 -1.203125 0.375l0 -1.84375q0.53125 -0.21875 1.328125 -0.359375q0.8125 -0.15625 1.609375 -0.15625q1.859375 0 2.859375 0.796875q1.0 0.78125 1.0 2.078125q0 0.796875 -0.359375 1.453125q-0.359375 0.640625 -1.046875 0.921875q0.8125 0.25 1.21875 0.84375q0.40625 0.59375 0.40625 1.453125q0 1.53125 -1.109375 2.3125q-1.109375 0.765625 -3.015625 0.765625z" fill-rule="nonzero"/><path fill="#000000" fill-opacity="0.0" d="m418.0871 108.56273l0 38.61418" fill-rule="evenodd"/><path stroke="#000000" stroke-width="1.0" stroke-linejoin="round" stroke-linecap="butt" d="m418.0871 108.56273l0 32.614166" fill-rule="evenodd"/><path fill="#000000" stroke="#000000" stroke-width="1.0" stroke-linecap="butt" d="m416.43536 141.1769l1.6517334 4.538101l1.6517334 -4.538101z" fill-rule="evenodd"/><path fill="#cc0000" d="m383.24948 230.38321l69.67786 0l0 0c9.127991 0 16.52768 7.665436 16.52768 17.121246c0 9.455811 -7.3996887 17.121277 -16.52768 17.121277l-69.67786 0l0 0c-9.127991 0 -16.52771 -7.6654663 -16.52771 -17.121277c0 -9.455811 7.399719 -17.121246 16.52771 -17.121246z" fill-rule="evenodd"/><path fill="#ffffff" d="m413.0215 253.5207q-0.34375 0 -0.75 -0.0625q-0.390625 -0.046875 -0.625 -0.140625l-1.28125 -3.40625l-1.109375 0l0.078125 -1.3125l2.125 0l1.328125 3.546875q1.140625 0.046875 1.828125 -0.71875q0.6875 -0.765625 0.6875 -2.46875q0 -1.125 -0.296875 -1.765625q-0.296875 -0.65625 -0.96875 -0.9375q-0.671875 -0.28125 -1.859375 -0.28125q-1.46875 0 -2.734375 0.421875l0 -1.34375q1.515625 -0.484375 3.203125 -0.484375q2.234375 0 3.28125 1.109375q1.0625 1.109375 1.0625 3.28125q0 1.453125 -0.546875 2.484375q-0.53125 1.03125 -1.4375 1.5625q-0.90625 0.515625 -1.984375 0.515625zm9.604004 0q-1.875 0 -2.90625 -0.875q-1.03125 -0.890625 -1.03125 -2.640625l0 -5.28125l1.734375 0l0 5.34375q0 1.0625 0.546875 1.5625q0.5625 0.5 1.65625 0.5q1.109375 0 1.671875 -0.5q0.5625 -0.5 0.5625 -1.5625l0 -5.34375l1.71875 0l0 5.28125q0 1.75 -1.03125 2.640625q-1.015625 0.875 -2.921875 0.875z" fill-rule="nonzero"/><path fill="#000000" fill-opacity="0.0" d="m418.0884 201.6588l0 28.724411" fill-rule="evenodd"/><path stroke="#000000" stroke-width="1.0" stroke-linejoin="round" stroke-linecap="butt" d="m418.0884 201.6588l0 22.724411" fill-rule="evenodd"/><path fill="#000000" stroke="#000000" stroke-width="1.0" stroke-linecap="butt" d="m416.43668 224.38321l1.6517334 4.538086l1.6517334 -4.538086z" fill-rule="evenodd"/><path fill="#cc0000" d="m102.9975 74.32021l69.67786 0l0 0c9.127991 0 16.527695 7.6654434 16.527695 17.121254c0 9.455811 -7.399704 17.121262 -16.527695 17.121262l-69.67786 0l0 0c-9.127983 0 -16.52768 -7.665451 -16.52768 -17.121262c0 -9.455811 7.3996964 -17.121254 16.52768 -17.121254z" fill-rule="evenodd"/><path fill="#ffffff" d="m124.96139 97.45772q-2.0 0 -3.21875 -0.515625l0 -1.53125q1.5 0.578125 3.0625 0.578125q1.296875 0 1.875 -0.296875q0.59375 -0.3125 0.59375 -1.140625q0 -0.53125 -0.25 -0.84375q-0.25 -0.3125 -0.8125 -0.53125q-0.5625 -0.234375 -1.671875 -0.515625q-1.671875 -0.4375 -2.34375 -1.09375q-0.671875 -0.671875 -0.671875 -1.828125q0 -1.375 1.0 -2.140625q1.015625 -0.765625 2.953125 -0.765625q0.84375 0 1.640625 0.125q0.796875 0.125 1.2812576 0.296875l0 1.53125q-1.2031326 -0.453125 -2.6875076 -0.453125q-1.21875 0 -1.828125 0.3125q-0.59375 0.3125 -0.59375 1.09375q0 0.453125 0.21875 0.734375q0.21875 0.28125 0.734375 0.5q0.53125 0.21875 1.5625 0.46875q1.8125 0.46875 2.5156326 1.203125q0.703125 0.734375 0.703125 1.90625q0 1.375 -1.0312576 2.140625q-1.03125 0.765625 -3.03125 0.765625zm8.10128 0q-1.203125 0 -1.8125 -0.625q-0.609375 -0.640625 -0.609375 -1.78125l0 -3.96875l-1.109375 0l0 -1.359375l1.109375 0l0 -1.75l1.734375 -0.53125l0 2.28125l2.015625 0l-0.109375 1.359375l-1.90625 0l0 3.859375q0 0.65625 0.296875 0.921875q0.296875 0.265625 1.0 0.265625q0.421875 0 0.90625 -0.15625l0 1.234375q-0.625 0.25 -1.515625 0.25zm4.7167664 0q-1.15625 0 -1.921875 -0.59375q-0.765625 -0.609375 -0.765625 -1.71875q0 -1.125 0.75 -1.765625q0.765625 -0.65625 2.296875 -0.65625l2.421875 0l0 -0.328125q0 -0.5625 -0.171875 -0.875q-0.15625 -0.3125 -0.609375 -0.453125q-0.453125 -0.15625 -1.28125 -0.15625q-1.34375 0 -2.515625 0.40625l0 -1.296875q0.546875 -0.203125 1.28125 -0.328125q0.734375 -0.140625 1.5625 -0.140625q1.6875 0 2.546875 0.6875q0.859375 0.6875 0.859375 2.1875l0 4.875l-1.484375 0l-0.125 -0.765625q-0.46875 0.46875 -1.15625 0.703125q-0.6875 0.21875 -1.6875 0.21875zm0.46875 -1.25q0.75 0 1.34375 -0.25q0.59375 -0.25 0.96875 -0.71875l0 -1.328125l-2.390625 0q-0.78125 0 -1.125 0.296875q-0.34375 0.28125 -0.34375 0.90625q0 0.578125 0.390625 0.84375q0.390625 0.25 1.15625 0.25zm5.923889 -6.484375l1.59375 0l0.09375 0.875q0.546875 -0.359375 1.296875 -0.640625q0.75 -0.28125 1.484375 -0.40625l0 1.328125q-0.6875 0.140625 -1.484375 0.40625q-0.796875 0.25 -1.25 0.546875l0 5.46875l-1.734375 0l0 -7.578125zm8.762634 7.734375q-1.203125 0 -1.8125 -0.625q-0.609375 -0.640625 -0.609375 -1.78125l0 -3.96875l-1.109375 0l0 -1.359375l1.109375 0l0 -1.75l1.734375 -0.53125l0 2.28125l2.015625 0l-0.109375 1.359375l-1.90625 0l0 3.859375q0 0.65625 0.296875 0.921875q0.296875 0.265625 1.0 0.265625q0.421875 0 0.90625 -0.15625l0 1.234375q-0.625 0.25 -1.515625 0.25z" fill-rule="nonzero"/><path fill="#4a86e8" d="m66.444885 137.28871l142.78084 0l0 58.98224l-142.78084 0z" fill-rule="evenodd"/><path fill="#000000" fill-opacity="0.0" d="m84.29249 137.28871l0 58.98224m107.085625 -58.98224l0 58.98224" fill-rule="evenodd"/><path fill="#000000" fill-opacity="0.0" d="m66.444885 137.28871l142.78084 0l0 58.98224l-142.78084 0z" fill-rule="evenodd"/><path stroke="#ffffff" stroke-width="3.0" stroke-linejoin="round" stroke-linecap="butt" d="m84.29249 137.28871l0 58.98224m107.085625 -58.98224l0 58.98224" fill-rule="evenodd"/><path stroke="#ffffff" stroke-width="3.0" stroke-linejoin="round" stroke-linecap="butt" d="m66.444885 137.28871l142.78084 0l0 58.98224l-142.78084 0z" fill-rule="evenodd"/><path fill="#ffffff" d="m113.2145 172.79608q-0.765625 0 -1.484375 -0.109375q-0.71875 -0.09375 -1.1875 -0.265625l0 -1.484375q0.53125 0.21875 1.171875 0.328125q0.65625 0.109375 1.28125 0.109375q0.921875 0 1.28125 -0.15625q0.375 -0.15625 0.375 -0.625q0 -0.421875 -0.34375 -0.609375q-0.328125 -0.203125 -1.25 -0.5l-0.484375 -0.15625q-1.140625 -0.390625 -1.671875 -0.859375q-0.53125 -0.46875 -0.53125 -1.390625q0 -1.078125 0.765625 -1.625q0.765625 -0.5625 2.40625 -0.5625q0.625 0 1.21875 0.109375q0.609375 0.09375 1.03125 0.234375l0 1.453125q-0.421875 -0.171875 -0.96875 -0.265625q-0.53125 -0.09375 -1.015625 -0.09375q-0.875 0 -1.28125 0.15625q-0.390625 0.140625 -0.390625 0.5625q0 0.359375 0.296875 0.546875q0.3125 0.1875 1.203125 0.46875l0.34375 0.109375q0.9375 0.296875 1.4375 0.59375q0.515625 0.296875 0.75 0.71875q0.234375 0.421875 0.234375 1.09375q0 2.21875 -3.1875 2.21875zm8.736511 0q-2.015625 0 -3.09375 -0.984375q-1.0625 -1.0 -1.0625 -2.984375q0 -1.875 0.9375 -2.90625q0.953125 -1.03125 2.8125 -1.03125q1.671875 0 2.5625 0.890625q0.90625 0.875 0.90625 2.34375l0 1.40625l-5.546875 0q0.125 1.09375 0.78125 1.515625q0.65625 0.421875 2.0625 0.421875q0.578125 0 1.171875 -0.109375q0.59375 -0.109375 1.0625 -0.28125l0 1.28125q-1.0 0.4375 -2.59375 0.4375zm1.53125 -4.390625l0 -0.53125q0 -0.8125 -0.453125 -1.234375q-0.453125 -0.4375 -1.4375 -0.4375q-1.1875 0 -1.65625 0.515625q-0.46875 0.515625 -0.46875 1.6875l4.015625 0zm6.123253 4.390625q-1.203125 0 -1.8124924 -0.625q-0.609375 -0.640625 -0.609375 -1.78125l0 -3.96875l-1.109375 0l0 -1.359375l1.109375 0l0 -1.75l1.7343674 -0.53125l0 2.28125l2.015625 0l-0.109375 1.359375l-1.90625 0l0 3.859375q0 0.65625 0.296875 0.921875q0.296875 0.265625 1.0 0.265625q0.421875 0 0.90625 -0.15625l0 1.234375q-0.625 0.25 -1.515625 0.25zm5.25177 0q-1.359375 0 -2.09375 -0.75q-0.734375 -0.765625 -0.734375 -2.203125l0 -4.78125l1.75 0l0 4.78125q0 0.84375 0.40625 1.25q0.421875 0.390625 1.296875 0.390625q0.609375 0 1.15625 -0.21875q0.546875 -0.234375 0.96875 -0.65625l0 -5.546875l1.71875 0l0 7.578125l-1.578125 0l-0.078125 -0.78125q-1.203125 0.9375 -2.8125 0.9375zm6.5136414 -7.734375l1.5 0l0.09375 0.75q0.53125 -0.46875 1.140625 -0.6875q0.609375 -0.234375 1.421875 -0.234375q1.6875 0 2.5625 0.921875q0.890625 0.90625 0.890625 2.90625q0 2.015625 -0.9375 3.046875q-0.921875 1.03125 -2.578125 1.03125q-1.375 0 -2.359375 -0.640625l0 3.9375l-1.734375 0l0 -11.03125zm3.640625 6.421875q1.125 0 1.65625 -0.6875q0.546875 -0.6875 0.546875 -2.09375q0 -1.34375 -0.5 -1.90625q-0.484375 -0.578125 -1.65625 -0.578125q-1.171875 0 -1.953125 0.8125l0 3.78125q0.765625 0.671875 1.90625 0.671875zm13.419525 2.3125q-1.109375 -0.984375 -1.640625 -2.59375q-0.515625 -1.609375 -0.515625 -3.40625q0 -1.8125 0.515625 -3.40625q0.53125 -1.609375 1.640625 -2.59375l1.96875 0q-2.359375 2.046875 -2.359375 6.0q0 3.953125 2.359375 6.0l-1.96875 0zm2.7312622 0q1.234375 -1.078125 1.796875 -2.578125q0.5625 -1.5 0.5625 -3.421875q0 -3.96875 -2.359375 -6.0l1.984375 0q1.09375 0.984375 1.609375 2.59375q0.53125 1.609375 0.53125 3.40625q0 1.796875 -0.53125 3.40625q-0.515625 1.609375 -1.609375 2.59375l-1.984375 0z" fill-rule="nonzero"/><path fill="#4a86e8" d="m66.4462 222.8314l142.78084 0l0 58.982254l-142.78084 0z" fill-rule="evenodd"/><path fill="#000000" fill-opacity="0.0" d="m84.2938 222.8314l0 58.982254m107.085625 -58.982254l0 58.982254" fill-rule="evenodd"/><path fill="#000000" fill-opacity="0.0" d="m66.4462 222.8314l142.78084 0l0 58.982254l-142.78084 0z" fill-rule="evenodd"/><path stroke="#ffffff" stroke-width="3.0" stroke-linejoin="round" stroke-linecap="butt" d="m84.2938 222.8314l0 58.982254m107.085625 -58.982254l0 58.982254" fill-rule="evenodd"/><path stroke="#ffffff" stroke-width="3.0" stroke-linejoin="round" stroke-linecap="butt" d="m66.4462 222.8314l142.78084 0l0 58.982254l-142.78084 0z" fill-rule="evenodd"/><path fill="#ffffff" d="m116.93519 258.33878q-0.953125 0 -1.421875 -0.453125q-0.453125 -0.46875 -0.453125 -1.515625l0 -8.96875l1.734375 0l0 8.8125q0 0.4375 0.15625 0.609375q0.15625 0.15625 0.484375 0.15625q0.390625 0 0.734375 -0.09375l0 1.265625q-0.53125 0.1875 -1.234375 0.1875zm5.51001 0q-3.953125 0 -3.953125 -3.953125q0 -3.953125 3.953125 -3.953125q3.96875 0 3.96875 3.953125q0 3.953125 -3.96875 3.953125zm0 -1.46875q1.203125 0 1.703125 -0.578125q0.5 -0.578125 0.5 -1.90625q0 -1.3125 -0.5 -1.875q-0.5 -0.578125 -1.703125 -0.578125q-1.1875 0 -1.6875 0.578125q-0.5 0.5625 -0.5 1.875q0 1.328125 0.5 1.90625q0.5 0.578125 1.6875 0.578125zm8.896019 1.46875q-3.9531174 0 -3.9531174 -3.953125q0 -3.953125 3.9531174 -3.953125q3.96875 0 3.96875 3.953125q0 3.953125 -3.96875 3.953125zm0 -1.46875q1.203125 0 1.703125 -0.578125q0.5 -0.578125 0.5 -1.90625q0 -1.3125 -0.5 -1.875q-0.5 -0.578125 -1.703125 -0.578125q-1.1875 0 -1.6875 0.578125q-0.5 0.5625 -0.5 1.875q0 1.328125 0.5 1.90625q0.5 0.578125 1.6875 0.578125zm5.6710205 -6.265625l1.5 0l0.09375 0.75q0.53125 -0.46875 1.140625 -0.6875q0.609375 -0.234375 1.421875 -0.234375q1.6875 0 2.5625 0.921875q0.890625 0.90625 0.890625 2.90625q0 2.015625 -0.9375 3.046875q-0.921875 1.03125 -2.578125 1.03125q-1.375 0 -2.359375 -0.640625l0 3.9375l-1.734375 0l0 -11.03125zm3.640625 6.421875q1.125 0 1.65625 -0.6875q0.546875 -0.6875 0.546875 -2.09375q0 -1.34375 -0.5 -1.90625q-0.484375 -0.578125 -1.65625 -0.578125q-1.171875 0 -1.953125 0.8125l0 3.78125q0.765625 0.671875 1.90625 0.671875zm13.419525 2.3125q-1.109375 -0.984375 -1.640625 -2.59375q-0.515625 -1.609375 -0.515625 -3.40625q0 -1.8125 0.515625 -3.40625q0.53125 -1.609375 1.640625 -2.59375l1.96875 0q-2.359375 2.046875 -2.359375 6.0q0 3.953125 2.359375 6.0l-1.96875 0zm2.7312622 0q1.234375 -1.078125 1.796875 -2.578125q0.5625 -1.5 0.5625 -3.421875q0 -3.96875 -2.359375 -6.0l1.984375 0q1.09375 0.984375 1.609375 2.59375q0.53125 1.609375 0.53125 3.40625q0 1.796875 -0.53125 3.40625q-0.515625 1.609375 -1.609375 2.59375l-1.984375 0z" fill-rule="nonzero"/><path fill="#000000" fill-opacity="0.0" d="m137.83643 108.56273l0 28.724411" fill-rule="evenodd"/><path stroke="#000000" stroke-width="1.0" stroke-linejoin="round" stroke-linecap="butt" d="m137.83643 108.56273l0 22.724411" fill-rule="evenodd"/><path fill="#000000" stroke="#000000" stroke-width="1.0" stroke-linecap="butt" d="m136.1847 131.28714l1.6517334 4.538086l1.6517334 -4.538086z" fill-rule="evenodd"/><path fill="#000000" fill-opacity="0.0" d="m137.8353 196.27095l0 26.551178" fill-rule="evenodd"/><path stroke="#000000" stroke-width="1.0" stroke-linejoin="round" stroke-linecap="butt" d="m137.8353 196.27095l0 20.551193" fill-rule="evenodd"/><path fill="#000000" stroke="#000000" stroke-width="1.0" stroke-linecap="butt" d="m136.18356 216.82214l1.6517334 4.538086l1.6517334 -4.538086z" fill-rule="evenodd"/><path fill="#000000" fill-opacity="0.0" d="m137.83661 281.81366l0 24.999878l-96.39069 0l0 -54.48021l24.98912 0" fill-rule="evenodd"/><path stroke="#000000" stroke-width="1.0" stroke-linejoin="round" stroke-linecap="butt" d="m137.83661 281.81366l0 24.999878l-96.390686 0l0 -54.48021l18.98912 0" fill-rule="evenodd"/><path fill="#000000" stroke="#000000" stroke-width="1.0" stroke-linecap="butt" d="m60.43504 253.98506l4.5380974 -1.6517334l-4.5380974 -1.6517334z" fill-rule="evenodd"/><path fill="#cc0000" d="m708.0736 29.359581l69.67786 0l0 0c9.127991 0 16.52771 7.665447 16.52771 17.121258c0 9.455811 -7.399719 17.121262 -16.52771 17.121262l-69.67786 0l0 0c-9.127991 0 -16.527649 -7.665451 -16.527649 -17.121262c0 -9.455811 7.399658 -17.121258 16.527649 -17.121258z" fill-rule="evenodd"/><path fill="#ffffff" d="m722.0111 52.49709q-0.953125 0 -1.421875 -0.453125q-0.453125 -0.46875 -0.453125 -1.515625l0 -8.96875l1.734375 0l0 8.8125q0 0.4375 0.15625 0.609375q0.15625 0.15625 0.484375 0.15625q0.390625 0 0.734375 -0.09375l0 1.265625q-0.53125 0.1875 -1.234375 0.1875zm5.51001 0q-3.953125 0 -3.953125 -3.953125q0 -3.953125 3.953125 -3.953125q3.96875 0 3.96875 3.953125q0 3.953125 -3.96875 3.953125zm0 -1.46875q1.203125 0 1.703125 -0.578125q0.5 -0.578125 0.5 -1.90625q0 -1.3125 -0.5 -1.875q-0.5 -0.578125 -1.703125 -0.578125q-1.1875 0 -1.6875 0.578125q-0.5 0.5625 -0.5 1.875q0 1.328125 0.5 1.90625q0.5 0.578125 1.6875 0.578125zm8.896057 1.46875q-3.953125 0 -3.953125 -3.953125q0 -3.953125 3.953125 -3.953125q3.96875 0 3.96875 3.953125q0 3.953125 -3.96875 3.953125zm0 -1.46875q1.203125 0 1.703125 -0.578125q0.5 -0.578125 0.5 -1.90625q0 -1.3125 -0.5 -1.875q-0.5 -0.578125 -1.703125 -0.578125q-1.1875 0 -1.6875 0.578125q-0.5 0.5625 -0.5 1.875q0 1.328125 0.5 1.90625q0.5 0.578125 1.6875 0.578125zm5.6710205 -6.265625l1.5 0l0.09375 0.75q0.53125 -0.46875 1.140625 -0.6875q0.609375 -0.234375 1.421875 -0.234375q1.6875 0 2.5625 0.921875q0.890625 0.90625 0.890625 2.90625q0 2.015625 -0.9375 3.046875q-0.921875 1.03125 -2.578125 1.03125q-1.375 0 -2.359375 -0.640625l0 3.9375l-1.734375 0l0 -11.03125zm3.640625 6.421875q1.125 0 1.65625 -0.6875q0.546875 -0.6875 0.546875 -2.09375q0 -1.34375 -0.5 -1.90625q-0.484375 -0.578125 -1.65625 -0.578125q-1.171875 0 -1.953125 0.8125l0 3.78125q0.765625 0.671875 1.90625 0.671875zm13.419495 2.3125q-1.109375 -0.984375 -1.640625 -2.59375q-0.515625 -1.609375 -0.515625 -3.40625q0 -1.8125 0.515625 -3.40625q0.53125 -1.609375 1.640625 -2.59375l1.96875 0q-2.359375 2.046875 -2.359375 6.0q0 3.953125 2.359375 6.0l-1.96875 0zm2.7312622 0q1.234375 -1.078125 1.796875 -2.578125q0.5625 -1.5 0.5625 -3.421875q0 -3.96875 -2.359375 -6.0l1.984375 0q1.09375 0.984375 1.609375 2.59375q0.53125 1.609375 0.53125 3.40625q0 1.796875 -0.53125 3.40625q-0.515625 1.609375 -1.609375 2.59375l-1.984375 0z" fill-rule="nonzero"/><path fill="#000000" fill-opacity="0.0" d="m742.91254 63.6021l0 36.346455" fill-rule="evenodd"/><path stroke="#000000" stroke-width="1.0" stroke-linejoin="round" stroke-linecap="butt" d="m742.91254 63.6021l0 30.346455" fill-rule="evenodd"/><path fill="#000000" stroke="#000000" stroke-width="1.0" stroke-linecap="butt" d="m741.2608 93.948555l1.6517334 4.5380936l1.6517334 -4.5380936z" fill-rule="evenodd"/><path fill="#4a86e8" d="m679.353 99.95801l127.1181 0l0 58.992126l-127.1181 0z" fill-rule="evenodd"/><path fill="#ffffff" d="m696.41833 125.97032q-0.96875 0 -1.875 -0.171875q-0.90625 -0.171875 -1.5625 -0.46875l0 -4.4375l3.421875 0l0.078125 1.328125l-1.8125 0l0 2.09375q0.734375 0.265625 1.75 0.265625q0.96875 0 1.515625 -0.296875q0.5625 -0.296875 0.8125 -0.953125q0.265625 -0.671875 0.265625 -1.796875q0 -1.203125 -0.296875 -1.859375q-0.28125 -0.671875 -0.9375 -0.953125q-0.640625 -0.296875 -1.796875 -0.296875q-1.578125 0 -2.875 0.421875l0 -1.34375q0.671875 -0.234375 1.546875 -0.359375q0.875 -0.125 1.75 -0.125q2.234375 0 3.265625 1.125q1.03125 1.125 1.03125 3.390625q0 2.21875 -1.03125 3.328125q-1.03125 1.109375 -3.25 1.109375zm2.2000122 -12.75l1.734375 0l0 2.625l-1.734375 0l0 -2.625zm7.03125 7.15625q0 -0.703125 -0.140625 -1.109375q-0.140625 -0.40625 -0.546875 -0.625q-0.40625 -0.21875 -1.171875 -0.21875q-0.515625 0 -1.125 0.109375q-0.59375 0.109375 -1.078125 0.3125l0 -1.34375q0.5 -0.21875 1.1875 -0.34375q0.6875 -0.140625 1.34375 -0.140625q1.734375 0 2.5 0.75q0.78125 0.75 0.78125 2.390625l0 5.65625l-1.75 0l0 -5.4375zm6.727539 5.59375q-1.390625 0 -2.171875 -0.8125q-0.765625 -0.828125 -0.765625 -2.3125l0 -5.671875l1.734375 0l0 5.578125q0 0.96875 0.421875 1.40625q0.421875 0.421875 1.359375 0.421875q0.6875 0 1.328125 -0.28125q0.640625 -0.296875 1.0625 -0.75l0 -6.375l1.734375 0l0 8.640625l-1.578125 0l-0.09375 -0.9375q-1.265625 1.09375 -3.03125 1.09375zm6.7424927 -5.625q0 -1.609375 0.953125 -2.46875q0.96875 -0.859375 2.953125 -0.859375q1.984375 0 2.9375 0.859375q0.953125 0.859375 0.953125 2.46875l0 5.46875l-1.734375 0l0 -5.625q0 -1.765625 -2.15625 -1.765625q-1.078125 0 -1.625 0.4375q-0.546875 0.421875 -0.546875 1.328125l0 1.765625q0.703125 -0.578125 1.6875 -0.578125l1.03125 0l0.0625 1.390625l-1.140625 0q-0.984375 0 -1.640625 0.546875l0 2.5l-1.734375 0l0 -5.46875zm6.058777 -7.125l1.734375 0l0 2.625l-1.734375 0l0 -2.625zm7.03125 7.15625q0 -0.703125 -0.140625 -1.109375q-0.140625 -0.40625 -0.546875 -0.625q-0.40625 -0.21875 -1.171875 -0.21875q-0.515625 0 -1.125 0.109375q-0.59375 0.109375 -1.078125 0.3125l0 -1.34375q0.5 -0.21875 1.1875 -0.34375q0.6875 -0.140625 1.34375 -0.140625q1.734375 0 2.5 0.75q0.78125 0.75 0.78125 2.390625l0 5.65625l-1.75 0l0 -5.4375zm9.710022 -4.859375l4.578125 0q1.71875 0 2.59375 0.9375q0.875 0.9375 0.875 2.5q0 1.53125 -0.953125 2.46875q-0.953125 0.921875 -2.578125 0.921875l-2.78125 0l0 3.46875l-1.734375 0l0 -10.296875zm4.203125 5.453125q1.0 0 1.546875 -0.53125q0.546875 -0.546875 0.546875 -1.484375q0 -1.0 -0.515625 -1.53125q-0.515625 -0.546875 -1.5 -0.546875l-2.546875 0l0 4.09375l2.46875 0zm5.836914 -5.765625l1.90625 0l0 1.4375l-1.90625 0l0 -1.4375zm0.140625 4.359375l-1.140625 0l0.15625 -1.328125l2.734375 0l0 7.578125l-1.75 0l0 -6.25zm3.7873535 -1.328125l1.59375 0l0.078125 0.796875q0.546875 -0.4375 1.265625 -0.703125q0.71875 -0.265625 1.53125 -0.265625q1.46875 0 2.140625 0.6875q0.671875 0.6875 0.671875 2.15625l0 4.90625l-1.71875 0l0 -4.828125q0 -0.890625 -0.375 -1.234375q-0.359375 -0.359375 -1.34375 -0.359375q-0.59375 0 -1.15625 0.25q-0.5625 0.234375 -0.953125 0.625l0 5.546875l-1.734375 0l0 -7.578125zm14.839905 6.71875q0.390625 -0.890625 1.0625 -1.640625q0.671875 -0.765625 1.6875 -1.640625q0.984375 -0.84375 1.390625 -1.265625q0.421875 -0.4375 0.59375 -0.84375q0.171875 -0.421875 0.171875 -1.03125q0 -0.84375 -0.5 -1.265625q-0.484375 -0.421875 -1.578125 -0.421875q-1.15625 0 -2.4375 0.46875l0 -1.53125q0.5625 -0.1875 1.328125 -0.3125q0.765625 -0.125 1.453125 -0.125q1.6875 0 2.578125 0.84375q0.90625 0.84375 0.90625 2.328125q0 1.015625 -0.484375 1.75q-0.484375 0.734375 -1.515625 1.65625l-0.265625 0.25q-0.90625 0.78125 -1.375 1.25q-0.46875 0.46875 -0.796875 1.046875l4.546875 0l0 1.34375l-6.765625 0l0 -0.859375zm8.144043 -4.125l6.109375 0l0 1.359375l-6.109375 0l0 -1.359375zm12.347412 -3.96875l-5.015625 0l0 -1.34375l6.890625 0l0 1.109375l-3.890625 9.1875l-1.765625 0l3.78125 -8.953125z" fill-rule="nonzero"/><path fill="#ffffff" d="m720.55316 144.97032q-1.875 0 -2.90625 -0.875q-1.03125 -0.890625 -1.03125 -2.640625l0 -5.28125l1.734375 0l0 5.34375q0 1.0625 0.546875 1.5625q0.5625 0.5 1.65625 0.5q1.109375 0 1.671875 -0.5q0.5625 -0.5 0.5625 -1.5625l0 -7.90625l1.71875 0l0 7.84375q0 1.75 -1.03125 2.640625q-1.015625 0.875 -2.921875 0.875zm8.67041 0q-1.328125 0 -2.140625 -0.640625q-0.8125 -0.65625 -0.8125 -2.0q0 -1.28125 0.859375 -1.96875q0.875 -0.703125 2.5 -0.703125l2.640625 0l0 -0.546875q0 -0.640625 -0.21875 -1.0q-0.203125 -0.375 -0.6875 -0.53125q-0.46875 -0.15625 -1.3125 -0.15625q-1.53125 0 -2.8125 0.421875l0 -1.34375q0.65625 -0.21875 1.46875 -0.34375q0.828125 -0.140625 1.625 -0.140625q1.890625 0 2.78125 0.796875q0.90625 0.78125 0.90625 2.46875l0 5.53125l-1.75 0l0 -3.8125l-2.53125 0q-0.921875 0 -1.359375 0.3125q-0.4375 0.296875 -0.4375 1.015625q0 0.6875 0.390625 0.96875q0.40625 0.28125 1.34375 0.28125q0.640625 0 1.109375 -0.125l0 1.328125q-0.6875 0.1875 -1.5625 0.1875zm3.0508423 -12.75l1.734375 0l0 2.625l-1.734375 0l0 -2.625zm7.0 12.75q-0.96875 0 -1.875 -0.171875q-0.90625 -0.171875 -1.5625 -0.46875l0 -4.4375l3.421875 0l0.078125 1.328125l-1.8125 0l0 2.09375q0.734375 0.265625 1.75 0.265625q0.96875 0 1.515625 -0.296875q0.5625 -0.296875 0.8125 -0.953125q0.265625 -0.671875 0.265625 -1.796875q0 -1.203125 -0.296875 -1.859375q-0.28125 -0.671875 -0.9375 -0.953125q-0.640625 -0.296875 -1.796875 -0.296875q-1.578125 0 -2.875 0.421875l0 -1.34375q0.671875 -0.234375 1.546875 -0.359375q0.875 -0.125 1.75 -0.125q2.234375 0 3.265625 1.125q1.03125 1.125 1.03125 3.390625q0 2.21875 -1.03125 3.328125q-1.03125 1.109375 -3.25 1.109375zm9.590637 0q-1.84375 0 -2.921875 -0.65625q-1.0625 -0.65625 -1.0625 -2.046875q0 -0.65625 0.3125 -1.15625q0.3125 -0.5 0.890625 -0.796875q-0.53125 -0.1875 -0.84375 -0.65625q-0.3125 -0.46875 -0.3125 -1.140625q0 -1.203125 0.734375 -1.84375q0.734375 -0.65625 1.96875 -0.65625q0.8125 0 1.40625 0.203125l0 1.328125q-0.453125 -0.125 -1.078125 -0.125q-1.34375 0 -1.34375 1.09375q0 1.125 1.5 1.125l0.90625 0l0.078125 1.296875l-1.015625 0q-1.53125 0 -1.53125 1.328125q0 0.65625 0.546875 0.984375q0.546875 0.328125 1.6875 0.328125q1.140625 0 1.6875 -0.453125q0.5625 -0.453125 0.5625 -1.390625l0 -5.5625l1.734375 0l0 5.359375q0 1.75 -0.984375 2.59375q-0.96875 0.84375 -2.921875 0.84375zm7.864563 -0.15625q-1.671875 0 -1.671875 -1.65625l0 -5.53125q0 -1.71875 1.21875 -2.546875l-2.515625 0l0 -1.375l4.625 0l0 1.3125q-0.859375 0.34375 -1.234375 1.03125q-0.375 0.671875 -0.375 1.84375l0 4.828125q0 0.4375 0.140625 0.578125q0.140625 0.140625 0.578125 0.140625l0.734375 0l0 1.375l-1.5 0zm2.440979 -8.640625l1.703125 0l1.28125 6.171875l1.578125 -4.9375l0 -1.234375l1.25 0l1.734375 6.171875l1.75 -8.734375l1.6875 0l-2.46875 11.203125l-1.609375 0l-1.59375 -5.5l-1.734375 5.5l-1.578125 0l-2.0 -8.640625z" fill-rule="nonzero"/><path fill="#0f9d58" d="m646.97504 344.42914l14.748047 -58.992126l177.12598 0l-14.747986 58.992126z" fill-rule="evenodd"/><path fill="#ffffff" d="m688.3241 311.4493q-0.921875 0 -1.75 -0.125q-0.8125 -0.125 -1.3125 -0.328125l0 -1.75q0.578125 0.234375 1.3125 0.390625q0.734375 0.140625 1.34375 0.140625q1.09375 0 1.53125 -0.171875q0.453125 -0.171875 0.453125 -0.65625q0 -0.296875 -0.171875 -0.484375q-0.15625 -0.203125 -0.46875 -0.328125q-0.3125 -0.140625 -0.984375 -0.359375l-0.6875 -0.234375q-1.296875 -0.4375 -1.90625 -0.96875q-0.59375 -0.546875 -0.59375 -1.5q0 -1.1875 0.921875 -1.875q0.921875 -0.703125 2.671875 -0.703125q0.71875 0 1.484375 0.109375q0.765625 0.109375 1.25 0.265625l0 1.734375q-0.484375 -0.203125 -1.171875 -0.3125q-0.671875 -0.125 -1.25 -0.125q-0.875 0 -1.375 0.1875q-0.484375 0.1875 -0.484375 0.671875q0 0.359375 0.328125 0.5625q0.34375 0.1875 1.25 0.46875q0.296875 0.078125 0.734375 0.25q0.9375 0.3125 1.46875 0.65625q0.53125 0.328125 0.78125 0.796875q0.25 0.46875 0.25 1.1875q0 1.234375 -0.953125 1.875q-0.953125 0.625 -2.671875 0.625zm-0.81134033 -12.53125l1.765625 0l0 1.078125l3.984375 0l-0.078125 1.46875l-5.671875 0l0 -2.546875zm10.0625 12.53125q-1.953125 0 -3.046875 -0.921875q-1.078125 -0.921875 -1.078125 -2.703125l0 -5.171875l2.171875 0l0 5.203125q0 0.96875 0.484375 1.453125q0.484375 0.46875 1.46875 0.46875q0.96875 0 1.453125 -0.46875q0.484375 -0.484375 0.484375 -1.453125l0 -5.203125l2.171875 0l0 5.171875q0 1.78125 -1.09375 2.703125q-1.078125 0.921875 -3.015625 0.921875zm6.0029907 -5.515625q0 -1.625 1.0 -2.53125q1.0 -0.90625 3.078125 -0.90625q2.09375 0 3.078125 0.90625q1.0 0.90625 1.0 2.53125l0 5.359375l-2.171875 0l0 -5.515625q0 -0.78125 -0.5 -1.1875q-0.5 -0.421875 -1.40625 -0.421875q-0.9375 0 -1.421875 0.421875q-0.484375 0.40625 -0.484375 1.1875l0 1.546875q0.671875 -0.515625 1.5 -0.515625l1.03125 0l0.078125 1.71875l-1.15625 0q-0.84375 0 -1.453125 0.46875l0 2.296875l-2.171875 0l0 -5.359375zm5.9855347 -7.109375l2.171875 0l0 2.640625l-2.171875 0l0 -2.640625zm7.125 7.15625q0 -0.921875 -0.359375 -1.359375q-0.359375 -0.453125 -1.328125 -0.453125q-0.5 0 -1.09375 0.125q-0.59375 0.109375 -1.078125 0.296875l0 -1.578125q0.5 -0.234375 1.203125 -0.375q0.703125 -0.140625 1.390625 -0.140625q1.8125 0 2.609375 0.765625q0.8125 0.765625 0.8125 2.421875l0 5.609375l-2.15625 0l0 -5.3125zm9.817505 -4.984375l4.328125 0q2.359375 0 3.515625 1.21875q1.15625 1.21875 1.15625 3.96875q0 2.625 -1.15625 3.875q-1.15625 1.234375 -3.515625 1.234375l-4.328125 0l0 -10.296875zm4.015625 8.640625q0.984375 0 1.578125 -0.28125q0.59375 -0.296875 0.90625 -1.046875q0.3125 -0.765625 0.3125 -2.125q0 -1.375 -0.28125 -2.109375q-0.28125 -0.734375 -0.875 -1.015625q-0.59375 -0.28125 -1.640625 -0.28125l-1.84375 0l0 6.859375l1.84375 0zm9.953552 1.8125q-2.015625 0 -3.140625 -1.0q-1.125 -1.0 -1.125 -2.96875q0 -1.84375 0.984375 -2.890625q0.984375 -1.046875 2.875 -1.046875q1.71875 0 2.671875 0.90625q0.953125 0.90625 0.953125 2.421875l0 1.375l-5.484375 0q0.15625 0.890625 0.796875 1.25q0.65625 0.34375 1.921875 0.34375q0.609375 0 1.234375 -0.109375q0.640625 -0.125 1.078125 -0.296875l0 1.546875q-1.046875 0.46875 -2.765625 0.46875zm1.328125 -4.53125l0 -0.40625q0 -1.40625 -1.671875 -1.40625q-1.0625 0 -1.5 0.421875q-0.421875 0.421875 -0.421875 1.390625l3.59375 0zm5.515747 4.53125q-1.109375 0 -1.625 -0.5q-0.5 -0.515625 -0.5 -1.640625l0 -8.796875l2.171875 0l0 8.625q0 0.390625 0.140625 0.546875q0.15625 0.15625 0.484375 0.15625q0.40625 0 0.75 -0.109375l0 1.484375q-0.34375 0.125 -0.671875 0.171875q-0.3125 0.0625 -0.75 0.0625zm4.3135986 0q-1.15625 0 -1.9375 -0.609375q-0.765625 -0.625 -0.765625 -1.734375q0 -1.140625 0.796875 -1.796875q0.8125 -0.671875 2.34375 -0.671875l2.234375 0l0 -0.203125q0 -0.484375 -0.171875 -0.75q-0.171875 -0.28125 -0.59375 -0.40625q-0.421875 -0.125 -1.203125 -0.125q-1.296875 0 -2.5 0.390625l0 -1.515625q0.5625 -0.21875 1.3125 -0.34375q0.765625 -0.140625 1.640625 -0.140625q3.578125 0 3.578125 2.9375l0 4.8125l-1.875 0l-0.109375 -0.6875q-0.921875 0.84375 -2.75 0.84375zm0.59375 -1.421875q0.6875 0 1.21875 -0.234375q0.53125 -0.234375 0.859375 -0.609375l0 -1.203125l-2.1875 0q-1.265625 0 -1.265625 1.046875q0 1.0 1.375 1.0zm7.144043 4.078125q-0.984375 0 -1.625 -0.25l0 -1.515625q0.453125 0.15625 0.96875 0.15625q0.640625 0 1.0 -0.296875q0.359375 -0.28125 0.75 -1.03125l-3.390625 -7.453125l2.25 0l2.234375 5.140625l2.203125 -5.140625l2.234375 0l-2.984375 7.046875q-0.703125 1.6875 -1.53125 2.515625q-0.8125 0.828125 -2.109375 0.828125zm16.302368 -2.65625q-0.75 0 -1.59375 -0.125q-0.84375 -0.125 -1.390625 -0.375l0 -1.859375q0.546875 0.234375 1.296875 0.375q0.75 0.125 1.390625 0.125q1.125 0 1.640625 -0.359375q0.515625 -0.359375 0.515625 -1.1875q0 -0.78125 -0.390625 -1.109375q-0.375 -0.34375 -1.390625 -0.34375l-3.109375 0l0 -1.21875l0.265625 -4.375l6.125 0l-0.15625 1.65625l-4.125 0l-0.140625 2.265625l1.546875 0q1.84375 0 2.703125 0.8125q0.875 0.796875 0.875 2.390625q0 1.5625 -1.046875 2.453125q-1.03125 0.875 -3.015625 0.875zm9.913025 0.265625q-2.46875 0 -3.5625 -1.375q-1.09375 -1.390625 -1.09375 -4.078125q0 -2.6875 1.09375 -4.0625q1.09375 -1.375 3.5625 -1.375q2.46875 0 3.5625 1.375q1.09375 1.375 1.09375 4.0625q0 2.6875 -1.09375 4.078125q-1.09375 1.375 -3.5625 1.375zm0 -1.859375q1.34375 0 1.90625 -0.890625q0.5625 -0.890625 0.5625 -2.703125q0 -1.796875 -0.5625 -2.6875q-0.5625 -0.890625 -1.90625 -0.890625q-1.34375 0 -1.90625 0.890625q-0.5625 0.890625 -0.5625 2.6875q0 1.8125 0.5625 2.703125q0.5625 0.890625 1.90625 0.890625zm10.496033 1.859375q-2.46875 0 -3.5625 -1.375q-1.09375 -1.390625 -1.09375 -4.078125q0 -2.6875 1.09375 -4.0625q1.09375 -1.375 3.5625 -1.375q2.46875 0 3.5625 1.375q1.09375 1.375 1.09375 4.0625q0 2.6875 -1.09375 4.078125q-1.09375 1.375 -3.5625 1.375zm0 -1.859375q1.34375 0 1.90625 -0.890625q0.5625 -0.890625 0.5625 -2.703125q0 -1.796875 -0.5625 -2.6875q-0.5625 -0.890625 -1.90625 -0.890625q-1.34375 0 -1.90625 0.890625q-0.5625 0.890625 -0.5625 2.6875q0 1.8125 0.5625 2.703125q0.5625 0.890625 1.90625 0.890625z" fill-rule="nonzero"/><path fill="#ffffff" d="m733.1863 322.71494l2.0 0l0.078125 0.734375q1.1875 -0.90625 2.59375 -0.90625q0.78125 0 1.21875 0.234375q0.453125 0.234375 0.703125 0.703125q0.578125 -0.453125 1.25 -0.6875q0.6875 -0.25 1.5625 -0.25q1.3125 0 1.9375 0.6875q0.625 0.671875 0.625 2.078125l0 4.984375l-2.125 0l0 -4.75q0 -0.734375 -0.328125 -1.0625q-0.3125 -0.34375 -1.015625 -0.34375q-0.453125 0 -0.875 0.1875q-0.421875 0.171875 -0.71875 0.5q0.078125 0.265625 0.078125 0.65625l0 4.8125l-2.015625 0l0 -4.75q0 -0.734375 -0.265625 -1.0625q-0.25 -0.34375 -0.90625 -0.34375q-0.8125 0 -1.65625 0.8125l0 5.34375l-2.140625 0l0 -7.578125zm16.399902 7.734375q-0.828125 0 -1.59375 -0.109375q-0.765625 -0.109375 -1.25 -0.296875l0 -1.796875q0.53125 0.21875 1.234375 0.34375q0.703125 0.125 1.328125 0.125q0.828125 0 1.140625 -0.109375q0.3125 -0.109375 0.3125 -0.421875q0 -0.296875 -0.296875 -0.453125q-0.28125 -0.15625 -1.09375 -0.40625q-0.234375 -0.078125 -0.609375 -0.203125q-1.125 -0.359375 -1.640625 -0.875q-0.515625 -0.515625 -0.515625 -1.4375q0 -1.109375 0.796875 -1.6875q0.8125 -0.578125 2.546875 -0.578125q0.65625 0 1.28125 0.109375q0.640625 0.09375 1.09375 0.25l0 1.78125q-0.40625 -0.203125 -0.96875 -0.3125q-0.5625 -0.109375 -1.0625 -0.109375q-0.765625 0 -1.140625 0.109375q-0.359375 0.09375 -0.359375 0.40625q0 0.265625 0.265625 0.40625q0.265625 0.140625 1.015625 0.359375l0.53125 0.15625q0.921875 0.296875 1.421875 0.609375q0.5 0.296875 0.703125 0.734375q0.21875 0.4375 0.21875 1.109375q0 1.125 -0.84375 1.71875q-0.84375 0.578125 -2.515625 0.578125z" fill-rule="nonzero"/><path fill="#4a86e8" d="m666.1562 192.69817l153.51178 0l0 58.992126l-153.51178 0z" fill-rule="evenodd"/><path fill="#ffffff" d="m693.05035 218.71048q-0.96875 0 -1.875 -0.171875q-0.90625 -0.171875 -1.5625 -0.46875l0 -4.4375l3.421875 0l0.078125 1.328125l-1.8125 0l0 2.09375q0.734375 0.265625 1.75 0.265625q0.96875 0 1.515625 -0.296875q0.5625 -0.296875 0.8125 -0.953125q0.265625 -0.671875 0.265625 -1.796875q0 -1.203125 -0.296875 -1.859375q-0.28125 -0.671875 -0.9375 -0.953125q-0.640625 -0.296875 -1.796875 -0.296875q-1.578125 0 -2.875 0.421875l0 -1.34375q0.671875 -0.234375 1.546875 -0.359375q0.875 -0.125 1.75 -0.125q2.234375 0 3.265625 1.125q1.03125 1.125 1.03125 3.390625q0 2.21875 -1.03125 3.328125q-1.03125 1.109375 -3.25 1.109375zm2.2000122 -12.75l1.734375 0l0 2.625l-1.734375 0l0 -2.625zm7.03125 7.15625q0 -0.703125 -0.140625 -1.109375q-0.140625 -0.40625 -0.546875 -0.625q-0.40625 -0.21875 -1.171875 -0.21875q-0.515625 0 -1.125 0.109375q-0.59375 0.109375 -1.078125 0.3125l0 -1.34375q0.5 -0.21875 1.1875 -0.34375q0.6875 -0.140625 1.34375 -0.140625q1.734375 0 2.5 0.75q0.78125 0.75 0.78125 2.390625l0 5.65625l-1.75 0l0 -5.4375zm6.727478 5.59375q-1.390625 0 -2.171875 -0.8125q-0.765625 -0.828125 -0.765625 -2.3125l0 -5.671875l1.734375 0l0 5.578125q0 0.96875 0.421875 1.40625q0.421875 0.421875 1.359375 0.421875q0.6875 0 1.328125 -0.28125q0.640625 -0.296875 1.0625 -0.75l0 -6.375l1.734375 0l0 8.640625l-1.578125 0l-0.09375 -0.9375q-1.265625 1.09375 -3.03125 1.09375zm6.7425537 -5.625q0 -1.609375 0.953125 -2.46875q0.96875 -0.859375 2.953125 -0.859375q1.984375 0 2.9375 0.859375q0.953125 0.859375 0.953125 2.46875l0 5.46875l-1.734375 0l0 -5.625q0 -1.765625 -2.15625 -1.765625q-1.078125 0 -1.625 0.4375q-0.546875 0.421875 -0.546875 1.328125l0 1.765625q0.703125 -0.578125 1.6875 -0.578125l1.03125 0l0.0625 1.390625l-1.140625 0q-0.984375 0 -1.640625 0.546875l0 2.5l-1.734375 0l0 -5.46875zm6.058777 -7.125l1.734375 0l0 2.625l-1.734375 0l0 -2.625zm7.03125 7.15625q0 -0.703125 -0.140625 -1.109375q-0.140625 -0.40625 -0.546875 -0.625q-0.40625 -0.21875 -1.171875 -0.21875q-0.515625 0 -1.125 0.109375q-0.59375 0.109375 -1.078125 0.3125l0 -1.34375q0.5 -0.21875 1.1875 -0.34375q0.6875 -0.140625 1.34375 -0.140625q1.734375 0 2.5 0.75q0.78125 0.75 0.78125 2.390625l0 5.65625l-1.75 0l0 -5.4375zm9.710022 -4.859375l4.578125 0q1.71875 0 2.59375 0.9375q0.875 0.9375 0.875 2.5q0 1.53125 -0.953125 2.46875q-0.953125 0.921875 -2.578125 0.921875l-2.78125 0l0 3.46875l-1.734375 0l0 -10.296875zm4.203125 5.453125q1.0 0 1.546875 -0.53125q0.546875 -0.546875 0.546875 -1.484375q0 -1.0 -0.515625 -1.53125q-0.515625 -0.546875 -1.5 -0.546875l-2.546875 0l0 4.09375l2.46875 0zm5.836914 -5.765625l1.90625 0l0 1.4375l-1.90625 0l0 -1.4375zm0.140625 4.359375l-1.140625 0l0.15625 -1.328125l2.734375 0l0 7.578125l-1.75 0l0 -6.25zm3.7873535 -1.328125l1.59375 0l0.078125 0.796875q0.546875 -0.4375 1.265625 -0.703125q0.71875 -0.265625 1.53125 -0.265625q1.46875 0 2.140625 0.6875q0.671875 0.6875 0.671875 2.15625l0 4.90625l-1.71875 0l0 -4.828125q0 -0.890625 -0.375 -1.234375q-0.359375 -0.359375 -1.34375 -0.359375q-0.59375 0 -1.15625 0.25q-0.5625 0.234375 -0.953125 0.625l0 5.546875l-1.734375 0l0 -7.578125zm18.871155 7.734375q-2.0 0 -3.015625 -0.734375q-1.015625 -0.75 -1.015625 -2.203125q0 -0.90625 0.46875 -1.578125q0.484375 -0.6875 1.359375 -0.96875q-0.765625 -0.28125 -1.15625 -0.859375q-0.390625 -0.59375 -0.390625 -1.328125q0 -1.375 0.9375 -2.15625q0.953125 -0.796875 2.8125 -0.796875q1.890625 0 2.8125 0.78125q0.9375 0.78125 0.9375 2.171875q0 0.78125 -0.390625 1.40625q-0.375 0.609375 -1.234375 0.921875q0.984375 0.296875 1.4375 0.890625q0.453125 0.578125 0.453125 1.515625q0 1.453125 -1.015625 2.203125q-1.0 0.734375 -3.0 0.734375zm0.4375 -5.890625q0.890625 -0.21875 1.28125 -0.609375q0.40625 -0.390625 0.40625 -1.140625q0 -1.609375 -2.125 -1.609375q-2.125 0 -2.125 1.609375q0 0.625 0.359375 1.015625q0.359375 0.390625 1.0625 0.515625l1.140625 0.21875zm-0.4375 4.53125q1.21875 0 1.8125 -0.390625q0.59375 -0.390625 0.59375 -1.21875q0 -0.71875 -0.40625 -1.0625q-0.40625 -0.359375 -1.328125 -0.5625l-1.3125 -0.265625q-0.875 0.1875 -1.328125 0.625q-0.453125 0.421875 -0.453125 1.234375q0 0.84375 0.59375 1.25q0.609375 0.390625 1.828125 0.390625zm5.4087524 -3.78125l6.109375 0l0 1.359375l-6.109375 0l0 -1.359375zm9.159912 -3.78125l-1.671875 0.28125l0 -1.453125l3.390625 -0.53125l0 10.46875l-1.71875 0l0 -8.765625zm6.354004 8.921875q-0.71875 0 -1.578125 -0.140625q-0.84375 -0.125 -1.34375 -0.3125l0 -1.53125q1.203125 0.5 2.6875 0.5q1.28125 0 1.875 -0.375q0.59375 -0.375 0.59375 -1.28125q0 -1.578125 -2.125 -1.578125l-1.5625 0l0.140625 -1.296875l1.296875 0q2.03125 0 2.03125 -1.59375q0 -0.78125 -0.546875 -1.140625q-0.53125 -0.375 -1.703125 -0.375q-0.640625 0 -1.3125 0.125q-0.65625 0.125 -1.1875 0.34375l0 -1.484375q0.515625 -0.203125 1.28125 -0.34375q0.765625 -0.140625 1.484375 -0.140625q1.828125 0 2.78125 0.78125q0.953125 0.78125 0.953125 2.078125q0 0.8125 -0.390625 1.46875q-0.390625 0.65625 -1.15625 0.921875q0.890625 0.25 1.328125 0.859375q0.4375 0.59375 0.4375 1.484375q0 1.5 -1.0625 2.265625q-1.0625 0.765625 -2.921875 0.765625z" fill-rule="nonzero"/><path fill="#ffffff" d="m728.8028 237.71048q-1.609375 0 -2.578125 -1.078125q-0.953125 -1.078125 -0.953125 -3.265625q0 -2.203125 1.109375 -3.40625q1.125 -1.203125 3.3125 -1.203125q1.40625 0 2.34375 0.484375q0.9375 0.484375 1.375 1.28125q0.4375 0.796875 0.4375 1.75l0 5.28125l-1.75 0l0 -5.203125q0 -1.03125 -0.5625 -1.609375q-0.5625 -0.578125 -1.875 -0.578125q-1.390625 0 -2.046875 0.796875q-0.65625 0.796875 -0.65625 2.40625q0 1.578125 0.53125 2.265625q0.53125 0.6875 1.625 0.6875q0.734375 0 1.09375 -0.125l0 1.328125q-0.53125 0.1875 -1.40625 0.1875zm1.2567749 -12.4375l1.4375 0l0 1.109375l4.140625 0l-0.078125 1.21875l-5.5 0l0 -2.328125zm9.765625 12.4375q-1.875 0 -2.90625 -0.875q-1.03125 -0.890625 -1.03125 -2.640625l0 -5.28125l1.734375 0l0 5.34375q0 1.0625 0.546875 1.5625q0.5625 0.5 1.65625 0.5q1.109375 0 1.671875 -0.5q0.5625 -0.5 0.5625 -1.5625l0 -5.34375l1.71875 0l0 5.28125q0 1.75 -1.03125 2.640625q-1.015625 0.875 -2.921875 0.875zm7.92041 -0.15625q-1.671875 0 -1.671875 -1.65625l0 -5.53125q0 -1.71875 1.21875 -2.546875l-2.515625 0l0 -1.375l4.625 0l0 1.3125q-0.859375 0.34375 -1.234375 1.03125q-0.375 0.671875 -0.375 1.84375l0 4.828125q0 0.4375 0.140625 0.578125q0.140625 0.140625 0.578125 0.140625l0.734375 0l0 1.375l-1.5 0zm2.440979 -8.640625l1.703125 0l1.28125 6.171875l1.578125 -4.9375l0 -1.234375l1.25 0l1.734375 6.171875l1.75 -8.734375l1.6875 0l-2.46875 11.203125l-1.609375 0l-1.59375 -5.5l-1.734375 5.5l-1.578125 0l-2.0 -8.640625z" fill-rule="nonzero"/><path fill="#4a86e8" d="m679.3504 378.17847l127.1181 0l0 58.992126l-127.1181 0z" fill-rule="evenodd"/><path fill="#ffffff" d="m696.4157 404.1908q-0.96875 0 -1.875 -0.171875q-0.90625 -0.171875 -1.5625 -0.46875l0 -4.4375l3.421875 0l0.078125 1.328125l-1.8125 0l0 2.09375q0.734375 0.265625 1.75 0.265625q0.96875 0 1.515625 -0.296875q0.5625 -0.296875 0.8125 -0.953125q0.265625 -0.671875 0.265625 -1.796875q0 -1.203125 -0.296875 -1.859375q-0.28125 -0.671875 -0.9375 -0.953125q-0.640625 -0.296875 -1.796875 -0.296875q-1.578125 0 -2.875 0.421875l0 -1.34375q0.671875 -0.234375 1.546875 -0.359375q0.875 -0.125 1.75 -0.125q2.234375 0 3.265625 1.125q1.03125 1.125 1.03125 3.390625q0 2.21875 -1.03125 3.328125q-1.03125 1.109375 -3.25 1.109375zm2.2000122 -12.75l1.734375 0l0 2.625l-1.734375 0l0 -2.625zm7.03125 7.15625q0 -0.703125 -0.140625 -1.109375q-0.140625 -0.40625 -0.546875 -0.625q-0.40625 -0.21875 -1.171875 -0.21875q-0.515625 0 -1.125 0.109375q-0.59375 0.109375 -1.078125 0.3125l0 -1.34375q0.5 -0.21875 1.1875 -0.34375q0.6875 -0.140625 1.34375 -0.140625q1.734375 0 2.5 0.75q0.78125 0.75 0.78125 2.390625l0 5.65625l-1.75 0l0 -5.4375zm6.727539 5.59375q-1.390625 0 -2.171875 -0.8125q-0.765625 -0.828125 -0.765625 -2.3125l0 -5.671875l1.734375 0l0 5.578125q0 0.96875 0.421875 1.40625q0.421875 0.421875 1.359375 0.421875q0.6875 0 1.328125 -0.28125q0.640625 -0.296875 1.0625 -0.75l0 -6.375l1.734375 0l0 8.640625l-1.578125 0l-0.09375 -0.9375q-1.265625 1.09375 -3.03125 1.09375zm6.7424927 -5.625q0 -1.609375 0.953125 -2.46875q0.96875 -0.859375 2.953125 -0.859375q1.984375 0 2.9375 0.859375q0.953125 0.859375 0.953125 2.46875l0 5.46875l-1.734375 0l0 -5.625q0 -1.765625 -2.15625 -1.765625q-1.078125 0 -1.625 0.4375q-0.546875 0.421875 -0.546875 1.328125l0 1.765625q0.703125 -0.578125 1.6875 -0.578125l1.03125 0l0.0625 1.390625l-1.140625 0q-0.984375 0 -1.640625 0.546875l0 2.5l-1.734375 0l0 -5.46875zm6.058777 -7.125l1.734375 0l0 2.625l-1.734375 0l0 -2.625zm7.03125 7.15625q0 -0.703125 -0.140625 -1.109375q-0.140625 -0.40625 -0.546875 -0.625q-0.40625 -0.21875 -1.171875 -0.21875q-0.515625 0 -1.125 0.109375q-0.59375 0.109375 -1.078125 0.3125l0 -1.34375q0.5 -0.21875 1.1875 -0.34375q0.6875 -0.140625 1.34375 -0.140625q1.734375 0 2.5 0.75q0.78125 0.75 0.78125 2.390625l0 5.65625l-1.75 0l0 -5.4375zm9.710022 -4.859375l4.578125 0q1.71875 0 2.59375 0.9375q0.875 0.9375 0.875 2.5q0 1.53125 -0.953125 2.46875q-0.953125 0.921875 -2.578125 0.921875l-2.78125 0l0 3.46875l-1.734375 0l0 -10.296875zm4.203125 5.453125q1.0 0 1.546875 -0.53125q0.546875 -0.546875 0.546875 -1.484375q0 -1.0 -0.515625 -1.53125q-0.515625 -0.546875 -1.5 -0.546875l-2.546875 0l0 4.09375l2.46875 0zm5.836914 -5.765625l1.90625 0l0 1.4375l-1.90625 0l0 -1.4375zm0.140625 4.359375l-1.140625 0l0.15625 -1.328125l2.734375 0l0 7.578125l-1.75 0l0 -6.25zm3.7873535 -1.328125l1.59375 0l0.078125 0.796875q0.546875 -0.4375 1.265625 -0.703125q0.71875 -0.265625 1.53125 -0.265625q1.46875 0 2.140625 0.6875q0.671875 0.6875 0.671875 2.15625l0 4.90625l-1.71875 0l0 -4.828125q0 -0.890625 -0.375 -1.234375q-0.359375 -0.359375 -1.34375 -0.359375q-0.59375 0 -1.15625 0.25q-0.5625 0.234375 -0.953125 0.625l0 5.546875l-1.734375 0l0 -7.578125zm14.839905 6.71875q0.390625 -0.890625 1.0625 -1.640625q0.671875 -0.765625 1.6875 -1.640625q0.984375 -0.84375 1.390625 -1.265625q0.421875 -0.4375 0.59375 -0.84375q0.171875 -0.421875 0.171875 -1.03125q0 -0.84375 -0.5 -1.265625q-0.484375 -0.421875 -1.578125 -0.421875q-1.15625 0 -2.4375 0.46875l0 -1.53125q0.5625 -0.1875 1.328125 -0.3125q0.765625 -0.125 1.453125 -0.125q1.6875 0 2.578125 0.84375q0.90625 0.84375 0.90625 2.328125q0 1.015625 -0.484375 1.75q-0.484375 0.734375 -1.515625 1.65625l-0.265625 0.25q-0.90625 0.78125 -1.375 1.25q-0.46875 0.46875 -0.796875 1.046875l4.546875 0l0 1.34375l-6.765625 0l0 -0.859375zm8.144043 -4.125l6.109375 0l0 1.359375l-6.109375 0l0 -1.359375zm12.347412 -3.96875l-5.015625 0l0 -1.34375l6.890625 0l0 1.109375l-3.890625 9.1875l-1.765625 0l3.78125 -8.953125z" fill-rule="nonzero"/><path fill="#ffffff" d="m728.8002 423.1908q-1.609375 0 -2.578125 -1.078125q-0.953125 -1.078125 -0.953125 -3.265625q0 -2.203125 1.109375 -3.40625q1.125 -1.203125 3.3125 -1.203125q1.40625 0 2.34375 0.484375q0.9375 0.484375 1.375 1.28125q0.4375 0.796875 0.4375 1.75l0 5.28125l-1.75 0l0 -5.203125q0 -1.03125 -0.5625 -1.609375q-0.5625 -0.578125 -1.875 -0.578125q-1.390625 0 -2.046875 0.796875q-0.65625 0.796875 -0.65625 2.40625q0 1.578125 0.53125 2.265625q0.53125 0.6875 1.625 0.6875q0.734375 0 1.09375 -0.125l0 1.328125q-0.53125 0.1875 -1.40625 0.1875zm1.2567749 -12.4375l1.4375 0l0 1.109375l4.140625 0l-0.078125 1.21875l-5.5 0l0 -2.328125zm9.765625 12.4375q-1.875 0 -2.90625 -0.875q-1.03125 -0.890625 -1.03125 -2.640625l0 -5.28125l1.734375 0l0 5.34375q0 1.0625 0.546875 1.5625q0.5625 0.5 1.65625 0.5q1.109375 0 1.671875 -0.5q0.5625 -0.5 0.5625 -1.5625l0 -5.34375l1.71875 0l0 5.28125q0 1.75 -1.03125 2.640625q-1.015625 0.875 -2.921875 0.875zm7.92041 -0.15625q-1.671875 0 -1.671875 -1.65625l0 -5.53125q0 -1.71875 1.21875 -2.546875l-2.515625 0l0 -1.375l4.625 0l0 1.3125q-0.859375 0.34375 -1.234375 1.03125q-0.375 0.671875 -0.375 1.84375l0 4.828125q0 0.4375 0.140625 0.578125q0.140625 0.140625 0.578125 0.140625l0.734375 0l0 1.375l-1.5 0zm2.440979 -8.640625l1.703125 0l1.28125 6.171875l1.578125 -4.9375l0 -1.234375l1.25 0l1.734375 6.171875l1.75 -8.734375l1.6875 0l-2.46875 11.203125l-1.609375 0l-1.59375 -5.5l-1.734375 5.5l-1.578125 0l-2.0 -8.640625z" fill-rule="nonzero"/><path fill="#4a86e8" d="m666.15356 470.91864l153.51178 0l0 58.992126l-153.51178 0z" fill-rule="evenodd"/><path fill="#ffffff" d="m693.0477 496.93094q-0.96875 0 -1.875 -0.171875q-0.90625 -0.171875 -1.5625 -0.46875l0 -4.4375l3.421875 0l0.078125 1.328125l-1.8125 0l0 2.09375q0.734375 0.265625 1.75 0.265625q0.96875 0 1.515625 -0.296875q0.5625 -0.296875 0.8125 -0.953125q0.265625 -0.671875 0.265625 -1.796875q0 -1.203125 -0.296875 -1.859375q-0.28125 -0.671875 -0.9375 -0.953125q-0.640625 -0.296875 -1.796875 -0.296875q-1.578125 0 -2.875 0.421875l0 -1.34375q0.671875 -0.234375 1.546875 -0.359375q0.875 -0.125 1.75 -0.125q2.234375 0 3.265625 1.125q1.03125 1.125 1.03125 3.390625q0 2.21875 -1.03125 3.328125q-1.03125 1.109375 -3.25 1.109375zm2.2000122 -12.75l1.734375 0l0 2.625l-1.734375 0l0 -2.625zm7.03125 7.15625q0 -0.703125 -0.140625 -1.109375q-0.140625 -0.40625 -0.546875 -0.625q-0.40625 -0.21875 -1.171875 -0.21875q-0.515625 0 -1.125 0.109375q-0.59375 0.109375 -1.078125 0.3125l0 -1.34375q0.5 -0.21875 1.1875 -0.34375q0.6875 -0.140625 1.34375 -0.140625q1.734375 0 2.5 0.75q0.78125 0.75 0.78125 2.390625l0 5.65625l-1.75 0l0 -5.4375zm6.727478 5.59375q-1.390625 0 -2.171875 -0.8125q-0.765625 -0.828125 -0.765625 -2.3125l0 -5.671875l1.734375 0l0 5.578125q0 0.96875 0.421875 1.40625q0.421875 0.421875 1.359375 0.421875q0.6875 0 1.328125 -0.28125q0.640625 -0.296875 1.0625 -0.75l0 -6.375l1.734375 0l0 8.640625l-1.578125 0l-0.09375 -0.9375q-1.265625 1.09375 -3.03125 1.09375zm6.7425537 -5.625q0 -1.609375 0.953125 -2.46875q0.96875 -0.859375 2.953125 -0.859375q1.984375 0 2.9375 0.859375q0.953125 0.859375 0.953125 2.46875l0 5.46875l-1.734375 0l0 -5.625q0 -1.765625 -2.15625 -1.765625q-1.078125 0 -1.625 0.4375q-0.546875 0.421875 -0.546875 1.328125l0 1.765625q0.703125 -0.578125 1.6875 -0.578125l1.03125 0l0.0625 1.390625l-1.140625 0q-0.984375 0 -1.640625 0.546875l0 2.5l-1.734375 0l0 -5.46875zm6.058777 -7.125l1.734375 0l0 2.625l-1.734375 0l0 -2.625zm7.03125 7.15625q0 -0.703125 -0.140625 -1.109375q-0.140625 -0.40625 -0.546875 -0.625q-0.40625 -0.21875 -1.171875 -0.21875q-0.515625 0 -1.125 0.109375q-0.59375 0.109375 -1.078125 0.3125l0 -1.34375q0.5 -0.21875 1.1875 -0.34375q0.6875 -0.140625 1.34375 -0.140625q1.734375 0 2.5 0.75q0.78125 0.75 0.78125 2.390625l0 5.65625l-1.75 0l0 -5.4375zm9.710022 -4.859375l4.578125 0q1.71875 0 2.59375 0.9375q0.875 0.9375 0.875 2.5q0 1.53125 -0.953125 2.46875q-0.953125 0.921875 -2.578125 0.921875l-2.78125 0l0 3.46875l-1.734375 0l0 -10.296875zm4.203125 5.453125q1.0 0 1.546875 -0.53125q0.546875 -0.546875 0.546875 -1.484375q0 -1.0 -0.515625 -1.53125q-0.515625 -0.546875 -1.5 -0.546875l-2.546875 0l0 4.09375l2.46875 0zm5.836914 -5.765625l1.90625 0l0 1.4375l-1.90625 0l0 -1.4375zm0.140625 4.359375l-1.140625 0l0.15625 -1.328125l2.734375 0l0 7.578125l-1.75 0l0 -6.25zm3.7873535 -1.328125l1.59375 0l0.078125 0.796875q0.546875 -0.4375 1.265625 -0.703125q0.71875 -0.265625 1.53125 -0.265625q1.46875 0 2.140625 0.6875q0.671875 0.6875 0.671875 2.15625l0 4.90625l-1.71875 0l0 -4.828125q0 -0.890625 -0.375 -1.234375q-0.359375 -0.359375 -1.34375 -0.359375q-0.59375 0 -1.15625 0.25q-0.5625 0.234375 -0.953125 0.625l0 5.546875l-1.734375 0l0 -7.578125zm18.871155 7.734375q-2.0 0 -3.015625 -0.734375q-1.015625 -0.75 -1.015625 -2.203125q0 -0.90625 0.46875 -1.578125q0.484375 -0.6875 1.359375 -0.96875q-0.765625 -0.28125 -1.15625 -0.859375q-0.390625 -0.59375 -0.390625 -1.328125q0 -1.375 0.9375 -2.15625q0.953125 -0.796875 2.8125 -0.796875q1.890625 0 2.8125 0.78125q0.9375 0.78125 0.9375 2.171875q0 0.78125 -0.390625 1.40625q-0.375 0.609375 -1.234375 0.921875q0.984375 0.296875 1.4375 0.890625q0.453125 0.578125 0.453125 1.515625q0 1.453125 -1.015625 2.203125q-1.0 0.734375 -3.0 0.734375zm0.4375 -5.890625q0.890625 -0.21875 1.28125 -0.609375q0.40625 -0.390625 0.40625 -1.140625q0 -1.609375 -2.125 -1.609375q-2.125 0 -2.125 1.609375q0 0.625 0.359375 1.015625q0.359375 0.390625 1.0625 0.515625l1.140625 0.21875zm-0.4375 4.53125q1.21875 0 1.8125 -0.390625q0.59375 -0.390625 0.59375 -1.21875q0 -0.71875 -0.40625 -1.0625q-0.40625 -0.359375 -1.328125 -0.5625l-1.3125 -0.265625q-0.875 0.1875 -1.328125 0.625q-0.453125 0.421875 -0.453125 1.234375q0 0.84375 0.59375 1.25q0.609375 0.390625 1.828125 0.390625zm5.4087524 -3.78125l6.109375 0l0 1.359375l-6.109375 0l0 -1.359375zm9.159912 -3.78125l-1.671875 0.28125l0 -1.453125l3.390625 -0.53125l0 10.46875l-1.71875 0l0 -8.765625zm6.354004 8.921875q-0.71875 0 -1.578125 -0.140625q-0.84375 -0.125 -1.34375 -0.3125l0 -1.53125q1.203125 0.5 2.6875 0.5q1.28125 0 1.875 -0.375q0.59375 -0.375 0.59375 -1.28125q0 -1.578125 -2.125 -1.578125l-1.5625 0l0.140625 -1.296875l1.296875 0q2.03125 0 2.03125 -1.59375q0 -0.78125 -0.546875 -1.140625q-0.53125 -0.375 -1.703125 -0.375q-0.640625 0 -1.3125 0.125q-0.65625 0.125 -1.1875 0.34375l0 -1.484375q0.515625 -0.203125 1.28125 -0.34375q0.765625 -0.140625 1.484375 -0.140625q1.828125 0 2.78125 0.78125q0.953125 0.78125 0.953125 2.078125q0 0.8125 -0.390625 1.46875q-0.390625 0.65625 -1.15625 0.921875q0.890625 0.25 1.328125 0.859375q0.4375 0.59375 0.4375 1.484375q0 1.5 -1.0625 2.265625q-1.0625 0.765625 -2.921875 0.765625z" fill-rule="nonzero"/><path fill="#ffffff" d="m720.55054 515.93097q-1.875 0 -2.90625 -0.875q-1.03125 -0.890625 -1.03125 -2.640625l0 -5.2812805l1.734375 0l0 5.3437805q0 1.0625 0.546875 1.5625q0.5625 0.5 1.65625 0.5q1.109375 0 1.671875 -0.5q0.5625 -0.5 0.5625 -1.5625l0 -7.9062805l1.71875 0l0 7.8437805q0 1.75 -1.03125 2.640625q-1.015625 0.875 -2.921875 0.875zm8.67041 0q-1.328125 0 -2.140625 -0.640625q-0.8125 -0.65625 -0.8125 -2.0q0 -1.28125 0.859375 -1.9687805q0.875 -0.703125 2.5 -0.703125l2.640625 0l0 -0.546875q0 -0.640625 -0.21875 -1.0q-0.203125 -0.375 -0.6875 -0.53125q-0.46875 -0.15625 -1.3125 -0.15625q-1.53125 0 -2.8125 0.421875l0 -1.34375q0.65625 -0.21875 1.46875 -0.34375q0.828125 -0.140625 1.625 -0.140625q1.890625 0 2.78125 0.796875q0.90625 0.78125 0.90625 2.46875l0 5.5312805l-1.75 0l0 -3.8125305l-2.53125 0q-0.921875 0 -1.359375 0.31253052q-0.4375 0.296875 -0.4375 1.015625q0 0.6875 0.390625 0.96875q0.40625 0.28125 1.34375 0.28125q0.640625 0 1.109375 -0.125l0 1.328125q-0.6875 0.1875 -1.5625 0.1875zm3.0508423 -12.7500305l1.734375 0l0 2.625l-1.734375 0l0 -2.625zm7.0 12.7500305q-0.96875 0 -1.875 -0.171875q-0.90625 -0.171875 -1.5625 -0.46875l0 -4.4375305l3.421875 0l0.078125 1.3281555l-1.8125 0l0 2.09375q0.734375 0.265625 1.75 0.265625q0.96875 0 1.515625 -0.296875q0.5625 -0.296875 0.8125 -0.953125q0.265625 -0.671875 0.265625 -1.7969055q0 -1.203125 -0.296875 -1.859375q-0.28125 -0.671875 -0.9375 -0.953125q-0.640625 -0.296875 -1.796875 -0.296875q-1.578125 0 -2.875 0.421875l0 -1.34375q0.671875 -0.234375 1.546875 -0.359375q0.875 -0.125 1.75 -0.125q2.234375 0 3.265625 1.125q1.03125 1.125 1.03125 3.390625q0 2.2187805 -1.03125 3.3281555q-1.03125 1.109375 -3.25 1.109375zm9.590637 0q-1.84375 0 -2.921875 -0.65625q-1.0625 -0.65625 -1.0625 -2.046875q0 -0.65625 0.3125 -1.15625q0.3125 -0.5000305 0.890625 -0.7969055q-0.53125 -0.1875 -0.84375 -0.65625q-0.3125 -0.46875 -0.3125 -1.140625q0 -1.203125 0.734375 -1.84375q0.734375 -0.65625 1.96875 -0.65625q0.8125 0 1.40625 0.203125l0 1.328125q-0.453125 -0.125 -1.078125 -0.125q-1.34375 0 -1.34375 1.09375q0 1.125 1.5 1.125l0.90625 0l0.078125 1.296875l-1.015625 0q-1.53125 0 -1.53125 1.3281555q0 0.65625 0.546875 0.984375q0.546875 0.328125 1.6875 0.328125q1.140625 0 1.6875 -0.453125q0.5625 -0.453125 0.5625 -1.390625l0 -5.5625305l1.734375 0l0 5.3594055q0 1.75 -0.984375 2.59375q-0.96875 0.84375 -2.921875 0.84375zm7.864563 -0.15625q-1.671875 0 -1.671875 -1.65625l0 -5.5312805q0 -1.71875 1.21875 -2.546875l-2.515625 0l0 -1.375l4.625 0l0 1.3125q-0.859375 0.34375 -1.234375 1.03125q-0.375 0.671875 -0.375 1.84375l0 4.8281555q0 0.4375 0.140625 0.578125q0.140625 0.140625 0.578125 0.140625l0.734375 0l0 1.375l-1.5 0zm2.440979 -8.6406555l1.703125 0l1.28125 6.1719055l1.578125 -4.9375305l0 -1.234375l1.25 0l1.734375 6.1719055l1.75 -8.7344055l1.6875 0l-2.46875 11.2031555l-1.609375 0l-1.59375 -5.5000305l-1.734375 5.5000305l-1.578125 0l-2.0 -8.6406555z" fill-rule="nonzero"/><path fill="#0f9d58" d="m646.9764 622.6496l14.748047 -58.992126l177.12598 0l-14.748047 58.992126z" fill-rule="evenodd"/><path fill="#ffffff" d="m688.3254 589.6698q-0.921875 0 -1.75 -0.125q-0.8125 -0.125 -1.3125 -0.328125l0 -1.75q0.578125 0.234375 1.3125 0.390625q0.734375 0.140625 1.34375 0.140625q1.09375 0 1.53125 -0.171875q0.453125 -0.171875 0.453125 -0.65625q0 -0.296875 -0.171875 -0.484375q-0.15625 -0.203125 -0.46875 -0.328125q-0.3125 -0.140625 -0.984375 -0.359375l-0.6875 -0.234375q-1.296875 -0.4375 -1.90625 -0.96875q-0.59375 -0.546875 -0.59375 -1.5q0 -1.1875 0.921875 -1.875q0.921875 -0.703125 2.671875 -0.703125q0.71875 0 1.484375 0.109375q0.765625 0.109375 1.25 0.265625l0 1.734375q-0.484375 -0.203125 -1.171875 -0.3125q-0.671875 -0.125 -1.25 -0.125q-0.875 0 -1.375 0.1875q-0.484375 0.1875 -0.484375 0.671875q0 0.359375 0.328125 0.5625q0.34375 0.1875 1.25 0.46875q0.296875 0.078125 0.734375 0.25q0.9375 0.3125 1.46875 0.65625q0.53125 0.328125 0.78125 0.796875q0.25 0.46875 0.25 1.1875q0 1.234375 -0.953125 1.875q-0.953125 0.625 -2.671875 0.625zm-0.81134033 -12.53125l1.765625 0l0 1.078125l3.984375 0l-0.078125 1.46875l-5.671875 0l0 -2.546875zm10.0625 12.53125q-1.953125 0 -3.046875 -0.921875q-1.078125 -0.921875 -1.078125 -2.703125l0 -5.171875l2.171875 0l0 5.203125q0 0.96875 0.484375 1.453125q0.484375 0.46875 1.46875 0.46875q0.96875 0 1.453125 -0.46875q0.484375 -0.484375 0.484375 -1.453125l0 -5.203125l2.171875 0l0 5.171875q0 1.78125 -1.09375 2.703125q-1.078125 0.921875 -3.015625 0.921875zm6.0030518 -5.515625q0 -1.625 1.0 -2.53125q1.0 -0.90625 3.078125 -0.90625q2.09375 0 3.078125 0.90625q1.0 0.90625 1.0 2.53125l0 5.359375l-2.171875 0l0 -5.515625q0 -0.78125 -0.5 -1.1875q-0.5 -0.421875 -1.40625 -0.421875q-0.9375 0 -1.421875 0.421875q-0.484375 0.40625 -0.484375 1.1875l0 1.546875q0.671875 -0.515625 1.5 -0.515625l1.03125 0l0.078125 1.71875l-1.15625 0q-0.84375 0 -1.453125 0.46875l0 2.296875l-2.171875 0l0 -5.359375zm5.9854736 -7.109375l2.171875 0l0 2.640625l-2.171875 0l0 -2.640625zm7.125 7.15625q0 -0.921875 -0.359375 -1.359375q-0.359375 -0.453125 -1.328125 -0.453125q-0.5 0 -1.09375 0.125q-0.59375 0.109375 -1.078125 0.296875l0 -1.578125q0.5 -0.234375 1.203125 -0.375q0.703125 -0.140625 1.390625 -0.140625q1.8125 0 2.609375 0.765625q0.8125 0.765625 0.8125 2.421875l0 5.609375l-2.15625 0l0 -5.3125zm9.817566 -4.984375l4.328125 0q2.359375 0 3.515625 1.21875q1.15625 1.21875 1.15625 3.96875q0 2.625 -1.15625 3.875q-1.15625 1.234375 -3.515625 1.234375l-4.328125 0l0 -10.296875zm4.015625 8.640625q0.984375 0 1.578125 -0.28125q0.59375 -0.296875 0.90625 -1.046875q0.3125 -0.765625 0.3125 -2.125q0 -1.375 -0.28125 -2.109375q-0.28125 -0.734375 -0.875 -1.015625q-0.59375 -0.28125 -1.640625 -0.28125l-1.84375 0l0 6.859375l1.84375 0zm9.953491 1.8125q-2.015625 0 -3.140625 -1.0q-1.125 -1.0 -1.125 -2.96875q0 -1.84375 0.984375 -2.890625q0.984375 -1.046875 2.875 -1.046875q1.71875 0 2.671875 0.90625q0.953125 0.90625 0.953125 2.421875l0 1.375l-5.484375 0q0.15625 0.890625 0.796875 1.25q0.65625 0.34375 1.921875 0.34375q0.609375 0 1.234375 -0.109375q0.640625 -0.125 1.078125 -0.296875l0 1.546875q-1.046875 0.46875 -2.765625 0.46875zm1.328125 -4.53125l0 -0.40625q0 -1.40625 -1.671875 -1.40625q-1.0625 0 -1.5 0.421875q-0.421875 0.421875 -0.421875 1.390625l3.59375 0zm5.515747 4.53125q-1.109375 0 -1.625 -0.5q-0.5 -0.515625 -0.5 -1.640625l0 -8.796875l2.171875 0l0 8.625q0 0.390625 0.140625 0.546875q0.15625 0.15625 0.484375 0.15625q0.40625 0 0.75 -0.109375l0 1.484375q-0.34375 0.125 -0.671875 0.171875q-0.3125 0.0625 -0.75 0.0625zm4.3136597 0q-1.15625 0 -1.9375 -0.609375q-0.765625 -0.625 -0.765625 -1.734375q0 -1.140625 0.796875 -1.796875q0.8125 -0.671875 2.34375 -0.671875l2.234375 0l0 -0.203125q0 -0.484375 -0.171875 -0.75q-0.171875 -0.28125 -0.59375 -0.40625q-0.421875 -0.125 -1.203125 -0.125q-1.296875 0 -2.5 0.390625l0 -1.515625q0.5625 -0.21875 1.3125 -0.34375q0.765625 -0.140625 1.640625 -0.140625q3.578125 0 3.578125 2.9375l0 4.8125l-1.875 0l-0.109375 -0.6875q-0.921875 0.84375 -2.75 0.84375zm0.59375 -1.421875q0.6875 0 1.21875 -0.234375q0.53125 -0.234375 0.859375 -0.609375l0 -1.203125l-2.1875 0q-1.265625 0 -1.265625 1.046875q0 1.0 1.375 1.0zm7.143982 4.078125q-0.984375 0 -1.625 -0.25l0 -1.515625q0.453125 0.15625 0.96875 0.15625q0.640625 0 1.0 -0.296875q0.359375 -0.28125 0.75 -1.03125l-3.390625 -7.453125l2.25 0l2.234375 5.140625l2.203125 -5.140625l2.234375 0l-2.984375 7.046875q-0.703125 1.6875 -1.53125 2.515625q-0.8125 0.828125 -2.109375 0.828125zm16.30243 -2.65625q-0.75 0 -1.59375 -0.125q-0.84375 -0.125 -1.390625 -0.375l0 -1.859375q0.546875 0.234375 1.296875 0.375q0.75 0.125 1.390625 0.125q1.125 0 1.640625 -0.359375q0.515625 -0.359375 0.515625 -1.1875q0 -0.78125 -0.390625 -1.109375q-0.375 -0.34375 -1.390625 -0.34375l-3.109375 0l0 -1.21875l0.265625 -4.375l6.125 0l-0.15625 1.65625l-4.125 0l-0.140625 2.265625l1.546875 0q1.84375 0 2.703125 0.8125q0.875 0.796875 0.875 2.390625q0 1.5625 -1.046875 2.453125q-1.03125 0.875 -3.015625 0.875zm9.913025 0.265625q-2.46875 0 -3.5625 -1.375q-1.09375 -1.390625 -1.09375 -4.078125q0 -2.6875 1.09375 -4.0625q1.09375 -1.375 3.5625 -1.375q2.46875 0 3.5625 1.375q1.09375 1.375 1.09375 4.0625q0 2.6875 -1.09375 4.078125q-1.09375 1.375 -3.5625 1.375zm0 -1.859375q1.34375 0 1.90625 -0.890625q0.5625 -0.890625 0.5625 -2.703125q0 -1.796875 -0.5625 -2.6875q-0.5625 -0.890625 -1.90625 -0.890625q-1.34375 0 -1.90625 0.890625q-0.5625 0.890625 -0.5625 2.6875q0 1.8125 0.5625 2.703125q0.5625 0.890625 1.90625 0.890625zm10.495972 1.859375q-2.46875 0 -3.5625 -1.375q-1.09375 -1.390625 -1.09375 -4.078125q0 -2.6875 1.09375 -4.0625q1.09375 -1.375 3.5625 -1.375q2.46875 0 3.5625 1.375q1.09375 1.375 1.09375 4.0625q0 2.6875 -1.09375 4.078125q-1.09375 1.375 -3.5625 1.375zm0 -1.859375q1.34375 0 1.90625 -0.890625q0.5625 -0.890625 0.5625 -2.703125q0 -1.796875 -0.5625 -2.6875q-0.5625 -0.890625 -1.90625 -0.890625q-1.34375 0 -1.90625 0.890625q-0.5625 0.890625 -0.5625 2.6875q0 1.8125 0.5625 2.703125q0.5625 0.890625 1.90625 0.890625z" fill-rule="nonzero"/><path fill="#ffffff" d="m733.1876 600.9354l2.0 0l0.078125 0.734375q1.1875 -0.90625 2.59375 -0.90625q0.78125 0 1.21875 0.234375q0.453125 0.234375 0.703125 0.703125q0.578125 -0.453125 1.25 -0.6875q0.6875 -0.25 1.5625 -0.25q1.3125 0 1.9375 0.6875q0.625 0.671875 0.625 2.078125l0 4.984375l-2.125 0l0 -4.75q0 -0.734375 -0.328125 -1.0625q-0.3125 -0.34375 -1.015625 -0.34375q-0.453125 0 -0.875 0.1875q-0.421875 0.171875 -0.71875 0.5q0.078125 0.265625 0.078125 0.65625l0 4.8125l-2.015625 0l0 -4.75q0 -0.734375 -0.265625 -1.0625q-0.25 -0.34375 -0.90625 -0.34375q-0.8125 0 -1.65625 0.8125l0 5.34375l-2.140625 0l0 -7.578125zm16.399902 7.734375q-0.828125 0 -1.59375 -0.109375q-0.765625 -0.109375 -1.25 -0.296875l0 -1.796875q0.53125 0.21875 1.234375 0.34375q0.703125 0.125 1.328125 0.125q0.828125 0 1.140625 -0.109375q0.3125 -0.109375 0.3125 -0.421875q0 -0.296875 -0.296875 -0.453125q-0.28125 -0.15625 -1.09375 -0.40625q-0.234375 -0.078125 -0.609375 -0.203125q-1.125 -0.359375 -1.640625 -0.875q-0.515625 -0.515625 -0.515625 -1.4375q0 -1.109375 0.796875 -1.6875q0.8125 -0.578125 2.546875 -0.578125q0.65625 0 1.28125 0.109375q0.640625 0.09375 1.09375 0.25l0 1.78125q-0.40625 -0.203125 -0.96875 -0.3125q-0.5625 -0.109375 -1.0625 -0.109375q-0.765625 0 -1.140625 0.109375q-0.359375 0.09375 -0.359375 0.40625q0 0.265625 0.265625 0.40625q0.265625 0.140625 1.015625 0.359375l0.53125 0.15625q0.921875 0.296875 1.421875 0.609375q0.5 0.296875 0.703125 0.734375q0.21875 0.4375 0.21875 1.109375q0 1.125 -0.84375 1.71875q-0.84375 0.578125 -2.515625 0.578125z" fill-rule="nonzero"/><path fill="#cc0000" d="m708.071 656.3989l69.67786 0l0 0c9.127991 0 16.52771 7.6654663 16.52771 17.121277c0 9.455811 -7.399719 17.121277 -16.52771 17.121277l-69.67786 0l0 0c-9.127991 0 -16.527649 -7.6654663 -16.527649 -17.121277c0 -9.455811 7.399658 -17.121277 16.527649 -17.121277z" fill-rule="evenodd"/><path fill="#ffffff" d="m737.843 679.53644q-0.34375 0 -0.75 -0.0625q-0.390625 -0.046875 -0.625 -0.140625l-1.28125 -3.40625l-1.109375 0l0.078125 -1.3125l2.125 0l1.328125 3.546875q1.140625 0.046875 1.828125 -0.71875q0.6875 -0.765625 0.6875 -2.46875q0 -1.125 -0.296875 -1.765625q-0.296875 -0.65625 -0.96875 -0.9375q-0.671875 -0.28125 -1.859375 -0.28125q-1.46875 0 -2.734375 0.421875l0 -1.34375q1.515625 -0.484375 3.203125 -0.484375q2.234375 0 3.28125 1.109375q1.0625 1.109375 1.0625 3.28125q0 1.453125 -0.546875 2.484375q-0.53125 1.03125 -1.4375 1.5625q-0.90625 0.515625 -1.984375 0.515625zm9.604004 0q-1.875 0 -2.90625 -0.875q-1.03125 -0.890625 -1.03125 -2.640625l0 -5.28125l1.734375 0l0 5.34375q0 1.0625 0.546875 1.5625q0.5625 0.5 1.65625 0.5q1.109375 0 1.671875 -0.5q0.5625 -0.5 0.5625 -1.5625l0 -5.34375l1.71875 0l0 5.28125q0 1.75 -1.03125 2.640625q-1.015625 0.875 -2.921875 0.875z" fill-rule="nonzero"/><path fill="#000000" fill-opacity="0.0" d="m742.91205 158.95013l0 33.76378" fill-rule="evenodd"/><path stroke="#000000" stroke-width="1.0" stroke-linejoin="round" stroke-linecap="butt" d="m742.91205 158.95013l0 27.763779" fill-rule="evenodd"/><path fill="#000000" stroke="#000000" stroke-width="1.0" stroke-linecap="butt" d="m741.2603 186.71391l1.6517334 4.538101l1.6517334 -4.538101z" fill-rule="evenodd"/><path fill="#000000" fill-opacity="0.0" d="m742.91205 251.69029l0 33.732285" fill-rule="evenodd"/><path stroke="#000000" stroke-width="1.0" stroke-linejoin="round" stroke-linecap="butt" d="m742.91205 251.69029l0 27.732285" fill-rule="evenodd"/><path fill="#000000" stroke="#000000" stroke-width="1.0" stroke-linecap="butt" d="m741.2603 279.42258l1.6517334 4.538086l1.6517334 -4.538086z" fill-rule="evenodd"/><path fill="#000000" fill-opacity="0.0" d="m742.9094 437.1706l0 33.763794" fill-rule="evenodd"/><path stroke="#000000" stroke-width="1.0" stroke-linejoin="round" stroke-linecap="butt" d="m742.9094 437.1706l0 27.763794" fill-rule="evenodd"/><path fill="#000000" stroke="#000000" stroke-width="1.0" stroke-linecap="butt" d="m741.2577 464.9344l1.6517334 4.538086l1.6517334 -4.538086z" fill-rule="evenodd"/><path fill="#000000" fill-opacity="0.0" d="m742.9094 529.91077l0 33.7323" fill-rule="evenodd"/><path stroke="#000000" stroke-width="1.0" stroke-linejoin="round" stroke-linecap="butt" d="m742.9094 529.91077l0 27.7323" fill-rule="evenodd"/><path fill="#000000" stroke="#000000" stroke-width="1.0" stroke-linecap="butt" d="m741.2577 557.64307l1.6517334 4.538086l1.6517334 -4.538086z" fill-rule="evenodd"/><path fill="#000000" fill-opacity="0.0" d="m742.9134 622.6496l0 33.763794" fill-rule="evenodd"/><path stroke="#000000" stroke-width="1.0" stroke-linejoin="round" stroke-linecap="butt" d="m742.9134 622.6496l0 27.763794" fill-rule="evenodd"/><path fill="#000000" stroke="#000000" stroke-width="1.0" stroke-linecap="butt" d="m741.26166 650.4134l1.6517334 4.538086l1.6517334 -4.538086z" fill-rule="evenodd"/><path fill="#000000" fill-opacity="0.0" d="m742.91205 344.42914l0 33.763763" fill-rule="evenodd"/><path stroke="#000000" stroke-width="1.0" stroke-linejoin="round" stroke-linecap="butt" d="m742.91205 344.42914l0 27.763763" fill-rule="evenodd"/><path fill="#000000" stroke="#000000" stroke-width="1.0" stroke-linecap="butt" d="m741.2603 372.1929l1.6517334 4.5381165l1.6517334 -4.5381165z" fill-rule="evenodd"/></g></svg>