<svg version="1.1" viewBox="0.0 0.0 960.0 720.0" fill="none" stroke="none" stroke-linecap="square" stroke-miterlimit="10" xmlns:xlink="http://www.w3.org/1999/xlink" xmlns="http://www.w3.org/2000/svg"><clipPath id="p.0"><path d="m0 0l960.0 0l0 720.0l-960.0 0l0 -720.0z" clip-rule="nonzero"/></clipPath><g clip-path="url(#p.0)"><path fill="#000000" fill-opacity="0.0" d="m0 0l960.0 0l0 720.0l-960.0 0z" fill-rule="evenodd"/><path fill="#0f9d58" d="m728.8794 153.92914l13.622009 -54.48819l191.51184 0l-13.62207 54.48819z" fill-rule="evenodd"/><path fill="#ffffff" d="m787.09644 122.24816l4.84375 0q1.734375 0 2.625 0.96875q0.90625 0.96875 0.90625 2.578125q0 1.03125 -0.4375 1.84375q-0.4375 0.7968826 -1.265625 1.2343826q-0.8125 0.4375 -1.890625 0.4375l-2.609375 0l0 3.234375l-2.171875 0l0 -10.296883zm4.328125 5.359375q0.90625 0 1.390625 -0.484375q0.484375 -0.484375 0.484375 -1.328125q0 -0.890625 -0.453125 -1.359375q-0.453125 -0.484375 -1.34375 -0.484375l-2.234375 0l0 3.65625l2.15625 0zm5.808655 -5.734375l2.34375 0l0 1.703125l-2.34375 0l0 -1.703125zm0.171875 4.6875l-1.140625 0l0.203125 -1.59375l3.09375 0l0 7.5781326l-2.15625 0l0 -5.9843826zm3.9954224 -1.59375l2.0 0l0.078125 0.71875q0.515625 -0.390625 1.21875 -0.640625q0.703125 -0.25 1.453125 -0.25q1.5 0 2.1875 0.703125q0.703125 0.6875 0.703125 2.1875l0 4.8593826l-2.15625 0l0 -4.7500076q0 -0.78125 -0.328125 -1.09375q-0.3125 -0.3125 -1.15625 -0.3125q-0.484375 0 -0.984375 0.21875q-0.5 0.203125 -0.84375 0.5625l0 5.3750076l-2.171875 0l0 -7.5781326zm14.839478 6.5312576q0.375 -0.828125 1.0 -1.515625q0.625 -0.703125 1.671875 -1.625l0.421875 -0.37500763q0.75 -0.6875 1.0625 -1.015625q0.3125 -0.328125 0.4375 -0.671875q0.140625 -0.34375 0.140625 -0.875q0 -0.734375 -0.484375 -1.109375q-0.46875 -0.375 -1.40625 -0.375q-1.234375 0 -2.484375 0.5l0 -1.90625q0.59375 -0.203125 1.40625 -0.328125q0.8125 -0.125 1.5625 -0.125q1.765625 0 2.671875 0.875q0.921875 0.875 0.921875 2.421875q0 0.984375 -0.46875 1.71875q-0.453125 0.734375 -1.40625 1.5468826l-0.25 0.21875q-0.71875 0.625 -1.1875 1.09375q-0.46875 0.453125 -0.796875 0.9375l4.203125 0l0 1.65625l-7.015625 0l0 -1.046875zm8.208069 -4.1406326l6.171875 0l0 1.6875076l-6.171875 0l0 -1.6875076zm11.922485 -3.453125l-4.71875 0l0 -1.65625l7.078125 0l0 1.328125l-3.78125 8.968758l-2.25 0l3.671875 -8.640633zm11.603027 8.640633q-1.03125 0 -1.46875 -0.421875q-0.421875 -0.421875 -0.421875 -1.375l0 -5.2812576q0 -1.609375 1.046875 -2.34375l-2.3125 0l0 -1.6875l4.921875 0l0 1.578125q-0.796875 0.28125 -1.15625 0.90625q-0.34375 0.609375 -0.34375 1.65625l0 4.6093826q0 0.671875 0.65625 0.671875l0.546875 0l0 1.6875l-1.46875 0zm2.3342896 -8.640633l2.078125 0l1.125 5.5468826l1.3125 -4.1718826l0 -1.375l1.515625 0l1.53125 5.5468826l1.515625 -8.109383l2.0625 0l-2.421875 11.203133l-1.875 0l-1.421875 -4.9375076l-1.546875 4.9375076l-1.859375 0l-2.015625 -8.640633zm15.365601 8.796883q-1.640625 0 -2.625 -1.0625q-0.984375 -1.0625 -0.984375 -3.234375q0 -2.2656326 0.78125 -3.4531326q0.796875 -1.203125 2.203125 -1.203125q0.640625 0 1.046875 0.203125q0.40625 0.203125 0.671875 0.609375q0.3125 -0.375 0.875 -0.59375q0.578125 -0.21875 1.171875 -0.21875q1.09375 0 1.640625 0.671875q0.5625 0.671875 0.5625 1.828125l0 6.2968826l-2.15625 0l0 -5.9687576q0 -0.59375 -0.15625 -0.875q-0.15625 -0.28125 -0.578125 -0.28125q-0.296875 0 -0.53125 0.1875q-0.21875 0.1875 -0.3125 0.546875l-1.046875 0q-0.171875 -0.390625 -0.359375 -0.5625q-0.171875 -0.171875 -0.484375 -0.171875q-0.71875 0 -1.0 0.765625q-0.28125 0.765625 -0.28125 2.2187576q0 1.40625 0.484375 2.015625q0.484375 0.609375 1.46875 0.609375q0.734375 0 1.109375 -0.125l0 1.578125q-0.59375 0.21875 -1.5 0.21875zm-1.5340576 -11.453133l6.890625 0l0 1.46875l-7.0 0l0.109375 -1.46875zm12.078125 11.453133q-1.640625 0 -2.625 -1.0625q-0.984375 -1.0625 -0.984375 -3.234375q0 -2.2343826 1.140625 -3.4375076q1.15625 -1.21875 3.375 -1.21875q1.46875 0 2.453125 0.5q0.984375 0.484375 1.4375 1.3125q0.453125 0.8125 0.453125 1.765625l0 5.2187576l-2.15625 0l0 -5.0781326q0 -0.96875 -0.515625 -1.5q-0.5 -0.546875 -1.703125 -0.546875q-2.4375 0 -2.4375 2.9843826q0 1.40625 0.484375 2.015625q0.484375 0.609375 1.46875 0.609375q0.734375 0 1.109375 -0.125l0 1.578125q-0.59375 0.21875 -1.5 0.21875z" fill-rule="nonzero"/><path fill="#cc0000" d="m108.04267 20.72441l97.32444 0l0 0c12.749771 0 23.085495 9.58308 23.085495 21.40441c0 11.821331 -10.335724 21.404411 -23.085495 21.404411l-97.32444 0l0 0c-12.749771 0 -23.085495 -9.58308 -23.085495 -21.404411c0 -11.821329 10.335724 -21.40441 23.085495 -21.40441z" fill-rule="evenodd"/><path fill="#ffffff" d="m143.82985 48.14507q-2.0 0 -3.21875 -0.515625l0 -1.53125q1.5 0.578125 3.0625 0.578125q1.296875 0 1.875 -0.296875q0.59375 -0.3125 0.59375 -1.140625q0 -0.53125 -0.25 -0.84375q-0.25 -0.3125 -0.8125 -0.53125q-0.5625 -0.234375 -1.671875 -0.515625q-1.671875 -0.4375 -2.34375 -1.09375q-0.671875 -0.671875 -0.671875 -1.828125q0 -1.375 1.0 -2.140625q1.015625 -0.765625 2.953125 -0.765625q0.84375 0 1.640625 0.125q0.796875 0.125 1.28125 0.296875l0 1.53125q-1.203125 -0.453125 -2.6875 -0.453125q-1.21875 0 -1.828125 0.3125q-0.59375 0.3125 -0.59375 1.09375q0 0.453125 0.21875 0.734375q0.21875 0.28125 0.734375 0.5q0.53125 0.21875 1.5625 0.46875q1.8125 0.46875 2.515625 1.203125q0.703125 0.734375 0.703125 1.90625q0 1.375 -1.03125 2.140625q-1.03125 0.765625 -3.03125 0.765625zm8.101273 0q-1.203125 0 -1.8125 -0.625q-0.609375 -0.640625 -0.609375 -1.78125l0 -3.96875l-1.109375 0l0 -1.359375l1.109375 0l0 -1.75l1.734375 -0.53125l0 2.28125l2.015625 0l-0.109375 1.359375l-1.90625 0l0 3.859375q0 0.65625 0.296875 0.921875q0.296875 0.265625 1.0 0.265625q0.421875 0 0.90625 -0.15625l0 1.234375q-0.625 0.25 -1.515625 0.25zm4.7167664 0q-1.15625 0 -1.921875 -0.59375q-0.765625 -0.609375 -0.765625 -1.71875q0 -1.125 0.75 -1.765625q0.765625 -0.65625 2.296875 -0.65625l2.421875 0l0 -0.328125q0 -0.5625 -0.171875 -0.875q-0.15625 -0.3125 -0.609375 -0.453125q-0.453125 -0.15625 -1.28125 -0.15625q-1.34375 0 -2.515625 0.40625l0 -1.296875q0.546875 -0.203125 1.28125 -0.328125q0.734375 -0.140625 1.5625 -0.140625q1.6875 0 2.546875 0.6875q0.859375 0.6875 0.859375 2.1875l0 4.875l-1.484375 0l-0.125 -0.765625q-0.46875 0.46875 -1.15625 0.703125q-0.6875 0.21875 -1.6875 0.21875zm0.46875 -1.25q0.75 0 1.34375 -0.25q0.59375 -0.25 0.96875 -0.71875l0 -1.328125l-2.390625 0q-0.78125 0 -1.125 0.296875q-0.34375 0.28125 -0.34375 0.90625q0 0.578125 0.390625 0.84375q0.390625 0.25 1.15625 0.25zm5.923889 -6.484375l1.59375 0l0.09375 0.875q0.546875 -0.359375 1.296875 -0.640625q0.75 -0.28125 1.484375 -0.40625l0 1.328125q-0.6875 0.140625 -1.484375 0.40625q-0.796875 0.25 -1.25 0.546875l0 5.46875l-1.734375 0l0 -7.578125zm8.762634 7.734375q-1.203125 0 -1.8125 -0.625q-0.609375 -0.640625 -0.609375 -1.78125l0 -3.96875l-1.109375 0l0 -1.359375l1.109375 0l0 -1.75l1.734375 -0.53125l0 2.28125l2.015625 0l-0.109375 1.359375l-1.90625 0l0 3.859375q0 0.65625 0.296875 0.921875q0.296875 0.265625 1.0 0.265625q0.421875 0 0.90625 -0.15625l0 1.234375q-0.625 0.25 -1.515625 0.25z" fill-rule="nonzero"/><path fill="#4a86e8" d="m56.986595 99.44971l199.43451 0l0 73.74153l-199.43451 0z" fill-rule="evenodd"/><path fill="#000000" fill-opacity="0.0" d="m81.91591 99.44971l0 73.74153m149.57588 -73.74153l0 73.74153" fill-rule="evenodd"/><path fill="#000000" fill-opacity="0.0" d="m56.986595 99.44971l199.43451 0l0 73.74153l-199.43451 0z" fill-rule="evenodd"/><path stroke="#ffffff" stroke-width="3.0" stroke-linejoin="round" stroke-linecap="butt" d="m81.91591 99.44971l0 73.74153m149.57588 -73.74153l0 73.74153" fill-rule="evenodd"/><path stroke="#ffffff" stroke-width="3.0" stroke-linejoin="round" stroke-linecap="butt" d="m56.986595 99.44971l199.43451 0l0 73.74153l-199.43451 0z" fill-rule="evenodd"/><path fill="#ffffff" d="m132.08305 142.33672q-0.765625 0 -1.484375 -0.109375q-0.71875 -0.09375 -1.1875 -0.265625l0 -1.484375q0.53125 0.21875 1.171875 0.328125q0.65625 0.109375 1.28125 0.109375q0.921875 0 1.28125 -0.15625q0.375 -0.15625 0.375 -0.625q0 -0.421875 -0.34375 -0.609375q-0.328125 -0.203125 -1.25 -0.5l-0.484375 -0.15625q-1.140625 -0.390625 -1.671875 -0.859375q-0.53125 -0.46875 -0.53125 -1.390625q0 -1.078125 0.765625 -1.625q0.765625 -0.5625 2.40625 -0.5625q0.625 0 1.21875 0.109375q0.609375 0.09375 1.03125 0.234375l0 1.453125q-0.421875 -0.171875 -0.96875 -0.265625q-0.53125 -0.09375 -1.015625 -0.09375q-0.875 0 -1.28125 0.15625q-0.390625 0.140625 -0.390625 0.5625q0 0.359375 0.296875 0.546875q0.3125 0.1875 1.203125 0.46875l0.34375 0.109375q0.9375 0.296875 1.4375 0.59375q0.515625 0.296875 0.75 0.71875q0.234375 0.421875 0.234375 1.09375q0 2.21875 -3.1875 2.21875zm8.736511 0q-2.015625 0 -3.09375 -0.984375q-1.0625 -1.0 -1.0625 -2.984375q0 -1.875 0.9375 -2.90625q0.953125 -1.03125 2.8125 -1.03125q1.671875 0 2.5625 0.890625q0.90625 0.875 0.90625 2.34375l0 1.40625l-5.546875 0q0.125 1.09375 0.78125 1.515625q0.65625 0.421875 2.0625 0.421875q0.578125 0 1.171875 -0.109375q0.59375 -0.109375 1.0625 -0.28125l0 1.28125q-1.0 0.4375 -2.59375 0.4375zm1.53125 -4.390625l0 -0.53125q0 -0.8125 -0.453125 -1.234375q-0.453125 -0.4375 -1.4375 -0.4375q-1.1875 0 -1.65625 0.515625q-0.46875 0.515625 -0.46875 1.6875l4.015625 0zm6.1232605 4.390625q-1.203125 0 -1.8125 -0.625q-0.609375 -0.640625 -0.609375 -1.78125l0 -3.96875l-1.109375 0l0 -1.359375l1.109375 0l0 -1.75l1.734375 -0.53125l0 2.28125l2.015625 0l-0.109375 1.359375l-1.90625 0l0 3.859375q0 0.65625 0.296875 0.921875q0.296875 0.265625 1.0 0.265625q0.421875 0 0.90625 -0.15625l0 1.234375q-0.625 0.25 -1.515625 0.25zm5.25177 0q-1.359375 0 -2.09375 -0.75q-0.734375 -0.765625 -0.734375 -2.203125l0 -4.78125l1.75 0l0 4.78125q0 0.84375 0.40625 1.25q0.421875 0.390625 1.296875 0.390625q0.609375 0 1.15625 -0.21875q0.546875 -0.234375 0.96875 -0.65625l0 -5.546875l1.71875 0l0 7.578125l-1.578125 0l-0.078125 -0.78125q-1.203125 0.9375 -2.8125 0.9375zm6.5136414 -7.734375l1.5 0l0.09375 0.75q0.53125 -0.46875 1.140625 -0.6875q0.609375 -0.234375 1.421875 -0.234375q1.6875 0 2.5625 0.921875q0.890625 0.90625 0.890625 2.90625q0 2.015625 -0.9375 3.046875q-0.921875 1.03125 -2.578125 1.03125q-1.375 0 -2.359375 -0.640625l0 3.9375l-1.734375 0l0 -11.03125zm3.640625 6.421875q1.125 0 1.65625 -0.6875q0.546875 -0.6875 0.546875 -2.09375q0 -1.34375 -0.5 -1.90625q-0.484375 -0.578125 -1.65625 -0.578125q-1.171875 0 -1.953125 0.8125l0 3.78125q0.765625 0.671875 1.90625 0.671875zm13.419525 2.3125q-1.109375 -0.984375 -1.640625 -2.59375q-0.515625 -1.609375 -0.515625 -3.40625q0 -1.8125 0.515625 -3.40625q0.53125 -1.609375 1.640625 -2.59375l1.96875 0q-2.359375 2.046875 -2.359375 6.0q0 3.953125 2.359375 6.0l-1.96875 0zm2.7312622 0q1.234375 -1.078125 1.796875 -2.578125q0.5625 -1.5 0.5625 -3.421875q0 -3.96875 -2.359375 -6.0l1.984375 0q1.09375 0.984375 1.609375 2.59375q0.53125 1.609375 0.53125 3.40625q0 1.796875 -0.53125 3.40625q-0.515625 1.609375 -1.609375 2.59375l-1.984375 0z" fill-rule="nonzero"/><path fill="#4a86e8" d="m56.98843 206.398l199.43451 0l0 73.74153l-199.43451 0z" fill-rule="evenodd"/><path fill="#000000" fill-opacity="0.0" d="m81.91774 206.398l0 73.74153m149.57588 -73.74153l0 73.74153" fill-rule="evenodd"/><path fill="#000000" fill-opacity="0.0" d="m56.98843 206.398l199.43451 0l0 73.74153l-199.43451 0z" fill-rule="evenodd"/><path stroke="#ffffff" stroke-width="3.0" stroke-linejoin="round" stroke-linecap="butt" d="m81.91774 206.398l0 73.74153m149.57588 -73.74153l0 73.74153" fill-rule="evenodd"/><path stroke="#ffffff" stroke-width="3.0" stroke-linejoin="round" stroke-linecap="butt" d="m56.98843 206.398l199.43451 0l0 73.74153l-199.43451 0z" fill-rule="evenodd"/><path fill="#ffffff" d="m135.80426 249.28502q-0.953125 0 -1.421875 -0.453125q-0.453125 -0.46875 -0.453125 -1.515625l0 -8.96875l1.734375 0l0 8.8125q0 0.4375 0.15625 0.609375q0.15625 0.15625 0.484375 0.15625q0.390625 0 0.734375 -0.09375l0 1.265625q-0.53125 0.1875 -1.234375 0.1875zm5.51001 0q-3.953125 0 -3.953125 -3.953125q0 -3.953125 3.953125 -3.953125q3.96875 0 3.96875 3.953125q0 3.953125 -3.96875 3.953125zm0 -1.46875q1.203125 0 1.703125 -0.578125q0.5 -0.578125 0.5 -1.90625q0 -1.3125 -0.5 -1.875q-0.5 -0.578125 -1.703125 -0.578125q-1.1875 0 -1.6875 0.578125q-0.5 0.5625 -0.5 1.875q0 1.328125 0.5 1.90625q0.5 0.578125 1.6875 0.578125zm8.896027 1.46875q-3.953125 0 -3.953125 -3.953125q0 -3.953125 3.953125 -3.953125q3.96875 0 3.96875 3.953125q0 3.953125 -3.96875 3.953125zm0 -1.46875q1.203125 0 1.703125 -0.578125q0.5 -0.578125 0.5 -1.90625q0 -1.3125 -0.5 -1.875q-0.5 -0.578125 -1.703125 -0.578125q-1.1875 0 -1.6875 0.578125q-0.5 0.5625 -0.5 1.875q0 1.328125 0.5 1.90625q0.5 0.578125 1.6875 0.578125zm5.6710205 -6.265625l1.5 0l0.09375 0.75q0.53125 -0.46875 1.140625 -0.6875q0.609375 -0.234375 1.421875 -0.234375q1.6875 0 2.5625 0.921875q0.890625 0.90625 0.890625 2.90625q0 2.015625 -0.9375 3.046875q-0.921875 1.03125 -2.578125 1.03125q-1.375 0 -2.359375 -0.640625l0 3.9375l-1.734375 0l0 -11.03125zm3.640625 6.421875q1.125 0 1.65625 -0.6875q0.546875 -0.6875 0.546875 -2.09375q0 -1.34375 -0.5 -1.90625q-0.484375 -0.578125 -1.65625 -0.578125q-1.171875 0 -1.953125 0.8125l0 3.78125q0.765625 0.671875 1.90625 0.671875zm13.419525 2.3125q-1.109375 -0.984375 -1.640625 -2.59375q-0.515625 -1.609375 -0.515625 -3.40625q0 -1.8125 0.515625 -3.40625q0.53125 -1.609375 1.640625 -2.59375l1.96875 0q-2.359375 2.046875 -2.359375 6.0q0 3.953125 2.359375 6.0l-1.96875 0zm2.7312622 0q1.234375 -1.078125 1.796875 -2.578125q0.5625 -1.5 0.5625 -3.421875q0 -3.96875 -2.359375 -6.0l1.984375 0q1.09375 0.984375 1.609375 2.59375q0.53125 1.609375 0.53125 3.40625q0 1.796875 -0.53125 3.40625q-0.515625 1.609375 -1.609375 2.59375l-1.984375 0z" fill-rule="nonzero"/><path fill="#000000" fill-opacity="0.0" d="m156.7049 63.53323l0 35.905514" fill-rule="evenodd"/><path stroke="#000000" stroke-width="1.0" stroke-linejoin="round" stroke-linecap="butt" d="m156.7049 63.53323l0 29.905514" fill-rule="evenodd"/><path fill="#000000" stroke="#000000" stroke-width="1.0" stroke-linecap="butt" d="m155.05316 93.43874l1.6517334 4.5380936l1.6517334 -4.5380936z" fill-rule="evenodd"/><path fill="#000000" fill-opacity="0.0" d="m156.70384 173.19124l0 33.196854" fill-rule="evenodd"/><path stroke="#000000" stroke-width="1.0" stroke-linejoin="round" stroke-linecap="butt" d="m156.70386 173.19124l0 27.196838" fill-rule="evenodd"/><path fill="#000000" stroke="#000000" stroke-width="1.0" stroke-linecap="butt" d="m155.05212 200.38808l1.6517334 4.538101l1.6517334 -4.538101z" fill-rule="evenodd"/><path fill="#000000" fill-opacity="0.0" d="m156.70569 280.13953l0 31.27658l-134.61534 0l0 -68.15846l34.898796 0" fill-rule="evenodd"/><path stroke="#000000" stroke-width="1.0" stroke-linejoin="round" stroke-linecap="butt" d="m156.70567 280.13953l0 31.27658l-134.61533 0l0 -68.15846l28.898794 0" fill-rule="evenodd"/><path fill="#000000" stroke="#000000" stroke-width="1.0" stroke-linecap="butt" d="m50.989147 244.90938l4.5380974 -1.6517334l-4.5380974 -1.6517334z" fill-rule="evenodd"/><path fill="#cc0000" d="m394.1307 20.727034l97.32446 0l0 0c12.749756 0 23.08548 9.58308 23.08548 21.40441c0 11.821331 -10.335724 21.404411 -23.08548 21.404411l-97.32446 0l0 0c-12.749756 0 -23.08548 -9.58308 -23.08548 -21.404411c0 -11.821329 10.335724 -21.40441 23.08548 -21.40441z" fill-rule="evenodd"/><path fill="#ffffff" d="m418.17215 48.147694q-0.765625 0 -1.484375 -0.109375q-0.71875 -0.09375 -1.1875 -0.265625l0 -1.484375q0.53125 0.21875 1.171875 0.328125q0.65625 0.109375 1.28125 0.109375q0.921875 0 1.28125 -0.15625q0.375 -0.15625 0.375 -0.625q0 -0.421875 -0.34375 -0.609375q-0.328125 -0.203125 -1.25 -0.5l-0.484375 -0.15625q-1.140625 -0.390625 -1.671875 -0.859375q-0.53125 -0.46875 -0.53125 -1.390625q0 -1.078125 0.765625 -1.625q0.765625 -0.5625 2.40625 -0.5625q0.625 0 1.21875 0.109375q0.609375 0.09375 1.03125 0.234375l0 1.453125q-0.421875 -0.171875 -0.96875 -0.265625q-0.53125 -0.09375 -1.015625 -0.09375q-0.875 0 -1.28125 0.15625q-0.390625 0.140625 -0.390625 0.5625q0 0.359375 0.296875 0.546875q0.3125 0.1875 1.203125 0.46875l0.34375 0.109375q0.9375 0.296875 1.4375 0.59375q0.515625 0.296875 0.75 0.71875q0.234375 0.421875 0.234375 1.09375q0 2.21875 -3.1875 2.21875zm8.736511 0q-2.015625 0 -3.09375 -0.984375q-1.0625 -1.0 -1.0625 -2.984375q0 -1.875 0.9375 -2.90625q0.953125 -1.03125 2.8125 -1.03125q1.671875 0 2.5625 0.890625q0.90625 0.875 0.90625 2.34375l0 1.40625l-5.546875 0q0.125 1.09375 0.78125 1.515625q0.65625 0.421875 2.0625 0.421875q0.578125 0 1.171875 -0.109375q0.59375 -0.109375 1.0625 -0.28125l0 1.28125q-1.0 0.4375 -2.59375 0.4375zm1.53125 -4.390625l0 -0.53125q0 -0.8125 -0.453125 -1.234375q-0.453125 -0.4375 -1.4375 -0.4375q-1.1875 0 -1.65625 0.515625q-0.46875 0.515625 -0.46875 1.6875l4.015625 0zm6.1232605 4.390625q-1.203125 0 -1.8125 -0.625q-0.609375 -0.640625 -0.609375 -1.78125l0 -3.96875l-1.109375 0l0 -1.359375l1.109375 0l0 -1.75l1.734375 -0.53125l0 2.28125l2.015625 0l-0.109375 1.359375l-1.90625 0l0 3.859375q0 0.65625 0.296875 0.921875q0.296875 0.265625 1.0 0.265625q0.421875 0 0.90625 -0.15625l0 1.234375q-0.625 0.25 -1.515625 0.25zm5.25177 0q-1.359375 0 -2.09375 -0.75q-0.734375 -0.765625 -0.734375 -2.203125l0 -4.78125l1.75 0l0 4.78125q0 0.84375 0.40625 1.25q0.421875 0.390625 1.296875 0.390625q0.609375 0 1.15625 -0.21875q0.546875 -0.234375 0.96875 -0.65625l0 -5.546875l1.71875 0l0 7.578125l-1.578125 0l-0.078125 -0.78125q-1.203125 0.9375 -2.8125 0.9375zm6.5136414 -7.734375l1.5 0l0.09375 0.75q0.53125 -0.46875 1.140625 -0.6875q0.609375 -0.234375 1.421875 -0.234375q1.6875 0 2.5625 0.921875q0.890625 0.90625 0.890625 2.90625q0 2.015625 -0.9375 3.046875q-0.921875 1.03125 -2.578125 1.03125q-1.375 0 -2.359375 -0.640625l0 3.9375l-1.734375 0l0 -11.03125zm3.640625 6.421875q1.125 0 1.65625 -0.6875q0.546875 -0.6875 0.546875 -2.09375q0 -1.34375 -0.5 -1.90625q-0.484375 -0.578125 -1.65625 -0.578125q-1.171875 0 -1.953125 0.8125l0 3.78125q0.765625 0.671875 1.90625 0.671875zm13.419525 2.3125q-1.109375 -0.984375 -1.640625 -2.59375q-0.515625 -1.609375 -0.515625 -3.40625q0 -1.8125 0.515625 -3.40625q0.53125 -1.609375 1.640625 -2.59375l1.96875 0q-2.359375 2.046875 -2.359375 6.0q0 3.953125 2.359375 6.0l-1.96875 0zm2.7312622 0q1.234375 -1.078125 1.796875 -2.578125q0.5625 -1.5 0.5625 -3.421875q0 -3.96875 -2.359375 -6.0l1.984375 0q1.09375 0.984375 1.609375 2.59375q0.53125 1.609375 0.53125 3.40625q0 1.796875 -0.53125 3.40625q-0.515625 1.609375 -1.609375 2.59375l-1.984375 0z" fill-rule="nonzero"/><path fill="#cc0000" d="m394.1302 650.6036l97.32446 0l0 0c12.749756 0 23.08551 9.583069 23.08551 21.404419c0 11.821289 -10.335754 21.404419 -23.08551 21.404419l-97.32446 0l0 0c-12.749756 0 -23.08548 -9.58313 -23.08548 -21.404419c0 -11.82135 10.335724 -21.404419 23.08548 -21.404419z" fill-rule="evenodd"/><path fill="#ffffff" d="m437.72552 678.02423q-0.34375 0 -0.75 -0.0625q-0.390625 -0.046875 -0.625 -0.140625l-1.28125 -3.40625l-1.109375 0l0.078125 -1.3125l2.125 0l1.328125 3.546875q1.140625 0.046875 1.828125 -0.71875q0.6875 -0.765625 0.6875 -2.46875q0 -1.125 -0.296875 -1.765625q-0.296875 -0.65625 -0.96875 -0.9375q-0.671875 -0.28125 -1.859375 -0.28125q-1.46875 0 -2.734375 0.421875l0 -1.34375q1.515625 -0.484375 3.203125 -0.484375q2.234375 0 3.28125 1.109375q1.0625 1.109375 1.0625 3.28125q0 1.453125 -0.546875 2.484375q-0.53125 1.03125 -1.4375 1.5625q-0.90625 0.515625 -1.984375 0.515625zm9.604034 0q-1.875 0 -2.90625 -0.875q-1.03125 -0.890625 -1.03125 -2.640625l0 -5.28125l1.734375 0l0 5.34375q0 1.0625 0.546875 1.5625q0.5625 0.5 1.65625 0.5q1.109375 0 1.671875 -0.5q0.5625 -0.5 0.5625 -1.5625l0 -5.34375l1.71875 0l0 5.28125q0 1.75 -1.03125 2.640625q-1.015625 0.875 -2.921875 0.875z" fill-rule="nonzero"/><path fill="#cc0000" d="m776.34766 20.727034l97.3244 0l0 0c12.749817 0 23.08551 9.58308 23.08551 21.40441c0 11.821331 -10.335693 21.404411 -23.08551 21.404411l-97.3244 0l0 0c-12.749817 0 -23.08551 -9.58308 -23.08551 -21.404411c0 -11.821329 10.335693 -21.40441 23.08551 -21.40441z" fill-rule="evenodd"/><path fill="#ffffff" d="m804.10846 48.147694q-0.953125 0 -1.421875 -0.453125q-0.453125 -0.46875 -0.453125 -1.515625l0 -8.96875l1.734375 0l0 8.8125q0 0.4375 0.15625 0.609375q0.15625 0.15625 0.484375 0.15625q0.390625 0 0.734375 -0.09375l0 1.265625q-0.53125 0.1875 -1.234375 0.1875zm5.51001 0q-3.953125 0 -3.953125 -3.953125q0 -3.953125 3.953125 -3.953125q3.96875 0 3.96875 3.953125q0 3.953125 -3.96875 3.953125zm0 -1.46875q1.203125 0 1.703125 -0.578125q0.5 -0.578125 0.5 -1.90625q0 -1.3125 -0.5 -1.875q-0.5 -0.578125 -1.703125 -0.578125q-1.1875 0 -1.6875 0.578125q-0.5 0.5625 -0.5 1.875q0 1.328125 0.5 1.90625q0.5 0.578125 1.6875 0.578125zm8.895996 1.46875q-3.953125 0 -3.953125 -3.953125q0 -3.953125 3.953125 -3.953125q3.96875 0 3.96875 3.953125q0 3.953125 -3.96875 3.953125zm0 -1.46875q1.203125 0 1.703125 -0.578125q0.5 -0.578125 0.5 -1.90625q0 -1.3125 -0.5 -1.875q-0.5 -0.578125 -1.703125 -0.578125q-1.1875 0 -1.6875 0.578125q-0.5 0.5625 -0.5 1.875q0 1.328125 0.5 1.90625q0.5 0.578125 1.6875 0.578125zm5.6710205 -6.265625l1.5 0l0.09375 0.75q0.53125 -0.46875 1.140625 -0.6875q0.609375 -0.234375 1.421875 -0.234375q1.6875 0 2.5625 0.921875q0.890625 0.90625 0.890625 2.90625q0 2.015625 -0.9375 3.046875q-0.921875 1.03125 -2.578125 1.03125q-1.375 0 -2.359375 -0.640625l0 3.9375l-1.734375 0l0 -11.03125zm3.640625 6.421875q1.125 0 1.65625 -0.6875q0.546875 -0.6875 0.546875 -2.09375q0 -1.34375 -0.5 -1.90625q-0.484375 -0.578125 -1.65625 -0.578125q-1.171875 0 -1.953125 0.8125l0 3.78125q0.765625 0.671875 1.90625 0.671875zm13.419556 2.3125q-1.109375 -0.984375 -1.640625 -2.59375q-0.515625 -1.609375 -0.515625 -3.40625q0 -1.8125 0.515625 -3.40625q0.53125 -1.609375 1.640625 -2.59375l1.96875 0q-2.359375 2.046875 -2.359375 6.0q0 3.953125 2.359375 6.0l-1.96875 0zm2.7312622 0q1.234375 -1.078125 1.796875 -2.578125q0.5625 -1.5 0.5625 -3.421875q0 -3.96875 -2.359375 -6.0l1.984375 0q1.09375 0.984375 1.609375 2.59375q0.53125 1.609375 0.53125 3.40625q0 1.796875 -0.53125 3.40625q-0.515625 1.609375 -1.609375 2.59375l-1.984375 0z" fill-rule="nonzero"/><path fill="#000000" fill-opacity="0.0" d="m442.79294 63.535854l0 35.905514" fill-rule="evenodd"/><path stroke="#000000" stroke-width="1.0" stroke-linejoin="round" stroke-linecap="butt" d="m442.79294 63.535854l0 29.905514" fill-rule="evenodd"/><path fill="#000000" stroke="#000000" stroke-width="1.0" stroke-linecap="butt" d="m441.1412 93.44137l1.6517334 4.5380936l1.6517334 -4.5380936z" fill-rule="evenodd"/><path fill="#000000" fill-opacity="0.0" d="m442.79242 614.69806l0 35.905518" fill-rule="evenodd"/><path stroke="#000000" stroke-width="1.0" stroke-linejoin="round" stroke-linecap="butt" d="m442.79242 614.69806l0 29.905518" fill-rule="evenodd"/><path fill="#000000" stroke="#000000" stroke-width="1.0" stroke-linecap="butt" d="m441.1407 644.6036l1.6517334 4.538086l1.6517029 -4.538086z" fill-rule="evenodd"/><path fill="#000000" fill-opacity="0.0" d="m825.0099 63.535854l0 35.905514" fill-rule="evenodd"/><path stroke="#000000" stroke-width="1.0" stroke-linejoin="round" stroke-linecap="butt" d="m825.0098 63.535854l0 29.905514" fill-rule="evenodd"/><path fill="#000000" stroke="#000000" stroke-width="1.0" stroke-linecap="butt" d="m823.3581 93.44137l1.6517334 4.5380936l1.6517334 -4.5380936z" fill-rule="evenodd"/><path fill="#cc0000" d="m782.7833 445.56158l97.32446 0l0 0c12.749756 0 23.08551 9.583069 23.08551 21.404419c0 11.82132 -10.335754 21.404388 -23.08551 21.404388l-97.32446 0l0 0c-12.749756 0 -23.08551 -9.583069 -23.08551 -21.404388c0 -11.82135 10.335754 -21.404419 23.08551 -21.404419z" fill-rule="evenodd"/><path fill="#ffffff" d="m826.37866 472.98224q-0.34375 0 -0.75 -0.0625q-0.390625 -0.046875 -0.625 -0.140625l-1.28125 -3.40625l-1.109375 0l0.078125 -1.3125l2.125 0l1.328125 3.546875q1.140625 0.046875 1.828125 -0.71875q0.6875 -0.765625 0.6875 -2.46875q0 -1.125 -0.296875 -1.765625q-0.296875 -0.65625 -0.96875 -0.9375q-0.671875 -0.28125 -1.859375 -0.28125q-1.46875 0 -2.734375 0.421875l0 -1.34375q1.515625 -0.484375 3.203125 -0.484375q2.234375 0 3.28125 1.109375q1.0625 1.109375 1.0625 3.28125q0 1.453125 -0.546875 2.484375q-0.53125 1.03125 -1.4375 1.5625q-0.90625 0.515625 -1.984375 0.515625zm9.604004 0q-1.875 0 -2.90625 -0.875q-1.03125 -0.890625 -1.03125 -2.640625l0 -5.28125l1.734375 0l0 5.34375q0 1.0625 0.546875 1.5625q0.5625 0.5 1.65625 0.5q1.109375 0 1.671875 -0.5q0.5625 -0.5 0.5625 -1.5625l0 -5.34375l1.71875 0l0 5.28125q0 1.75 -1.03125 2.640625q-1.015625 0.875 -2.921875 0.875z" fill-rule="nonzero"/><path fill="#000000" fill-opacity="0.0" d="m831.44556 409.65607l0 35.905518" fill-rule="evenodd"/><path stroke="#000000" stroke-width="1.0" stroke-linejoin="round" stroke-linecap="butt" d="m831.44556 409.6561l0 29.905487" fill-rule="evenodd"/><path fill="#000000" stroke="#000000" stroke-width="1.0" stroke-linecap="butt" d="m829.7938 439.56158l1.6517334 4.5381165l1.6517334 -4.5381165z" fill-rule="evenodd"/><path fill="#000000" fill-opacity="0.0" d="m831.4465 153.92955l0 35.905518" fill-rule="evenodd"/><path stroke="#000000" stroke-width="1.0" stroke-linejoin="round" stroke-linecap="butt" d="m831.44653 153.92955l0 29.905502" fill-rule="evenodd"/><path fill="#000000" stroke="#000000" stroke-width="1.0" stroke-linecap="butt" d="m829.7948 183.83505l1.6517334 4.538101l1.6517334 -4.538101z" fill-rule="evenodd"/><path fill="#0f9d58" d="m728.8794 244.3307l13.622009 -54.48819l191.51184 0l-13.62207 54.48819z" fill-rule="evenodd"/><path fill="#ffffff" d="m784.28845 215.36848l1.875 0l0.109375 0.703125q0.515625 -0.4375 1.109375 -0.65625q0.59375 -0.21875 1.375 -0.21875q1.71875 0 2.59375 0.9375q0.875 0.921875 0.875 2.921875q0 2.015625 -0.953125 3.03125q-0.9375 1.015625 -2.640625 1.015625q-1.28125 0 -2.171875 -0.578125l0 3.875l-2.171875 0l0 -11.03125zm3.796875 6.15625q0.984375 0 1.46875 -0.59375q0.484375 -0.609375 0.484375 -1.859375q0 -1.21875 -0.453125 -1.75q-0.4375 -0.53125 -1.4375 -0.53125q-0.984375 0 -1.6875 0.6875l0 3.46875q0.359375 0.28125 0.734375 0.4375q0.375 0.140625 0.890625 0.140625zm6.6118774 -9.25l2.34375 0l0 1.703125l-2.34375 0l0 -1.703125zm0.171875 4.6875l-1.140625 0l0.203125 -1.59375l3.09375 0l0 7.578125l-2.15625 0l0 -5.984375zm3.9954224 -1.59375l2.0 0l0.078125 0.71875q0.515625 -0.390625 1.21875 -0.640625q0.703125 -0.25 1.453125 -0.25q1.5 0 2.1875 0.703125q0.703125 0.6875 0.703125 2.1875l0 4.859375l-2.15625 0l0 -4.75q0 -0.78125 -0.328125 -1.09375q-0.3125 -0.3125 -1.15625 -0.3125q-0.484375 0 -0.984375 0.21875q-0.5 0.203125 -0.84375 0.5625l0 5.375l-2.171875 0l0 -7.578125zm14.839478 6.53125q0.375 -0.828125 1.0 -1.515625q0.625 -0.703125 1.671875 -1.625l0.421875 -0.375q0.75 -0.6875 1.0625 -1.015625q0.3125 -0.328125 0.4375 -0.671875q0.140625 -0.34375 0.140625 -0.875q0 -0.734375 -0.484375 -1.109375q-0.46875 -0.375 -1.40625 -0.375q-1.234375 0 -2.484375 0.5l0 -1.90625q0.59375 -0.203125 1.40625 -0.328125q0.8125 -0.125 1.5625 -0.125q1.765625 0 2.671875 0.875q0.921875 0.875 0.921875 2.421875q0 0.984375 -0.46875 1.71875q-0.453125 0.734375 -1.40625 1.546875l-0.25 0.21875q-0.71875 0.625 -1.1875 1.09375q-0.46875 0.453125 -0.796875 0.9375l4.203125 0l0 1.65625l-7.015625 0l0 -1.046875zm8.208069 -4.140625l6.171875 0l0 1.6875l-6.171875 0l0 -1.6875zm11.922485 -3.453125l-4.71875 0l0 -1.65625l7.078125 0l0 1.328125l-3.78125 8.96875l-2.25 0l3.671875 -8.640625zm11.603027 8.640625q-1.03125 0 -1.46875 -0.421875q-0.421875 -0.421875 -0.421875 -1.375l0 -5.28125q0 -1.609375 1.046875 -2.34375l-2.3125 0l0 -1.6875l4.921875 0l0 1.578125q-0.796875 0.28125 -1.15625 0.90625q-0.34375 0.609375 -0.34375 1.65625l0 4.609375q0 0.671875 0.65625 0.671875l0.546875 0l0 1.6875l-1.46875 0zm2.3342896 -8.640625l2.078125 0l1.125 5.546875l1.3125 -4.171875l0 -1.375l1.515625 0l1.53125 5.546875l1.515625 -8.109375l2.0625 0l-2.421875 11.203125l-1.875 0l-1.421875 -4.9375l-1.546875 4.9375l-1.859375 0l-2.015625 -8.640625zm15.365601 8.796875q-1.640625 0 -2.625 -1.0625q-0.984375 -1.0625 -0.984375 -3.234375q0 -2.234375 1.140625 -3.4375q1.15625 -1.21875 3.375 -1.21875q1.46875 0 2.453125 0.5q0.984375 0.484375 1.4375 1.3125q0.453125 0.8125 0.453125 1.765625l0 5.21875l-2.15625 0l0 -5.078125q0 -0.96875 -0.515625 -1.5q-0.5 -0.546875 -1.703125 -0.546875q-2.4375 0 -2.4375 2.984375q0 1.40625 0.484375 2.015625q0.484375 0.609375 1.46875 0.609375q0.734375 0 1.109375 -0.125l0 1.578125q-0.59375 0.21875 -1.5 0.21875zm1.2136841 -12.53125l1.765625 0l0 1.078125l3.984375 0l-0.078125 1.46875l-5.671875 0l0 -2.546875zm10.0625 12.53125q-1.953125 0 -3.046875 -0.921875q-1.078125 -0.921875 -1.078125 -2.703125l0 -5.171875l2.171875 0l0 5.203125q0 0.96875 0.484375 1.453125q0.484375 0.46875 1.46875 0.46875q0.96875 0 1.453125 -0.46875q0.484375 -0.484375 0.484375 -1.453125l0 -5.203125l2.171875 0l0 5.171875q0 1.78125 -1.09375 2.703125q-1.078125 0.921875 -3.015625 0.921875z" fill-rule="nonzero"/><path fill="#000000" fill-opacity="0.0" d="m831.4465 244.33113l0 35.905502" fill-rule="evenodd"/><path stroke="#000000" stroke-width="1.0" stroke-linejoin="round" stroke-linecap="butt" d="m831.44653 244.33112l0 29.905518" fill-rule="evenodd"/><path fill="#000000" stroke="#000000" stroke-width="1.0" stroke-linecap="butt" d="m829.7948 274.23663l1.6517334 4.538086l1.6517334 -4.538086z" fill-rule="evenodd"/><path fill="#0f9d58" d="m728.8794 334.73227l13.622009 -54.48819l191.51184 0l-13.62207 54.48819z" fill-rule="evenodd"/><path fill="#ffffff" d="m780.6644 303.0513l4.84375 0q1.734375 0 2.625 0.96875q0.90625 0.96875 0.90625 2.578125q0 1.03125 -0.4375 1.84375q-0.4375 0.796875 -1.265625 1.234375q-0.8125 0.4375 -1.890625 0.4375l-2.609375 0l0 3.234375l-2.171875 0l0 -10.296875zm4.328125 5.359375q0.90625 0 1.390625 -0.484375q0.484375 -0.484375 0.484375 -1.328125q0 -0.890625 -0.453125 -1.359375q-0.453125 -0.484375 -1.34375 -0.484375l-2.234375 0l0 3.65625l2.15625 0zm5.808655 -5.734375l2.34375 0l0 1.703125l-2.34375 0l0 -1.703125zm0.171875 4.6875l-1.140625 0l0.203125 -1.59375l3.09375 0l0 7.578125l-2.15625 0l0 -5.984375zm3.9954224 -1.59375l2.0 0l0.078125 0.71875q0.515625 -0.390625 1.21875 -0.640625q0.703125 -0.25 1.453125 -0.25q1.5 0 2.1875 0.703125q0.703125 0.6875 0.703125 2.1875l0 4.859375l-2.15625 0l0 -4.75q0 -0.78125 -0.328125 -1.09375q-0.3125 -0.3125 -1.15625 -0.3125q-0.484375 0 -0.984375 0.21875q-0.5 0.203125 -0.84375 0.5625l0 5.375l-2.171875 0l0 -7.578125zm19.011353 7.734375q-4.171875 0 -4.171875 -3.015625q0 -0.859375 0.4375 -1.515625q0.4375 -0.671875 1.21875 -0.953125q-0.6875 -0.296875 -1.046875 -0.859375q-0.34375 -0.578125 -0.34375 -1.265625q0 -1.40625 0.96875 -2.203125q0.984375 -0.8125 2.9375 -0.8125q2.0 0 2.953125 0.796875q0.953125 0.796875 0.953125 2.21875q0 0.734375 -0.359375 1.328125q-0.34375 0.59375 -1.078125 0.90625q1.703125 0.609375 1.703125 2.359375q0 3.015625 -4.171875 3.015625zm0.421875 -6.03125q0.78125 -0.203125 1.109375 -0.53125q0.328125 -0.34375 0.328125 -1.0q0 -0.703125 -0.453125 -1.03125q-0.453125 -0.328125 -1.40625 -0.328125q-0.9375 0 -1.40625 0.328125q-0.453125 0.3125 -0.453125 1.03125q0 0.5625 0.296875 0.890625q0.296875 0.328125 0.921875 0.4375l1.0625 0.203125zm-0.421875 4.359375q1.09375 0 1.609375 -0.328125q0.515625 -0.328125 0.515625 -1.046875q0 -0.640625 -0.34375 -0.9375q-0.328125 -0.296875 -1.15625 -0.46875l-1.234375 -0.265625q-0.75 0.171875 -1.140625 0.53125q-0.375 0.34375 -0.375 1.078125q0 0.765625 0.515625 1.109375q0.53125 0.328125 1.609375 0.328125zm5.380188 -3.671875l6.171875 0l0 1.6875l-6.171875 0l0 -1.6875zm9.03186 -3.171875l-1.671875 0.28125l0 -1.8125l3.84375 -0.578125l0 10.46875l-2.171875 0l0 -8.359375zm6.734619 8.515625q-0.71875 0 -1.625 -0.140625q-0.90625 -0.140625 -1.4375 -0.359375l0 -1.875q1.234375 0.515625 2.75 0.515625q1.171875 0 1.703125 -0.328125q0.53125 -0.328125 0.53125 -1.125q0 -0.671875 -0.46875 -0.96875q-0.46875 -0.296875 -1.40625 -0.296875l-1.625 0l0.15625 -1.578125l1.34375 0q0.9375 0 1.359375 -0.3125q0.4375 -0.3125 0.4375 -0.984375q0 -0.671875 -0.5 -1.0q-0.484375 -0.328125 -1.546875 -0.328125q-0.671875 0 -1.359375 0.140625q-0.671875 0.125 -1.203125 0.375l0 -1.84375q0.53125 -0.21875 1.328125 -0.359375q0.8125 -0.15625 1.609375 -0.15625q1.859375 0 2.859375 0.796875q1.0 0.78125 1.0 2.078125q0 0.796875 -0.359375 1.453125q-0.359375 0.640625 -1.046875 0.921875q0.8125 0.25 1.21875 0.84375q0.40625 0.59375 0.40625 1.453125q0 1.53125 -1.109375 2.3125q-1.109375 0.765625 -3.015625 0.765625zm13.519043 -0.15625q-1.03125 0 -1.46875 -0.421875q-0.421875 -0.421875 -0.421875 -1.375l0 -5.28125q0 -1.609375 1.046875 -2.34375l-2.3125 0l0 -1.6875l4.921875 0l0 1.578125q-0.796875 0.28125 -1.15625 0.90625q-0.34375 0.609375 -0.34375 1.65625l0 4.609375q0 0.671875 0.65625 0.671875l0.546875 0l0 1.6875l-1.46875 0zm2.3342896 -8.640625l2.078125 0l1.125 5.546875l1.3125 -4.171875l0 -1.375l1.515625 0l1.53125 5.546875l1.515625 -8.109375l2.0625 0l-2.421875 11.203125l-1.875 0l-1.421875 -4.9375l-1.546875 4.9375l-1.859375 0l-2.015625 -8.640625zm15.365601 8.796875q-1.640625 0 -2.625 -1.0625q-0.984375 -1.0625 -0.984375 -3.234375q0 -2.265625 0.78125 -3.453125q0.796875 -1.203125 2.203125 -1.203125q0.640625 0 1.046875 0.203125q0.40625 0.203125 0.671875 0.609375q0.3125 -0.375 0.875 -0.59375q0.578125 -0.21875 1.171875 -0.21875q1.09375 0 1.640625 0.671875q0.5625 0.671875 0.5625 1.828125l0 6.296875l-2.15625 0l0 -5.96875q0 -0.59375 -0.15625 -0.875q-0.15625 -0.28125 -0.578125 -0.28125q-0.296875 0 -0.53125 0.1875q-0.21875 0.1875 -0.3125 0.546875l-1.046875 0q-0.171875 -0.390625 -0.359375 -0.5625q-0.171875 -0.171875 -0.484375 -0.171875q-0.71875 0 -1.0 0.765625q-0.28125 0.765625 -0.28125 2.21875q0 1.40625 0.484375 2.015625q0.484375 0.609375 1.46875 0.609375q0.734375 0 1.109375 -0.125l0 1.578125q-0.59375 0.21875 -1.5 0.21875zm-1.5340576 -11.453125l6.890625 0l0 1.46875l-7.0 0l0.109375 -1.46875zm12.078125 11.453125q-1.640625 0 -2.625 -1.0625q-0.984375 -1.0625 -0.984375 -3.234375q0 -2.234375 1.140625 -3.4375q1.15625 -1.21875 3.375 -1.21875q1.46875 0 2.453125 0.5q0.984375 0.484375 1.4375 1.3125q0.453125 0.8125 0.453125 1.765625l0 5.21875l-2.15625 0l0 -5.078125q0 -0.96875 -0.515625 -1.5q-0.5 -0.546875 -1.703125 -0.546875q-2.4375 0 -2.4375 2.984375q0 1.40625 0.484375 2.015625q0.484375 0.609375 1.46875 0.609375q0.734375 0 1.109375 -0.125l0 1.578125q-0.59375 0.21875 -1.5 0.21875z" fill-rule="nonzero"/><path fill="#000000" fill-opacity="0.0" d="m831.4465 334.7327l0 35.905518" fill-rule="evenodd"/><path stroke="#000000" stroke-width="1.0" stroke-linejoin="round" stroke-linecap="butt" d="m831.44653 334.7327l0 29.905518" fill-rule="evenodd"/><path fill="#000000" stroke="#000000" stroke-width="1.0" stroke-linecap="butt" d="m829.7948 364.6382l1.6517334 4.538086l1.6517334 -4.538086z" fill-rule="evenodd"/><path fill="#0f9d58" d="m728.8794 425.13385l13.622009 -54.48819l191.51184 0l-13.62207 54.48819z" fill-rule="evenodd"/><path fill="#ffffff" d="m783.75244 393.45288l4.84375 0q1.734375 0 2.625 0.96875q0.90625 0.96875 0.90625 2.578125q0 1.03125 -0.4375 1.84375q-0.4375 0.796875 -1.265625 1.234375q-0.8125 0.4375 -1.890625 0.4375l-2.609375 0l0 3.234375l-2.171875 0l0 -10.296875zm4.328125 5.359375q0.90625 0 1.390625 -0.484375q0.484375 -0.484375 0.484375 -1.328125q0 -0.890625 -0.453125 -1.359375q-0.453125 -0.484375 -1.34375 -0.484375l-2.234375 0l0 3.65625l2.15625 0zm5.808655 -5.734375l2.34375 0l0 1.703125l-2.34375 0l0 -1.703125zm0.171875 4.6875l-1.140625 0l0.203125 -1.59375l3.09375 0l0 7.578125l-2.15625 0l0 -5.984375zm3.9953613 -1.59375l2.0 0l0.078125 0.71875q0.515625 -0.390625 1.21875 -0.640625q0.703125 -0.25 1.453125 -0.25q1.5 0 2.1875 0.703125q0.703125 0.6875 0.703125 2.1875l0 4.859375l-2.15625 0l0 -4.75q0 -0.78125 -0.328125 -1.09375q-0.3125 -0.3125 -1.15625 -0.3125q-0.484375 0 -0.984375 0.21875q-0.5 0.203125 -0.84375 0.5625l0 5.375l-2.171875 0l0 -7.578125zm19.011414 7.734375q-4.171875 0 -4.171875 -3.015625q0 -0.859375 0.4375 -1.515625q0.4375 -0.671875 1.21875 -0.953125q-0.6875 -0.296875 -1.046875 -0.859375q-0.34375 -0.578125 -0.34375 -1.265625q0 -1.40625 0.96875 -2.203125q0.984375 -0.8125 2.9375 -0.8125q2.0 0 2.953125 0.796875q0.953125 0.796875 0.953125 2.21875q0 0.734375 -0.359375 1.328125q-0.34375 0.59375 -1.078125 0.90625q1.703125 0.609375 1.703125 2.359375q0 3.015625 -4.171875 3.015625zm0.421875 -6.03125q0.78125 -0.203125 1.109375 -0.53125q0.328125 -0.34375 0.328125 -1.0q0 -0.703125 -0.453125 -1.03125q-0.453125 -0.328125 -1.40625 -0.328125q-0.9375 0 -1.40625 0.328125q-0.453125 0.3125 -0.453125 1.03125q0 0.5625 0.296875 0.890625q0.296875 0.328125 0.921875 0.4375l1.0625 0.203125zm-0.421875 4.359375q1.09375 0 1.609375 -0.328125q0.515625 -0.328125 0.515625 -1.046875q0 -0.640625 -0.34375 -0.9375q-0.328125 -0.296875 -1.15625 -0.46875l-1.234375 -0.265625q-0.75 0.171875 -1.140625 0.53125q-0.375 0.34375 -0.375 1.078125q0 0.765625 0.515625 1.109375q0.53125 0.328125 1.609375 0.328125zm5.380127 -3.671875l6.171875 0l0 1.6875l-6.171875 0l0 -1.6875zm9.031921 -3.171875l-1.671875 0.28125l0 -1.8125l3.84375 -0.578125l0 10.46875l-2.171875 0l0 -8.359375zm6.734619 8.515625q-0.71875 0 -1.625 -0.140625q-0.90625 -0.140625 -1.4375 -0.359375l0 -1.875q1.234375 0.515625 2.75 0.515625q1.171875 0 1.703125 -0.328125q0.53125 -0.328125 0.53125 -1.125q0 -0.671875 -0.46875 -0.96875q-0.46875 -0.296875 -1.40625 -0.296875l-1.625 0l0.15625 -1.578125l1.34375 0q0.9375 0 1.359375 -0.3125q0.4375 -0.3125 0.4375 -0.984375q0 -0.671875 -0.5 -1.0q-0.484375 -0.328125 -1.546875 -0.328125q-0.671875 0 -1.359375 0.140625q-0.671875 0.125 -1.203125 0.375l0 -1.84375q0.53125 -0.21875 1.328125 -0.359375q0.8125 -0.15625 1.609375 -0.15625q1.859375 0 2.859375 0.796875q1.0 0.78125 1.0 2.078125q0 0.796875 -0.359375 1.453125q-0.359375 0.640625 -1.046875 0.921875q0.8125 0.25 1.21875 0.84375q0.40625 0.59375 0.40625 1.453125q0 1.53125 -1.109375 2.3125q-1.109375 0.765625 -3.015625 0.765625zm13.519043 -0.15625q-1.03125 0 -1.46875 -0.421875q-0.421875 -0.421875 -0.421875 -1.375l0 -5.28125q0 -1.609375 1.046875 -2.34375l-2.3125 0l0 -1.6875l4.921875 0l0 1.578125q-0.796875 0.28125 -1.15625 0.90625q-0.34375 0.609375 -0.34375 1.65625l0 4.609375q0 0.671875 0.65625 0.671875l0.546875 0l0 1.6875l-1.46875 0zm2.3342285 -8.640625l2.078125 0l1.125 5.546875l1.3125 -4.171875l0 -1.375l1.515625 0l1.53125 5.546875l1.515625 -8.109375l2.0625 0l-2.421875 11.203125l-1.875 0l-1.421875 -4.9375l-1.546875 4.9375l-1.859375 0l-2.015625 -8.640625zm15.365662 8.796875q-1.640625 0 -2.625 -1.0625q-0.984375 -1.0625 -0.984375 -3.234375q0 -2.234375 1.140625 -3.4375q1.15625 -1.21875 3.375 -1.21875q1.46875 0 2.453125 0.5q0.984375 0.484375 1.4375 1.3125q0.453125 0.8125 0.453125 1.765625l0 5.21875l-2.15625 0l0 -5.078125q0 -0.96875 -0.515625 -1.5q-0.5 -0.546875 -1.703125 -0.546875q-2.4375 0 -2.4375 2.984375q0 1.40625 0.484375 2.015625q0.484375 0.609375 1.46875 0.609375q0.734375 0 1.109375 -0.125l0 1.578125q-0.59375 0.21875 -1.5 0.21875zm1.2136841 -12.53125l1.765625 0l0 1.078125l3.984375 0l-0.078125 1.46875l-5.671875 0l0 -2.546875zm10.0625 12.53125q-1.953125 0 -3.046875 -0.921875q-1.078125 -0.921875 -1.078125 -2.703125l0 -5.171875l2.171875 0l0 5.203125q0 0.96875 0.484375 1.453125q0.484375 0.46875 1.46875 0.46875q0.96875 0 1.453125 -0.46875q0.484375 -0.484375 0.484375 -1.453125l0 -5.203125l2.171875 0l0 5.171875q0 1.78125 -1.09375 2.703125q-1.078125 0.921875 -3.015625 0.921875z" fill-rule="nonzero"/><path fill="#4a86e8" d="m379.23227 97.18898l127.11813 0l0 58.992126l-127.11813 0z" fill-rule="evenodd"/><path fill="#ffffff" d="m398.18362 110.79504q0 -0.8125 0.265625 -1.34375q0.28125 -0.546875 0.96875 -0.75l-1.625 -0.4375l0 -2.0625q0.75 -0.625 1.84375 -1.03125q1.09375 -0.421875 2.40625 -0.421875q2.046875 0 3.078125 0.828125q1.03125 0.8125 1.03125 2.75l0 5.21875l-2.15625 0l0 -5.265625q0 -1.0 -0.46875 -1.421875q-0.46875 -0.4375 -1.59375 -0.4375q-0.6875 0 -1.296875 0.21875q-0.609375 0.203125 -0.984375 0.515625l0 0.234375l1.765625 0.46875l0 1.3125q-0.625 0.171875 -0.84375 0.53125q-0.21875 0.359375 -0.21875 1.109375l0 2.734375l-2.171875 0l0 -2.75zm6.9520264 -6.796875q-0.8125 0 -1.375 -0.515625q-0.5625 -0.53125 -0.5625 -1.328125q0 -0.796875 0.5625 -1.328125q0.5625 -0.53125 1.375 -0.53125q0.8125 0 1.375 0.53125q0.546875 0.53125 0.546875 1.328125q0 0.796875 -0.546875 1.328125q-0.5625 0.515625 -1.375 0.515625zm0 -1.140625q0.28125 0 0.5 -0.21875q0.203125 -0.21875 0.203125 -0.484375q0 -0.296875 -0.203125 -0.5q-0.21875 -0.21875 -0.5 -0.21875q-0.28125 0 -0.5 0.21875q-0.21875 0.203125 -0.21875 0.5q0 0.265625 0.21875 0.484375q0.21875 0.21875 0.5 0.21875zm5.984375 5.375q0 -0.921875 -0.359375 -1.359375q-0.359375 -0.453125 -1.328125 -0.453125q-0.5 0 -1.09375 0.125q-0.59375 0.109375 -1.078125 0.296875l0 -1.578125q0.5 -0.234375 1.203125 -0.375q0.703125 -0.140625 1.390625 -0.140625q1.8125 0 2.609375 0.765625q0.8125 0.765625 0.8125 2.421875l0 5.609375l-2.15625 0l0 -5.3125zm4.057495 -3.328125l2.171875 0l0 2.625l2.140625 0q0.796875 0 1.125 -0.34375q0.328125 -0.359375 0.328125 -1.109375l0 -1.171875l2.15625 0l0 1.09375q0 1.796875 -1.234375 2.296875q0.640625 0.265625 0.90625 0.765625q0.265625 0.5 0.265625 1.265625l0 3.21875l-2.15625 0l0 -2.96875q0 -0.828125 -0.3125 -1.140625q-0.3125 -0.328125 -1.125 -0.328125l-2.09375 0l0 4.4375l-2.171875 0l0 -8.640625zm12.76004 8.796875q-1.390625 0 -2.203125 -0.84375q-0.796875 -0.84375 -0.796875 -2.34375l0 -5.609375l2.171875 0l0 5.484375q0 0.875 0.375 1.265625q0.390625 0.375 1.171875 0.375q0.59375 0 1.171875 -0.25q0.59375 -0.265625 0.9375 -0.65625l0 -6.21875l2.15625 0l0 8.640625l-1.984375 0l-0.09375 -0.84375q-1.25 1.0 -2.90625 1.0zm10.1848755 0q-1.640625 0 -2.625 -1.0625q-0.984375 -1.0625 -0.984375 -3.234375q0 -2.234375 1.140625 -3.4375q1.15625 -1.21875 3.375 -1.21875q1.46875 0 2.453125 0.5q0.984375 0.484375 1.4375 1.3125q0.453125 0.8125 0.453125 1.765625l0 5.21875l-2.15625 0l0 -5.078125q0 -0.96875 -0.515625 -1.5q-0.5 -0.546875 -1.703125 -0.546875q-2.4375 0 -2.4375 2.984375q0 1.40625 0.484375 2.015625q0.484375 0.609375 1.46875 0.609375q0.734375 0 1.109375 -0.125l0 1.578125q-0.59375 0.21875 -1.5 0.21875zm8.823029 -0.15625q-1.03125 0 -1.46875 -0.421875q-0.421875 -0.421875 -0.421875 -1.375l0 -3.453125q0 -0.8125 0.296875 -1.359375q0.3125 -0.5625 0.859375 -1.171875q0.3125 -0.34375 0.453125 -0.546875q0.140625 -0.203125 0.140625 -0.40625q0 -0.40625 -0.234375 -0.5625q-0.21875 -0.171875 -0.71875 -0.171875q-0.859375 0 -1.6875 0.484375l0 -1.5625q0.46875 -0.28125 1.140625 -0.4375q0.671875 -0.171875 1.328125 -0.171875q1.1875 0 1.796875 0.46875q0.625 0.46875 0.625 1.375q0 0.578125 -0.234375 1.0q-0.21875 0.40625 -0.65625 1.0q-0.46875 0.59375 -0.71875 1.0625q-0.234375 0.453125 -0.234375 1.078125l0 2.8125q0 0.671875 0.65625 0.671875l0.546875 0l0 1.6875l-1.46875 0zm3.1281128 -8.640625l2.171875 0l0 2.625l2.140625 0q0.796875 0 1.125 -0.34375q0.328125 -0.359375 0.328125 -1.109375l0 -1.171875l2.15625 0l0 1.09375q0 1.796875 -1.234375 2.296875q0.640625 0.265625 0.90625 0.765625q0.265625 0.5 0.265625 1.265625l0 3.21875l-2.15625 0l0 -2.96875q0 -0.828125 -0.3125 -1.140625q-0.3125 -0.328125 -1.125 -0.328125l-2.09375 0l0 4.4375l-2.171875 0l0 -8.640625zm3.9787903 -2.609375l-1.25 0l0 -1.46875l2.703125 0l0 1.421875l3.421875 0l-0.078125 1.46875l-4.796875 0l0 -1.421875zm11.54126 0.953125l4.84375 0q1.734375 0 2.625 0.96875q0.90625 0.96875 0.90625 2.578125q0 1.03125 -0.4375 1.84375q-0.4375 0.796875 -1.265625 1.234375q-0.8125 0.4375 -1.890625 0.4375l-2.609375 0l0 3.234375l-2.171875 0l0 -10.296875zm4.328125 5.359375q0.90625 0 1.390625 -0.484375q0.484375 -0.484375 0.484375 -1.328125q0 -0.890625 -0.453125 -1.359375q-0.453125 -0.484375 -1.34375 -0.484375l-2.234375 0l0 3.65625l2.15625 0zm5.808655 -5.734375l2.34375 0l0 1.703125l-2.34375 0l0 -1.703125zm0.171875 4.6875l-1.140625 0l0.203125 -1.59375l3.09375 0l0 7.578125l-2.15625 0l0 -5.984375zm3.9953918 -1.59375l2.0 0l0.078125 0.71875q0.515625 -0.390625 1.21875 -0.640625q0.703125 -0.25 1.453125 -0.25q1.5 0 2.1875 0.703125q0.703125 0.6875 0.703125 2.1875l0 4.859375l-2.15625 0l0 -4.75q0 -0.78125 -0.328125 -1.09375q-0.3125 -0.3125 -1.15625 -0.3125q-0.484375 0 -0.984375 0.21875q-0.5 0.203125 -0.84375 0.5625l0 5.375l-2.171875 0l0 -7.578125z" fill-rule="nonzero"/><path fill="#ffffff" d="m431.40906 131.49817q0.375 -0.828125 1.0 -1.515625q0.625 -0.703125 1.671875 -1.625l0.421875 -0.375q0.75 -0.6875 1.0625 -1.015625q0.3125 -0.328125 0.4375 -0.671875q0.140625 -0.34375 0.140625 -0.875q0 -0.734375 -0.484375 -1.109375q-0.46875 -0.375 -1.40625 -0.375q-1.234375 0 -2.484375 0.5l0 -1.90625q0.59375 -0.203125 1.40625 -0.328125q0.8125 -0.125 1.5625 -0.125q1.765625 0 2.671875 0.875q0.921875 0.875 0.921875 2.421875q0 0.984375 -0.46875 1.71875q-0.453125 0.734375 -1.40625 1.546875l-0.25 0.21875q-0.71875 0.625 -1.1875 1.09375q-0.46875 0.453125 -0.796875 0.9375l4.203125 0l0 1.65625l-7.015625 0l0 -1.046875zm8.208038 -4.140625l6.1718445 0l0 1.6875l-6.1718445 0l0 -1.6875zm10.422485 5.34375q-0.71875 0 -1.625 -0.140625q-0.90625 -0.140625 -1.4375 -0.359375l0 -1.875q1.234375 0.515625 2.75 0.515625q1.171875 0 1.703125 -0.328125q0.53125 -0.328125 0.53125 -1.125q0 -0.671875 -0.46875 -0.96875q-0.46875 -0.296875 -1.40625 -0.296875l-1.625 0l0.15625 -1.578125l1.34375 0q0.9375 0 1.359375 -0.3125q0.4375 -0.3125 0.4375 -0.984375q0 -0.671875 -0.5 -1.0q-0.484375 -0.328125 -1.546875 -0.328125q-0.671875 0 -1.359375 0.140625q-0.671875 0.125 -1.203125 0.375l0 -1.84375q0.53125 -0.21875 1.328125 -0.359375q0.8125 -0.15625 1.609375 -0.15625q1.859375 0 2.859375 0.796875q1.0 0.78125 1.0 2.078125q0 0.796875 -0.359375 1.453125q-0.359375 0.640625 -1.046875 0.921875q0.8125 0.25 1.21875 0.84375q0.40625 0.59375 0.40625 1.453125q0 1.53125 -1.109375 2.3125q-1.109375 0.765625 -3.015625 0.765625z" fill-rule="nonzero"/><path fill="#ffffff" d="m400.011 151.54504q-1.015625 0 -1.453125 -0.421875q-0.4375 -0.421875 -0.4375 -1.375l0 -6.84375l2.171875 0l0 6.28125q0 0.671875 0.65625 0.671875l0.53125 0l0 1.6875l-1.46875 0zm7.115509 0.15625q-1.953125 0 -3.046875 -0.921875q-1.078125 -0.921875 -1.078125 -2.703125l0 -5.171875l2.171875 0l0 5.203125q0 0.96875 0.484375 1.453125q0.484375 0.46875 1.46875 0.46875q0.96875 0 1.453125 -0.46875q0.484375 -0.484375 0.484375 -1.453125l0 -7.765625l2.171875 0l0 7.734375q0 1.78125 -1.09375 2.703125q-1.078125 0.921875 -3.015625 0.921875zm-2.452362 -9.5625q-0.984375 0 -1.515625 -0.5q-0.546875 -0.515625 -0.546875 -1.4375q0 -0.90625 0.578125 -1.453125q0.578125 -0.5625 1.640625 -0.5625l3.578125 0l-0.09375 1.203125l-3.28125 0q-0.46875 0 -0.71875 0.1875q-0.25 0.1875 -0.25 0.625q0 0.75 0.75 0.75q0.734375 0 0.734375 -0.640625l0 -0.28125l1.28125 0l0 0.28125q0 0.328125 0.171875 0.46875q0.171875 0.125 0.515625 0.125l0.609375 0l0 1.203125l-0.765625 0q-0.421875 0 -0.734375 -0.125q-0.328125 -0.125 -0.453125 -0.375q-0.15625 0.234375 -0.59375 0.390625q-0.4375 0.140625 -0.90625 0.140625zm11.455383 9.5625q-1.390625 0 -2.203125 -0.84375q-0.796875 -0.84375 -0.796875 -2.34375l0 -5.609375l2.171875 0l0 5.484375q0 0.875 0.375 1.265625q0.390625 0.375 1.171875 0.375q0.59375 0 1.171875 -0.25q0.59375 -0.265625 0.9375 -0.65625l0 -6.21875l2.15625 0l0 8.640625l-1.984375 0l-0.09375 -0.84375q-1.25 1.0 -2.90625 1.0zm17.33554 0q-5.0 0 -5.0 -5.265625q0 -2.78125 1.234375 -4.0625q1.25 -1.296875 3.765625 -1.296875q2.53125 0 3.765625 1.296875q1.25 1.28125 1.25 4.0625q0 5.265625 -5.015625 5.265625zm0 -1.84375q1.453125 0 2.140625 -0.828125q0.6875 -0.84375 0.6875 -2.59375q0 -1.90625 -0.671875 -2.703125q-0.671875 -0.8125 -2.15625 -0.8125q-1.46875 0 -2.140625 0.8125q-0.671875 0.796875 -0.671875 2.703125q0 1.75 0.6875 2.59375q0.6875 0.828125 2.125 0.828125zm11.043762 1.84375q-2.15625 0 -3.390625 -1.03125q-1.21875 -1.046875 -1.21875 -3.0l0 -6.421875l2.15625 0l0 6.265625q0 1.171875 0.625 1.765625q0.640625 0.578125 1.828125 0.578125q1.1875 0 1.8125 -0.578125q0.625 -0.59375 0.625 -1.765625l0 -6.265625l2.15625 0l0 6.421875q0 1.9375 -1.21875 2.984375q-1.21875 1.046875 -3.375 1.046875zm8.864014 -8.796875l-3.171875 0l0 -1.65625l8.484375 0l0 1.65625l-3.15625 0l0 8.640625l-2.15625 0l0 -8.640625zm6.4927673 -1.65625l4.84375 0q1.734375 0 2.625 0.96875q0.90625 0.96875 0.90625 2.578125q0 1.03125 -0.4375 1.84375q-0.4375 0.796875 -1.265625 1.234375q-0.8125 0.4375 -1.890625 0.4375l-2.609375 0l0 3.234375l-2.171875 0l0 -10.296875zm4.328125 5.359375q0.90625 0 1.390625 -0.484375q0.484375 -0.484375 0.484375 -1.328125q0 -0.890625 -0.453125 -1.359375q-0.453125 -0.484375 -1.34375 -0.484375l-2.234375 0l0 3.65625l2.15625 0zm9.771149 5.09375q-2.15625 0 -3.390625 -1.03125q-1.21875 -1.046875 -1.21875 -3.0l0 -6.421875l2.15625 0l0 6.265625q0 1.171875 0.625 1.765625q0.640625 0.578125 1.828125 0.578125q1.1875 0 1.8125 -0.578125q0.625 -0.59375 0.625 -1.765625l0 -6.265625l2.15625 0l0 6.421875q0 1.9375 -1.21875 2.984375q-1.21875 1.046875 -3.375 1.046875zm8.864044 -8.796875l-3.171875 0l0 -1.65625l8.484375 0l0 1.65625l-3.15625 0l0 8.640625l-2.15625 0l0 -8.640625z" fill-rule="nonzero"/><path fill="#000000" fill-opacity="0.0" d="m442.79294 153.92955l0 35.905518" fill-rule="evenodd"/><path stroke="#000000" stroke-width="1.0" stroke-linejoin="round" stroke-linecap="butt" d="m442.79294 153.92955l0 29.905502" fill-rule="evenodd"/><path fill="#000000" stroke="#000000" stroke-width="1.0" stroke-linecap="butt" d="m441.1412 183.83505l1.6517334 4.538101l1.6517334 -4.538101z" fill-rule="evenodd"/><path fill="#4a86e8" d="m379.23096 187.49344l127.11813 0l0 58.992126l-127.11813 0z" fill-rule="evenodd"/><path fill="#ffffff" d="m398.1823 201.0995q0 -0.8125 0.265625 -1.34375q0.28125 -0.546875 0.96875 -0.75l-1.625 -0.4375l0 -2.0625q0.75 -0.625 1.84375 -1.03125q1.09375 -0.421875 2.40625 -0.421875q2.046875 0 3.078125 0.828125q1.03125 0.8125 1.03125 2.75l0 5.21875l-2.15625 0l0 -5.265625q0 -1.0 -0.46875 -1.421875q-0.46875 -0.4375 -1.59375 -0.4375q-0.6875 0 -1.296875 0.21875q-0.609375 0.203125 -0.984375 0.515625l0 0.234375l1.765625 0.46875l0 1.3125q-0.625 0.171875 -0.84375 0.53125q-0.21875 0.359375 -0.21875 1.109375l0 2.734375l-2.171875 0l0 -2.75zm6.9520264 -6.796875q-0.8125 0 -1.375 -0.515625q-0.5625 -0.53125 -0.5625 -1.328125q0 -0.796875 0.5625 -1.328125q0.5625 -0.53125 1.375 -0.53125q0.8125 0 1.375 0.53125q0.546875 0.53125 0.546875 1.328125q0 0.796875 -0.546875 1.328125q-0.5625 0.515625 -1.375 0.515625zm0 -1.140625q0.28125 0 0.5 -0.21875q0.203125 -0.21875 0.203125 -0.484375q0 -0.296875 -0.203125 -0.5q-0.21875 -0.21875 -0.5 -0.21875q-0.28125 0 -0.5 0.21875q-0.21875 0.203125 -0.21875 0.5q0 0.265625 0.21875 0.484375q0.21875 0.21875 0.5 0.21875zm5.984375 5.375q0 -0.921875 -0.359375 -1.359375q-0.359375 -0.453125 -1.328125 -0.453125q-0.5 0 -1.09375 0.125q-0.59375 0.109375 -1.078125 0.296875l0 -1.578125q0.5 -0.234375 1.203125 -0.375q0.703125 -0.140625 1.390625 -0.140625q1.8125 0 2.609375 0.765625q0.8125 0.765625 0.8125 2.421875l0 5.609375l-2.15625 0l0 -5.3125zm4.057495 -3.328125l2.171875 0l0 2.625l2.140625 0q0.796875 0 1.125 -0.34375q0.328125 -0.359375 0.328125 -1.109375l0 -1.171875l2.15625 0l0 1.09375q0 1.796875 -1.234375 2.296875q0.640625 0.265625 0.90625 0.765625q0.265625 0.5 0.265625 1.265625l0 3.21875l-2.15625 0l0 -2.96875q0 -0.828125 -0.3125 -1.140625q-0.3125 -0.328125 -1.125 -0.328125l-2.09375 0l0 4.4375l-2.171875 0l0 -8.640625zm12.76004 8.796875q-1.390625 0 -2.203125 -0.84375q-0.796875 -0.84375 -0.796875 -2.34375l0 -5.609375l2.171875 0l0 5.484375q0 0.875 0.375 1.265625q0.390625 0.375 1.171875 0.375q0.59375 0 1.171875 -0.25q0.59375 -0.265625 0.9375 -0.65625l0 -6.21875l2.15625 0l0 8.640625l-1.984375 0l-0.09375 -0.84375q-1.25 1.0 -2.90625 1.0zm10.1848755 0q-1.640625 0 -2.625 -1.0625q-0.984375 -1.0625 -0.984375 -3.234375q0 -2.234375 1.140625 -3.4375q1.15625 -1.21875 3.375 -1.21875q1.46875 0 2.453125 0.5q0.984375 0.484375 1.4375 1.3125q0.453125 0.8125 0.453125 1.765625l0 5.21875l-2.15625 0l0 -5.078125q0 -0.96875 -0.515625 -1.5q-0.5 -0.546875 -1.703125 -0.546875q-2.4375 0 -2.4375 2.984375q0 1.40625 0.484375 2.015625q0.484375 0.609375 1.46875 0.609375q0.734375 0 1.109375 -0.125l0 1.578125q-0.59375 0.21875 -1.5 0.21875zm8.823029 -0.15625q-1.03125 0 -1.46875 -0.421875q-0.421875 -0.421875 -0.421875 -1.375l0 -3.453125q0 -0.8125 0.296875 -1.359375q0.3125 -0.5625 0.859375 -1.171875q0.3125 -0.34375 0.453125 -0.546875q0.140625 -0.203125 0.140625 -0.40625q0 -0.40625 -0.234375 -0.5625q-0.21875 -0.171875 -0.71875 -0.171875q-0.859375 0 -1.6875 0.484375l0 -1.5625q0.46875 -0.28125 1.140625 -0.4375q0.671875 -0.171875 1.328125 -0.171875q1.1875 0 1.796875 0.46875q0.625 0.46875 0.625 1.375q0 0.578125 -0.234375 1.0q-0.21875 0.40625 -0.65625 1.0q-0.46875 0.59375 -0.71875 1.0625q-0.234375 0.453125 -0.234375 1.078125l0 2.8125q0 0.671875 0.65625 0.671875l0.546875 0l0 1.6875l-1.46875 0zm3.1281128 -8.640625l2.171875 0l0 2.625l2.140625 0q0.796875 0 1.125 -0.34375q0.328125 -0.359375 0.328125 -1.109375l0 -1.171875l2.15625 0l0 1.09375q0 1.796875 -1.234375 2.296875q0.640625 0.265625 0.90625 0.765625q0.265625 0.5 0.265625 1.265625l0 3.21875l-2.15625 0l0 -2.96875q0 -0.828125 -0.3125 -1.140625q-0.3125 -0.328125 -1.125 -0.328125l-2.09375 0l0 4.4375l-2.171875 0l0 -8.640625zm3.9787903 -2.609375l-1.25 0l0 -1.46875l2.703125 0l0 1.421875l3.421875 0l-0.078125 1.46875l-4.796875 0l0 -1.421875zm11.54126 0.953125l4.84375 0q1.734375 0 2.625 0.96875q0.90625 0.96875 0.90625 2.578125q0 1.03125 -0.4375 1.84375q-0.4375 0.796875 -1.265625 1.234375q-0.8125 0.4375 -1.890625 0.4375l-2.609375 0l0 3.234375l-2.171875 0l0 -10.296875zm4.328125 5.359375q0.90625 0 1.390625 -0.484375q0.484375 -0.484375 0.484375 -1.328125q0 -0.890625 -0.453125 -1.359375q-0.453125 -0.484375 -1.34375 -0.484375l-2.234375 0l0 3.65625l2.15625 0zm5.808655 -5.734375l2.34375 0l0 1.703125l-2.34375 0l0 -1.703125zm0.171875 4.6875l-1.140625 0l0.203125 -1.59375l3.09375 0l0 7.578125l-2.15625 0l0 -5.984375zm3.9953918 -1.59375l2.0 0l0.078125 0.71875q0.515625 -0.390625 1.21875 -0.640625q0.703125 -0.25 1.453125 -0.25q1.5 0 2.1875 0.703125q0.703125 0.6875 0.703125 2.1875l0 4.859375l-2.15625 0l0 -4.75q0 -0.78125 -0.328125 -1.09375q-0.3125 -0.3125 -1.15625 -0.3125q-0.484375 0 -0.984375 0.21875q-0.5 0.203125 -0.84375 0.5625l0 5.375l-2.171875 0l0 -7.578125z" fill-rule="nonzero"/><path fill="#ffffff" d="m435.87164 220.69325l-5.0 0l0 -1.46875l5.265625 -6.671875l1.890625 0l0 6.390625l1.015625 0l0 1.75l-1.015625 0l0 2.15625l-2.15625 0l0 -2.15625zm0.359375 -1.671875l0 -4.09375l-3.28125 4.09375l3.28125 0zm3.6887512 -1.359375l6.171875 0l0 1.6875l-6.171875 0l0 -1.6875zm10.391266 5.34375q-0.75 0 -1.59375 -0.125q-0.84375 -0.125 -1.390625 -0.375l0 -1.859375q0.546875 0.234375 1.296875 0.375q0.75 0.125 1.390625 0.125q1.125 0 1.640625 -0.359375q0.515625 -0.359375 0.515625 -1.1875q0 -0.78125 -0.390625 -1.109375q-0.375 -0.34375 -1.390625 -0.34375l-3.109375 0l0 -1.21875l0.265625 -4.375l6.125 0l-0.15625 1.65625l-4.125 0l-0.140625 2.265625l1.546875 0q1.84375 0 2.703125 0.8125q0.875 0.796875 0.875 2.390625q0 1.5625 -1.046875 2.453125q-1.03125 0.875 -3.015625 0.875z" fill-rule="nonzero"/><path fill="#ffffff" d="m400.00967 241.8495q-1.015625 0 -1.453125 -0.421875q-0.4375 -0.421875 -0.4375 -1.375l0 -6.84375l2.171875 0l0 6.28125q0 0.671875 0.65625 0.671875l0.53125 0l0 1.6875l-1.46875 0zm7.115509 0.15625q-1.953125 0 -3.046875 -0.921875q-1.078125 -0.921875 -1.078125 -2.703125l0 -5.171875l2.171875 0l0 5.203125q0 0.96875 0.484375 1.453125q0.484375 0.46875 1.46875 0.46875q0.96875 0 1.453125 -0.46875q0.484375 -0.484375 0.484375 -1.453125l0 -7.765625l2.171875 0l0 7.734375q0 1.78125 -1.09375 2.703125q-1.078125 0.921875 -3.015625 0.921875zm-2.452362 -9.5625q-0.984375 0 -1.515625 -0.5q-0.546875 -0.515625 -0.546875 -1.4375q0 -0.90625 0.578125 -1.453125q0.578125 -0.5625 1.640625 -0.5625l3.578125 0l-0.09375 1.203125l-3.28125 0q-0.46875 0 -0.71875 0.1875q-0.25 0.1875 -0.25 0.625q0 0.75 0.75 0.75q0.734375 0 0.734375 -0.640625l0 -0.28125l1.28125 0l0 0.28125q0 0.328125 0.171875 0.46875q0.171875 0.125 0.515625 0.125l0.609375 0l0 1.203125l-0.765625 0q-0.421875 0 -0.734375 -0.125q-0.328125 -0.125 -0.453125 -0.375q-0.15625 0.234375 -0.59375 0.390625q-0.4375 0.140625 -0.90625 0.140625zm11.455383 9.5625q-1.390625 0 -2.203125 -0.84375q-0.796875 -0.84375 -0.796875 -2.34375l0 -5.609375l2.171875 0l0 5.484375q0 0.875 0.375 1.265625q0.390625 0.375 1.171875 0.375q0.59375 0 1.171875 -0.25q0.59375 -0.265625 0.9375 -0.65625l0 -6.21875l2.15625 0l0 8.640625l-1.984375 0l-0.09375 -0.84375q-1.25 1.0 -2.90625 1.0zm17.33554 0q-5.0 0 -5.0 -5.265625q0 -2.78125 1.234375 -4.0625q1.25 -1.296875 3.765625 -1.296875q2.53125 0 3.765625 1.296875q1.25 1.28125 1.25 4.0625q0 5.265625 -5.015625 5.265625zm0 -1.84375q1.453125 0 2.140625 -0.828125q0.6875 -0.84375 0.6875 -2.59375q0 -1.90625 -0.671875 -2.703125q-0.671875 -0.8125 -2.15625 -0.8125q-1.46875 0 -2.140625 0.8125q-0.671875 0.796875 -0.671875 2.703125q0 1.75 0.6875 2.59375q0.6875 0.828125 2.125 0.828125zm11.043762 1.84375q-2.15625 0 -3.390625 -1.03125q-1.21875 -1.046875 -1.21875 -3.0l0 -6.421875l2.15625 0l0 6.265625q0 1.171875 0.625 1.765625q0.640625 0.578125 1.828125 0.578125q1.1875 0 1.8125 -0.578125q0.625 -0.59375 0.625 -1.765625l0 -6.265625l2.15625 0l0 6.421875q0 1.9375 -1.21875 2.984375q-1.21875 1.046875 -3.375 1.046875zm8.864014 -8.796875l-3.171875 0l0 -1.65625l8.484375 0l0 1.65625l-3.15625 0l0 8.640625l-2.15625 0l0 -8.640625zm6.4927673 -1.65625l4.84375 0q1.734375 0 2.625 0.96875q0.90625 0.96875 0.90625 2.578125q0 1.03125 -0.4375 1.84375q-0.4375 0.796875 -1.265625 1.234375q-0.8125 0.4375 -1.890625 0.4375l-2.609375 0l0 3.234375l-2.171875 0l0 -10.296875zm4.328125 5.359375q0.90625 0 1.390625 -0.484375q0.484375 -0.484375 0.484375 -1.328125q0 -0.890625 -0.453125 -1.359375q-0.453125 -0.484375 -1.34375 -0.484375l-2.234375 0l0 3.65625l2.15625 0zm9.771149 5.09375q-2.15625 0 -3.390625 -1.03125q-1.21875 -1.046875 -1.21875 -3.0l0 -6.421875l2.15625 0l0 6.265625q0 1.171875 0.625 1.765625q0.640625 0.578125 1.828125 0.578125q1.1875 0 1.8125 -0.578125q0.625 -0.59375 0.625 -1.765625l0 -6.265625l2.15625 0l0 6.421875q0 1.9375 -1.21875 2.984375q-1.21875 1.046875 -3.375 1.046875zm8.864044 -8.796875l-3.171875 0l0 -1.65625l8.484375 0l0 1.65625l-3.15625 0l0 8.640625l-2.15625 0l0 -8.640625z" fill-rule="nonzero"/><path fill="#000000" fill-opacity="0.0" d="m442.79163 244.23401l0 35.905518" fill-rule="evenodd"/><path stroke="#000000" stroke-width="1.0" stroke-linejoin="round" stroke-linecap="butt" d="m442.79163 244.23401l0 29.905518" fill-rule="evenodd"/><path fill="#000000" stroke="#000000" stroke-width="1.0" stroke-linecap="butt" d="m441.1399 274.13953l1.6517334 4.538086l1.6517334 -4.538086z" fill-rule="evenodd"/><path fill="#4a86e8" d="m379.23358 277.7979l127.11813 0l0 58.992126l-127.11813 0z" fill-rule="evenodd"/><path fill="#ffffff" d="m398.18494 291.40396q0 -0.8125 0.265625 -1.34375q0.28125 -0.546875 0.96875 -0.75l-1.625 -0.4375l0 -2.0625q0.75 -0.625 1.84375 -1.03125q1.09375 -0.421875 2.40625 -0.421875q2.046875 0 3.078125 0.828125q1.03125 0.8125 1.03125 2.75l0 5.21875l-2.15625 0l0 -5.265625q0 -1.0 -0.46875 -1.421875q-0.46875 -0.4375 -1.59375 -0.4375q-0.6875 0 -1.296875 0.21875q-0.609375 0.203125 -0.984375 0.515625l0 0.234375l1.765625 0.46875l0 1.3125q-0.625 0.171875 -0.84375 0.53125q-0.21875 0.359375 -0.21875 1.109375l0 2.734375l-2.171875 0l0 -2.75zm6.9520264 -6.796875q-0.8125 0 -1.375 -0.515625q-0.5625 -0.53125 -0.5625 -1.328125q0 -0.796875 0.5625 -1.328125q0.5625 -0.53125 1.375 -0.53125q0.8125 0 1.375 0.53125q0.546875 0.53125 0.546875 1.328125q0 0.796875 -0.546875 1.328125q-0.5625 0.515625 -1.375 0.515625zm0 -1.140625q0.28125 0 0.5 -0.21875q0.203125 -0.21875 0.203125 -0.484375q0 -0.296875 -0.203125 -0.5q-0.21875 -0.21875 -0.5 -0.21875q-0.28125 0 -0.5 0.21875q-0.21875 0.203125 -0.21875 0.5q0 0.265625 0.21875 0.484375q0.21875 0.21875 0.5 0.21875zm5.984375 5.375q0 -0.921875 -0.359375 -1.359375q-0.359375 -0.453125 -1.328125 -0.453125q-0.5 0 -1.09375 0.125q-0.59375 0.109375 -1.078125 0.296875l0 -1.578125q0.5 -0.234375 1.203125 -0.375q0.703125 -0.140625 1.390625 -0.140625q1.8125 0 2.609375 0.765625q0.8125 0.765625 0.8125 2.421875l0 5.609375l-2.15625 0l0 -5.3125zm4.057495 -3.328125l2.171875 0l0 2.625l2.140625 0q0.796875 0 1.125 -0.34375q0.328125 -0.359375 0.328125 -1.109375l0 -1.171875l2.15625 0l0 1.09375q0 1.796875 -1.234375 2.296875q0.640625 0.265625 0.90625 0.765625q0.265625 0.5 0.265625 1.265625l0 3.21875l-2.15625 0l0 -2.96875q0 -0.828125 -0.3125 -1.140625q-0.3125 -0.328125 -1.125 -0.328125l-2.09375 0l0 4.4375l-2.171875 0l0 -8.640625zm12.76004 8.796875q-1.390625 0 -2.203125 -0.84375q-0.796875 -0.84375 -0.796875 -2.34375l0 -5.609375l2.171875 0l0 5.484375q0 0.875 0.375 1.265625q0.390625 0.375 1.171875 0.375q0.59375 0 1.171875 -0.25q0.59375 -0.265625 0.9375 -0.65625l0 -6.21875l2.15625 0l0 8.640625l-1.984375 0l-0.09375 -0.84375q-1.25 1.0 -2.90625 1.0zm10.1848755 0q-1.640625 0 -2.625 -1.0625q-0.984375 -1.0625 -0.984375 -3.234375q0 -2.234375 1.140625 -3.4375q1.15625 -1.21875 3.375 -1.21875q1.46875 0 2.453125 0.5q0.984375 0.484375 1.4375 1.3125q0.453125 0.8125 0.453125 1.765625l0 5.21875l-2.15625 0l0 -5.078125q0 -0.96875 -0.515625 -1.5q-0.5 -0.546875 -1.703125 -0.546875q-2.4375 0 -2.4375 2.984375q0 1.40625 0.484375 2.015625q0.484375 0.609375 1.46875 0.609375q0.734375 0 1.109375 -0.125l0 1.578125q-0.59375 0.21875 -1.5 0.21875zm8.823029 -0.15625q-1.03125 0 -1.46875 -0.421875q-0.421875 -0.421875 -0.421875 -1.375l0 -3.453125q0 -0.8125 0.296875 -1.359375q0.3125 -0.5625 0.859375 -1.171875q0.3125 -0.34375 0.453125 -0.546875q0.140625 -0.203125 0.140625 -0.40625q0 -0.40625 -0.234375 -0.5625q-0.21875 -0.171875 -0.71875 -0.171875q-0.859375 0 -1.6875 0.484375l0 -1.5625q0.46875 -0.28125 1.140625 -0.4375q0.671875 -0.171875 1.328125 -0.171875q1.1875 0 1.796875 0.46875q0.625 0.46875 0.625 1.375q0 0.578125 -0.234375 1.0q-0.21875 0.40625 -0.65625 1.0q-0.46875 0.59375 -0.71875 1.0625q-0.234375 0.453125 -0.234375 1.078125l0 2.8125q0 0.671875 0.65625 0.671875l0.546875 0l0 1.6875l-1.46875 0zm3.1281128 -8.640625l2.171875 0l0 2.625l2.140625 0q0.796875 0 1.125 -0.34375q0.328125 -0.359375 0.328125 -1.109375l0 -1.171875l2.15625 0l0 1.09375q0 1.796875 -1.234375 2.296875q0.640625 0.265625 0.90625 0.765625q0.265625 0.5 0.265625 1.265625l0 3.21875l-2.15625 0l0 -2.96875q0 -0.828125 -0.3125 -1.140625q-0.3125 -0.328125 -1.125 -0.328125l-2.09375 0l0 4.4375l-2.171875 0l0 -8.640625zm3.9787903 -2.609375l-1.25 0l0 -1.46875l2.703125 0l0 1.421875l3.421875 0l-0.078125 1.46875l-4.796875 0l0 -1.421875zm11.54126 0.953125l4.84375 0q1.734375 0 2.625 0.96875q0.90625 0.96875 0.90625 2.578125q0 1.03125 -0.4375 1.84375q-0.4375 0.796875 -1.265625 1.234375q-0.8125 0.4375 -1.890625 0.4375l-2.609375 0l0 3.234375l-2.171875 0l0 -10.296875zm4.328125 5.359375q0.90625 0 1.390625 -0.484375q0.484375 -0.484375 0.484375 -1.328125q0 -0.890625 -0.453125 -1.359375q-0.453125 -0.484375 -1.34375 -0.484375l-2.234375 0l0 3.65625l2.15625 0zm5.808655 -5.734375l2.34375 0l0 1.703125l-2.34375 0l0 -1.703125zm0.171875 4.6875l-1.140625 0l0.203125 -1.59375l3.09375 0l0 7.578125l-2.15625 0l0 -5.984375zm3.9953918 -1.59375l2.0 0l0.078125 0.71875q0.515625 -0.390625 1.21875 -0.640625q0.703125 -0.25 1.453125 -0.25q1.5 0 2.1875 0.703125q0.703125 0.6875 0.703125 2.1875l0 4.859375l-2.15625 0l0 -4.75q0 -0.78125 -0.328125 -1.09375q-0.3125 -0.3125 -1.15625 -0.3125q-0.484375 0 -0.984375 0.21875q-0.5 0.203125 -0.84375 0.5625l0 5.375l-2.171875 0l0 -7.578125z" fill-rule="nonzero"/><path fill="#ffffff" d="m435.14526 313.3102q-2.03125 0 -3.046875 -1.0q-1.0 -1.0 -1.0 -3.046875l0 -2.203125q0 -1.28125 0.546875 -2.265625q0.5625 -1.0 1.59375 -1.546875q1.03125 -0.5625 2.40625 -0.5625q0.78125 0 1.375 0.109375q0.59375 0.09375 1.140625 0.28125l0 1.859375q-1.0 -0.40625 -2.375 -0.40625q-1.296875 0 -1.984375 0.5625q-0.671875 0.5625 -0.671875 1.53125l0 0.5q0.5 -0.359375 1.171875 -0.546875q0.6875 -0.1875 1.296875 -0.1875q1.796875 0 2.671875 0.875q0.890625 0.875 0.890625 2.546875q0 1.609375 -1.0 2.5625q-1.0 0.9375 -3.015625 0.9375zm0.015625 -1.59375q1.0 0 1.53125 -0.484375q0.53125 -0.5 0.53125 -1.34375q0 -0.921875 -0.46875 -1.390625q-0.453125 -0.46875 -1.5625 -0.46875q-0.515625 0 -1.0625 0.203125q-0.53125 0.1875 -1.0 0.484375l0 0.984375q0 2.015625 2.03125 2.015625zm5.1855164 -3.75l6.1718445 0l0 1.6875l-6.1718445 0l0 -1.6875zm11.922485 -3.453125l-4.71875 0l0 -1.65625l7.078125 0l0 1.328125l-3.78125 8.96875l-2.25 0l3.671875 -8.640625z" fill-rule="nonzero"/><path fill="#ffffff" d="m400.0123 332.15396q-1.015625 0 -1.453125 -0.421875q-0.4375 -0.421875 -0.4375 -1.375l0 -6.84375l2.171875 0l0 6.28125q0 0.671875 0.65625 0.671875l0.53125 0l0 1.6875l-1.46875 0zm7.115509 0.15625q-1.953125 0 -3.046875 -0.921875q-1.078125 -0.921875 -1.078125 -2.703125l0 -5.171875l2.171875 0l0 5.203125q0 0.96875 0.484375 1.453125q0.484375 0.46875 1.46875 0.46875q0.96875 0 1.453125 -0.46875q0.484375 -0.484375 0.484375 -1.453125l0 -7.765625l2.171875 0l0 7.734375q0 1.78125 -1.09375 2.703125q-1.078125 0.921875 -3.015625 0.921875zm-2.452362 -9.5625q-0.984375 0 -1.515625 -0.5q-0.546875 -0.515625 -0.546875 -1.4375q0 -0.90625 0.578125 -1.453125q0.578125 -0.5625 1.640625 -0.5625l3.578125 0l-0.09375 1.203125l-3.28125 0q-0.46875 0 -0.71875 0.1875q-0.25 0.1875 -0.25 0.625q0 0.75 0.75 0.75q0.734375 0 0.734375 -0.640625l0 -0.28125l1.28125 0l0 0.28125q0 0.328125 0.171875 0.46875q0.171875 0.125 0.515625 0.125l0.609375 0l0 1.203125l-0.765625 0q-0.421875 0 -0.734375 -0.125q-0.328125 -0.125 -0.453125 -0.375q-0.15625 0.234375 -0.59375 0.390625q-0.4375 0.140625 -0.90625 0.140625zm11.455383 9.5625q-1.390625 0 -2.203125 -0.84375q-0.796875 -0.84375 -0.796875 -2.34375l0 -5.609375l2.171875 0l0 5.484375q0 0.875 0.375 1.265625q0.390625 0.375 1.171875 0.375q0.59375 0 1.171875 -0.25q0.59375 -0.265625 0.9375 -0.65625l0 -6.21875l2.15625 0l0 8.640625l-1.984375 0l-0.09375 -0.84375q-1.25 1.0 -2.90625 1.0zm17.33554 0q-5.0 0 -5.0 -5.265625q0 -2.78125 1.234375 -4.0625q1.25 -1.296875 3.765625 -1.296875q2.53125 0 3.765625 1.296875q1.25 1.28125 1.25 4.0625q0 5.265625 -5.015625 5.265625zm0 -1.84375q1.453125 0 2.140625 -0.828125q0.6875 -0.84375 0.6875 -2.59375q0 -1.90625 -0.671875 -2.703125q-0.671875 -0.8125 -2.15625 -0.8125q-1.46875 0 -2.140625 0.8125q-0.671875 0.796875 -0.671875 2.703125q0 1.75 0.6875 2.59375q0.6875 0.828125 2.125 0.828125zm11.043762 1.84375q-2.15625 0 -3.390625 -1.03125q-1.21875 -1.046875 -1.21875 -3.0l0 -6.421875l2.15625 0l0 6.265625q0 1.171875 0.625 1.765625q0.640625 0.578125 1.828125 0.578125q1.1875 0 1.8125 -0.578125q0.625 -0.59375 0.625 -1.765625l0 -6.265625l2.15625 0l0 6.421875q0 1.9375 -1.21875 2.984375q-1.21875 1.046875 -3.375 1.046875zm8.864014 -8.796875l-3.171875 0l0 -1.65625l8.484375 0l0 1.65625l-3.15625 0l0 8.640625l-2.15625 0l0 -8.640625zm6.4927673 -1.65625l4.84375 0q1.734375 0 2.625 0.96875q0.90625 0.96875 0.90625 2.578125q0 1.03125 -0.4375 1.84375q-0.4375 0.796875 -1.265625 1.234375q-0.8125 0.4375 -1.890625 0.4375l-2.609375 0l0 3.234375l-2.171875 0l0 -10.296875zm4.328125 5.359375q0.90625 0 1.390625 -0.484375q0.484375 -0.484375 0.484375 -1.328125q0 -0.890625 -0.453125 -1.359375q-0.453125 -0.484375 -1.34375 -0.484375l-2.234375 0l0 3.65625l2.15625 0zm9.771149 5.09375q-2.15625 0 -3.390625 -1.03125q-1.21875 -1.046875 -1.21875 -3.0l0 -6.421875l2.15625 0l0 6.265625q0 1.171875 0.625 1.765625q0.640625 0.578125 1.828125 0.578125q1.1875 0 1.8125 -0.578125q0.625 -0.59375 0.625 -1.765625l0 -6.265625l2.15625 0l0 6.421875q0 1.9375 -1.21875 2.984375q-1.21875 1.046875 -3.375 1.046875zm8.864044 -8.796875l-3.171875 0l0 -1.65625l8.484375 0l0 1.65625l-3.15625 0l0 8.640625l-2.15625 0l0 -8.640625z" fill-rule="nonzero"/><path fill="#000000" fill-opacity="0.0" d="m442.79425 334.53848l0 35.905518" fill-rule="evenodd"/><path stroke="#000000" stroke-width="1.0" stroke-linejoin="round" stroke-linecap="butt" d="m442.79425 334.53848l0 29.905487" fill-rule="evenodd"/><path fill="#000000" stroke="#000000" stroke-width="1.0" stroke-linecap="butt" d="m441.14252 364.44397l1.6517334 4.5381165l1.6517334 -4.5381165z" fill-rule="evenodd"/><path fill="#4a86e8" d="m379.2362 368.10236l127.11813 0l0 58.992126l-127.11813 0z" fill-rule="evenodd"/><path fill="#ffffff" d="m398.18756 381.70844q0 -0.8125 0.265625 -1.34375q0.28125 -0.546875 0.96875 -0.75l-1.625 -0.4375l0 -2.0625q0.75 -0.625 1.84375 -1.03125q1.09375 -0.421875 2.40625 -0.421875q2.046875 0 3.078125 0.828125q1.03125 0.8125 1.03125 2.75l0 5.21875l-2.15625 0l0 -5.265625q0 -1.0 -0.46875 -1.421875q-0.46875 -0.4375 -1.59375 -0.4375q-0.6875 0 -1.296875 0.21875q-0.609375 0.203125 -0.984375 0.515625l0 0.234375l1.765625 0.46875l0 1.3125q-0.625 0.171875 -0.84375 0.53125q-0.21875 0.359375 -0.21875 1.109375l0 2.734375l-2.171875 0l0 -2.75zm6.9520264 -6.796875q-0.8125 0 -1.375 -0.515625q-0.5625 -0.53125 -0.5625 -1.328125q0 -0.796875 0.5625 -1.328125q0.5625 -0.53125 1.375 -0.53125q0.8125 0 1.375 0.53125q0.546875 0.53125 0.546875 1.328125q0 0.796875 -0.546875 1.328125q-0.5625 0.515625 -1.375 0.515625zm0 -1.140625q0.28125 0 0.5 -0.21875q0.203125 -0.21875 0.203125 -0.484375q0 -0.296875 -0.203125 -0.5q-0.21875 -0.21875 -0.5 -0.21875q-0.28125 0 -0.5 0.21875q-0.21875 0.203125 -0.21875 0.5q0 0.265625 0.21875 0.484375q0.21875 0.21875 0.5 0.21875zm5.984375 5.375q0 -0.921875 -0.359375 -1.359375q-0.359375 -0.453125 -1.328125 -0.453125q-0.5 0 -1.09375 0.125q-0.59375 0.109375 -1.078125 0.296875l0 -1.578125q0.5 -0.234375 1.203125 -0.375q0.703125 -0.140625 1.390625 -0.140625q1.8125 0 2.609375 0.765625q0.8125 0.765625 0.8125 2.421875l0 5.609375l-2.15625 0l0 -5.3125zm4.057495 -3.328125l2.171875 0l0 2.625l2.140625 0q0.796875 0 1.125 -0.34375q0.328125 -0.359375 0.328125 -1.109375l0 -1.171875l2.15625 0l0 1.09375q0 1.796875 -1.234375 2.296875q0.640625 0.265625 0.90625 0.765625q0.265625 0.5 0.265625 1.265625l0 3.21875l-2.15625 0l0 -2.96875q0 -0.828125 -0.3125 -1.140625q-0.3125 -0.328125 -1.125 -0.328125l-2.09375 0l0 4.4375l-2.171875 0l0 -8.640625zm12.76004 8.796875q-1.390625 0 -2.203125 -0.84375q-0.796875 -0.84375 -0.796875 -2.34375l0 -5.609375l2.171875 0l0 5.484375q0 0.875 0.375 1.265625q0.390625 0.375 1.171875 0.375q0.59375 0 1.171875 -0.25q0.59375 -0.265625 0.9375 -0.65625l0 -6.21875l2.15625 0l0 8.640625l-1.984375 0l-0.09375 -0.84375q-1.25 1.0 -2.90625 1.0zm10.1848755 0q-1.640625 0 -2.625 -1.0625q-0.984375 -1.0625 -0.984375 -3.234375q0 -2.234375 1.140625 -3.4375q1.15625 -1.21875 3.375 -1.21875q1.46875 0 2.453125 0.5q0.984375 0.484375 1.4375 1.3125q0.453125 0.8125 0.453125 1.765625l0 5.21875l-2.15625 0l0 -5.078125q0 -0.96875 -0.515625 -1.5q-0.5 -0.546875 -1.703125 -0.546875q-2.4375 0 -2.4375 2.984375q0 1.40625 0.484375 2.015625q0.484375 0.609375 1.46875 0.609375q0.734375 0 1.109375 -0.125l0 1.578125q-0.59375 0.21875 -1.5 0.21875zm8.823029 -0.15625q-1.03125 0 -1.46875 -0.421875q-0.421875 -0.421875 -0.421875 -1.375l0 -3.453125q0 -0.8125 0.296875 -1.359375q0.3125 -0.5625 0.859375 -1.171875q0.3125 -0.34375 0.453125 -0.546875q0.140625 -0.203125 0.140625 -0.40625q0 -0.40625 -0.234375 -0.5625q-0.21875 -0.171875 -0.71875 -0.171875q-0.859375 0 -1.6875 0.484375l0 -1.5625q0.46875 -0.28125 1.140625 -0.4375q0.671875 -0.171875 1.328125 -0.171875q1.1875 0 1.796875 0.46875q0.625 0.46875 0.625 1.375q0 0.578125 -0.234375 1.0q-0.21875 0.40625 -0.65625 1.0q-0.46875 0.59375 -0.71875 1.0625q-0.234375 0.453125 -0.234375 1.078125l0 2.8125q0 0.671875 0.65625 0.671875l0.546875 0l0 1.6875l-1.46875 0zm3.1281128 -8.640625l2.171875 0l0 2.625l2.140625 0q0.796875 0 1.125 -0.34375q0.328125 -0.359375 0.328125 -1.109375l0 -1.171875l2.15625 0l0 1.09375q0 1.796875 -1.234375 2.296875q0.640625 0.265625 0.90625 0.765625q0.265625 0.5 0.265625 1.265625l0 3.21875l-2.15625 0l0 -2.96875q0 -0.828125 -0.3125 -1.140625q-0.3125 -0.328125 -1.125 -0.328125l-2.09375 0l0 4.4375l-2.171875 0l0 -8.640625zm3.9787903 -2.609375l-1.25 0l0 -1.46875l2.703125 0l0 1.421875l3.421875 0l-0.078125 1.46875l-4.796875 0l0 -1.421875zm11.54126 0.953125l4.84375 0q1.734375 0 2.625 0.96875q0.90625 0.96875 0.90625 2.578125q0 1.03125 -0.4375 1.84375q-0.4375 0.796875 -1.265625 1.234375q-0.8125 0.4375 -1.890625 0.4375l-2.609375 0l0 3.234375l-2.171875 0l0 -10.296875zm4.328125 5.359375q0.90625 0 1.390625 -0.484375q0.484375 -0.484375 0.484375 -1.328125q0 -0.890625 -0.453125 -1.359375q-0.453125 -0.484375 -1.34375 -0.484375l-2.234375 0l0 3.65625l2.15625 0zm5.808655 -5.734375l2.34375 0l0 1.703125l-2.34375 0l0 -1.703125zm0.171875 4.6875l-1.140625 0l0.203125 -1.59375l3.09375 0l0 7.578125l-2.15625 0l0 -5.984375zm3.9953918 -1.59375l2.0 0l0.078125 0.71875q0.515625 -0.390625 1.21875 -0.640625q0.703125 -0.25 1.453125 -0.25q1.5 0 2.1875 0.703125q0.703125 0.6875 0.703125 2.1875l0 4.859375l-2.15625 0l0 -4.75q0 -0.78125 -0.328125 -1.09375q-0.3125 -0.3125 -1.15625 -0.3125q-0.484375 0 -0.984375 0.21875q-0.5 0.203125 -0.84375 0.5625l0 5.375l-2.171875 0l0 -7.578125z" fill-rule="nonzero"/><path fill="#ffffff" d="m434.48087 403.6147q-4.171875 0 -4.171875 -3.015625q0 -0.859375 0.4375 -1.515625q0.4375 -0.671875 1.21875 -0.953125q-0.6875 -0.296875 -1.046875 -0.859375q-0.34375 -0.578125 -0.34375 -1.265625q0 -1.40625 0.96875 -2.203125q0.984375 -0.8125 2.9375 -0.8125q2.0 0 2.953125 0.796875q0.953125 0.796875 0.953125 2.21875q0 0.734375 -0.359375 1.328125q-0.34375 0.59375 -1.078125 0.90625q1.703125 0.609375 1.703125 2.359375q0 3.015625 -4.171875 3.015625zm0.421875 -6.03125q0.78125 -0.203125 1.109375 -0.53125q0.328125 -0.34375 0.328125 -1.0q0 -0.703125 -0.453125 -1.03125q-0.453125 -0.328125 -1.40625 -0.328125q-0.9375 0 -1.40625 0.328125q-0.453125 0.3125 -0.453125 1.03125q0 0.5625 0.296875 0.890625q0.296875 0.328125 0.921875 0.4375l1.0625 0.203125zm-0.421875 4.359375q1.09375 0 1.609375 -0.328125q0.515625 -0.328125 0.515625 -1.046875q0 -0.640625 -0.34375 -0.9375q-0.328125 -0.296875 -1.15625 -0.46875l-1.234375 -0.265625q-0.75 0.171875 -1.140625 0.53125q-0.375 0.34375 -0.375 1.078125q0 0.765625 0.515625 1.109375q0.53125 0.328125 1.609375 0.328125zm5.3801575 -3.671875l6.171875 0l0 1.6875l-6.171875 0l0 -1.6875zm10.875641 5.34375q-0.78125 0 -1.375 -0.09375q-0.59375 -0.09375 -1.15625 -0.28125l0 -1.859375q1.015625 0.390625 2.390625 0.390625q1.296875 0 1.96875 -0.546875q0.6875 -0.5625 0.6875 -1.546875l0 -0.484375q-0.5 0.34375 -1.1875 0.546875q-0.671875 0.1875 -1.28125 0.1875q-1.796875 0 -2.6875 -0.875q-0.875 -0.890625 -0.875 -2.546875q0 -1.625 1.0 -2.5625q1.0 -0.953125 3.015625 -0.953125q2.03125 0 3.03125 1.0q1.015625 1.0 1.015625 3.046875l0 2.21875q0 1.28125 -0.5625 2.28125q-0.546875 0.984375 -1.578125 1.53125q-1.03125 0.546875 -2.40625 0.546875zm0.453125 -5.34375q0.515625 0 1.046875 -0.1875q0.546875 -0.1875 1.015625 -0.5l0 -0.96875q0 -2.015625 -2.03125 -2.015625q-1.015625 0 -1.546875 0.484375q-0.515625 0.484375 -0.515625 1.328125q0 0.9375 0.453125 1.40625q0.46875 0.453125 1.578125 0.453125z" fill-rule="nonzero"/><path fill="#ffffff" d="m400.01492 422.45844q-1.015625 0 -1.453125 -0.421875q-0.4375 -0.421875 -0.4375 -1.375l0 -6.84375l2.171875 0l0 6.28125q0 0.671875 0.65625 0.671875l0.53125 0l0 1.6875l-1.46875 0zm7.115509 0.15625q-1.953125 0 -3.046875 -0.921875q-1.078125 -0.921875 -1.078125 -2.703125l0 -5.171875l2.171875 0l0 5.203125q0 0.96875 0.484375 1.453125q0.484375 0.46875 1.46875 0.46875q0.96875 0 1.453125 -0.46875q0.484375 -0.484375 0.484375 -1.453125l0 -7.765625l2.171875 0l0 7.734375q0 1.78125 -1.09375 2.703125q-1.078125 0.921875 -3.015625 0.921875zm-2.452362 -9.5625q-0.984375 0 -1.515625 -0.5q-0.546875 -0.515625 -0.546875 -1.4375q0 -0.90625 0.578125 -1.453125q0.578125 -0.5625 1.640625 -0.5625l3.578125 0l-0.09375 1.203125l-3.28125 0q-0.46875 0 -0.71875 0.1875q-0.25 0.1875 -0.25 0.625q0 0.75 0.75 0.75q0.734375 0 0.734375 -0.640625l0 -0.28125l1.28125 0l0 0.28125q0 0.328125 0.171875 0.46875q0.171875 0.125 0.515625 0.125l0.609375 0l0 1.203125l-0.765625 0q-0.421875 0 -0.734375 -0.125q-0.328125 -0.125 -0.453125 -0.375q-0.15625 0.234375 -0.59375 0.390625q-0.4375 0.140625 -0.90625 0.140625zm11.455383 9.5625q-1.390625 0 -2.203125 -0.84375q-0.796875 -0.84375 -0.796875 -2.34375l0 -5.609375l2.171875 0l0 5.484375q0 0.875 0.375 1.265625q0.390625 0.375 1.171875 0.375q0.59375 0 1.171875 -0.25q0.59375 -0.265625 0.9375 -0.65625l0 -6.21875l2.15625 0l0 8.640625l-1.984375 0l-0.09375 -0.84375q-1.25 1.0 -2.90625 1.0zm17.33554 0q-5.0 0 -5.0 -5.265625q0 -2.78125 1.234375 -4.0625q1.25 -1.296875 3.765625 -1.296875q2.53125 0 3.765625 1.296875q1.25 1.28125 1.25 4.0625q0 5.265625 -5.015625 5.265625zm0 -1.84375q1.453125 0 2.140625 -0.828125q0.6875 -0.84375 0.6875 -2.59375q0 -1.90625 -0.671875 -2.703125q-0.671875 -0.8125 -2.15625 -0.8125q-1.46875 0 -2.140625 0.8125q-0.671875 0.796875 -0.671875 2.703125q0 1.75 0.6875 2.59375q0.6875 0.828125 2.125 0.828125zm11.043762 1.84375q-2.15625 0 -3.390625 -1.03125q-1.21875 -1.046875 -1.21875 -3.0l0 -6.421875l2.15625 0l0 6.265625q0 1.171875 0.625 1.765625q0.640625 0.578125 1.828125 0.578125q1.1875 0 1.8125 -0.578125q0.625 -0.59375 0.625 -1.765625l0 -6.265625l2.15625 0l0 6.421875q0 1.9375 -1.21875 2.984375q-1.21875 1.046875 -3.375 1.046875zm8.864014 -8.796875l-3.171875 0l0 -1.65625l8.484375 0l0 1.65625l-3.15625 0l0 8.640625l-2.15625 0l0 -8.640625zm6.4927673 -1.65625l4.84375 0q1.734375 0 2.625 0.96875q0.90625 0.96875 0.90625 2.578125q0 1.03125 -0.4375 1.84375q-0.4375 0.796875 -1.265625 1.234375q-0.8125 0.4375 -1.890625 0.4375l-2.609375 0l0 3.234375l-2.171875 0l0 -10.296875zm4.328125 5.359375q0.90625 0 1.390625 -0.484375q0.484375 -0.484375 0.484375 -1.328125q0 -0.890625 -0.453125 -1.359375q-0.453125 -0.484375 -1.34375 -0.484375l-2.234375 0l0 3.65625l2.15625 0zm9.771149 5.09375q-2.15625 0 -3.390625 -1.03125q-1.21875 -1.046875 -1.21875 -3.0l0 -6.421875l2.15625 0l0 6.265625q0 1.171875 0.625 1.765625q0.640625 0.578125 1.828125 0.578125q1.1875 0 1.8125 -0.578125q0.625 -0.59375 0.625 -1.765625l0 -6.265625l2.15625 0l0 6.421875q0 1.9375 -1.21875 2.984375q-1.21875 1.046875 -3.375 1.046875zm8.864044 -8.796875l-3.171875 0l0 -1.65625l8.484375 0l0 1.65625l-3.15625 0l0 8.640625l-2.15625 0l0 -8.640625z" fill-rule="nonzero"/><path fill="#000000" fill-opacity="0.0" d="m442.789 425.13297l0 35.905518" fill-rule="evenodd"/><path stroke="#000000" stroke-width="1.0" stroke-linejoin="round" stroke-linecap="butt" d="m442.789 425.13297l0 29.905518" fill-rule="evenodd"/><path fill="#000000" stroke="#000000" stroke-width="1.0" stroke-linecap="butt" d="m441.13727 455.03848l1.6517334 4.538086l1.6517334 -4.538086z" fill-rule="evenodd"/><path fill="#4a86e8" d="m379.2362 458.40683l127.11813 0l0 58.992096l-127.11813 0z" fill-rule="evenodd"/><path fill="#ffffff" d="m398.18756 472.01288q0 -0.8125 0.265625 -1.34375q0.28125 -0.546875 0.96875 -0.75l-1.625 -0.4375l0 -2.0625q0.75 -0.625 1.84375 -1.03125q1.09375 -0.421875 2.40625 -0.421875q2.046875 0 3.078125 0.828125q1.03125 0.8125 1.03125 2.75l0 5.21875l-2.15625 0l0 -5.265625q0 -1.0 -0.46875 -1.421875q-0.46875 -0.4375 -1.59375 -0.4375q-0.6875 0 -1.296875 0.21875q-0.609375 0.203125 -0.984375 0.515625l0 0.234375l1.765625 0.46875l0 1.3125q-0.625 0.171875 -0.84375 0.53125q-0.21875 0.359375 -0.21875 1.109375l0 2.734375l-2.171875 0l0 -2.75zm6.9520264 -6.796875q-0.8125 0 -1.375 -0.515625q-0.5625 -0.53125 -0.5625 -1.328125q0 -0.796875 0.5625 -1.328125q0.5625 -0.53125 1.375 -0.53125q0.8125 0 1.375 0.53125q0.546875 0.53125 0.546875 1.328125q0 0.796875 -0.546875 1.328125q-0.5625 0.515625 -1.375 0.515625zm0 -1.140625q0.28125 0 0.5 -0.21875q0.203125 -0.21875 0.203125 -0.484375q0 -0.296875 -0.203125 -0.5q-0.21875 -0.21875 -0.5 -0.21875q-0.28125 0 -0.5 0.21875q-0.21875 0.203125 -0.21875 0.5q0 0.265625 0.21875 0.484375q0.21875 0.21875 0.5 0.21875zm5.984375 5.375q0 -0.921875 -0.359375 -1.359375q-0.359375 -0.453125 -1.328125 -0.453125q-0.5 0 -1.09375 0.125q-0.59375 0.109375 -1.078125 0.296875l0 -1.578125q0.5 -0.234375 1.203125 -0.375q0.703125 -0.140625 1.390625 -0.140625q1.8125 0 2.609375 0.765625q0.8125 0.765625 0.8125 2.421875l0 5.609375l-2.15625 0l0 -5.3125zm4.057495 -3.328125l2.171875 0l0 2.625l2.140625 0q0.796875 0 1.125 -0.34375q0.328125 -0.359375 0.328125 -1.109375l0 -1.171875l2.15625 0l0 1.09375q0 1.796875 -1.234375 2.296875q0.640625 0.265625 0.90625 0.765625q0.265625 0.5 0.265625 1.265625l0 3.21875l-2.15625 0l0 -2.96875q0 -0.828125 -0.3125 -1.140625q-0.3125 -0.328125 -1.125 -0.328125l-2.09375 0l0 4.4375l-2.171875 0l0 -8.640625zm12.76004 8.796875q-1.390625 0 -2.203125 -0.84375q-0.796875 -0.84375 -0.796875 -2.34375l0 -5.609375l2.171875 0l0 5.484375q0 0.875 0.375 1.265625q0.390625 0.375 1.171875 0.375q0.59375 0 1.171875 -0.25q0.59375 -0.265625 0.9375 -0.65625l0 -6.21875l2.15625 0l0 8.640625l-1.984375 0l-0.09375 -0.84375q-1.25 1.0 -2.90625 1.0zm10.1848755 0q-1.640625 0 -2.625 -1.0625q-0.984375 -1.0625 -0.984375 -3.234375q0 -2.234375 1.140625 -3.4375q1.15625 -1.21875 3.375 -1.21875q1.46875 0 2.453125 0.5q0.984375 0.484375 1.4375 1.3125q0.453125 0.8125 0.453125 1.765625l0 5.21875l-2.15625 0l0 -5.078125q0 -0.96875 -0.515625 -1.5q-0.5 -0.546875 -1.703125 -0.546875q-2.4375 0 -2.4375 2.984375q0 1.40625 0.484375 2.015625q0.484375 0.609375 1.46875 0.609375q0.734375 0 1.109375 -0.125l0 1.578125q-0.59375 0.21875 -1.5 0.21875zm8.823029 -0.15625q-1.03125 0 -1.46875 -0.421875q-0.421875 -0.421875 -0.421875 -1.375l0 -3.453125q0 -0.8125 0.296875 -1.359375q0.3125 -0.5625 0.859375 -1.171875q0.3125 -0.34375 0.453125 -0.546875q0.140625 -0.203125 0.140625 -0.40625q0 -0.40625 -0.234375 -0.5625q-0.21875 -0.171875 -0.71875 -0.171875q-0.859375 0 -1.6875 0.484375l0 -1.5625q0.46875 -0.28125 1.140625 -0.4375q0.671875 -0.171875 1.328125 -0.171875q1.1875 0 1.796875 0.46875q0.625 0.46875 0.625 1.375q0 0.578125 -0.234375 1.0q-0.21875 0.40625 -0.65625 1.0q-0.46875 0.59375 -0.71875 1.0625q-0.234375 0.453125 -0.234375 1.078125l0 2.8125q0 0.671875 0.65625 0.671875l0.546875 0l0 1.6875l-1.46875 0zm3.1281128 -8.640625l2.171875 0l0 2.625l2.140625 0q0.796875 0 1.125 -0.34375q0.328125 -0.359375 0.328125 -1.109375l0 -1.171875l2.15625 0l0 1.09375q0 1.796875 -1.234375 2.296875q0.640625 0.265625 0.90625 0.765625q0.265625 0.5 0.265625 1.265625l0 3.21875l-2.15625 0l0 -2.96875q0 -0.828125 -0.3125 -1.140625q-0.3125 -0.328125 -1.125 -0.328125l-2.09375 0l0 4.4375l-2.171875 0l0 -8.640625zm3.9787903 -2.609375l-1.25 0l0 -1.46875l2.703125 0l0 1.421875l3.421875 0l-0.078125 1.46875l-4.796875 0l0 -1.421875zm11.54126 0.953125l4.84375 0q1.734375 0 2.625 0.96875q0.90625 0.96875 0.90625 2.578125q0 1.03125 -0.4375 1.84375q-0.4375 0.796875 -1.265625 1.234375q-0.8125 0.4375 -1.890625 0.4375l-2.609375 0l0 3.234375l-2.171875 0l0 -10.296875zm4.328125 5.359375q0.90625 0 1.390625 -0.484375q0.484375 -0.484375 0.484375 -1.328125q0 -0.890625 -0.453125 -1.359375q-0.453125 -0.484375 -1.34375 -0.484375l-2.234375 0l0 3.65625l2.15625 0zm5.808655 -5.734375l2.34375 0l0 1.703125l-2.34375 0l0 -1.703125zm0.171875 4.6875l-1.140625 0l0.203125 -1.59375l3.09375 0l0 7.578125l-2.15625 0l0 -5.984375zm3.9953918 -1.59375l2.0 0l0.078125 0.71875q0.515625 -0.390625 1.21875 -0.640625q0.703125 -0.25 1.453125 -0.25q1.5 0 2.1875 0.703125q0.703125 0.6875 0.703125 2.1875l0 4.859375l-2.15625 0l0 -4.75q0 -0.78125 -0.328125 -1.09375q-0.3125 -0.3125 -1.15625 -0.3125q-0.484375 0 -0.984375 0.21875q-0.5 0.203125 -0.84375 0.5625l0 5.375l-2.171875 0l0 -7.578125z" fill-rule="nonzero"/><path fill="#ffffff" d="m428.11688 485.4035l-1.671875 0.28125l0 -1.8125l3.84375 -0.578125l0 10.46875l-2.171875 0l0 -8.359375zm8.328369 8.78125q-2.46875 0 -3.5625 -1.375q-1.09375 -1.390625 -1.09375 -4.078125q0 -2.6875 1.09375 -4.0625q1.09375 -1.375 3.5625 -1.375q2.46875 0 3.5625 1.375q1.09375 1.375 1.09375 4.0625q0 2.6875 -1.09375 4.078125q-1.09375 1.375 -3.5625 1.375zm0 -1.859375q1.34375 0 1.90625 -0.890625q0.5625 -0.890625 0.5625 -2.703125q0 -1.796875 -0.5625 -2.6875q-0.5625 -0.890625 -1.90625 -0.890625q-1.34375 0 -1.90625 0.890625q-0.5625 0.890625 -0.5625 2.6875q0 1.8125 0.5625 2.703125q0.5625 0.890625 1.90625 0.890625zm5.8397827 -3.75l6.1718445 0l0 1.6875l-6.1718445 0l0 -1.6875zm9.03186 -3.171875l-1.671875 0.28125l0 -1.8125l3.84375 -0.578125l0 10.46875l-2.171875 0l0 -8.359375zm5.3440247 0l-1.671875 0.28125l0 -1.8125l3.84375 -0.578125l0 10.46875l-2.171875 0l0 -8.359375z" fill-rule="nonzero"/><path fill="#ffffff" d="m400.01492 512.7629q-1.015625 0 -1.453125 -0.421875q-0.4375 -0.421875 -0.4375 -1.375l0 -6.84375l2.171875 0l0 6.28125q0 0.671875 0.65625 0.671875l0.53125 0l0 1.6875l-1.46875 0zm7.115509 0.15625q-1.953125 0 -3.046875 -0.921875q-1.078125 -0.921875 -1.078125 -2.703125l0 -5.171875l2.171875 0l0 5.203125q0 0.96875 0.484375 1.453125q0.484375 0.46875 1.46875 0.46875q0.96875 0 1.453125 -0.46875q0.484375 -0.484375 0.484375 -1.453125l0 -7.765625l2.171875 0l0 7.734375q0 1.78125 -1.09375 2.703125q-1.078125 0.921875 -3.015625 0.921875zm-2.452362 -9.5625q-0.984375 0 -1.515625 -0.5q-0.546875 -0.515625 -0.546875 -1.4375q0 -0.90625 0.578125 -1.453125q0.578125 -0.5625 1.640625 -0.5625l3.578125 0l-0.09375 1.203125l-3.28125 0q-0.46875 0 -0.71875 0.1875q-0.25 0.1875 -0.25 0.625q0 0.75 0.75 0.75q0.734375 0 0.734375 -0.640625l0 -0.28125l1.28125 0l0 0.28125q0 0.328125 0.171875 0.46875q0.171875 0.125 0.515625 0.125l0.609375 0l0 1.203125l-0.765625 0q-0.421875 0 -0.734375 -0.125q-0.328125 -0.125 -0.453125 -0.375q-0.15625 0.234375 -0.59375 0.390625q-0.4375 0.140625 -0.90625 0.140625zm11.455383 9.5625q-1.390625 0 -2.203125 -0.84375q-0.796875 -0.84375 -0.796875 -2.34375l0 -5.609375l2.171875 0l0 5.484375q0 0.875 0.375 1.265625q0.390625 0.375 1.171875 0.375q0.59375 0 1.171875 -0.25q0.59375 -0.265625 0.9375 -0.65625l0 -6.21875l2.15625 0l0 8.640625l-1.984375 0l-0.09375 -0.84375q-1.25 1.0 -2.90625 1.0zm17.33554 0q-5.0 0 -5.0 -5.265625q0 -2.78125 1.234375 -4.0625q1.25 -1.296875 3.765625 -1.296875q2.53125 0 3.765625 1.296875q1.25 1.28125 1.25 4.0625q0 5.265625 -5.015625 5.265625zm0 -1.84375q1.453125 0 2.140625 -0.828125q0.6875 -0.84375 0.6875 -2.59375q0 -1.90625 -0.671875 -2.703125q-0.671875 -0.8125 -2.15625 -0.8125q-1.46875 0 -2.140625 0.8125q-0.671875 0.796875 -0.671875 2.703125q0 1.75 0.6875 2.59375q0.6875 0.828125 2.125 0.828125zm11.043762 1.84375q-2.15625 0 -3.390625 -1.03125q-1.21875 -1.046875 -1.21875 -3.0l0 -6.421875l2.15625 0l0 6.265625q0 1.171875 0.625 1.765625q0.640625 0.578125 1.828125 0.578125q1.1875 0 1.8125 -0.578125q0.625 -0.59375 0.625 -1.765625l0 -6.265625l2.15625 0l0 6.421875q0 1.9375 -1.21875 2.984375q-1.21875 1.046875 -3.375 1.046875zm8.864014 -8.796875l-3.171875 0l0 -1.65625l8.484375 0l0 1.65625l-3.15625 0l0 8.640625l-2.15625 0l0 -8.640625zm6.4927673 -1.65625l4.84375 0q1.734375 0 2.625 0.96875q0.90625 0.96875 0.90625 2.578125q0 1.03125 -0.4375 1.84375q-0.4375 0.796875 -1.265625 1.234375q-0.8125 0.4375 -1.890625 0.4375l-2.609375 0l0 3.234375l-2.171875 0l0 -10.296875zm4.328125 5.359375q0.90625 0 1.390625 -0.484375q0.484375 -0.484375 0.484375 -1.328125q0 -0.890625 -0.453125 -1.359375q-0.453125 -0.484375 -1.34375 -0.484375l-2.234375 0l0 3.65625l2.15625 0zm9.771149 5.09375q-2.15625 0 -3.390625 -1.03125q-1.21875 -1.046875 -1.21875 -3.0l0 -6.421875l2.15625 0l0 6.265625q0 1.171875 0.625 1.765625q0.640625 0.578125 1.828125 0.578125q1.1875 0 1.8125 -0.578125q0.625 -0.59375 0.625 -1.765625l0 -6.265625l2.15625 0l0 6.421875q0 1.9375 -1.21875 2.984375q-1.21875 1.046875 -3.375 1.046875zm8.864044 -8.796875l-3.171875 0l0 -1.65625l8.484375 0l0 1.65625l-3.15625 0l0 8.640625l-2.15625 0l0 -8.640625z" fill-rule="nonzero"/><path fill="#000000" fill-opacity="0.0" d="m442.79688 515.1474l0 35.905518" fill-rule="evenodd"/><path stroke="#000000" stroke-width="1.0" stroke-linejoin="round" stroke-linecap="butt" d="m442.79688 515.1474l0 29.905518" fill-rule="evenodd"/><path fill="#000000" stroke="#000000" stroke-width="1.0" stroke-linecap="butt" d="m441.14514 545.0529l1.6517334 4.538086l1.6517334 -4.538086z" fill-rule="evenodd"/><path fill="#4a86e8" d="m379.23096 548.7113l127.11813 0l0 58.992126l-127.11813 0z" fill-rule="evenodd"/><path fill="#ffffff" d="m398.1823 562.3173q0 -0.8125 0.265625 -1.34375q0.28125 -0.546875 0.96875 -0.75l-1.625 -0.4375l0 -2.0625q0.75 -0.625 1.84375 -1.03125q1.09375 -0.421875 2.40625 -0.421875q2.046875 0 3.078125 0.828125q1.03125 0.8125 1.03125 2.75l0 5.21875l-2.15625 0l0 -5.265625q0 -1.0 -0.46875 -1.421875q-0.46875 -0.4375 -1.59375 -0.4375q-0.6875 0 -1.296875 0.21875q-0.609375 0.203125 -0.984375 0.515625l0 0.234375l1.765625 0.46875l0 1.3125q-0.625 0.171875 -0.84375 0.53125q-0.21875 0.359375 -0.21875 1.109375l0 2.734375l-2.171875 0l0 -2.75zm6.9520264 -6.796875q-0.8125 0 -1.375 -0.515625q-0.5625 -0.53125 -0.5625 -1.328125q0 -0.796875 0.5625 -1.328125q0.5625 -0.53125 1.375 -0.53125q0.8125 0 1.375 0.53125q0.546875 0.53125 0.546875 1.328125q0 0.796875 -0.546875 1.328125q-0.5625 0.515625 -1.375 0.515625zm0 -1.140625q0.28125 0 0.5 -0.21875q0.203125 -0.21875 0.203125 -0.484375q0 -0.296875 -0.203125 -0.5q-0.21875 -0.21875 -0.5 -0.21875q-0.28125 0 -0.5 0.21875q-0.21875 0.203125 -0.21875 0.5q0 0.265625 0.21875 0.484375q0.21875 0.21875 0.5 0.21875zm5.984375 5.375q0 -0.921875 -0.359375 -1.359375q-0.359375 -0.453125 -1.328125 -0.453125q-0.5 0 -1.09375 0.125q-0.59375 0.109375 -1.078125 0.296875l0 -1.578125q0.5 -0.234375 1.203125 -0.375q0.703125 -0.140625 1.390625 -0.140625q1.8125 0 2.609375 0.765625q0.8125 0.765625 0.8125 2.421875l0 5.609375l-2.15625 0l0 -5.3125zm4.057495 -3.328125l2.171875 0l0 2.625l2.140625 0q0.796875 0 1.125 -0.34375q0.328125 -0.359375 0.328125 -1.109375l0 -1.171875l2.15625 0l0 1.09375q0 1.796875 -1.234375 2.296875q0.640625 0.265625 0.90625 0.765625q0.265625 0.5 0.265625 1.265625l0 3.21875l-2.15625 0l0 -2.96875q0 -0.828125 -0.3125 -1.140625q-0.3125 -0.328125 -1.125 -0.328125l-2.09375 0l0 4.4375l-2.171875 0l0 -8.640625zm12.76004 8.796875q-1.390625 0 -2.203125 -0.84375q-0.796875 -0.84375 -0.796875 -2.34375l0 -5.609375l2.171875 0l0 5.484375q0 0.875 0.375 1.265625q0.390625 0.375 1.171875 0.375q0.59375 0 1.171875 -0.25q0.59375 -0.265625 0.9375 -0.65625l0 -6.21875l2.15625 0l0 8.640625l-1.984375 0l-0.09375 -0.84375q-1.25 1.0 -2.90625 1.0zm10.1848755 0q-1.640625 0 -2.625 -1.0625q-0.984375 -1.0625 -0.984375 -3.234375q0 -2.234375 1.140625 -3.4375q1.15625 -1.21875 3.375 -1.21875q1.46875 0 2.453125 0.5q0.984375 0.484375 1.4375 1.3125q0.453125 0.8125 0.453125 1.765625l0 5.21875l-2.15625 0l0 -5.078125q0 -0.96875 -0.515625 -1.5q-0.5 -0.546875 -1.703125 -0.546875q-2.4375 0 -2.4375 2.984375q0 1.40625 0.484375 2.015625q0.484375 0.609375 1.46875 0.609375q0.734375 0 1.109375 -0.125l0 1.578125q-0.59375 0.21875 -1.5 0.21875zm8.823029 -0.15625q-1.03125 0 -1.46875 -0.421875q-0.421875 -0.421875 -0.421875 -1.375l0 -3.453125q0 -0.8125 0.296875 -1.359375q0.3125 -0.5625 0.859375 -1.171875q0.3125 -0.34375 0.453125 -0.546875q0.140625 -0.203125 0.140625 -0.40625q0 -0.40625 -0.234375 -0.5625q-0.21875 -0.171875 -0.71875 -0.171875q-0.859375 0 -1.6875 0.484375l0 -1.5625q0.46875 -0.28125 1.140625 -0.4375q0.671875 -0.171875 1.328125 -0.171875q1.1875 0 1.796875 0.46875q0.625 0.46875 0.625 1.375q0 0.578125 -0.234375 1.0q-0.21875 0.40625 -0.65625 1.0q-0.46875 0.59375 -0.71875 1.0625q-0.234375 0.453125 -0.234375 1.078125l0 2.8125q0 0.671875 0.65625 0.671875l0.546875 0l0 1.6875l-1.46875 0zm3.1281128 -8.640625l2.171875 0l0 2.625l2.140625 0q0.796875 0 1.125 -0.34375q0.328125 -0.359375 0.328125 -1.109375l0 -1.171875l2.15625 0l0 1.09375q0 1.796875 -1.234375 2.296875q0.640625 0.265625 0.90625 0.765625q0.265625 0.5 0.265625 1.265625l0 3.21875l-2.15625 0l0 -2.96875q0 -0.828125 -0.3125 -1.140625q-0.3125 -0.328125 -1.125 -0.328125l-2.09375 0l0 4.4375l-2.171875 0l0 -8.640625zm3.9787903 -2.609375l-1.25 0l0 -1.46875l2.703125 0l0 1.421875l3.421875 0l-0.078125 1.46875l-4.796875 0l0 -1.421875zm11.54126 0.953125l4.84375 0q1.734375 0 2.625 0.96875q0.90625 0.96875 0.90625 2.578125q0 1.03125 -0.4375 1.84375q-0.4375 0.796875 -1.265625 1.234375q-0.8125 0.4375 -1.890625 0.4375l-2.609375 0l0 3.234375l-2.171875 0l0 -10.296875zm4.328125 5.359375q0.90625 0 1.390625 -0.484375q0.484375 -0.484375 0.484375 -1.328125q0 -0.890625 -0.453125 -1.359375q-0.453125 -0.484375 -1.34375 -0.484375l-2.234375 0l0 3.65625l2.15625 0zm5.808655 -5.734375l2.34375 0l0 1.703125l-2.34375 0l0 -1.703125zm0.171875 4.6875l-1.140625 0l0.203125 -1.59375l3.09375 0l0 7.578125l-2.15625 0l0 -5.984375zm3.9953918 -1.59375l2.0 0l0.078125 0.71875q0.515625 -0.390625 1.21875 -0.640625q0.703125 -0.25 1.453125 -0.25q1.5 0 2.1875 0.703125q0.703125 0.6875 0.703125 2.1875l0 4.859375l-2.15625 0l0 -4.75q0 -0.78125 -0.328125 -1.09375q-0.3125 -0.3125 -1.15625 -0.3125q-0.484375 0 -0.984375 0.21875q-0.5 0.203125 -0.84375 0.5625l0 5.375l-2.171875 0l0 -7.578125z" fill-rule="nonzero"/><path fill="#ffffff" d="m429.2556 575.70795l-1.671875 0.28125l0 -1.8125l3.84375 -0.578125l0 10.46875l-2.171875 0l0 -8.359375zm5.3440247 0l-1.671875 0.28125l0 -1.8125l3.84375 -0.578125l0 10.46875l-2.171875 0l0 -8.359375zm3.6721191 3.171875l6.171875 0l0 1.6875l-6.171875 0l0 -1.6875zm9.031891 -3.171875l-1.671875 0.28125l0 -1.8125l3.84375 -0.578125l0 10.46875l-2.171875 0l0 -8.359375zm3.6721191 7.3125q0.375 -0.828125 1.0 -1.515625q0.625 -0.703125 1.671875 -1.625l0.421875 -0.375q0.75 -0.6875 1.0625 -1.015625q0.3125 -0.328125 0.4375 -0.671875q0.140625 -0.34375 0.140625 -0.875q0 -0.734375 -0.484375 -1.109375q-0.46875 -0.375 -1.40625 -0.375q-1.234375 0 -2.484375 0.5l0 -1.90625q0.59375 -0.203125 1.40625 -0.328125q0.8125 -0.125 1.5625 -0.125q1.765625 0 2.671875 0.875q0.921875 0.875 0.921875 2.421875q0 0.984375 -0.46875 1.71875q-0.453125 0.734375 -1.40625 1.546875l-0.25 0.21875q-0.71875 0.625 -1.1875 1.09375q-0.46875 0.453125 -0.796875 0.9375l4.203125 0l0 1.65625l-7.015625 0l0 -1.046875z" fill-rule="nonzero"/><path fill="#ffffff" d="m400.00967 603.0673q-1.015625 0 -1.453125 -0.421875q-0.4375 -0.421875 -0.4375 -1.375l0 -6.84375l2.171875 0l0 6.28125q0 0.671875 0.65625 0.671875l0.53125 0l0 1.6875l-1.46875 0zm7.115509 0.15625q-1.953125 0 -3.046875 -0.921875q-1.078125 -0.921875 -1.078125 -2.703125l0 -5.171875l2.171875 0l0 5.203125q0 0.96875 0.484375 1.453125q0.484375 0.46875 1.46875 0.46875q0.96875 0 1.453125 -0.46875q0.484375 -0.484375 0.484375 -1.453125l0 -7.765625l2.171875 0l0 7.734375q0 1.78125 -1.09375 2.703125q-1.078125 0.921875 -3.015625 0.921875zm-2.452362 -9.5625q-0.984375 0 -1.515625 -0.5q-0.546875 -0.515625 -0.546875 -1.4375q0 -0.90625 0.578125 -1.453125q0.578125 -0.5625 1.640625 -0.5625l3.578125 0l-0.09375 1.203125l-3.28125 0q-0.46875 0 -0.71875 0.1875q-0.25 0.1875 -0.25 0.625q0 0.75 0.75 0.75q0.734375 0 0.734375 -0.640625l0 -0.28125l1.28125 0l0 0.28125q0 0.328125 0.171875 0.46875q0.171875 0.125 0.515625 0.125l0.609375 0l0 1.203125l-0.765625 0q-0.421875 0 -0.734375 -0.125q-0.328125 -0.125 -0.453125 -0.375q-0.15625 0.234375 -0.59375 0.390625q-0.4375 0.140625 -0.90625 0.140625zm11.455383 9.5625q-1.390625 0 -2.203125 -0.84375q-0.796875 -0.84375 -0.796875 -2.34375l0 -5.609375l2.171875 0l0 5.484375q0 0.875 0.375 1.265625q0.390625 0.375 1.171875 0.375q0.59375 0 1.171875 -0.25q0.59375 -0.265625 0.9375 -0.65625l0 -6.21875l2.15625 0l0 8.640625l-1.984375 0l-0.09375 -0.84375q-1.25 1.0 -2.90625 1.0zm17.33554 0q-5.0 0 -5.0 -5.265625q0 -2.78125 1.234375 -4.0625q1.25 -1.296875 3.765625 -1.296875q2.53125 0 3.765625 1.296875q1.25 1.28125 1.25 4.0625q0 5.265625 -5.015625 5.265625zm0 -1.84375q1.453125 0 2.140625 -0.828125q0.6875 -0.84375 0.6875 -2.59375q0 -1.90625 -0.671875 -2.703125q-0.671875 -0.8125 -2.15625 -0.8125q-1.46875 0 -2.140625 0.8125q-0.671875 0.796875 -0.671875 2.703125q0 1.75 0.6875 2.59375q0.6875 0.828125 2.125 0.828125zm11.043762 1.84375q-2.15625 0 -3.390625 -1.03125q-1.21875 -1.046875 -1.21875 -3.0l0 -6.421875l2.15625 0l0 6.265625q0 1.171875 0.625 1.765625q0.640625 0.578125 1.828125 0.578125q1.1875 0 1.8125 -0.578125q0.625 -0.59375 0.625 -1.765625l0 -6.265625l2.15625 0l0 6.421875q0 1.9375 -1.21875 2.984375q-1.21875 1.046875 -3.375 1.046875zm8.864014 -8.796875l-3.171875 0l0 -1.65625l8.484375 0l0 1.65625l-3.15625 0l0 8.640625l-2.15625 0l0 -8.640625zm6.4927673 -1.65625l4.84375 0q1.734375 0 2.625 0.96875q0.90625 0.96875 0.90625 2.578125q0 1.03125 -0.4375 1.84375q-0.4375 0.796875 -1.265625 1.234375q-0.8125 0.4375 -1.890625 0.4375l-2.609375 0l0 3.234375l-2.171875 0l0 -10.296875zm4.328125 5.359375q0.90625 0 1.390625 -0.484375q0.484375 -0.484375 0.484375 -1.328125q0 -0.890625 -0.453125 -1.359375q-0.453125 -0.484375 -1.34375 -0.484375l-2.234375 0l0 3.65625l2.15625 0zm9.771149 5.09375q-2.15625 0 -3.390625 -1.03125q-1.21875 -1.046875 -1.21875 -3.0l0 -6.421875l2.15625 0l0 6.265625q0 1.171875 0.625 1.765625q0.640625 0.578125 1.828125 0.578125q1.1875 0 1.8125 -0.578125q0.625 -0.59375 0.625 -1.765625l0 -6.265625l2.15625 0l0 6.421875q0 1.9375 -1.21875 2.984375q-1.21875 1.046875 -3.375 1.046875zm8.864044 -8.796875l-3.171875 0l0 -1.65625l8.484375 0l0 1.65625l-3.15625 0l0 8.640625l-2.15625 0l0 -8.640625z" fill-rule="nonzero"/></g></svg>