<svg version="1.1" viewBox="0.0 0.0 960.0 720.0" fill="none" stroke="none" stroke-linecap="square" stroke-miterlimit="10" xmlns:xlink="http://www.w3.org/1999/xlink" xmlns="http://www.w3.org/2000/svg"><clipPath id="p.0"><path d="m0 0l960.0 0l0 720.0l-960.0 0l0 -720.0z" clip-rule="nonzero"/></clipPath><g clip-path="url(#p.0)"><path fill="#000000" fill-opacity="0.0" d="m0 0l960.0 0l0 720.0l-960.0 0z" fill-rule="evenodd"/><path fill="#cc0000" d="m105.56667 20.72441l94.52134 0l0 0c12.382553 0 22.420593 9.1795025 22.420593 20.502993c0 11.32349 -10.03804 20.50299 -22.420593 20.50299l-94.52134 0l0 0c-12.382553 0 -22.420593 -9.179501 -22.420593 -20.50299c0 -11.32349 10.03804 -20.502993 22.420593 -20.502993z" fill-rule="evenodd"/><path fill="#ffffff" d="m139.9523 47.243652q-2.0 0 -3.21875 -0.515625l0 -1.53125q1.5 0.578125 3.0625 0.578125q1.296875 0 1.875 -0.296875q0.59375 -0.3125 0.59375 -1.140625q0 -0.53125 -0.25 -0.84375q-0.25 -0.3125 -0.8125 -0.53125q-0.5625 -0.234375 -1.671875 -0.515625q-1.671875 -0.4375 -2.34375 -1.09375q-0.671875 -0.671875 -0.671875 -1.828125q0 -1.375 1.0 -2.140625q1.015625 -0.765625 2.953125 -0.765625q0.84375 0 1.640625 0.125q0.796875 0.125 1.28125 0.296875l0 1.53125q-1.203125 -0.453125 -2.6875 -0.453125q-1.21875 0 -1.828125 0.3125q-0.59375 0.3125 -0.59375 1.09375q0 0.453125 0.21875 0.734375q0.21875 0.28125 0.734375 0.5q0.53125 0.21875 1.5625 0.46875q1.8125 0.46875 2.515625 1.203125q0.703125 0.734375 0.703125 1.90625q0 1.375 -1.03125 2.140625q-1.03125 0.765625 -3.03125 0.765625zm8.101273 0q-1.203125 0 -1.8125 -0.625q-0.609375 -0.640625 -0.609375 -1.78125l0 -3.96875l-1.109375 0l0 -1.359375l1.109375 0l0 -1.75l1.734375 -0.53125l0 2.28125l2.015625 0l-0.109375 1.359375l-1.90625 0l0 3.859375q0 0.65625 0.296875 0.921875q0.296875 0.265625 1.0 0.265625q0.421875 0 0.90625 -0.15625l0 1.234375q-0.625 0.25 -1.515625 0.25zm4.7167664 0q-1.15625 0 -1.921875 -0.59375q-0.765625 -0.609375 -0.765625 -1.71875q0 -1.125 0.75 -1.765625q0.765625 -0.65625 2.296875 -0.65625l2.421875 0l0 -0.328125q0 -0.5625 -0.171875 -0.875q-0.15625 -0.3125 -0.609375 -0.453125q-0.453125 -0.15625 -1.28125 -0.15625q-1.34375 0 -2.515625 0.40625l0 -1.296875q0.546875 -0.203125 1.28125 -0.328125q0.734375 -0.140625 1.5625 -0.140625q1.6875 0 2.546875 0.6875q0.859375 0.6875 0.859375 2.1875l0 4.875l-1.484375 0l-0.125 -0.765625q-0.46875 0.46875 -1.15625 0.703125q-0.6875 0.21875 -1.6875 0.21875zm0.46875 -1.25q0.75 0 1.34375 -0.25q0.59375 -0.25 0.96875 -0.71875l0 -1.328125l-2.390625 0q-0.78125 0 -1.125 0.296875q-0.34375 0.28125 -0.34375 0.90625q0 0.578125 0.390625 0.84375q0.390625 0.25 1.15625 0.25zm5.923889 -6.484375l1.59375 0l0.09375 0.875q0.546875 -0.359375 1.296875 -0.640625q0.75 -0.28125 1.484375 -0.40625l0 1.328125q-0.6875 0.140625 -1.484375 0.40625q-0.796875 0.25 -1.25 0.546875l0 5.46875l-1.734375 0l0 -7.578125zm8.762634 7.734375q-1.203125 0 -1.8125 -0.625q-0.609375 -0.640625 -0.609375 -1.78125l0 -3.96875l-1.109375 0l0 -1.359375l1.109375 0l0 -1.75l1.734375 -0.53125l0 2.28125l2.015625 0l-0.109375 1.359375l-1.90625 0l0 3.859375q0 0.65625 0.296875 0.921875q0.296875 0.265625 1.0 0.265625q0.421875 0 0.90625 -0.15625l0 1.234375q-0.625 0.25 -1.515625 0.25z" fill-rule="nonzero"/><path fill="#4a86e8" d="m55.981003 96.13514l193.69116 0l0 70.6368l-193.69116 0z" fill-rule="evenodd"/><path fill="#000000" fill-opacity="0.0" d="m80.1924 96.13514l0 70.6368m145.26837 -70.6368l0 70.6368" fill-rule="evenodd"/><path fill="#000000" fill-opacity="0.0" d="m55.981003 96.13514l193.69116 0l0 70.6368l-193.69116 0z" fill-rule="evenodd"/><path stroke="#ffffff" stroke-width="3.0" stroke-linejoin="round" stroke-linecap="butt" d="m80.1924 96.13514l0 70.6368m145.26837 -70.6368l0 70.6368" fill-rule="evenodd"/><path stroke="#ffffff" stroke-width="3.0" stroke-linejoin="round" stroke-linecap="butt" d="m55.981003 96.13514l193.69116 0l0 70.6368l-193.69116 0z" fill-rule="evenodd"/><path fill="#ffffff" d="m128.20578 137.46979q-0.765625 0 -1.484375 -0.109375q-0.71875 -0.09375 -1.1875 -0.265625l0 -1.484375q0.53125 0.21875 1.171875 0.328125q0.65625 0.109375 1.28125 0.109375q0.921875 0 1.28125 -0.15625q0.375 -0.15625 0.375 -0.625q0 -0.421875 -0.34375 -0.609375q-0.328125 -0.203125 -1.25 -0.5l-0.484375 -0.15625q-1.140625 -0.390625 -1.671875 -0.859375q-0.53125 -0.46875 -0.53125 -1.390625q0 -1.078125 0.765625 -1.625q0.765625 -0.5625 2.40625 -0.5625q0.625 0 1.21875 0.109375q0.609375 0.09375 1.03125 0.234375l0 1.453125q-0.421875 -0.171875 -0.96875 -0.265625q-0.53125 -0.09375 -1.015625 -0.09375q-0.875 0 -1.28125 0.15625q-0.390625 0.140625 -0.390625 0.5625q0 0.359375 0.296875 0.546875q0.3125 0.1875 1.203125 0.46875l0.34375 0.109375q0.9375 0.296875 1.4375 0.59375q0.515625 0.296875 0.75 0.71875q0.234375 0.421875 0.234375 1.09375q0 2.21875 -3.1875 2.21875zm8.736511 0q-2.015625 0 -3.09375 -0.984375q-1.0625 -1.0 -1.0625 -2.984375q0 -1.875 0.9375 -2.90625q0.953125 -1.03125 2.8125 -1.03125q1.671875 0 2.5625 0.890625q0.90625 0.875 0.90625 2.34375l0 1.40625l-5.546875 0q0.125 1.09375 0.78125 1.515625q0.65625 0.421875 2.0625 0.421875q0.578125 0 1.171875 -0.109375q0.59375 -0.109375 1.0625 -0.28125l0 1.28125q-1.0 0.4375 -2.59375 0.4375zm1.53125 -4.390625l0 -0.53125q0 -0.8125 -0.453125 -1.234375q-0.453125 -0.4375 -1.4375 -0.4375q-1.1875 0 -1.65625 0.515625q-0.46875 0.515625 -0.46875 1.6875l4.015625 0zm6.1232605 4.390625q-1.203125 0 -1.8125 -0.625q-0.609375 -0.640625 -0.609375 -1.78125l0 -3.96875l-1.109375 0l0 -1.359375l1.109375 0l0 -1.7499924l1.734375 -0.53125l0 2.2812424l2.015625 0l-0.109375 1.359375l-1.90625 0l0 3.859375q0 0.65625 0.296875 0.921875q0.296875 0.265625 1.0 0.265625q0.421875 0 0.90625 -0.15625l0 1.234375q-0.625 0.25 -1.515625 0.25zm5.25177 0q-1.359375 0 -2.09375 -0.75q-0.734375 -0.765625 -0.734375 -2.203125l0 -4.78125l1.75 0l0 4.78125q0 0.84375 0.40625 1.25q0.421875 0.390625 1.296875 0.390625q0.609375 0 1.15625 -0.21875q0.546875 -0.234375 0.96875 -0.65625l0 -5.546875l1.71875 0l0 7.578125l-1.578125 0l-0.078125 -0.78125q-1.203125 0.9375 -2.8125 0.9375zm6.5136414 -7.734375l1.5 0l0.09375 0.75q0.53125 -0.46875 1.140625 -0.6875q0.609375 -0.234375 1.421875 -0.234375q1.6875 0 2.5625 0.921875q0.890625 0.90625 0.890625 2.90625q0 2.015625 -0.9375 3.046875q-0.921875 1.03125 -2.578125 1.03125q-1.375 0 -2.359375 -0.640625l0 3.9375l-1.734375 0l0 -11.03125zm3.640625 6.421875q1.125 0 1.65625 -0.6875q0.546875 -0.6875 0.546875 -2.09375q0 -1.34375 -0.5 -1.90625q-0.484375 -0.578125 -1.65625 -0.578125q-1.171875 0 -1.953125 0.8125l0 3.78125q0.765625 0.671875 1.90625 0.671875zm13.419525 2.3125q-1.109375 -0.984375 -1.640625 -2.59375q-0.515625 -1.609375 -0.515625 -3.40625q0 -1.8125 0.515625 -3.40625q0.53125 -1.6093674 1.640625 -2.5937424l1.96875 0q-2.359375 2.0468674 -2.359375 5.9999924q0 3.953125 2.359375 6.0l-1.96875 0zm2.7312622 0q1.234375 -1.078125 1.796875 -2.578125q0.5625 -1.5 0.5625 -3.421875q0 -3.96875 -2.359375 -5.9999924l1.984375 0q1.09375 0.984375 1.609375 2.5937424q0.53125 1.609375 0.53125 3.40625q0 1.796875 -0.53125 3.40625q-0.515625 1.609375 -1.609375 2.59375l-1.984375 0z" fill-rule="nonzero"/><path fill="#4a86e8" d="m55.982784 198.5806l193.69116 0l0 70.63681l-193.69116 0z" fill-rule="evenodd"/><path fill="#000000" fill-opacity="0.0" d="m80.19418 198.5806l0 70.63681m145.26837 -70.63681l0 70.63681" fill-rule="evenodd"/><path fill="#000000" fill-opacity="0.0" d="m55.982784 198.5806l193.69116 0l0 70.63681l-193.69116 0z" fill-rule="evenodd"/><path stroke="#ffffff" stroke-width="3.0" stroke-linejoin="round" stroke-linecap="butt" d="m80.19418 198.5806l0 70.63681m145.26837 -70.63681l0 70.63681" fill-rule="evenodd"/><path stroke="#ffffff" stroke-width="3.0" stroke-linejoin="round" stroke-linecap="butt" d="m55.982784 198.5806l193.69116 0l0 70.63681l-193.69116 0z" fill-rule="evenodd"/><path fill="#ffffff" d="m131.92694 239.91525q-0.953125 0 -1.421875 -0.453125q-0.453125 -0.46875 -0.453125 -1.515625l0 -8.96875l1.734375 0l0 8.8125q0 0.4375 0.15625 0.609375q0.15625 0.15625 0.484375 0.15625q0.390625 0 0.734375 -0.09375l0 1.265625q-0.53125 0.1875 -1.234375 0.1875zm5.51001 0q-3.953125 0 -3.953125 -3.953125q0 -3.953125 3.953125 -3.953125q3.96875 0 3.96875 3.953125q0 3.953125 -3.96875 3.953125zm0 -1.46875q1.203125 0 1.703125 -0.578125q0.5 -0.578125 0.5 -1.90625q0 -1.3125 -0.5 -1.875q-0.5 -0.578125 -1.703125 -0.578125q-1.1875 0 -1.6875 0.578125q-0.5 0.5625 -0.5 1.875q0 1.328125 0.5 1.90625q0.5 0.578125 1.6875 0.578125zm8.896027 1.46875q-3.953125 0 -3.953125 -3.953125q0 -3.953125 3.953125 -3.953125q3.96875 0 3.96875 3.953125q0 3.953125 -3.96875 3.953125zm0 -1.46875q1.203125 0 1.703125 -0.578125q0.5 -0.578125 0.5 -1.90625q0 -1.3125 -0.5 -1.875q-0.5 -0.578125 -1.703125 -0.578125q-1.1875 0 -1.6875 0.578125q-0.5 0.5625 -0.5 1.875q0 1.328125 0.5 1.90625q0.5 0.578125 1.6875 0.578125zm5.6710205 -6.265625l1.5 0l0.09375 0.75q0.53125 -0.46875 1.140625 -0.6875q0.609375 -0.234375 1.421875 -0.234375q1.6875 0 2.5625 0.921875q0.890625 0.90625 0.890625 2.90625q0 2.015625 -0.9375 3.046875q-0.921875 1.03125 -2.578125 1.03125q-1.375 0 -2.359375 -0.640625l0 3.9375l-1.734375 0l0 -11.03125zm3.640625 6.421875q1.125 0 1.65625 -0.6875q0.546875 -0.6875 0.546875 -2.09375q0 -1.34375 -0.5 -1.90625q-0.484375 -0.578125 -1.65625 -0.578125q-1.171875 0 -1.953125 0.8125l0 3.78125q0.765625 0.671875 1.90625 0.671875zm13.419525 2.3125q-1.109375 -0.984375 -1.640625 -2.59375q-0.515625 -1.609375 -0.515625 -3.40625q0 -1.8125 0.515625 -3.40625q0.53125 -1.609375 1.640625 -2.59375l1.96875 0q-2.359375 2.046875 -2.359375 6.0q0 3.953125 2.359375 6.0l-1.96875 0zm2.7312622 0q1.234375 -1.078125 1.796875 -2.578125q0.5625 -1.5 0.5625 -3.421875q0 -3.96875 -2.359375 -6.0l1.984375 0q1.09375 0.984375 1.609375 2.59375q0.53125 1.609375 0.53125 3.40625q0 1.796875 -0.53125 3.40625q-0.515625 1.609375 -1.609375 2.59375l-1.984375 0z" fill-rule="nonzero"/><path fill="#000000" fill-opacity="0.0" d="m152.82735 61.730392l0 34.3937" fill-rule="evenodd"/><path stroke="#000000" stroke-width="1.0" stroke-linejoin="round" stroke-linecap="butt" d="m152.82735 61.730392l0 28.393707" fill-rule="evenodd"/><path fill="#000000" stroke="#000000" stroke-width="1.0" stroke-linecap="butt" d="m151.17561 90.1241l1.6517334 4.5380936l1.6517334 -4.5380936z" fill-rule="evenodd"/><path fill="#000000" fill-opacity="0.0" d="m152.82658 166.77194l0 31.81102" fill-rule="evenodd"/><path stroke="#000000" stroke-width="1.0" stroke-linejoin="round" stroke-linecap="butt" d="m152.82658 166.77194l0 25.81102" fill-rule="evenodd"/><path fill="#000000" stroke="#000000" stroke-width="1.0" stroke-linecap="butt" d="m151.17485 192.58296l1.6517334 4.538101l1.6517334 -4.538101z" fill-rule="evenodd"/><path fill="#000000" fill-opacity="0.0" d="m152.82837 269.2174l0 29.941101l-130.7461 0l0 -65.2482l33.8957 0" fill-rule="evenodd"/><path stroke="#000000" stroke-width="1.0" stroke-linejoin="round" stroke-linecap="butt" d="m152.82835 269.2174l0 29.941132l-130.74608 0l0 -65.24823l27.895704 0" fill-rule="evenodd"/><path fill="#000000" stroke="#000000" stroke-width="1.0" stroke-linecap="butt" d="m49.977974 235.56204l4.5380974 -1.6517334l-4.5380974 -1.6517334z" fill-rule="evenodd"/><path fill="#cc0000" d="m453.09775 20.72441l94.52133 0l0 0c12.382568 0 22.420593 9.1795025 22.420593 20.502993c0 11.32349 -10.038025 20.50299 -22.420593 20.50299l-94.52133 0l0 0c-12.382568 0 -22.420593 -9.179501 -22.420593 -20.50299c0 -11.32349 10.038025 -20.502993 22.420593 -20.502993z" fill-rule="evenodd"/><path fill="#ffffff" d="m475.7376 47.243652q-0.765625 0 -1.484375 -0.109375q-0.71875 -0.09375 -1.1875 -0.265625l0 -1.484375q0.53125 0.21875 1.171875 0.328125q0.65625 0.109375 1.28125 0.109375q0.921875 0 1.28125 -0.15625q0.375 -0.15625 0.375 -0.625q0 -0.421875 -0.34375 -0.609375q-0.328125 -0.203125 -1.25 -0.5l-0.484375 -0.15625q-1.140625 -0.390625 -1.671875 -0.859375q-0.53125 -0.46875 -0.53125 -1.390625q0 -1.078125 0.765625 -1.625q0.765625 -0.5625 2.40625 -0.5625q0.625 0 1.21875 0.109375q0.609375 0.09375 1.03125 0.234375l0 1.453125q-0.421875 -0.171875 -0.96875 -0.265625q-0.53125 -0.09375 -1.015625 -0.09375q-0.875 0 -1.28125 0.15625q-0.390625 0.140625 -0.390625 0.5625q0 0.359375 0.296875 0.546875q0.3125 0.1875 1.203125 0.46875l0.34375 0.109375q0.9375 0.296875 1.4375 0.59375q0.515625 0.296875 0.75 0.71875q0.234375 0.421875 0.234375 1.09375q0 2.21875 -3.1875 2.21875zm8.736511 0q-2.015625 0 -3.09375 -0.984375q-1.0625 -1.0 -1.0625 -2.984375q0 -1.875 0.9375 -2.90625q0.953125 -1.03125 2.8125 -1.03125q1.671875 0 2.5625 0.890625q0.90625 0.875 0.90625 2.34375l0 1.40625l-5.546875 0q0.125 1.09375 0.78125 1.515625q0.65625 0.421875 2.0625 0.421875q0.578125 0 1.171875 -0.109375q0.59375 -0.109375 1.0625 -0.28125l0 1.28125q-1.0 0.4375 -2.59375 0.4375zm1.53125 -4.390625l0 -0.53125q0 -0.8125 -0.453125 -1.234375q-0.453125 -0.4375 -1.4375 -0.4375q-1.1875 0 -1.65625 0.515625q-0.46875 0.515625 -0.46875 1.6875l4.015625 0zm6.1232605 4.390625q-1.203125 0 -1.8125 -0.625q-0.609375 -0.640625 -0.609375 -1.78125l0 -3.96875l-1.109375 0l0 -1.359375l1.109375 0l0 -1.75l1.734375 -0.53125l0 2.28125l2.015625 0l-0.109375 1.359375l-1.90625 0l0 3.859375q0 0.65625 0.296875 0.921875q0.296875 0.265625 1.0 0.265625q0.421875 0 0.90625 -0.15625l0 1.234375q-0.625 0.25 -1.515625 0.25zm5.25177 0q-1.359375 0 -2.09375 -0.75q-0.734375 -0.765625 -0.734375 -2.203125l0 -4.78125l1.75 0l0 4.78125q0 0.84375 0.40625 1.25q0.421875 0.390625 1.296875 0.390625q0.609375 0 1.15625 -0.21875q0.546875 -0.234375 0.96875 -0.65625l0 -5.546875l1.71875 0l0 7.578125l-1.578125 0l-0.078125 -0.78125q-1.203125 0.9375 -2.8125 0.9375zm6.5136414 -7.734375l1.5 0l0.09375 0.75q0.53125 -0.46875 1.140625 -0.6875q0.609375 -0.234375 1.421875 -0.234375q1.6875 0 2.5625 0.921875q0.890625 0.90625 0.890625 2.90625q0 2.015625 -0.9375 3.046875q-0.921875 1.03125 -2.578125 1.03125q-1.375 0 -2.359375 -0.640625l0 3.9375l-1.734375 0l0 -11.03125zm3.640625 6.421875q1.125 0 1.65625 -0.6875q0.546875 -0.6875 0.546875 -2.09375q0 -1.34375 -0.5 -1.90625q-0.484375 -0.578125 -1.65625 -0.578125q-1.171875 0 -1.953125 0.8125l0 3.78125q0.765625 0.671875 1.90625 0.671875zm13.419495 2.3125q-1.109375 -0.984375 -1.640625 -2.59375q-0.515625 -1.609375 -0.515625 -3.40625q0 -1.8125 0.515625 -3.40625q0.53125 -1.609375 1.640625 -2.59375l1.96875 0q-2.359375 2.046875 -2.359375 6.0q0 3.953125 2.359375 6.0l-1.96875 0zm2.7312622 0q1.234375 -1.078125 1.796875 -2.578125q0.5625 -1.5 0.5625 -3.421875q0 -3.96875 -2.359375 -6.0l1.984375 0q1.09375 0.984375 1.609375 2.59375q0.53125 1.609375 0.53125 3.40625q0 1.796875 -0.53125 3.40625q-0.515625 1.609375 -1.609375 2.59375l-1.984375 0z" fill-rule="nonzero"/><path fill="#cc0000" d="m453.09988 189.51366l94.52133 0l0 0c12.382568 0 22.420593 9.179504 22.420593 20.50299c0 11.323486 -10.038025 20.50299 -22.420593 20.50299l-94.52133 0l0 0c-12.382538 0 -22.420593 -9.179504 -22.420593 -20.50299c0 -11.323486 10.038055 -20.50299 22.420593 -20.50299z" fill-rule="evenodd"/><path fill="#ffffff" d="m495.29367 216.0329q-0.34375 0 -0.75 -0.0625q-0.390625 -0.046875 -0.625 -0.140625l-1.28125 -3.40625l-1.109375 0l0.078125 -1.3125l2.125 0l1.328125 3.546875q1.140625 0.046875 1.828125 -0.71875q0.6875 -0.765625 0.6875 -2.46875q0 -1.125 -0.296875 -1.765625q-0.296875 -0.65625 -0.96875 -0.9375q-0.671875 -0.28125 -1.859375 -0.28125q-1.46875 0 -2.734375 0.421875l0 -1.34375q1.515625 -0.484375 3.203125 -0.484375q2.234375 0 3.28125 1.109375q1.0625 1.109375 1.0625 3.28125q0 1.453125 -0.546875 2.484375q-0.53125 1.03125 -1.4375 1.5625q-0.90625 0.515625 -1.984375 0.515625zm9.604034 0q-1.875 0 -2.90625 -0.875q-1.0312805 -0.890625 -1.0312805 -2.640625l0 -5.28125l1.7344055 0l0 5.34375q0 1.0625 0.546875 1.5625q0.5625 0.5 1.65625 0.5q1.109375 0 1.671875 -0.5q0.5625 -0.5 0.5625 -1.5625l0 -5.34375l1.71875 0l0 5.28125q0 1.75 -1.03125 2.640625q-1.015625 0.875 -2.921875 0.875z" fill-rule="nonzero"/><path fill="#cc0000" d="m813.16425 55.120735l94.5213 0l0 0c12.382568 0 22.420593 9.179504 22.420593 20.50299c0 11.323494 -10.038025 20.50299 -22.420593 20.50299l-94.5213 0l0 0c-12.382568 0 -22.420593 -9.179497 -22.420593 -20.50299c0 -11.323486 10.038025 -20.50299 22.420593 -20.50299z" fill-rule="evenodd"/><path fill="#ffffff" d="m839.5235 81.63998q-0.953125 0 -1.421875 -0.453125q-0.453125 -0.46875 -0.453125 -1.515625l0 -8.96875l1.734375 0l0 8.8125q0 0.4375 0.15625 0.609375q0.15625 0.15625 0.484375 0.15625q0.390625 0 0.734375 -0.09375l0 1.265625q-0.53125 0.1875 -1.234375 0.1875zm5.51001 0q-3.953125 0 -3.953125 -3.953125q0 -3.953125 3.953125 -3.953125q3.96875 0 3.96875 3.953125q0 3.953125 -3.96875 3.953125zm0 -1.46875q1.203125 0 1.703125 -0.578125q0.5 -0.578125 0.5 -1.90625q0 -1.3125 -0.5 -1.875q-0.5 -0.578125 -1.703125 -0.578125q-1.1875 0 -1.6875 0.578125q-0.5 0.5625 -0.5 1.875q0 1.328125 0.5 1.90625q0.5 0.578125 1.6875 0.578125zm8.895996 1.46875q-3.953125 0 -3.953125 -3.953125q0 -3.953125 3.953125 -3.953125q3.96875 0 3.96875 3.953125q0 3.953125 -3.96875 3.953125zm0 -1.46875q1.203125 0 1.703125 -0.578125q0.5 -0.578125 0.5 -1.90625q0 -1.3125 -0.5 -1.875q-0.5 -0.578125 -1.703125 -0.578125q-1.1875 0 -1.6875 0.578125q-0.5 0.5625 -0.5 1.875q0 1.328125 0.5 1.90625q0.5 0.578125 1.6875 0.578125zm5.6710205 -6.265625l1.5 0l0.09375 0.75q0.53125 -0.46875 1.140625 -0.6875q0.609375 -0.234375 1.421875 -0.234375q1.6875 0 2.5625 0.921875q0.890625 0.90625 0.890625 2.90625q0 2.015625 -0.9375 3.046875q-0.921875 1.03125 -2.578125 1.03125q-1.375 0 -2.359375 -0.640625l0 3.9375l-1.734375 0l0 -11.03125zm3.640625 6.421875q1.125 0 1.65625 -0.6875q0.546875 -0.6875 0.546875 -2.09375q0 -1.34375 -0.5 -1.90625q-0.484375 -0.578125 -1.65625 -0.578125q-1.171875 0 -1.953125 0.8125l0 3.78125q0.765625 0.671875 1.90625 0.671875zm13.419556 2.3125q-1.109375 -0.984375 -1.640625 -2.59375q-0.515625 -1.609375 -0.515625 -3.40625q0 -1.8125 0.515625 -3.40625q0.53125 -1.609375 1.640625 -2.59375l1.96875 0q-2.359375 2.046875 -2.359375 6.0q0 3.953125 2.359375 6.0l-1.96875 0zm2.7312622 0q1.234375 -1.078125 1.796875 -2.578125q0.5625 -1.5 0.5625 -3.421875q0 -3.96875 -2.359375 -6.0l1.984375 0q1.09375 0.984375 1.609375 2.59375q0.53125 1.609375 0.53125 3.40625q0 1.796875 -0.53125 3.40625q-0.515625 1.609375 -1.609375 2.59375l-1.984375 0z" fill-rule="nonzero"/><path fill="#000000" fill-opacity="0.0" d="m500.3584 61.730392l0 34.3937" fill-rule="evenodd"/><path stroke="#000000" stroke-width="1.0" stroke-linejoin="round" stroke-linecap="butt" d="m500.3584 61.730392l0 28.393707" fill-rule="evenodd"/><path fill="#000000" stroke="#000000" stroke-width="1.0" stroke-linecap="butt" d="m498.70667 90.1241l1.6517334 4.5380936l1.6517334 -4.5380936z" fill-rule="evenodd"/><path fill="#000000" fill-opacity="0.0" d="m500.36057 155.11996l0 34.393692" fill-rule="evenodd"/><path stroke="#000000" stroke-width="1.0" stroke-linejoin="round" stroke-linecap="butt" d="m500.36057 155.11995l0 28.393707" fill-rule="evenodd"/><path fill="#000000" stroke="#000000" stroke-width="1.0" stroke-linecap="butt" d="m498.70883 183.51366l1.6517334 4.538101l1.6517334 -4.538101z" fill-rule="evenodd"/><path fill="#000000" fill-opacity="0.0" d="m860.4249 96.12672l0 34.3937" fill-rule="evenodd"/><path stroke="#000000" stroke-width="1.0" stroke-linejoin="round" stroke-linecap="butt" d="m860.42487 96.126724l0 28.3937" fill-rule="evenodd"/><path fill="#000000" stroke="#000000" stroke-width="1.0" stroke-linecap="butt" d="m858.77313 124.520424l1.6517334 4.5380936l1.6517334 -4.5380936z" fill-rule="evenodd"/><path fill="#cc0000" d="m793.53955 501.78006l94.52136 0l0 0c12.382568 0 22.420593 9.179504 22.420593 20.503021c0 11.323486 -10.038025 20.50299 -22.420593 20.50299l-94.52136 0l0 0c-12.382507 0 -22.420593 -9.179504 -22.420593 -20.50299c0 -11.323517 10.038086 -20.503021 22.420593 -20.503021z" fill-rule="evenodd"/><path fill="#ffffff" d="m835.73334 528.2993q-0.34375 0 -0.75 -0.0625q-0.390625 -0.046875 -0.625 -0.140625l-1.28125 -3.40625l-1.109375 0l0.078125 -1.3125l2.125 0l1.328125 3.546875q1.140625 0.046875 1.828125 -0.71875q0.6875 -0.765625 0.6875 -2.46875q0 -1.125 -0.296875 -1.765625q-0.296875 -0.65625 -0.96875 -0.9375q-0.671875 -0.28125 -1.859375 -0.28125q-1.46875 0 -2.734375 0.421875l0 -1.34375q1.515625 -0.484375 3.203125 -0.484375q2.234375 0 3.28125 1.109375q1.0625 1.109375 1.0625 3.28125q0 1.453125 -0.546875 2.484375q-0.53125 1.03125 -1.4375 1.5625q-0.90625 0.515625 -1.984375 0.515625zm9.604004 0q-1.875 0 -2.90625 -0.875q-1.03125 -0.890625 -1.03125 -2.640625l0 -5.28125l1.734375 0l0 5.34375q0 1.0625 0.546875 1.5625q0.5625 0.5 1.65625 0.5q1.109375 0 1.671875 -0.5q0.5625 -0.5 0.5625 -1.5625l0 -5.34375l1.71875 0l0 5.28125q0 1.75 -1.03125 2.640625q-1.015625 0.875 -2.921875 0.875z" fill-rule="nonzero"/><path fill="#000000" fill-opacity="0.0" d="m840.80023 467.38635l0 34.393707" fill-rule="evenodd"/><path stroke="#000000" stroke-width="1.0" stroke-linejoin="round" stroke-linecap="butt" d="m840.8002 467.38635l0 28.393707" fill-rule="evenodd"/><path fill="#000000" stroke="#000000" stroke-width="1.0" stroke-linecap="butt" d="m839.14844 495.78006l1.6517334 4.538086l1.6517334 -4.538086z" fill-rule="evenodd"/><path fill="#4a86e8" d="m436.79922 96.125984l127.11807 0l0 58.99212l-127.11807 0z" fill-rule="evenodd"/><path fill="#ffffff" d="m455.75055 109.73205q0 -0.8125 0.265625 -1.34375q0.28125 -0.546875 0.96875 -0.75l-1.625 -0.4375l0 -2.0625q0.75 -0.625 1.84375 -1.03125q1.09375 -0.421875 2.40625 -0.421875q2.046875 0 3.078125 0.828125q1.03125 0.8125 1.03125 2.75l0 5.21875l-2.15625 0l0 -5.265625q0 -1.0 -0.46875 -1.421875q-0.46875 -0.4375 -1.59375 -0.4375q-0.6875 0 -1.296875 0.21875q-0.609375 0.203125 -0.984375 0.515625l0 0.234375l1.765625 0.46875l0 1.3125q-0.625 0.171875 -0.84375 0.53125q-0.21875 0.359375 -0.21875 1.109375l0 2.734375l-2.171875 0l0 -2.75zm6.9520264 -6.796875q-0.8125 0 -1.375 -0.515625q-0.5625 -0.53125 -0.5625 -1.328125q0 -0.796875 0.5625 -1.328125q0.5625 -0.53125 1.375 -0.53125q0.8125 0 1.375 0.53125q0.546875 0.53125 0.546875 1.328125q0 0.796875 -0.546875 1.328125q-0.5625 0.515625 -1.375 0.515625zm0 -1.140625q0.28125 0 0.5 -0.21875q0.203125 -0.21875 0.203125 -0.484375q0 -0.296875 -0.203125 -0.5q-0.21875 -0.21875 -0.5 -0.21875q-0.28125 0 -0.5 0.21875q-0.21875 0.203125 -0.21875 0.5q0 0.265625 0.21875 0.484375q0.21875 0.21875 0.5 0.21875zm5.984375 5.375q0 -0.921875 -0.359375 -1.359375q-0.359375 -0.453125 -1.328125 -0.453125q-0.5 0 -1.09375 0.125q-0.59375 0.109375 -1.078125 0.296875l0 -1.578125q0.5 -0.234375 1.203125 -0.375q0.703125 -0.140625 1.390625 -0.140625q1.8125 0 2.609375 0.765625q0.8125 0.765625 0.8125 2.421875l0 5.609375l-2.15625 0l0 -5.3125zm4.057495 -3.328125l2.171875 0l0 2.625l2.140625 0q0.796875 0 1.125 -0.34375q0.328125 -0.359375 0.328125 -1.109375l0 -1.171875l2.15625 0l0 1.09375q0 1.796875 -1.234375 2.296875q0.640625 0.265625 0.90625 0.765625q0.265625 0.5 0.265625 1.265625l0 3.21875l-2.15625 0l0 -2.96875q0 -0.828125 -0.3125 -1.140625q-0.3125 -0.328125 -1.125 -0.328125l-2.09375 0l0 4.4375l-2.171875 0l0 -8.640625zm12.76004 8.796875q-1.390625 0 -2.203125 -0.84375q-0.796875 -0.84375 -0.796875 -2.34375l0 -5.609375l2.171875 0l0 5.484375q0 0.875 0.375 1.265625q0.390625 0.375 1.171875 0.375q0.59375 0 1.171875 -0.25q0.59375 -0.265625 0.9375 -0.65625l0 -6.21875l2.15625 0l0 8.640625l-1.984375 0l-0.09375 -0.84375q-1.25 1.0 -2.90625 1.0zm10.1848755 0q-1.640625 0 -2.625 -1.0625q-0.984375 -1.0625 -0.984375 -3.234375q0 -2.234375 1.140625 -3.4375q1.15625 -1.21875 3.375 -1.21875q1.46875 0 2.453125 0.5q0.984375 0.484375 1.4375 1.3125q0.453125 0.8125 0.453125 1.765625l0 5.21875l-2.15625 0l0 -5.078125q0 -0.96875 -0.515625 -1.5q-0.5 -0.546875 -1.703125 -0.546875q-2.4375 0 -2.4375 2.984375q0 1.40625 0.484375 2.015625q0.484375 0.609375 1.46875 0.609375q0.734375 0 1.109375 -0.125l0 1.578125q-0.59375 0.21875 -1.5 0.21875zm8.823029 -0.15625q-1.03125 0 -1.46875 -0.421875q-0.421875 -0.421875 -0.421875 -1.375l0 -3.453125q0 -0.8125 0.296875 -1.359375q0.3125 -0.5625 0.859375 -1.171875q0.3125 -0.34375 0.453125 -0.546875q0.140625 -0.203125 0.140625 -0.40625q0 -0.40625 -0.234375 -0.5625q-0.21875 -0.171875 -0.71875 -0.171875q-0.859375 0 -1.6875 0.484375l0 -1.5625q0.46875 -0.28125 1.140625 -0.4375q0.671875 -0.171875 1.328125 -0.171875q1.1875 0 1.796875 0.46875q0.625 0.46875 0.625 1.375q0 0.578125 -0.234375 1.0q-0.21875 0.40625 -0.65625 1.0q-0.46875 0.59375 -0.71875 1.0625q-0.234375 0.453125 -0.234375 1.078125l0 2.8125q0 0.671875 0.65625 0.671875l0.546875 0l0 1.6875l-1.46875 0zm3.1281433 -8.640625l2.171875 0l0 2.625l2.140625 0q0.7968445 0 1.1249695 -0.34375q0.328125 -0.359375 0.328125 -1.109375l0 -1.171875l2.15625 0l0 1.09375q0 1.796875 -1.234375 2.296875q0.640625 0.265625 0.90625 0.765625q0.265625 0.5 0.265625 1.265625l0 3.21875l-2.15625 0l0 -2.96875q0 -0.828125 -0.3125 -1.140625q-0.3125 -0.328125 -1.1249695 -0.328125l-2.09375 0l0 4.4375l-2.171875 0l0 -8.640625zm3.9787598 -2.609375l-1.25 0l0 -1.46875l2.7031555 0l0 1.421875l3.421875 0l-0.078125 1.46875l-4.7969055 0l0 -1.421875zm11.54129 0.953125l4.84375 0q1.734375 0 2.625 0.96875q0.90625 0.96875 0.90625 2.578125q0 1.03125 -0.4375 1.84375q-0.4375 0.796875 -1.265625 1.234375q-0.8125 0.4375 -1.890625 0.4375l-2.609375 0l0 3.234375l-2.171875 0l0 -10.296875zm4.328125 5.359375q0.90625 0 1.390625 -0.484375q0.484375 -0.484375 0.484375 -1.328125q0 -0.890625 -0.453125 -1.359375q-0.453125 -0.484375 -1.34375 -0.484375l-2.234375 0l0 3.65625l2.15625 0zm5.808655 -5.734375l2.34375 0l0 1.703125l-2.34375 0l0 -1.703125zm0.171875 4.6875l-1.140625 0l0.203125 -1.59375l3.09375 0l0 7.578125l-2.15625 0l0 -5.984375zm3.9953613 -1.59375l2.0 0l0.078125 0.71875q0.515625 -0.390625 1.21875 -0.640625q0.703125 -0.25 1.453125 -0.25q1.5 0 2.1875 0.703125q0.703125 0.6875 0.703125 2.1875l0 4.859375l-2.15625 0l0 -4.75q0 -0.78125 -0.328125 -1.09375q-0.3125 -0.3125 -1.15625 -0.3125q-0.484375 0 -0.984375 0.21875q-0.5 0.203125 -0.84375 0.5625l0 5.375l-2.171875 0l0 -7.578125z" fill-rule="nonzero"/><path fill="#ffffff" d="m486.304 130.43518q0.375 -0.828125 1.0 -1.515625q0.625 -0.703125 1.671875 -1.6250076l0.421875 -0.375q0.75 -0.6875 1.0625 -1.015625q0.3125 -0.328125 0.4375 -0.671875q0.140625 -0.34375 0.140625 -0.875q0 -0.734375 -0.484375 -1.109375q-0.46875 -0.375 -1.40625 -0.375q-1.234375 0 -2.484375 0.5l0 -1.90625q0.59375 -0.203125 1.40625 -0.328125q0.8125 -0.125 1.5625 -0.125q1.765625 0 2.671875 0.875q0.921875 0.875 0.921875 2.421875q0 0.984375 -0.46875 1.71875q-0.453125 0.734375 -1.40625 1.546875l-0.25 0.21875q-0.71875 0.6250076 -1.1875 1.0937576q-0.46875 0.453125 -0.796875 0.9375l4.203125 0l0 1.65625l-7.015625 0l0 -1.046875zm8.208008 -4.1406326l6.171875 0l0 1.6875l-6.171875 0l0 -1.6875zm9.031921 -3.171875l-1.671875 0.28125l0 -1.8125l3.84375 -0.578125l0 10.468758l-2.171875 0l0 -8.359383zm6.734619 8.515633q-0.71875 0 -1.625 -0.140625q-0.90625 -0.140625 -1.4375 -0.359375l0 -1.875q1.234375 0.515625 2.75 0.515625q1.171875 0 1.703125 -0.328125q0.5312805 -0.328125 0.5312805 -1.125q0 -0.6718826 -0.46878052 -0.9687576q-0.46875 -0.296875 -1.40625 -0.296875l-1.625 0l0.15625 -1.578125l1.34375 0q0.9375 0 1.359375 -0.3125q0.4375 -0.3125 0.4375 -0.984375q0 -0.671875 -0.5 -1.0q-0.484375 -0.328125 -1.546875 -0.328125q-0.671875 0 -1.359375 0.140625q-0.671875 0.125 -1.203125 0.375l0 -1.84375q0.53125 -0.21875 1.328125 -0.359375q0.8125 -0.15625 1.609375 -0.15625q1.8594055 0 2.8594055 0.796875q1.0 0.78125 1.0 2.078125q0 0.796875 -0.359375 1.453125q-0.359375 0.640625 -1.046875 0.921875q0.8125 0.25 1.21875 0.84375q0.40625 0.59375 0.40625 1.4531326q0 1.53125 -1.109375 2.3125q-1.109375 0.765625 -3.0156555 0.765625z" fill-rule="nonzero"/><path fill="#ffffff" d="m457.5779 150.48206q-1.015625 0 -1.453125 -0.421875q-0.4375 -0.421875 -0.4375 -1.375l0 -6.84375l2.171875 0l0 6.28125q0 0.671875 0.65625 0.671875l0.53125 0l0 1.6875l-1.46875 0zm7.115509 0.15625q-1.953125 0 -3.046875 -0.921875q-1.078125 -0.921875 -1.078125 -2.703125l0 -5.171875l2.171875 0l0 5.203125q0 0.96875 0.484375 1.453125q0.484375 0.46875 1.46875 0.46875q0.96875 0 1.453125 -0.46875q0.484375 -0.484375 0.484375 -1.453125l0 -7.765625l2.171875 0l0 7.734375q0 1.78125 -1.09375 2.703125q-1.078125 0.921875 -3.015625 0.921875zm-2.452362 -9.5625q-0.984375 0 -1.515625 -0.5q-0.546875 -0.515625 -0.546875 -1.4375q0 -0.90625 0.578125 -1.453125q0.578125 -0.5625 1.640625 -0.5625l3.578125 0l-0.09375 1.203125l-3.28125 0q-0.46875 0 -0.71875 0.1875q-0.25 0.1875 -0.25 0.625q0 0.75 0.75 0.75q0.734375 0 0.734375 -0.640625l0 -0.28125l1.28125 0l0 0.28125q0 0.328125 0.171875 0.46875q0.171875 0.125 0.515625 0.125l0.609375 0l0 1.203125l-0.765625 0q-0.421875 0 -0.734375 -0.125q-0.328125 -0.125 -0.453125 -0.375q-0.15625 0.234375 -0.59375 0.390625q-0.4375 0.140625 -0.90625 0.140625zm11.455383 9.5625q-1.390625 0 -2.203125 -0.84375q-0.796875 -0.84375 -0.796875 -2.34375l0 -5.609375l2.171875 0l0 5.484375q0 0.875 0.375 1.265625q0.390625 0.375 1.171875 0.375q0.59375 0 1.171875 -0.25q0.59375 -0.265625 0.9375 -0.65625l0 -6.21875l2.15625 0l0 8.640625l-1.984375 0l-0.09375 -0.84375q-1.25 1.0 -2.90625 1.0zm17.33554 0q-5.0 0 -5.0 -5.265625q0 -2.78125 1.234375 -4.0625q1.25 -1.296875 3.765625 -1.296875q2.53125 0 3.765625 1.296875q1.25 1.28125 1.25 4.0625q0 5.265625 -5.015625 5.265625zm0 -1.84375q1.453125 0 2.140625 -0.828125q0.6875 -0.84375 0.6875 -2.59375q0 -1.90625 -0.671875 -2.703125q-0.671875 -0.8125 -2.15625 -0.8125q-1.46875 0 -2.140625 0.8125q-0.671875 0.796875 -0.671875 2.703125q0 1.75 0.6875 2.59375q0.6875 0.828125 2.125 0.828125zm11.043762 1.84375q-2.15625 0 -3.390625 -1.03125q-1.21875 -1.046875 -1.21875 -3.0l0 -6.421875l2.15625 0l0 6.265625q0 1.171875 0.625 1.765625q0.640625 0.578125 1.828125 0.578125q1.1875 0 1.8125 -0.578125q0.625 -0.59375 0.625 -1.765625l0 -6.265625l2.15625 0l0 6.421875q0 1.9375 -1.21875 2.984375q-1.21875 1.046875 -3.375 1.046875zm8.864044 -8.796875l-3.171875 0l0 -1.65625l8.4843445 0l0 1.65625l-3.15625 0l0 8.640625l-2.1562195 0l0 -8.640625zm6.4927673 -1.65625l4.84375 0q1.734375 0 2.625 0.96875q0.90625 0.96875 0.90625 2.578125q0 1.03125 -0.4375 1.84375q-0.4375 0.796875 -1.265625 1.234375q-0.8125 0.4375 -1.890625 0.4375l-2.609375 0l0 3.234375l-2.171875 0l0 -10.296875zm4.328125 5.359375q0.90625 0 1.390625 -0.484375q0.484375 -0.484375 0.484375 -1.328125q0 -0.890625 -0.453125 -1.359375q-0.453125 -0.484375 -1.34375 -0.484375l-2.234375 0l0 3.65625l2.15625 0zm9.771118 5.09375q-2.15625 0 -3.390625 -1.03125q-1.21875 -1.046875 -1.21875 -3.0l0 -6.421875l2.15625 0l0 6.265625q0 1.171875 0.625 1.765625q0.640625 0.578125 1.828125 0.578125q1.1875 0 1.8125 -0.578125q0.625 -0.59375 0.625 -1.765625l0 -6.265625l2.15625 0l0 6.421875q0 1.9375 -1.21875 2.984375q-1.21875 1.046875 -3.375 1.046875zm8.864075 -8.796875l-3.171875 0l0 -1.65625l8.484375 0l0 1.65625l-3.15625 0l0 8.640625l-2.15625 0l0 -8.640625z" fill-rule="nonzero"/><path fill="#0f9d58" d="m751.04724 183.41602l13.62207 -54.48819l191.51178 0l-13.622009 54.48819z" fill-rule="evenodd"/><path fill="#ffffff" d="m784.8163 151.73505l4.84375 0q1.734375 0 2.625 0.96875q0.90625 0.96875 0.90625 2.578125q0 1.03125 -0.4375 1.84375q-0.4375 0.796875 -1.265625 1.234375q-0.8125 0.4375 -1.890625 0.4375l-2.609375 0l0 3.234375l-2.171875 0l0 -10.296875zm4.328125 5.359375q0.90625 0 1.390625 -0.484375q0.484375 -0.484375 0.484375 -1.328125q0 -0.890625 -0.453125 -1.359375q-0.453125 -0.484375 -1.34375 -0.484375l-2.234375 0l0 3.65625l2.15625 0zm5.808655 -5.734375l2.34375 0l0 1.703125l-2.34375 0l0 -1.703125zm0.171875 4.6875l-1.140625 0l0.203125 -1.59375l3.09375 0l0 7.578125l-2.15625 0l0 -5.984375zm3.9953613 -1.59375l2.0 0l0.078125 0.71875q0.515625 -0.390625 1.21875 -0.640625q0.703125 -0.25 1.453125 -0.25q1.5 0 2.1875 0.703125q0.703125 0.6875 0.703125 2.1875l0 4.859375l-2.15625 0l0 -4.75q0 -0.78125 -0.328125 -1.09375q-0.3125 -0.3125 -1.15625 -0.3125q-0.484375 0 -0.984375 0.21875q-0.5 0.203125 -0.84375 0.5625l0 5.375l-2.171875 0l0 -7.578125zm9.079529 6.53125q0.375 -0.828125 1.0 -1.515625q0.625 -0.703125 1.671875 -1.625l0.421875 -0.375q0.75 -0.6875 1.0625 -1.015625q0.3125 -0.328125 0.4375 -0.671875q0.140625 -0.34375 0.140625 -0.875q0 -0.734375 -0.484375 -1.109375q-0.46875 -0.375 -1.40625 -0.375q-1.234375 0 -2.484375 0.5l0 -1.90625q0.59375 -0.203125 1.40625 -0.328125q0.8125 -0.125 1.5625 -0.125q1.765625 0 2.671875 0.875q0.921875 0.875 0.921875 2.421875q0 0.984375 -0.46875 1.71875q-0.453125 0.734375 -1.40625 1.546875l-0.25 0.21875q-0.71875 0.625 -1.1875 1.09375q-0.46875 0.453125 -0.796875 0.9375l4.203125 0l0 1.65625l-7.015625 0l0 -1.046875zm8.208008 -4.140625l6.171875 0l0 1.6875l-6.171875 0l0 -1.6875zm9.031921 -3.171875l-1.671875 0.28125l0 -1.8125l3.84375 -0.578125l0 10.46875l-2.171875 0l0 -8.359375zm6.734619 8.515625q-0.71875 0 -1.625 -0.140625q-0.90625 -0.140625 -1.4375 -0.359375l0 -1.875q1.234375 0.515625 2.75 0.515625q1.171875 0 1.703125 -0.328125q0.53125 -0.328125 0.53125 -1.125q0 -0.671875 -0.46875 -0.96875q-0.46875 -0.296875 -1.40625 -0.296875l-1.625 0l0.15625 -1.578125l1.34375 0q0.9375 0 1.359375 -0.3125q0.4375 -0.3125 0.4375 -0.984375q0 -0.671875 -0.5 -1.0q-0.484375 -0.328125 -1.546875 -0.328125q-0.671875 0 -1.359375 0.140625q-0.671875 0.125 -1.203125 0.375l0 -1.84375q0.53125 -0.21875 1.328125 -0.359375q0.8125 -0.15625 1.609375 -0.15625q1.859375 0 2.859375 0.796875q1.0 0.78125 1.0 2.078125q0 0.796875 -0.359375 1.453125q-0.359375 0.640625 -1.046875 0.921875q0.8125 0.25 1.21875 0.84375q0.40625 0.59375 0.40625 1.453125q0 1.53125 -1.109375 2.3125q-1.109375 0.765625 -3.015625 0.765625zm15.519043 0q-1.953125 0 -3.046875 -0.921875q-1.078125 -0.921875 -1.078125 -2.703125l0 -5.171875l2.171875 0l0 5.203125q0 0.96875 0.484375 1.453125q0.484375 0.46875 1.46875 0.46875q0.96875 0 1.453125 -0.46875q0.484375 -0.484375 0.484375 -1.453125l0 -7.765625l2.171875 0l0 7.734375q0 1.78125 -1.09375 2.703125q-1.078125 0.921875 -3.015625 0.921875zm8.737366 0q-1.34375 0 -2.171875 -0.65625q-0.828125 -0.65625 -0.828125 -2.0625q0 -1.296875 0.875 -1.984375q0.890625 -0.703125 2.53125 -0.703125l2.453125 0l0 -0.40625q0 -0.8125 -0.453125 -1.140625q-0.453125 -0.328125 -1.578125 -0.328125q-1.515625 0 -2.875 0.4375l0 -1.609375q0.6875 -0.234375 1.546875 -0.359375q0.875 -0.140625 1.671875 -0.140625q1.9375 0 2.890625 0.828125q0.953125 0.8125 0.953125 2.53125l0 5.4375l-2.15625 0l0 -3.65625l-2.328125 0q-0.734375 0 -1.109375 0.25q-0.375 0.25 -0.375 0.84375q0 0.59375 0.34375 0.828125q0.34375 0.21875 1.1875 0.21875q0.734375 0 1.109375 -0.125l0 1.578125q-0.71875 0.21875 -1.6875 0.21875zm2.8511963 -12.625l2.171875 0l0 2.640625l-2.171875 0l0 -2.640625zm7.3125 12.625q-1.0 0 -1.9375 -0.171875q-0.9375 -0.1875 -1.625 -0.5l0 -4.546875l3.65625 0l0.109375 1.59375l-1.71875 0l0 1.734375q0.28125 0.109375 0.71875 0.171875q0.4375 0.046875 0.8125 0.046875q0.890625 0 1.390625 -0.265625q0.515625 -0.28125 0.75 -0.875q0.234375 -0.609375 0.234375 -1.625q0 -1.109375 -0.28125 -1.71875q-0.28125 -0.609375 -0.90625 -0.859375q-0.625 -0.265625 -1.734375 -0.265625q-1.53125 0 -2.921875 0.4375l0 -1.609375q0.703125 -0.25 1.625 -0.375q0.9375 -0.125 1.828125 -0.125q2.296875 0 3.359375 1.140625q1.078125 1.125 1.078125 3.375q0 2.1875 -1.078125 3.3125q-1.0625 1.125 -3.359375 1.125zm9.652771 0q-1.890625 0 -3.015625 -0.65625q-1.125 -0.65625 -1.125 -2.125q0 -0.59375 0.265625 -1.078125q0.28125 -0.484375 0.8125 -0.796875q-0.46875 -0.203125 -0.765625 -0.65625q-0.28125 -0.453125 -0.28125 -1.078125q0 -1.234375 0.765625 -1.890625q0.78125 -0.671875 2.09375 -0.671875q0.890625 0 1.484375 0.21875l0 1.59375q-0.453125 -0.140625 -1.09375 -0.140625q-0.609375 0 -0.90625 0.21875q-0.296875 0.203125 -0.296875 0.671875q0 0.5 0.3125 0.71875q0.328125 0.203125 1.03125 0.203125l0.890625 0l0.078125 1.578125l-0.984375 0q-1.359375 0 -1.359375 1.109375q0 0.5625 0.484375 0.84375q0.484375 0.265625 1.515625 0.265625q2.03125 0 2.03125 -1.6875l0 -5.4375l2.15625 0l0 5.25q0 1.828125 -1.046875 2.6875q-1.03125 0.859375 -3.046875 0.859375zm8.118225 -0.15625q-1.03125 0 -1.46875 -0.421875q-0.421875 -0.421875 -0.421875 -1.375l0 -5.28125q0 -1.609375 1.046875 -2.34375l-2.3125 0l0 -1.6875l4.921875 0l0 1.578125q-0.796875 0.28125 -1.15625 0.90625q-0.34375 0.609375 -0.34375 1.65625l0 4.609375q0 0.671875 0.65625 0.671875l0.546875 0l0 1.6875l-1.46875 0zm2.3342896 -8.640625l2.078125 0l1.125 5.546875l1.3125 -4.171875l0 -1.375l1.515625 0l1.53125 5.546875l1.515625 -8.109375l2.0625 0l-2.421875 11.203125l-1.875 0l-1.421875 -4.9375l-1.546875 4.9375l-1.859375 0l-2.015625 -8.640625zm20.547546 8.796875q-0.75 0 -1.59375 -0.125q-0.84375 -0.125 -1.390625 -0.375l0 -1.859375q0.546875 0.234375 1.296875 0.375q0.75 0.125 1.390625 0.125q1.125 0 1.640625 -0.359375q0.515625 -0.359375 0.515625 -1.1875q0 -0.78125 -0.390625 -1.109375q-0.375 -0.34375 -1.390625 -0.34375l-3.109375 0l0 -1.21875l0.265625 -4.375l6.125 0l-0.15625 1.65625l-4.125 0l-0.140625 2.265625l1.546875 0q1.84375 0 2.703125 0.8125q0.875 0.796875 0.875 2.390625q0 1.5625 -1.046875 2.453125q-1.03125 0.875 -3.015625 0.875zm5.256714 -10.453125l2.25 0l2.859375 7.875l2.859375 -7.875l2.25 0l-3.921875 10.296875l-2.359375 0l-3.9375 -10.296875z" fill-rule="nonzero"/><path fill="#0f9d58" d="m743.35956 377.44226l13.62207 -54.48819l191.51184 0l-13.62207 54.48819z" fill-rule="evenodd"/><path fill="#ffffff" d="m786.9766 336.2613l4.84375 0q1.734375 0 2.625 0.96875q0.90625 0.96875 0.90625 2.578125q0 1.03125 -0.4375 1.84375q-0.4375 0.796875 -1.265625 1.234375q-0.8125 0.4375 -1.890625 0.4375l-2.609375 0l0 3.234375l-2.171875 0l0 -10.296875zm4.328125 5.359375q0.90625 0 1.390625 -0.484375q0.484375 -0.484375 0.484375 -1.328125q0 -0.890625 -0.453125 -1.359375q-0.453125 -0.484375 -1.34375 -0.484375l-2.234375 0l0 3.65625l2.15625 0zm5.808655 -5.734375l2.34375 0l0 1.703125l-2.34375 0l0 -1.703125zm0.171875 4.6875l-1.140625 0l0.203125 -1.59375l3.09375 0l0 7.578125l-2.15625 0l0 -5.984375zm3.9954224 -1.59375l2.0 0l0.078125 0.71875q0.515625 -0.390625 1.21875 -0.640625q0.703125 -0.25 1.453125 -0.25q1.5 0 2.1875 0.703125q0.703125 0.6875 0.703125 2.1875l0 4.859375l-2.15625 0l0 -4.75q0 -0.78125 -0.328125 -1.09375q-0.3125 -0.3125 -1.15625 -0.3125q-0.484375 0 -0.984375 0.21875q-0.5 0.203125 -0.84375 0.5625l0 5.375l-2.171875 0l0 -7.578125zm14.839478 6.53125q0.375 -0.828125 1.0 -1.515625q0.625 -0.703125 1.671875 -1.625l0.421875 -0.375q0.75 -0.6875 1.0625 -1.015625q0.3125 -0.328125 0.4375 -0.671875q0.140625 -0.34375 0.140625 -0.875q0 -0.734375 -0.484375 -1.109375q-0.46875 -0.375 -1.40625 -0.375q-1.234375 0 -2.484375 0.5l0 -1.90625q0.59375 -0.203125 1.40625 -0.328125q0.8125 -0.125 1.5625 -0.125q1.765625 0 2.671875 0.875q0.921875 0.875 0.921875 2.421875q0 0.984375 -0.46875 1.71875q-0.453125 0.734375 -1.40625 1.546875l-0.25 0.21875q-0.71875 0.625 -1.1875 1.09375q-0.46875 0.453125 -0.796875 0.9375l4.203125 0l0 1.65625l-7.015625 0l0 -1.046875zm8.208069 -4.140625l6.171875 0l0 1.6875l-6.171875 0l0 -1.6875zm9.03186 -3.171875l-1.671875 0.28125l0 -1.8125l3.84375 -0.578125l0 10.46875l-2.171875 0l0 -8.359375zm6.734619 8.515625q-0.71875 0 -1.625 -0.140625q-0.90625 -0.140625 -1.4375 -0.359375l0 -1.875q1.234375 0.515625 2.75 0.515625q1.171875 0 1.703125 -0.328125q0.53125 -0.328125 0.53125 -1.125q0 -0.671875 -0.46875 -0.96875q-0.46875 -0.296875 -1.40625 -0.296875l-1.625 0l0.15625 -1.578125l1.34375 0q0.9375 0 1.359375 -0.3125q0.4375 -0.3125 0.4375 -0.984375q0 -0.671875 -0.5 -1.0q-0.484375 -0.328125 -1.546875 -0.328125q-0.671875 0 -1.359375 0.140625q-0.671875 0.125 -1.203125 0.375l0 -1.84375q0.53125 -0.21875 1.328125 -0.359375q0.8125 -0.15625 1.609375 -0.15625q1.859375 0 2.859375 0.796875q1.0 0.78125 1.0 2.078125q0 0.796875 -0.359375 1.453125q-0.359375 0.640625 -1.046875 0.921875q0.8125 0.25 1.21875 0.84375q0.40625 0.59375 0.40625 1.453125q0 1.53125 -1.109375 2.3125q-1.109375 0.765625 -3.015625 0.765625zm15.519043 0q-1.953125 0 -3.046875 -0.921875q-1.078125 -0.921875 -1.078125 -2.703125l0 -5.171875l2.171875 0l0 5.203125q0 0.96875 0.484375 1.453125q0.484375 0.46875 1.46875 0.46875q0.96875 0 1.453125 -0.46875q0.484375 -0.484375 0.484375 -1.453125l0 -7.765625l2.171875 0l0 7.734375q0 1.78125 -1.09375 2.703125q-1.078125 0.921875 -3.015625 0.921875zm8.737427 0q-1.34375 0 -2.171875 -0.65625q-0.828125 -0.65625 -0.828125 -2.0625q0 -1.296875 0.875 -1.984375q0.890625 -0.703125 2.53125 -0.703125l2.453125 0l0 -0.40625q0 -0.8125 -0.453125 -1.140625q-0.453125 -0.328125 -1.578125 -0.328125q-1.515625 0 -2.875 0.4375l0 -1.609375q0.6875 -0.234375 1.546875 -0.359375q0.875 -0.140625 1.671875 -0.140625q1.9375 0 2.890625 0.828125q0.953125 0.8125 0.953125 2.53125l0 5.4375l-2.15625 0l0 -3.65625l-2.328125 0q-0.734375 0 -1.109375 0.25q-0.375 0.25 -0.375 0.84375q0 0.59375 0.34375 0.828125q0.34375 0.21875 1.1875 0.21875q0.734375 0 1.109375 -0.125l0 1.578125q-0.71875 0.21875 -1.6875 0.21875zm2.8511353 -12.625l2.171875 0l0 2.640625l-2.171875 0l0 -2.640625zm7.3125 12.625q-1.0 0 -1.9375 -0.171875q-0.9375 -0.1875 -1.625 -0.5l0 -4.546875l3.65625 0l0.109375 1.59375l-1.71875 0l0 1.734375q0.28125 0.109375 0.71875 0.171875q0.4375 0.046875 0.8125 0.046875q0.890625 0 1.390625 -0.265625q0.515625 -0.28125 0.75 -0.875q0.234375 -0.609375 0.234375 -1.625q0 -1.109375 -0.28125 -1.71875q-0.28125 -0.609375 -0.90625 -0.859375q-0.625 -0.265625 -1.734375 -0.265625q-1.53125 0 -2.921875 0.4375l0 -1.609375q0.703125 -0.25 1.625 -0.375q0.9375 -0.125 1.828125 -0.125q2.296875 0 3.359375 1.140625q1.078125 1.125 1.078125 3.375q0 2.1875 -1.078125 3.3125q-1.0625 1.125 -3.359375 1.125zm9.652771 0q-1.890625 0 -3.015625 -0.65625q-1.125 -0.65625 -1.125 -2.125q0 -0.59375 0.265625 -1.078125q0.28125 -0.484375 0.8125 -0.796875q-0.46875 -0.203125 -0.765625 -0.65625q-0.28125 -0.453125 -0.28125 -1.078125q0 -1.234375 0.765625 -1.890625q0.78125 -0.671875 2.09375 -0.671875q0.890625 0 1.484375 0.21875l0 1.59375q-0.453125 -0.140625 -1.09375 -0.140625q-0.609375 0 -0.90625 0.21875q-0.296875 0.203125 -0.296875 0.671875q0 0.5 0.3125 0.71875q0.328125 0.203125 1.03125 0.203125l0.890625 0l0.078125 1.578125l-0.984375 0q-1.359375 0 -1.359375 1.109375q0 0.5625 0.484375 0.84375q0.484375 0.265625 1.515625 0.265625q2.03125 0 2.03125 -1.6875l0 -5.4375l2.15625 0l0 5.25q0 1.828125 -1.046875 2.6875q-1.03125 0.859375 -3.046875 0.859375zm8.118286 -0.15625q-1.03125 0 -1.46875 -0.421875q-0.421875 -0.421875 -0.421875 -1.375l0 -5.28125q0 -1.609375 1.046875 -2.34375l-2.3125 0l0 -1.6875l4.921875 0l0 1.578125q-0.796875 0.28125 -1.15625 0.90625q-0.34375 0.609375 -0.34375 1.65625l0 4.609375q0 0.671875 0.65625 0.671875l0.546875 0l0 1.6875l-1.46875 0zm2.3342285 -8.640625l2.078125 0l1.125 5.546875l1.3125 -4.171875l0 -1.375l1.515625 0l1.53125 5.546875l1.515625 -8.109375l2.0625 0l-2.421875 11.203125l-1.875 0l-1.421875 -4.9375l-1.546875 4.9375l-1.859375 0l-2.015625 -8.640625z" fill-rule="nonzero"/><path fill="#ffffff" d="m840.2245 365.98004q-2.46875 0 -3.5625 -1.375q-1.09375 -1.390625 -1.09375 -4.078125q0 -2.6875 1.09375 -4.0625q1.09375 -1.375 3.5625 -1.375q2.46875 0 3.5625 1.375q1.09375 1.375 1.09375 4.0625q0 2.6875 -1.09375 4.078125q-1.09375 1.375 -3.5625 1.375zm0 -1.859375q1.34375 0 1.90625 -0.890625q0.5625 -0.890625 0.5625 -2.703125q0 -1.796875 -0.5625 -2.6875q-0.5625 -0.890625 -1.90625 -0.890625q-1.34375 0 -1.90625 0.890625q-0.5625 0.890625 -0.5625 2.6875q0 1.8125 0.5625 2.703125q0.5625 0.890625 1.90625 0.890625zm5.8397827 -8.859375l2.25 0l2.859375 7.875l2.859375 -7.875l2.25 0l-3.921875 10.296875l-2.359375 0l-3.9375 -10.296875z" fill-rule="nonzero"/><path fill="#4a86e8" d="m777.2402 410.11548l127.1181 0l0 58.992126l-127.1181 0z" fill-rule="evenodd"/><path fill="#ffffff" d="m791.4548 427.33093l1.734375 0l0 2.71875l2.5 0q0.90625 0 1.28125 -0.375q0.375 -0.390625 0.375 -1.21875l0 -1.125l1.734375 0l0 1.078125q0 1.8125 -1.296875 2.28125q0.6875 0.234375 0.953125 0.765625q0.265625 0.53125 0.265625 1.328125l0 3.1875l-1.734375 0l0 -2.96875q0 -0.9375 -0.359375 -1.28125q-0.34375 -0.34375 -1.28125 -0.34375l-2.4375 0l0 4.59375l-1.734375 0l0 -8.640625zm12.601501 8.796875q-1.390625 0 -2.171875 -0.8125q-0.765625 -0.828125 -0.765625 -2.3125l0 -5.671875l1.734375 0l0 5.578125q0 0.96875 0.421875 1.40625q0.421875 0.421875 1.359375 0.421875q0.6875 0 1.328125 -0.28125q0.640625 -0.296875 1.0625 -0.75l0 -6.375l1.734375 0l0 8.640625l-1.578125 0l-0.09375 -0.9375q-1.265625 1.09375 -3.03125 1.09375zm2.9612427 -12.75l1.734375 0l0 2.625l-1.734375 0l0 -2.625zm5.921875 12.75q-1.5 0 -2.59375 -0.46875l0 -1.390625q1.078125 0.46875 2.171875 0.46875q1.109375 0 1.734375 -0.296875q0.640625 -0.3125 0.90625 -0.984375q0.28125 -0.671875 0.28125 -1.796875q0 -1.671875 -0.6875 -2.375q-0.671875 -0.703125 -2.25 -0.703125q-1.109375 0 -2.15625 0.46875l0 -1.390625q1.140625 -0.484375 2.546875 -0.484375q2.125 0 3.171875 1.140625q1.0625 1.125 1.0625 3.34375q0 2.203125 -1.03125 3.34375q-1.015625 1.125 -3.15625 1.125zm9.202026 0q-1.03125 0 -1.609375 -0.203125l-2.421875 -5.921875l1.6875 0l1.96875 4.796875q1.359375 0.0625 1.984375 -0.78125q0.640625 -0.84375 0.640625 -2.640625q0 -1.046875 -0.203125 -1.640625q-0.1875 -0.59375 -0.640625 -0.84375q-0.4375 -0.25 -1.25 -0.25l-0.609375 0l0 -1.3125l0.828125 0q1.84375 0 2.703125 0.984375q0.859375 0.984375 0.859375 3.046875q0 2.4375 -1.078125 3.609375q-1.0625 1.15625 -2.859375 1.15625zm7.336548 -0.15625q-1.671875 0 -1.671875 -1.65625l0 -6.984375l1.71875 0l0 6.546875q0 0.359375 0.171875 0.546875q0.171875 0.171875 0.53125 0.171875l0.734375 0l0 1.375l-1.484375 0zm5.3494873 0.15625q-1.5 0 -2.59375 -0.46875l0 -1.390625q1.078125 0.46875 2.171875 0.46875q1.109375 0 1.734375 -0.296875q0.640625 -0.3125 0.90625 -0.984375q0.28125 -0.671875 0.28125 -1.796875q0 -1.671875 -0.6875 -2.375q-0.671875 -0.703125 -2.25 -0.703125q-1.109375 0 -2.15625 0.46875l0 -1.390625q1.140625 -0.484375 2.546875 -0.484375q2.125 0 3.171875 1.140625q1.0625 1.125 1.0625 3.34375q0 2.203125 -1.03125 3.34375q-1.015625 1.125 -3.15625 1.125zm8.483276 0q-1.328125 0 -2.140625 -0.640625q-0.8125 -0.65625 -0.8125 -2.0q0 -1.28125 0.859375 -1.96875q0.875 -0.703125 2.5 -0.703125l2.640625 0l0 -0.546875q0 -0.640625 -0.21875 -1.0q-0.203125 -0.375 -0.6875 -0.53125q-0.46875 -0.15625 -1.3125 -0.15625q-1.53125 0 -2.8125 0.421875l0 -1.34375q0.65625 -0.21875 1.46875 -0.34375q0.828125 -0.140625 1.625 -0.140625q1.890625 0 2.78125 0.796875q0.90625 0.78125 0.90625 2.46875l0 5.53125l-1.75 0l0 -3.8125l-2.53125 0q-0.921875 0 -1.359375 0.3125q-0.4375 0.296875 -0.4375 1.015625q0 0.6875 0.390625 0.96875q0.40625 0.28125 1.34375 0.28125q0.640625 0 1.109375 -0.125l0 1.328125q-0.6875 0.1875 -1.5625 0.1875zm10.082092 -5.59375q0 -0.703125 -0.140625 -1.109375q-0.140625 -0.40625 -0.546875 -0.625q-0.40625 -0.21875 -1.171875 -0.21875q-0.515625 0 -1.125 0.109375q-0.59375 0.109375 -1.078125 0.3125l0 -1.34375q0.5 -0.21875 1.1875 -0.34375q0.6875 -0.140625 1.34375 -0.140625q1.734375 0 2.5 0.75q0.78125 0.75 0.78125 2.390625l0 5.65625l-1.75 0l0 -5.4375zm12.288147 5.59375q-0.75 0 -1.546875 -0.125q-0.796875 -0.109375 -1.3125 -0.328125l0 -1.53125q0.546875 0.25 1.25 0.375q0.71875 0.125 1.390625 0.125q1.25 0 1.828125 -0.421875q0.578125 -0.4375 0.578125 -1.40625q0 -0.921875 -0.453125 -1.328125q-0.4375 -0.421875 -1.59375 -0.421875l-3.046875 0l0 -1.0625l0.265625 -4.328125l5.859375 0l-0.140625 1.34375l-4.234375 0l-0.1875 2.703125l1.75 0q1.828125 0 2.671875 0.78125q0.859375 0.765625 0.859375 2.34375q0 1.5625 -1.015625 2.421875q-1.0 0.859375 -2.921875 0.859375zm9.865051 0.125q-2.375 0 -3.453125 -1.359375q-1.078125 -1.359375 -1.078125 -3.953125q0 -2.6875 1.046875 -4.0625q1.0625 -1.375 3.484375 -1.375q2.390625 0 3.453125 1.375q1.0625 1.375 1.0625 4.0625q0 2.59375 -1.09375 3.953125q-1.078125 1.359375 -3.421875 1.359375zm0 -1.484375q1.46875 0 2.109375 -0.96875q0.640625 -0.984375 0.640625 -2.859375q0 -2.0 -0.625 -2.96875q-0.625 -0.96875 -2.125 -0.96875q-1.515625 0 -2.140625 0.96875q-0.625 0.96875 -0.625 2.96875q0 1.890625 0.640625 2.859375q0.640625 0.96875 2.125 0.96875zm10.416016 1.484375q-2.375 0 -3.453125 -1.359375q-1.078125 -1.359375 -1.078125 -3.953125q0 -2.6875 1.046875 -4.0625q1.0625 -1.375 3.484375 -1.375q2.390625 0 3.453125 1.375q1.0625 1.375 1.0625 4.0625q0 2.59375 -1.09375 3.953125q-1.078125 1.359375 -3.421875 1.359375zm0 -1.484375q1.46875 0 2.109375 -0.96875q0.640625 -0.984375 0.640625 -2.859375q0 -2.0 -0.625 -2.96875q-0.625 -0.96875 -2.125 -0.96875q-1.515625 0 -2.140625 0.96875q-0.625 0.96875 -0.625 2.96875q0 1.890625 0.640625 2.859375q0.640625 0.96875 2.125 0.96875z" fill-rule="nonzero"/><path fill="#ffffff" d="m831.2548 447.39343l1.59375 0l0.078125 0.796875q1.21875 -0.96875 2.671875 -0.96875q0.78125 0 1.25 0.25q0.46875 0.25 0.71875 0.75q0.578125 -0.46875 1.265625 -0.734375q0.703125 -0.265625 1.59375 -0.265625q1.3125 0 1.9375 0.671875q0.625 0.671875 0.625 2.0625l0 5.015625l-1.703125 0l0 -4.828125q0 -0.875 -0.375 -1.234375q-0.375 -0.359375 -1.203125 -0.359375q-0.546875 0 -1.046875 0.203125q-0.484375 0.1875 -0.828125 0.578125q0.09375 0.296875 0.09375 0.78125l0 4.859375l-1.625 0l0 -4.8125q0 -0.875 -0.296875 -1.234375q-0.296875 -0.375 -1.078125 -0.375q-1.0 0 -1.96875 0.90625l0 5.515625l-1.703125 0l0 -7.578125zm16.21167 7.734375q-0.765625 0 -1.484375 -0.109375q-0.71875 -0.09375 -1.1875 -0.265625l0 -1.484375q0.53125 0.21875 1.171875 0.328125q0.65625 0.109375 1.28125 0.109375q0.921875 0 1.28125 -0.15625q0.375 -0.15625 0.375 -0.625q0 -0.421875 -0.34375 -0.609375q-0.328125 -0.203125 -1.25 -0.5l-0.484375 -0.15625q-1.140625 -0.390625 -1.671875 -0.859375q-0.53125 -0.46875 -0.53125 -1.390625q0 -1.078125 0.765625 -1.625q0.765625 -0.5625 2.40625 -0.5625q0.625 0 1.21875 0.109375q0.609375 0.09375 1.03125 0.234375l0 1.453125q-0.421875 -0.171875 -0.96875 -0.265625q-0.53125 -0.09375 -1.015625 -0.09375q-0.875 0 -1.28125 0.15625q-0.390625 0.140625 -0.390625 0.5625q0 0.359375 0.296875 0.546875q0.3125 0.1875 1.203125 0.46875l0.34375 0.109375q0.9375 0.296875 1.4375 0.59375q0.515625 0.296875 0.75 0.71875q0.234375 0.421875 0.234375 1.09375q0 2.21875 -3.1875 2.21875z" fill-rule="nonzero"/><path fill="#4a86e8" d="m782.36615 223.69029l127.1181 0l0 58.99211l-127.1181 0z" fill-rule="evenodd"/><path fill="#ffffff" d="m799.5408 240.90573l1.734375 0l0 2.71875l2.5 0q0.90625 0 1.28125 -0.375q0.375 -0.390625 0.375 -1.21875l0 -1.125l1.734375 0l0 1.078125q0 1.8125 -1.296875 2.28125q0.6875 0.234375 0.953125 0.765625q0.265625 0.53125 0.265625 1.328125l0 3.1875l-1.734375 0l0 -2.96875q0 -0.9375 -0.359375 -1.28125q-0.34375 -0.34375 -1.28125 -0.34375l-2.4375 0l0 4.59375l-1.734375 0l0 -8.640625zm12.601501 8.796875q-1.390625 0 -2.171875 -0.8125q-0.765625 -0.828125 -0.765625 -2.3125l0 -5.671875l1.734375 0l0 5.578125q0 0.96875 0.421875 1.40625q0.421875 0.421875 1.359375 0.421875q0.6875 0 1.328125 -0.28125q0.640625 -0.296875 1.0625 -0.75l0 -6.375l1.734375 0l0 8.640625l-1.578125 0l-0.09375 -0.9375q-1.265625 1.09375 -3.03125 1.09375zm2.9612427 -12.75l1.734375 0l0 2.625l-1.734375 0l0 -2.625zm5.921875 12.75q-1.5 0 -2.59375 -0.46875l0 -1.390625q1.078125 0.46875 2.171875 0.46875q1.109375 0 1.734375 -0.296875q0.640625 -0.3125 0.90625 -0.984375q0.28125 -0.671875 0.28125 -1.796875q0 -1.671875 -0.6875 -2.375q-0.671875 -0.703125 -2.25 -0.703125q-1.109375 0 -2.15625 0.46875l0 -1.390625q1.140625 -0.484375 2.546875 -0.484375q2.125 0 3.171875 1.140625q1.0625 1.125 1.0625 3.34375q0 2.203125 -1.03125 3.34375q-1.015625 1.125 -3.15625 1.125zm9.202026 0q-1.03125 0 -1.609375 -0.203125l-2.421875 -5.921875l1.6875 0l1.96875 4.796875q1.359375 0.0625 1.984375 -0.78125q0.640625 -0.84375 0.640625 -2.640625q0 -1.046875 -0.203125 -1.640625q-0.1875 -0.59375 -0.640625 -0.84375q-0.4375 -0.25 -1.25 -0.25l-0.609375 0l0 -1.3125l0.828125 0q1.84375 0 2.703125 0.984375q0.859375 0.984375 0.859375 3.046875q0 2.4375 -1.078125 3.609375q-1.0625 1.15625 -2.859375 1.15625zm7.336548 -0.15625q-1.671875 0 -1.671875 -1.65625l0 -6.984375l1.71875 0l0 6.546875q0 0.359375 0.171875 0.546875q0.171875 0.171875 0.53125 0.171875l0.734375 0l0 1.375l-1.484375 0zm5.3494873 0.15625q-1.5 0 -2.59375 -0.46875l0 -1.390625q1.078125 0.46875 2.171875 0.46875q1.109375 0 1.734375 -0.296875q0.640625 -0.3125 0.90625 -0.984375q0.28125 -0.671875 0.28125 -1.796875q0 -1.671875 -0.6875 -2.375q-0.671875 -0.703125 -2.25 -0.703125q-1.109375 0 -2.15625 0.46875l0 -1.390625q1.140625 -0.484375 2.546875 -0.484375q2.125 0 3.171875 1.140625q1.0625 1.125 1.0625 3.34375q0 2.203125 -1.03125 3.34375q-1.015625 1.125 -3.15625 1.125zm8.483276 0q-1.328125 0 -2.140625 -0.640625q-0.8125 -0.65625 -0.8125 -2.0q0 -1.28125 0.859375 -1.96875q0.875 -0.703125 2.5 -0.703125l2.640625 0l0 -0.546875q0 -0.640625 -0.21875 -1.0q-0.203125 -0.375 -0.6875 -0.53125q-0.46875 -0.15625 -1.3125 -0.15625q-1.53125 0 -2.8125 0.421875l0 -1.34375q0.65625 -0.21875 1.46875 -0.34375q0.828125 -0.140625 1.625 -0.140625q1.890625 0 2.78125 0.796875q0.90625 0.78125 0.90625 2.46875l0 5.53125l-1.75 0l0 -3.8125l-2.53125 0q-0.921875 0 -1.359375 0.3125q-0.4375 0.296875 -0.4375 1.015625q0 0.6875 0.390625 0.96875q0.40625 0.28125 1.34375 0.28125q0.640625 0 1.109375 -0.125l0 1.328125q-0.6875 0.1875 -1.5625 0.1875zm10.082092 -5.59375q0 -0.703125 -0.140625 -1.109375q-0.140625 -0.40625 -0.546875 -0.625q-0.40625 -0.21875 -1.171875 -0.21875q-0.515625 0 -1.125 0.109375q-0.59375 0.109375 -1.078125 0.3125l0 -1.34375q0.5 -0.21875 1.1875 -0.34375q0.6875 -0.140625 1.34375 -0.140625q1.734375 0 2.5 0.75q0.78125 0.75 0.78125 2.390625l0 5.65625l-1.75 0l0 -5.4375zm6.368164 5.59375q-0.75 0 -1.546875 -0.125q-0.796875 -0.109375 -1.3125 -0.328125l0 -1.53125q0.546875 0.25 1.25 0.375q0.71875 0.125 1.390625 0.125q1.25 0 1.828125 -0.421875q0.578125 -0.4375 0.578125 -1.40625q0 -0.921875 -0.453125 -1.328125q-0.4375 -0.421875 -1.59375 -0.421875l-3.046875 0l0 -1.0625l0.265625 -4.328125l5.859375 0l-0.140625 1.34375l-4.234375 0l-0.1875 2.703125l1.75 0q1.828125 0 2.671875 0.78125q0.859375 0.765625 0.859375 2.34375q0 1.5625 -1.015625 2.421875q-1.0 0.859375 -2.921875 0.859375zm9.86499 0.125q-2.375 0 -3.453125 -1.359375q-1.078125 -1.359375 -1.078125 -3.953125q0 -2.6875 1.046875 -4.0625q1.0625 -1.375 3.484375 -1.375q2.390625 0 3.453125 1.375q1.0625 1.375 1.0625 4.0625q0 2.59375 -1.09375 3.953125q-1.078125 1.359375 -3.421875 1.359375zm0 -1.484375q1.46875 0 2.109375 -0.96875q0.640625 -0.984375 0.640625 -2.859375q0 -2.0 -0.625 -2.96875q-0.625 -0.96875 -2.125 -0.96875q-1.515625 0 -2.140625 0.96875q-0.625 0.96875 -0.625 2.96875q0 1.890625 0.640625 2.859375q0.640625 0.96875 2.125 0.96875zm10.416016 1.484375q-2.375 0 -3.453125 -1.359375q-1.078125 -1.359375 -1.078125 -3.953125q0 -2.6875 1.046875 -4.0625q1.0625 -1.375 3.484375 -1.375q2.390625 0 3.453125 1.375q1.0625 1.375 1.0625 4.0625q0 2.59375 -1.09375 3.953125q-1.078125 1.359375 -3.421875 1.359375zm0 -1.484375q1.46875 0 2.109375 -0.96875q0.640625 -0.984375 0.640625 -2.859375q0 -2.0 -0.625 -2.96875q-0.625 -0.96875 -2.125 -0.96875q-1.515625 0 -2.140625 0.96875q-0.625 0.96875 -0.625 2.96875q0 1.890625 0.640625 2.859375q0.640625 0.96875 2.125 0.96875z" fill-rule="nonzero"/><path fill="#ffffff" d="m836.3808 260.96823l1.59375 0l0.078125 0.796875q1.21875 -0.96875 2.671875 -0.96875q0.78125 0 1.25 0.25q0.46875 0.25 0.71875 0.75q0.578125 -0.46875 1.265625 -0.734375q0.703125 -0.265625 1.59375 -0.265625q1.3125 0 1.9375 0.671875q0.625 0.671875 0.625 2.0625l0 5.015625l-1.703125 0l0 -4.828125q0 -0.875 -0.375 -1.234375q-0.375 -0.359375 -1.203125 -0.359375q-0.546875 0 -1.046875 0.203125q-0.484375 0.1875 -0.828125 0.578125q0.09375 0.296875 0.09375 0.78125l0 4.859375l-1.625 0l0 -4.8125q0 -0.875 -0.296875 -1.234375q-0.296875 -0.375 -1.078125 -0.375q-1.0 0 -1.96875 0.90625l0 5.515625l-1.703125 0l0 -7.578125zm16.21167 7.734375q-0.765625 0 -1.484375 -0.109375q-0.71875 -0.09375 -1.1875 -0.265625l0 -1.484375q0.53125 0.21875 1.171875 0.328125q0.65625 0.109375 1.28125 0.109375q0.921875 0 1.28125 -0.15625q0.375 -0.15625 0.375 -0.625q0 -0.421875 -0.34375 -0.609375q-0.328125 -0.203125 -1.25 -0.5l-0.484375 -0.15625q-1.140625 -0.390625 -1.671875 -0.859375q-0.53125 -0.46875 -0.53125 -1.390625q0 -1.078125 0.765625 -1.625q0.765625 -0.5625 2.40625 -0.5625q0.625 0 1.21875 0.109375q0.609375 0.09375 1.03125 0.234375l0 1.453125q-0.421875 -0.171875 -0.96875 -0.265625q-0.53125 -0.09375 -1.015625 -0.09375q-0.875 0 -1.28125 0.15625q-0.390625 0.140625 -0.390625 0.5625q0 0.359375 0.296875 0.546875q0.3125 0.1875 1.203125 0.46875l0.34375 0.109375q0.9375 0.296875 1.4375 0.59375q0.515625 0.296875 0.75 0.71875q0.234375 0.421875 0.234375 1.09375q0 2.21875 -3.1875 2.21875z" fill-rule="nonzero"/><path fill="#000000" fill-opacity="0.0" d="m860.4249 183.41806l0 34.393692" fill-rule="evenodd"/><path stroke="#000000" stroke-width="1.0" stroke-linejoin="round" stroke-linecap="butt" d="m860.42487 183.41806l0 28.393707" fill-rule="evenodd"/><path fill="#000000" stroke="#000000" stroke-width="1.0" stroke-linecap="butt" d="m858.77313 211.81177l1.6517334 4.538086l1.6517334 -4.538086z" fill-rule="evenodd"/><path fill="#000000" fill-opacity="0.0" d="m853.6139 285.62277l0 34.393707" fill-rule="evenodd"/><path stroke="#000000" stroke-width="1.0" stroke-linejoin="round" stroke-linecap="butt" d="m853.61383 285.62277l0 28.393707" fill-rule="evenodd"/><path fill="#000000" stroke="#000000" stroke-width="1.0" stroke-linecap="butt" d="m851.9621 314.01648l1.6517334 4.5381165l1.6517334 -4.5381165z" fill-rule="evenodd"/><path fill="#000000" fill-opacity="0.0" d="m853.6139 375.03485l0 34.393707" fill-rule="evenodd"/><path stroke="#000000" stroke-width="1.0" stroke-linejoin="round" stroke-linecap="butt" d="m853.61383 375.03485l0 28.393707" fill-rule="evenodd"/><path fill="#000000" stroke="#000000" stroke-width="1.0" stroke-linecap="butt" d="m851.9621 403.42856l1.6517334 4.538086l1.6517334 -4.538086z" fill-rule="evenodd"/></g></svg>