<svg version="1.1" viewBox="0.0 0.0 960.0 720.0" fill="none" stroke="none" stroke-linecap="square" stroke-miterlimit="10" xmlns:xlink="http://www.w3.org/1999/xlink" xmlns="http://www.w3.org/2000/svg"><clipPath id="p.0"><path d="m0 0l960.0 0l0 720.0l-960.0 0l0 -720.0z" clip-rule="nonzero"/></clipPath><g clip-path="url(#p.0)"><path fill="#000000" fill-opacity="0.0" d="m0 0l960.0 0l0 720.0l-960.0 0z" fill-rule="evenodd"/><path fill="#cc0000" d="m108.04267 20.72441l97.32444 0l0 0c12.749771 0 23.085495 9.58308 23.085495 21.40441c0 11.821331 -10.335724 21.404411 -23.085495 21.404411l-97.32444 0l0 0c-12.749771 0 -23.085495 -9.58308 -23.085495 -21.404411c0 -11.821329 10.335724 -21.40441 23.085495 -21.40441z" fill-rule="evenodd"/><path fill="#ffffff" d="m143.82985 48.14507q-2.0 0 -3.21875 -0.515625l0 -1.53125q1.5 0.578125 3.0625 0.578125q1.296875 0 1.875 -0.296875q0.59375 -0.3125 0.59375 -1.140625q0 -0.53125 -0.25 -0.84375q-0.25 -0.3125 -0.8125 -0.53125q-0.5625 -0.234375 -1.671875 -0.515625q-1.671875 -0.4375 -2.34375 -1.09375q-0.671875 -0.671875 -0.671875 -1.828125q0 -1.375 1.0 -2.140625q1.015625 -0.765625 2.953125 -0.765625q0.84375 0 1.640625 0.125q0.796875 0.125 1.28125 0.296875l0 1.53125q-1.203125 -0.453125 -2.6875 -0.453125q-1.21875 0 -1.828125 0.3125q-0.59375 0.3125 -0.59375 1.09375q0 0.453125 0.21875 0.734375q0.21875 0.28125 0.734375 0.5q0.53125 0.21875 1.5625 0.46875q1.8125 0.46875 2.515625 1.203125q0.703125 0.734375 0.703125 1.90625q0 1.375 -1.03125 2.140625q-1.03125 0.765625 -3.03125 0.765625zm8.101273 0q-1.203125 0 -1.8125 -0.625q-0.609375 -0.640625 -0.609375 -1.78125l0 -3.96875l-1.109375 0l0 -1.359375l1.109375 0l0 -1.75l1.734375 -0.53125l0 2.28125l2.015625 0l-0.109375 1.359375l-1.90625 0l0 3.859375q0 0.65625 0.296875 0.921875q0.296875 0.265625 1.0 0.265625q0.421875 0 0.90625 -0.15625l0 1.234375q-0.625 0.25 -1.515625 0.25zm4.7167664 0q-1.15625 0 -1.921875 -0.59375q-0.765625 -0.609375 -0.765625 -1.71875q0 -1.125 0.75 -1.765625q0.765625 -0.65625 2.296875 -0.65625l2.421875 0l0 -0.328125q0 -0.5625 -0.171875 -0.875q-0.15625 -0.3125 -0.609375 -0.453125q-0.453125 -0.15625 -1.28125 -0.15625q-1.34375 0 -2.515625 0.40625l0 -1.296875q0.546875 -0.203125 1.28125 -0.328125q0.734375 -0.140625 1.5625 -0.140625q1.6875 0 2.546875 0.6875q0.859375 0.6875 0.859375 2.1875l0 4.875l-1.484375 0l-0.125 -0.765625q-0.46875 0.46875 -1.15625 0.703125q-0.6875 0.21875 -1.6875 0.21875zm0.46875 -1.25q0.75 0 1.34375 -0.25q0.59375 -0.25 0.96875 -0.71875l0 -1.328125l-2.390625 0q-0.78125 0 -1.125 0.296875q-0.34375 0.28125 -0.34375 0.90625q0 0.578125 0.390625 0.84375q0.390625 0.25 1.15625 0.25zm5.923889 -6.484375l1.59375 0l0.09375 0.875q0.546875 -0.359375 1.296875 -0.640625q0.75 -0.28125 1.484375 -0.40625l0 1.328125q-0.6875 0.140625 -1.484375 0.40625q-0.796875 0.25 -1.25 0.546875l0 5.46875l-1.734375 0l0 -7.578125zm8.762634 7.734375q-1.203125 0 -1.8125 -0.625q-0.609375 -0.640625 -0.609375 -1.78125l0 -3.96875l-1.109375 0l0 -1.359375l1.109375 0l0 -1.75l1.734375 -0.53125l0 2.28125l2.015625 0l-0.109375 1.359375l-1.90625 0l0 3.859375q0 0.65625 0.296875 0.921875q0.296875 0.265625 1.0 0.265625q0.421875 0 0.90625 -0.15625l0 1.234375q-0.625 0.25 -1.515625 0.25z" fill-rule="nonzero"/><path fill="#4a86e8" d="m56.986595 99.44971l199.43451 0l0 73.74153l-199.43451 0z" fill-rule="evenodd"/><path fill="#000000" fill-opacity="0.0" d="m81.91591 99.44971l0 73.74153m149.57588 -73.74153l0 73.74153" fill-rule="evenodd"/><path fill="#000000" fill-opacity="0.0" d="m56.986595 99.44971l199.43451 0l0 73.74153l-199.43451 0z" fill-rule="evenodd"/><path stroke="#ffffff" stroke-width="3.0" stroke-linejoin="round" stroke-linecap="butt" d="m81.91591 99.44971l0 73.74153m149.57588 -73.74153l0 73.74153" fill-rule="evenodd"/><path stroke="#ffffff" stroke-width="3.0" stroke-linejoin="round" stroke-linecap="butt" d="m56.986595 99.44971l199.43451 0l0 73.74153l-199.43451 0z" fill-rule="evenodd"/><path fill="#ffffff" d="m132.08305 142.33672q-0.765625 0 -1.484375 -0.109375q-0.71875 -0.09375 -1.1875 -0.265625l0 -1.484375q0.53125 0.21875 1.171875 0.328125q0.65625 0.109375 1.28125 0.109375q0.921875 0 1.28125 -0.15625q0.375 -0.15625 0.375 -0.625q0 -0.421875 -0.34375 -0.609375q-0.328125 -0.203125 -1.25 -0.5l-0.484375 -0.15625q-1.140625 -0.390625 -1.671875 -0.859375q-0.53125 -0.46875 -0.53125 -1.390625q0 -1.078125 0.765625 -1.625q0.765625 -0.5625 2.40625 -0.5625q0.625 0 1.21875 0.109375q0.609375 0.09375 1.03125 0.234375l0 1.453125q-0.421875 -0.171875 -0.96875 -0.265625q-0.53125 -0.09375 -1.015625 -0.09375q-0.875 0 -1.28125 0.15625q-0.390625 0.140625 -0.390625 0.5625q0 0.359375 0.296875 0.546875q0.3125 0.1875 1.203125 0.46875l0.34375 0.109375q0.9375 0.296875 1.4375 0.59375q0.515625 0.296875 0.75 0.71875q0.234375 0.421875 0.234375 1.09375q0 2.21875 -3.1875 2.21875zm8.736511 0q-2.015625 0 -3.09375 -0.984375q-1.0625 -1.0 -1.0625 -2.984375q0 -1.875 0.9375 -2.90625q0.953125 -1.03125 2.8125 -1.03125q1.671875 0 2.5625 0.890625q0.90625 0.875 0.90625 2.34375l0 1.40625l-5.546875 0q0.125 1.09375 0.78125 1.515625q0.65625 0.421875 2.0625 0.421875q0.578125 0 1.171875 -0.109375q0.59375 -0.109375 1.0625 -0.28125l0 1.28125q-1.0 0.4375 -2.59375 0.4375zm1.53125 -4.390625l0 -0.53125q0 -0.8125 -0.453125 -1.234375q-0.453125 -0.4375 -1.4375 -0.4375q-1.1875 0 -1.65625 0.515625q-0.46875 0.515625 -0.46875 1.6875l4.015625 0zm6.1232605 4.390625q-1.203125 0 -1.8125 -0.625q-0.609375 -0.640625 -0.609375 -1.78125l0 -3.96875l-1.109375 0l0 -1.359375l1.109375 0l0 -1.75l1.734375 -0.53125l0 2.28125l2.015625 0l-0.109375 1.359375l-1.90625 0l0 3.859375q0 0.65625 0.296875 0.921875q0.296875 0.265625 1.0 0.265625q0.421875 0 0.90625 -0.15625l0 1.234375q-0.625 0.25 -1.515625 0.25zm5.25177 0q-1.359375 0 -2.09375 -0.75q-0.734375 -0.765625 -0.734375 -2.203125l0 -4.78125l1.75 0l0 4.78125q0 0.84375 0.40625 1.25q0.421875 0.390625 1.296875 0.390625q0.609375 0 1.15625 -0.21875q0.546875 -0.234375 0.96875 -0.65625l0 -5.546875l1.71875 0l0 7.578125l-1.578125 0l-0.078125 -0.78125q-1.203125 0.9375 -2.8125 0.9375zm6.5136414 -7.734375l1.5 0l0.09375 0.75q0.53125 -0.46875 1.140625 -0.6875q0.609375 -0.234375 1.421875 -0.234375q1.6875 0 2.5625 0.921875q0.890625 0.90625 0.890625 2.90625q0 2.015625 -0.9375 3.046875q-0.921875 1.03125 -2.578125 1.03125q-1.375 0 -2.359375 -0.640625l0 3.9375l-1.734375 0l0 -11.03125zm3.640625 6.421875q1.125 0 1.65625 -0.6875q0.546875 -0.6875 0.546875 -2.09375q0 -1.34375 -0.5 -1.90625q-0.484375 -0.578125 -1.65625 -0.578125q-1.171875 0 -1.953125 0.8125l0 3.78125q0.765625 0.671875 1.90625 0.671875zm13.419525 2.3125q-1.109375 -0.984375 -1.640625 -2.59375q-0.515625 -1.609375 -0.515625 -3.40625q0 -1.8125 0.515625 -3.40625q0.53125 -1.609375 1.640625 -2.59375l1.96875 0q-2.359375 2.046875 -2.359375 6.0q0 3.953125 2.359375 6.0l-1.96875 0zm2.7312622 0q1.234375 -1.078125 1.796875 -2.578125q0.5625 -1.5 0.5625 -3.421875q0 -3.96875 -2.359375 -6.0l1.984375 0q1.09375 0.984375 1.609375 2.59375q0.53125 1.609375 0.53125 3.40625q0 1.796875 -0.53125 3.40625q-0.515625 1.609375 -1.609375 2.59375l-1.984375 0z" fill-rule="nonzero"/><path fill="#4a86e8" d="m56.98843 206.398l199.43451 0l0 73.74153l-199.43451 0z" fill-rule="evenodd"/><path fill="#000000" fill-opacity="0.0" d="m81.91774 206.398l0 73.74153m149.57588 -73.74153l0 73.74153" fill-rule="evenodd"/><path fill="#000000" fill-opacity="0.0" d="m56.98843 206.398l199.43451 0l0 73.74153l-199.43451 0z" fill-rule="evenodd"/><path stroke="#ffffff" stroke-width="3.0" stroke-linejoin="round" stroke-linecap="butt" d="m81.91774 206.398l0 73.74153m149.57588 -73.74153l0 73.74153" fill-rule="evenodd"/><path stroke="#ffffff" stroke-width="3.0" stroke-linejoin="round" stroke-linecap="butt" d="m56.98843 206.398l199.43451 0l0 73.74153l-199.43451 0z" fill-rule="evenodd"/><path fill="#ffffff" d="m135.80426 249.28502q-0.953125 0 -1.421875 -0.453125q-0.453125 -0.46875 -0.453125 -1.515625l0 -8.96875l1.734375 0l0 8.8125q0 0.4375 0.15625 0.609375q0.15625 0.15625 0.484375 0.15625q0.390625 0 0.734375 -0.09375l0 1.265625q-0.53125 0.1875 -1.234375 0.1875zm5.51001 0q-3.953125 0 -3.953125 -3.953125q0 -3.953125 3.953125 -3.953125q3.96875 0 3.96875 3.953125q0 3.953125 -3.96875 3.953125zm0 -1.46875q1.203125 0 1.703125 -0.578125q0.5 -0.578125 0.5 -1.90625q0 -1.3125 -0.5 -1.875q-0.5 -0.578125 -1.703125 -0.578125q-1.1875 0 -1.6875 0.578125q-0.5 0.5625 -0.5 1.875q0 1.328125 0.5 1.90625q0.5 0.578125 1.6875 0.578125zm8.896027 1.46875q-3.953125 0 -3.953125 -3.953125q0 -3.953125 3.953125 -3.953125q3.96875 0 3.96875 3.953125q0 3.953125 -3.96875 3.953125zm0 -1.46875q1.203125 0 1.703125 -0.578125q0.5 -0.578125 0.5 -1.90625q0 -1.3125 -0.5 -1.875q-0.5 -0.578125 -1.703125 -0.578125q-1.1875 0 -1.6875 0.578125q-0.5 0.5625 -0.5 1.875q0 1.328125 0.5 1.90625q0.5 0.578125 1.6875 0.578125zm5.6710205 -6.265625l1.5 0l0.09375 0.75q0.53125 -0.46875 1.140625 -0.6875q0.609375 -0.234375 1.421875 -0.234375q1.6875 0 2.5625 0.921875q0.890625 0.90625 0.890625 2.90625q0 2.015625 -0.9375 3.046875q-0.921875 1.03125 -2.578125 1.03125q-1.375 0 -2.359375 -0.640625l0 3.9375l-1.734375 0l0 -11.03125zm3.640625 6.421875q1.125 0 1.65625 -0.6875q0.546875 -0.6875 0.546875 -2.09375q0 -1.34375 -0.5 -1.90625q-0.484375 -0.578125 -1.65625 -0.578125q-1.171875 0 -1.953125 0.8125l0 3.78125q0.765625 0.671875 1.90625 0.671875zm13.419525 2.3125q-1.109375 -0.984375 -1.640625 -2.59375q-0.515625 -1.609375 -0.515625 -3.40625q0 -1.8125 0.515625 -3.40625q0.53125 -1.609375 1.640625 -2.59375l1.96875 0q-2.359375 2.046875 -2.359375 6.0q0 3.953125 2.359375 6.0l-1.96875 0zm2.7312622 0q1.234375 -1.078125 1.796875 -2.578125q0.5625 -1.5 0.5625 -3.421875q0 -3.96875 -2.359375 -6.0l1.984375 0q1.09375 0.984375 1.609375 2.59375q0.53125 1.609375 0.53125 3.40625q0 1.796875 -0.53125 3.40625q-0.515625 1.609375 -1.609375 2.59375l-1.984375 0z" fill-rule="nonzero"/><path fill="#000000" fill-opacity="0.0" d="m156.7049 63.53323l0 35.905514" fill-rule="evenodd"/><path stroke="#000000" stroke-width="1.0" stroke-linejoin="round" stroke-linecap="butt" d="m156.7049 63.53323l0 29.905514" fill-rule="evenodd"/><path fill="#000000" stroke="#000000" stroke-width="1.0" stroke-linecap="butt" d="m155.05316 93.43874l1.6517334 4.5380936l1.6517334 -4.5380936z" fill-rule="evenodd"/><path fill="#000000" fill-opacity="0.0" d="m156.70384 173.19124l0 33.196854" fill-rule="evenodd"/><path stroke="#000000" stroke-width="1.0" stroke-linejoin="round" stroke-linecap="butt" d="m156.70386 173.19124l0 27.196838" fill-rule="evenodd"/><path fill="#000000" stroke="#000000" stroke-width="1.0" stroke-linecap="butt" d="m155.05212 200.38808l1.6517334 4.538101l1.6517334 -4.538101z" fill-rule="evenodd"/><path fill="#000000" fill-opacity="0.0" d="m156.70569 280.13953l0 31.27658l-134.61534 0l0 -68.15846l34.898796 0" fill-rule="evenodd"/><path stroke="#000000" stroke-width="1.0" stroke-linejoin="round" stroke-linecap="butt" d="m156.70567 280.13953l0 31.27658l-134.61533 0l0 -68.15846l28.898794 0" fill-rule="evenodd"/><path fill="#000000" stroke="#000000" stroke-width="1.0" stroke-linecap="butt" d="m50.989147 244.90938l4.5380974 -1.6517334l-4.5380974 -1.6517334z" fill-rule="evenodd"/><path fill="#cc0000" d="m392.43518 26.759842l97.32446 0l0 0c12.749756 0 23.08551 9.58308 23.08551 21.404411c0 11.821327 -10.335754 21.404411 -23.08551 21.404411l-97.32446 0l0 0c-12.749756 0 -23.08548 -9.583084 -23.08548 -21.404411c0 -11.821331 10.335724 -21.404411 23.08548 -21.404411z" fill-rule="evenodd"/><path fill="#ffffff" d="m416.4766 54.1805q-0.765625 0 -1.484375 -0.109375q-0.71875 -0.09375 -1.1875 -0.265625l0 -1.484375q0.53125 0.21875 1.171875 0.328125q0.65625 0.109375 1.28125 0.109375q0.921875 0 1.28125 -0.15625q0.375 -0.15625 0.375 -0.625q0 -0.421875 -0.34375 -0.609375q-0.328125 -0.203125 -1.25 -0.5l-0.484375 -0.15625q-1.140625 -0.390625 -1.671875 -0.859375q-0.53125 -0.46875 -0.53125 -1.390625q0 -1.078125 0.765625 -1.625q0.765625 -0.5625 2.40625 -0.5625q0.625 0 1.21875 0.109375q0.609375 0.09375 1.03125 0.234375l0 1.453125q-0.421875 -0.171875 -0.96875 -0.265625q-0.53125 -0.09375 -1.015625 -0.09375q-0.875 0 -1.28125 0.15625q-0.390625 0.140625 -0.390625 0.5625q0 0.359375 0.296875 0.546875q0.3125 0.1875 1.203125 0.46875l0.34375 0.109375q0.9375 0.296875 1.4375 0.59375q0.515625 0.296875 0.75 0.71875q0.234375 0.421875 0.234375 1.09375q0 2.21875 -3.1875 2.21875zm8.736511 0q-2.015625 0 -3.09375 -0.984375q-1.0625 -1.0 -1.0625 -2.984375q0 -1.875 0.9375 -2.90625q0.953125 -1.03125 2.8125 -1.03125q1.671875 0 2.5625 0.890625q0.90625 0.875 0.90625 2.34375l0 1.40625l-5.546875 0q0.125 1.09375 0.78125 1.515625q0.65625 0.421875 2.0625 0.421875q0.578125 0 1.171875 -0.109375q0.59375 -0.109375 1.0625 -0.28125l0 1.28125q-1.0 0.4375 -2.59375 0.4375zm1.53125 -4.390625l0 -0.53125q0 -0.8125 -0.453125 -1.234375q-0.453125 -0.4375 -1.4375 -0.4375q-1.1875 0 -1.65625 0.515625q-0.46875 0.515625 -0.46875 1.6875l4.015625 0zm6.1232605 4.390625q-1.203125 0 -1.8125 -0.625q-0.609375 -0.640625 -0.609375 -1.78125l0 -3.96875l-1.109375 0l0 -1.359375l1.109375 0l0 -1.75l1.734375 -0.53125l0 2.28125l2.015625 0l-0.109375 1.359375l-1.90625 0l0 3.859375q0 0.65625 0.296875 0.921875q0.296875 0.265625 1.0 0.265625q0.421875 0 0.90625 -0.15625l0 1.234375q-0.625 0.25 -1.515625 0.25zm5.25177 0q-1.359375 0 -2.09375 -0.75q-0.734375 -0.765625 -0.734375 -2.203125l0 -4.78125l1.75 0l0 4.78125q0 0.84375 0.40625 1.25q0.421875 0.390625 1.296875 0.390625q0.609375 0 1.15625 -0.21875q0.546875 -0.234375 0.96875 -0.65625l0 -5.546875l1.71875 0l0 7.578125l-1.578125 0l-0.078125 -0.78125q-1.203125 0.9375 -2.8125 0.9375zm6.5136414 -7.734375l1.5 0l0.09375 0.75q0.53125 -0.46875 1.140625 -0.6875q0.609375 -0.234375 1.421875 -0.234375q1.6875 0 2.5625 0.921875q0.890625 0.90625 0.890625 2.90625q0 2.015625 -0.9375 3.046875q-0.921875 1.03125 -2.578125 1.03125q-1.375 0 -2.359375 -0.640625l0 3.9375l-1.734375 0l0 -11.03125zm3.640625 6.421875q1.125 0 1.65625 -0.6875q0.546875 -0.6875 0.546875 -2.09375q0 -1.34375 -0.5 -1.90625q-0.484375 -0.578125 -1.65625 -0.578125q-1.171875 0 -1.953125 0.8125l0 3.78125q0.765625 0.671875 1.90625 0.671875zm13.419525 2.3125q-1.109375 -0.984375 -1.640625 -2.59375q-0.515625 -1.609375 -0.515625 -3.40625q0 -1.8125 0.515625 -3.40625q0.53125 -1.609375 1.640625 -2.59375l1.96875 0q-2.359375 2.046875 -2.359375 6.0q0 3.953125 2.359375 6.0l-1.96875 0zm2.7312622 0q1.234375 -1.078125 1.796875 -2.578125q0.5625 -1.5 0.5625 -3.421875q0 -3.96875 -2.359375 -6.0l1.984375 0q1.09375 0.984375 1.609375 2.59375q0.53125 1.609375 0.53125 3.40625q0 1.796875 -0.53125 3.40625q-0.515625 1.609375 -1.609375 2.59375l-1.984375 0z" fill-rule="nonzero"/><path fill="#cc0000" d="m392.43466 527.0747l97.32446 0l0 0c12.749756 0 23.08548 9.583069 23.08548 21.404419c0 11.821289 -10.335724 21.404419 -23.08548 21.404419l-97.32446 0l0 0c-12.749756 0 -23.08548 -9.58313 -23.08548 -21.404419c0 -11.82135 10.335724 -21.404419 23.08548 -21.404419z" fill-rule="evenodd"/><path fill="#ffffff" d="m436.03 554.49536q-0.34375 0 -0.75 -0.0625q-0.390625 -0.046875 -0.625 -0.140625l-1.28125 -3.40625l-1.109375 0l0.078125 -1.3125l2.125 0l1.328125 3.546875q1.140625 0.046875 1.828125 -0.71875q0.6875 -0.765625 0.6875 -2.46875q0 -1.125 -0.296875 -1.765625q-0.296875 -0.65625 -0.96875 -0.9375q-0.671875 -0.28125 -1.859375 -0.28125q-1.46875 0 -2.734375 0.421875l0 -1.34375q1.515625 -0.484375 3.203125 -0.484375q2.234375 0 3.28125 1.109375q1.0625 1.109375 1.0625 3.28125q0 1.453125 -0.546875 2.484375q-0.53125 1.03125 -1.4375 1.5625q-0.90625 0.515625 -1.984375 0.515625zm9.604004 0q-1.875 0 -2.90625 -0.875q-1.03125 -0.890625 -1.03125 -2.640625l0 -5.28125l1.734375 0l0 5.34375q0 1.0625 0.546875 1.5625q0.5625 0.5 1.65625 0.5q1.109375 0 1.671875 -0.5q0.5625 -0.5 0.5625 -1.5625l0 -5.34375l1.71875 0l0 5.28125q0 1.75 -1.03125 2.640625q-1.015625 0.875 -2.921875 0.875z" fill-rule="nonzero"/><path fill="#000000" fill-opacity="0.0" d="m441.0974 69.568665l0 35.90551" fill-rule="evenodd"/><path stroke="#000000" stroke-width="1.0" stroke-linejoin="round" stroke-linecap="butt" d="m441.0974 69.568665l0 29.90551" fill-rule="evenodd"/><path fill="#000000" stroke="#000000" stroke-width="1.0" stroke-linecap="butt" d="m439.44568 99.474174l1.6517334 4.5380936l1.6517334 -4.5380936z" fill-rule="evenodd"/><path fill="#000000" fill-opacity="0.0" d="m441.0969 491.1692l0 35.905518" fill-rule="evenodd"/><path stroke="#000000" stroke-width="1.0" stroke-linejoin="round" stroke-linecap="butt" d="m441.09686 491.16922l0 29.905487" fill-rule="evenodd"/><path fill="#000000" stroke="#000000" stroke-width="1.0" stroke-linecap="butt" d="m439.44513 521.0747l1.6517334 4.538086l1.6517334 -4.538086z" fill-rule="evenodd"/><path fill="#000000" fill-opacity="0.0" d="m441.0974 172.5398l0 35.905502" fill-rule="evenodd"/><path stroke="#000000" stroke-width="1.0" stroke-linejoin="round" stroke-linecap="butt" d="m441.0974 172.53978l0 29.905518" fill-rule="evenodd"/><path fill="#000000" stroke="#000000" stroke-width="1.0" stroke-linecap="butt" d="m439.44568 202.4453l1.6517334 4.538086l1.6517334 -4.538086z" fill-rule="evenodd"/><path fill="#0f9d58" d="m345.1601 170.71391l14.748047 -58.992126l177.12598 0l-14.748047 58.992126z" fill-rule="evenodd"/><path fill="#ffffff" d="m402.42804 117.405975l2.34375 0l0 1.703125l-2.34375 0l0 -1.703125zm0.171875 4.6875l-1.140625 0l0.203125 -1.59375l3.09375 0l0 7.578125l-2.15625 0l0 -5.984375zm3.9953918 -1.59375l2.0 0l0.078125 0.71875q0.515625 -0.390625 1.21875 -0.640625q0.703125 -0.25 1.453125 -0.25q1.5 0 2.1875 0.703125q0.703125 0.6875 0.703125 2.1875l0 4.859375l-2.15625 0l0 -4.75q0 -0.78125 -0.328125 -1.09375q-0.3125 -0.3125 -1.15625 -0.3125q-0.484375 0 -0.984375 0.21875q-0.5 0.203125 -0.84375 0.5625l0 5.375l-2.171875 0l0 -7.578125zm12.407623 7.734375q-1.296875 0 -1.9375 -0.671875q-0.640625 -0.671875 -0.640625 -1.890625l0 -3.515625l-1.078125 0l0 -1.65625l1.078125 0l0 -1.640625l2.15625 -0.640625l0 2.28125l1.921875 0l-0.125 1.65625l-1.796875 0l0 3.375q0 0.609375 0.28125 0.859375q0.28125 0.234375 0.90625 0.234375q0.453125 0 0.921875 -0.15625l0 1.484375q-0.71875 0.28125 -1.6875 0.28125zm11.835541 0q-2.0625 0 -3.328125 -0.5625l0 -1.890625q0.71875 0.28125 1.53125 0.46875q0.828125 0.171875 1.59375 0.171875q1.203125 0 1.6875 -0.21875q0.484375 -0.234375 0.484375 -0.9375q0 -0.46875 -0.234375 -0.734375q-0.21875 -0.28125 -0.734375 -0.46875q-0.5 -0.203125 -1.59375 -0.515625q-1.609375 -0.4375 -2.265625 -1.109375q-0.65625 -0.671875 -0.65625 -1.859375q0 -1.421875 1.03125 -2.1875q1.046875 -0.78125 3.03125 -0.78125q0.890625 0 1.703125 0.125q0.8125 0.125 1.328125 0.3125l0 1.90625q-1.3125 -0.5 -2.75 -0.5q-1.078125 0 -1.625 0.25q-0.53125 0.234375 -0.53125 0.875q0 0.390625 0.203125 0.640625q0.203125 0.234375 0.671875 0.421875q0.46875 0.1875 1.46875 0.4375q1.78125 0.484375 2.46875 1.25q0.6875 0.75 0.6875 1.9375q0 1.390625 -1.0625 2.1875q-1.046875 0.78125 -3.109375 0.78125zm8.132507 0q-1.296875 0 -1.9375 -0.671875q-0.640625 -0.671875 -0.640625 -1.890625l0 -3.515625l-1.078125 0l0 -1.65625l1.078125 0l0 -1.640625l2.15625 -0.640625l0 2.28125l1.921875 0l-0.125 1.65625l-1.796875 0l0 3.375q0 0.609375 0.28125 0.859375q0.28125 0.234375 0.90625 0.234375q0.453125 0 0.921875 -0.15625l0 1.484375q-0.71875 0.28125 -1.6875 0.28125zm5.284912 0q-1.375 0 -2.140625 -0.765625q-0.75 -0.765625 -0.75 -2.21875l0 -4.75l2.15625 0l0 4.703125q0 0.75 0.359375 1.109375q0.375 0.34375 1.125 0.34375q0.546875 0 1.015625 -0.21875q0.46875 -0.21875 0.8125 -0.5625l0 -5.375l2.171875 0l0 7.578125l-2.0 0l-0.078125 -0.71875q-1.109375 0.875 -2.671875 0.875zm9.751373 0q-1.609375 0 -2.546875 -0.875q-0.9375 -0.890625 -0.9375 -2.84375q0 -1.3125 0.484375 -2.25q0.484375 -0.953125 1.3125 -1.4375q0.828125 -0.5 1.84375 -0.5q1.25 0 2.140625 0.578125l0 -3.609375l2.15625 0l0 10.78125l-1.859375 0l-0.125 -0.703125q-0.5 0.4375 -1.09375 0.65625q-0.59375 0.203125 -1.375 0.203125zm0.59375 -1.578125q0.53125 0 0.921875 -0.15625q0.40625 -0.171875 0.78125 -0.53125l0 -3.453125q-0.671875 -0.59375 -1.578125 -0.59375q-0.984375 0 -1.5 0.65625q-0.515625 0.65625 -0.515625 1.9375q0 1.15625 0.46875 1.65625q0.484375 0.484375 1.421875 0.484375zm6.9387817 4.234375q-0.984375 0 -1.625 -0.25l0 -1.515625q0.453125 0.15625 0.96875 0.15625q0.640625 0 1.0 -0.296875q0.359375 -0.28125 0.75 -1.03125l-3.390625 -7.453125l2.25 0l2.234375 5.140625l2.203125 -5.140625l2.234375 0l-2.984375 7.046875q-0.703125 1.6875 -1.53125 2.515625q-0.8125 0.828125 -2.109375 0.828125zm13.271149 -9.21875l6.21875 0l0 1.515625l-6.21875 0l0 -1.515625zm0 2.625l6.21875 0l0 1.53125l-6.21875 0l0 -1.53125z" fill-rule="nonzero"/><path fill="#ffffff" d="m382.84158 147.2341q-2.03125 0 -3.046875 -1.0q-1.0 -1.0 -1.0 -3.046875l0 -2.203125q0 -1.28125 0.546875 -2.265625q0.5625 -1.0 1.59375 -1.546875q1.03125 -0.5625 2.40625 -0.5625q0.78125 0 1.375 0.109375q0.59375 0.09375 1.140625 0.28125l0 1.859375q-1.0 -0.40625 -2.375 -0.40625q-1.296875 0 -1.984375 0.5625q-0.671875 0.5625 -0.671875 1.53125l0 0.5q0.5 -0.359375 1.171875 -0.546875q0.6875 -0.1875 1.296875 -0.1875q1.796875 0 2.671875 0.875q0.890625 0.875 0.890625 2.546875q0 1.609375 -1.0 2.5625q-1.0 0.9375 -3.015625 0.9375zm0.015625 -1.59375q1.0 0 1.53125 -0.484375q0.53125 -0.5 0.53125 -1.34375q0 -0.921875 -0.46875 -1.390625q-0.453125 -0.46875 -1.5625 -0.46875q-0.515625 0 -1.0625 0.203125q-0.53125 0.1875 -1.0 0.484375l0 0.984375q0 2.015625 2.03125 2.015625zm7.4980164 -2.0625l-2.234375 0l0 -1.6875l2.234375 0l0 -2.1875l1.703125 0l0 2.1875l2.234375 0l0 1.6875l-2.234375 0l0 2.140625l-1.703125 0l0 -2.140625zm5.2075195 2.453125q0.375 -0.828125 1.0 -1.515625q0.625 -0.703125 1.671875 -1.625l0.421875 -0.375q0.75 -0.6875 1.0625 -1.015625q0.3125 -0.328125 0.4375 -0.671875q0.140625 -0.34375 0.140625 -0.875q0 -0.734375 -0.484375 -1.109375q-0.46875 -0.375 -1.40625 -0.375q-1.234375 0 -2.484375 0.5l0 -1.90625q0.59375 -0.203125 1.40625 -0.328125q0.8125 -0.125 1.5625 -0.125q1.765625 0 2.671875 0.875q0.921875 0.875 0.921875 2.421875q0 0.984375 -0.46875 1.71875q-0.453125 0.734375 -1.40625 1.546875l-0.25 0.21875q-0.71875 0.625 -1.1875 1.09375q-0.46875 0.453125 -0.796875 0.9375l4.203125 0l0 1.65625l-7.015625 0l0 -1.046875zm10.520538 -2.453125l-2.234375 0l0 -1.6875l2.234375 0l0 -2.1875l1.703125 0l0 2.1875l2.234375 0l0 1.6875l-2.234375 0l0 2.140625l-1.703125 0l0 -2.140625zm6.8793945 -4.859375l-1.671875 0.28125l0 -1.8125l3.84375 -0.578125l0 10.46875l-2.171875 0l0 -8.359375zm5.984619 4.859375l-2.234375 0l0 -1.6875l2.234375 0l0 -2.1875l1.703125 0l0 2.1875l2.234375 0l0 1.6875l-2.234375 0l0 2.140625l-1.703125 0l0 -2.140625zm5.2075195 2.453125q0.375 -0.828125 1.0 -1.515625q0.625 -0.703125 1.671875 -1.625l0.421875 -0.375q0.75 -0.6875 1.0625 -1.015625q0.3125 -0.328125 0.4375 -0.671875q0.140625 -0.34375 0.140625 -0.875q0 -0.734375 -0.484375 -1.109375q-0.46875 -0.375 -1.40625 -0.375q-1.234375 0 -2.484375 0.5l0 -1.90625q0.59375 -0.203125 1.40625 -0.328125q0.8125 -0.125 1.5625 -0.125q1.765625 0 2.671875 0.875q0.921875 0.875 0.921875 2.421875q0 0.984375 -0.46875 1.71875q-0.453125 0.734375 -1.40625 1.546875l-0.25 0.21875q-0.71875 0.625 -1.1875 1.09375q-0.46875 0.453125 -0.796875 0.9375l4.203125 0l0 1.65625l-7.015625 0l0 -1.046875zm10.520538 -2.453125l-2.234375 0l0 -1.6875l2.234375 0l0 -2.1875l1.703125 0l0 2.1875l2.234375 0l0 1.6875l-2.234375 0l0 2.140625l-1.703125 0l0 -2.140625zm9.86377 3.921875q-2.46875 0 -3.5625 -1.375q-1.09375 -1.390625 -1.09375 -4.078125q0 -2.6875 1.09375 -4.0625q1.09375 -1.375 3.5625 -1.375q2.46875 0 3.5625 1.375q1.09375 1.375 1.09375 4.0625q0 2.6875 -1.09375 4.078125q-1.09375 1.375 -3.5625 1.375zm0 -1.859375q1.34375 0 1.90625 -0.890625q0.5625 -0.890625 0.5625 -2.703125q0 -1.796875 -0.5625 -2.6875q-0.5625 -0.890625 -1.90625 -0.890625q-1.34375 0 -1.90625 0.890625q-0.5625 0.890625 -0.5625 2.6875q0 1.8125 0.5625 2.703125q0.5625 0.890625 1.90625 0.890625zm8.152252 -2.0625l-2.234375 0l0 -1.6875l2.234375 0l0 -2.1875l1.703125 0l0 2.1875l2.234375 0l0 1.6875l-2.234375 0l0 2.140625l-1.703125 0l0 -2.140625zm8.23877 3.65625q-0.75 0 -1.59375 -0.125q-0.84375 -0.125 -1.390625 -0.375l0 -1.859375q0.546875 0.234375 1.296875 0.375q0.75 0.125 1.390625 0.125q1.125 0 1.640625 -0.359375q0.515625 -0.359375 0.515625 -1.1875q0 -0.78125 -0.390625 -1.109375q-0.375 -0.34375 -1.390625 -0.34375l-3.109375 0l0 -1.21875l0.265625 -4.375l6.125 0l-0.15625 1.65625l-4.125 0l-0.140625 2.265625l1.546875 0q1.84375 0 2.703125 0.8125q0.875 0.796875 0.875 2.390625q0 1.5625 -1.046875 2.453125q-1.03125 0.875 -3.015625 0.875zm7.569275 -3.65625l-2.234375 0l0 -1.6875l2.234375 0l0 -2.1875l1.703125 0l0 2.1875l2.234375 0l0 1.6875l-2.234375 0l0 2.140625l-1.703125 0l0 -2.140625zm9.86377 3.921875q-2.46875 0 -3.5625 -1.375q-1.09375 -1.390625 -1.09375 -4.078125q0 -2.6875 1.09375 -4.0625q1.09375 -1.375 3.5625 -1.375q2.46875 0 3.5625 1.375q1.09375 1.375 1.09375 4.0625q0 2.6875 -1.09375 4.078125q-1.09375 1.375 -3.5625 1.375zm0 -1.859375q1.34375 0 1.90625 -0.890625q0.5625 -0.890625 0.5625 -2.703125q0 -1.796875 -0.5625 -2.6875q-0.5625 -0.890625 -1.90625 -0.890625q-1.34375 0 -1.90625 0.890625q-0.5625 0.890625 -0.5625 2.6875q0 1.8125 0.5625 2.703125q0.5625 0.890625 1.90625 0.890625zm8.152252 -2.0625l-2.234375 0l0 -1.6875l2.234375 0l0 -2.1875l1.703125 0l0 2.1875l2.234375 0l0 1.6875l-2.234375 0l0 2.140625l-1.703125 0l0 -2.140625zm6.8793945 -4.859375l-1.671875 0.28125l0 -1.8125l3.84375 -0.578125l0 10.46875l-2.171875 0l0 -8.359375zm5.9846497 4.859375l-2.234375 0l0 -1.6875l2.234375 0l0 -2.1875l1.703125 0l0 2.1875l2.234375 0l0 1.6875l-2.234375 0l0 2.140625l-1.703125 0l0 -2.140625z" fill-rule="nonzero"/><path fill="#ffffff" d="m423.97107 166.49973q-2.46875 0 -3.5625 -1.375q-1.09375 -1.390625 -1.09375 -4.078125q0 -2.6875 1.09375 -4.0625q1.09375 -1.375 3.5625 -1.375q2.46875 0 3.5625 1.375q1.09375 1.375 1.09375 4.0625q0 2.6875 -1.09375 4.078125q-1.09375 1.375 -3.5625 1.375zm0 -1.859375q1.34375 0 1.90625 -0.890625q0.5625 -0.890625 0.5625 -2.703125q0 -1.796875 -0.5625 -2.6875q-0.5625 -0.890625 -1.90625 -0.890625q-1.34375 0 -1.90625 0.890625q-0.5625 0.890625 -0.5625 2.6875q0 1.8125 0.5625 2.703125q0.5625 0.890625 1.90625 0.890625zm8.152252 -2.0625l-2.234375 0l0 -1.6875l2.234375 0l0 -2.1875l1.703125 0l0 2.1875l2.234375 0l0 1.6875l-2.234375 0l0 2.140625l-1.703125 0l0 -2.140625zm9.86377 3.921875q-2.46875 0 -3.5625 -1.375q-1.09375 -1.390625 -1.09375 -4.078125q0 -2.6875 1.09375 -4.0625q1.09375 -1.375 3.5625 -1.375q2.46875 0 3.5625 1.375q1.09375 1.375 1.09375 4.0625q0 2.6875 -1.09375 4.078125q-1.09375 1.375 -3.5625 1.375zm0 -1.859375q1.34375 0 1.90625 -0.890625q0.5625 -0.890625 0.5625 -2.703125q0 -1.796875 -0.5625 -2.6875q-0.5625 -0.890625 -1.90625 -0.890625q-1.34375 0 -1.90625 0.890625q-0.5625 0.890625 -0.5625 2.6875q0 1.8125 0.5625 2.703125q0.5625 0.890625 1.90625 0.890625zm8.152283 -2.0625l-2.234375 0l0 -1.6875l2.234375 0l0 -2.1875l1.703125 0l0 2.1875l2.234375 0l0 1.6875l-2.234375 0l0 2.140625l-1.703125 0l0 -2.140625zm9.879395 1.34375l-5.0 0l0 -1.46875l5.265625 -6.671875l1.890625 0l0 6.390625l1.015625 0l0 1.75l-1.015625 0l0 2.15625l-2.15625 0l0 -2.15625zm0.359375 -1.671875l0 -4.09375l-3.28125 4.09375l3.28125 0z" fill-rule="nonzero"/><path fill="#f4b400" d="m341.3805 244.64305l39.886597 -31.776917l119.65985 0l39.886597 31.776917l-39.886597 31.776901l-119.65985 0z" fill-rule="evenodd"/><path fill="#ffffff" d="m406.3337 225.28429l-1.09375 0l0 -1.359375l1.09375 0l0 -0.9375q0 -1.140625 0.640625 -1.828125q0.65625 -0.703125 1.875 -0.703125q0.8125 0 1.546875 0.28125l0 1.25q-0.484375 -0.1875 -1.0 -0.1875q-0.75 0 -1.046875 0.265625q-0.28125 0.265625 -0.28125 0.9375l0 0.921875l1.984375 0l-0.078125 1.359375l-1.90625 0l0 6.21875l-1.734375 0l0 -6.21875zm8.211884 6.375q-3.953125 0 -3.953125 -3.953125q0 -3.953125 3.953125 -3.953125q3.96875 0 3.96875 3.953125q0 3.953125 -3.96875 3.953125zm0 -1.46875q1.203125 0 1.703125 -0.578125q0.5 -0.578125 0.5 -1.90625q0 -1.3125 -0.5 -1.875q-0.5 -0.578125 -1.703125 -0.578125q-1.1875 0 -1.6875 0.578125q-0.5 0.5625 -0.5 1.875q0 1.328125 0.5 1.90625q0.5 0.578125 1.6875 0.578125zm5.6710205 -6.265625l1.59375 0l0.09375 0.875q0.546875 -0.359375 1.296875 -0.640625q0.75 -0.28125 1.484375 -0.40625l0 1.328125q-0.6875 0.140625 -1.484375 0.40625q-0.796875 0.25 -1.25 0.546875l0 5.46875l-1.734375 0l0 -7.578125zm13.620148 8.734375q-1.109375 -0.984375 -1.640625 -2.59375q-0.515625 -1.609375 -0.515625 -3.40625q0 -1.8125 0.515625 -3.40625q0.53125 -1.609375 1.640625 -2.59375l1.96875 0q-2.359375 2.046875 -2.359375 6.0q0 3.953125 2.359375 6.0l-1.96875 0zm10.291901 -11.765625l1.90625 0l0 1.4375l-1.90625 0l0 -1.4375zm0.140625 4.359375l-1.140625 0l0.15625 -1.328125l2.734375 0l0 7.578125l-1.75 0l0 -6.25zm3.787384 -1.328125l1.59375 0l0.078125 0.796875q0.546875 -0.4375 1.265625 -0.703125q0.71875 -0.265625 1.53125 -0.265625q1.46875 0 2.140625 0.6875q0.671875 0.6875 0.671875 2.15625l0 4.90625l-1.71875 0l0 -4.828125q0 -0.890625 -0.375 -1.234375q-0.359375 -0.359375 -1.34375 -0.359375q-0.59375 0 -1.15625 0.25q-0.5625 0.234375 -0.953125 0.625l0 5.546875l-1.734375 0l0 -7.578125zm12.138641 7.734375q-1.203125 0 -1.8125 -0.625q-0.609375 -0.640625 -0.609375 -1.78125l0 -3.96875l-1.109375 0l0 -1.359375l1.109375 0l0 -1.75l1.734375 -0.53125l0 2.28125l2.015625 0l-0.109375 1.359375l-1.90625 0l0 3.859375q0 0.65625 0.296875 0.921875q0.296875 0.265625 1.0 0.265625q0.421875 0 0.90625 -0.15625l0 1.234375q-0.625 0.25 -1.515625 0.25zm8.837402 -7.734375l1.5 0l0.09375 0.75q0.53125 -0.46875 1.140625 -0.6875q0.609375 -0.234375 1.421875 -0.234375q1.6875 0 2.5625 0.921875q0.890625 0.90625 0.890625 2.90625q0 2.015625 -0.9375 3.046875q-0.921875 1.03125 -2.578125 1.03125q-1.375 0 -2.359375 -0.640625l0 3.9375l-1.734375 0l0 -11.03125zm3.640625 6.421875q1.125 0 1.65625 -0.6875q0.546875 -0.6875 0.546875 -2.09375q0 -1.34375 -0.5 -1.90625q-0.484375 -0.578125 -1.65625 -0.578125q-1.171875 0 -1.953125 0.8125l0 3.78125q0.765625 0.671875 1.90625 0.671875z" fill-rule="nonzero"/><path fill="#ffffff" d="m393.71243 244.34679l6.171875 0l0 1.234375l-6.171875 0l0 -1.234375zm0 2.4375l6.171875 0l0 1.25l-6.171875 0l0 -1.25zm12.099274 4.0q-2.375 0 -3.453125 -1.359375q-1.078125 -1.359375 -1.078125 -3.953125q0 -2.6875 1.046875 -4.0625q1.0625 -1.375 3.484375 -1.375q2.390625 0 3.453125 1.375q1.0625 1.375 1.0625 4.0625q0 2.59375 -1.09375 3.953125q-1.078125 1.359375 -3.421875 1.359375zm0 -1.484375q1.46875 0 2.109375 -0.96875q0.640625 -0.984375 0.640625 -2.859375q0 -2.0 -0.625 -2.96875q-0.625 -0.96875 -2.125 -0.96875q-1.515625 0 -2.140625 0.96875q-0.625 0.96875 -0.625 2.96875q0 1.890625 0.640625 2.859375q0.640625 0.96875 2.125 0.96875zm6.4160156 -5.390625l1.453125 0l0 1.375l-1.453125 0l0 -1.375zm-0.046875 5.359375l1.515625 0l-0.734375 3.03125l-1.265625 0l0.484375 -3.03125zm3.2357483 -6.34375l1.5 0l0.09375 0.75q0.53125 -0.46875 1.140625 -0.6875q0.609375 -0.234375 1.421875 -0.234375q1.6875 0 2.5625 0.921875q0.890625 0.90625 0.890625 2.90625q0 2.015625 -0.9375 3.046875q-0.921875 1.03125 -2.578125 1.03125q-1.375 0 -2.359375 -0.640625l0 3.9375l-1.734375 0l0 -11.03125zm3.640625 6.421875q1.125 0 1.65625 -0.6875q0.546875 -0.6875 0.546875 -2.09375q0 -1.34375 -0.5 -1.90625q-0.484375 -0.578125 -1.65625 -0.578125q-1.171875 0 -1.953125 0.8125l0 3.78125q0.765625 0.671875 1.90625 0.671875zm5.3432617 -2.921875l0 -1.421875l7.328125 -3.328125l0 1.609375l-5.484375 2.421875l5.484375 2.421875l0 1.640625l-7.328125 -3.34375zm8.704041 -2.078125l6.171875 0l0 1.234375l-6.171875 0l0 -1.234375zm0 2.4375l6.171875 0l0 1.25l-6.171875 0l0 -1.25zm9.239868 -5.046875l-1.671875 0.28125l0 -1.453125l3.390625 -0.53125l0 10.46875l-1.71875 0l0 -8.765625zm7.963379 9.046875q-2.375 0 -3.453125 -1.359375q-1.078125 -1.359375 -1.078125 -3.953125q0 -2.6875 1.046875 -4.0625q1.0625 -1.375 3.484375 -1.375q2.390625 0 3.453125 1.375q1.0625 1.375 1.0625 4.0625q0 2.59375 -1.09375 3.953125q-1.078125 1.359375 -3.421875 1.359375zm0 -1.484375q1.46875 0 2.109375 -0.96875q0.640625 -0.984375 0.640625 -2.859375q0 -2.0 -0.625 -2.96875q-0.625 -0.96875 -2.125 -0.96875q-1.515625 0 -2.140625 0.96875q-0.625 0.96875 -0.625 2.96875q0 1.890625 0.640625 2.859375q0.640625 0.96875 2.125 0.96875zm10.416016 1.484375q-2.375 0 -3.453125 -1.359375q-1.078125 -1.359375 -1.078125 -3.953125q0 -2.6875 1.046875 -4.0625q1.0625 -1.375 3.484375 -1.375q2.390625 0 3.453125 1.375q1.0625 1.375 1.0625 4.0625q0 2.59375 -1.09375 3.953125q-1.078125 1.359375 -3.421875 1.359375zm0 -1.484375q1.46875 0 2.109375 -0.96875q0.640625 -0.984375 0.640625 -2.859375q0 -2.0 -0.625 -2.96875q-0.625 -0.96875 -2.125 -0.96875q-1.515625 0 -2.140625 0.96875q-0.625 0.96875 -0.625 2.96875q0 1.890625 0.640625 2.859375q0.640625 0.96875 2.125 0.96875zm10.416016 1.484375q-2.375 0 -3.453125 -1.359375q-1.078125 -1.359375 -1.078125 -3.953125q0 -2.6875 1.046875 -4.0625q1.0625 -1.375 3.484375 -1.375q2.390625 0 3.453125 1.375q1.0625 1.375 1.0625 4.0625q0 2.59375 -1.09375 3.953125q-1.078125 1.359375 -3.421875 1.359375zm0 -1.484375q1.46875 0 2.109375 -0.96875q0.640625 -0.984375 0.640625 -2.859375q0 -2.0 -0.625 -2.96875q-0.625 -0.96875 -2.125 -0.96875q-1.515625 0 -2.140625 0.96875q-0.625 0.96875 -0.625 2.96875q0 1.890625 0.640625 2.859375q0.640625 0.96875 2.125 0.96875zm6.4160156 -5.390625l1.453125 0l0 1.375l-1.453125 0l0 -1.375zm-0.046875 5.359375l1.515625 0l-0.734375 3.03125l-1.265625 0l0.484375 -3.03125zm3.2357788 -9.0625l4.578125 0q1.71875 0 2.59375 0.9375q0.875 0.9375 0.875 2.5q0 1.53125 -0.953125 2.46875q-0.953125 0.921875 -2.578125 0.921875l-2.78125 0l0 3.46875l-1.734375 0l0 -10.296875zm4.203125 5.453125q1.0 0 1.546875 -0.53125q0.546875 -0.546875 0.546875 -1.484375q0 -1.0 -0.515625 -1.53125q-0.515625 -0.546875 -1.5 -0.546875l-2.546875 0l0 4.09375l2.46875 0z" fill-rule="nonzero"/><path fill="#ffffff" d="m431.06274 265.87805l-2.359375 0l0 -1.359375l2.359375 0l0 -2.34375l1.390625 0l0 2.34375l2.34375 0l0 1.359375l-2.34375 0l0 2.25l-1.390625 0l0 -2.25zm7.5680237 0l-2.359375 0l0 -1.359375l2.359375 0l0 -2.34375l1.390625 0l0 2.34375l2.34375 0l0 1.359375l-2.34375 0l0 2.25l-1.390625 0l0 -2.25zm10.769257 4.78125q1.234375 -1.078125 1.796875 -2.578125q0.5625 -1.5 0.5625 -3.421875q0 -3.96875 -2.359375 -6.0l1.984375 0q1.09375 0.984375 1.609375 2.59375q0.53125 1.609375 0.53125 3.40625q0 1.796875 -0.53125 3.40625q-0.515625 1.609375 -1.609375 2.59375l-1.984375 0z" fill-rule="nonzero"/><path fill="#f4b400" d="m349.17606 348.89343l91.9205 -37.477417l91.92053 37.477417l-91.92053 37.477448z" fill-rule="evenodd"/><path fill="#ffffff" d="m428.68018 328.17532l1.5 0l0.09375 0.75q0.53125 -0.46875 1.140625 -0.6875q0.609375 -0.234375 1.421875 -0.234375q1.6875 0 2.5625 0.921875q0.890625 0.90625 0.890625 2.90625q0 2.015625 -0.9375 3.046875q-0.921875 1.03125 -2.578125 1.03125q-1.375 0 -2.359375 -0.640625l0 3.9375l-1.734375 0l0 -11.03125zm3.640625 6.421875q1.125 0 1.65625 -0.6875q0.546875 -0.6875 0.546875 -2.09375q0 -1.34375 -0.5 -1.90625q-0.484375 -0.578125 -1.65625 -0.578125q-1.171875 0 -1.953125 0.8125l0 3.78125q0.765625 0.671875 1.90625 0.671875zm13.5289 -4.609375q-1.09375 0 -1.6875 -0.59375q-0.578125 -0.609375 -0.578125 -1.640625q0 -1.171875 0.578125 -1.8125q0.578125 -0.65625 1.6875 -0.65625q1.109375 0 1.6875 0.65625q0.578125 0.640625 0.578125 1.8125q0 1.03125 -0.59375 1.640625q-0.578125 0.59375 -1.671875 0.59375zm4.765625 -4.53125l1.625 0l-5.453125 10.296875l-1.640625 0l5.46875 -10.296875zm-4.765625 3.484375q1.171875 0 1.171875 -1.21875q0 -0.703125 -0.28125 -1.03125q-0.28125 -0.328125 -0.890625 -0.328125q-0.59375 0 -0.875 0.328125q-0.28125 0.328125 -0.28125 1.03125q0 1.21875 1.15625 1.21875zm5.734375 6.96875q-1.109375 0 -1.6875 -0.609375q-0.578125 -0.609375 -0.578125 -1.625q0 -1.171875 0.5625 -1.8125q0.578125 -0.65625 1.703125 -0.65625q1.109375 0 1.671875 0.65625q0.578125 0.640625 0.578125 1.8125q0 1.015625 -0.578125 1.625q-0.578125 0.609375 -1.671875 0.609375zm0 -1.046875q1.171875 0 1.171875 -1.21875q0 -0.703125 -0.28125 -1.03125q-0.28125 -0.328125 -0.890625 -0.328125q-0.609375 0 -0.890625 0.328125q-0.28125 0.328125 -0.28125 1.03125q0 1.21875 1.171875 1.21875z" fill-rule="nonzero"/><path fill="#ffffff" d="m414.1255 354.9097q-2.0 0 -3.21875 -0.515625l0 -1.53125q1.5 0.578125 3.0625 0.578125q1.296875 0 1.875 -0.296875q0.59375 -0.3125 0.59375 -1.140625q0 -0.53125 -0.25 -0.84375q-0.25 -0.3125 -0.8125 -0.53125q-0.5625 -0.234375 -1.671875 -0.515625q-1.671875 -0.4375 -2.34375 -1.09375q-0.671875 -0.671875 -0.671875 -1.828125q0 -1.375 1.0 -2.140625q1.015625 -0.765625 2.953125 -0.765625q0.84375 0 1.640625 0.125q0.796875 0.125 1.28125 0.296875l0 1.53125q-1.203125 -0.453125 -2.6875 -0.453125q-1.21875 0 -1.828125 0.3125q-0.59375 0.3125 -0.59375 1.09375q0 0.453125 0.21875 0.734375q0.21875 0.28125 0.734375 0.5q0.53125 0.21875 1.5625 0.46875q1.8125 0.46875 2.515625 1.203125q0.703125 0.734375 0.703125 1.90625q0 1.375 -1.03125 2.140625q-1.03125 0.765625 -3.03125 0.765625zm8.101288 0q-1.203125 0 -1.8125 -0.625q-0.609375 -0.640625 -0.609375 -1.78125l0 -3.96875l-1.109375 0l0 -1.359375l1.109375 0l0 -1.75l1.734375 -0.53125l0 2.28125l2.015625 0l-0.109375 1.359375l-1.90625 0l0 3.859375q0 0.65625 0.296875 0.921875q0.296875 0.265625 1.0 0.265625q0.421875 0 0.90625 -0.15625l0 1.234375q-0.625 0.25 -1.515625 0.25zm5.25177 0q-1.359375 0 -2.09375 -0.75q-0.734375 -0.765625 -0.734375 -2.203125l0 -4.78125l1.75 0l0 4.78125q0 0.84375 0.40625 1.25q0.421875 0.390625 1.296875 0.390625q0.609375 0 1.15625 -0.21875q0.546875 -0.234375 0.96875 -0.65625l0 -5.546875l1.71875 0l0 7.578125l-1.578125 0l-0.078125 -0.78125q-1.203125 0.9375 -2.8125 0.9375zm9.638641 0q-1.640625 0 -2.546875 -0.859375q-0.90625 -0.875 -0.90625 -2.84375q0 -1.328125 0.453125 -2.265625q0.46875 -0.953125 1.28125 -1.4375q0.828125 -0.5 1.875 -0.5q0.671875 0 1.21875 0.171875q0.546875 0.15625 1.046875 0.484375l0 -3.6875l1.734375 0l0 10.78125l-1.484375 0l-0.109375 -0.75q-0.53125 0.484375 -1.140625 0.703125q-0.609375 0.203125 -1.421875 0.203125zm0.46875 -1.3125q1.171875 0 1.953125 -0.796875l0 -3.796875q-0.75 -0.671875 -1.890625 -0.671875q-1.109375 0 -1.671875 0.75q-0.546875 0.734375 -0.546875 2.140625q0 1.328125 0.5 1.859375q0.5 0.515625 1.65625 0.515625zm6.7013855 3.96875q-0.859375 0 -1.46875 -0.21875l0 -1.296875q0.453125 0.15625 0.96875 0.15625q0.484375 0 0.78125 -0.15625q0.3125 -0.140625 0.53125 -0.46875q0.234375 -0.3125 0.53125 -0.921875l-3.375 -7.484375l1.8125 0l2.421875 5.625l2.46875 -5.625l1.796875 0l-3.09375 7.140625q-0.6875 1.640625 -1.4375 2.4375q-0.734375 0.8125 -1.9375 0.8125zm13.456787 -8.96875l6.171875 0l0 1.234375l-6.171875 0l0 -1.234375zm0 2.4375l6.171875 0l0 1.25l-6.171875 0l0 -1.25zm7.567993 -2.4375l6.171875 0l0 1.234375l-6.171875 0l0 -1.234375zm0 2.4375l6.171875 0l0 1.25l-6.171875 0l0 -1.25z" fill-rule="nonzero"/><path fill="#ffffff" d="m441.1073 374.0347q-2.375 0 -3.453125 -1.359375q-1.078125 -1.359375 -1.078125 -3.953125q0 -2.6875 1.046875 -4.0625q1.0625 -1.375 3.484375 -1.375q2.390625 0 3.453125 1.375q1.0625 1.375 1.0625 4.0625q0 2.59375 -1.09375 3.953125q-1.078125 1.359375 -3.421875 1.359375zm0 -1.484375q1.46875 0 2.109375 -0.96875q0.640625 -0.984375 0.640625 -2.859375q0 -2.0 -0.625 -2.96875q-0.625 -0.96875 -2.125 -0.96875q-1.515625 0 -2.140625 0.96875q-0.625 0.96875 -0.625 2.96875q0 1.890625 0.640625 2.859375q0.640625 0.96875 2.125 0.96875z" fill-rule="nonzero"/><path fill="#0f9d58" d="m345.1601 497.05905l14.748047 -58.992126l177.12598 0l-14.748047 58.992126z" fill-rule="evenodd"/><path fill="#ffffff" d="m386.39523 456.34488l1.875 0l0.109375 0.703125q0.515625 -0.4375 1.109375 -0.65625q0.59375 -0.21875 1.375 -0.21875q1.71875 0 2.59375 0.9375q0.875 0.921875 0.875 2.921875q0 2.015625 -0.953125 3.03125q-0.9375 1.015625 -2.640625 1.015625q-1.28125 0 -2.171875 -0.578125l0 3.875l-2.171875 0l0 -11.03125zm3.796875 6.15625q0.984375 0 1.46875 -0.59375q0.484375 -0.609375 0.484375 -1.859375q0 -1.21875 -0.453125 -1.75q-0.4375 -0.53125 -1.4375 -0.53125q-0.984375 0 -1.6875 0.6875l0 3.46875q0.359375 0.28125 0.734375 0.4375q0.375 0.140625 0.890625 0.140625zm5.643158 -6.15625l2.0 0l0.109375 0.78125q0.515625 -0.34375 1.265625 -0.59375q0.765625 -0.25 1.5 -0.359375l0 1.640625q-0.6875 0.09375 -1.484375 0.328125q-0.78125 0.234375 -1.21875 0.484375l0 5.296875l-2.171875 0l0 -7.578125zm7.016754 -3.09375l2.34375 0l0 1.703125l-2.34375 0l0 -1.703125zm0.171875 4.6875l-1.140625 0l0.203125 -1.59375l3.09375 0l0 7.578125l-2.15625 0l0 -5.984375zm3.9953918 -1.59375l2.0 0l0.078125 0.71875q0.515625 -0.390625 1.21875 -0.640625q0.703125 -0.25 1.453125 -0.25q1.5 0 2.1875 0.703125q0.703125 0.6875 0.703125 2.1875l0 4.859375l-2.15625 0l0 -4.75q0 -0.78125 -0.328125 -1.09375q-0.3125 -0.3125 -1.15625 -0.3125q-0.484375 0 -0.984375 0.21875q-0.5 0.203125 -0.84375 0.5625l0 5.375l-2.171875 0l0 -7.578125zm12.407654 7.734375q-1.296875 0 -1.9375 -0.671875q-0.640625 -0.671875 -0.640625 -1.890625l0 -3.515625l-1.078125 0l0 -1.65625l1.078125 0l0 -1.640625l2.15625 -0.640625l0 2.28125l1.921875 0l-0.125 1.65625l-1.796875 0l0 3.375q0 0.609375 0.28125 0.859375q0.28125 0.234375 0.90625 0.234375q0.453125 0 0.921875 -0.15625l0 1.484375q-0.71875 0.28125 -1.6875 0.28125zm8.632385 -5.515625q0 -1.625 1.0 -2.53125q1.0 -0.90625 3.078125 -0.90625q2.09375 0 3.078125 0.90625q1.0 0.90625 1.0 2.53125l0 5.359375l-2.171875 0l0 -5.515625q0 -0.78125 -0.5 -1.1875q-0.5 -0.421875 -1.40625 -0.421875q-0.9375 0 -1.421875 0.421875q-0.484375 0.40625 -0.484375 1.1875l0 1.546875q0.671875 -0.515625 1.5 -0.515625l1.03125 0l0.078125 1.71875l-1.15625 0q-0.84375 0 -1.453125 0.46875l0 2.296875l-2.171875 0l0 -5.359375zm5.9855347 -7.109375l2.171875 0l0 2.640625l-2.171875 0l0 -2.640625zm7.125 7.15625q0 -0.921875 -0.359375 -1.359375q-0.359375 -0.453125 -1.328125 -0.453125q-0.5 0 -1.09375 0.125q-0.59375 0.109375 -1.078125 0.296875l0 -1.578125q0.5 -0.234375 1.203125 -0.375q0.703125 -0.140625 1.390625 -0.140625q1.8125 0 2.609375 0.765625q0.8125 0.765625 0.8125 2.421875l0 5.609375l-2.15625 0l0 -5.3125zm4.057495 -3.328125l1.984375 0l0.09375 0.84375q0.59375 -0.46875 1.359375 -0.734375q0.765625 -0.265625 1.640625 -0.265625q1.359375 0 2.125 0.828125q0.78125 0.828125 0.78125 2.28125l0 5.6875l-2.15625 0l0 -5.546875q0 -0.828125 -0.390625 -1.203125q-0.375 -0.375 -1.15625 -0.375q-0.59375 0 -1.1875 0.265625q-0.578125 0.25 -0.921875 0.640625l0 6.21875l-2.171875 0l0 -8.640625zm1.106781 -2.65625l5.125 0l0 -1.296875l1.765625 0l0 2.765625l-7.0 0l0.109375 -1.46875zm5.125 -4.5707397l1.765625 0l0 2.234375l-1.765625 0l0 -2.234375zm3.65625 7.2269897l2.171875 0l0 2.625l2.140625 0q0.796875 0 1.125 -0.34375q0.328125 -0.359375 0.328125 -1.109375l0 -1.171875l2.15625 0l0 1.09375q0 1.796875 -1.234375 2.296875q0.640625 0.265625 0.90625 0.765625q0.265625 0.5 0.265625 1.265625l0 3.21875l-2.15625 0l0 -2.96875q0 -0.828125 -0.3125 -1.140625q-0.3125 -0.328125 -1.125 -0.328125l-2.09375 0l0 4.4375l-2.171875 0l0 -8.640625zm12.82251 3.328125q0 -0.921875 -0.359375 -1.359375q-0.359375 -0.453125 -1.328125 -0.453125q-0.5 0 -1.09375 0.125q-0.59375 0.109375 -1.078125 0.296875l0 -1.578125q0.5 -0.234375 1.203125 -0.375q0.703125 -0.140625 1.390625 -0.140625q1.8125 0 2.609375 0.765625q0.8125 0.765625 0.8125 2.421875l0 5.609375l-2.15625 0l0 -5.3125zm7.1200256 0q0 -0.921875 -0.359375 -1.359375q-0.359375 -0.453125 -1.328125 -0.453125q-0.5 0 -1.09375 0.125q-0.59375 0.109375 -1.078125 0.296875l0 -1.578125q0.5 -0.234375 1.203125 -0.375q0.703125 -0.140625 1.390625 -0.140625q1.8125 0 2.609375 0.765625q0.8125 0.765625 0.8125 2.421875l0 5.609375l-2.15625 0l0 -5.3125zm6.97937 5.46875q-0.921875 0 -1.75 -0.125q-0.8125 -0.125 -1.3125 -0.328125l0 -1.75q0.578125 0.234375 1.3125 0.390625q0.734375 0.140625 1.34375 0.140625q1.09375 0 1.53125 -0.171875q0.453125 -0.171875 0.453125 -0.65625q0 -0.296875 -0.171875 -0.484375q-0.15625 -0.203125 -0.46875 -0.328125q-0.3125 -0.140625 -0.984375 -0.359375l-0.6875 -0.234375q-1.296875 -0.4375 -1.90625 -0.96875q-0.59375 -0.546875 -0.59375 -1.5q0 -1.1875 0.921875 -1.875q0.921875 -0.703125 2.671875 -0.703125q0.71875 0 1.484375 0.109375q0.765625 0.109375 1.25 0.265625l0 1.734375q-0.484375 -0.203125 -1.171875 -0.3125q-0.671875 -0.125 -1.25 -0.125q-0.875 0 -1.375 0.1875q-0.484375 0.1875 -0.484375 0.671875q0 0.359375 0.328125 0.5625q0.34375 0.1875 1.25 0.46875q0.296875 0.078125 0.734375 0.25q0.9375 0.3125 1.46875 0.65625q0.53125 0.328125 0.78125 0.796875q0.25 0.46875 0.25 1.1875q0 1.234375 -0.953125 1.875q-0.953125 0.625 -2.671875 0.625zm8.423035 0q-1.640625 0 -2.625 -1.0625q-0.984375 -1.0625 -0.984375 -3.234375q0 -2.234375 1.140625 -3.4375q1.15625 -1.21875 3.375 -1.21875q1.46875 0 2.453125 0.5q0.984375 0.484375 1.4375 1.3125q0.453125 0.8125 0.453125 1.765625l0 5.21875l-2.15625 0l0 -5.078125q0 -0.96875 -0.515625 -1.5q-0.5 -0.546875 -1.703125 -0.546875q-2.4375 0 -2.4375 2.984375q0 1.40625 0.484375 2.015625q0.484375 0.609375 1.46875 0.609375q0.734375 0 1.109375 -0.125l0 1.578125q-0.59375 0.21875 -1.5 0.21875z" fill-rule="nonzero"/><path fill="#ffffff" d="m386.4281 483.07925q-1.640625 0 -2.625 -1.0625q-0.984375 -1.0625 -0.984375 -3.234375q0 -2.234375 1.140625 -3.4375q1.15625 -1.21875 3.375 -1.21875q1.46875 0 2.453125 0.5q0.984375 0.484375 1.4375 1.3125q0.453125 0.8125 0.453125 1.765625l0 5.21875l-2.15625 0l0 -5.078125q0 -0.96875 -0.515625 -1.5q-0.5 -0.546875 -1.703125 -0.546875q-2.4375 0 -2.4375 2.984375q0 1.40625 0.484375 2.015625q0.484375 0.609375 1.46875 0.609375q0.734375 0 1.109375 -0.125l0 1.578125q-0.59375 0.21875 -1.5 0.21875zm1.3699036 -11.40625l-1.25 0l0 -1.46875l2.703125 0l0 1.421875l3.421875 0l-0.078125 1.46875l-4.796875 0l0 -1.421875zm7.96875 11.40625q-1.5625 0 -2.75 -0.515625l0 -1.640625q1.078125 0.484375 2.234375 0.484375q1.515625 0 2.15625 -0.625q0.640625 -0.640625 0.640625 -2.171875q0 -1.546875 -0.640625 -2.171875q-0.640625 -0.640625 -2.15625 -0.640625q-1.15625 0 -2.234375 0.484375l0 -1.640625q1.1875 -0.515625 2.75 -0.515625q2.171875 0 3.25 1.140625q1.078125 1.125 1.078125 3.34375q0 2.203125 -1.078125 3.34375q-1.078125 1.125 -3.25 1.125zm9.387268 0q-1.890625 0 -3.015625 -0.65625q-1.125 -0.65625 -1.125 -2.125q0 -0.59375 0.265625 -1.078125q0.28125 -0.484375 0.8125 -0.796875q-0.46875 -0.203125 -0.765625 -0.65625q-0.28125 -0.453125 -0.28125 -1.078125q0 -1.234375 0.765625 -1.890625q0.78125 -0.671875 2.09375 -0.671875q0.890625 0 1.484375 0.21875l0 1.59375q-0.453125 -0.140625 -1.09375 -0.140625q-0.609375 0 -0.90625 0.21875q-0.296875 0.203125 -0.296875 0.671875q0 0.5 0.3125 0.71875q0.328125 0.203125 1.03125 0.203125l0.890625 0l0.078125 1.578125l-0.984375 0q-1.359375 0 -1.359375 1.109375q0 0.5625 0.484375 0.84375q0.484375 0.265625 1.515625 0.265625q2.03125 0 2.03125 -1.6875l0 -5.4375l2.15625 0l0 5.25q0 1.828125 -1.046875 2.6875q-1.03125 0.859375 -3.046875 0.859375zm14.956421 0q-2.0625 0 -3.328125 -0.5625l0 -1.890625q0.71875 0.28125 1.53125 0.46875q0.828125 0.171875 1.59375 0.171875q1.203125 0 1.6875 -0.21875q0.484375 -0.234375 0.484375 -0.9375q0 -0.46875 -0.234375 -0.734375q-0.21875 -0.28125 -0.734375 -0.46875q-0.5 -0.203125 -1.59375 -0.515625q-1.609375 -0.4375 -2.265625 -1.109375q-0.65625 -0.671875 -0.65625 -1.859375q0 -1.421875 1.03125 -2.1875q1.046875 -0.78125 3.03125 -0.78125q0.890625 0 1.703125 0.125q0.8125 0.125 1.328125 0.3125l0 1.90625q-1.3125 -0.5 -2.75 -0.5q-1.078125 0 -1.625 0.25q-0.53125 0.234375 -0.53125 0.875q0 0.390625 0.203125 0.640625q0.203125 0.234375 0.671875 0.421875q0.46875 0.1875 1.46875 0.4375q1.78125 0.484375 2.46875 1.25q0.6875 0.75 0.6875 1.9375q0 1.390625 -1.0625 2.1875q-1.046875 0.78125 -3.109375 0.78125zm8.132507 0q-1.296875 0 -1.9375 -0.671875q-0.640625 -0.671875 -0.640625 -1.890625l0 -3.515625l-1.078125 0l0 -1.65625l1.078125 0l0 -1.640625l2.15625 -0.640625l0 2.28125l1.921875 0l-0.125 1.65625l-1.796875 0l0 3.375q0 0.609375 0.28125 0.859375q0.28125 0.234375 0.90625 0.234375q0.453125 0 0.921875 -0.15625l0 1.484375q-0.71875 0.28125 -1.6875 0.28125zm5.284912 0q-1.375 0 -2.140625 -0.765625q-0.75 -0.765625 -0.75 -2.21875l0 -4.75l2.15625 0l0 4.703125q0 0.75 0.359375 1.109375q0.375 0.34375 1.125 0.34375q0.546875 0 1.015625 -0.21875q0.46875 -0.21875 0.8125 -0.5625l0 -5.375l2.171875 0l0 7.578125l-2.0 0l-0.078125 -0.71875q-1.109375 0.875 -2.671875 0.875zm9.751373 0q-1.609375 0 -2.546875 -0.875q-0.9375 -0.890625 -0.9375 -2.84375q0 -1.3125 0.484375 -2.25q0.484375 -0.953125 1.3125 -1.4375q0.828125 -0.5 1.84375 -0.5q1.25 0 2.140625 0.578125l0 -3.609375l2.15625 0l0 10.78125l-1.859375 0l-0.125 -0.703125q-0.5 0.4375 -1.09375 0.65625q-0.59375 0.203125 -1.375 0.203125zm0.59375 -1.578125q0.53125 0 0.921875 -0.15625q0.40625 -0.171875 0.78125 -0.53125l0 -3.453125q-0.671875 -0.59375 -1.578125 -0.59375q-0.984375 0 -1.5 0.65625q-0.515625 0.65625 -0.515625 1.9375q0 1.15625 0.46875 1.65625q0.484375 0.484375 1.421875 0.484375zm6.9387817 4.234375q-0.984375 0 -1.625 -0.25l0 -1.515625q0.453125 0.15625 0.96875 0.15625q0.640625 0 1.0 -0.296875q0.359375 -0.28125 0.75 -1.03125l-3.390625 -7.453125l2.25 0l2.234375 5.140625l2.203125 -5.140625l2.234375 0l-2.984375 7.046875q-0.703125 1.6875 -1.53125 2.515625q-0.8125 0.828125 -2.109375 0.828125zm16.318024 -2.65625q-1.34375 0 -2.171875 -0.65625q-0.828125 -0.65625 -0.828125 -2.0625q0 -1.296875 0.875 -1.984375q0.890625 -0.703125 2.53125 -0.703125l2.453125 0l0 -0.40625q0 -0.8125 -0.453125 -1.140625q-0.453125 -0.328125 -1.578125 -0.328125q-1.515625 0 -2.875 0.4375l0 -1.609375q0.6875 -0.234375 1.546875 -0.359375q0.875 -0.140625 1.671875 -0.140625q1.9375 0 2.890625 0.828125q0.953125 0.8125 0.953125 2.53125l0 5.4375l-2.15625 0l0 -3.65625l-2.328125 0q-0.734375 0 -1.109375 0.25q-0.375 0.25 -0.375 0.84375q0 0.59375 0.34375 0.828125q0.34375 0.21875 1.1875 0.21875q0.734375 0 1.109375 -0.125l0 1.578125q-0.71875 0.21875 -1.6875 0.21875zm10.163635 0q-1.015625 0 -1.765625 -0.234375l-2.4375 -5.921875l2.09375 0l1.90625 4.625q1.1875 0 1.71875 -0.796875q0.546875 -0.796875 0.546875 -2.421875q0 -0.96875 -0.1875 -1.5q-0.171875 -0.546875 -0.59375 -0.78125q-0.40625 -0.234375 -1.15625 -0.234375l-0.65625 0l0 -1.53125l0.96875 0q1.890625 0 2.78125 1.0q0.890625 0.984375 0.890625 3.046875q0 2.4375 -1.109375 3.59375q-1.09375 1.15625 -3.0 1.15625zm8.478912 0q-1.640625 0 -2.625 -1.0625q-0.984375 -1.0625 -0.984375 -3.234375q0 -2.265625 0.78125 -3.453125q0.796875 -1.203125 2.203125 -1.203125q0.640625 0 1.046875 0.203125q0.40625 0.203125 0.671875 0.609375q0.3125 -0.375 0.875 -0.59375q0.578125 -0.21875 1.171875 -0.21875q1.09375 0 1.640625 0.671875q0.5625 0.671875 0.5625 1.828125l0 6.296875l-2.15625 0l0 -5.96875q0 -0.59375 -0.15625 -0.875q-0.15625 -0.28125 -0.578125 -0.28125q-0.296875 0 -0.53125 0.1875q-0.21875 0.1875 -0.3125 0.546875l-1.046875 0q-0.171875 -0.390625 -0.359375 -0.5625q-0.171875 -0.171875 -0.484375 -0.171875q-0.71875 0 -1.0 0.765625q-0.28125 0.765625 -0.28125 2.21875q0 1.40625 0.484375 2.015625q0.484375 0.609375 1.46875 0.609375q0.734375 0 1.109375 -0.125l0 1.578125q-0.59375 0.21875 -1.5 0.21875zm1.3096313 -12.53125l1.765625 0l0 1.078125l3.984375 0l-0.078125 1.46875l-5.671875 0l0 -2.546875zm8.125 12.53125q-1.5625 0 -2.75 -0.515625l0 -1.640625q1.078125 0.484375 2.234375 0.484375q1.515625 0 2.15625 -0.625q0.640625 -0.640625 0.640625 -2.171875q0 -1.546875 -0.640625 -2.171875q-0.640625 -0.640625 -2.15625 -0.640625q-1.15625 0 -2.234375 0.484375l0 -1.640625q1.1875 -0.515625 2.75 -0.515625q2.171875 0 3.25 1.140625q1.078125 1.125 1.078125 3.34375q0 2.203125 -1.078125 3.34375q-1.078125 1.125 -3.25 1.125z" fill-rule="nonzero"/><path fill="#000000" fill-opacity="0.0" d="m441.0974 276.41907l0 35.905487" fill-rule="evenodd"/><path stroke="#000000" stroke-width="1.0" stroke-linejoin="round" stroke-linecap="butt" d="m441.0974 276.41904l0 29.905518" fill-rule="evenodd"/><path fill="#000000" stroke="#000000" stroke-width="1.0" stroke-linecap="butt" d="m439.44568 306.32455l1.6517334 4.538086l1.6517334 -4.538086z" fill-rule="evenodd"/><path fill="#000000" fill-opacity="0.0" d="m441.0974 394.2655l0 35.905518" fill-rule="evenodd"/><path stroke="#000000" stroke-width="1.0" stroke-linejoin="round" stroke-linecap="butt" d="m441.0974 394.2655l0 29.905518" fill-rule="evenodd"/><path fill="#000000" stroke="#000000" stroke-width="1.0" stroke-linecap="butt" d="m439.44568 424.17102l1.6517334 4.538086l1.6517334 -4.538086z" fill-rule="evenodd"/></g></svg>