<svg version="1.1" viewBox="0.0 0.0 2062.459317585302 1213.6509186351707" fill="none" stroke="none" stroke-linecap="square" stroke-miterlimit="10" xmlns:xlink="http://www.w3.org/1999/xlink" xmlns="http://www.w3.org/2000/svg"><clipPath id="p.0"><path d="m0 0l2062.4592 0l0 1213.6509l-2062.4592 0l0 -1213.6509z" clip-rule="nonzero"/></clipPath><g clip-path="url(#p.0)"><path fill="#000000" fill-opacity="0.0" d="m0 0l2062.4592 0l0 1213.6509l-2062.4592 0z" fill-rule="evenodd"/><path fill="#cc0000" d="m136.73766 69.519684l69.67786 0l0 0c9.127991 0 16.527695 7.665451 16.527695 17.121262c0 9.455811 -7.399704 17.121262 -16.527695 17.121262l-69.67786 0l0 0c-9.127983 0 -16.52768 -7.665451 -16.52768 -17.121262c0 -9.455811 7.3996964 -17.121262 16.52768 -17.121262z" fill-rule="evenodd"/><path fill="#ffffff" d="m158.70155 92.657196q-2.0 0 -3.21875 -0.515625l0 -1.53125q1.5 0.578125 3.0625 0.578125q1.296875 0 1.875 -0.296875q0.59375 -0.3125 0.59375 -1.140625q0 -0.53125 -0.25 -0.84375q-0.25 -0.3125 -0.8125 -0.53125q-0.5625 -0.234375 -1.671875 -0.515625q-1.671875 -0.4375 -2.34375 -1.09375q-0.671875 -0.671875 -0.671875 -1.828125q0 -1.375 1.0 -2.140625q1.015625 -0.765625 2.953125 -0.765625q0.84375 0 1.640625 0.125q0.796875 0.125 1.28125 0.296875l0 1.53125q-1.203125 -0.453125 -2.6875 -0.453125q-1.21875 0 -1.828125 0.3125q-0.59375 0.3125 -0.59375 1.09375q0 0.453125 0.21875 0.734375q0.21875 0.28125 0.734375 0.5q0.53125 0.21875 1.5625 0.46875q1.8125 0.46875 2.515625 1.203125q0.703125 0.734375 0.703125 1.90625q0 1.375 -1.03125 2.140625q-1.03125 0.765625 -3.03125 0.765625zm8.101273 0q-1.203125 0 -1.8125 -0.625q-0.609375 -0.640625 -0.609375 -1.78125l0 -3.96875l-1.109375 0l0 -1.359375l1.109375 0l0 -1.75l1.734375 -0.53125l0 2.28125l2.015625 0l-0.109375 1.359375l-1.90625 0l0 3.859375q0 0.65625 0.296875 0.921875q0.296875 0.265625 1.0 0.265625q0.421875 0 0.90625 -0.15625l0 1.234375q-0.625 0.25 -1.515625 0.25zm4.7167664 0q-1.15625 0 -1.921875 -0.59375q-0.765625 -0.609375 -0.765625 -1.71875q0 -1.125 0.75 -1.765625q0.765625 -0.65625 2.296875 -0.65625l2.421875 0l0 -0.328125q0 -0.5625 -0.171875 -0.875q-0.15625 -0.3125 -0.609375 -0.453125q-0.453125 -0.15625 -1.28125 -0.15625q-1.34375 0 -2.515625 0.40625l0 -1.296875q0.546875 -0.203125 1.28125 -0.328125q0.734375 -0.140625 1.5625 -0.140625q1.6875 0 2.546875 0.6875q0.859375 0.6875 0.859375 2.1875l0 4.875l-1.484375 0l-0.125 -0.765625q-0.46875 0.46875 -1.15625 0.703125q-0.6875 0.21875 -1.6875 0.21875zm0.46875 -1.25q0.75 0 1.34375 -0.25q0.59375 -0.25 0.96875 -0.71875l0 -1.328125l-2.390625 0q-0.78125 0 -1.125 0.296875q-0.34375 0.28125 -0.34375 0.90625q0 0.578125 0.390625 0.84375q0.390625 0.25 1.15625 0.25zm5.923889 -6.484375l1.59375 0l0.09375 0.875q0.546875 -0.359375 1.296875 -0.640625q0.75 -0.28125 1.484375 -0.40625l0 1.328125q-0.6875 0.140625 -1.484375 0.40625q-0.796875 0.25 -1.25 0.546875l0 5.46875l-1.734375 0l0 -7.578125zm8.762634 7.734375q-1.203125 0 -1.8125 -0.625q-0.609375 -0.640625 -0.609375 -1.78125l0 -3.96875l-1.109375 0l0 -1.359375l1.109375 0l0 -1.75l1.734375 -0.53125l0 2.28125l2.015625 0l-0.109375 1.359375l-1.90625 0l0 3.859375q0 0.65625 0.296875 0.921875q0.296875 0.265625 1.0 0.265625q0.421875 0 0.90625 -0.15625l0 1.234375q-0.625 0.25 -1.515625 0.25z" fill-rule="nonzero"/><path fill="#000000" fill-opacity="0.0" d="m171.57527 103.76221l0 28.724411" fill-rule="evenodd"/><path stroke="#000000" stroke-width="1.0" stroke-linejoin="round" stroke-linecap="butt" d="m171.57527 103.7622l0 22.724411" fill-rule="evenodd"/><path fill="#000000" stroke="#000000" stroke-width="1.0" stroke-linecap="butt" d="m169.92354 126.48661l1.6517334 4.5380936l1.6517334 -4.5380936z" fill-rule="evenodd"/><path fill="#4a86e8" d="m100.18372 132.48557l142.78085 0l0 58.98224l-142.78085 0z" fill-rule="evenodd"/><path fill="#000000" fill-opacity="0.0" d="m118.031334 132.48557l0 58.98224m107.085625 -58.98224l0 58.98224" fill-rule="evenodd"/><path fill="#000000" fill-opacity="0.0" d="m100.18372 132.48557l142.78085 0l0 58.98224l-142.78085 0z" fill-rule="evenodd"/><path stroke="#ffffff" stroke-width="3.0" stroke-linejoin="round" stroke-linecap="butt" d="m118.031334 132.48557l0 58.98224m107.085625 -58.98224l0 58.98224" fill-rule="evenodd"/><path stroke="#ffffff" stroke-width="3.0" stroke-linejoin="round" stroke-linecap="butt" d="m100.18372 132.48557l142.78085 0l0 58.98224l-142.78085 0z" fill-rule="evenodd"/><path fill="#ffffff" d="m146.95334 167.99294q-0.765625 0 -1.484375 -0.109375q-0.71875 -0.09375 -1.1875 -0.265625l0 -1.484375q0.53125 0.21875 1.171875 0.328125q0.65625 0.109375 1.28125 0.109375q0.921875 0 1.28125 -0.15625q0.375 -0.15625 0.375 -0.625q0 -0.421875 -0.34375 -0.609375q-0.328125 -0.203125 -1.25 -0.5l-0.484375 -0.15625q-1.140625 -0.390625 -1.671875 -0.859375q-0.53125 -0.46875 -0.53125 -1.390625q0 -1.078125 0.765625 -1.625q0.765625 -0.5625 2.40625 -0.5625q0.625 0 1.21875 0.109375q0.609375 0.09375 1.03125 0.234375l0 1.453125q-0.421875 -0.171875 -0.96875 -0.265625q-0.53125 -0.09375 -1.015625 -0.09375q-0.875 0 -1.28125 0.15625q-0.390625 0.140625 -0.390625 0.5625q0 0.359375 0.296875 0.546875q0.3125 0.1875 1.203125 0.46875l0.34375 0.109375q0.9375 0.296875 1.4375 0.59375q0.515625 0.296875 0.75 0.71875q0.234375 0.421875 0.234375 1.09375q0 2.21875 -3.1875 2.21875zm8.736511 0q-2.015625 0 -3.09375 -0.984375q-1.0625 -1.0 -1.0625 -2.984375q0 -1.875 0.9375 -2.90625q0.953125 -1.03125 2.8125 -1.03125q1.671875 0 2.5625 0.890625q0.90625 0.875 0.90625 2.34375l0 1.40625l-5.546875 0q0.125 1.09375 0.78125 1.515625q0.65625 0.421875 2.0625 0.421875q0.578125 0 1.171875 -0.109375q0.59375 -0.109375 1.0625 -0.28125l0 1.28125q-1.0 0.4375 -2.59375 0.4375zm1.53125 -4.390625l0 -0.53125q0 -0.8125 -0.453125 -1.234375q-0.453125 -0.4375 -1.4375 -0.4375q-1.1875 0 -1.65625 0.515625q-0.46875 0.515625 -0.46875 1.6875l4.015625 0zm6.1232605 4.390625q-1.203125 0 -1.8125 -0.625q-0.609375 -0.640625 -0.609375 -1.78125l0 -3.96875l-1.109375 0l0 -1.359375l1.109375 0l0 -1.75l1.734375 -0.53125l0 2.28125l2.015625 0l-0.109375 1.359375l-1.90625 0l0 3.859375q0 0.65625 0.296875 0.921875q0.296875 0.265625 1.0 0.265625q0.421875 0 0.90625 -0.15625l0 1.234375q-0.625 0.25 -1.515625 0.25zm5.25177 0q-1.359375 0 -2.09375 -0.75q-0.734375 -0.765625 -0.734375 -2.203125l0 -4.78125l1.75 0l0 4.78125q0 0.84375 0.40625 1.25q0.421875 0.390625 1.296875 0.390625q0.609375 0 1.15625 -0.21875q0.546875 -0.234375 0.96875 -0.65625l0 -5.546875l1.71875 0l0 7.578125l-1.578125 0l-0.078125 -0.78125q-1.203125 0.9375 -2.8125 0.9375zm6.5136414 -7.734375l1.5 0l0.09375 0.75q0.53125 -0.46875 1.140625 -0.6875q0.609375 -0.234375 1.421875 -0.234375q1.6875 0 2.5625 0.921875q0.890625 0.90625 0.890625 2.90625q0 2.015625 -0.9375 3.046875q-0.921875 1.03125 -2.578125 1.03125q-1.375 0 -2.359375 -0.640625l0 3.9375l-1.734375 0l0 -11.03125zm3.640625 6.421875q1.125 0 1.65625 -0.6875q0.546875 -0.6875 0.546875 -2.09375q0 -1.34375 -0.5 -1.90625q-0.484375 -0.578125 -1.65625 -0.578125q-1.171875 0 -1.953125 0.8125l0 3.78125q0.765625 0.671875 1.90625 0.671875zm13.419525 2.3125q-1.109375 -0.984375 -1.640625 -2.59375q-0.515625 -1.609375 -0.515625 -3.40625q0 -1.8125 0.515625 -3.40625q0.53125 -1.609375 1.640625 -2.59375l1.96875 0q-2.359375 2.046875 -2.359375 6.0q0 3.953125 2.359375 6.0l-1.96875 0zm2.7312622 0q1.234375 -1.078125 1.796875 -2.578125q0.5625 -1.5 0.5625 -3.421875q0 -3.96875 -2.359375 -6.0l1.984375 0q1.09375 0.984375 1.609375 2.59375q0.53125 1.609375 0.53125 3.40625q0 1.796875 -0.53125 3.40625q-0.515625 1.609375 -1.609375 2.59375l-1.984375 0z" fill-rule="nonzero"/><path fill="#000000" fill-opacity="0.0" d="m172.06168 191.4672l-0.9763794 28.283463" fill-rule="evenodd"/><path stroke="#000000" stroke-width="1.0" stroke-linejoin="round" stroke-linecap="butt" d="m172.06168 191.4672l-0.76937866 22.287033" fill-rule="evenodd"/><path fill="#000000" stroke="#000000" stroke-width="1.0" stroke-linecap="butt" d="m169.64156 213.69724l1.4941864 4.592392l1.807312 -4.478409z" fill-rule="evenodd"/><path fill="#4a86e8" d="m100.185036 220.191l142.78085 0l0 58.982224l-142.78085 0z" fill-rule="evenodd"/><path fill="#000000" fill-opacity="0.0" d="m118.032646 220.191l0 58.982224m107.085625 -58.982224l0 58.982224" fill-rule="evenodd"/><path fill="#000000" fill-opacity="0.0" d="m100.185036 220.191l142.78085 0l0 58.982224l-142.78085 0z" fill-rule="evenodd"/><path stroke="#ffffff" stroke-width="3.0" stroke-linejoin="round" stroke-linecap="butt" d="m118.032646 220.191l0 58.982224m107.085625 -58.982224l0 58.982224" fill-rule="evenodd"/><path stroke="#ffffff" stroke-width="3.0" stroke-linejoin="round" stroke-linecap="butt" d="m100.185036 220.191l142.78085 0l0 58.982224l-142.78085 0z" fill-rule="evenodd"/><path fill="#ffffff" d="m150.67403 255.69836q-0.953125 0 -1.421875 -0.453125q-0.453125 -0.46875 -0.453125 -1.515625l0 -8.96875l1.734375 0l0 8.8125q0 0.4375 0.15625 0.609375q0.15625 0.15625 0.484375 0.15625q0.390625 0 0.734375 -0.09375l0 1.265625q-0.53125 0.1875 -1.234375 0.1875zm5.51001 0q-3.953125 0 -3.953125 -3.953125q0 -3.953125 3.953125 -3.953125q3.96875 0 3.96875 3.953125q0 3.953125 -3.96875 3.953125zm0 -1.46875q1.203125 0 1.703125 -0.578125q0.5 -0.578125 0.5 -1.90625q0 -1.3125 -0.5 -1.875q-0.5 -0.578125 -1.703125 -0.578125q-1.1875 0 -1.6875 0.578125q-0.5 0.5625 -0.5 1.875q0 1.328125 0.5 1.90625q0.5 0.578125 1.6875 0.578125zm8.896027 1.46875q-3.953125 0 -3.953125 -3.953125q0 -3.953125 3.953125 -3.953125q3.96875 0 3.96875 3.953125q0 3.953125 -3.96875 3.953125zm0 -1.46875q1.203125 0 1.703125 -0.578125q0.5 -0.578125 0.5 -1.90625q0 -1.3125 -0.5 -1.875q-0.5 -0.578125 -1.703125 -0.578125q-1.1875 0 -1.6875 0.578125q-0.5 0.5625 -0.5 1.875q0 1.328125 0.5 1.90625q0.5 0.578125 1.6875 0.578125zm5.6710205 -6.265625l1.5 0l0.09375 0.75q0.53125 -0.46875 1.140625 -0.6875q0.609375 -0.234375 1.421875 -0.234375q1.6875 0 2.5625 0.921875q0.890625 0.90625 0.890625 2.90625q0 2.015625 -0.9375 3.046875q-0.921875 1.03125 -2.578125 1.03125q-1.375 0 -2.359375 -0.640625l0 3.9375l-1.734375 0l0 -11.03125zm3.640625 6.421875q1.125 0 1.65625 -0.6875q0.546875 -0.6875 0.546875 -2.09375q0 -1.34375 -0.5 -1.90625q-0.484375 -0.578125 -1.65625 -0.578125q-1.171875 0 -1.953125 0.8125l0 3.78125q0.765625 0.671875 1.90625 0.671875zm13.419525 2.3125q-1.109375 -0.984375 -1.640625 -2.59375q-0.515625 -1.609375 -0.515625 -3.40625q0 -1.8125 0.515625 -3.40625q0.53125 -1.609375 1.640625 -2.59375l1.96875 0q-2.359375 2.046875 -2.359375 6.0q0 3.953125 2.359375 6.0l-1.96875 0zm2.7312622 0q1.234375 -1.078125 1.796875 -2.578125q0.5625 -1.5 0.5625 -3.421875q0 -3.96875 -2.359375 -6.0l1.984375 0q1.09375 0.984375 1.609375 2.59375q0.53125 1.609375 0.53125 3.40625q0 1.796875 -0.53125 3.40625q-0.515625 1.609375 -1.609375 2.59375l-1.984375 0z" fill-rule="nonzero"/><path fill="#000000" fill-opacity="0.0" d="m428.14304 96.950134l-0.9763794 28.283463" fill-rule="evenodd"/><path stroke="#000000" stroke-width="1.0" stroke-linejoin="round" stroke-linecap="butt" d="m428.14304 96.950134l-0.76934814 22.287033" fill-rule="evenodd"/><path fill="#000000" stroke="#000000" stroke-width="1.0" stroke-linecap="butt" d="m425.72293 119.18018l1.4941711 4.5923767l1.807312 -4.478409z" fill-rule="evenodd"/><path fill="#000000" fill-opacity="0.0" d="m428.14304 184.22572l-0.9763794 28.283463" fill-rule="evenodd"/><path stroke="#000000" stroke-width="1.0" stroke-linejoin="round" stroke-linecap="butt" d="m428.14304 184.22572l-0.76934814 22.287033" fill-rule="evenodd"/><path fill="#000000" stroke="#000000" stroke-width="1.0" stroke-linecap="butt" d="m425.72293 206.45578l1.4941711 4.5923767l1.807312 -4.478409z" fill-rule="evenodd"/><path fill="#000000" fill-opacity="0.0" d="m172.06233 282.4672l0 24.999908l-96.39069 0l0 -54.480225l24.98912 0" fill-rule="evenodd"/><path stroke="#000000" stroke-width="1.0" stroke-linejoin="round" stroke-linecap="butt" d="m172.06233 282.4672l0 24.999908l-96.39069 0l0 -54.480225l18.98912 0" fill-rule="evenodd"/><path fill="#000000" stroke="#000000" stroke-width="1.0" stroke-linecap="butt" d="m94.66076 254.63861l4.538101 -1.6517334l-4.538101 -1.6517334z" fill-rule="evenodd"/><path fill="#cc0000" d="m393.7954 69.519684l69.67786 0l0 0c9.127991 0 16.52768 7.665451 16.52768 17.121262c0 9.455811 -7.3996887 17.121262 -16.52768 17.121262l-69.67786 0l0 0c-9.127991 0 -16.52768 -7.665451 -16.52768 -17.121262c0 -9.455811 7.3996887 -17.121262 16.52768 -17.121262z" fill-rule="evenodd"/><path fill="#ffffff" d="m404.01352 92.657196q-0.765625 0 -1.484375 -0.109375q-0.71875 -0.09375 -1.1875 -0.265625l0 -1.484375q0.53125 0.21875 1.171875 0.328125q0.65625 0.109375 1.28125 0.109375q0.921875 0 1.28125 -0.15625q0.375 -0.15625 0.375 -0.625q0 -0.421875 -0.34375 -0.609375q-0.328125 -0.203125 -1.25 -0.5l-0.484375 -0.15625q-1.140625 -0.390625 -1.671875 -0.859375q-0.53125 -0.46875 -0.53125 -1.390625q0 -1.078125 0.765625 -1.625q0.765625 -0.5625 2.40625 -0.5625q0.625 0 1.21875 0.109375q0.609375 0.09375 1.03125 0.234375l0 1.453125q-0.421875 -0.171875 -0.96875 -0.265625q-0.53125 -0.09375 -1.015625 -0.09375q-0.875 0 -1.28125 0.15625q-0.390625 0.140625 -0.390625 0.5625q0 0.359375 0.296875 0.546875q0.3125 0.1875 1.203125 0.46875l0.34375 0.109375q0.9375 0.296875 1.4375 0.59375q0.515625 0.296875 0.75 0.71875q0.234375 0.421875 0.234375 1.09375q0 2.21875 -3.1875 2.21875zm8.736511 0q-2.015625 0 -3.09375 -0.984375q-1.0625 -1.0 -1.0625 -2.984375q0 -1.875 0.9375 -2.90625q0.953125 -1.03125 2.8125 -1.03125q1.671875 0 2.5625 0.890625q0.90625 0.875 0.90625 2.34375l0 1.40625l-5.546875 0q0.125 1.09375 0.78125 1.515625q0.65625 0.421875 2.0625 0.421875q0.578125 0 1.171875 -0.109375q0.59375 -0.109375 1.0625 -0.28125l0 1.28125q-1.0 0.4375 -2.59375 0.4375zm1.53125 -4.390625l0 -0.53125q0 -0.8125 -0.453125 -1.234375q-0.453125 -0.4375 -1.4375 -0.4375q-1.1875 0 -1.65625 0.515625q-0.46875 0.515625 -0.46875 1.6875l4.015625 0zm6.1232605 4.390625q-1.203125 0 -1.8125 -0.625q-0.609375 -0.640625 -0.609375 -1.78125l0 -3.96875l-1.109375 0l0 -1.359375l1.109375 0l0 -1.75l1.734375 -0.53125l0 2.28125l2.015625 0l-0.109375 1.359375l-1.90625 0l0 3.859375q0 0.65625 0.296875 0.921875q0.296875 0.265625 1.0 0.265625q0.421875 0 0.90625 -0.15625l0 1.234375q-0.625 0.25 -1.515625 0.25zm5.25177 0q-1.359375 0 -2.09375 -0.75q-0.734375 -0.765625 -0.734375 -2.203125l0 -4.78125l1.75 0l0 4.78125q0 0.84375 0.40625 1.25q0.421875 0.390625 1.296875 0.390625q0.609375 0 1.15625 -0.21875q0.546875 -0.234375 0.96875 -0.65625l0 -5.546875l1.71875 0l0 7.578125l-1.578125 0l-0.078125 -0.78125q-1.203125 0.9375 -2.8125 0.9375zm6.5136414 -7.734375l1.5 0l0.09375 0.75q0.53125 -0.46875 1.140625 -0.6875q0.609375 -0.234375 1.421875 -0.234375q1.6875 0 2.5625 0.921875q0.890625 0.90625 0.890625 2.90625q0 2.015625 -0.9375 3.046875q-0.921875 1.03125 -2.578125 1.03125q-1.375 0 -2.359375 -0.640625l0 3.9375l-1.734375 0l0 -11.03125zm3.640625 6.421875q1.125 0 1.65625 -0.6875q0.546875 -0.6875 0.546875 -2.09375q0 -1.34375 -0.5 -1.90625q-0.484375 -0.578125 -1.65625 -0.578125q-1.171875 0 -1.953125 0.8125l0 3.78125q0.765625 0.671875 1.90625 0.671875zm13.419525 2.3125q-1.109375 -0.984375 -1.640625 -2.59375q-0.515625 -1.609375 -0.515625 -3.40625q0 -1.8125 0.515625 -3.40625q0.53125 -1.609375 1.640625 -2.59375l1.96875 0q-2.359375 2.046875 -2.359375 6.0q0 3.953125 2.359375 6.0l-1.96875 0zm2.7312622 0q1.234375 -1.078125 1.796875 -2.578125q0.5625 -1.5 0.5625 -3.421875q0 -3.96875 -2.359375 -6.0l1.984375 0q1.09375 0.984375 1.609375 2.59375q0.53125 1.609375 0.53125 3.40625q0 1.796875 -0.53125 3.40625q-0.515625 1.609375 -1.609375 2.59375l-1.984375 0z" fill-rule="nonzero"/><path fill="#cc0000" d="m391.8387 487.9895l69.67786 0l0 0c9.127991 0 16.52768 7.665436 16.52768 17.121246c0 9.455841 -7.3996887 17.121246 -16.52768 17.121246l-69.67786 0l0 0c-9.127991 0 -16.52768 -7.6654053 -16.52768 -17.121246c0 -9.455811 7.3996887 -17.121246 16.52768 -17.121246z" fill-rule="evenodd"/><path fill="#ffffff" d="m421.61075 511.127q-0.34375 0 -0.75 -0.0625q-0.390625 -0.046875 -0.625 -0.140625l-1.28125 -3.40625l-1.109375 0l0.078125 -1.3125l2.125 0l1.328125 3.546875q1.140625 0.046875 1.828125 -0.71875q0.6875 -0.765625 0.6875 -2.46875q0 -1.125 -0.296875 -1.765625q-0.296875 -0.65625 -0.96875 -0.9375q-0.671875 -0.28125 -1.859375 -0.28125q-1.46875 0 -2.734375 0.421875l0 -1.34375q1.515625 -0.484375 3.203125 -0.484375q2.234375 0 3.28125 1.109375q1.0625 1.109375 1.0625 3.28125q0 1.453125 -0.546875 2.484375q-0.53125 1.03125 -1.4375 1.5625q-0.90625 0.515625 -1.984375 0.515625zm9.604004 0q-1.875 0 -2.90625 -0.875q-1.03125 -0.890625 -1.03125 -2.640625l0 -5.28125l1.734375 0l0 5.34375q0 1.0625 0.546875 1.5625q0.5625 0.5 1.65625 0.5q1.109375 0 1.671875 -0.5q0.5625 -0.5 0.5625 -1.5625l0 -5.34375l1.71875 0l0 5.28125q0 1.75 -1.03125 2.640625q-1.015625 0.875 -2.921875 0.875z" fill-rule="nonzero"/><path fill="#000000" fill-opacity="0.0" d="m427.16534 271.5l-0.9763794 28.283478" fill-rule="evenodd"/><path stroke="#000000" stroke-width="1.0" stroke-linejoin="round" stroke-linecap="butt" d="m427.16534 271.5l-0.76934814 22.287018" fill-rule="evenodd"/><path fill="#000000" stroke="#000000" stroke-width="1.0" stroke-linecap="butt" d="m424.74524 293.73004l1.4941711 4.5923767l1.807312 -4.4783936z" fill-rule="evenodd"/><path fill="#000000" fill-opacity="0.0" d="m427.16403 459.7349l-0.9763794 28.283478" fill-rule="evenodd"/><path stroke="#000000" stroke-width="1.0" stroke-linejoin="round" stroke-linecap="butt" d="m427.16403 459.7349l-0.76934814 22.287048" fill-rule="evenodd"/><path fill="#000000" stroke="#000000" stroke-width="1.0" stroke-linecap="butt" d="m424.74393 481.96497l1.4941711 4.5923767l1.807312 -4.478424z" fill-rule="evenodd"/><path fill="#0f9d58" d="m325.08792 181.97375l13.62207 -54.48819l191.51181 0l-13.62207 54.48819z" fill-rule="evenodd"/><path fill="#ffffff" d="m358.73328 130.91779l2.34375 0l0 1.703125l-2.34375 0l0 -1.703125zm0.171875 4.6875l-1.140625 0l0.203125 -1.59375l3.09375 0l0 7.578125l-2.15625 0l0 -5.984375zm3.9953918 -1.59375l2.0 0l0.078125 0.71875q0.515625 -0.390625 1.21875 -0.640625q0.703125 -0.25 1.453125 -0.25q1.5 0 2.1875 0.703125q0.703125 0.6875 0.703125 2.1875l0 4.859375l-2.15625 0l0 -4.75q0 -0.78125 -0.328125 -1.09375q-0.3125 -0.3125 -1.15625 -0.3125q-0.484375 0 -0.984375 0.21875q-0.5 0.203125 -0.84375 0.5625l0 5.375l-2.171875 0l0 -7.578125zm12.407623 7.734375q-1.296875 0 -1.9375 -0.671875q-0.640625 -0.671875 -0.640625 -1.890625l0 -3.515625l-1.078125 0l0 -1.65625l1.078125 0l0 -1.640625l2.15625 -0.640625l0 2.28125l1.921875 0l-0.125 1.65625l-1.796875 0l0 3.375q0 0.609375 0.28125 0.859375q0.28125 0.234375 0.90625 0.234375q0.453125 0 0.921875 -0.15625l0 1.484375q-0.71875 0.28125 -1.6875 0.28125zm8.632416 -10.453125l1.875 0l4.875 6.859375l0 -6.859375l2.171875 0l0 10.296875l-1.875 0l-4.875 -6.859375l0 6.859375l-2.171875 0l0 -10.296875zm15.423523 10.453125q-5.0 0 -5.0 -5.265625q0 -2.78125 1.234375 -4.0625q1.25 -1.296875 3.765625 -1.296875q2.53125 0 3.765625 1.296875q1.25 1.28125 1.25 4.0625q0 5.265625 -5.015625 5.265625zm0 -1.84375q1.453125 0 2.140625 -0.828125q0.6875 -0.84375 0.6875 -2.59375q0 -1.90625 -0.671875 -2.703125q-0.671875 -0.8125 -2.15625 -0.8125q-1.46875 0 -2.140625 0.8125q-0.671875 0.796875 -0.671875 2.703125q0 1.75 0.6875 2.59375q0.6875 0.828125 2.125 0.828125zm11.960022 -4.71875l6.21875 0l0 1.515625l-6.21875 0l0 -1.515625zm0 2.625l6.21875 0l0 1.53125l-6.21875 0l0 -1.53125z" fill-rule="nonzero"/><path fill="#ffffff" d="m361.4989 160.74591q-2.03125 0 -3.046875 -1.0q-1.0 -1.0 -1.0 -3.046875l0 -2.203125q0 -1.28125 0.546875 -2.265625q0.5625 -1.0 1.59375 -1.546875q1.03125 -0.5625 2.40625 -0.5625q0.78125 0 1.375 0.109375q0.59375 0.09375 1.140625 0.28125l0 1.859375q-1.0 -0.40625 -2.375 -0.40625q-1.296875 0 -1.984375 0.5625q-0.671875 0.5625 -0.671875 1.53125l0 0.5q0.5 -0.359375 1.171875 -0.546875q0.6875 -0.1875 1.296875 -0.1875q1.796875 0 2.671875 0.875q0.890625 0.875 0.890625 2.546875q0 1.609375 -1.0 2.5625q-1.0 0.9375 -3.015625 0.9375zm0.015625 -1.59375q1.0 0 1.53125 -0.484375q0.53125 -0.5 0.53125 -1.34375q0 -0.921875 -0.46875 -1.390625q-0.453125 -0.46875 -1.5625 -0.46875q-0.515625 0 -1.0625 0.203125q-0.53125 0.1875 -1.0 0.484375l0 0.984375q0 2.015625 2.03125 2.015625zm7.4980164 -2.0625l-2.234375 0l0 -1.6875l2.234375 0l0 -2.1875l1.703125 0l0 2.1875l2.234375 0l0 1.6875l-2.234375 0l0 2.140625l-1.703125 0l0 -2.140625zm5.2075195 2.453125q0.375 -0.828125 1.0 -1.515625q0.625 -0.703125 1.671875 -1.625l0.421875 -0.375q0.75 -0.6875 1.0625 -1.015625q0.3125 -0.328125 0.4375 -0.671875q0.140625 -0.34375 0.140625 -0.875q0 -0.734375 -0.484375 -1.109375q-0.46875 -0.375 -1.40625 -0.375q-1.234375 0 -2.484375 0.5l0 -1.90625q0.59375 -0.203125 1.40625 -0.328125q0.8125 -0.125 1.5625 -0.125q1.765625 0 2.671875 0.875q0.921875 0.875 0.921875 2.421875q0 0.984375 -0.46875 1.71875q-0.453125 0.734375 -1.40625 1.546875l-0.25 0.21875q-0.71875 0.625 -1.1875 1.09375q-0.46875 0.453125 -0.796875 0.9375l4.203125 0l0 1.65625l-7.015625 0l0 -1.046875zm10.520508 -2.453125l-2.234375 0l0 -1.6875l2.234375 0l0 -2.1875l1.703125 0l0 2.1875l2.234375 0l0 1.6875l-2.234375 0l0 2.140625l-1.703125 0l0 -2.140625zm6.8793945 -4.859375l-1.671875 0.28125l0 -1.8125l3.84375 -0.578125l0 10.46875l-2.171875 0l0 -8.359375zm5.9846497 4.859375l-2.234375 0l0 -1.6875l2.234375 0l0 -2.1875l1.703125 0l0 2.1875l2.234375 0l0 1.6875l-2.234375 0l0 2.140625l-1.703125 0l0 -2.140625zm5.2075195 2.453125q0.375 -0.828125 1.0 -1.515625q0.625 -0.703125 1.671875 -1.625l0.421875 -0.375q0.75 -0.6875 1.0625 -1.015625q0.3125 -0.328125 0.4375 -0.671875q0.140625 -0.34375 0.140625 -0.875q0 -0.734375 -0.484375 -1.109375q-0.46875 -0.375 -1.40625 -0.375q-1.234375 0 -2.484375 0.5l0 -1.90625q0.59375 -0.203125 1.40625 -0.328125q0.8125 -0.125 1.5625 -0.125q1.765625 0 2.671875 0.875q0.921875 0.875 0.921875 2.421875q0 0.984375 -0.46875 1.71875q-0.453125 0.734375 -1.40625 1.546875l-0.25 0.21875q-0.71875 0.625 -1.1875 1.09375q-0.46875 0.453125 -0.796875 0.9375l4.203125 0l0 1.65625l-7.015625 0l0 -1.046875zm10.520508 -2.453125l-2.234375 0l0 -1.6875l2.234375 0l0 -2.1875l1.703125 0l0 2.1875l2.234375 0l0 1.6875l-2.234375 0l0 2.140625l-1.703125 0l0 -2.140625zm9.86377 3.921875q-2.46875 0 -3.5625 -1.375q-1.09375 -1.390625 -1.09375 -4.078125q0 -2.6875 1.09375 -4.0625q1.09375 -1.375 3.5625 -1.375q2.46875 0 3.5625 1.375q1.09375 1.375 1.09375 4.0625q0 2.6875 -1.09375 4.078125q-1.09375 1.375 -3.5625 1.375zm0 -1.859375q1.34375 0 1.90625 -0.890625q0.5625 -0.890625 0.5625 -2.703125q0 -1.796875 -0.5625 -2.6875q-0.5625 -0.890625 -1.90625 -0.890625q-1.34375 0 -1.90625 0.890625q-0.5625 0.890625 -0.5625 2.6875q0 1.8125 0.5625 2.703125q0.5625 0.890625 1.90625 0.890625zm8.152283 -2.0625l-2.234375 0l0 -1.6875l2.234375 0l0 -2.1875l1.703125 0l0 2.1875l2.234375 0l0 1.6875l-2.234375 0l0 2.140625l-1.703125 0l0 -2.140625zm8.23877 3.65625q-0.75 0 -1.59375 -0.125q-0.84375 -0.125 -1.390625 -0.375l0 -1.859375q0.546875 0.234375 1.296875 0.375q0.75 0.125 1.390625 0.125q1.125 0 1.640625 -0.359375q0.515625 -0.359375 0.515625 -1.1875q0 -0.78125 -0.390625 -1.109375q-0.375 -0.34375 -1.390625 -0.34375l-3.109375 0l0 -1.21875l0.265625 -4.375l6.125 0l-0.15625 1.65625l-4.125 0l-0.140625 2.265625l1.546875 0q1.84375 0 2.703125 0.8125q0.875 0.796875 0.875 2.390625q0 1.5625 -1.046875 2.453125q-1.03125 0.875 -3.015625 0.875zm7.5692444 -3.65625l-2.234375 0l0 -1.6875l2.234375 0l0 -2.1875l1.703125 0l0 2.1875l2.234375 0l0 1.6875l-2.234375 0l0 2.140625l-1.703125 0l0 -2.140625zm9.86377 3.921875q-2.46875 0 -3.5625 -1.375q-1.09375 -1.390625 -1.09375 -4.078125q0 -2.6875 1.09375 -4.0625q1.09375 -1.375 3.5625 -1.375q2.46875 0 3.5625 1.375q1.09375 1.375 1.09375 4.0625q0 2.6875 -1.09375 4.078125q-1.09375 1.375 -3.5625 1.375zm0 -1.859375q1.34375 0 1.90625 -0.890625q0.5625 -0.890625 0.5625 -2.703125q0 -1.796875 -0.5625 -2.6875q-0.5625 -0.890625 -1.90625 -0.890625q-1.34375 0 -1.90625 0.890625q-0.5625 0.890625 -0.5625 2.6875q0 1.8125 0.5625 2.703125q0.5625 0.890625 1.90625 0.890625zm8.152283 -2.0625l-2.234375 0l0 -1.6875l2.234375 0l0 -2.1875l1.703125 0l0 2.1875l2.234375 0l0 1.6875l-2.234375 0l0 2.140625l-1.703125 0l0 -2.140625zm6.8793945 -4.859375l-1.671875 0.28125l0 -1.8125l3.84375 -0.578125l0 10.46875l-2.171875 0l0 -8.359375zm5.984619 4.859375l-2.234375 0l0 -1.6875l2.234375 0l0 -2.1875l1.703125 0l0 2.1875l2.234375 0l0 1.6875l-2.234375 0l0 2.140625l-1.703125 0l0 -2.140625zm9.86377 3.921875q-2.46875 0 -3.5625 -1.375q-1.09375 -1.390625 -1.09375 -4.078125q0 -2.6875 1.09375 -4.0625q1.09375 -1.375 3.5625 -1.375q2.46875 0 3.5625 1.375q1.09375 1.375 1.09375 4.0625q0 2.6875 -1.09375 4.078125q-1.09375 1.375 -3.5625 1.375zm0 -1.859375q1.34375 0 1.90625 -0.890625q0.5625 -0.890625 0.5625 -2.703125q0 -1.796875 -0.5625 -2.6875q-0.5625 -0.890625 -1.90625 -0.890625q-1.34375 0 -1.90625 0.890625q-0.5625 0.890625 -0.5625 2.6875q0 1.8125 0.5625 2.703125q0.5625 0.890625 1.90625 0.890625z" fill-rule="nonzero"/><path fill="#ffffff" d="m359.76453 176.08966l-2.234375 0l0 -1.6875l2.234375 0l0 -2.1875l1.703125 0l0 2.1875l2.234375 0l0 1.6875l-2.234375 0l0 2.140625l-1.703125 0l0 -2.140625zm9.879395 1.34375l-5.0 0l0 -1.46875l5.265625 -6.671875l1.890625 0l0 6.390625l1.015625 0l0 1.75l-1.015625 0l0 2.15625l-2.15625 0l0 -2.15625zm0.359375 -1.671875l0 -4.09375l-3.28125 4.09375l3.28125 0zm6.001251 0.328125l-2.234375 0l0 -1.6875l2.234375 0l0 -2.1875l1.703125 0l0 2.1875l2.234375 0l0 1.6875l-2.234375 0l0 2.140625l-1.703125 0l0 -2.140625zm9.379395 3.65625q-4.171875 0 -4.171875 -3.015625q0 -0.859375 0.4375 -1.515625q0.4375 -0.671875 1.21875 -0.953125q-0.6875 -0.296875 -1.046875 -0.859375q-0.34375 -0.578125 -0.34375 -1.265625q0 -1.40625 0.96875 -2.203125q0.984375 -0.8125 2.9375 -0.8125q2.0 0 2.953125 0.796875q0.953125 0.796875 0.953125 2.21875q0 0.734375 -0.359375 1.328125q-0.34375 0.59375 -1.078125 0.90625q1.703125 0.609375 1.703125 2.359375q0 3.015625 -4.171875 3.015625zm0.421875 -6.03125q0.78125 -0.203125 1.109375 -0.53125q0.328125 -0.34375 0.328125 -1.0q0 -0.703125 -0.453125 -1.03125q-0.453125 -0.328125 -1.40625 -0.328125q-0.9375 0 -1.40625 0.328125q-0.453125 0.3125 -0.453125 1.03125q0 0.5625 0.296875 0.890625q0.296875 0.328125 0.921875 0.4375l1.0625 0.203125zm-0.421875 4.359375q1.09375 0 1.609375 -0.328125q0.515625 -0.328125 0.515625 -1.046875q0 -0.640625 -0.34375 -0.9375q-0.328125 -0.296875 -1.15625 -0.46875l-1.234375 -0.265625q-0.75 0.171875 -1.140625 0.53125q-0.375 0.34375 -0.375 1.078125q0 0.765625 0.515625 1.109375q0.53125 0.328125 1.609375 0.328125z" fill-rule="nonzero"/><path fill="#f4b400" d="m318.82547 339.51443l110.532135 -37.47769l110.532166 37.47769l-110.532166 37.47769z" fill-rule="evenodd"/><path fill="#ffffff" d="m385.10715 334.76505l1.90625 0l0 1.4375l-1.90625 0l0 -1.4375zm0.140625 4.359375l-1.140625 0l0.15625 -1.328125l2.734375 0l0 7.578125l-1.75 0l0 -6.25zm11.644897 0.484375q-1.09375 0 -1.6875 -0.59375q-0.578125 -0.609375 -0.578125 -1.640625q0 -1.171875 0.578125 -1.8125q0.578125 -0.65625 1.6875 -0.65625q1.109375 0 1.6875 0.65625q0.578125 0.640625 0.578125 1.8125q0 1.03125 -0.59375 1.640625q-0.578125 0.59375 -1.671875 0.59375zm4.765625 -4.53125l1.625 0l-5.453125 10.296875l-1.640625 0l5.46875 -10.296875zm-4.765625 3.484375q1.171875 0 1.171875 -1.21875q0 -0.703125 -0.28125 -1.03125q-0.28125 -0.328125 -0.890625 -0.328125q-0.59375 0 -0.875 0.328125q-0.28125 0.328125 -0.28125 1.03125q0 1.21875 1.15625 1.21875zm5.734375 6.96875q-1.109375 0 -1.6875 -0.609375q-0.578125 -0.609375 -0.578125 -1.625q0 -1.171875 0.5625 -1.8125q0.578125 -0.65625 1.703125 -0.65625q1.109375 0 1.671875 0.65625q0.578125 0.640625 0.578125 1.8125q0 1.015625 -0.578125 1.625q-0.578125 0.609375 -1.671875 0.609375zm0 -1.046875q1.171875 0 1.171875 -1.21875q0 -0.703125 -0.28125 -1.03125q-0.28125 -0.328125 -0.890625 -0.328125q-0.609375 0 -0.890625 0.328125q-0.28125 0.328125 -0.28125 1.03125q0 1.21875 1.171875 1.21875zm9.880157 -9.40625l1.53125 0l5.375 7.578125l0 -7.578125l1.71875 0l0 10.296875l-1.53125 0l-5.359375 -7.5625l0 7.5625l-1.734375 0l0 -10.296875zm15.218903 10.453125q-2.453125 0 -3.671875 -1.28125q-1.203125 -1.296875 -1.203125 -4.0q0 -2.78125 1.203125 -4.0625q1.203125 -1.28125 3.671875 -1.28125q2.484375 0 3.6875 1.28125q1.203125 1.28125 1.203125 4.0625q0 2.703125 -1.21875 4.0q-1.203125 1.28125 -3.671875 1.28125zm0 -1.46875q1.640625 0 2.390625 -0.890625q0.75 -0.90625 0.75 -2.921875q0 -2.09375 -0.75 -2.96875q-0.734375 -0.875 -2.390625 -0.875q-1.625 0 -2.375 0.875q-0.734375 0.875 -0.734375 2.96875q0 2.0 0.75 2.90625q0.75 0.90625 2.359375 0.90625zm12.197052 -4.84375l6.171875 0l0 1.234375l-6.171875 0l0 -1.234375zm0 2.4375l6.171875 0l0 1.25l-6.171875 0l0 -1.25zm7.567993 -2.4375l6.171875 0l0 1.234375l-6.171875 0l0 -1.234375zm0 2.4375l6.171875 0l0 1.25l-6.171875 0l0 -1.25zm18.019287 4.0q-2.375 0 -3.453125 -1.359375q-1.078125 -1.359375 -1.078125 -3.953125q0 -2.6875 1.046875 -4.0625q1.0625 -1.375 3.484375 -1.375q2.390625 0 3.453125 1.375q1.0625 1.375 1.0625 4.0625q0 2.59375 -1.09375 3.953125q-1.078125 1.359375 -3.421875 1.359375zm0 -1.484375q1.46875 0 2.109375 -0.96875q0.640625 -0.984375 0.640625 -2.859375q0 -2.0 -0.625 -2.96875q-0.625 -0.96875 -2.125 -0.96875q-1.515625 0 -2.140625 0.96875q-0.625 0.96875 -0.625 2.96875q0 1.890625 0.640625 2.859375q0.640625 0.96875 2.125 0.96875z" fill-rule="nonzero"/><path fill="#000000" fill-opacity="0.0" d="m429.84647 376.9908l-0.9763794 28.283478" fill-rule="evenodd"/><path stroke="#000000" stroke-width="1.0" stroke-linejoin="round" stroke-linecap="butt" d="m429.84647 376.9908l-0.76937866 22.287018" fill-rule="evenodd"/><path fill="#000000" stroke="#000000" stroke-width="1.0" stroke-linecap="butt" d="m427.42633 399.22086l1.4941711 4.5923767l1.8073425 -4.4783936z" fill-rule="evenodd"/><path fill="#f4b400" d="m351.1512 242.00394l30.993164 -31.776901l92.97952 0l30.993195 31.776901l-30.993195 31.776917l-92.97952 0z" fill-rule="evenodd"/><path fill="#ffffff" d="m395.23883 222.64519l-1.09375 0l0 -1.359375l1.09375 0l0 -0.9375q0 -1.140625 0.640625 -1.828125q0.65625 -0.703125 1.875 -0.703125q0.8125 0 1.546875 0.28125l0 1.25q-0.484375 -0.1875 -1.0 -0.1875q-0.75 0 -1.046875 0.265625q-0.28125 0.265625 -0.28125 0.9375l0 0.921875l1.984375 0l-0.078125 1.359375l-1.90625 0l0 6.21875l-1.734375 0l0 -6.21875zm8.211884 6.375q-3.953125 0 -3.953125 -3.953125q0 -3.953125 3.953125 -3.953125q3.96875 0 3.96875 3.953125q0 3.953125 -3.96875 3.953125zm0 -1.46875q1.203125 0 1.703125 -0.578125q0.5 -0.578125 0.5 -1.90625q0 -1.3125 -0.5 -1.875q-0.5 -0.578125 -1.703125 -0.578125q-1.1875 0 -1.6875 0.578125q-0.5 0.5625 -0.5 1.875q0 1.328125 0.5 1.90625q0.5 0.578125 1.6875 0.578125zm5.6710205 -6.265625l1.59375 0l0.09375 0.875q0.546875 -0.359375 1.296875 -0.640625q0.75 -0.28125 1.484375 -0.40625l0 1.328125q-0.6875 0.140625 -1.484375 0.40625q-0.796875 0.25 -1.25 0.546875l0 5.46875l-1.734375 0l0 -7.578125zm7.7001343 8.734375q-1.109375 -0.984375 -1.640625 -2.59375q-0.515625 -1.609375 -0.515625 -3.40625q0 -1.8125 0.515625 -3.40625q0.53125 -1.609375 1.640625 -2.59375l1.96875 0q-2.359375 2.046875 -2.359375 6.0q0 3.953125 2.359375 6.0l-1.96875 0zm4.371887 -11.765625l1.90625 0l0 1.4375l-1.90625 0l0 -1.4375zm0.140625 4.359375l-1.140625 0l0.15625 -1.328125l2.734375 0l0 7.578125l-1.75 0l0 -6.25zm3.787384 -1.328125l1.59375 0l0.078125 0.796875q0.546875 -0.4375 1.265625 -0.703125q0.71875 -0.265625 1.53125 -0.265625q1.46875 0 2.140625 0.6875q0.671875 0.6875 0.671875 2.15625l0 4.90625l-1.71875 0l0 -4.828125q0 -0.890625 -0.375 -1.234375q-0.359375 -0.359375 -1.34375 -0.359375q-0.59375 0 -1.15625 0.25q-0.5625 0.234375 -0.953125 0.625l0 5.546875l-1.734375 0l0 -7.578125zm12.138641 7.734375q-1.203125 0 -1.8125 -0.625q-0.609375 -0.640625 -0.609375 -1.78125l0 -3.96875l-1.109375 0l0 -1.359375l1.109375 0l0 -1.75l1.734375 -0.53125l0 2.28125l2.015625 0l-0.109375 1.359375l-1.90625 0l0 3.859375q0 0.65625 0.296875 0.921875q0.296875 0.265625 1.0 0.265625q0.421875 0 0.90625 -0.15625l0 1.234375q-0.625 0.25 -1.515625 0.25zm9.837402 -10.765625l1.90625 0l0 1.4375l-1.90625 0l0 -1.4375zm0.140625 4.359375l-1.140625 0l0.15625 -1.328125l2.734375 0l0 7.578125l-1.75 0l0 -6.25zm9.379272 0.09375l6.171875 0l0 1.234375l-6.171875 0l0 -1.234375zm0 2.4375l6.171875 0l0 1.25l-6.171875 0l0 -1.25z" fill-rule="nonzero"/><path fill="#ffffff" d="m397.53284 248.14519q-2.375 0 -3.453125 -1.359375q-1.078125 -1.359375 -1.078125 -3.953125q0 -2.6875 1.046875 -4.0625q1.0625 -1.375 3.484375 -1.375q2.390625 0 3.453125 1.375q1.0625 1.375 1.0625 4.0625q0 2.59375 -1.09375 3.953125q-1.078125 1.359375 -3.421875 1.359375zm0 -1.484375q1.46875 0 2.109375 -0.96875q0.640625 -0.984375 0.640625 -2.859375q0 -2.0 -0.625 -2.96875q-0.625 -0.96875 -2.125 -0.96875q-1.515625 0 -2.140625 0.96875q-0.625 0.96875 -0.625 2.96875q0 1.890625 0.640625 2.859375q0.640625 0.96875 2.125 0.96875zm5.329132 0.09375l1.515625 0l-0.734375 3.03125l-1.265625 0l0.484375 -3.03125zm4.219757 -9.5l1.90625 0l0 1.4375l-1.90625 0l0 -1.4375zm0.140625 4.359375l-1.140625 0l0.15625 -1.328125l2.734375 0l0 7.578125l-1.75 0l0 -6.25zm3.459259 2.171875l0 -1.421875l7.328125 -3.328125l0 1.609375l-5.484375 2.421875l5.484375 2.421875l0 1.640625l-7.328125 -3.34375zm8.704041 -2.078125l6.171875 0l0 1.234375l-6.171875 0l0 -1.234375zm0 2.4375l6.171875 0l0 1.25l-6.171875 0l0 -1.25zm9.239868 -5.046875l-1.671875 0.28125l0 -1.453125l3.390625 -0.53125l0 10.46875l-1.71875 0l0 -8.765625zm7.963379 9.046875q-2.375 0 -3.453125 -1.359375q-1.078125 -1.359375 -1.078125 -3.953125q0 -2.6875 1.046875 -4.0625q1.0625 -1.375 3.484375 -1.375q2.390625 0 3.453125 1.375q1.0625 1.375 1.0625 4.0625q0 2.59375 -1.09375 3.953125q-1.078125 1.359375 -3.421875 1.359375zm0 -1.484375q1.46875 0 2.109375 -0.96875q0.640625 -0.984375 0.640625 -2.859375q0 -2.0 -0.625 -2.96875q-0.625 -0.96875 -2.125 -0.96875q-1.515625 0 -2.140625 0.96875q-0.625 0.96875 -0.625 2.96875q0 1.890625 0.640625 2.859375q0.640625 0.96875 2.125 0.96875zm10.416016 1.484375q-2.375 0 -3.453125 -1.359375q-1.078125 -1.359375 -1.078125 -3.953125q0 -2.6875 1.046875 -4.0625q1.0625 -1.375 3.484375 -1.375q2.390625 0 3.453125 1.375q1.0625 1.375 1.0625 4.0625q0 2.59375 -1.09375 3.953125q-1.078125 1.359375 -3.421875 1.359375zm0 -1.484375q1.46875 0 2.109375 -0.96875q0.640625 -0.984375 0.640625 -2.859375q0 -2.0 -0.625 -2.96875q-0.625 -0.96875 -2.125 -0.96875q-1.515625 0 -2.140625 0.96875q-0.625 0.96875 -0.625 2.96875q0 1.890625 0.640625 2.859375q0.640625 0.96875 2.125 0.96875zm10.416016 1.484375q-2.375 0 -3.453125 -1.359375q-1.078125 -1.359375 -1.078125 -3.953125q0 -2.6875 1.046875 -4.0625q1.0625 -1.375 3.484375 -1.375q2.390625 0 3.453125 1.375q1.0625 1.375 1.0625 4.0625q0 2.59375 -1.09375 3.953125q-1.078125 1.359375 -3.421875 1.359375zm0 -1.484375q1.46875 0 2.109375 -0.96875q0.640625 -0.984375 0.640625 -2.859375q0 -2.0 -0.625 -2.96875q-0.625 -0.96875 -2.125 -0.96875q-1.515625 0 -2.140625 0.96875q-0.625 0.96875 -0.625 2.96875q0 1.890625 0.640625 2.859375q0.640625 0.96875 2.125 0.96875zm5.3291626 0.09375l1.515625 0l-0.734375 3.03125l-1.265625 0l0.484375 -3.03125z" fill-rule="nonzero"/><path fill="#ffffff" d="m414.82574 259.2858l1.5 0l0.09375 0.75q0.53125 -0.46875 1.140625 -0.6875q0.609375 -0.234375 1.421875 -0.234375q1.6875 0 2.5625 0.921875q0.890625 0.90625 0.890625 2.90625q0 2.015625 -0.9375 3.046875q-0.921875 1.03125 -2.578125 1.03125q-1.375 0 -2.359375 -0.640625l0 3.9375l-1.734375 0l0 -11.03125zm3.640625 6.421875q1.125 0 1.65625 -0.6875q0.546875 -0.6875 0.546875 -2.09375q0 -1.34375 -0.5 -1.90625q-0.484375 -0.578125 -1.65625 -0.578125q-1.171875 0 -1.953125 0.8125l0 3.78125q0.765625 0.671875 1.90625 0.671875zm7.7495117 -2.46875l-2.359375 0l0 -1.359375l2.359375 0l0 -2.34375l1.390625 0l0 2.34375l2.34375 0l0 1.359375l-2.34375 0l0 2.25l-1.390625 0l0 -2.25zm7.5680237 0l-2.359375 0l0 -1.359375l2.359375 0l0 -2.34375l1.390625 0l0 2.34375l2.34375 0l0 1.359375l-2.34375 0l0 2.25l-1.390625 0l0 -2.25zm4.849243 4.78125q1.234375 -1.078125 1.796875 -2.578125q0.5625 -1.5 0.5625 -3.421875q0 -3.96875 -2.359375 -6.0l1.984375 0q1.09375 0.984375 1.609375 2.59375q0.53125 1.609375 0.53125 3.40625q0 1.796875 -0.53125 3.40625q-0.515625 1.609375 -1.609375 2.59375l-1.984375 0z" fill-rule="nonzero"/><path fill="#0f9d58" d="m312.9882 459.73358l13.62204 -54.48819l191.51184 0l-13.62207 54.48819z" fill-rule="evenodd"/><path fill="#ffffff" d="m347.6023 428.8495q-1.015625 0 -1.453125 -0.421875q-0.4375 -0.421875 -0.4375 -1.375l0 -6.84375l2.171875 0l0 6.28125q0 0.671875 0.65625 0.671875l0.53125 0l0 1.6875l-1.46875 0zm4.09375 0q-1.015625 0 -1.453125 -0.421875q-0.421875 -0.421875 -0.421875 -1.375l0 -6.84375l2.15625 0l0 6.28125q0 0.671875 0.65625 0.671875l0.546875 0l0 1.6875l-1.484375 0zm5.6951294 0.15625q-1.34375 0 -2.171875 -0.65625q-0.828125 -0.65625 -0.828125 -2.0625q0 -1.296875 0.875 -1.984375q0.890625 -0.703125 2.53125 -0.703125l2.453125 0l0 -0.40625q0 -0.8125 -0.453125 -1.140625q-0.453125 -0.328125 -1.578125 -0.328125q-1.515625 0 -2.875 0.4375l0 -1.609375q0.6875 -0.234375 1.546875 -0.359375q0.875 -0.140625 1.671875 -0.140625q0.90625 0 1.546875 0.15625l3.0 0l-0.109375 1.65625l-0.984375 0q0.390625 0.578125 0.390625 1.546875l0 5.4375l-2.15625 0l0 -3.65625l-2.328125 0q-0.734375 0 -1.109375 0.25q-0.375 0.25 -0.375 0.84375q0 0.59375 0.34375 0.828125q0.34375 0.21875 1.1875 0.21875q0.734375 0 1.109375 -0.125l0 1.578125q-0.71875 0.21875 -1.6875 0.21875zm10.514526 0q-1.640625 0 -2.625 -1.0625q-0.984375 -1.0625 -0.984375 -3.234375q0 -2.234375 1.140625 -3.4375q1.15625 -1.21875 3.375 -1.21875q1.46875 0 2.453125 0.5q0.984375 0.484375 1.4375 1.3125q0.453125 0.8125 0.453125 1.765625l0 5.21875l-2.15625 0l0 -5.078125q0 -0.96875 -0.515625 -1.5q-0.5 -0.546875 -1.703125 -0.546875q-2.4375 0 -2.4375 2.984375q0 1.40625 0.484375 2.015625q0.484375 0.609375 1.46875 0.609375q0.734375 0 1.109375 -0.125l0 1.578125q-0.59375 0.21875 -1.5 0.21875zm10.401154 0q-1.015625 0 -1.765625 -0.234375l-2.4375 -5.921875l2.09375 0l1.90625 4.625q1.1875 0 1.71875 -0.796875q0.546875 -0.796875 0.546875 -2.421875q0 -0.96875 -0.1875 -1.5q-0.171875 -0.546875 -0.59375 -0.78125q-0.40625 -0.234375 -1.15625 -0.234375l-0.65625 0l0 -1.53125l0.96875 0q1.890625 0 2.78125 1.0q0.890625 0.984375 0.890625 3.046875q0 2.4375 -1.109375 3.59375q-1.09375 1.15625 -3.0 1.15625zm5.1820374 -5.515625q0 -1.625 1.0 -2.53125q1.0 -0.90625 3.078125 -0.90625q2.09375 0 3.078125 0.90625q1.0 0.90625 1.0 2.53125l0 5.359375l-2.171875 0l0 -5.515625q0 -0.78125 -0.5 -1.1875q-0.5 -0.421875 -1.40625 -0.421875q-0.9375 0 -1.421875 0.421875q-0.484375 0.40625 -0.484375 1.1875l0 1.546875q0.671875 -0.515625 1.5 -0.515625l1.03125 0l0.078125 1.71875l-1.15625 0q-0.84375 0 -1.453125 0.46875l0 2.296875l-2.171875 0l0 -5.359375zm5.985504 -7.109375l2.171875 0l0 2.640625l-2.171875 0l0 -2.640625zm7.125 7.15625q0 -0.921875 -0.359375 -1.359375q-0.359375 -0.453125 -1.328125 -0.453125q-0.5 0 -1.09375 0.125q-0.59375 0.109375 -1.078125 0.296875l0 -1.578125q0.5 -0.234375 1.203125 -0.375q0.703125 -0.140625 1.390625 -0.140625q1.8125 0 2.609375 0.765625q0.8125 0.765625 0.8125 2.421875l0 5.609375l-2.15625 0l0 -5.3125zm4.0575256 -3.328125l1.984375 0l0.09375 0.84375q0.59375 -0.46875 1.359375 -0.734375q0.765625 -0.265625 1.640625 -0.265625q1.359375 0 2.125 0.828125q0.78125 0.828125 0.78125 2.28125l0 5.6875l-2.15625 0l0 -5.546875q0 -0.828125 -0.390625 -1.203125q-0.375 -0.375 -1.15625 -0.375q-0.59375 0 -1.1875 0.265625q-0.578125 0.25 -0.921875 0.640625l0 6.21875l-2.171875 0l0 -8.640625zm1.1067505 -2.65625l5.125 0l0 -1.296875l1.765625 0l0 2.765625l-7.0 0l0.109375 -1.46875zm5.125 -4.5707397l1.765625 0l0 2.234375l-1.765625 0l0 -2.234375zm3.65625 7.2269897l2.171875 0l0 2.625l2.140625 0q0.796875 0 1.125 -0.34375q0.328125 -0.359375 0.328125 -1.109375l0 -1.171875l2.15625 0l0 1.09375q0 1.796875 -1.234375 2.296875q0.640625 0.265625 0.90625 0.765625q0.265625 0.5 0.265625 1.265625l0 3.21875l-2.15625 0l0 -2.96875q0 -0.828125 -0.3125 -1.140625q-0.3125 -0.328125 -1.125 -0.328125l-2.09375 0l0 4.4375l-2.171875 0l0 -8.640625zm12.82254 3.328125q0 -0.921875 -0.359375 -1.359375q-0.359375 -0.453125 -1.328125 -0.453125q-0.5 0 -1.09375 0.125q-0.59375 0.109375 -1.078125 0.296875l0 -1.578125q0.5 -0.234375 1.203125 -0.375q0.703125 -0.140625 1.390625 -0.140625q1.8125 0 2.609375 0.765625q0.8125 0.765625 0.8125 2.421875l0 5.609375l-2.15625 0l0 -5.3125zm6.97937 5.46875q-0.921875 0 -1.75 -0.125q-0.8125 -0.125 -1.3125 -0.328125l0 -1.75q0.578125 0.234375 1.3125 0.390625q0.734375 0.140625 1.34375 0.140625q1.09375 0 1.53125 -0.171875q0.453125 -0.171875 0.453125 -0.65625q0 -0.296875 -0.171875 -0.484375q-0.15625 -0.203125 -0.46875 -0.328125q-0.3125 -0.140625 -0.984375 -0.359375l-0.6875 -0.234375q-1.296875 -0.4375 -1.90625 -0.96875q-0.59375 -0.546875 -0.59375 -1.5q0 -1.1875 0.921875 -1.875q0.921875 -0.703125 2.671875 -0.703125q0.71875 0 1.484375 0.109375q0.765625 0.109375 1.25 0.265625l0 1.734375q-0.484375 -0.203125 -1.171875 -0.3125q-0.671875 -0.125 -1.25 -0.125q-0.875 0 -1.375 0.1875q-0.484375 0.1875 -0.484375 0.671875q0 0.359375 0.328125 0.5625q0.34375 0.1875 1.25 0.46875q0.296875 0.078125 0.734375 0.25q0.9375 0.3125 1.46875 0.65625q0.53125 0.328125 0.78125 0.796875q0.25 0.46875 0.25 1.1875q0 1.234375 -0.953125 1.875q-0.953125 0.625 -2.671875 0.625zm8.423035 0q-1.640625 0 -2.625 -1.0625q-0.984375 -1.0625 -0.984375 -3.234375q0 -2.234375 1.140625 -3.4375q1.15625 -1.21875 3.375 -1.21875q1.46875 0 2.453125 0.5q0.984375 0.484375 1.4375 1.3125q0.453125 0.8125 0.453125 1.765625l0 5.21875l-2.15625 0l0 -5.078125q0 -0.96875 -0.515625 -1.5q-0.5 -0.546875 -1.703125 -0.546875q-2.4375 0 -2.4375 2.984375q0 1.40625 0.484375 2.015625q0.484375 0.609375 1.46875 0.609375q0.734375 0 1.109375 -0.125l0 1.578125q-0.59375 0.21875 -1.5 0.21875zm1.3699036 -11.40625l-1.25 0l0 -1.46875l2.703125 0l0 1.421875l3.421875 0l-0.078125 1.46875l-4.796875 0l0 -1.421875zm7.96875 11.40625q-1.5625 0 -2.75 -0.515625l0 -1.640625q1.078125 0.484375 2.234375 0.484375q1.515625 0 2.15625 -0.625q0.640625 -0.640625 0.640625 -2.171875q0 -1.546875 -0.640625 -2.171875q-0.640625 -0.640625 -2.15625 -0.640625q-1.15625 0 -2.234375 0.484375l0 -1.640625q1.1875 -0.515625 2.75 -0.515625q2.171875 0 3.25 1.140625q1.078125 1.125 1.078125 3.34375q0 2.203125 -1.078125 3.34375q-1.078125 1.125 -3.25 1.125zm9.387268 0q-1.890625 0 -3.015625 -0.65625q-1.125 -0.65625 -1.125 -2.125q0 -0.59375 0.265625 -1.078125q0.28125 -0.484375 0.8125 -0.796875q-0.46875 -0.203125 -0.765625 -0.65625q-0.28125 -0.453125 -0.28125 -1.078125q0 -1.234375 0.765625 -1.890625q0.78125 -0.671875 2.09375 -0.671875q0.890625 0 1.484375 0.21875l0 1.59375q-0.453125 -0.140625 -1.09375 -0.140625q-0.609375 0 -0.90625 0.21875q-0.296875 0.203125 -0.296875 0.671875q0 0.5 0.3125 0.71875q0.328125 0.203125 1.03125 0.203125l0.890625 0l0.078125 1.578125l-0.984375 0q-1.359375 0 -1.359375 1.109375q0 0.5625 0.484375 0.84375q0.484375 0.265625 1.515625 0.265625q2.03125 0 2.03125 -1.6875l0 -5.4375l2.15625 0l0 5.25q0 1.828125 -1.046875 2.6875q-1.03125 0.859375 -3.046875 0.859375z" fill-rule="nonzero"/><path fill="#ffffff" d="m345.6648 437.55264l1.875 0l4.875 6.859375l0 -6.859375l2.171875 0l0 10.296875l-1.875 0l-4.875 -6.859375l0 6.859375l-2.171875 0l0 -10.296875zm15.423523 10.453125q-5.0 0 -5.0 -5.265625q0 -2.78125 1.234375 -4.0625q1.25 -1.296875 3.765625 -1.296875q2.53125 0 3.765625 1.296875q1.25 1.28125 1.25 4.0625q0 5.265625 -5.015625 5.265625zm0 -1.84375q1.453125 0 2.140625 -0.828125q0.6875 -0.84375 0.6875 -2.59375q0 -1.90625 -0.671875 -2.703125q-0.671875 -0.8125 -2.15625 -0.8125q-1.46875 0 -2.140625 0.8125q-0.671875 0.796875 -0.671875 2.703125q0 1.75 0.6875 2.59375q0.6875 0.828125 2.125 0.828125zm15.006897 1.84375q-1.34375 0 -2.171875 -0.65625q-0.828125 -0.65625 -0.828125 -2.0625q0 -1.296875 0.875 -1.984375q0.890625 -0.703125 2.53125 -0.703125l2.453125 0l0 -0.40625q0 -0.8125 -0.453125 -1.140625q-0.453125 -0.328125 -1.578125 -0.328125q-1.515625 0 -2.875 0.4375l0 -1.609375q0.6875 -0.234375 1.546875 -0.359375q0.875 -0.140625 1.671875 -0.140625q1.9375 0 2.890625 0.828125q0.953125 0.8125 0.953125 2.53125l0 5.4375l-2.15625 0l0 -3.65625l-2.328125 0q-0.734375 0 -1.109375 0.25q-0.375 0.25 -0.375 0.84375q0 0.59375 0.34375 0.828125q0.34375 0.21875 1.1875 0.21875q0.734375 0 1.109375 -0.125l0 1.578125q-0.71875 0.21875 -1.6875 0.21875zm10.163666 0q-1.015625 0 -1.765625 -0.234375l-2.4375 -5.921875l2.09375 0l1.90625 4.625q1.1875 0 1.71875 -0.796875q0.546875 -0.796875 0.546875 -2.421875q0 -0.96875 -0.1875 -1.5q-0.171875 -0.546875 -0.59375 -0.78125q-0.40625 -0.234375 -1.15625 -0.234375l-0.65625 0l0 -1.53125l0.96875 0q1.890625 0 2.78125 1.0q0.890625 0.984375 0.890625 3.046875q0 2.4375 -1.109375 3.59375q-1.09375 1.15625 -3.0 1.15625zm8.478882 0q-1.640625 0 -2.625 -1.0625q-0.984375 -1.0625 -0.984375 -3.234375q0 -2.265625 0.78125 -3.453125q0.796875 -1.203125 2.203125 -1.203125q0.640625 0 1.046875 0.203125q0.40625 0.203125 0.671875 0.609375q0.3125 -0.375 0.875 -0.59375q0.578125 -0.21875 1.171875 -0.21875q1.09375 0 1.640625 0.671875q0.5625 0.671875 0.5625 1.828125l0 6.296875l-2.15625 0l0 -5.96875q0 -0.59375 -0.15625 -0.875q-0.15625 -0.28125 -0.578125 -0.28125q-0.296875 0 -0.53125 0.1875q-0.21875 0.1875 -0.3125 0.546875l-1.046875 0q-0.171875 -0.390625 -0.359375 -0.5625q-0.171875 -0.171875 -0.484375 -0.171875q-0.71875 0 -1.0 0.765625q-0.28125 0.765625 -0.28125 2.21875q0 1.40625 0.484375 2.015625q0.484375 0.609375 1.46875 0.609375q0.734375 0 1.109375 -0.125l0 1.578125q-0.59375 0.21875 -1.5 0.21875zm1.3096619 -12.53125l1.765625 0l0 1.078125l3.984375 0l-0.078125 1.46875l-5.671875 0l0 -2.546875zm8.125 12.53125q-1.5625 0 -2.75 -0.515625l0 -1.640625q1.078125 0.484375 2.234375 0.484375q1.515625 0 2.15625 -0.625q0.640625 -0.640625 0.640625 -2.171875q0 -1.546875 -0.640625 -2.171875q-0.640625 -0.640625 -2.15625 -0.640625q-1.15625 0 -2.234375 0.484375l0 -1.640625q1.1875 -0.515625 2.75 -0.515625q2.171875 0 3.25 1.140625q1.078125 1.125 1.078125 3.34375q0 2.203125 -1.078125 3.34375q-1.078125 1.125 -3.25 1.125z" fill-rule="nonzero"/></g></svg>