<svg version="1.1" viewBox="0.0 0.0 960.0 720.0" fill="none" stroke="none" stroke-linecap="square" stroke-miterlimit="10" xmlns:xlink="http://www.w3.org/1999/xlink" xmlns="http://www.w3.org/2000/svg"><clipPath id="p.0"><path d="m0 0l960.0 0l0 720.0l-960.0 0l0 -720.0z" clip-rule="nonzero"/></clipPath><g clip-path="url(#p.0)"><path fill="#000000" fill-opacity="0.0" d="m0 0l960.0 0l0 720.0l-960.0 0z" fill-rule="evenodd"/><path fill="#cc0000" d="m786.9791 54.015747l69.67786 0l0 0c9.127991 0 16.52771 7.665451 16.52771 17.121262c0 9.455811 -7.399719 17.121262 -16.52771 17.121262l-69.67786 0l0 0c-9.127991 0 -16.52771 -7.665451 -16.52771 -17.121262c0 -9.455811 7.399719 -17.121262 16.52771 -17.121262z" fill-rule="evenodd"/><path fill="#ffffff" d="m800.9166 77.15326q-0.953125 0 -1.421875 -0.453125q-0.453125 -0.46875 -0.453125 -1.515625l0 -8.96875l1.734375 0l0 8.8125q0 0.4375 0.15625 0.609375q0.15625 0.15625 0.484375 0.15625q0.390625 0 0.734375 -0.09375l0 1.265625q-0.53125 0.1875 -1.234375 0.1875zm5.51001 0q-3.953125 0 -3.953125 -3.953125q0 -3.953125 3.953125 -3.953125q3.96875 0 3.96875 3.953125q0 3.953125 -3.96875 3.953125zm0 -1.46875q1.203125 0 1.703125 -0.578125q0.5 -0.578125 0.5 -1.90625q0 -1.3125 -0.5 -1.875q-0.5 -0.578125 -1.703125 -0.578125q-1.1875 0 -1.6875 0.578125q-0.5 0.5625 -0.5 1.875q0 1.328125 0.5 1.90625q0.5 0.578125 1.6875 0.578125zm8.896057 1.46875q-3.953125 0 -3.953125 -3.953125q0 -3.953125 3.953125 -3.953125q3.96875 0 3.96875 3.953125q0 3.953125 -3.96875 3.953125zm0 -1.46875q1.203125 0 1.703125 -0.578125q0.5 -0.578125 0.5 -1.90625q0 -1.3125 -0.5 -1.875q-0.5 -0.578125 -1.703125 -0.578125q-1.1875 0 -1.6875 0.578125q-0.5 0.5625 -0.5 1.875q0 1.328125 0.5 1.90625q0.5 0.578125 1.6875 0.578125zm5.6710205 -6.265625l1.5 0l0.09375 0.75q0.53125 -0.46875 1.140625 -0.6875q0.609375 -0.234375 1.421875 -0.234375q1.6875 0 2.5625 0.921875q0.890625 0.90625 0.890625 2.90625q0 2.015625 -0.9375 3.046875q-0.921875 1.03125 -2.578125 1.03125q-1.375 0 -2.359375 -0.640625l0 3.9375l-1.734375 0l0 -11.03125zm3.640625 6.421875q1.125 0 1.65625 -0.6875q0.546875 -0.6875 0.546875 -2.09375q0 -1.34375 -0.5 -1.90625q-0.484375 -0.578125 -1.65625 -0.578125q-1.171875 0 -1.953125 0.8125l0 3.78125q0.765625 0.671875 1.90625 0.671875zm13.419495 2.3125q-1.109375 -0.984375 -1.640625 -2.59375q-0.515625 -1.609375 -0.515625 -3.40625q0 -1.8125 0.515625 -3.40625q0.53125 -1.609375 1.640625 -2.59375l1.96875 0q-2.359375 2.046875 -2.359375 6.0q0 3.953125 2.359375 6.0l-1.96875 0zm2.7312622 0q1.234375 -1.078125 1.796875 -2.578125q0.5625 -1.5 0.5625 -3.421875q0 -3.96875 -2.359375 -6.0l1.984375 0q1.09375 0.984375 1.609375 2.59375q0.53125 1.609375 0.53125 3.40625q0 1.796875 -0.53125 3.40625q-0.515625 1.609375 -1.609375 2.59375l-1.984375 0z" fill-rule="nonzero"/><path fill="#000000" fill-opacity="0.0" d="m821.81805 88.25827l0 28.724403" fill-rule="evenodd"/><path stroke="#000000" stroke-width="1.0" stroke-linejoin="round" stroke-linecap="butt" d="m821.81805 88.25826l0 22.724411" fill-rule="evenodd"/><path fill="#000000" stroke="#000000" stroke-width="1.0" stroke-linecap="butt" d="m820.1663 110.98267l1.6517334 4.5380936l1.6517334 -4.5380936z" fill-rule="evenodd"/><path fill="#cc0000" d="m786.9791 116.98163l69.67786 0l0 0c9.127991 0 16.52771 7.665451 16.52771 17.121262c0 9.455811 -7.399719 17.121262 -16.52771 17.121262l-69.67786 0l0 0c-9.127991 0 -16.52771 -7.665451 -16.52771 -17.121262c0 -9.455811 7.399719 -17.121262 16.52771 -17.121262z" fill-rule="evenodd"/><path fill="#ffffff" d="m816.75116 140.11914q-0.34375 0 -0.75 -0.0625q-0.390625 -0.046875 -0.625 -0.140625l-1.28125 -3.40625l-1.109375 0l0.078125 -1.3125l2.125 0l1.328125 3.546875q1.140625 0.046875 1.828125 -0.71875q0.6875 -0.765625 0.6875 -2.46875q0 -1.125 -0.296875 -1.765625q-0.296875 -0.65625 -0.96875 -0.9375q-0.671875 -0.28125 -1.859375 -0.28125q-1.46875 0 -2.734375 0.421875l0 -1.34375q1.515625 -0.484375 3.203125 -0.484375q2.234375 0 3.28125 1.109375q1.0625 1.109375 1.0625 3.28125q0 1.453125 -0.546875 2.484375q-0.53125 1.03125 -1.4375 1.5625q-0.90625 0.515625 -1.984375 0.515625zm9.604004 0q-1.875 0 -2.90625 -0.875q-1.03125 -0.890625 -1.03125 -2.640625l0 -5.28125l1.734375 0l0 5.34375q0 1.0625 0.546875 1.5625q0.5625 0.5 1.65625 0.5q1.109375 0 1.671875 -0.5q0.5625 -0.5 0.5625 -1.5625l0 -5.34375l1.71875 0l0 5.28125q0 1.75 -1.03125 2.640625q-1.015625 0.875 -2.921875 0.875z" fill-rule="nonzero"/><path fill="#cc0000" d="m90.3702 54.015747l69.677864 0l0 0c9.127991 0 16.52768 7.665451 16.52768 17.121262c0 9.455811 -7.3996887 17.121262 -16.52768 17.121262l-69.677864 0l0 0c-9.127983 0 -16.52768 -7.665451 -16.52768 -17.121262c0 -9.455811 7.3996964 -17.121262 16.52768 -17.121262z" fill-rule="evenodd"/><path fill="#ffffff" d="m112.33409 77.15326q-2.0 0 -3.21875 -0.515625l0 -1.53125q1.5 0.578125 3.0625 0.578125q1.296875 0 1.875 -0.296875q0.59375 -0.3125 0.59375 -1.140625q0 -0.53125 -0.25 -0.84375q-0.25 -0.3125 -0.8125 -0.53125q-0.5625 -0.234375 -1.671875 -0.515625q-1.671875 -0.4375 -2.34375 -1.09375q-0.671875 -0.671875 -0.671875 -1.828125q0 -1.375 1.0 -2.140625q1.015625 -0.765625 2.953125 -0.765625q0.84375 0 1.640625 0.125q0.796875 0.125 1.28125 0.296875l0 1.53125q-1.203125 -0.453125 -2.6875 -0.453125q-1.21875 0 -1.828125 0.3125q-0.59375 0.3125 -0.59375 1.09375q0 0.453125 0.21875 0.734375q0.21875 0.28125 0.734375 0.5q0.53125 0.21875 1.5625 0.46875q1.8125 0.46875 2.515625 1.203125q0.703125 0.734375 0.703125 1.90625q0 1.375 -1.03125 2.140625q-1.03125 0.765625 -3.03125 0.765625zm8.101273 0q-1.203125 0 -1.8125 -0.625q-0.609375 -0.640625 -0.609375 -1.78125l0 -3.96875l-1.109375 0l0 -1.359375l1.109375 0l0 -1.75l1.734375 -0.53125l0 2.28125l2.015625 0l-0.109375 1.359375l-1.90625 0l0 3.859375q0 0.65625 0.296875 0.921875q0.296875 0.265625 1.0 0.265625q0.421875 0 0.90625 -0.15625l0 1.234375q-0.625 0.25 -1.515625 0.25zm4.7167664 0q-1.15625 0 -1.921875 -0.59375q-0.765625 -0.609375 -0.765625 -1.71875q0 -1.125 0.75 -1.765625q0.765625 -0.65625 2.296875 -0.65625l2.421875 0l0 -0.328125q0 -0.5625 -0.171875 -0.875q-0.15625 -0.3125 -0.609375 -0.453125q-0.453125 -0.15625 -1.28125 -0.15625q-1.34375 0 -2.515625 0.40625l0 -1.296875q0.546875 -0.203125 1.28125 -0.328125q0.734375 -0.140625 1.5625 -0.140625q1.6875 0 2.546875 0.6875q0.859375 0.6875 0.859375 2.1875l0 4.875l-1.484375 0l-0.125 -0.765625q-0.46875 0.46875 -1.15625 0.703125q-0.6875 0.21875 -1.6875 0.21875zm0.46875 -1.25q0.75 0 1.34375 -0.25q0.59375 -0.25 0.96875 -0.71875l0 -1.328125l-2.390625 0q-0.78125 0 -1.125 0.296875q-0.34375 0.28125 -0.34375 0.90625q0 0.578125 0.390625 0.84375q0.390625 0.25 1.15625 0.25zm5.923889 -6.484375l1.59375 0l0.09375 0.875q0.546875 -0.359375 1.296875 -0.640625q0.75 -0.28125 1.484375 -0.40625l0 1.328125q-0.6875 0.140625 -1.484375 0.40625q-0.796875 0.25 -1.25 0.546875l0 5.46875l-1.734375 0l0 -7.578125zm8.762634 7.734375q-1.203125 0 -1.8125 -0.625q-0.609375 -0.640625 -0.609375 -1.78125l0 -3.96875l-1.109375 0l0 -1.359375l1.109375 0l0 -1.75l1.734375 -0.53125l0 2.28125l2.015625 0l-0.109375 1.359375l-1.90625 0l0 3.859375q0 0.65625 0.296875 0.921875q0.296875 0.265625 1.0 0.265625q0.421875 0 0.90625 -0.15625l0 1.234375q-0.625 0.25 -1.515625 0.25z" fill-rule="nonzero"/><path fill="#4a86e8" d="m53.817585 116.98425l142.78084 0l0 58.98224l-142.78084 0z" fill-rule="evenodd"/><path fill="#000000" fill-opacity="0.0" d="m71.66519 116.98425l0 58.98224m107.08563 -58.98224l0 58.98224" fill-rule="evenodd"/><path fill="#000000" fill-opacity="0.0" d="m53.817585 116.98425l142.78084 0l0 58.98224l-142.78084 0z" fill-rule="evenodd"/><path stroke="#ffffff" stroke-width="3.0" stroke-linejoin="round" stroke-linecap="butt" d="m71.66519 116.98425l0 58.98224m107.08563 -58.98224l0 58.98224" fill-rule="evenodd"/><path stroke="#ffffff" stroke-width="3.0" stroke-linejoin="round" stroke-linecap="butt" d="m53.817585 116.98425l142.78084 0l0 58.98224l-142.78084 0z" fill-rule="evenodd"/><path fill="#ffffff" d="m100.587204 152.49162q-0.765625 0 -1.484375 -0.109375q-0.71875 -0.09375 -1.1875 -0.265625l0 -1.484375q0.53125 0.21875 1.171875 0.328125q0.65625 0.109375 1.28125 0.109375q0.921875 0 1.28125 -0.15625q0.375 -0.15625 0.375 -0.625q0 -0.421875 -0.34375 -0.609375q-0.328125 -0.203125 -1.25 -0.5l-0.484375 -0.15625q-1.140625 -0.390625 -1.671875 -0.859375q-0.53125 -0.46875 -0.53125 -1.390625q0 -1.078125 0.765625 -1.625q0.765625 -0.5625 2.40625 -0.5625q0.625 0 1.21875 0.109375q0.609375 0.09375 1.03125 0.234375l0 1.453125q-0.421875 -0.171875 -0.96875 -0.265625q-0.53125 -0.09375 -1.015625 -0.09375q-0.875 0 -1.28125 0.15625q-0.390625 0.140625 -0.390625 0.5625q0 0.359375 0.296875 0.546875q0.3125 0.1875 1.203125 0.46875l0.34375 0.109375q0.9375 0.296875 1.4375 0.59375q0.515625 0.296875 0.75 0.71875q0.234375 0.421875 0.234375 1.09375q0 2.21875 -3.1875 2.21875zm8.736511 0q-2.015625 0 -3.09375 -0.984375q-1.0625 -1.0 -1.0625 -2.984375q0 -1.875 0.9375 -2.90625q0.953125 -1.03125 2.8125 -1.03125q1.671875 0 2.5625 0.890625q0.90625 0.875 0.90625 2.34375l0 1.40625l-5.546875 0q0.125 1.09375 0.78125 1.515625q0.65625 0.421875 2.0625 0.421875q0.578125 0 1.171875 -0.109375q0.59375 -0.109375 1.0625 -0.28125l0 1.28125q-1.0 0.4375 -2.59375 0.4375zm1.53125 -4.390625l0 -0.53125q0 -0.8125 -0.453125 -1.234375q-0.453125 -0.4375 -1.4375 -0.4375q-1.1875 0 -1.65625 0.515625q-0.46875 0.515625 -0.46875 1.6875l4.015625 0zm6.1232605 4.390625q-1.203125 0 -1.8125 -0.625q-0.609375 -0.640625 -0.609375 -1.78125l0 -3.96875l-1.109375 0l0 -1.359375l1.109375 0l0 -1.75l1.734375 -0.53125l0 2.28125l2.015625 0l-0.109375 1.359375l-1.90625 0l0 3.859375q0 0.65625 0.296875 0.921875q0.296875 0.265625 1.0 0.265625q0.421875 0 0.90625 -0.15625l0 1.234375q-0.625 0.25 -1.515625 0.25zm5.25177 0q-1.359375 0 -2.09375 -0.75q-0.734375 -0.765625 -0.734375 -2.203125l0 -4.78125l1.75 0l0 4.78125q0 0.84375 0.40625 1.25q0.421875 0.390625 1.296875 0.390625q0.609375 0 1.15625 -0.21875q0.546875 -0.234375 0.96875 -0.65625l0 -5.546875l1.71875 0l0 7.578125l-1.578125 0l-0.078125 -0.78125q-1.203125 0.9375 -2.8125 0.9375zm6.5136414 -7.734375l1.5 0l0.09375 0.75q0.53125 -0.46875 1.140625 -0.6875q0.609375 -0.234375 1.421875 -0.234375q1.6875 0 2.5625 0.921875q0.890625 0.90625 0.890625 2.90625q0 2.015625 -0.9375 3.046875q-0.921875 1.03125 -2.578125 1.03125q-1.375 0 -2.359375 -0.640625l0 3.9375l-1.734375 0l0 -11.03125zm3.640625 6.421875q1.125 0 1.65625 -0.6875q0.546875 -0.6875 0.546875 -2.09375q0 -1.34375 -0.5 -1.90625q-0.484375 -0.578125 -1.65625 -0.578125q-1.171875 0 -1.953125 0.8125l0 3.78125q0.765625 0.671875 1.90625 0.671875zm13.419525 2.3125q-1.109375 -0.984375 -1.640625 -2.59375q-0.515625 -1.609375 -0.515625 -3.40625q0 -1.8125 0.515625 -3.40625q0.53125 -1.609375 1.640625 -2.59375l1.96875 0q-2.359375 2.046875 -2.359375 6.0q0 3.953125 2.359375 6.0l-1.96875 0zm2.7312622 0q1.234375 -1.078125 1.796875 -2.578125q0.5625 -1.5 0.5625 -3.421875q0 -3.96875 -2.359375 -6.0l1.984375 0q1.09375 0.984375 1.609375 2.59375q0.53125 1.609375 0.53125 3.40625q0 1.796875 -0.53125 3.40625q-0.515625 1.609375 -1.609375 2.59375l-1.984375 0z" fill-rule="nonzero"/><path fill="#4a86e8" d="m53.818897 202.52695l142.78084 0l0 58.98224l-142.78084 0z" fill-rule="evenodd"/><path fill="#000000" fill-opacity="0.0" d="m71.666504 202.52695l0 58.98224m107.08563 -58.98224l0 58.98224" fill-rule="evenodd"/><path fill="#000000" fill-opacity="0.0" d="m53.818897 202.52695l142.78084 0l0 58.98224l-142.78084 0z" fill-rule="evenodd"/><path stroke="#ffffff" stroke-width="3.0" stroke-linejoin="round" stroke-linecap="butt" d="m71.666504 202.52695l0 58.98224m107.08563 -58.98224l0 58.98224" fill-rule="evenodd"/><path stroke="#ffffff" stroke-width="3.0" stroke-linejoin="round" stroke-linecap="butt" d="m53.818897 202.52695l142.78084 0l0 58.98224l-142.78084 0z" fill-rule="evenodd"/><path fill="#ffffff" d="m104.30789 238.03432q-0.953125 0 -1.421875 -0.453125q-0.453125 -0.46875 -0.453125 -1.515625l0 -8.96875l1.734375 0l0 8.8125q0 0.4375 0.15625 0.609375q0.15625 0.15625 0.484375 0.15625q0.390625 0 0.734375 -0.09375l0 1.265625q-0.53125 0.1875 -1.234375 0.1875zm5.51001 0q-3.953125 0 -3.953125 -3.953125q0 -3.953125 3.953125 -3.953125q3.96875 0 3.96875 3.953125q0 3.953125 -3.96875 3.953125zm0 -1.46875q1.203125 0 1.703125 -0.578125q0.5 -0.578125 0.5 -1.90625q0 -1.3125 -0.5 -1.875q-0.5 -0.578125 -1.703125 -0.578125q-1.1875 0 -1.6875 0.578125q-0.5 0.5625 -0.5 1.875q0 1.328125 0.5 1.90625q0.5 0.578125 1.6875 0.578125zm8.896027 1.46875q-3.953125 0 -3.953125 -3.953125q0 -3.953125 3.953125 -3.953125q3.96875 0 3.96875 3.953125q0 3.953125 -3.96875 3.953125zm0 -1.46875q1.203125 0 1.703125 -0.578125q0.5 -0.578125 0.5 -1.90625q0 -1.3125 -0.5 -1.875q-0.5 -0.578125 -1.703125 -0.578125q-1.1875 0 -1.6875 0.578125q-0.5 0.5625 -0.5 1.875q0 1.328125 0.5 1.90625q0.5 0.578125 1.6875 0.578125zm5.6710205 -6.265625l1.5 0l0.09375 0.75q0.53125 -0.46875 1.140625 -0.6875q0.609375 -0.234375 1.421875 -0.234375q1.6875 0 2.5625 0.921875q0.890625 0.90625 0.890625 2.90625q0 2.015625 -0.9375 3.046875q-0.921875 1.03125 -2.578125 1.03125q-1.375 0 -2.359375 -0.640625l0 3.9375l-1.734375 0l0 -11.03125zm3.640625 6.421875q1.125 0 1.65625 -0.6875q0.546875 -0.6875 0.546875 -2.09375q0 -1.34375 -0.5 -1.90625q-0.484375 -0.578125 -1.65625 -0.578125q-1.171875 0 -1.953125 0.8125l0 3.78125q0.765625 0.671875 1.90625 0.671875zm13.419525 2.3125q-1.109375 -0.984375 -1.640625 -2.59375q-0.515625 -1.609375 -0.515625 -3.40625q0 -1.8125 0.515625 -3.40625q0.53125 -1.609375 1.640625 -2.59375l1.96875 0q-2.359375 2.046875 -2.359375 6.0q0 3.953125 2.359375 6.0l-1.96875 0zm2.7312622 0q1.234375 -1.078125 1.796875 -2.578125q0.5625 -1.5 0.5625 -3.421875q0 -3.96875 -2.359375 -6.0l1.984375 0q1.09375 0.984375 1.609375 2.59375q0.53125 1.609375 0.53125 3.40625q0 1.796875 -0.53125 3.40625q-0.515625 1.609375 -1.609375 2.59375l-1.984375 0z" fill-rule="nonzero"/><path fill="#000000" fill-opacity="0.0" d="m125.20914 88.25827l0 28.724403" fill-rule="evenodd"/><path stroke="#000000" stroke-width="1.0" stroke-linejoin="round" stroke-linecap="butt" d="m125.20913 88.25826l0 22.724411" fill-rule="evenodd"/><path fill="#000000" stroke="#000000" stroke-width="1.0" stroke-linecap="butt" d="m123.5574 110.98267l1.6517258 4.5380936l1.6517334 -4.5380936z" fill-rule="evenodd"/><path fill="#000000" fill-opacity="0.0" d="m125.20801 175.96649l0 26.551178" fill-rule="evenodd"/><path stroke="#000000" stroke-width="1.0" stroke-linejoin="round" stroke-linecap="butt" d="m125.20801 175.96649l0 20.551178" fill-rule="evenodd"/><path fill="#000000" stroke="#000000" stroke-width="1.0" stroke-linecap="butt" d="m123.556274 196.51767l1.6517334 4.538101l1.6517334 -4.538101z" fill-rule="evenodd"/><path fill="#000000" fill-opacity="0.0" d="m125.20932 261.5092l0 24.999908l-96.3907 0l0 -54.480225l24.989124 0" fill-rule="evenodd"/><path stroke="#000000" stroke-width="1.0" stroke-linejoin="round" stroke-linecap="butt" d="m125.20932 261.5092l0 24.999908l-96.3907 0l0 -54.480225l18.989122 0" fill-rule="evenodd"/><path fill="#000000" stroke="#000000" stroke-width="1.0" stroke-linecap="butt" d="m47.807743 233.6806l4.5380974 -1.6517334l-4.5380974 -1.6517334z" fill-rule="evenodd"/><path fill="#cc0000" d="m454.1799 54.015747l69.67789 0l0 0c9.127991 0 16.527649 7.665451 16.527649 17.121262c0 9.455811 -7.399658 17.121262 -16.527649 17.121262l-69.67789 0l0 0c-9.12796 0 -16.52768 -7.665451 -16.52768 -17.121262c0 -9.455811 7.399719 -17.121262 16.52768 -17.121262z" fill-rule="evenodd"/><path fill="#ffffff" d="m464.39804 77.15326q-0.765625 0 -1.484375 -0.109375q-0.71875 -0.09375 -1.1875 -0.265625l0 -1.484375q0.53125 0.21875 1.171875 0.328125q0.65625 0.109375 1.28125 0.109375q0.921875 0 1.28125 -0.15625q0.375 -0.15625 0.375 -0.625q0 -0.421875 -0.34375 -0.609375q-0.328125 -0.203125 -1.25 -0.5l-0.484375 -0.15625q-1.140625 -0.390625 -1.671875 -0.859375q-0.53125 -0.46875 -0.53125 -1.390625q0 -1.078125 0.765625 -1.625q0.765625 -0.5625 2.40625 -0.5625q0.625 0 1.21875 0.109375q0.609375 0.09375 1.03125 0.234375l0 1.453125q-0.421875 -0.171875 -0.96875 -0.265625q-0.53125 -0.09375 -1.015625 -0.09375q-0.875 0 -1.28125 0.15625q-0.390625 0.140625 -0.390625 0.5625q0 0.359375 0.296875 0.546875q0.3125 0.1875 1.203125 0.46875l0.34375 0.109375q0.9375 0.296875 1.4375 0.59375q0.515625 0.296875 0.75 0.71875q0.234375 0.421875 0.234375 1.09375q0 2.21875 -3.1875 2.21875zm8.736511 0q-2.015625 0 -3.09375 -0.984375q-1.0625 -1.0 -1.0625 -2.984375q0 -1.875 0.9375 -2.90625q0.953125 -1.03125 2.8125 -1.03125q1.671875 0 2.5625 0.890625q0.90625 0.875 0.90625 2.34375l0 1.40625l-5.546875 0q0.125 1.09375 0.78125 1.515625q0.65625 0.421875 2.0625 0.421875q0.578125 0 1.171875 -0.109375q0.59375 -0.109375 1.0625 -0.28125l0 1.28125q-1.0 0.4375 -2.59375 0.4375zm1.53125 -4.390625l0 -0.53125q0 -0.8125 -0.453125 -1.234375q-0.453125 -0.4375 -1.4375 -0.4375q-1.1875 0 -1.65625 0.515625q-0.46875 0.515625 -0.46875 1.6875l4.015625 0zm6.1232605 4.390625q-1.203125 0 -1.8125 -0.625q-0.609375 -0.640625 -0.609375 -1.78125l0 -3.96875l-1.109375 0l0 -1.359375l1.109375 0l0 -1.75l1.734375 -0.53125l0 2.28125l2.015625 0l-0.109375 1.359375l-1.90625 0l0 3.859375q0 0.65625 0.296875 0.921875q0.296875 0.265625 1.0 0.265625q0.421875 0 0.90625 -0.15625l0 1.234375q-0.625 0.25 -1.515625 0.25zm5.25177 0q-1.359375 0 -2.09375 -0.75q-0.734375 -0.765625 -0.734375 -2.203125l0 -4.78125l1.75 0l0 4.78125q0 0.84375 0.40625 1.25q0.421875 0.390625 1.296875 0.390625q0.609375 0 1.15625 -0.21875q0.546875 -0.234375 0.96875 -0.65625l0 -5.546875l1.71875 0l0 7.578125l-1.578125 0l-0.078125 -0.78125q-1.203125 0.9375 -2.8125 0.9375zm6.5136414 -7.734375l1.5 0l0.09375 0.75q0.53125 -0.46875 1.140625 -0.6875q0.609375 -0.234375 1.421875 -0.234375q1.6875 0 2.5625 0.921875q0.890625 0.90625 0.890625 2.90625q0 2.015625 -0.9375 3.046875q-0.921875 1.03125 -2.578125 1.03125q-1.375 0 -2.359375 -0.640625l0 3.9375l-1.734375 0l0 -11.03125zm3.640625 6.421875q1.125 0 1.65625 -0.6875q0.546875 -0.6875 0.546875 -2.09375q0 -1.34375 -0.5 -1.90625q-0.484375 -0.578125 -1.65625 -0.578125q-1.171875 0 -1.953125 0.8125l0 3.78125q0.765625 0.671875 1.90625 0.671875zm13.419525 2.3125q-1.109375 -0.984375 -1.640625 -2.59375q-0.515625 -1.609375 -0.515625 -3.40625q0 -1.8125 0.515625 -3.40625q0.53125 -1.609375 1.640625 -2.59375l1.96875 0q-2.359375 2.046875 -2.359375 6.0q0 3.953125 2.359375 6.0l-1.96875 0zm2.7312622 0q1.234375 -1.078125 1.796875 -2.578125q0.5625 -1.5 0.5625 -3.421875q0 -3.96875 -2.359375 -6.0l1.984375 0q1.09375 0.984375 1.609375 2.59375q0.53125 1.609375 0.53125 3.40625q0 1.796875 -0.53125 3.40625q-0.515625 1.609375 -1.609375 2.59375l-1.984375 0z" fill-rule="nonzero"/><path fill="#000000" fill-opacity="0.0" d="m489.01886 88.25827l0 28.724403" fill-rule="evenodd"/><path stroke="#000000" stroke-width="1.0" stroke-linejoin="round" stroke-linecap="butt" d="m489.01886 88.25826l0 22.724411" fill-rule="evenodd"/><path fill="#000000" stroke="#000000" stroke-width="1.0" stroke-linecap="butt" d="m487.36713 110.98267l1.6517334 4.5380936l1.6517334 -4.5380936z" fill-rule="evenodd"/><path fill="#4a86e8" d="m430.75073 120.145515l116.53546 0l0 52.661415l-116.53546 0z" fill-rule="evenodd"/><path fill="#ffffff" d="m443.50677 135.41685q-1.34375 0 -2.140625 -0.90625q-0.796875 -0.90625 -0.796875 -2.71875q0 -1.859375 0.609375 -2.84375q0.625 -1.0000076 1.765625 -1.0000076q0.515625 0 0.84375 0.17188263q0.328125 0.171875 0.59375 0.515625q0.28125 -0.296875 0.734375 -0.484375q0.453125 -0.20313263 0.90625 -0.20313263q0.84375 0 1.28125 0.5156326q0.4375 0.5 0.4375 1.421875l0 5.390625l-1.453125 0l0 -5.1875q0 -0.53125 -0.140625 -0.75q-0.140625 -0.21875 -0.5625 -0.21875q-0.28125 0 -0.5 0.15625q-0.21875 0.15625 -0.328125 0.453125l-0.796875 0q-0.171875 -0.328125 -0.34375 -0.46875q-0.171875 -0.140625 -0.484375 -0.140625q-0.640625 0 -0.90625 0.6875q-0.265625 0.671875 -0.265625 1.984375q0 1.3125 0.4375 1.890625q0.453125 0.5625 1.359375 0.5625q0.625 0 0.921875 -0.109375l0 1.109375q-0.453125 0.171875 -1.171875 0.171875zm1.0786743 -10.375008l1.203125 0l0 0.9375l3.453125 0l-0.0625 1.0l-4.59375 0l0 -1.9375zm1.140625 -1.9195709l-0.828125 0l0 -0.9375l1.765625 0l0 1.046875l2.0625 0l-0.0625 0.921875l-2.9375 0l0 -1.03125zm6.546875 12.294579q-0.859375 0 -1.34375 -0.1875l-2.015625 -4.921875l1.40625 0l1.640625 4.0q1.125 0.046875 1.65625 -0.65625q0.53125 -0.703125 0.53125 -2.203125q0 -0.875 -0.171875 -1.359375q-0.15625 -0.5 -0.53125 -0.703125q-0.359375 -0.21875 -1.046875 -0.21875l-0.5 0l0 -1.09375l0.6875 0q1.53125 0 2.234375 0.828125q0.71875 0.8125 0.71875 2.53125q0 2.03125 -0.890625 3.015625q-0.875 0.96875 -2.375 0.96875zm4.688904 -4.703125q0 -1.328125 0.796875 -2.046875q0.8125 -0.7187576 2.46875 -0.7187576q1.640625 0 2.4375 0.7187576q0.796875 0.71875 0.796875 2.046875l0 4.5625l-1.453125 0l0 -4.6875q0 -1.46875 -1.78125 -1.46875q-0.90625 0 -1.359375 0.359375q-0.453125 0.359375 -0.453125 1.109375l0 1.46875q0.578125 -0.46875 1.390625 -0.46875l0.875 0l0.046875 1.15625l-0.953125 0q-0.8125 0 -1.359375 0.453125l0 2.078125l-1.453125 0l0 -4.5625zm9.978027 4.703125q-1.234375 0 -2.15625 -0.40625l0 -1.140625q0.90625 0.375 1.8125 0.375q0.921875 0 1.4375 -0.25q0.53125 -0.25 0.765625 -0.8125q0.234375 -0.5625 0.234375 -1.5q0 -1.390625 -0.578125 -1.96875q-0.5625 -0.59375 -1.875 -0.59375q-0.921875 0 -1.796875 0.390625l0 -1.171875q0.9375 -0.39063263 2.109375 -0.39063263q1.78125 0 2.65625 0.9531326q0.890625 0.9375 0.890625 2.78125q0 1.828125 -0.859375 2.78125q-0.859375 0.953125 -2.640625 0.953125zm7.561554 -4.671875q0 -0.59375 -0.125 -0.921875q-0.125 -0.34375 -0.46875 -0.515625q-0.328125 -0.1875 -0.96875 -0.1875q-0.421875 0 -0.921875 0.09375q-0.5 0.09375 -0.90625 0.25l0 -1.125q0.421875 -0.171875 0.984375 -0.28125q0.578125 -0.10938263 1.125 -0.10938263q1.4375 0 2.078125 0.6250076q0.65625 0.625 0.65625 1.984375l0 4.71875l-1.453125 0l0 -4.53125zm7.0674744 4.671875q-0.796875 0 -1.40625 -0.234375q-0.59375 -0.234375 -1.125 -0.6875l-0.078125 0.78125l-1.3125 0l0 -7.203125l1.453125 0l0 5.3125q0.375 0.390625 0.890625 0.625q0.515625 0.234375 1.09375 0.234375q0.75 0 1.109375 -0.359375q0.375 -0.359375 0.375 -1.15625l0 -4.65625l1.4375 0l0 4.71875q0 1.25 -0.640625 1.9375q-0.640625 0.6875 -1.796875 0.6875zm5.5634766 -0.140625q-1.40625 0 -1.40625 -1.390625l0 -5.8125l1.453125 0l0 5.453125q0 0.3125 0.125 0.46875q0.140625 0.140625 0.453125 0.140625l0.609375 0l0 1.140625l-1.234375 0zm5.029236 0.140625q-0.71875 0 -1.390625 -0.09375q-0.65625 -0.09375 -1.0625 -0.28125l0 -1.203125q0.484375 0.203125 1.0625 0.3125q0.59375 0.09375 1.125 0.09375q0.96875 0 1.375 -0.171875q0.421875 -0.171875 0.421875 -0.6875q0 -0.328125 -0.171875 -0.515625q-0.15625 -0.1875 -0.4375 -0.3125q-0.265625 -0.125 -0.859375 -0.3125l-0.515625 -0.171875q-1.09375 -0.375 -1.640625 -0.8125q-0.53125 -0.453125 -0.53125 -1.265625q0 -0.96875 0.734375 -1.5q0.734375 -0.5468826 2.15625 -0.5468826q0.578125 0 1.171875 0.09375763q0.609375 0.09375 1.03125 0.21875l0 1.203125q-0.4375 -0.15625 -0.984375 -0.25q-0.53125 -0.09375 -1.015625 -0.09375q-0.828125 0 -1.265625 0.1875q-0.4375 0.171875 -0.4375 0.65625q0 0.28125 0.171875 0.46875q0.1875 0.171875 0.5 0.3125q0.3125 0.125 0.9375 0.328125l0.390625 0.125q1.15625 0.390625 1.65625 0.859375q0.5 0.453125 0.5 1.328125q0 1.03125 -0.78125 1.53125q-0.765625 0.5 -2.140625 0.5zm-1.2514038 -8.421883q-0.78125 0 -1.21875 -0.390625q-0.453125 -0.40625 -0.453125 -1.140625q0 -0.75 0.46875 -1.171875q0.46875 -0.4375 1.296875 -0.4375l3.28125 0l-0.0625 0.859375l-3.078125 0q-0.453125 0 -0.671875 0.1875q-0.21875 0.171875 -0.21875 0.5625q0 0.703125 0.75 0.703125q0.71875 0 0.71875 -0.546875l0 -0.28125l0.890625 0l0 0.28125q0 0.265625 0.15625 0.390625q0.140625 0.125 0.453125 0.125l0.84375 0l0 0.84375l-0.9375 0q-0.34375 0 -0.59375 -0.09375q-0.265625 -0.109375 -0.375 -0.328125q-0.140625 0.21875 -0.5 0.328125q-0.359375 0.109375 -0.75 0.109375zm7.390625 8.421883q-1.234375 0 -2.15625 -0.40625l0 -1.140625q0.90625 0.375 1.8125 0.375q0.921875 0 1.4375 -0.25q0.53125 -0.25 0.765625 -0.8125q0.234375 -0.5625 0.234375 -1.5q0 -1.390625 -0.578125 -1.96875q-0.5625 -0.59375 -1.875 -0.59375q-0.921875 0 -1.796875 0.390625l0 -1.171875q0.9375 -0.39063263 2.109375 -0.39063263q1.78125 0 2.65625 0.9531326q0.890625 0.9375 0.890625 2.78125q0 1.828125 -0.859375 2.78125q-0.859375 0.953125 -2.640625 0.953125zm4.952179 -2.734375q0 -1.34375 1.0625 -1.65625l-1.4375 -0.359375l0 -1.5q0.59375 -0.53125 1.484375 -0.875q0.890625 -0.34375763 1.96875 -0.34375763q1.640625 0 2.453125 0.6875076q0.828125 0.671875 0.828125 2.171875l0 4.46875l-1.453125 0l0 -4.5q0 -0.921875 -0.421875 -1.28125q-0.421875 -0.375 -1.46875 -0.375q-0.65625 0 -1.234375 0.1875q-0.578125 0.1875 -0.90625 0.484375l0 0.25l1.515625 0.390625l0 0.953125q-0.515625 0.125 -0.734375 0.421875q-0.203125 0.296875 -0.203125 0.890625l0 2.578125l-1.453125 0l0 -2.59375zm10.779449 -1.9375q0 -0.59375 -0.125 -0.921875q-0.125 -0.34375 -0.46875 -0.515625q-0.328125 -0.1875 -0.96875 -0.1875q-0.421875 0 -0.9218445 0.09375q-0.5 0.09375 -0.90625 0.25l0 -1.125q0.421875 -0.171875 0.984375 -0.28125q0.5780945 -0.10938263 1.1249695 -0.10938263q1.4375 0 2.078125 0.6250076q0.65625 0.625 0.65625 1.984375l0 4.71875l-1.453125 0l0 -4.53125zm5.505005 4.671875q-0.71875 0 -1.390625 -0.09375q-0.65625 -0.09375 -1.0625 -0.28125l0 -1.203125q0.484375 0.203125 1.0625 0.3125q0.59375 0.09375 1.125 0.09375q0.96875 0 1.375 -0.171875q0.421875 -0.171875 0.421875 -0.6875q0 -0.328125 -0.171875 -0.515625q-0.15625 -0.1875 -0.4375 -0.3125q-0.265625 -0.125 -0.859375 -0.3125l-0.515625 -0.171875q-1.09375 -0.375 -1.640625 -0.8125q-0.53125 -0.453125 -0.53125 -1.265625q0 -0.96875 0.734375 -1.5q0.734375 -0.5468826 2.15625 -0.5468826q0.578125 0 1.171875 0.09375763q0.609375 0.09375 1.03125 0.21875l0 1.203125q-0.4375 -0.15625 -0.984375 -0.25q-0.53125 -0.09375 -1.015625 -0.09375q-0.828125 0 -1.265625 0.1875q-0.4375 0.171875 -0.4375 0.65625q0 0.28125 0.171875 0.46875q0.1875 0.171875 0.5 0.3125q0.3125 0.125 0.9375 0.328125l0.390625 0.125q1.15625 0.390625 1.65625 0.859375q0.5 0.453125 0.5 1.328125q0 1.03125 -0.78125 1.53125q-0.765625 0.5 -2.140625 0.5zm6.717346 0q-0.71875 0 -1.390625 -0.09375q-0.65625 -0.09375 -1.0625 -0.28125l0 -1.203125q0.484375 0.203125 1.0625 0.3125q0.59375 0.09375 1.125 0.09375q0.96875 0 1.375 -0.171875q0.421875 -0.171875 0.421875 -0.6875q0 -0.328125 -0.171875 -0.515625q-0.15625 -0.1875 -0.4375 -0.3125q-0.265625 -0.125 -0.859375 -0.3125l-0.515625 -0.171875q-1.09375 -0.375 -1.640625 -0.8125q-0.53125 -0.453125 -0.53125 -1.265625q0 -0.96875 0.734375 -1.5q0.734375 -0.5468826 2.15625 -0.5468826q0.578125 0 1.171875 0.09375763q0.609375 0.09375 1.03125 0.21875l0 1.203125q-0.4375 -0.15625 -0.984375 -0.25q-0.53125 -0.09375 -1.015625 -0.09375q-0.828125 0 -1.265625 0.1875q-0.4375 0.171875 -0.4375 0.65625q0 0.28125 0.171875 0.46875q0.1875 0.171875 0.5 0.3125q0.3125 0.125 0.9375 0.328125l0.390625 0.125q1.15625 0.390625 1.65625 0.859375q0.5 0.453125 0.5 1.328125q0 1.03125 -0.78125 1.53125q-0.765625 0.5 -2.140625 0.5zm-0.5014038 -10.375008l1.203125 0l0 0.9375l3.453125 0l-0.0625 1.0l-4.59375 0l0 -1.9375zm8.140625 10.375008q-1.5625 0 -2.421875 -0.734375q-0.859375 -0.75 -0.859375 -2.203125l0 -4.40625l1.453125 0l0 4.453125q0 0.890625 0.453125 1.3125q0.46875 0.40625 1.375 0.40625q0.921875 0 1.390625 -0.40625q0.46875 -0.421875 0.46875 -1.3125l0 -4.453125l1.4375 0l0 4.40625q0 1.453125 -0.859375 2.203125q-0.84375 0.734375 -2.4375 0.734375z" fill-rule="nonzero"/><path fill="#ffffff" d="m458.35425 151.41685q-1.109375 0 -1.78125 -0.53125q-0.671875 -0.546875 -0.671875 -1.671875q0 -1.0625 0.71875 -1.640625q0.71875 -0.59375 2.078125 -0.59375l2.203125 0l0 -0.453125q0 -0.78125 -0.40625 -1.09375q-0.40625 -0.3125 -1.453125 -0.3125q-1.265625 0 -2.34375 0.34375l0 -1.125q0.546875 -0.171875 1.234375 -0.28125q0.6875 -0.109375 1.359375 -0.109375q0.640625 0 1.234375 0.125l2.421875 0l-0.078125 1.140625l-0.84375 0q0.171875 0.28125 0.234375 0.640625q0.078125 0.34375 0.078125 0.8125l0 4.609375l-1.4375 0l0 -3.171875l-2.125 0q-0.75 0 -1.125 0.25q-0.359375 0.25 -0.359375 0.859375q0 0.5625 0.328125 0.796875q0.34375 0.234375 1.125 0.234375q0.546875 0 0.90625 -0.109375l0 1.109375q-0.546875 0.171875 -1.296875 0.171875zm2.505005 -10.625l1.453125 0l0 2.1875l-1.453125 0l0 -2.1875zm6.221161 10.625q-0.859375 0 -1.34375 -0.1875l-2.015625 -4.921875l1.40625 0l1.640625 4.0q1.125 0.046875 1.65625 -0.65625q0.53125 -0.703125 0.53125 -2.203125q0 -0.875 -0.171875 -1.359375q-0.15625 -0.5 -0.53125 -0.703125q-0.359375 -0.21875 -1.046875 -0.21875l-0.5 0l0 -1.09375l0.6875 0q1.53125 0 2.234375 0.828125q0.71875 0.8125 0.71875 2.53125q0 2.03125 -0.890625 3.015625q-0.875 0.96875 -2.375 0.96875zm7.642029 0q-1.5 0 -2.296875 -0.703125q-0.796875 -0.703125 -0.796875 -2.0l0 -0.703125q0 -0.421875 0.1875 -0.78125q0.1875 -0.375 0.546875 -0.859375q0.234375 -0.3125 0.34375 -0.484375q0.109375 -0.1875 0.109375 -0.359375q0 -0.203125 -0.09375 -0.28125q-0.09375 -0.078125 -0.328125 -0.078125l-0.921875 0l0.125 -1.09375l1.671875 0q1.015625 0 1.015625 0.984375q0 0.40625 -0.15625 0.734375q-0.15625 0.3125 -0.453125 0.796875q-0.296875 0.421875 -0.453125 0.75q-0.15625 0.3125 -0.15625 0.6875l0 0.8125q0 0.71875 0.421875 1.0625q0.4375 0.34375 1.234375 0.34375q1.640625 0 1.640625 -1.453125l0 -4.71875l1.453125 0l0 4.625q0 1.28125 -0.828125 2.0q-0.8125 0.71875 -2.265625 0.71875zm0.040496826 -9.65625l-1.046875 0l0 -1.0l2.046875 0l0 1.21875l2.875 0l-0.046875 1.0l-3.828125 0l0 -1.21875zm7.4375 9.65625q-0.8125 0 -1.5625 -0.140625q-0.75 -0.15625 -1.296875 -0.40625l0 -3.703125l2.84375 0l0.0625 1.109375l-1.515625 0l0 1.75q0.609375 0.21875 1.46875 0.21875q0.796875 0 1.265625 -0.234375q0.46875 -0.25 0.671875 -0.796875q0.21875 -0.5625 0.21875 -1.515625q0 -1.0 -0.234375 -1.546875q-0.234375 -0.546875 -0.78125 -0.78125q-0.546875 -0.25 -1.515625 -0.25q-1.296875 0 -2.390625 0.34375l0 -1.125q0.5625 -0.1875 1.28125 -0.28125q0.734375 -0.109375 1.46875 -0.109375q1.859375 0 2.71875 0.9375q0.859375 0.9375 0.859375 2.8125q0 1.859375 -0.859375 2.796875q-0.859375 0.921875 -2.703125 0.921875zm8.89801 0q-0.796875 0 -1.40625 -0.234375q-0.59375 -0.234375 -1.125 -0.6875l-0.078125 0.78125l-1.3125 0l0 -7.203125l1.453125 0l0 5.3125q0.375 0.390625 0.890625 0.625q0.515625 0.234375 1.09375 0.234375q0.75 0 1.109375 -0.359375q0.375 -0.359375 0.375 -1.15625l0 -4.65625l1.4375 0l0 4.71875q0 1.25 -0.640625 1.9375q-0.640625 0.6875 -1.796875 0.6875zm0.8291321 3.34375q-0.71875 0 -1.140625 -0.328125q-0.421875 -0.3125 -0.421875 -0.8125l0 -0.671875l-0.734375 0l0.0625 -0.90625l1.703125 0l0 1.34375q0 0.203125 0.140625 0.3125q0.140625 0.125 0.390625 0.125q0.265625 0 0.40625 -0.125q0.140625 -0.109375 0.140625 -0.3125l0 -1.34375l1.0625 0l0 1.4375q0 0.546875 -0.421875 0.90625q-0.421875 0.375 -1.1875 0.375zm5.53125 -3.34375q-1.109375 0 -1.78125 -0.546875q-0.671875 -0.546875 -0.671875 -1.65625q0 -1.0625 0.71875 -1.640625q0.71875 -0.59375 2.078125 -0.59375l2.203125 0l0 -0.453125q0 -0.53125 -0.171875 -0.828125q-0.171875 -0.3125 -0.578125 -0.4375q-0.390625 -0.140625 -1.09375 -0.140625q-1.265625 0 -2.359375 0.34375l0 -1.125q0.546875 -0.171875 1.234375 -0.28125q0.6875 -0.109375 1.359375 -0.109375q1.578125 0 2.3125 0.65625q0.75 0.65625 0.75 2.0625l0 4.609375l-1.453125 0l0 -3.171875l-2.109375 0q-0.765625 0 -1.140625 0.25q-0.359375 0.25 -0.359375 0.859375q0 0.5625 0.328125 0.796875q0.34375 0.234375 1.125 0.234375q0.53125 0 0.921875 -0.109375l0 1.109375q-0.578125 0.171875 -1.3125 0.171875zm7.119995 -0.140625q-1.40625 0 -1.40625 -1.390625l0 -5.8125l1.453125 0l0 5.453125q0 0.3125 0.125 0.46875q0.140625 0.140625 0.453125 0.140625l0.609375 0l0 1.140625l-1.234375 0zm5.9510803 0.140625q-1.5625 0 -2.421875 -0.734375q-0.859375 -0.75 -0.859375 -2.203125l0 -4.40625l1.453125 0l0 4.453125q0 0.890625 0.453125 1.3125q0.46875 0.40625 1.375 0.40625q0.921875 0 1.390625 -0.40625q0.46875 -0.421875 0.46875 -1.3125l0 -6.578125l1.4375 0l0 6.53125q0 1.453125 -0.859375 2.203125q-0.84375 0.734375 -2.4375 0.734375zm-1.8137512 -8.390625q-0.78125 0 -1.21875 -0.390625q-0.453125 -0.40625 -0.453125 -1.140625q0 -0.75 0.46875 -1.171875q0.46875 -0.4375 1.328125 -0.4375l2.921875 0l-0.0625 0.84375l-2.734375 0q-0.46875 0 -0.6875 0.1875q-0.21875 0.171875 -0.21875 0.578125q0 0.703125 0.75 0.703125q0.6875 0 0.6875 -0.5625l0 -0.28125l0.890625 0l0 0.28125q0 0.28125 0.15625 0.40625q0.140625 0.125 0.46875 0.125l0.515625 0l0 0.828125l-0.609375 0q-0.359375 0 -0.609375 -0.09375q-0.265625 -0.109375 -0.375 -0.3125q-0.125 0.203125 -0.46875 0.328125q-0.359375 0.109375 -0.75 0.109375zm9.26236 8.390625q-1.171875 0 -1.8125 -0.6875q-0.640625 -0.6875 -0.640625 -1.9375l0 -4.71875l1.453125 0l0 4.65625q0 0.796875 0.34375 1.15625q0.359375 0.359375 1.125 0.359375q0.578125 0 1.109375 -0.234375q0.53125 -0.234375 0.890625 -0.625l0 -5.3125l1.4375 0l0 7.203125l-1.3125 0l-0.0625 -0.78125q-1.0625 0.921875 -2.53125 0.921875z" fill-rule="nonzero"/><path fill="#ffffff" d="m465.49332 167.41685q-1.15625 0 -2.03125 -0.296875l0 -1.25q0.8125 0.3125 1.9375 0.3125q1.171875 0 1.75 -0.546875q0.59375 -0.5625 0.59375 -1.546875l0 -0.53125q-0.453125 0.3125 -1.046875 0.5q-0.59375 0.1875 -1.125 0.1875q-1.46875 0 -2.203125 -0.71875q-0.734375 -0.734375 -0.734375 -2.09375q0 -1.328125 0.8125 -2.09375q0.8125 -0.78125 2.421875 -0.78125q1.625 0 2.4375 0.8125q0.8125 0.8125 0.8125 2.515625l0 1.921875q0 1.0625 -0.453125 1.890625q-0.4375 0.8125 -1.265625 1.265625q-0.8125 0.453125 -1.90625 0.453125zm0.296875 -4.28125q0.515625 0 1.015625 -0.171875q0.515625 -0.1875 0.9375 -0.484375l0 -0.9375q0 -1.875 -1.890625 -1.875q-0.9375 0 -1.4375 0.453125q-0.484375 0.453125 -0.484375 1.265625q0 0.859375 0.40625 1.3125q0.421875 0.4375 1.453125 0.4375zm7.7307434 4.28125q-1.625 0 -2.4375 -0.8125q-0.8125 -0.8125 -0.8125 -2.515625l0 -1.9375q0 -1.0625 0.4375 -1.875q0.453125 -0.8125 1.265625 -1.265625q0.828125 -0.453125 1.921875 -0.453125q1.1875 0 2.03125 0.3125l0 1.234375q-0.84375 -0.3125 -1.9375 -0.3125q-1.171875 0 -1.765625 0.5625q-0.578125 0.546875 -0.578125 1.53125l0 0.53125q0.453125 -0.328125 1.03125 -0.5q0.59375 -0.1875 1.140625 -0.1875q1.46875 0 2.203125 0.71875q0.734375 0.71875 0.734375 2.09375q0 1.328125 -0.8125 2.109375q-0.8125 0.765625 -2.421875 0.765625zm0.015625 -1.09375q0.9375 0 1.421875 -0.453125q0.484375 -0.453125 0.484375 -1.265625q0 -0.890625 -0.40625 -1.3125q-0.40625 -0.4375 -1.4375 -0.4375q-0.515625 0 -1.03125 0.171875q-0.515625 0.171875 -0.921875 0.484375l0 0.90625q0 1.90625 1.890625 1.90625zm8.136993 1.1875q-1.96875 0 -2.875 -1.125q-0.890625 -1.140625 -0.890625 -3.296875q0 -2.234375 0.875 -3.375q0.875 -1.15625 2.890625 -1.15625q2.0 0 2.875 1.15625q0.890625 1.140625 0.890625 3.375q0 2.15625 -0.90625 3.296875q-0.90625 1.125 -2.859375 1.125zm0 -1.234375q1.234375 0 1.765625 -0.8125q0.53125 -0.8125 0.53125 -2.375q0 -1.65625 -0.53125 -2.46875q-0.515625 -0.828125 -1.765625 -0.828125q-1.265625 0 -1.78125 0.828125q-0.515625 0.8125 -0.515625 2.46875q0 1.578125 0.53125 2.390625q0.53125 0.796875 1.765625 0.796875zm8.676575 1.234375q-1.96875 0 -2.875 -1.125q-0.890625 -1.140625 -0.890625 -3.296875q0 -2.234375 0.875 -3.375q0.875 -1.15625 2.890625 -1.15625q2.0 0 2.875 1.15625q0.890625 1.140625 0.890625 3.375q0 2.15625 -0.90625 3.296875q-0.90625 1.125 -2.859375 1.125zm0 -1.234375q1.234375 0 1.765625 -0.8125q0.53125 -0.8125 0.53125 -2.375q0 -1.65625 -0.53125 -2.46875q-0.515625 -0.828125 -1.765625 -0.828125q-1.265625 0 -1.78125 0.828125q-0.515625 0.8125 -0.515625 2.46875q0 1.578125 0.53125 2.390625q0.53125 0.796875 1.765625 0.796875zm13.576721 1.140625q-0.6875 0 -1.203125 -0.1875q-0.5 -0.1875 -0.9375 -0.578125l-0.078125 0.625l-1.25 0l0 -8.984375l1.453125 0l0 3.078125q0.8125 -0.546875 1.984375 -0.546875q1.390625 0 2.140625 0.796875q0.765625 0.796875 0.765625 2.4375q0 1.6875 -0.765625 2.53125q-0.75 0.828125 -2.109375 0.828125zm-0.390625 -1.09375q0.953125 0 1.375 -0.546875q0.421875 -0.546875 0.421875 -1.71875q0 -1.15625 -0.4375 -1.640625q-0.4375 -0.484375 -1.390625 -0.484375q-0.984375 0 -1.59375 0.546875l0 3.171875q0.625 0.671875 1.625 0.671875zm5.1736145 -7.890625l1.59375 0l0 1.203125l-1.59375 0l0 -1.203125zm0.125 3.625l-0.953125 0l0.125 -1.09375l2.28125 0l0 6.3125l-1.453125 0l0 -5.21875zm5.5581665 5.359375q-1.0 0 -1.515625 -0.53125q-0.5 -0.53125 -0.5 -1.484375l0 -3.3125l-0.921875 0l0 -1.125l0.921875 0l0 -1.453125l1.4375 -0.4375l0 1.890625l1.6875 0l-0.09375 1.125l-1.59375 0l0 3.234375q0 0.546875 0.25 0.765625q0.25 0.21875 0.84375 0.21875q0.359375 0 0.75 -0.140625l0 1.03125q-0.515625 0.21875 -1.265625 0.21875z" fill-rule="nonzero"/><path fill="#4a86e8" d="m426.12073 199.35695l125.79529 0l0 40.535446l-125.79529 0z" fill-rule="evenodd"/><path fill="#ffffff" d="m446.52844 224.56529q-1.5625 0 -2.421875 -0.734375q-0.859375 -0.75 -0.859375 -2.203125l0 -4.40625l1.453125 0l0 4.453125q0 0.890625 0.453125 1.3125q0.46875 0.40625 1.375 0.40625q0.921875 0 1.390625 -0.40625q0.46875 -0.421875 0.46875 -1.3125l0 -6.578125l1.4375 0l0 6.53125q0 1.453125 -0.859375 2.203125q-0.84375 0.734375 -2.4375 0.734375zm7.3548584 0q-0.71875 0 -1.390625 -0.09375q-0.65625 -0.09375 -1.0625 -0.28125l0 -1.203125q0.484375 0.203125 1.0625 0.3125q0.59375 0.09375 1.125 0.09375q0.96875 0 1.375 -0.171875q0.421875 -0.171875 0.421875 -0.6875q0 -0.328125 -0.171875 -0.515625q-0.15625 -0.1875 -0.4375 -0.3125q-0.265625 -0.125 -0.859375 -0.3125l-0.515625 -0.171875q-1.09375 -0.375 -1.640625 -0.8125q-0.53125 -0.453125 -0.53125 -1.265625q0 -0.96875 0.734375 -1.5q0.734375 -0.546875 2.15625 -0.546875q0.578125 0 1.171875 0.09375q0.609375 0.09375 1.03125 0.21875l0 1.203125q-0.4375 -0.15625 -0.984375 -0.25q-0.53125 -0.09375 -1.015625 -0.09375q-0.828125 0 -1.265625 0.1875q-0.4375 0.171875 -0.4375 0.65625q0 0.28125 0.171875 0.46875q0.1875 0.171875 0.5 0.3125q0.3125 0.125 0.9375 0.328125l0.390625 0.125q1.15625 0.390625 1.65625 0.859375q0.5 0.453125 0.5 1.328125q0 1.03125 -0.78125 1.53125q-0.765625 0.5 -2.140625 0.5zm4.092346 -6.28125l1.234375 0l0 0.65625l1.953125 0l-0.046875 1.078125l-3.140625 0l0 -1.734375zm0 3.625l1.234375 0l0 0.65625l1.953125 0l-0.046875 1.078125l-3.140625 0l0 -1.734375zm4.6932983 -0.078125q0 -1.34375 1.0625 -1.65625l-1.4375 -0.359375l0 -1.5q0.59375 -0.53125 1.484375 -0.875q0.890625 -0.34375 1.96875 -0.34375q1.640625 0 2.453125 0.6875q0.828125 0.671875 0.828125 2.171875l0 4.46875l-1.453125 0l0 -4.5q0 -0.921875 -0.421875 -1.28125q-0.421875 -0.375 -1.46875 -0.375q-0.65625 0 -1.234375 0.1875q-0.578125 0.1875 -0.90625 0.484375l0 0.25l1.515625 0.390625l0 0.953125q-0.515625 0.125 -0.734375 0.421875q-0.203125 0.296875 -0.203125 0.890625l0 2.578125l-1.453125 0l0 -2.59375zm10.77948 -1.9375q0 -0.59375 -0.125 -0.921875q-0.125 -0.34375 -0.46875 -0.515625q-0.328125 -0.1875 -0.96875 -0.1875q-0.421875 0 -0.921875 0.09375q-0.5 0.09375 -0.90625 0.25l0 -1.125q0.421875 -0.171875 0.984375 -0.28125q0.578125 -0.109375 1.125 -0.109375q1.4375 0 2.078125 0.625q0.65625 0.625 0.65625 1.984375l0 4.71875l-1.453125 0l0 -4.53125zm3.1455994 -0.03125q0 -1.328125 0.796875 -2.046875q0.8125 -0.71875 2.46875 -0.71875q0.65625 0 1.25 0.125l2.65625 0l-0.078125 1.140625l-1.0 0q0.234375 0.3125 0.3125 0.671875q0.09375 0.359375 0.09375 0.828125l0 4.5625l-1.453125 0l0 -4.6875q0 -1.46875 -1.78125 -1.46875q-0.90625 0 -1.359375 0.359375q-0.453125 0.359375 -0.453125 1.109375l0 1.46875q0.578125 -0.46875 1.390625 -0.46875l0.875 0l0.046875 1.15625l-0.953125 0q-0.8125 0 -1.359375 0.453125l0 2.078125l-1.453125 0l0 -4.5625zm11.148529 4.703125q-1.34375 0 -2.140625 -0.90625q-0.796875 -0.90625 -0.796875 -2.71875q0 -1.859375 0.609375 -2.84375q0.625 -1.0 1.765625 -1.0q0.515625 0 0.84375 0.171875q0.328125 0.171875 0.59375 0.515625q0.28125 -0.296875 0.734375 -0.484375q0.453125 -0.203125 0.90625 -0.203125q0.84375 0 1.28125 0.515625q0.4375 0.5 0.4375 1.421875l0 5.390625l-1.453125 0l0 -5.1875q0 -0.53125 -0.140625 -0.75q-0.140625 -0.21875 -0.5625 -0.21875q-0.28125 0 -0.5 0.15625q-0.21875 0.15625 -0.328125 0.453125l-0.796875 0q-0.171875 -0.328125 -0.34375 -0.46875q-0.171875 -0.140625 -0.484375 -0.140625q-0.640625 0 -0.90625 0.6875q-0.265625 0.671875 -0.265625 1.984375q0 1.3125 0.4375 1.890625q0.453125 0.5625 1.359375 0.5625q0.625 0 0.921875 -0.109375l0 1.109375q-0.453125 0.171875 -1.171875 0.171875zm1.0786743 -10.375l1.203125 0l0 0.9375l3.453125 0l-0.0625 1.0l-4.59375 0l0 -1.9375zm6.640625 10.375q-1.234375 0 -2.15625 -0.40625l0 -1.140625q0.90625 0.375 1.8125 0.375q0.921875 0 1.4375 -0.25q0.53125 -0.25 0.765625 -0.8125q0.234375 -0.5625 0.234375 -1.5q0 -1.390625 -0.578125 -1.96875q-0.5625 -0.59375 -1.875 -0.59375q-0.921875 0 -1.796875 0.390625l0 -1.171875q0.9375 -0.390625 2.109375 -0.390625q1.78125 0 2.65625 0.953125q0.890625 0.9375 0.890625 2.78125q0 1.828125 -0.859375 2.78125q-0.859375 0.953125 -2.640625 0.953125zm6.233429 -0.140625q-1.390625 0 -1.390625 -1.390625l0 -5.8125l1.453125 0l0 5.453125q0 0.3125 0.140625 0.46875q0.140625 0.140625 0.4375 0.140625l0.53125 0l0 1.140625l-1.171875 0zm3.25 0q-1.40625 0 -1.40625 -1.390625l0 -5.8125l1.4375 0l0 5.453125q0 0.3125 0.140625 0.46875q0.140625 0.140625 0.453125 0.140625l0.546875 0l0 1.140625l-1.171875 0zm5.864441 0.140625q-1.5625 0 -2.421875 -0.734375q-0.859375 -0.75 -0.859375 -2.203125l0 -4.40625l1.453125 0l0 4.453125q0 0.890625 0.453125 1.3125q0.46875 0.40625 1.375 0.40625q0.921875 0 1.3906555 -0.40625q0.46875 -0.421875 0.46875 -1.3125l0 -6.578125l1.4375 0l0 6.53125q0 1.453125 -0.859375 2.203125q-0.84375 0.734375 -2.4375305 0.734375zm7.354889 0q-0.71875 0 -1.390625 -0.09375q-0.65625 -0.09375 -1.0625 -0.28125l0 -1.203125q0.484375 0.203125 1.0625 0.3125q0.59375 0.09375 1.125 0.09375q0.96875 0 1.375 -0.171875q0.421875 -0.171875 0.421875 -0.6875q0 -0.328125 -0.171875 -0.515625q-0.15625 -0.1875 -0.4375 -0.3125q-0.265625 -0.125 -0.859375 -0.3125l-0.515625 -0.171875q-1.09375 -0.375 -1.640625 -0.8125q-0.53125 -0.453125 -0.53125 -1.265625q0 -0.96875 0.734375 -1.5q0.734375 -0.546875 2.15625 -0.546875q0.578125 0 1.171875 0.09375q0.609375 0.09375 1.03125 0.21875l0 1.203125q-0.4375 -0.15625 -0.984375 -0.25q-0.53125 -0.09375 -1.015625 -0.09375q-0.828125 0 -1.265625 0.1875q-0.4375 0.171875 -0.4375 0.65625q0 0.28125 0.171875 0.46875q0.1875 0.171875 0.5 0.3125q0.3125 0.125 0.9375 0.328125l0.390625 0.125q1.15625 0.390625 1.65625 0.859375q0.5 0.453125 0.5 1.328125q0 1.03125 -0.78125 1.53125q-0.765625 0.5 -2.140625 0.5zm12.086182 -4.421875l-3.0 -4.296875l1.671875 0l2.1875 3.1875l2.1875 -3.1875l1.703125 0l-3.015625 4.296875l3.0625 4.28125l-1.703125 0l-2.234375 -3.140625l-2.21875 3.140625l-1.703125 0l3.0625 -4.28125z" fill-rule="nonzero"/><path fill="#000000" fill-opacity="0.0" d="m489.01904 172.80638l0 26.551193" fill-rule="evenodd"/><path stroke="#000000" stroke-width="1.0" stroke-linejoin="round" stroke-linecap="butt" d="m489.01904 172.8064l0 20.551178" fill-rule="evenodd"/><path fill="#000000" stroke="#000000" stroke-width="1.0" stroke-linecap="butt" d="m487.3673 193.35757l1.6517334 4.538101l1.6517334 -4.538101z" fill-rule="evenodd"/><path fill="#000000" fill-opacity="0.0" d="m489.01904 236.80638l0 26.551193" fill-rule="evenodd"/><path stroke="#000000" stroke-width="1.0" stroke-linejoin="round" stroke-linecap="butt" d="m489.01904 236.8064l0 20.551178" fill-rule="evenodd"/><path fill="#000000" stroke="#000000" stroke-width="1.0" stroke-linecap="butt" d="m487.3673 257.35757l1.6517334 4.538086l1.6517334 -4.538086z" fill-rule="evenodd"/><path fill="#4a86e8" d="m426.12204 263.35696l125.79526 0l0 40.53543l-125.79526 0z" fill-rule="evenodd"/><path fill="#ffffff" d="m453.507 280.5653q-1.5625 0 -2.421875 -0.734375q-0.859375 -0.75 -0.859375 -2.203125l0 -4.40625l1.453125 0l0 4.453125q0 0.890625 0.453125 1.3125q0.46875 0.40625 1.375 0.40625q0.921875 0 1.390625 -0.40625q0.46875 -0.421875 0.46875 -1.3125l0 -6.578125l1.4375 0l0 6.53125q0 1.453125 -0.859375 2.203125q-0.84375 0.734375 -2.4375 0.734375zm7.3548584 0q-0.71875 0 -1.390625 -0.09375q-0.65625 -0.09375 -1.0625 -0.28125l0 -1.203125q0.484375 0.203125 1.0625 0.3125q0.59375 0.09375 1.125 0.09375q0.96875 0 1.375 -0.171875q0.421875 -0.171875 0.421875 -0.6875q0 -0.328125 -0.171875 -0.515625q-0.15625 -0.1875 -0.4375 -0.3125q-0.265625 -0.125 -0.859375 -0.3125l-0.515625 -0.171875q-1.09375 -0.375 -1.640625 -0.8125q-0.53125 -0.453125 -0.53125 -1.265625q0 -0.96875 0.734375 -1.5q0.734375 -0.546875 2.15625 -0.546875q0.578125 0 1.171875 0.09375q0.609375 0.09375 1.03125 0.21875l0 1.203125q-0.4375 -0.15625 -0.984375 -0.25q-0.53125 -0.09375 -1.015625 -0.09375q-0.828125 0 -1.265625 0.1875q-0.4375 0.171875 -0.4375 0.65625q0 0.28125 0.171875 0.46875q0.1875 0.171875 0.5 0.3125q0.3125 0.125 0.9375 0.328125l0.390625 0.125q1.15625 0.390625 1.65625 0.859375q0.5 0.453125 0.5 1.328125q0 1.03125 -0.78125 1.53125q-0.765625 0.5 -2.140625 0.5zm4.092346 -6.28125l1.234375 0l0 0.65625l1.953125 0l-0.046875 1.078125l-3.140625 0l0 -1.734375zm0 3.625l1.234375 0l0 0.65625l1.953125 0l-0.046875 1.078125l-3.140625 0l0 -1.734375zm4.6932983 -0.078125q0 -1.34375 1.0625 -1.65625l-1.4375 -0.359375l0 -1.5q0.59375 -0.53125 1.484375 -0.875q0.890625 -0.34375 1.96875 -0.34375q1.640625 0 2.453125 0.6875q0.828125 0.671875 0.828125 2.171875l0 4.46875l-1.453125 0l0 -4.5q0 -0.921875 -0.421875 -1.28125q-0.421875 -0.375 -1.46875 -0.375q-0.65625 0 -1.234375 0.1875q-0.578125 0.1875 -0.90625 0.484375l0 0.25l1.515625 0.390625l0 0.953125q-0.515625 0.125 -0.734375 0.421875q-0.203125 0.296875 -0.203125 0.890625l0 2.578125l-1.453125 0l0 -2.59375zm10.77948 -1.9375q0 -0.59375 -0.125 -0.921875q-0.125 -0.34375 -0.46875 -0.515625q-0.328125 -0.1875 -0.96875 -0.1875q-0.421875 0 -0.921875 0.09375q-0.5 0.09375 -0.90625 0.25l0 -1.125q0.421875 -0.171875 0.984375 -0.28125q0.578125 -0.109375 1.125 -0.109375q1.4375 0 2.078125 0.625q0.65625 0.625 0.65625 1.984375l0 4.71875l-1.453125 0l0 -4.53125zm3.1455994 -0.03125q0 -1.328125 0.796875 -2.046875q0.8125 -0.71875 2.46875 -0.71875q0.65625 0 1.25 0.125l2.65625 0l-0.078125 1.140625l-1.0 0q0.234375 0.3125 0.3125 0.671875q0.09375 0.359375 0.09375 0.828125l0 4.5625l-1.453125 0l0 -4.6875q0 -1.46875 -1.78125 -1.46875q-0.90625 0 -1.359375 0.359375q-0.453125 0.359375 -0.453125 1.109375l0 1.46875q0.578125 -0.46875 1.390625 -0.46875l0.875 0l0.046875 1.15625l-0.953125 0q-0.8125 0 -1.359375 0.453125l0 2.078125l-1.453125 0l0 -4.5625zm11.148529 4.703125q-1.34375 0 -2.140625 -0.90625q-0.796875 -0.90625 -0.796875 -2.71875q0 -1.859375 0.609375 -2.84375q0.625 -1.0 1.765625 -1.0q0.515625 0 0.84375 0.171875q0.328125 0.171875 0.59375 0.515625q0.28125 -0.296875 0.734375 -0.484375q0.453125 -0.203125 0.90625 -0.203125q0.84375 0 1.28125 0.515625q0.4375 0.5 0.4375 1.421875l0 5.390625l-1.453125 0l0 -5.1875q0 -0.53125 -0.140625 -0.75q-0.140625 -0.21875 -0.5625 -0.21875q-0.28125 0 -0.5 0.15625q-0.21875 0.15625 -0.328125 0.453125l-0.796875 0q-0.171875 -0.328125 -0.34375 -0.46875q-0.171875 -0.140625 -0.484375 -0.140625q-0.640625 0 -0.90625 0.6875q-0.265625 0.671875 -0.265625 1.984375q0 1.3125 0.4375 1.890625q0.453125 0.5625 1.359375 0.5625q0.625 0 0.921875 -0.109375l0 1.109375q-0.453125 0.171875 -1.171875 0.171875zm1.0786743 -10.375l1.203125 0l0 0.9375l3.453125 0l-0.0625 1.0l-4.59375 0l0 -1.9375zm6.640625 10.375q-1.234375 0 -2.15625 -0.40625l0 -1.140625q0.90625 0.375 1.8125 0.375q0.921875 0 1.4375 -0.25q0.53125 -0.25 0.765625 -0.8125q0.234375 -0.5625 0.234375 -1.5q0 -1.390625 -0.578125 -1.96875q-0.5625 -0.59375 -1.875 -0.59375q-0.921875 0 -1.796875 0.390625l0 -1.171875q0.9375 -0.390625 2.109375 -0.390625q1.78125 0 2.65625 0.953125q0.890625 0.9375 0.890625 2.78125q0 1.828125 -0.859375 2.78125q-0.859375 0.953125 -2.640625 0.953125zm6.233429 -0.140625q-1.390625 0 -1.390625 -1.390625l0 -5.8125l1.453125 0l0 5.453125q0 0.3125 0.140625 0.46875q0.140625 0.140625 0.4375 0.140625l0.53125 0l0 1.140625l-1.171875 0zm3.25 0q-1.40625 0 -1.40625 -1.390625l0 -5.8125l1.4375 0l0 5.453125q0 0.3125 0.140625 0.46875q0.140625 0.140625 0.453125 0.140625l0.546875 0l0 1.140625l-1.171875 0zm5.864441 0.140625q-1.5625 0 -2.421875 -0.734375q-0.859375 -0.75 -0.859375 -2.203125l0 -4.40625l1.453125 0l0 4.453125q0 0.890625 0.453125 1.3125q0.46875 0.40625 1.375 0.40625q0.921875 0 1.390625 -0.40625q0.46875 -0.421875 0.46875 -1.3125l0 -6.578125l1.4375 0l0 6.53125q0 1.453125 -0.859375 2.203125q-0.84375 0.734375 -2.4375 0.734375zm7.3548584 0q-0.71875 0 -1.390625 -0.09375q-0.65625 -0.09375 -1.0625 -0.28125l0 -1.203125q0.484375 0.203125 1.0625 0.3125q0.59375 0.09375 1.125 0.09375q0.96875 0 1.375 -0.171875q0.421875 -0.171875 0.421875 -0.6875q0 -0.328125 -0.171875 -0.515625q-0.15625 -0.1875 -0.4375 -0.3125q-0.265625 -0.125 -0.859375 -0.3125l-0.515625 -0.171875q-1.09375 -0.375 -1.640625 -0.8125q-0.53125 -0.453125 -0.53125 -1.265625q0 -0.96875 0.734375 -1.5q0.734375 -0.546875 2.15625 -0.546875q0.578125 0 1.171875 0.09375q0.609375 0.09375 1.03125 0.21875l0 1.203125q-0.4375 -0.15625 -0.984375 -0.25q-0.53125 -0.09375 -1.015625 -0.09375q-0.828125 0 -1.265625 0.1875q-0.4375 0.171875 -0.4375 0.65625q0 0.28125 0.171875 0.46875q0.1875 0.171875 0.5 0.3125q0.3125 0.125 0.9375 0.328125l0.390625 0.125q1.15625 0.390625 1.65625 0.859375q0.5 0.453125 0.5 1.328125q0 1.03125 -0.78125 1.53125q-0.765625 0.5 -2.140625 0.5z" fill-rule="nonzero"/><path fill="#ffffff" d="m445.25595 296.5653q-1.671875 0 -2.671875 -0.4375l0 -1.28125q1.234375 0.484375 2.546875 0.484375q1.078125 0 1.5625 -0.25q0.484375 -0.25 0.484375 -0.953125q0 -0.4375 -0.21875 -0.6875q-0.203125 -0.265625 -0.671875 -0.453125q-0.453125 -0.1875 -1.390625 -0.421875q-1.390625 -0.359375 -1.953125 -0.90625q-0.546875 -0.5625 -0.546875 -1.53125q0 -1.15625 0.828125 -1.78125q0.84375 -0.640625 2.453125 -0.640625q0.71875 0 1.375 0.109375q0.65625 0.09375 1.0625 0.234375l0 1.28125q-1.0 -0.390625 -2.234375 -0.390625q-1.015625 0 -1.515625 0.28125q-0.5 0.265625 -0.5 0.90625q0 0.375 0.171875 0.609375q0.1875 0.234375 0.625 0.421875q0.4375 0.171875 1.296875 0.390625q1.515625 0.390625 2.09375 1.0q0.59375 0.609375 0.59375 1.578125q0 1.15625 -0.859375 1.796875q-0.859375 0.640625 -2.53125 0.640625zm6.74292 0q-1.0 0 -1.515625 -0.53125q-0.5 -0.53125 -0.5 -1.484375l0 -3.3125l-0.921875 0l0 -1.125l0.921875 0l0 -1.453125l1.4375 -0.4375l0 1.890625l1.6875 0l-0.09375 1.125l-1.59375 0l0 3.234375q0 0.546875 0.25 0.765625q0.25 0.21875 0.84375 0.21875q0.359375 0 0.75 -0.140625l0 1.03125q-0.515625 0.21875 -1.265625 0.21875zm4.3797607 0q-1.140625 0 -1.75 -0.640625q-0.609375 -0.640625 -0.609375 -1.828125l0 -3.984375l1.453125 0l0 3.984375q0 0.703125 0.34375 1.046875q0.359375 0.328125 1.078125 0.328125q0.515625 0 0.96875 -0.1875q0.453125 -0.203125 0.796875 -0.546875l0 -4.625l1.4375 0l0 6.3125l-1.3125 0l-0.0625 -0.65625q-1.0 0.796875 -2.34375 0.796875zm8.031738 0q-1.375 0 -2.125 -0.71875q-0.75 -0.734375 -0.75 -2.375q0 -1.109375 0.375 -1.890625q0.390625 -0.796875 1.0625 -1.203125q0.6875 -0.40625 1.5625 -0.40625q0.5625 0 1.015625 0.140625q0.453125 0.125 0.875 0.40625l0 -3.078125l1.453125 0l0 8.984375l-1.25 0l-0.09375 -0.625q-0.4375 0.390625 -0.953125 0.578125q-0.5 0.1875 -1.171875 0.1875zm0.390625 -1.09375q0.96875 0 1.625 -0.671875l0 -3.15625q-0.625 -0.5625 -1.578125 -0.5625q-0.921875 0 -1.390625 0.609375q-0.453125 0.609375 -0.453125 1.78125q0 1.109375 0.40625 1.5625q0.421875 0.4375 1.390625 0.4375zm7.944458 1.09375q-1.671875 0 -2.5625 -0.828125q-0.890625 -0.828125 -0.890625 -2.484375q0 -1.5625 0.78125 -2.421875q0.78125 -0.859375 2.328125 -0.859375q1.40625 0 2.140625 0.734375q0.75 0.734375 0.75 1.953125l0 1.1875l-4.625 0q0.109375 0.90625 0.65625 1.265625q0.546875 0.34375 1.71875 0.34375q0.484375 0 0.984375 -0.09375q0.5 -0.09375 0.890625 -0.25l0 1.078125q-0.84375 0.375 -2.171875 0.375zm1.265625 -3.671875l0 -0.4375q0 -0.6875 -0.375 -1.03125q-0.359375 -0.359375 -1.1875 -0.359375q-0.984375 0 -1.390625 0.4375q-0.390625 0.421875 -0.390625 1.390625l3.34375 0zm2.7040405 -2.78125l1.328125 0l0.0625 0.65625q0.453125 -0.359375 1.046875 -0.578125q0.609375 -0.21875 1.296875 -0.21875q1.21875 0 1.78125 0.578125q0.5625 0.578125 0.5625 1.78125l0 4.09375l-1.4375 0l0 -4.03125q0 -0.734375 -0.3125 -1.015625q-0.3125 -0.296875 -1.125 -0.296875q-0.484375 0 -0.96875 0.203125q-0.46875 0.203125 -0.78125 0.515625l0 4.625l-1.453125 0l0 -6.3125zm10.109894 6.453125q-1.0 0 -1.515625 -0.53125q-0.5 -0.53125 -0.5 -1.484375l0 -3.3125l-0.921875 0l0 -1.125l0.921875 0l0 -1.453125l1.4375 -0.4375l0 1.890625l1.6875 0l-0.09375 1.125l-1.59375 0l0 3.234375q0 0.546875 0.25 0.765625q0.25 0.21875 0.84375 0.21875q0.359375 0 0.75 -0.140625l0 1.03125q-0.515625 0.21875 -1.265625 0.21875zm2.4318237 -8.71875l1.28125 0l4.46875 6.3125l0 -6.3125l1.4375 0l0 8.578125l-1.28125 0l-4.453125 -6.296875l0 6.296875l-1.453125 0l0 -8.578125zm11.171082 8.71875q-1.140625 0 -1.75 -0.640625q-0.609375 -0.640625 -0.609375 -1.828125l0 -3.984375l1.453125 0l0 3.984375q0 0.703125 0.34375 1.046875q0.359375 0.328125 1.078125 0.328125q0.515625 0 0.96875 -0.1875q0.453125 -0.203125 0.796875 -0.546875l0 -4.625l1.4375 0l0 6.3125l-1.3125 0l-0.0625 -0.65625q-1.0 0.796875 -2.34375 0.796875zm5.422394 -6.453125l1.328125 0l0.0625 0.65625q1.015625 -0.796875 2.234375 -0.796875q0.65625 0 1.03125 0.21875q0.390625 0.203125 0.609375 0.609375q0.46875 -0.390625 1.0468445 -0.609375q0.59375 -0.21875 1.328125 -0.21875q1.09375 0 1.609375 0.5625q0.53125 0.5625 0.53125 1.71875l0 4.171875l-1.421875 0l0 -4.03125q0 -0.71875 -0.3125 -1.015625q-0.3125 -0.296875 -1.0 -0.296875q-0.453125 0 -0.875 0.15625q-0.40621948 0.15625 -0.6874695 0.484375q0.0625 0.25 0.0625 0.65625l0 4.046875l-1.34375 0l0 -4.015625q0 -0.71875 -0.25 -1.015625q-0.234375 -0.3125 -0.890625 -0.3125q-0.84375 0 -1.640625 0.75l0 4.59375l-1.421875 0l0 -6.3125zm14.877594 6.453125q-0.6875 0 -1.203125 -0.1875q-0.5 -0.1875 -0.9375 -0.578125l-0.078125 0.625l-1.25 0l0 -8.984375l1.453125 0l0 3.078125q0.8125 -0.546875 1.984375 -0.546875q1.390625 0 2.140625 0.796875q0.765625 0.796875 0.765625 2.4375q0 1.6875 -0.765625 2.53125q-0.75 0.828125 -2.109375 0.828125zm-0.390625 -1.09375q0.953125 0 1.375 -0.546875q0.421875 -0.546875 0.421875 -1.71875q0 -1.15625 -0.4375 -1.640625q-0.4375 -0.484375 -1.390625 -0.484375q-0.984375 0 -1.59375 0.546875l0 3.171875q0.625 0.671875 1.625 0.671875zm7.866272 1.09375q-1.671875 0 -2.5625 -0.828125q-0.890625 -0.828125 -0.890625 -2.484375q0 -1.5625 0.78125 -2.421875q0.78125 -0.859375 2.328125 -0.859375q1.40625 0 2.140625 0.734375q0.75 0.734375 0.75 1.953125l0 1.1875l-4.625 0q0.109375 0.90625 0.65625 1.265625q0.546875 0.34375 1.71875 0.34375q0.484375 0 0.984375 -0.09375q0.5 -0.09375 0.890625 -0.25l0 1.078125q-0.84375 0.375 -2.171875 0.375zm1.265625 -3.671875l0 -0.4375q0 -0.6875 -0.375 -1.03125q-0.359375 -0.359375 -1.1875 -0.359375q-0.984375 0 -1.390625 0.4375q-0.390625 0.421875 -0.390625 1.390625l3.34375 0zm2.7041016 -2.78125l1.328125 0l0.078125 0.734375q0.453125 -0.296875 1.078125 -0.53125q0.625 -0.25 1.25 -0.34375l0 1.109375q-0.578125 0.109375 -1.25 0.328125q-0.65625 0.21875 -1.03125 0.453125l0 4.5625l-1.453125 0l0 -6.3125z" fill-rule="nonzero"/><path fill="#f4b400" d="m365.3176 356.84778l49.480316 -29.490814l148.44092 0l49.480347 29.490814l-49.480347 29.490814l-148.44092 0z" fill-rule="evenodd"/><path fill="#ffffff" d="m433.81726 356.44714l-0.734375 0l0 -0.90625l0.734375 0l0 -0.625q0 -0.765625 0.421875 -1.21875q0.4375 -0.46875 1.25 -0.46875q0.546875 0 1.03125 0.1875l0 0.828125q-0.328125 -0.109375 -0.671875 -0.109375q-0.5 0 -0.703125 0.171875q-0.1875 0.171875 -0.1875 0.625l0 0.609375l1.328125 0l-0.046875 0.90625l-1.28125 0l0 4.140625l-1.140625 0l0 -4.140625zm5.4657593 4.25q-2.640625 0 -2.640625 -2.640625q0 -2.625 2.640625 -2.625q2.640625 0 2.640625 2.625q0 2.640625 -2.640625 2.640625zm0 -0.984375q0.796875 0 1.125 -0.375q0.34375 -0.390625 0.34375 -1.28125q0 -0.875 -0.34375 -1.25q-0.328125 -0.390625 -1.125 -0.390625q-0.796875 0 -1.140625 0.390625q-0.328125 0.375 -0.328125 1.25q0 0.890625 0.328125 1.28125q0.34375 0.375 1.140625 0.375zm3.7694702 -4.171875l1.0625 0l0.0625 0.578125q0.359375 -0.234375 0.859375 -0.421875q0.515625 -0.1875 1.0 -0.265625l0 0.890625q-0.453125 0.078125 -1.0 0.25q-0.53125 0.171875 -0.828125 0.375l0 3.640625l-1.15625 0l0 -5.046875zm9.07251 5.8125q-0.734375 -0.640625 -1.09375 -1.71875q-0.34375 -1.078125 -0.34375 -2.28125q0 -1.203125 0.34375 -2.265625q0.359375 -1.0625 1.09375 -1.71875l1.3125 0q-1.578125 1.359375 -1.578125 3.984375q0 2.640625 1.578125 4.0l-1.3125 0zm3.9633179 -3.328125l-1.859375 -2.484375l1.25 0l1.234375 1.671875l1.234375 -1.671875l1.25 0l-1.84375 2.484375l1.921875 2.5625l-1.265625 0l-1.296875 -1.765625l-1.296875 1.765625l-1.265625 0l1.9375 -2.5625zm4.104645 -1.546875l4.125 0l0 0.828125l-4.125 0l0 -0.828125zm0 1.640625l4.125 0l0 0.828125l-4.125 0l0 -0.828125zm6.1498413 -3.375l-1.109375 0.203125l0 -0.984375l2.265625 -0.34375l0 6.96875l-1.15625 0l0 -5.84375zm6.592224 1.453125l0.96875 0l0 0.921875l-0.96875 0l0 -0.921875zm-0.03125 3.5625l1.015625 0l-0.5 2.015625l-0.84375 0l0.328125 -2.015625zm7.8114014 -1.734375l-1.859375 -2.484375l1.25 0l1.234375 1.671875l1.234375 -1.671875l1.25 0l-1.84375 2.484375l1.921875 2.5625l-1.265625 0l-1.296875 -1.765625l-1.296875 1.765625l-1.265625 0l1.9375 -2.5625zm4.104645 -0.15625l0 -0.953125l4.890625 -2.203125l0 1.0625l-3.65625 1.609375l3.65625 1.625l0 1.09375l-4.890625 -2.234375zm5.797058 -1.390625l4.125 0l0 0.828125l-4.125 0l0 -0.828125zm0 1.640625l4.125 0l0 0.828125l-4.125 0l0 -0.828125zm6.1498413 -3.375l-1.109375 0.203125l0 -0.984375l2.265625 -0.34375l0 6.96875l-1.15625 0l0 -5.84375zm5.3056335 6.03125q-1.578125 0 -2.296875 -0.90625q-0.71875 -0.90625 -0.71875 -2.625q0 -1.796875 0.703125 -2.703125q0.703125 -0.921875 2.3125 -0.921875q1.609375 0 2.3125 0.921875q0.703125 0.90625 0.703125 2.703125q0 1.71875 -0.71875 2.625q-0.71875 0.90625 -2.296875 0.90625zm0 -0.984375q0.984375 0 1.40625 -0.640625q0.4375 -0.65625 0.4375 -1.90625q0 -1.328125 -0.421875 -1.984375q-0.421875 -0.65625 -1.421875 -0.65625q-1.0 0 -1.421875 0.65625q-0.421875 0.65625 -0.421875 1.984375q0 1.25 0.421875 1.90625q0.4375 0.640625 1.421875 0.640625zm6.9372864 0.984375q-1.578125 0 -2.296875 -0.90625q-0.71875 -0.90625 -0.71875 -2.625q0 -1.796875 0.703125 -2.703125q0.703125 -0.921875 2.3125 -0.921875q1.609375 0 2.3125 0.921875q0.703125 0.90625 0.703125 2.703125q0 1.71875 -0.71875 2.625q-0.71875 0.90625 -2.296875 0.90625zm0 -0.984375q0.984375 0 1.40625 -0.640625q0.4375 -0.65625 0.4375 -1.90625q0 -1.328125 -0.421875 -1.984375q-0.421875 -0.65625 -1.421875 -0.65625q-1.0 0 -1.421875 0.65625q-0.421875 0.65625 -0.421875 1.984375q0 1.25 0.421875 1.90625q0.4375 0.640625 1.421875 0.640625zm6.937256 0.984375q-1.578125 0 -2.296875 -0.90625q-0.71875 -0.90625 -0.71875 -2.625q0 -1.796875 0.703125 -2.703125q0.703125 -0.921875 2.3125 -0.921875q1.609375 0 2.3125 0.921875q0.703125 0.90625 0.703125 2.703125q0 1.71875 -0.71875 2.625q-0.71875 0.90625 -2.296875 0.90625zm0 -0.984375q0.984375 0 1.40625 -0.640625q0.4375 -0.65625 0.4375 -1.90625q0 -1.328125 -0.421875 -1.984375q-0.421875 -0.65625 -1.421875 -0.65625q-1.0 0 -1.421875 0.65625q-0.421875 0.65625 -0.421875 1.984375q0 1.25 0.421875 1.90625q0.4375 0.640625 1.421875 0.640625zm4.281067 -3.59375l0.96875 0l0 0.921875l-0.96875 0l0 -0.921875zm-0.03125 3.5625l1.015625 0l-0.5 2.015625l-0.84375 0l0.328125 -2.015625zm7.8114014 -1.734375l-1.859375 -2.484375l1.25 0l1.234375 1.671875l1.234375 -1.671875l1.25 0l-1.84375 2.484375l1.921875 2.5625l-1.265625 0l-1.296875 -1.765625l-1.296875 1.765625l-1.265625 0l1.9375 -2.5625zm5.7139893 0.140625l-1.578125 0l0 -0.90625l1.578125 0l0 -1.546875l0.921875 0l0 1.546875l1.5625 0l0 0.90625l-1.5625 0l0 1.5l-0.921875 0l0 -1.5zm5.0404663 0l-1.578125 0l0 -0.90625l1.578125 0l0 -1.546875l0.921875 0l0 1.546875l1.5625 0l0 0.90625l-1.5625 0l0 1.5l-0.921875 0l0 -1.5zm3.2279663 3.1875q0.828125 -0.71875 1.203125 -1.71875q0.375 -1.0 0.375 -2.28125q0 -2.640625 -1.578125 -3.984375l1.3125 0q0.734375 0.65625 1.078125 1.734375q0.359375 1.0625 0.359375 2.25q0 1.203125 -0.359375 2.28125q-0.34375 1.078125 -1.078125 1.71875l-1.3125 0z" fill-rule="nonzero"/><path fill="#000000" fill-opacity="0.0" d="m489.4987 385.31235l0 31.811005" fill-rule="evenodd"/><path stroke="#000000" stroke-width="1.0" stroke-linejoin="round" stroke-linecap="butt" d="m489.4987 385.31235l0 25.811005" fill-rule="evenodd"/><path fill="#000000" stroke="#000000" stroke-width="1.0" stroke-linecap="butt" d="m487.84695 411.12335l1.6517334 4.5381165l1.6517334 -4.5381165z" fill-rule="evenodd"/><path fill="#000000" fill-opacity="0.0" d="m489.01904 300.8064l0 26.551178" fill-rule="evenodd"/><path stroke="#000000" stroke-width="1.0" stroke-linejoin="round" stroke-linecap="butt" d="m489.01904 300.8064l0 20.551178" fill-rule="evenodd"/><path fill="#000000" stroke="#000000" stroke-width="1.0" stroke-linecap="butt" d="m487.3673 321.35757l1.6517334 4.538086l1.6517334 -4.538086z" fill-rule="evenodd"/><path fill="#f4b400" d="m384.95538 449.74802l104.06299 -32.24408l104.06299 32.24408l-104.06299 32.24411z" fill-rule="evenodd"/><path fill="#ffffff" d="m486.85617 433.42554l1.265625 0l0 0.953125l-1.265625 0l0 -0.953125zm0.09375 2.890625l-0.765625 0l0.109375 -0.875l1.8125 0l0 5.046875l-1.15625 0l0 -4.171875zm2.8290405 0.03125l-0.734375 0l0 -0.90625l0.734375 0l0 -0.625q0 -0.765625 0.421875 -1.21875q0.4375 -0.46875 1.25 -0.46875q0.546875 0 1.03125 0.1875l0 0.828125q-0.328125 -0.109375 -0.671875 -0.109375q-0.5 0 -0.703125 0.171875q-0.1875 0.171875 -0.1875 0.625l0 0.609375l1.328125 0l-0.046875 0.90625l-1.28125 0l0 4.140625l-1.140625 0l0 -4.140625z" fill-rule="nonzero"/><path fill="#ffffff" d="m449.36017 454.25366q-0.734375 -0.640625 -1.09375 -1.71875q-0.34375 -1.078125 -0.34375 -2.28125q0 -1.203125 0.34375 -2.265625q0.359375 -1.0625 1.09375 -1.71875l1.3125 0q-1.578125 1.359375 -1.578125 3.984375q0 2.640625 1.578125 4.0l-1.3125 0zm3.9633179 -3.328125l-1.859375 -2.484375l1.25 0l1.234375 1.671875l1.234375 -1.671875l1.25 0l-1.84375 2.484375l1.921875 2.5625l-1.265625 0l-1.296875 -1.765625l-1.296875 1.765625l-1.265625 0l1.9375 -2.5625zm5.6203003 -1.28125q-0.734375 0 -1.125 -0.390625q-0.390625 -0.40625 -0.390625 -1.09375q0 -0.78125 0.375 -1.203125q0.390625 -0.4375 1.140625 -0.4375q0.734375 0 1.109375 0.4375q0.390625 0.421875 0.390625 1.203125q0 0.6875 -0.390625 1.09375q-0.375 0.390625 -1.109375 0.390625zm3.171875 -3.015625l1.078125 0l-3.625 6.859375l-1.09375 0l3.640625 -6.859375zm-3.171875 2.3125q0.78125 0 0.78125 -0.796875q0 -0.46875 -0.1875 -0.6875q-0.1875 -0.21875 -0.59375 -0.21875q-0.40625 0 -0.59375 0.21875q-0.1875 0.21875 -0.1875 0.6875q0 0.796875 0.78125 0.796875zm3.8125 4.65625q-0.734375 0 -1.125 -0.40625q-0.390625 -0.40625 -0.390625 -1.09375q0 -0.765625 0.390625 -1.203125q0.390625 -0.4375 1.125 -0.4375q0.734375 0 1.109375 0.4375q0.390625 0.4375 0.390625 1.203125q0 0.6875 -0.390625 1.09375q-0.375 0.40625 -1.109375 0.40625zm0 -0.703125q0.78125 0 0.78125 -0.8125q0 -0.46875 -0.1875 -0.6875q-0.1875 -0.21875 -0.59375 -0.21875q-0.40625 0 -0.59375 0.21875q-0.171875 0.21875 -0.171875 0.6875q0 0.8125 0.765625 0.8125zm4.715912 0.703125q-1.328125 0 -2.140625 -0.34375l0 -1.015625q0.984375 0.375 2.03125 0.375q0.859375 0 1.25 -0.203125q0.390625 -0.203125 0.390625 -0.75q0 -0.359375 -0.171875 -0.5625q-0.15625 -0.203125 -0.53125 -0.359375q-0.375 -0.15625 -1.109375 -0.34375q-1.109375 -0.28125 -1.5625 -0.71875q-0.453125 -0.453125 -0.453125 -1.234375q0 -0.90625 0.671875 -1.40625q0.671875 -0.515625 1.96875 -0.515625q0.5625 0 1.078125 0.078125q0.53125 0.078125 0.875 0.203125l0 1.015625q-0.8125 -0.3125 -1.796875 -0.3125q-0.8125 0 -1.21875 0.21875q-0.40625 0.21875 -0.40625 0.71875q0 0.3125 0.140625 0.5q0.15625 0.1875 0.5 0.328125q0.359375 0.140625 1.046875 0.3125q1.203125 0.3125 1.671875 0.8125q0.46875 0.484375 0.46875 1.265625q0 0.90625 -0.6875 1.421875q-0.6875 0.515625 -2.015625 0.515625zm5.3847046 0q-0.796875 0 -1.203125 -0.421875q-0.40625 -0.421875 -0.40625 -1.1875l0 -2.640625l-0.734375 0l0 -0.90625l0.734375 0l0 -1.171875l1.15625 -0.34375l0 1.515625l1.34375 0l-0.078125 0.90625l-1.265625 0l0 2.578125q0 0.4375 0.1875 0.609375q0.203125 0.171875 0.671875 0.171875q0.296875 0 0.609375 -0.109375l0 0.828125q-0.40625 0.171875 -1.015625 0.171875zm3.507843 0q-0.90625 0 -1.390625 -0.5q-0.484375 -0.515625 -0.484375 -1.46875l0 -3.1875l1.15625 0l0 3.1875q0 0.5625 0.265625 0.828125q0.28125 0.265625 0.859375 0.265625q0.421875 0 0.78125 -0.15625q0.359375 -0.15625 0.640625 -0.4375l0 -3.6875l1.15625 0l0 5.046875l-1.0625 0l-0.046875 -0.515625q-0.8125 0.625 -1.875 0.625zm6.424988 0q-1.109375 0 -1.71875 -0.578125q-0.59375 -0.59375 -0.59375 -1.890625q0 -0.890625 0.3125 -1.515625q0.3125 -0.625 0.84375 -0.953125q0.546875 -0.328125 1.25 -0.328125q0.453125 0 0.8125 0.109375q0.359375 0.109375 0.703125 0.328125l0 -2.46875l1.15625 0l0 7.1875l-0.984375 0l-0.078125 -0.5q-0.359375 0.3125 -0.765625 0.46875q-0.40625 0.140625 -0.9375 0.140625zm0.296875 -0.875q0.78125 0 1.3125 -0.53125l0 -2.53125q-0.5 -0.4375 -1.265625 -0.4375q-0.734375 0 -1.109375 0.484375q-0.375 0.484375 -0.375 1.421875q0 0.890625 0.328125 1.25q0.34375 0.34375 1.109375 0.34375zm6.373871 0.875q-1.34375 0 -2.0625 -0.65625q-0.71875 -0.671875 -0.71875 -1.984375q0 -1.25 0.625 -1.9375q0.640625 -0.6875 1.875 -0.6875q1.125 0 1.71875 0.59375q0.59375 0.578125 0.59375 1.5625l0 0.9375l-3.703125 0q0.09375 0.71875 0.53125 1.0q0.4375 0.28125 1.375 0.28125q0.375 0 0.765625 -0.0625q0.40625 -0.078125 0.71875 -0.203125l0 0.859375q-0.671875 0.296875 -1.71875 0.296875zm1.0 -2.9375l0 -0.34375q0 -0.546875 -0.296875 -0.828125q-0.296875 -0.28125 -0.953125 -0.28125q-0.796875 0 -1.109375 0.34375q-0.3125 0.328125 -0.3125 1.109375l2.671875 0zm2.1599731 -2.21875l1.0625 0l0.0625 0.53125q0.359375 -0.296875 0.828125 -0.46875q0.484375 -0.171875 1.03125 -0.171875q0.984375 0 1.421875 0.46875q0.453125 0.453125 0.453125 1.421875l0 3.265625l-1.15625 0l0 -3.21875q0 -0.578125 -0.25 -0.8125q-0.234375 -0.234375 -0.890625 -0.234375q-0.390625 0 -0.765625 0.15625q-0.375 0.15625 -0.640625 0.40625l0 3.703125l-1.15625 0l0 -5.046875zm8.081238 5.15625q-0.796875 0 -1.203125 -0.421875q-0.40625 -0.421875 -0.40625 -1.1875l0 -2.640625l-0.734375 0l0 -0.90625l0.734375 0l0 -1.171875l1.15625 -0.34375l0 1.515625l1.34375 0l-0.078125 0.90625l-1.265625 0l0 2.578125q0 0.4375 0.1875 0.609375q0.203125 0.171875 0.671875 0.171875q0.296875 0 0.609375 -0.109375l0 0.828125q-0.40625 0.171875 -1.015625 0.171875zm1.9463806 -6.96875l1.015625 0l3.59375 5.046875l0 -5.046875l1.140625 0l0 6.859375l-1.015625 0l-3.578125 -5.046875l0 5.046875l-1.15625 0l0 -6.859375zm8.935913 6.96875q-0.90625 0 -1.390625 -0.5q-0.484375 -0.515625 -0.484375 -1.46875l0 -3.1875l1.15625 0l0 3.1875q0 0.5625 0.265625 0.828125q0.28125 0.265625 0.859375 0.265625q0.421875 0 0.78125 -0.15625q0.359375 -0.15625 0.640625 -0.4375l0 -3.6875l1.15625 0l0 5.046875l-1.0625 0l-0.046875 -0.515625q-0.8125 0.625 -1.875 0.625zm4.331238 -5.15625l1.0625 0l0.0625 0.53125q0.796875 -0.640625 1.765625 -0.640625q0.53125 0 0.828125 0.171875q0.3125 0.15625 0.484375 0.484375q0.390625 -0.3125 0.84375 -0.484375q0.46875 -0.171875 1.0625 -0.171875q0.875 0 1.296875 0.453125q0.421875 0.4375 0.421875 1.375l0 3.328125l-1.140625 0l0 -3.21875q0 -0.578125 -0.25 -0.8125q-0.25 -0.234375 -0.796875 -0.234375q-0.359375 0 -0.703125 0.125q-0.328125 0.125 -0.546875 0.375q0.046875 0.203125 0.046875 0.53125l0 3.234375l-1.078125 0l0 -3.203125q0 -0.578125 -0.203125 -0.8125q-0.1875 -0.25 -0.703125 -0.25q-0.671875 0 -1.3125 0.59375l0 3.671875l-1.140625 0l0 -5.046875zm11.887512 5.15625q-0.53125 0 -0.9375 -0.140625q-0.40625 -0.15625 -0.765625 -0.46875l-0.0625 0.5l-1.0 0l0 -7.1875l1.15625 0l0 2.46875q0.65625 -0.4375 1.59375 -0.4375q1.125 0 1.71875 0.640625q0.609375 0.625 0.609375 1.953125q0 1.34375 -0.609375 2.015625q-0.59375 0.65625 -1.703125 0.65625zm-0.296875 -0.875q0.765625 0 1.09375 -0.4375q0.34375 -0.4375 0.34375 -1.359375q0 -0.9375 -0.359375 -1.3125q-0.34375 -0.390625 -1.109375 -0.390625q-0.78125 0 -1.28125 0.421875l0 2.546875q0.5 0.53125 1.3125 0.53125z" fill-rule="nonzero"/><path fill="#ffffff" d="m477.1953 466.5974q-1.34375 0 -2.0625 -0.65625q-0.71875 -0.671875 -0.71875 -1.984375q0 -1.25 0.625 -1.9375q0.640625 -0.6875 1.875 -0.6875q1.125 0 1.71875 0.59375q0.59375 0.578125 0.59375 1.5625l0 0.9375l-3.703125 0q0.09375 0.71875 0.53125 1.0q0.4375 0.28125 1.375 0.28125q0.375 0 0.765625 -0.0625q0.40625 -0.078125 0.71875 -0.203125l0 0.859375q-0.671875 0.296875 -1.71875 0.296875zm1.0 -2.9375l0 -0.34375q0 -0.546875 -0.296875 -0.828125q-0.296875 -0.28125 -0.953125 -0.28125q-0.796875 0 -1.109375 0.34375q-0.3125 0.328125 -0.3125 1.109375l2.671875 0zm2.1599731 -2.21875l1.0625 0l0.0625 0.578125q0.359375 -0.234375 0.859375 -0.421875q0.515625 -0.1875 1.0 -0.265625l0 0.890625q-0.453125 0.078125 -1.0 0.25q-0.53125 0.171875 -0.828125 0.375l0 3.640625l-1.15625 0l0 -5.046875zm3.6921387 0.9375l4.125 0l0 0.828125l-4.125 0l0 -0.828125zm0 1.640625l4.125 0l0 0.828125l-4.125 0l0 -0.828125zm5.040436 -1.640625l4.125 0l0 0.828125l-4.125 0l0 -0.828125zm0 1.640625l4.125 0l0 0.828125l-4.125 0l0 -0.828125zm8.056091 2.65625q-1.578125 0 -2.296875 -0.90625q-0.71875 -0.90625 -0.71875 -2.625q0 -1.796875 0.703125 -2.703125q0.703125 -0.921875 2.3125 -0.921875q1.609375 0 2.3125 0.921875q0.703125 0.90625 0.703125 2.703125q0 1.71875 -0.71875 2.625q-0.71875 0.90625 -2.296875 0.90625zm0 -0.984375q0.984375 0 1.40625 -0.640625q0.4375 -0.65625 0.4375 -1.90625q0 -1.328125 -0.421875 -1.984375q-0.421875 -0.65625 -1.421875 -0.65625q-1.0 0 -1.421875 0.65625q-0.421875 0.65625 -0.421875 1.984375q0 1.25 0.421875 1.90625q0.4375 0.640625 1.421875 0.640625zm3.7185364 1.5625q0.828125 -0.71875 1.203125 -1.71875q0.375 -1.0 0.375 -2.28125q0 -2.640625 -1.578125 -3.984375l1.3125 0q0.734375 0.65625 1.078125 1.734375q0.359375 1.0625 0.359375 2.25q0 1.203125 -0.359375 2.28125q-0.34375 1.078125 -1.078125 1.71875l-1.3125 0z" fill-rule="nonzero"/><path fill="#000000" fill-opacity="0.0" d="m489.01837 481.99213l0 14.409454l0.06298828 0l0 14.409454" fill-rule="evenodd"/><path stroke="#000000" stroke-width="1.0" stroke-linejoin="round" stroke-linecap="butt" d="m489.01837 481.99213l0 14.409454l0.06298828 0l0 8.409454" fill-rule="evenodd"/><path fill="#000000" stroke="#000000" stroke-width="1.0" stroke-linecap="butt" d="m487.42963 504.81104l1.6517334 4.538086l1.6517334 -4.538086z" fill-rule="evenodd"/><path fill="#000000" fill-opacity="0.0" d="m445.64276 478.33508l44.59842 0l0 36.15747l-44.59842 0z" fill-rule="evenodd"/><path fill="#000000" d="m467.08774 505.25507l0 -11.78125l-4.40625 0l0 -1.578125l10.578125 0l0 1.578125l-4.40625 0l0 11.78125l-1.765625 0z" fill-rule="nonzero"/><path fill="#0f9d58" d="m414.2861 551.71655l10.133881 -40.53546l140.03937 0l-10.13385 40.53546z" fill-rule="evenodd"/><path fill="#ffffff" d="m447.10617 536.38947q-0.84375 0 -1.625 -0.15625q-0.78125 -0.15625 -1.34375 -0.40625l0 -3.796875l3.046875 0l0.078125 1.328125l-1.421875 0l0 1.453125q0.234375 0.078125 0.59375 0.125q0.359375 0.046875 0.6875 0.046875q0.734375 0 1.15625 -0.21875q0.421875 -0.234375 0.609375 -0.734375q0.203125 -0.5 0.203125 -1.359375q0 -0.90625 -0.234375 -1.40625q-0.234375 -0.515625 -0.765625 -0.734375q-0.515625 -0.21875 -1.421875 -0.21875q-1.28125 0 -2.4375 0.359375l0 -1.34375q0.578125 -0.203125 1.34375 -0.296875q0.78125 -0.109375 1.53125 -0.109375q1.90625 0 2.796875 0.953125q0.890625 0.9375 0.890625 2.796875q0 1.828125 -0.890625 2.78125q-0.890625 0.9375 -2.796875 0.9375zm1.5565796 -10.515625l1.796875 0l0 2.1875l-1.796875 0l0 -2.1875zm5.9375 5.953125q0 -0.78125 -0.3125 -1.140625q-0.296875 -0.375 -1.09375 -0.375q-0.421875 0 -0.921875 0.09375q-0.484375 0.09375 -0.890625 0.265625l0 -1.328125q0.40625 -0.1875 0.984375 -0.296875q0.59375 -0.125 1.171875 -0.125q1.515625 0 2.1875 0.640625q0.671875 0.640625 0.671875 2.015625l0 4.671875l-1.796875 0l0 -4.421875zm5.8684998 4.5625q-1.15625 0 -1.828125 -0.703125q-0.65625 -0.71875 -0.65625 -1.953125l0 -4.6875l1.796875 0l0 4.578125q0 0.71875 0.3125 1.046875q0.328125 0.3125 0.984375 0.3125q0.484375 0 0.96875 -0.203125q0.484375 -0.21875 0.78125 -0.546875l0 -5.1875l1.796875 0l0 7.203125l-1.65625 0l-0.078125 -0.703125q-1.03125 0.84375 -2.421875 0.84375zm5.7523804 -4.609375q0 -1.359375 0.828125 -2.109375q0.828125 -0.75 2.5625 -0.75q1.734375 0 2.5625 0.75q0.828125 0.75 0.828125 2.109375l0 4.46875l-1.796875 0l0 -4.59375q0 -0.65625 -0.421875 -1.0q-0.421875 -0.34375 -1.171875 -0.34375q-0.78125 0 -1.1875 0.34375q-0.40625 0.34375 -0.40625 1.0l0 1.28125q0.5625 -0.421875 1.25 -0.421875l0.859375 0l0.0625 1.421875l-0.96875 0q-0.703125 0 -1.203125 0.390625l0 1.921875l-1.796875 0l0 -4.46875zm4.9794006 -5.90625l1.796875 0l0 2.1875l-1.796875 0l0 -2.1875zm5.9375 5.953125q0 -0.78125 -0.3125 -1.140625q-0.296875 -0.375 -1.09375 -0.375q-0.421875 0 -0.921875 0.09375q-0.484375 0.09375 -0.890625 0.265625l0 -1.328125q0.40625 -0.1875 0.984375 -0.296875q0.59375 -0.125 1.171875 -0.125q1.515625 0 2.1875 0.640625q0.671875 0.640625 0.671875 2.015625l0 4.671875l-1.796875 0l0 -4.421875zm10.916595 4.5625q-1.375 0 -2.1875 -0.890625q-0.8125 -0.890625 -0.8125 -2.703125q0 -1.875 0.65625 -2.875q0.65625 -1.0 1.828125 -1.0q0.53125 0 0.859375 0.171875q0.34375 0.171875 0.5625 0.5q0.265625 -0.296875 0.734375 -0.484375q0.484375 -0.1875 0.984375 -0.1875q0.90625 0 1.359375 0.5625q0.46875 0.5625 0.46875 1.515625l0 5.25l-1.796875 0l0 -4.96875q0 -0.5 -0.140625 -0.734375q-0.125 -0.234375 -0.46875 -0.234375q-0.25 0 -0.4375 0.15625q-0.1875 0.15625 -0.265625 0.46875l-0.875 0q-0.140625 -0.34375 -0.296875 -0.484375q-0.140625 -0.140625 -0.40625 -0.140625q-0.59375 0 -0.828125 0.640625q-0.234375 0.625 -0.234375 1.84375q0 1.171875 0.40625 1.6875q0.40625 0.5 1.21875 0.5q0.609375 0 0.921875 -0.109375l0 1.328125q-0.5 0.1875 -1.25 0.1875zm1.0957031 -10.4375l1.46875 0l0 0.890625l3.3125 0l-0.0625 1.21875l-4.71875 0l0 -2.109375zm6.765625 10.4375q-1.296875 0 -2.296875 -0.4375l0 -1.375q0.90625 0.40625 1.859375 0.40625q1.265625 0 1.796875 -0.515625q0.546875 -0.53125 0.546875 -1.8125q0 -1.28125 -0.546875 -1.8125q-0.53125 -0.53125 -1.796875 -0.53125q-0.953125 0 -1.859375 0.40625l0 -1.375q1.0 -0.421875 2.296875 -0.421875q1.8125 0 2.703125 0.953125q0.90625 0.9375 0.90625 2.78125q0 1.828125 -0.90625 2.78125q-0.890625 0.953125 -2.703125 0.953125zm6.340973 -0.140625q-0.859375 0 -1.21875 -0.34375q-0.359375 -0.359375 -0.359375 -1.15625l0 -5.703125l1.796875 0l0 5.25q0 0.546875 0.546875 0.546875l0.453125 0l0 1.40625l-1.21875 0zm3.40625 0q-0.84375 0 -1.203125 -0.34375q-0.359375 -0.359375 -0.359375 -1.15625l0 -5.703125l1.796875 0l0 5.25q0 0.546875 0.546875 0.546875l0.453125 0l0 1.40625l-1.234375 0zm5.8966064 0.140625q-1.625 0 -2.53125 -0.765625q-0.890625 -0.78125 -0.890625 -2.265625l0 -4.3125l1.796875 0l0 4.34375q0 0.8125 0.40625 1.203125q0.40625 0.390625 1.21875 0.390625q0.8125305 0 1.2187805 -0.390625q0.40625 -0.390625 0.40625 -1.203125l0 -6.46875l1.796875 0l0 6.4375q0 1.484375 -0.90625 2.265625q-0.890625 0.765625 -2.5156555 0.765625zm7.436676 0q-0.765625 0 -1.453125 -0.109375q-0.6875 -0.109375 -1.09375 -0.28125l0 -1.453125q0.484375 0.203125 1.09375 0.328125q0.609375 0.109375 1.125 0.109375q0.90625 0 1.265625 -0.140625q0.375 -0.140625 0.375 -0.546875q0 -0.25 -0.140625 -0.40625q-0.140625 -0.15625 -0.40625 -0.265625q-0.25 -0.125 -0.8125 -0.3125l-0.5625 -0.1875q-1.078125 -0.359375 -1.578125 -0.8125q-0.5 -0.453125 -0.5 -1.25q0 -0.984375 0.765625 -1.5625q0.765625 -0.578125 2.21875 -0.578125q0.609375 0 1.234375 0.09375q0.640625 0.09375 1.046875 0.21875l0 1.4375q-0.40625 -0.171875 -0.984375 -0.265625q-0.5625 -0.09375 -1.03125 -0.09375q-0.71875 0 -1.140625 0.15625q-0.40625 0.15625 -0.40625 0.5625q0 0.296875 0.28125 0.46875q0.28125 0.15625 1.03125 0.390625q0.25 0.0625 0.609375 0.203125q0.78125 0.265625 1.21875 0.546875q0.453125 0.28125 0.65625 0.671875q0.203125 0.390625 0.203125 0.984375q0 1.03125 -0.796875 1.5625q-0.78125 0.53125 -2.21875 0.53125zm11.236511 -3.359375l-2.328125 -3.09375l1.9375 0l1.359375 1.828125l1.359375 -1.828125l1.953125 0l-2.328125 3.09375l2.421875 3.21875l-1.96875 0l-1.4375 -1.9375l-1.4375 1.9375l-1.953125 0l2.421875 -3.21875z" fill-rule="nonzero"/><path fill="#000000" fill-opacity="0.0" d="m489.37274 551.71655l0 24.850403" fill-rule="evenodd"/><path stroke="#000000" stroke-width="1.0" stroke-linejoin="round" stroke-linecap="butt" d="m489.37274 551.71655l0 24.850403" fill-rule="evenodd"/><path fill="#000000" fill-opacity="0.0" d="m491.24933 576.5617l-194.9921 0" fill-rule="evenodd"/><path stroke="#000000" stroke-width="1.0" stroke-linejoin="round" stroke-linecap="butt" d="m491.24933 576.5617l-194.9921 0" fill-rule="evenodd"/><path fill="#000000" fill-opacity="0.0" d="m296.24933 574.6877l0 -215.62207" fill-rule="evenodd"/><path stroke="#000000" stroke-width="1.0" stroke-linejoin="round" stroke-linecap="butt" d="m296.24933 574.6877l0 -215.62207" fill-rule="evenodd"/><path fill="#000000" fill-opacity="0.0" d="m297.1916 358.1391l68.12601 -1.2913208" fill-rule="evenodd"/><path stroke="#000000" stroke-width="1.0" stroke-linejoin="round" stroke-linecap="butt" d="m297.1916 358.1391l62.127075 -1.1776123" fill-rule="evenodd"/><path fill="#000000" stroke="#000000" stroke-width="1.0" stroke-linecap="butt" d="m359.34998 358.6129l4.5059814 -1.7374268l-4.5686035 -1.5654297z" fill-rule="evenodd"/></g></svg>