<svg version="1.1" viewBox="0.0 0.0 1394.8241469816273 1760.6797900262468" fill="none" stroke="none" stroke-linecap="square" stroke-miterlimit="10" xmlns:xlink="http://www.w3.org/1999/xlink" xmlns="http://www.w3.org/2000/svg"><clipPath id="p.0"><path d="m0 0l1394.8241 0l0 1760.6798l-1394.8241 0l0 -1760.6798z" clip-rule="nonzero"/></clipPath><g clip-path="url(#p.0)"><path fill="#000000" fill-opacity="0.0" d="m0 0l1394.8241 0l0 1760.6798l-1394.8241 0z" fill-rule="evenodd"/><path fill="#cc0000" d="m620.1681 141.39896l69.67786 0l0 0c9.127991 0 16.52771 7.665436 16.52771 17.121246c0 9.455811 -7.399719 17.121262 -16.52771 17.121262l-69.67786 0l0 0c-9.127991 0 -16.527649 -7.665451 -16.527649 -17.121262c0 -9.455811 7.399658 -17.121246 16.527649 -17.121246z" fill-rule="evenodd"/><path fill="#ffffff" d="m642.132 164.53645q-2.0 0 -3.21875 -0.515625l0 -1.53125q1.5 0.578125 3.0625 0.578125q1.296875 0 1.875 -0.296875q0.59375 -0.3125 0.59375 -1.140625q0 -0.53125 -0.25 -0.84375q-0.25 -0.3125 -0.8125 -0.53125q-0.5625 -0.234375 -1.671875 -0.515625q-1.671875 -0.4375 -2.34375 -1.09375q-0.671875 -0.671875 -0.671875 -1.828125q0 -1.375 1.0 -2.140625q1.015625 -0.765625 2.953125 -0.765625q0.84375 0 1.640625 0.125q0.796875 0.125 1.28125 0.296875l0 1.53125q-1.203125 -0.453125 -2.6875 -0.453125q-1.21875 0 -1.828125 0.3125q-0.59375 0.3125 -0.59375 1.09375q0 0.453125 0.21875 0.734375q0.21875 0.28125 0.734375 0.5q0.53125 0.21875 1.5625 0.46875q1.8125 0.46875 2.515625 1.203125q0.703125 0.734375 0.703125 1.90625q0 1.375 -1.03125 2.140625q-1.03125 0.765625 -3.03125 0.765625zm8.101257 0q-1.203125 0 -1.8125 -0.625q-0.609375 -0.640625 -0.609375 -1.78125l0 -3.96875l-1.109375 0l0 -1.359375l1.109375 0l0 -1.75l1.734375 -0.53125l0 2.28125l2.015625 0l-0.109375 1.359375l-1.90625 0l0 3.859375q0 0.65625 0.296875 0.921875q0.296875 0.265625 1.0 0.265625q0.421875 0 0.90625 -0.15625l0 1.234375q-0.625 0.25 -1.515625 0.25zm4.716736 0q-1.15625 0 -1.921875 -0.59375q-0.765625 -0.609375 -0.765625 -1.71875q0 -1.125 0.75 -1.765625q0.765625 -0.65625 2.296875 -0.65625l2.421875 0l0 -0.328125q0 -0.5625 -0.171875 -0.875q-0.15625 -0.3125 -0.609375 -0.453125q-0.453125 -0.15625 -1.28125 -0.15625q-1.34375 0 -2.515625 0.40625l0 -1.296875q0.546875 -0.203125 1.28125 -0.328125q0.734375 -0.140625 1.5625 -0.140625q1.6875 0 2.546875 0.6875q0.859375 0.6875 0.859375 2.1875l0 4.875l-1.484375 0l-0.125 -0.765625q-0.46875 0.46875 -1.15625 0.703125q-0.6875 0.21875 -1.6875 0.21875zm0.46875 -1.25q0.75 0 1.34375 -0.25q0.59375 -0.25 0.96875 -0.71875l0 -1.328125l-2.390625 0q-0.78125 0 -1.125 0.296875q-0.34375 0.28125 -0.34375 0.90625q0 0.578125 0.390625 0.84375q0.390625 0.25 1.15625 0.25zm5.923889 -6.484375l1.59375 0l0.09375 0.875q0.546875 -0.359375 1.296875 -0.640625q0.75 -0.28125 1.484375 -0.40625l0 1.328125q-0.6875 0.140625 -1.484375 0.40625q-0.796875 0.25 -1.25 0.546875l0 5.46875l-1.734375 0l0 -7.578125zm8.762634 7.734375q-1.203125 0 -1.8125 -0.625q-0.609375 -0.640625 -0.609375 -1.78125l0 -3.96875l-1.109375 0l0 -1.359375l1.109375 0l0 -1.75l1.734375 -0.53125l0 2.28125l2.015625 0l-0.109375 1.359375l-1.90625 0l0 3.859375q0 0.65625 0.296875 0.921875q0.296875 0.265625 1.0 0.265625q0.421875 0 0.90625 -0.15625l0 1.234375q-0.625 0.25 -1.515625 0.25z" fill-rule="nonzero"/><path fill="#000000" fill-opacity="0.0" d="m655.00574 175.64146l0 28.724411" fill-rule="evenodd"/><path stroke="#000000" stroke-width="1.0" stroke-linejoin="round" stroke-linecap="butt" d="m655.00574 175.64146l0 22.724411" fill-rule="evenodd"/><path fill="#000000" stroke="#000000" stroke-width="1.0" stroke-linecap="butt" d="m653.354 198.36588l1.6517334 4.538101l1.6517334 -4.538101z" fill-rule="evenodd"/><path fill="#cc0000" d="m198.95026 153.67455l69.67786 0l0 0c9.127991 0 16.52768 7.665451 16.52768 17.121262c0 9.455811 -7.3996887 17.121246 -16.52768 17.121246l-69.67786 0l0 0c-9.127991 0 -16.52768 -7.665436 -16.52768 -17.121246c0 -9.455811 7.3996887 -17.121262 16.52768 -17.121262z" fill-rule="evenodd"/><path fill="#ffffff" d="m220.91415 176.81204q-2.0 0 -3.21875 -0.515625l0 -1.53125q1.5 0.578125 3.0625 0.578125q1.296875 0 1.875 -0.296875q0.59375 -0.3125 0.59375 -1.140625q0 -0.53125 -0.25 -0.84375q-0.25 -0.3125 -0.8125 -0.53125q-0.5625 -0.234375 -1.671875 -0.515625q-1.671875 -0.4375 -2.34375 -1.09375q-0.671875 -0.671875 -0.671875 -1.828125q0 -1.375 1.0 -2.140625q1.015625 -0.765625 2.953125 -0.765625q0.84375 0 1.640625 0.125q0.796875 0.125 1.28125 0.296875l0 1.53125q-1.203125 -0.453125 -2.6875 -0.453125q-1.21875 0 -1.828125 0.3125q-0.59375 0.3125 -0.59375 1.09375q0 0.453125 0.21875 0.734375q0.21875 0.28125 0.734375 0.5q0.53125 0.21875 1.5625 0.46875q1.8125 0.46875 2.515625 1.203125q0.703125 0.734375 0.703125 1.90625q0 1.375 -1.03125 2.140625q-1.03125 0.765625 -3.03125 0.765625zm8.101273 0q-1.203125 0 -1.8125 -0.625q-0.609375 -0.640625 -0.609375 -1.78125l0 -3.96875l-1.109375 0l0 -1.359375l1.109375 0l0 -1.75l1.734375 -0.53125l0 2.28125l2.015625 0l-0.109375 1.359375l-1.90625 0l0 3.859375q0 0.65625 0.296875 0.921875q0.296875 0.265625 1.0 0.265625q0.421875 0 0.90625 -0.15625l0 1.234375q-0.625 0.25 -1.515625 0.25zm4.7167664 0q-1.15625 0 -1.921875 -0.59375q-0.765625 -0.609375 -0.765625 -1.71875q0 -1.125 0.75 -1.765625q0.765625 -0.65625 2.296875 -0.65625l2.421875 0l0 -0.328125q0 -0.5625 -0.171875 -0.875q-0.15625 -0.3125 -0.609375 -0.453125q-0.453125 -0.15625 -1.28125 -0.15625q-1.34375 0 -2.515625 0.40625l0 -1.296875q0.546875 -0.203125 1.28125 -0.328125q0.734375 -0.140625 1.5625 -0.140625q1.6875 0 2.546875 0.6875q0.859375 0.6875 0.859375 2.1875l0 4.875l-1.484375 0l-0.125 -0.765625q-0.46875 0.46875 -1.15625 0.703125q-0.6875 0.21875 -1.6875 0.21875zm0.46875 -1.25q0.75 0 1.34375 -0.25q0.59375 -0.25 0.96875 -0.71875l0 -1.328125l-2.390625 0q-0.78125 0 -1.125 0.296875q-0.34375 0.28125 -0.34375 0.90625q0 0.578125 0.390625 0.84375q0.390625 0.25 1.15625 0.25zm5.923889 -6.484375l1.59375 0l0.09375 0.875q0.546875 -0.359375 1.296875 -0.640625q0.75 -0.28125 1.484375 -0.40625l0 1.328125q-0.6875 0.140625 -1.484375 0.40625q-0.796875 0.25 -1.25 0.546875l0 5.46875l-1.734375 0l0 -7.578125zm8.762634 7.734375q-1.203125 0 -1.8125 -0.625q-0.609375 -0.640625 -0.609375 -1.78125l0 -3.96875l-1.109375 0l0 -1.359375l1.109375 0l0 -1.75l1.734375 -0.53125l0 2.28125l2.015625 0l-0.109375 1.359375l-1.90625 0l0 3.859375q0 0.65625 0.296875 0.921875q0.296875 0.265625 1.0 0.265625q0.421875 0 0.90625 -0.15625l0 1.234375q-0.625 0.25 -1.515625 0.25z" fill-rule="nonzero"/><path fill="#4a86e8" d="m162.39764 216.64305l142.78082 0l0 58.982224l-142.78082 0z" fill-rule="evenodd"/><path fill="#000000" fill-opacity="0.0" d="m180.24524 216.64305l0 58.982224m107.08563 -58.982224l0 58.982224" fill-rule="evenodd"/><path fill="#000000" fill-opacity="0.0" d="m162.39764 216.64305l142.78082 0l0 58.982224l-142.78082 0z" fill-rule="evenodd"/><path stroke="#ffffff" stroke-width="3.0" stroke-linejoin="round" stroke-linecap="butt" d="m180.24524 216.64305l0 58.982224m107.08563 -58.982224l0 58.982224" fill-rule="evenodd"/><path stroke="#ffffff" stroke-width="3.0" stroke-linejoin="round" stroke-linecap="butt" d="m162.39764 216.64305l142.78082 0l0 58.982224l-142.78082 0z" fill-rule="evenodd"/><path fill="#ffffff" d="m209.16725 252.15042q-0.765625 0 -1.484375 -0.109375q-0.71875 -0.09375 -1.1875 -0.265625l0 -1.484375q0.53125 0.21875 1.171875 0.328125q0.65625 0.109375 1.28125 0.109375q0.921875 0 1.28125 -0.15625q0.375 -0.15625 0.375 -0.625q0 -0.421875 -0.34375 -0.609375q-0.328125 -0.203125 -1.25 -0.5l-0.484375 -0.15625q-1.140625 -0.390625 -1.671875 -0.859375q-0.53125 -0.46875 -0.53125 -1.390625q0 -1.078125 0.765625 -1.625q0.765625 -0.5625 2.40625 -0.5625q0.625 0 1.21875 0.109375q0.609375 0.09375 1.03125 0.234375l0 1.453125q-0.421875 -0.171875 -0.96875 -0.265625q-0.53125 -0.09375 -1.015625 -0.09375q-0.875 0 -1.28125 0.15625q-0.390625 0.140625 -0.390625 0.5625q0 0.359375 0.296875 0.546875q0.3125 0.1875 1.203125 0.46875l0.34375 0.109375q0.9375 0.296875 1.4375 0.59375q0.515625 0.296875 0.75 0.71875q0.234375 0.421875 0.234375 1.09375q0 2.21875 -3.1875 2.21875zm8.736511 0q-2.015625 0 -3.09375 -0.984375q-1.0625 -1.0 -1.0625 -2.984375q0 -1.875 0.9375 -2.90625q0.953125 -1.03125 2.8125 -1.03125q1.671875 0 2.5625 0.890625q0.90625 0.875 0.90625 2.34375l0 1.40625l-5.546875 0q0.125 1.09375 0.78125 1.515625q0.65625 0.421875 2.0625 0.421875q0.578125 0 1.171875 -0.109375q0.59375 -0.109375 1.0625 -0.28125l0 1.28125q-1.0 0.4375 -2.59375 0.4375zm1.53125 -4.390625l0 -0.53125q0 -0.8125 -0.453125 -1.234375q-0.453125 -0.4375 -1.4375 -0.4375q-1.1875 0 -1.65625 0.515625q-0.46875 0.515625 -0.46875 1.6875l4.015625 0zm6.1232605 4.390625q-1.203125 0 -1.8125 -0.625q-0.609375 -0.640625 -0.609375 -1.78125l0 -3.96875l-1.109375 0l0 -1.359375l1.109375 0l0 -1.75l1.734375 -0.53125l0 2.28125l2.015625 0l-0.109375 1.359375l-1.90625 0l0 3.859375q0 0.65625 0.296875 0.921875q0.296875 0.265625 1.0 0.265625q0.421875 0 0.90625 -0.15625l0 1.234375q-0.625 0.25 -1.515625 0.25zm5.25177 0q-1.359375 0 -2.09375 -0.75q-0.734375 -0.765625 -0.734375 -2.203125l0 -4.78125l1.75 0l0 4.78125q0 0.84375 0.40625 1.25q0.421875 0.390625 1.296875 0.390625q0.609375 0 1.15625 -0.21875q0.546875 -0.234375 0.96875 -0.65625l0 -5.546875l1.71875 0l0 7.578125l-1.578125 0l-0.078125 -0.78125q-1.203125 0.9375 -2.8125 0.9375zm6.5136414 -7.734375l1.5 0l0.09375 0.75q0.53125 -0.46875 1.140625 -0.6875q0.609375 -0.234375 1.421875 -0.234375q1.6875 0 2.5625 0.921875q0.890625 0.90625 0.890625 2.90625q0 2.015625 -0.9375 3.046875q-0.921875 1.03125 -2.578125 1.03125q-1.375 0 -2.359375 -0.640625l0 3.9375l-1.734375 0l0 -11.03125zm3.640625 6.421875q1.125 0 1.65625 -0.6875q0.546875 -0.6875 0.546875 -2.09375q0 -1.34375 -0.5 -1.90625q-0.484375 -0.578125 -1.65625 -0.578125q-1.171875 0 -1.953125 0.8125l0 3.78125q0.765625 0.671875 1.90625 0.671875zm13.419525 2.3125q-1.109375 -0.984375 -1.640625 -2.59375q-0.515625 -1.609375 -0.515625 -3.40625q0 -1.8125 0.515625 -3.40625q0.53125 -1.609375 1.640625 -2.59375l1.9687653 0q-2.3593903 2.046875 -2.3593903 6.0q0 3.953125 2.3593903 6.0l-1.9687653 0zm2.7312775 0q1.234375 -1.078125 1.796875 -2.578125q0.5625 -1.5 0.5625 -3.421875q0 -3.96875 -2.359375 -6.0l1.984375 0q1.09375 0.984375 1.609375 2.59375q0.53125 1.609375 0.53125 3.40625q0 1.796875 -0.53125 3.40625q-0.515625 1.609375 -1.609375 2.59375l-1.984375 0z" fill-rule="nonzero"/><path fill="#4a86e8" d="m162.39896 401.4364l142.78082 0l0 58.98224l-142.78082 0z" fill-rule="evenodd"/><path fill="#000000" fill-opacity="0.0" d="m180.24655 401.4364l0 58.98224m107.08563 -58.98224l0 58.98224" fill-rule="evenodd"/><path fill="#000000" fill-opacity="0.0" d="m162.39896 401.4364l142.78082 0l0 58.98224l-142.78082 0z" fill-rule="evenodd"/><path stroke="#ffffff" stroke-width="3.0" stroke-linejoin="round" stroke-linecap="butt" d="m180.24655 401.4364l0 58.98224m107.08563 -58.98224l0 58.98224" fill-rule="evenodd"/><path stroke="#ffffff" stroke-width="3.0" stroke-linejoin="round" stroke-linecap="butt" d="m162.39896 401.4364l142.78082 0l0 58.98224l-142.78082 0z" fill-rule="evenodd"/><path fill="#ffffff" d="m212.88794 436.94376q-0.953125 0 -1.421875 -0.453125q-0.453125 -0.46875 -0.453125 -1.515625l0 -8.96875l1.734375 0l0 8.8125q0 0.4375 0.15625 0.609375q0.15625 0.15625 0.484375 0.15625q0.390625 0 0.734375 -0.09375l0 1.265625q-0.53125 0.1875 -1.234375 0.1875zm5.51001 0q-3.953125 0 -3.953125 -3.953125q0 -3.953125 3.953125 -3.953125q3.96875 0 3.96875 3.953125q0 3.953125 -3.96875 3.953125zm0 -1.46875q1.203125 0 1.703125 -0.578125q0.5 -0.578125 0.5 -1.90625q0 -1.3125 -0.5 -1.875q-0.5 -0.578125 -1.703125 -0.578125q-1.1875 0 -1.6875 0.578125q-0.5 0.5625 -0.5 1.875q0 1.328125 0.5 1.90625q0.5 0.578125 1.6875 0.578125zm8.896027 1.46875q-3.953125 0 -3.953125 -3.953125q0 -3.953125 3.953125 -3.953125q3.96875 0 3.96875 3.953125q0 3.953125 -3.96875 3.953125zm0 -1.46875q1.203125 0 1.703125 -0.578125q0.5 -0.578125 0.5 -1.90625q0 -1.3125 -0.5 -1.875q-0.5 -0.578125 -1.703125 -0.578125q-1.1875 0 -1.6875 0.578125q-0.5 0.5625 -0.5 1.875q0 1.328125 0.5 1.90625q0.5 0.578125 1.6875 0.578125zm5.6710205 -6.265625l1.5 0l0.09375 0.75q0.53125 -0.46875 1.140625 -0.6875q0.609375 -0.234375 1.421875 -0.234375q1.6875 0 2.5625 0.921875q0.890625 0.90625 0.890625 2.90625q0 2.015625 -0.9375 3.046875q-0.921875 1.03125 -2.578125 1.03125q-1.375 0 -2.359375 -0.640625l0 3.9375l-1.734375 0l0 -11.03125zm3.640625 6.421875q1.125 0 1.65625 -0.6875q0.546875 -0.6875 0.546875 -2.09375q0 -1.34375 -0.5 -1.90625q-0.484375 -0.578125 -1.65625 -0.578125q-1.171875 0 -1.953125 0.8125l0 3.78125q0.765625 0.671875 1.90625 0.671875zm13.419525 2.3125q-1.109375 -0.984375 -1.640625 -2.59375q-0.515625 -1.609375 -0.515625 -3.40625q0 -1.8125 0.515625 -3.40625q0.53125 -1.609375 1.640625 -2.59375l1.96875 0q-2.359375 2.046875 -2.359375 6.0q0 3.953125 2.359375 6.0l-1.96875 0zm2.7312622 0q1.234375 -1.078125 1.796875 -2.578125q0.5625 -1.5 0.5625 -3.421875q0 -3.96875 -2.359375 -6.0l1.984375 0q1.09375 0.984375 1.609375 2.59375q0.53125 1.609375 0.53125 3.40625q0 1.796875 -0.53125 3.40625q-0.515625 1.609375 -1.609375 2.59375l-1.984375 0z" fill-rule="nonzero"/><path fill="#000000" fill-opacity="0.0" d="m233.78918 187.91705l0 28.724411" fill-rule="evenodd"/><path stroke="#000000" stroke-width="1.0" stroke-linejoin="round" stroke-linecap="butt" d="m233.78918 187.91705l0 22.724411" fill-rule="evenodd"/><path fill="#000000" stroke="#000000" stroke-width="1.0" stroke-linecap="butt" d="m232.13745 210.64146l1.6517334 4.538101l1.6517334 -4.538101z" fill-rule="evenodd"/><path fill="#f4b400" d="m141.86917 338.5291l91.9205 -37.477417l91.9205 37.477417l-91.9205 37.477448z" fill-rule="evenodd"/><path fill="#ffffff" d="m210.04239 338.17038l-1.09375 0l0 -1.359375l1.09375 0l0 -0.9375q0 -1.140625 0.640625 -1.828125q0.65625 -0.703125 1.875 -0.703125q0.8125 0 1.546875 0.28125l0 1.25q-0.484375 -0.1875 -1.0 -0.1875q-0.75 0 -1.046875 0.265625q-0.28125 0.265625 -0.28125 0.9375l0 0.921875l1.984375 0l-0.078125 1.359375l-1.90625 0l0 6.21875l-1.734375 0l0 -6.21875zm8.211884 6.375q-3.953125 0 -3.953125 -3.953125q0 -3.953125 3.953125 -3.953125q3.96875 0 3.96875 3.953125q0 3.953125 -3.96875 3.953125zm0 -1.46875q1.203125 0 1.703125 -0.578125q0.5 -0.578125 0.5 -1.90625q0 -1.3125 -0.5 -1.875q-0.5 -0.578125 -1.703125 -0.578125q-1.1875 0 -1.6875 0.578125q-0.5 0.5625 -0.5 1.875q0 1.328125 0.5 1.90625q0.5 0.578125 1.6875 0.578125zm5.6710205 -6.265625l1.59375 0l0.09375 0.875q0.546875 -0.359375 1.296875 -0.640625q0.75 -0.28125 1.484375 -0.40625l0 1.328125q-0.6875 0.140625 -1.484375 0.40625q-0.796875 0.25 -1.25 0.546875l0 5.46875l-1.734375 0l0 -7.578125zm9.220139 7.734375q-2.015625 0 -3.09375 -0.984375q-1.0625 -1.0 -1.0625 -2.984375q0 -1.875 0.9375 -2.90625q0.953125 -1.03125 2.8125 -1.03125q1.671875 0 2.5625 0.890625q0.90625 0.875 0.90625 2.34375l0 1.40625l-5.546875 0q0.125 1.09375 0.78125 1.515625q0.65625 0.421875 2.0625 0.421875q0.578125 0 1.171875 -0.109375q0.59375 -0.109375 1.0625 -0.28125l0 1.28125q-1.0 0.4375 -2.59375 0.4375zm1.53125 -4.390625l0 -0.53125q0 -0.8125 -0.453125 -1.234375q-0.453125 -0.4375 -1.4375 -0.4375q-1.1875 0 -1.65625 0.515625q-0.46875 0.515625 -0.46875 1.6875l4.015625 0zm2.1045074 -3.34375l1.8125 0l2.125 5.875l2.125 -5.875l1.796875 0l-2.984375 7.578125l-1.875 0l-3.0 -7.578125zm12.604263 7.734375q-2.015625 0 -3.09375 -0.984375q-1.0625 -1.0 -1.0625 -2.984375q0 -1.875 0.9375 -2.90625q0.953125 -1.03125 2.8125 -1.03125q1.671875 0 2.5625 0.890625q0.90625 0.875 0.90625 2.34375l0 1.40625l-5.546875 0q0.125 1.09375 0.78125 1.515625q0.65625 0.421875 2.0625 0.421875q0.578125 0 1.171875 -0.109375q0.59375 -0.109375 1.0625 -0.28125l0 1.28125q-1.0 0.4375 -2.59375 0.4375zm1.53125 -4.390625l0 -0.53125q0 -0.8125 -0.453125 -1.234375q-0.453125 -0.4375 -1.4375 -0.4375q-1.1875 0 -1.65625 0.515625q-0.46875 0.515625 -0.46875 1.6875l4.015625 0zm3.2326355 -3.34375l1.59375 0l0.09375 0.875q0.54685974 -0.359375 1.2968597 -0.640625q0.75 -0.28125 1.484375 -0.40625l0 1.328125q-0.6875 0.140625 -1.484375 0.40625q-0.796875 0.25 -1.2499847 0.546875l0 5.46875l-1.734375 0l0 -7.578125z" fill-rule="nonzero"/><path fill="#000000" fill-opacity="0.0" d="m233.78806 275.62527l0 25.417328" fill-rule="evenodd"/><path stroke="#000000" stroke-width="1.0" stroke-linejoin="round" stroke-linecap="butt" d="m233.78806 275.62527l0 19.417328" fill-rule="evenodd"/><path fill="#000000" stroke="#000000" stroke-width="1.0" stroke-linecap="butt" d="m232.13632 295.0426l1.6517334 4.5381165l1.6517334 -4.5381165z" fill-rule="evenodd"/><path fill="#000000" fill-opacity="0.0" d="m233.78967 376.00656l0 25.417328" fill-rule="evenodd"/><path stroke="#000000" stroke-width="1.0" stroke-linejoin="round" stroke-linecap="butt" d="m233.78967 376.00656l0 19.417328" fill-rule="evenodd"/><path fill="#000000" stroke="#000000" stroke-width="1.0" stroke-linecap="butt" d="m232.13794 395.4239l1.6517334 4.538086l1.6517334 -4.538086z" fill-rule="evenodd"/><path fill="#000000" fill-opacity="0.0" d="m233.78937 460.41864l0 24.999573l-116.92035 0l0 -146.88934l25.014847 0" fill-rule="evenodd"/><path stroke="#000000" stroke-width="1.0" stroke-linejoin="round" stroke-linecap="butt" d="m233.78937 460.41864l0 24.999573l-116.92036 0l0 -146.88934l19.014854 0" fill-rule="evenodd"/><path fill="#000000" stroke="#000000" stroke-width="1.0" stroke-linecap="butt" d="m135.88387 340.1806l4.538086 -1.6517334l-4.538086 -1.6517334z" fill-rule="evenodd"/><path fill="#4a86e8" d="m567.13385 206.78609l183.84253 0l0 94.83464l-183.84253 0z" fill-rule="evenodd"/><path fill="#ffffff" d="m581.087 241.21967q-1.875 0 -2.90625 -0.875q-1.03125 -0.890625 -1.03125 -2.640625l0 -5.28125l1.734375 0l0 5.34375q0 1.0625 0.546875 1.5625q0.5625 0.5 1.65625 0.5q1.109375 0 1.671875 -0.5q0.5625 -0.5 0.5625 -1.5625l0 -7.90625l1.71875 0l0 7.84375q0 1.75 -1.03125 2.640625q-1.015625 0.875 -2.921875 0.875zm8.82666 0q-0.875 0 -1.671875 -0.109375q-0.78125 -0.109375 -1.28125 -0.3125l0 -1.46875q0.59375 0.25 1.296875 0.375q0.703125 0.125 1.328125 0.125q1.171875 0 1.671875 -0.203125q0.5 -0.203125 0.5 -0.828125q0 -0.390625 -0.203125 -0.625q-0.1875 -0.234375 -0.53125 -0.375q-0.328125 -0.140625 -1.03125 -0.359375l-0.625 -0.21875q-1.3125 -0.4375 -1.96875 -0.96875q-0.640625 -0.546875 -0.640625 -1.53125q0 -1.15625 0.875 -1.796875q0.890625 -0.65625 2.59375 -0.65625q0.703125 0 1.421875 0.109375q0.71875 0.109375 1.21875 0.265625l0 1.453125q-0.515625 -0.203125 -1.171875 -0.3125q-0.640625 -0.109375 -1.203125 -0.109375q-1.015625 0 -1.53125 0.21875q-0.515625 0.21875 -0.515625 0.78125q0 0.34375 0.203125 0.578125q0.21875 0.21875 0.578125 0.375q0.375 0.140625 1.140625 0.390625l0.46875 0.15625q1.375 0.453125 1.984375 1.015625q0.609375 0.546875 0.609375 1.609375q0 1.21875 -0.9375 1.828125q-0.921875 0.59375 -2.578125 0.59375zm4.907776 -7.53125l1.484375 0l0 0.78125l2.359375 0l-0.0625 1.296875l-3.78125 0l0 -2.078125zm0 4.34375l1.484375 0l0 0.8125l2.359375 0l-0.0625 1.28125l-3.78125 0l0 -2.09375zm5.65271 -0.09375q0 -1.59375 1.265625 -1.984375l-1.734375 -0.421875l0 -1.796875q0.71875 -0.640625 1.78125 -1.046875q1.0625 -0.421875 2.359375 -0.421875q1.96875 0 2.953125 0.8125q1.0 0.8125 1.0 2.625l0 5.359375l-1.734375 0l0 -5.40625q0 -1.109375 -0.515625 -1.546875q-0.515625 -0.4375 -1.765625 -0.4375q-0.78125 0 -1.484375 0.234375q-0.6875 0.21875 -1.09375 0.578125l0 0.296875l1.828125 0.453125l0 1.15625q-0.625 0.15625 -0.890625 0.515625q-0.25 0.34375 -0.25 1.046875l0 3.109375l-1.71875 0l0 -3.125zm12.917419 -2.3125q0 -0.703125 -0.140625 -1.109375q-0.140625 -0.40625 -0.546875 -0.625q-0.40625 -0.21875 -1.171875 -0.21875q-0.515625 0 -1.125 0.109375q-0.59375 0.109375 -1.078125 0.3125l0 -1.34375q0.5 -0.21875 1.1875 -0.34375q0.6875 -0.140625 1.34375 -0.140625q1.734375 0 2.5 0.75q0.78125 0.75 0.78125 2.390625l0 5.65625l-1.75 0l0 -5.4375zm3.789978 -0.03125q0 -1.609375 0.953125 -2.46875q0.96875 -0.859375 2.953125 -0.859375q0.796875 0 1.515625 0.15625l3.171875 0l-0.078125 1.359375l-1.1875 0q0.265625 0.375 0.359375 0.8125q0.109375 0.421875 0.109375 1.0l0 5.46875l-1.734375 0l0 -5.625q0 -1.765625 -2.15625 -1.765625q-1.078125 0 -1.625 0.4375q-0.546875 0.421875 -0.546875 1.328125l0 1.765625q0.703125 -0.578125 1.6875 -0.578125l1.03125 0l0.0625 1.390625l-1.140625 0q-0.984375 0 -1.640625 0.546875l0 2.5l-1.734375 0l0 -5.46875zm13.37915 5.625q-1.609375 0 -2.578125 -1.078125q-0.953125 -1.078125 -0.953125 -3.265625q0 -2.234375 0.734375 -3.421875q0.75 -1.1875 2.109375 -1.1875q0.625 0 1.015625 0.203125q0.390625 0.203125 0.71875 0.625q0.328125 -0.375 0.875 -0.59375q0.546875 -0.234375 1.109375 -0.234375q1.0 0 1.53125 0.609375q0.53125 0.609375 0.53125 1.703125l0 6.484375l-1.75 0l0 -6.21875q0 -0.640625 -0.171875 -0.90625q-0.171875 -0.265625 -0.671875 -0.265625q-0.328125 0 -0.59375 0.1875q-0.265625 0.171875 -0.390625 0.546875l-0.96875 0q-0.203125 -0.40625 -0.421875 -0.5625q-0.203125 -0.171875 -0.5625 -0.171875q-0.796875 0 -1.109375 0.8125q-0.296875 0.8125 -0.296875 2.390625q0 1.578125 0.53125 2.265625q0.53125 0.6875 1.625 0.6875q0.734375 0 1.09375 -0.125l0 1.328125q-0.53125 0.1875 -1.40625 0.1875zm1.3048096 -12.4375l1.4375 0l0 1.109375l4.140625 0l-0.078125 1.21875l-5.5 0l0 -2.328125zm7.96875 12.4375q-1.5 0 -2.59375 -0.46875l0 -1.390625q1.078125 0.46875 2.171875 0.46875q1.109375 0 1.734375 -0.296875q0.640625 -0.3125 0.90625 -0.984375q0.28125 -0.671875 0.28125 -1.796875q0 -1.671875 -0.6875 -2.375q-0.671875 -0.703125 -2.25 -0.703125q-1.109375 0 -2.15625 0.46875l0 -1.390625q1.140625 -0.484375 2.546875 -0.484375q2.125 0 3.171875 1.140625q1.0625 1.125 1.0625 3.34375q0 2.203125 -1.03125 3.34375q-1.015625 1.125 -3.15625 1.125zm7.4832153 -0.15625q-1.671875 0 -1.671875 -1.65625l0 -6.984375l1.734375 0l0 6.546875q0 0.359375 0.171875 0.546875q0.171875 0.171875 0.53125 0.171875l0.640625 0l0 1.375l-1.40625 0zm3.890625 0q-1.6875 0 -1.6875 -1.65625l0 -6.984375l1.734375 0l0 6.546875q0 0.359375 0.15625 0.546875q0.171875 0.171875 0.546875 0.171875l0.65625 0l0 1.375l-1.40625 0zm7.047058 0.15625q-1.875 0 -2.90625 -0.875q-1.03125 -0.890625 -1.03125 -2.640625l0 -5.28125l1.734375 0l0 5.34375q0 1.0625 0.546875 1.5625q0.5625 0.5 1.65625 0.5q1.109375 0 1.671875 -0.5q0.5625 -0.5 0.5625 -1.5625l0 -7.90625l1.71875 0l0 7.84375q0 1.75 -1.03125 2.640625q-1.015625 0.875 -2.921875 0.875zm8.826599 0q-0.875 0 -1.671875 -0.109375q-0.78125 -0.109375 -1.28125 -0.3125l0 -1.46875q0.59375 0.25 1.296875 0.375q0.703125 0.125 1.328125 0.125q1.171875 0 1.671875 -0.203125q0.5 -0.203125 0.5 -0.828125q0 -0.390625 -0.203125 -0.625q-0.1875 -0.234375 -0.53125 -0.375q-0.328125 -0.140625 -1.03125 -0.359375l-0.625 -0.21875q-1.3125 -0.4375 -1.96875 -0.96875q-0.640625 -0.546875 -0.640625 -1.53125q0 -1.15625 0.875 -1.796875q0.890625 -0.65625 2.59375 -0.65625q0.703125 0 1.421875 0.109375q0.71875 0.109375 1.21875 0.265625l0 1.453125q-0.515625 -0.203125 -1.171875 -0.3125q-0.640625 -0.109375 -1.203125 -0.109375q-1.015625 0 -1.53125 0.21875q-0.515625 0.21875 -0.515625 0.78125q0 0.34375 0.203125 0.578125q0.21875 0.21875 0.578125 0.375q0.375 0.140625 1.140625 0.390625l0.46875 0.15625q1.375 0.453125 1.984375 1.015625q0.609375 0.546875 0.609375 1.609375q0 1.21875 -0.9375 1.828125q-0.921875 0.59375 -2.578125 0.59375z" fill-rule="nonzero"/><path fill="#ffffff" d="m578.1495 249.45404l1.90625 0l0 1.4375l-1.90625 0l0 -1.4375zm0.140625 4.359375l-1.140625 0l0.15625 -1.328125l2.734375 0l0 7.578125l-1.75 0l0 -6.25zm3.7874146 -1.328125l1.59375 0l0.078125 0.796875q0.546875 -0.4375 1.265625 -0.703125q0.71875 -0.265625 1.53125 -0.265625q1.46875 0 2.140625 0.6875q0.671875 0.6875 0.671875 2.15625l0 4.90625l-1.71875 0l0 -4.828125q0 -0.890625 -0.375 -1.234375q-0.359375 -0.359375 -1.34375 -0.359375q-0.59375 0 -1.15625 0.25q-0.5625 0.234375 -0.953125 0.625l0 5.546875l-1.734375 0l0 -7.578125zm12.138611 7.734375q-1.203125 0 -1.8125 -0.625q-0.609375 -0.640625 -0.609375 -1.78125l0 -3.96875l-1.109375 0l0 -1.359375l1.109375 0l0 -1.75l1.734375 -0.53125l0 2.28125l2.015625 0l-0.109375 1.359375l-1.90625 0l0 3.859375q0 0.65625 0.296875 0.921875q0.296875 0.265625 1.0 0.265625q0.421875 0 0.90625 -0.15625l0 1.234375q-0.625 0.25 -1.515625 0.25zm8.837402 -10.453125l1.78125 0l3.265625 6.671875l3.25 -6.671875l1.796875 0l0 10.296875l-1.734375 0l0 -7.46875l-2.78125 5.6875l-1.0625 0l-2.796875 -5.6875l0 7.46875l-1.71875 0l0 -10.296875zm14.471436 10.453125q-1.15625 0 -1.921875 -0.59375q-0.765625 -0.609375 -0.765625 -1.71875q0 -1.125 0.75 -1.765625q0.765625 -0.65625 2.296875 -0.65625l2.421875 0l0 -0.328125q0 -0.5625 -0.171875 -0.875q-0.15625 -0.3125 -0.609375 -0.453125q-0.453125 -0.15625 -1.28125 -0.15625q-1.34375 0 -2.515625 0.40625l0 -1.296875q0.546875 -0.203125 1.28125 -0.328125q0.734375 -0.140625 1.5625 -0.140625q1.6875 0 2.546875 0.6875q0.859375 0.6875 0.859375 2.1875l0 4.875l-1.484375 0l-0.125 -0.765625q-0.46875 0.46875 -1.15625 0.703125q-0.6875 0.21875 -1.6875 0.21875zm0.46875 -1.25q0.75 0 1.34375 -0.25q0.59375 -0.25 0.96875 -0.71875l0 -1.328125l-2.390625 0q-0.78125 0 -1.125 0.296875q-0.34375 0.28125 -0.34375 0.90625q0 0.578125 0.390625 0.84375q0.390625 0.25 1.15625 0.25zm8.086365 -2.765625l-2.78125 -3.71875l1.875 0l1.859375 2.515625l1.859375 -2.515625l1.859375 0l-2.765625 3.71875l2.890625 3.859375l-1.890625 0l-1.953125 -2.640625l-1.953125 2.640625l-1.890625 0l2.890625 -3.859375zm6.949524 -6.75l1.90625 0l0 1.4375l-1.90625 0l0 -1.4375zm0.140625 4.359375l-1.140625 0l0.15625 -1.328125l2.734375 0l0 7.578125l-1.75 0l0 -6.25zm3.7874146 -1.328125l1.59375 0l0.078125 0.796875q0.546875 -0.4375 1.265625 -0.703125q0.71875 -0.265625 1.53125 -0.265625q1.46875 0 2.140625 0.6875q0.671875 0.6875 0.671875 2.15625l0 4.90625l-1.71875 0l0 -4.828125q0 -0.890625 -0.375 -1.234375q-0.359375 -0.359375 -1.34375 -0.359375q-0.59375 0 -1.15625 0.25q-0.5625 0.234375 -0.953125 0.625l0 5.546875l-1.734375 0l0 -7.578125zm12.138611 7.734375q-1.203125 0 -1.8125 -0.625q-0.609375 -0.640625 -0.609375 -1.78125l0 -3.96875l-1.109375 0l0 -1.359375l1.109375 0l0 -1.75l1.734375 -0.53125l0 2.28125l2.015625 0l-0.109375 1.359375l-1.90625 0l0 3.859375q0 0.65625 0.296875 0.921875q0.296875 0.265625 1.0 0.265625q0.421875 0 0.90625 -0.15625l0 1.234375q-0.625 0.25 -1.515625 0.25zm3.0736694 -1.265625l1.515625 0l-0.734375 3.03125l-1.265625 0l0.484375 -3.03125zm4.2197266 -9.5l1.90625 0l0 1.4375l-1.90625 0l0 -1.4375zm0.140625 4.359375l-1.140625 0l0.15625 -1.328125l2.734375 0l0 7.578125l-1.75 0l0 -6.25zm3.7874146 -1.328125l1.59375 0l0.078125 0.796875q0.546875 -0.4375 1.265625 -0.703125q0.71875 -0.265625 1.53125 -0.265625q1.46875 0 2.140625 0.6875q0.671875 0.6875 0.671875 2.15625l0 4.90625l-1.71875 0l0 -4.828125q0 -0.890625 -0.375 -1.234375q-0.359375 -0.359375 -1.34375 -0.359375q-0.59375 0 -1.15625 0.25q-0.5625 0.234375 -0.953125 0.625l0 5.546875l-1.734375 0l0 -7.578125zm12.138611 7.734375q-1.203125 0 -1.8125 -0.625q-0.609375 -0.640625 -0.609375 -1.78125l0 -3.96875l-1.109375 0l0 -1.359375l1.109375 0l0 -1.75l1.734375 -0.53125l0 2.28125l2.015625 0l-0.109375 1.359375l-1.90625 0l0 3.859375q0 0.65625 0.296875 0.921875q0.296875 0.265625 1.0 0.265625q0.421875 0 0.90625 -0.15625l0 1.234375q-0.625 0.25 -1.515625 0.25zm8.509277 -7.734375l1.8125 0l2.125 5.875l2.125 -5.875l1.796875 0l-2.984375 7.578125l-1.875 0l-3.0 -7.578125zm10.975525 7.734375q-1.15625 0 -1.921875 -0.59375q-0.765625 -0.609375 -0.765625 -1.71875q0 -1.125 0.75 -1.765625q0.765625 -0.65625 2.296875 -0.65625l2.421875 0l0 -0.328125q0 -0.5625 -0.171875 -0.875q-0.15625 -0.3125 -0.609375 -0.453125q-0.453125 -0.15625 -1.28125 -0.15625q-1.34375 0 -2.515625 0.40625l0 -1.296875q0.546875 -0.203125 1.28125 -0.328125q0.734375 -0.140625 1.5625 -0.140625q1.6875 0 2.546875 0.6875q0.859375 0.6875 0.859375 2.1875l0 4.875l-1.484375 0l-0.125 -0.765625q-0.46875 0.46875 -1.15625 0.703125q-0.6875 0.21875 -1.6875 0.21875zm0.46875 -1.25q0.75 0 1.34375 -0.25q0.59375 -0.25 0.96875 -0.71875l0 -1.328125l-2.390625 0q-0.78125 0 -1.125 0.296875q-0.34375 0.28125 -0.34375 0.90625q0 0.578125 0.390625 0.84375q0.390625 0.25 1.15625 0.25zm7.798889 1.25q-0.953125 0 -1.421875 -0.453125q-0.453125 -0.46875 -0.453125 -1.515625l0 -8.96875l1.734375 0l0 8.8125q0 0.4375 0.15625 0.609375q0.15625 0.15625 0.484375 0.15625q0.390625 0 0.734375 -0.09375l0 1.265625q-0.53125 0.1875 -1.234375 0.1875zm4.939392 0q-1.359375 0 -2.09375 -0.75q-0.734375 -0.765625 -0.734375 -2.203125l0 -4.78125l1.75 0l0 4.78125q0 0.84375 0.40625 1.25q0.421875 0.390625 1.296875 0.390625q0.609375 0 1.15625 -0.21875q0.546875 -0.234375 0.96875 -0.65625l0 -5.546875l1.71875 0l0 7.578125l-1.578125 0l-0.078125 -0.78125q-1.203125 0.9375 -2.8125 0.9375zm10.341736 0q-2.015625 0 -3.09375 -0.984375q-1.0625 -1.0 -1.0625 -2.984375q0 -1.875 0.9375 -2.90625q0.953125 -1.03125 2.8125 -1.03125q1.671875 0 2.5625 0.890625q0.90625 0.875 0.90625 2.34375l0 1.40625l-5.546875 0q0.125 1.09375 0.78125 1.515625q0.65625 0.421875 2.0625 0.421875q0.578125 0 1.171875 -0.109375q0.59375 -0.109375 1.0625 -0.28125l0 1.28125q-1.0 0.4375 -2.59375 0.4375zm1.53125 -4.390625l0 -0.53125q0 -0.8125 -0.453125 -1.234375q-0.453125 -0.4375 -1.4375 -0.4375q-1.1875 0 -1.65625 0.515625q-0.46875 0.515625 -0.46875 1.6875l4.015625 0z" fill-rule="nonzero"/><path fill="#ffffff" d="m578.4932 270.2978l-1.671875 0.28125l0 -1.453125l3.390625 -0.53125l0 10.46875l-1.71875 0l0 -8.765625zm3.916504 7.65625l1.515625 0l-0.734375 3.03125l-1.265625 0l0.484375 -3.03125zm4.2197876 -9.5l1.90625 0l0 1.4375l-1.90625 0l0 -1.4375zm0.140625 4.359375l-1.140625 0l0.15625 -1.328125l2.734375 0l0 7.578125l-1.75 0l0 -6.25zm3.7873535 -1.328125l1.59375 0l0.078125 0.796875q0.546875 -0.4375 1.265625 -0.703125q0.71875 -0.265625 1.53125 -0.265625q1.46875 0 2.140625 0.6875q0.671875 0.6875 0.671875 2.15625l0 4.90625l-1.71875 0l0 -4.828125q0 -0.890625 -0.375 -1.234375q-0.359375 -0.359375 -1.34375 -0.359375q-0.59375 0 -1.15625 0.25q-0.5625 0.234375 -0.953125 0.625l0 5.546875l-1.734375 0l0 -7.578125zm12.138672 7.734375q-1.203125 0 -1.8125 -0.625q-0.609375 -0.640625 -0.609375 -1.78125l0 -3.96875l-1.109375 0l0 -1.359375l1.109375 0l0 -1.75l1.734375 -0.53125l0 2.28125l2.015625 0l-0.109375 1.359375l-1.90625 0l0 3.859375q0 0.65625 0.296875 0.921875q0.296875 0.265625 1.0 0.265625q0.421875 0 0.90625 -0.15625l0 1.234375q-0.625 0.25 -1.515625 0.25zm8.509277 -7.734375l1.8125 0l2.125 5.875l2.125 -5.875l1.796875 0l-2.984375 7.578125l-1.875 0l-3.0 -7.578125zm10.975464 7.734375q-1.15625 0 -1.921875 -0.59375q-0.765625 -0.609375 -0.765625 -1.71875q0 -1.125 0.75 -1.765625q0.765625 -0.65625 2.296875 -0.65625l2.421875 0l0 -0.328125q0 -0.5625 -0.171875 -0.875q-0.15625 -0.3125 -0.609375 -0.453125q-0.453125 -0.15625 -1.28125 -0.15625q-1.34375 0 -2.515625 0.40625l0 -1.296875q0.546875 -0.203125 1.28125 -0.328125q0.734375 -0.140625 1.5625 -0.140625q1.6875 0 2.546875 0.6875q0.859375 0.6875 0.859375 2.1875l0 4.875l-1.484375 0l-0.125 -0.765625q-0.46875 0.46875 -1.15625 0.703125q-0.6875 0.21875 -1.6875 0.21875zm0.46875 -1.25q0.75 0 1.34375 -0.25q0.59375 -0.25 0.96875 -0.71875l0 -1.328125l-2.390625 0q-0.78125 0 -1.125 0.296875q-0.34375 0.28125 -0.34375 0.90625q0 0.578125 0.390625 0.84375q0.390625 0.25 1.15625 0.25zm7.798889 1.25q-0.953125 0 -1.421875 -0.453125q-0.453125 -0.46875 -0.453125 -1.515625l0 -8.96875l1.734375 0l0 8.8125q0 0.4375 0.15625 0.609375q0.15625 0.15625 0.484375 0.15625q0.390625 0 0.734375 -0.09375l0 1.265625q-0.53125 0.1875 -1.234375 0.1875zm4.939392 0q-1.359375 0 -2.09375 -0.75q-0.734375 -0.765625 -0.734375 -2.203125l0 -4.78125l1.75 0l0 4.78125q0 0.84375 0.40625 1.25q0.421875 0.390625 1.296875 0.390625q0.609375 0 1.15625 -0.21875q0.546875 -0.234375 0.96875 -0.65625l0 -5.546875l1.71875 0l0 7.578125l-1.578125 0l-0.078125 -0.78125q-1.203125 0.9375 -2.8125 0.9375zm10.341797 0q-2.015625 0 -3.09375 -0.984375q-1.0625 -1.0 -1.0625 -2.984375q0 -1.875 0.9375 -2.90625q0.953125 -1.03125 2.8125 -1.03125q1.671875 0 2.5625 0.890625q0.90625 0.875 0.90625 2.34375l0 1.40625l-5.546875 0q0.125 1.09375 0.78125 1.515625q0.65625 0.421875 2.0625 0.421875q0.578125 0 1.171875 -0.109375q0.59375 -0.109375 1.0625 -0.28125l0 1.28125q-1.0 0.4375 -2.59375 0.4375zm1.53125 -4.390625l0 -0.53125q0 -0.8125 -0.453125 -1.234375q-0.453125 -0.4375 -1.4375 -0.4375q-1.1875 0 -1.65625 0.515625q-0.46875 0.515625 -0.46875 1.6875l4.015625 0zm2.90448 3.375q0.390625 -0.890625 1.0625 -1.640625q0.671875 -0.765625 1.6875 -1.640625q0.984375 -0.84375 1.390625 -1.265625q0.421875 -0.4375 0.59375 -0.84375q0.171875 -0.421875 0.171875 -1.03125q0 -0.84375 -0.5 -1.265625q-0.484375 -0.421875 -1.578125 -0.421875q-1.15625 0 -2.4375 0.46875l0 -1.53125q0.5625 -0.1875 1.328125 -0.3125q0.765625 -0.125 1.453125 -0.125q1.6875 0 2.578125 0.84375q0.90625 0.84375 0.90625 2.328125q0 1.015625 -0.484375 1.75q-0.484375 0.734375 -1.515625 1.65625l-0.265625 0.25q-0.90625 0.78125 -1.375 1.25q-0.46875 0.46875 -0.796875 1.046875l4.546875 0l0 1.34375l-6.765625 0l0 -0.859375z" fill-rule="nonzero"/><path fill="#000000" fill-opacity="0.0" d="m659.05426 301.6231l0 28.724396" fill-rule="evenodd"/><path stroke="#000000" stroke-width="1.0" stroke-linejoin="round" stroke-linecap="butt" d="m659.0543 301.6231l0 22.724396" fill-rule="evenodd"/><path fill="#000000" stroke="#000000" stroke-width="1.0" stroke-linecap="butt" d="m657.4026 324.3475l1.6517334 4.538086l1.6517334 -4.538086z" fill-rule="evenodd"/><path fill="#0f9d58" d="m573.32153 392.0748l14.826782 -59.307068l148.54327 0l-14.826782 59.307068z" fill-rule="evenodd"/><path fill="#ffffff" d="m604.9573 368.28125q-1.015625 0 -1.453125 -0.421875q-0.4375 -0.421875 -0.4375 -1.375l0 -6.84375l2.171875 0l0 6.28125q0 0.671875 0.65625 0.671875l0.53125 0l0 1.6875l-1.46875 0zm4.09375 0q-1.015625 0 -1.453125 -0.421875q-0.421875 -0.421875 -0.421875 -1.375l0 -6.84375l2.15625 0l0 6.28125q0 0.671875 0.65625 0.671875l0.546875 0l0 1.6875l-1.484375 0zm5.6951294 0.15625q-1.34375 0 -2.171875 -0.65625q-0.828125 -0.65625 -0.828125 -2.0625q0 -1.296875 0.875 -1.984375q0.890625 -0.703125 2.53125 -0.703125l2.453125 0l0 -0.40625q0 -0.8125 -0.453125 -1.140625q-0.453125 -0.328125 -1.578125 -0.328125q-1.515625 0 -2.875 0.4375l0 -1.609375q0.6875 -0.234375 1.546875 -0.359375q0.875 -0.140625 1.671875 -0.140625q0.90625 0 1.546875 0.15625l3.0 0l-0.109375 1.65625l-0.984375 0q0.390625 0.578125 0.390625 1.546875l0 5.4375l-2.15625 0l0 -3.65625l-2.328125 0q-0.734375 0 -1.109375 0.25q-0.375 0.25 -0.375 0.84375q0 0.59375 0.34375 0.828125q0.34375 0.21875 1.1875 0.21875q0.734375 0 1.109375 -0.125l0 1.578125q-0.71875 0.21875 -1.6875 0.21875zm10.514526 0q-1.640625 0 -2.625 -1.0625q-0.984375 -1.0625 -0.984375 -3.234375q0 -2.234375 1.140625 -3.4375q1.15625 -1.21875 3.375 -1.21875q1.46875 0 2.453125 0.5q0.984375 0.484375 1.4375 1.3125q0.453125 0.8125 0.453125 1.765625l0 5.21875l-2.15625 0l0 -5.078125q0 -0.96875 -0.515625 -1.5q-0.5 -0.546875 -1.703125 -0.546875q-2.4375 0 -2.4375 2.984375q0 1.40625 0.484375 2.015625q0.484375 0.609375 1.46875 0.609375q0.734375 0 1.109375 -0.125l0 1.578125q-0.59375 0.21875 -1.5 0.21875zm10.401184 0q-1.015625 0 -1.765625 -0.234375l-2.4375 -5.921875l2.09375 0l1.90625 4.625q1.1875 0 1.71875 -0.796875q0.546875 -0.796875 0.546875 -2.421875q0 -0.96875 -0.1875 -1.5q-0.171875 -0.546875 -0.59375 -0.78125q-0.40625 -0.234375 -1.15625 -0.234375l-0.65625 0l0 -1.53125l0.96875 0q1.890625 0 2.78125 1.0q0.890625 0.984375 0.890625 3.046875q0 2.4375 -1.109375 3.59375q-1.09375 1.15625 -3.0 1.15625zm5.182007 -5.515625q0 -1.625 1.0 -2.53125q1.0 -0.90625 3.078125 -0.90625q2.09375 0 3.078125 0.90625q1.0 0.90625 1.0 2.53125l0 5.359375l-2.171875 0l0 -5.515625q0 -0.78125 -0.5 -1.1875q-0.5 -0.421875 -1.40625 -0.421875q-0.9375 0 -1.421875 0.421875q-0.484375 0.40625 -0.484375 1.1875l0 1.546875q0.671875 -0.515625 1.5 -0.515625l1.03125 0l0.078125 1.71875l-1.15625 0q-0.84375 0 -1.453125 0.46875l0 2.296875l-2.171875 0l0 -5.359375zm5.9855347 -7.109375l2.171875 0l0 2.640625l-2.171875 0l0 -2.640625zm7.125 7.15625q0 -0.921875 -0.359375 -1.359375q-0.359375 -0.453125 -1.328125 -0.453125q-0.5 0 -1.09375 0.125q-0.59375 0.109375 -1.078125 0.296875l0 -1.578125q0.5 -0.234375 1.203125 -0.375q0.703125 -0.140625 1.390625 -0.140625q1.8125 0 2.609375 0.765625q0.8125 0.765625 0.8125 2.421875l0 5.609375l-2.15625 0l0 -5.3125zm7.35437 5.46875q-1.640625 0 -2.625 -1.0625q-0.984375 -1.0625 -0.984375 -3.234375q0 -2.265625 0.78125 -3.453125q0.796875 -1.203125 2.203125 -1.203125q0.640625 0 1.046875 0.203125q0.40625 0.203125 0.671875 0.609375q0.3125 -0.375 0.875 -0.59375q0.578125 -0.21875 1.171875 -0.21875q1.09375 0 1.640625 0.671875q0.5625 0.671875 0.5625 1.828125l0 6.296875l-2.15625 0l0 -5.96875q0 -0.59375 -0.15625 -0.875q-0.15625 -0.28125 -0.578125 -0.28125q-0.296875 0 -0.53125 0.1875q-0.21875 0.1875 -0.3125 0.546875l-1.046875 0q-0.171875 -0.390625 -0.359375 -0.5625q-0.171875 -0.171875 -0.484375 -0.171875q-0.71875 0 -1.0 0.765625q-0.28125 0.765625 -0.28125 2.21875q0 1.40625 0.484375 2.015625q0.484375 0.609375 1.46875 0.609375q0.734375 0 1.109375 -0.125l0 1.578125q-0.59375 0.21875 -1.5 0.21875zm1.3096313 -12.53125l1.765625 0l0 1.078125l3.984375 0l-0.078125 1.46875l-5.671875 0l0 -2.546875zm8.125 12.53125q-1.5625 0 -2.75 -0.515625l0 -1.640625q1.078125 0.484375 2.234375 0.484375q1.515625 0 2.15625 -0.625q0.640625 -0.640625 0.640625 -2.171875q0 -1.546875 -0.640625 -2.171875q-0.640625 -0.640625 -2.15625 -0.640625q-1.15625 0 -2.234375 0.484375l0 -1.640625q1.1875 -0.515625 2.75 -0.515625q2.171875 0 3.25 1.140625q1.078125 1.125 1.078125 3.34375q0 2.203125 -1.078125 3.34375q-1.078125 1.125 -3.25 1.125zm7.606018 -0.15625q-1.015625 0 -1.453125 -0.421875q-0.4375 -0.421875 -0.4375 -1.375l0 -6.84375l2.171875 0l0 6.28125q0 0.671875 0.65625 0.671875l0.53125 0l0 1.6875l-1.46875 0zm5.7249146 0.15625q-1.34375 0 -2.171875 -0.65625q-0.828125 -0.65625 -0.828125 -2.0625q0 -1.296875 0.875 -1.984375q0.890625 -0.703125 2.53125 -0.703125l2.453125 0l0 -0.40625q0 -0.8125 -0.453125 -1.140625q-0.453125 -0.328125 -1.578125 -0.328125q-1.515625 0 -2.875 0.4375l0 -1.609375q0.6875 -0.234375 1.546875 -0.359375q0.875 -0.140625 1.671875 -0.140625q1.9375 0 2.890625 0.828125q0.953125 0.8125 0.953125 2.53125l0 5.4375l-2.15625 0l0 -3.65625l-2.328125 0q-0.734375 0 -1.109375 0.25q-0.375 0.25 -0.375 0.84375q0 0.59375 0.34375 0.828125q0.34375 0.21875 1.1875 0.21875q0.734375 0 1.109375 -0.125l0 1.578125q-0.71875 0.21875 -1.6875 0.21875zm10.61676 0q-1.90625 0 -2.90625 -0.875q-0.984375 -0.875 -0.984375 -2.46875l0 -0.546875q0 -0.5625 0.234375 -1.0q0.234375 -0.453125 0.625 -0.984375q0.265625 -0.328125 0.375 -0.53125q0.125 -0.203125 0.125 -0.390625q0 -0.234375 -0.109375 -0.3125q-0.109375 -0.09375 -0.40625 -0.09375l-1.03125 0l0.171875 -1.59375l2.234375 0q1.328125 0 1.328125 1.234375q0 0.484375 -0.171875 0.875q-0.171875 0.390625 -0.515625 0.953125q-0.34375 0.515625 -0.53125 0.9375q-0.171875 0.40625 -0.171875 0.890625l0 0.6875q0 0.765625 0.4375 1.15625q0.453125 0.390625 1.296875 0.390625q1.765625 0 1.765625 -1.609375l0 -5.515625l2.15625 0l0 5.421875q0 1.578125 -1.046875 2.484375q-1.046875 0.890625 -2.875 0.890625z" fill-rule="nonzero"/><path fill="#cc0000" d="m640.2219 1420.042l69.67786 0l0 0c9.127991 0 16.527649 7.6654053 16.527649 17.121216c0 9.455811 -7.399658 17.121338 -16.527649 17.121338l-69.67786 0l0 0c-9.127991 0 -16.52771 -7.6655273 -16.52771 -17.121338c0 -9.455811 7.399719 -17.121216 16.52771 -17.121216z" fill-rule="evenodd"/><path fill="#ffffff" d="m666.32855 1443.1794q-2.015625 0 -3.09375 -0.984375q-1.0625 -1.0 -1.0625 -2.984375q0 -1.875 0.9375 -2.90625q0.953125 -1.03125 2.8125 -1.03125q1.671875 0 2.5625 0.890625q0.90625 0.875 0.90625 2.34375l0 1.40625l-5.546875 0q0.125 1.09375 0.78125 1.515625q0.65625 0.421875 2.0625 0.421875q0.578125 0 1.171875 -0.109375q0.59375 -0.109375 1.0625 -0.28125l0 1.28125q-1.0 0.4375 -2.59375 0.4375zm1.53125 -4.390625l0 -0.53125q0 -0.8125 -0.453125 -1.234375q-0.453125 -0.4375 -1.4375 -0.4375q-1.1875 0 -1.65625 0.515625q-0.46875 0.515625 -0.46875 1.6875l4.015625 0zm3.232666 -3.34375l1.59375 0l0.078125 0.796875q0.546875 -0.4375 1.265625 -0.703125q0.71875 -0.265625 1.53125 -0.265625q1.46875 0 2.140625 0.6875q0.671875 0.6875 0.671875 2.15625l0 4.90625l-1.71875 0l0 -4.828125q0 -0.890625 -0.375 -1.234375q-0.359375 -0.359375 -1.34375 -0.359375q-0.59375 0 -1.15625 0.25q-0.5625 0.234375 -0.953125 0.625l0 5.546875l-1.734375 0l0 -7.578125zm12.372986 7.734375q-1.640625 0 -2.546875 -0.859375q-0.90625 -0.875 -0.90625 -2.84375q0 -1.328125 0.453125 -2.265625q0.46875 -0.953125 1.28125 -1.4375q0.828125 -0.5 1.875 -0.5q0.671875 0 1.21875 0.171875q0.546875 0.15625 1.046875 0.484375l0 -3.6875l1.734375 0l0 10.78125l-1.484375 0l-0.109375 -0.75q-0.53125 0.484375 -1.140625 0.703125q-0.609375 0.203125 -1.421875 0.203125zm0.46875 -1.3125q1.171875 0 1.953125 -0.796875l0 -3.796875q-0.75 -0.671875 -1.890625 -0.671875q-1.109375 0 -1.671875 0.75q-0.546875 0.734375 -0.546875 2.140625q0 1.328125 0.5 1.859375q0.5 0.515625 1.65625 0.515625z" fill-rule="nonzero"/><path fill="#000000" fill-opacity="0.0" d="m675.02936 1360.7349l0.03149414 59.30713" fill-rule="evenodd"/><path stroke="#000000" stroke-width="1.0" stroke-linejoin="round" stroke-linecap="butt" d="m675.02936 1360.7349l0.028320312 53.30713" fill-rule="evenodd"/><path fill="#000000" stroke="#000000" stroke-width="1.0" stroke-linecap="butt" d="m673.40594 1414.0428l1.6541138 4.5372314l1.649353 -4.5389404z" fill-rule="evenodd"/><path fill="#000000" fill-opacity="0.0" d="m659.05426 392.07718l0 28.724396" fill-rule="evenodd"/><path stroke="#000000" stroke-width="1.0" stroke-linejoin="round" stroke-linecap="butt" d="m659.0543 392.07718l0 22.724426" fill-rule="evenodd"/><path fill="#000000" stroke="#000000" stroke-width="1.0" stroke-linecap="butt" d="m657.4026 414.8016l1.6517334 4.538086l1.6517334 -4.538086z" fill-rule="evenodd"/><path fill="#0f9d58" d="m563.1181 515.6358l23.70868 -94.834656l168.16534 0l-23.70868 94.834656z" fill-rule="evenodd"/><path fill="#ffffff" d="m598.89246 457.00037l2.0 0l0.109375 0.78125q0.515625 -0.34375 1.265625 -0.59375q0.765625 -0.25 1.5 -0.359375l0 1.640625q-0.6875 0.09375 -1.484375 0.328125q-0.78125 0.234375 -1.21875 0.484375l0 5.296875l-2.171875 0l0 -7.578125zm9.521179 7.734375q-2.015625 0 -3.140625 -1.0q-1.125 -1.0 -1.125 -2.96875q0 -1.84375 0.984375 -2.890625q0.984375 -1.046875 2.875 -1.046875q1.71875 0 2.671875 0.90625q0.953125 0.90625 0.953125 2.421875l0 1.375l-5.484375 0q0.15625 0.890625 0.796875 1.25q0.65625 0.34375 1.921875 0.34375q0.609375 0 1.234375 -0.109375q0.640625 -0.125 1.078125 -0.296875l0 1.546875q-1.046875 0.46875 -2.765625 0.46875zm1.328125 -4.53125l0 -0.40625q0 -1.40625 -1.671875 -1.40625q-1.0625 0 -1.5 0.421875q-0.421875 0.421875 -0.421875 1.390625l3.59375 0zm6.406372 4.53125q-1.296875 0 -1.9375 -0.671875q-0.640625 -0.671875 -0.640625 -1.890625l0 -3.515625l-1.078125 0l0 -1.65625l1.078125 0l0 -1.640625l2.15625 -0.640625l0 2.28125l1.921875 0l-0.125 1.65625l-1.796875 0l0 3.375q0 0.609375 0.28125 0.859375q0.28125 0.234375 0.90625 0.234375q0.453125 0 0.921875 -0.15625l0 1.484375q-0.71875 0.28125 -1.6875 0.28125zm5.284912 0q-1.375 0 -2.140625 -0.765625q-0.75 -0.765625 -0.75 -2.21875l0 -4.75l2.15625 0l0 4.703125q0 0.75 0.359375 1.109375q0.375 0.34375 1.125 0.34375q0.546875 0 1.015625 -0.21875q0.46875 -0.21875 0.8125 -0.5625l0 -5.375l2.171875 0l0 7.578125l-2.0 0l-0.078125 -0.71875q-1.109375 0.875 -2.671875 0.875zm6.579468 -7.734375l2.0 0l0.109375 0.78125q0.515625 -0.34375 1.265625 -0.59375q0.765625 -0.25 1.5 -0.359375l0 1.640625q-0.6875 0.09375 -1.484375 0.328125q-0.78125 0.234375 -1.21875 0.484375l0 5.296875l-2.171875 0l0 -7.578125zm6.0480347 0l2.0 0l0.078125 0.71875q0.515625 -0.390625 1.21875 -0.640625q0.703125 -0.25 1.453125 -0.25q1.5 0 2.1875 0.703125q0.703125 0.6875 0.703125 2.1875l0 4.859375l-2.15625 0l0 -4.75q0 -0.78125 -0.328125 -1.09375q-0.3125 -0.3125 -1.15625 -0.3125q-0.484375 0 -0.984375 0.21875q-0.5 0.203125 -0.84375 0.5625l0 5.375l-2.171875 0l0 -7.578125zm15.152039 2.21875q0 -1.625 1.0 -2.53125q1.0 -0.90625 3.078125 -0.90625q2.09375 0 3.078125 0.90625q1.0 0.90625 1.0 2.53125l0 5.359375l-2.171875 0l0 -5.515625q0 -0.78125 -0.5 -1.1875q-0.5 -0.421875 -1.40625 -0.421875q-0.9375 0 -1.421875 0.421875q-0.484375 0.40625 -0.484375 1.1875l0 1.546875q0.671875 -0.515625 1.5 -0.515625l1.03125 0l0.078125 1.71875l-1.15625 0q-0.84375 0 -1.453125 0.46875l0 2.296875l-2.171875 0l0 -5.359375zm5.9855347 -7.109375l2.171875 0l0 2.640625l-2.171875 0l0 -2.640625zm7.125 7.15625q0 -0.921875 -0.359375 -1.359375q-0.359375 -0.453125 -1.328125 -0.453125q-0.5 0 -1.09375 0.125q-0.59375 0.109375 -1.078125 0.296875l0 -1.578125q0.5 -0.234375 1.203125 -0.375q0.703125 -0.140625 1.390625 -0.140625q1.8125 0 2.609375 0.765625q0.8125 0.765625 0.8125 2.421875l0 5.609375l-2.15625 0l0 -5.3125zm4.057495 -3.328125l1.984375 0l0.09375 0.84375q0.59375 -0.46875 1.359375 -0.734375q0.765625 -0.265625 1.640625 -0.265625q1.359375 0 2.125 0.828125q0.78125 0.828125 0.78125 2.28125l0 5.6875l-2.15625 0l0 -5.546875q0 -0.828125 -0.390625 -1.203125q-0.375 -0.375 -1.15625 -0.375q-0.59375 0 -1.1875 0.265625q-0.578125 0.25 -0.921875 0.640625l0 6.21875l-2.171875 0l0 -8.640625zm1.1067505 -2.65625l5.125 0l0 -1.296875l1.765625 0l0 2.765625l-7.0 0l0.109375 -1.46875zm5.125 -4.5707397l1.765625 0l0 2.234375l-1.765625 0l0 -2.234375zm8.65625 16.023865q-1.671875 0 -2.921875 -1.0l-0.09375 0.84375l-1.984375 0l0 -8.640625l2.171875 0l0 6.21875q0.34375 0.390625 0.921875 0.65625q0.59375 0.25 1.1875 0.25q0.78125 0 1.15625 -0.375q0.390625 -0.390625 0.390625 -1.265625l0 -5.484375l2.15625 0l0 5.609375q0 1.5 -0.796875 2.34375q-0.796875 0.84375 -2.1875 0.84375zm7.9505005 -5.46875q0 -0.921875 -0.359375 -1.359375q-0.359375 -0.453125 -1.328125 -0.453125q-0.5 0 -1.09375 0.125q-0.59375 0.109375 -1.078125 0.296875l0 -1.578125q0.5 -0.234375 1.203125 -0.375q0.703125 -0.140625 1.390625 -0.140625q1.8125 0 2.609375 0.765625q0.8125 0.765625 0.8125 2.421875l0 5.609375l-2.15625 0l0 -5.3125zm4.135681 2.5625q0 -0.8125 0.265625 -1.34375q0.28125 -0.546875 0.96875 -0.75l-1.625 -0.4375l0 -2.0625q0.75 -0.625 1.84375 -1.03125q1.09375 -0.421875 2.40625 -0.421875q2.046875 0 3.078125 0.828125q1.03125 0.8125 1.03125 2.75l0 5.21875l-2.15625 0l0 -5.265625q0 -1.0 -0.46875 -1.421875q-0.46875 -0.4375 -1.59375 -0.4375q-0.6875 0 -1.296875 0.21875q-0.609375 0.203125 -0.984375 0.515625l0 0.234375l1.765625 0.46875l0 1.3125q-0.625 0.171875 -0.84375 0.53125q-0.21875 0.359375 -0.21875 1.109375l0 2.734375l-2.171875 0l0 -2.75z" fill-rule="nonzero"/><path fill="#ffffff" d="m598.89246 474.93787l1.984375 0l0.09375 0.84375q0.59375 -0.46875 1.359375 -0.734375q0.765625 -0.265625 1.640625 -0.265625q1.359375 0 2.125 0.828125q0.78125 0.828125 0.78125 2.28125l0 5.6875l-2.15625 0l0 -5.546875q0 -0.828125 -0.390625 -1.203125q-0.375 -0.375 -1.15625 -0.375q-0.59375 0 -1.1875 0.265625q-0.578125 0.25 -0.921875 0.640625l0 6.21875l-2.171875 0l0 -8.640625zm1.1067505 -2.65625l5.125 0l0 -1.296875l1.765625 0l0 2.765625l-7.0 0l0.109375 -1.46875zm5.125 -4.5707397l1.765625 0l0 2.234375l-1.765625 0l0 -2.234375zm6.390625 16.023865q-1.34375 0 -2.171875 -0.65625q-0.828125 -0.65625 -0.828125 -2.0625q0 -1.296875 0.875 -1.984375q0.890625 -0.703125 2.53125 -0.703125l2.453125 0l0 -0.40625q0 -0.8125 -0.453125 -1.140625q-0.453125 -0.328125 -1.578125 -0.328125q-1.515625 0 -2.875 0.4375l0 -1.609375q0.6875 -0.234375 1.546875 -0.359375q0.875 -0.140625 1.671875 -0.140625q0.90625 0 1.546875 0.15625l3.0 0l-0.109375 1.65625l-0.984375 0q0.390625 0.578125 0.390625 1.546875l0 5.4375l-2.15625 0l0 -3.65625l-2.328125 0q-0.734375 0 -1.109375 0.25q-0.375 0.25 -0.375 0.84375q0 0.59375 0.34375 0.828125q0.34375 0.21875 1.1875 0.21875q0.734375 0 1.109375 -0.125l0 1.578125q-0.71875 0.21875 -1.6875 0.21875zm3.4832764 2.03125l-0.96875 0l0.078125 -1.375l2.703125 0l0 3.234375l-1.8125 0l0 -1.859375zm7.03125 -2.03125q-1.640625 0 -2.625 -1.0625q-0.984375 -1.0625 -0.984375 -3.234375q0 -2.234375 1.140625 -3.4375q1.15625 -1.21875 3.375 -1.21875q1.46875 0 2.453125 0.5q0.984375 0.484375 1.4375 1.3125q0.453125 0.8125 0.453125 1.765625l0 5.21875l-2.15625 0l0 -5.078125q0 -0.96875 -0.515625 -1.5q-0.5 -0.546875 -1.703125 -0.546875q-2.4375 0 -2.4375 2.984375q0 1.40625 0.484375 2.015625q0.484375 0.609375 1.46875 0.609375q0.734375 0 1.109375 -0.125l0 1.578125q-0.59375 0.21875 -1.5 0.21875z" fill-rule="nonzero"/><path fill="#000000" fill-opacity="0.0" d="m655.0044 515.6362l0 28.724426" fill-rule="evenodd"/><path stroke="#000000" stroke-width="1.0" stroke-linejoin="round" stroke-linecap="butt" d="m655.00446 515.6362l0 22.724426" fill-rule="evenodd"/><path fill="#000000" stroke="#000000" stroke-width="1.0" stroke-linecap="butt" d="m653.3527 538.36066l1.6517334 4.538086l1.6517334 -4.538086z" fill-rule="evenodd"/><path fill="#cc0000" d="m620.1668 544.35956l69.67786 0l0 0c9.127991 0 16.527649 7.6654663 16.527649 17.121277c0 9.455811 -7.399658 17.121277 -16.527649 17.121277l-69.67786 0l0 0c-9.127991 0 -16.52771 -7.6654663 -16.52771 -17.121277c0 -9.455811 7.399719 -17.121277 16.52771 -17.121277z" fill-rule="evenodd"/><path fill="#ffffff" d="m646.27344 567.4971q-2.015625 0 -3.09375 -0.984375q-1.0625 -1.0 -1.0625 -2.984375q0 -1.875 0.9375 -2.90625q0.953125 -1.03125 2.8125 -1.03125q1.671875 0 2.5625 0.890625q0.90625 0.875 0.90625 2.34375l0 1.40625l-5.546875 0q0.125 1.09375 0.78125 1.515625q0.65625 0.421875 2.0625 0.421875q0.578125 0 1.171875 -0.109375q0.59375 -0.109375 1.0625 -0.28125l0 1.28125q-1.0 0.4375 -2.59375 0.4375zm1.53125 -4.390625l0 -0.53125q0 -0.8125 -0.453125 -1.234375q-0.453125 -0.4375 -1.4375 -0.4375q-1.1875 0 -1.65625 0.515625q-0.46875 0.515625 -0.46875 1.6875l4.015625 0zm3.232666 -3.34375l1.59375 0l0.078125 0.796875q0.546875 -0.4375 1.265625 -0.703125q0.71875 -0.265625 1.53125 -0.265625q1.46875 0 2.140625 0.6875q0.671875 0.6875 0.671875 2.15625l0 4.90625l-1.71875 0l0 -4.828125q0 -0.890625 -0.375 -1.234375q-0.359375 -0.359375 -1.34375 -0.359375q-0.59375 0 -1.15625 0.25q-0.5625 0.234375 -0.953125 0.625l0 5.546875l-1.734375 0l0 -7.578125zm12.372986 7.734375q-1.640625 0 -2.546875 -0.859375q-0.90625 -0.875 -0.90625 -2.84375q0 -1.328125 0.453125 -2.265625q0.46875 -0.953125 1.28125 -1.4375q0.828125 -0.5 1.875 -0.5q0.671875 0 1.21875 0.171875q0.546875 0.15625 1.046875 0.484375l0 -3.6875l1.734375 0l0 10.78125l-1.484375 0l-0.109375 -0.75q-0.53125 0.484375 -1.140625 0.703125q-0.609375 0.203125 -1.421875 0.203125zm0.46875 -1.3125q1.171875 0 1.953125 -0.796875l0 -3.796875q-0.75 -0.671875 -1.890625 -0.671875q-1.109375 0 -1.671875 0.75q-0.546875 0.734375 -0.546875 2.140625q0 1.328125 0.5 1.859375q0.5 0.515625 1.65625 0.515625z" fill-rule="nonzero"/></g></svg>