<svg version="1.1" viewBox="0.0 0.0 960.0 720.0" fill="none" stroke="none" stroke-linecap="square" stroke-miterlimit="10" xmlns:xlink="http://www.w3.org/1999/xlink" xmlns="http://www.w3.org/2000/svg"><clipPath id="p.0"><path d="m0 0l960.0 0l0 720.0l-960.0 0l0 -720.0z" clip-rule="nonzero"/></clipPath><g clip-path="url(#p.0)"><path fill="#000000" fill-opacity="0.0" d="m0 0l960.0 0l0 720.0l-960.0 0z" fill-rule="evenodd"/><path fill="#cc0000" d="m108.04267 20.72441l97.32444 0l0 0c12.749771 0 23.085495 9.58308 23.085495 21.40441c0 11.821331 -10.335724 21.404411 -23.085495 21.404411l-97.32444 0l0 0c-12.749771 0 -23.085495 -9.58308 -23.085495 -21.404411c0 -11.821329 10.335724 -21.40441 23.085495 -21.40441z" fill-rule="evenodd"/><path fill="#ffffff" d="m143.82985 48.14507q-2.0 0 -3.21875 -0.515625l0 -1.53125q1.5 0.578125 3.0625 0.578125q1.296875 0 1.875 -0.296875q0.59375 -0.3125 0.59375 -1.140625q0 -0.53125 -0.25 -0.84375q-0.25 -0.3125 -0.8125 -0.53125q-0.5625 -0.234375 -1.671875 -0.515625q-1.671875 -0.4375 -2.34375 -1.09375q-0.671875 -0.671875 -0.671875 -1.828125q0 -1.375 1.0 -2.140625q1.015625 -0.765625 2.953125 -0.765625q0.84375 0 1.640625 0.125q0.796875 0.125 1.28125 0.296875l0 1.53125q-1.203125 -0.453125 -2.6875 -0.453125q-1.21875 0 -1.828125 0.3125q-0.59375 0.3125 -0.59375 1.09375q0 0.453125 0.21875 0.734375q0.21875 0.28125 0.734375 0.5q0.53125 0.21875 1.5625 0.46875q1.8125 0.46875 2.515625 1.203125q0.703125 0.734375 0.703125 1.90625q0 1.375 -1.03125 2.140625q-1.03125 0.765625 -3.03125 0.765625zm8.101273 0q-1.203125 0 -1.8125 -0.625q-0.609375 -0.640625 -0.609375 -1.78125l0 -3.96875l-1.109375 0l0 -1.359375l1.109375 0l0 -1.75l1.734375 -0.53125l0 2.28125l2.015625 0l-0.109375 1.359375l-1.90625 0l0 3.859375q0 0.65625 0.296875 0.921875q0.296875 0.265625 1.0 0.265625q0.421875 0 0.90625 -0.15625l0 1.234375q-0.625 0.25 -1.515625 0.25zm4.7167664 0q-1.15625 0 -1.921875 -0.59375q-0.765625 -0.609375 -0.765625 -1.71875q0 -1.125 0.75 -1.765625q0.765625 -0.65625 2.296875 -0.65625l2.421875 0l0 -0.328125q0 -0.5625 -0.171875 -0.875q-0.15625 -0.3125 -0.609375 -0.453125q-0.453125 -0.15625 -1.28125 -0.15625q-1.34375 0 -2.515625 0.40625l0 -1.296875q0.546875 -0.203125 1.28125 -0.328125q0.734375 -0.140625 1.5625 -0.140625q1.6875 0 2.546875 0.6875q0.859375 0.6875 0.859375 2.1875l0 4.875l-1.484375 0l-0.125 -0.765625q-0.46875 0.46875 -1.15625 0.703125q-0.6875 0.21875 -1.6875 0.21875zm0.46875 -1.25q0.75 0 1.34375 -0.25q0.59375 -0.25 0.96875 -0.71875l0 -1.328125l-2.390625 0q-0.78125 0 -1.125 0.296875q-0.34375 0.28125 -0.34375 0.90625q0 0.578125 0.390625 0.84375q0.390625 0.25 1.15625 0.25zm5.923889 -6.484375l1.59375 0l0.09375 0.875q0.546875 -0.359375 1.296875 -0.640625q0.75 -0.28125 1.484375 -0.40625l0 1.328125q-0.6875 0.140625 -1.484375 0.40625q-0.796875 0.25 -1.25 0.546875l0 5.46875l-1.734375 0l0 -7.578125zm8.762634 7.734375q-1.203125 0 -1.8125 -0.625q-0.609375 -0.640625 -0.609375 -1.78125l0 -3.96875l-1.109375 0l0 -1.359375l1.109375 0l0 -1.75l1.734375 -0.53125l0 2.28125l2.015625 0l-0.109375 1.359375l-1.90625 0l0 3.859375q0 0.65625 0.296875 0.921875q0.296875 0.265625 1.0 0.265625q0.421875 0 0.90625 -0.15625l0 1.234375q-0.625 0.25 -1.515625 0.25z" fill-rule="nonzero"/><path fill="#4a86e8" d="m56.986595 99.44971l199.43451 0l0 73.74153l-199.43451 0z" fill-rule="evenodd"/><path fill="#000000" fill-opacity="0.0" d="m81.91591 99.44971l0 73.74153m149.57588 -73.74153l0 73.74153" fill-rule="evenodd"/><path fill="#000000" fill-opacity="0.0" d="m56.986595 99.44971l199.43451 0l0 73.74153l-199.43451 0z" fill-rule="evenodd"/><path stroke="#ffffff" stroke-width="3.0" stroke-linejoin="round" stroke-linecap="butt" d="m81.91591 99.44971l0 73.74153m149.57588 -73.74153l0 73.74153" fill-rule="evenodd"/><path stroke="#ffffff" stroke-width="3.0" stroke-linejoin="round" stroke-linecap="butt" d="m56.986595 99.44971l199.43451 0l0 73.74153l-199.43451 0z" fill-rule="evenodd"/><path fill="#ffffff" d="m132.08305 142.33672q-0.765625 0 -1.484375 -0.109375q-0.71875 -0.09375 -1.1875 -0.265625l0 -1.484375q0.53125 0.21875 1.171875 0.328125q0.65625 0.109375 1.28125 0.109375q0.921875 0 1.28125 -0.15625q0.375 -0.15625 0.375 -0.625q0 -0.421875 -0.34375 -0.609375q-0.328125 -0.203125 -1.25 -0.5l-0.484375 -0.15625q-1.140625 -0.390625 -1.671875 -0.859375q-0.53125 -0.46875 -0.53125 -1.390625q0 -1.078125 0.765625 -1.625q0.765625 -0.5625 2.40625 -0.5625q0.625 0 1.21875 0.109375q0.609375 0.09375 1.03125 0.234375l0 1.453125q-0.421875 -0.171875 -0.96875 -0.265625q-0.53125 -0.09375 -1.015625 -0.09375q-0.875 0 -1.28125 0.15625q-0.390625 0.140625 -0.390625 0.5625q0 0.359375 0.296875 0.546875q0.3125 0.1875 1.203125 0.46875l0.34375 0.109375q0.9375 0.296875 1.4375 0.59375q0.515625 0.296875 0.75 0.71875q0.234375 0.421875 0.234375 1.09375q0 2.21875 -3.1875 2.21875zm8.736511 0q-2.015625 0 -3.09375 -0.984375q-1.0625 -1.0 -1.0625 -2.984375q0 -1.875 0.9375 -2.90625q0.953125 -1.03125 2.8125 -1.03125q1.671875 0 2.5625 0.890625q0.90625 0.875 0.90625 2.34375l0 1.40625l-5.546875 0q0.125 1.09375 0.78125 1.515625q0.65625 0.421875 2.0625 0.421875q0.578125 0 1.171875 -0.109375q0.59375 -0.109375 1.0625 -0.28125l0 1.28125q-1.0 0.4375 -2.59375 0.4375zm1.53125 -4.390625l0 -0.53125q0 -0.8125 -0.453125 -1.234375q-0.453125 -0.4375 -1.4375 -0.4375q-1.1875 0 -1.65625 0.515625q-0.46875 0.515625 -0.46875 1.6875l4.015625 0zm6.1232605 4.390625q-1.203125 0 -1.8125 -0.625q-0.609375 -0.640625 -0.609375 -1.78125l0 -3.96875l-1.109375 0l0 -1.359375l1.109375 0l0 -1.75l1.734375 -0.53125l0 2.28125l2.015625 0l-0.109375 1.359375l-1.90625 0l0 3.859375q0 0.65625 0.296875 0.921875q0.296875 0.265625 1.0 0.265625q0.421875 0 0.90625 -0.15625l0 1.234375q-0.625 0.25 -1.515625 0.25zm5.25177 0q-1.359375 0 -2.09375 -0.75q-0.734375 -0.765625 -0.734375 -2.203125l0 -4.78125l1.75 0l0 4.78125q0 0.84375 0.40625 1.25q0.421875 0.390625 1.296875 0.390625q0.609375 0 1.15625 -0.21875q0.546875 -0.234375 0.96875 -0.65625l0 -5.546875l1.71875 0l0 7.578125l-1.578125 0l-0.078125 -0.78125q-1.203125 0.9375 -2.8125 0.9375zm6.5136414 -7.734375l1.5 0l0.09375 0.75q0.53125 -0.46875 1.140625 -0.6875q0.609375 -0.234375 1.421875 -0.234375q1.6875 0 2.5625 0.921875q0.890625 0.90625 0.890625 2.90625q0 2.015625 -0.9375 3.046875q-0.921875 1.03125 -2.578125 1.03125q-1.375 0 -2.359375 -0.640625l0 3.9375l-1.734375 0l0 -11.03125zm3.640625 6.421875q1.125 0 1.65625 -0.6875q0.546875 -0.6875 0.546875 -2.09375q0 -1.34375 -0.5 -1.90625q-0.484375 -0.578125 -1.65625 -0.578125q-1.171875 0 -1.953125 0.8125l0 3.78125q0.765625 0.671875 1.90625 0.671875zm13.419525 2.3125q-1.109375 -0.984375 -1.640625 -2.59375q-0.515625 -1.609375 -0.515625 -3.40625q0 -1.8125 0.515625 -3.40625q0.53125 -1.609375 1.640625 -2.59375l1.96875 0q-2.359375 2.046875 -2.359375 6.0q0 3.953125 2.359375 6.0l-1.96875 0zm2.7312622 0q1.234375 -1.078125 1.796875 -2.578125q0.5625 -1.5 0.5625 -3.421875q0 -3.96875 -2.359375 -6.0l1.984375 0q1.09375 0.984375 1.609375 2.59375q0.53125 1.609375 0.53125 3.40625q0 1.796875 -0.53125 3.40625q-0.515625 1.609375 -1.609375 2.59375l-1.984375 0z" fill-rule="nonzero"/><path fill="#4a86e8" d="m56.98843 206.398l199.43451 0l0 73.74153l-199.43451 0z" fill-rule="evenodd"/><path fill="#000000" fill-opacity="0.0" d="m81.91774 206.398l0 73.74153m149.57588 -73.74153l0 73.74153" fill-rule="evenodd"/><path fill="#000000" fill-opacity="0.0" d="m56.98843 206.398l199.43451 0l0 73.74153l-199.43451 0z" fill-rule="evenodd"/><path stroke="#ffffff" stroke-width="3.0" stroke-linejoin="round" stroke-linecap="butt" d="m81.91774 206.398l0 73.74153m149.57588 -73.74153l0 73.74153" fill-rule="evenodd"/><path stroke="#ffffff" stroke-width="3.0" stroke-linejoin="round" stroke-linecap="butt" d="m56.98843 206.398l199.43451 0l0 73.74153l-199.43451 0z" fill-rule="evenodd"/><path fill="#ffffff" d="m135.80426 249.28502q-0.953125 0 -1.421875 -0.453125q-0.453125 -0.46875 -0.453125 -1.515625l0 -8.96875l1.734375 0l0 8.8125q0 0.4375 0.15625 0.609375q0.15625 0.15625 0.484375 0.15625q0.390625 0 0.734375 -0.09375l0 1.265625q-0.53125 0.1875 -1.234375 0.1875zm5.51001 0q-3.953125 0 -3.953125 -3.953125q0 -3.953125 3.953125 -3.953125q3.96875 0 3.96875 3.953125q0 3.953125 -3.96875 3.953125zm0 -1.46875q1.203125 0 1.703125 -0.578125q0.5 -0.578125 0.5 -1.90625q0 -1.3125 -0.5 -1.875q-0.5 -0.578125 -1.703125 -0.578125q-1.1875 0 -1.6875 0.578125q-0.5 0.5625 -0.5 1.875q0 1.328125 0.5 1.90625q0.5 0.578125 1.6875 0.578125zm8.896027 1.46875q-3.953125 0 -3.953125 -3.953125q0 -3.953125 3.953125 -3.953125q3.96875 0 3.96875 3.953125q0 3.953125 -3.96875 3.953125zm0 -1.46875q1.203125 0 1.703125 -0.578125q0.5 -0.578125 0.5 -1.90625q0 -1.3125 -0.5 -1.875q-0.5 -0.578125 -1.703125 -0.578125q-1.1875 0 -1.6875 0.578125q-0.5 0.5625 -0.5 1.875q0 1.328125 0.5 1.90625q0.5 0.578125 1.6875 0.578125zm5.6710205 -6.265625l1.5 0l0.09375 0.75q0.53125 -0.46875 1.140625 -0.6875q0.609375 -0.234375 1.421875 -0.234375q1.6875 0 2.5625 0.921875q0.890625 0.90625 0.890625 2.90625q0 2.015625 -0.9375 3.046875q-0.921875 1.03125 -2.578125 1.03125q-1.375 0 -2.359375 -0.640625l0 3.9375l-1.734375 0l0 -11.03125zm3.640625 6.421875q1.125 0 1.65625 -0.6875q0.546875 -0.6875 0.546875 -2.09375q0 -1.34375 -0.5 -1.90625q-0.484375 -0.578125 -1.65625 -0.578125q-1.171875 0 -1.953125 0.8125l0 3.78125q0.765625 0.671875 1.90625 0.671875zm13.419525 2.3125q-1.109375 -0.984375 -1.640625 -2.59375q-0.515625 -1.609375 -0.515625 -3.40625q0 -1.8125 0.515625 -3.40625q0.53125 -1.609375 1.640625 -2.59375l1.96875 0q-2.359375 2.046875 -2.359375 6.0q0 3.953125 2.359375 6.0l-1.96875 0zm2.7312622 0q1.234375 -1.078125 1.796875 -2.578125q0.5625 -1.5 0.5625 -3.421875q0 -3.96875 -2.359375 -6.0l1.984375 0q1.09375 0.984375 1.609375 2.59375q0.53125 1.609375 0.53125 3.40625q0 1.796875 -0.53125 3.40625q-0.515625 1.609375 -1.609375 2.59375l-1.984375 0z" fill-rule="nonzero"/><path fill="#000000" fill-opacity="0.0" d="m156.7049 63.53323l0 35.905514" fill-rule="evenodd"/><path stroke="#000000" stroke-width="1.0" stroke-linejoin="round" stroke-linecap="butt" d="m156.7049 63.53323l0 29.905514" fill-rule="evenodd"/><path fill="#000000" stroke="#000000" stroke-width="1.0" stroke-linecap="butt" d="m155.05316 93.43874l1.6517334 4.5380936l1.6517334 -4.5380936z" fill-rule="evenodd"/><path fill="#000000" fill-opacity="0.0" d="m156.70384 173.19124l0 33.196854" fill-rule="evenodd"/><path stroke="#000000" stroke-width="1.0" stroke-linejoin="round" stroke-linecap="butt" d="m156.70386 173.19124l0 27.196838" fill-rule="evenodd"/><path fill="#000000" stroke="#000000" stroke-width="1.0" stroke-linecap="butt" d="m155.05212 200.38808l1.6517334 4.538101l1.6517334 -4.538101z" fill-rule="evenodd"/><path fill="#000000" fill-opacity="0.0" d="m156.70569 280.13953l0 31.27658l-134.61534 0l0 -68.15846l34.898796 0" fill-rule="evenodd"/><path stroke="#000000" stroke-width="1.0" stroke-linejoin="round" stroke-linecap="butt" d="m156.70567 280.13953l0 31.27658l-134.61533 0l0 -68.15846l28.898794 0" fill-rule="evenodd"/><path fill="#000000" stroke="#000000" stroke-width="1.0" stroke-linecap="butt" d="m50.989147 244.90938l4.5380974 -1.6517334l-4.5380974 -1.6517334z" fill-rule="evenodd"/><path fill="#cc0000" d="m88.26458 348.2861l97.324455 0l0 0c12.749756 0 23.08548 9.583069 23.08548 21.404388c0 11.82135 -10.335724 21.404419 -23.08548 21.404419l-97.324455 0l0 0c-12.7497635 0 -23.085495 -9.583069 -23.085495 -21.404419c0 -11.82132 10.3357315 -21.404388 23.085495 -21.404388z" fill-rule="evenodd"/><path fill="#ffffff" d="m112.306 375.70676q-0.765625 0 -1.484375 -0.109375q-0.71875 -0.09375 -1.1875 -0.265625l0 -1.484375q0.53125 0.21875 1.171875 0.328125q0.65625 0.109375 1.28125 0.109375q0.921875 0 1.28125 -0.15625q0.375 -0.15625 0.375 -0.625q0 -0.421875 -0.34375 -0.609375q-0.328125 -0.203125 -1.25 -0.5l-0.484375 -0.15625q-1.140625 -0.390625 -1.671875 -0.859375q-0.53125 -0.46875 -0.53125 -1.390625q0 -1.078125 0.765625 -1.625q0.765625 -0.5625 2.40625 -0.5625q0.625 0 1.21875 0.109375q0.609375 0.09375 1.03125 0.234375l0 1.453125q-0.421875 -0.171875 -0.96875 -0.265625q-0.53125 -0.09375 -1.015625 -0.09375q-0.875 0 -1.28125 0.15625q-0.390625 0.140625 -0.390625 0.5625q0 0.359375 0.296875 0.546875q0.3125 0.1875 1.203125 0.46875l0.34375 0.109375q0.9375 0.296875 1.4375 0.59375q0.515625 0.296875 0.75 0.71875q0.234375 0.421875 0.234375 1.09375q0 2.21875 -3.1875 2.21875zm8.736511 0q-2.015625 0 -3.09375 -0.984375q-1.0625 -1.0 -1.0625 -2.984375q0 -1.875 0.9375 -2.90625q0.953125 -1.03125 2.8125 -1.03125q1.671875 0 2.5625 0.890625q0.90625 0.875 0.90625 2.34375l0 1.40625l-5.546875 0q0.125 1.09375 0.78125 1.515625q0.65625 0.421875 2.0625 0.421875q0.578125 0 1.171875 -0.109375q0.59375 -0.109375 1.0625 -0.28125l0 1.28125q-1.0 0.4375 -2.59375 0.4375zm1.53125 -4.390625l0 -0.53125q0 -0.8125 -0.453125 -1.234375q-0.453125 -0.4375 -1.4375 -0.4375q-1.1875 0 -1.65625 0.515625q-0.46875 0.515625 -0.46875 1.6875l4.015625 0zm6.1232605 4.390625q-1.203125 0 -1.8125 -0.625q-0.609375 -0.640625 -0.609375 -1.78125l0 -3.96875l-1.109375 0l0 -1.359375l1.109375 0l0 -1.75l1.734375 -0.53125l0 2.28125l2.015625 0l-0.109375 1.359375l-1.90625 0l0 3.859375q0 0.65625 0.296875 0.921875q0.296875 0.265625 1.0 0.265625q0.421875 0 0.90625 -0.15625l0 1.234375q-0.625 0.25 -1.515625 0.25zm5.25177 0q-1.359375 0 -2.09375 -0.75q-0.734375 -0.765625 -0.734375 -2.203125l0 -4.78125l1.75 0l0 4.78125q0 0.84375 0.40625 1.25q0.421875 0.390625 1.296875 0.390625q0.609375 0 1.15625 -0.21875q0.546875 -0.234375 0.96875 -0.65625l0 -5.546875l1.71875 0l0 7.578125l-1.578125 0l-0.078125 -0.78125q-1.203125 0.9375 -2.8125 0.9375zm6.5136414 -7.734375l1.5 0l0.09375 0.75q0.53125 -0.46875 1.140625 -0.6875q0.609375 -0.234375 1.421875 -0.234375q1.6875 0 2.5625 0.921875q0.890625 0.90625 0.890625 2.90625q0 2.015625 -0.9375 3.046875q-0.921875 1.03125 -2.578125 1.03125q-1.375 0 -2.359375 -0.640625l0 3.9375l-1.734375 0l0 -11.03125zm3.640625 6.421875q1.125 0 1.65625 -0.6875q0.546875 -0.6875 0.546875 -2.09375q0 -1.34375 -0.5 -1.90625q-0.484375 -0.578125 -1.65625 -0.578125q-1.171875 0 -1.953125 0.8125l0 3.78125q0.765625 0.671875 1.90625 0.671875zm13.419525 2.3125q-1.109375 -0.984375 -1.640625 -2.59375q-0.515625 -1.609375 -0.515625 -3.40625q0 -1.8125 0.515625 -3.40625q0.53125 -1.609375 1.640625 -2.59375l1.96875 0q-2.359375 2.046875 -2.359375 6.0q0 3.953125 2.359375 6.0l-1.96875 0zm2.7312622 0q1.234375 -1.078125 1.796875 -2.578125q0.5625 -1.5 0.5625 -3.421875q0 -3.96875 -2.359375 -6.0l1.984375 0q1.09375 0.984375 1.609375 2.59375q0.53125 1.609375 0.53125 3.40625q0 1.796875 -0.53125 3.40625q-0.515625 1.609375 -1.609375 2.59375l-1.984375 0z" fill-rule="nonzero"/><path fill="#cc0000" d="m80.07508 631.53796l97.324455 0l0 0c12.749756 0 23.08548 9.583069 23.08548 21.404419c0 11.821289 -10.335724 21.404419 -23.08548 21.404419l-97.324455 0l0 0c-12.7497635 0 -23.085491 -9.58313 -23.085491 -21.404419c0 -11.82135 10.335728 -21.404419 23.085491 -21.404419z" fill-rule="evenodd"/><path fill="#ffffff" d="m123.67041 658.9586q-0.34375 0 -0.75 -0.0625q-0.390625 -0.046875 -0.625 -0.140625l-1.28125 -3.40625l-1.109375 0l0.078125 -1.3125l2.125 0l1.328125 3.546875q1.140625 0.046875 1.828125 -0.71875q0.6875 -0.765625 0.6875 -2.46875q0 -1.125 -0.296875 -1.765625q-0.296875 -0.65625 -0.96875 -0.9375q-0.671875 -0.28125 -1.859375 -0.28125q-1.46875 0 -2.734375 0.421875l0 -1.34375q1.515625 -0.484375 3.203125 -0.484375q2.234375 0 3.28125 1.109375q1.0625 1.109375 1.0625 3.28125q0 1.453125 -0.546875 2.484375q-0.53125 1.03125 -1.4375 1.5625q-0.90625 0.515625 -1.984375 0.515625zm9.604019 0q-1.875 0 -2.90625 -0.875q-1.03125 -0.890625 -1.03125 -2.640625l0 -5.28125l1.734375 0l0 5.34375q0 1.0625 0.546875 1.5625q0.5625 0.5 1.65625 0.5q1.109375 0 1.671875 -0.5q0.5625 -0.5 0.5625 -1.5625l0 -5.34375l1.71875 0l0 5.28125q0 1.75 -1.03125 2.640625q-1.015625 0.875 -2.921875 0.875z" fill-rule="nonzero"/><path fill="#cc0000" d="m377.44736 23.64567l97.32446 0l0 0c12.749756 0 23.08548 9.583078 23.08548 21.40441c0 11.821327 -10.335724 21.404411 -23.08548 21.404411l-97.32446 0l0 0c-12.749756 0 -23.08548 -9.583084 -23.08548 -21.404411c0 -11.821331 10.335724 -21.40441 23.08548 -21.40441z" fill-rule="evenodd"/><path fill="#ffffff" d="m405.20816 51.066326q-0.953125 0 -1.421875 -0.453125q-0.453125 -0.46875 -0.453125 -1.515625l0 -8.96875l1.734375 0l0 8.8125q0 0.4375 0.15625 0.609375q0.15625 0.15625 0.484375 0.15625q0.390625 0 0.734375 -0.09375l0 1.265625q-0.53125 0.1875 -1.234375 0.1875zm5.51001 0q-3.953125 0 -3.953125 -3.953125q0 -3.953125 3.953125 -3.953125q3.96875 0 3.96875 3.953125q0 3.953125 -3.96875 3.953125zm0 -1.46875q1.203125 0 1.703125 -0.578125q0.5 -0.578125 0.5 -1.90625q0 -1.3125 -0.5 -1.875q-0.5 -0.578125 -1.703125 -0.578125q-1.1875 0 -1.6875 0.578125q-0.5 0.5625 -0.5 1.875q0 1.328125 0.5 1.90625q0.5 0.578125 1.6875 0.578125zm8.896027 1.46875q-3.953125 0 -3.953125 -3.953125q0 -3.953125 3.953125 -3.953125q3.96875 0 3.96875 3.953125q0 3.953125 -3.96875 3.953125zm0 -1.46875q1.203125 0 1.703125 -0.578125q0.5 -0.578125 0.5 -1.90625q0 -1.3125 -0.5 -1.875q-0.5 -0.578125 -1.703125 -0.578125q-1.1875 0 -1.6875 0.578125q-0.5 0.5625 -0.5 1.875q0 1.328125 0.5 1.90625q0.5 0.578125 1.6875 0.578125zm5.6710205 -6.265625l1.5 0l0.09375 0.75q0.53125 -0.46875 1.140625 -0.6875q0.609375 -0.234375 1.421875 -0.234375q1.6875 0 2.5625 0.921875q0.890625 0.90625 0.890625 2.90625q0 2.015625 -0.9375 3.046875q-0.921875 1.03125 -2.578125 1.03125q-1.375 0 -2.359375 -0.640625l0 3.9375l-1.734375 0l0 -11.03125zm3.640625 6.421875q1.125 0 1.65625 -0.6875q0.546875 -0.6875 0.546875 -2.09375q0 -1.34375 -0.5 -1.90625q-0.484375 -0.578125 -1.65625 -0.578125q-1.171875 0 -1.953125 0.8125l0 3.78125q0.765625 0.671875 1.90625 0.671875zm13.419525 2.3125q-1.109375 -0.984375 -1.640625 -2.59375q-0.515625 -1.609375 -0.515625 -3.40625q0 -1.8125 0.515625 -3.40625q0.53125 -1.609375 1.640625 -2.59375l1.96875 0q-2.359375 2.046875 -2.359375 6.0q0 3.953125 2.359375 6.0l-1.96875 0zm2.7312622 0q1.234375 -1.078125 1.796875 -2.578125q0.5625 -1.5 0.5625 -3.421875q0 -3.96875 -2.359375 -6.0l1.984375 0q1.09375 0.984375 1.609375 2.59375q0.53125 1.609375 0.53125 3.40625q0 1.796875 -0.53125 3.40625q-0.515625 1.609375 -1.609375 2.59375l-1.984375 0z" fill-rule="nonzero"/><path fill="#000000" fill-opacity="0.0" d="m136.9268 391.0949l0 35.905518" fill-rule="evenodd"/><path stroke="#000000" stroke-width="1.0" stroke-linejoin="round" stroke-linecap="butt" d="m136.9268 391.0949l0 29.905487" fill-rule="evenodd"/><path fill="#000000" stroke="#000000" stroke-width="1.0" stroke-linecap="butt" d="m135.27507 421.0004l1.6517334 4.5381165l1.6517334 -4.5381165z" fill-rule="evenodd"/><path fill="#000000" fill-opacity="0.0" d="m128.7373 595.63245l0 35.905518" fill-rule="evenodd"/><path stroke="#000000" stroke-width="1.0" stroke-linejoin="round" stroke-linecap="butt" d="m128.7373 595.63245l0 29.905518" fill-rule="evenodd"/><path fill="#000000" stroke="#000000" stroke-width="1.0" stroke-linecap="butt" d="m127.08557 625.53796l1.6517334 4.538086l1.6517334 -4.538086z" fill-rule="evenodd"/><path fill="#000000" fill-opacity="0.0" d="m426.1096 66.45449l0 35.90551" fill-rule="evenodd"/><path stroke="#000000" stroke-width="1.0" stroke-linejoin="round" stroke-linecap="butt" d="m426.1096 66.45449l0 29.90551" fill-rule="evenodd"/><path fill="#000000" stroke="#000000" stroke-width="1.0" stroke-linecap="butt" d="m424.45786 96.36l1.6517334 4.538101l1.6517334 -4.538101z" fill-rule="evenodd"/><path fill="#cc0000" d="m377.44736 640.5235l97.32446 0l0 0c12.749756 0 23.08548 9.58313 23.08548 21.404419c0 11.82135 -10.335724 21.404419 -23.08548 21.404419l-97.32446 0l0 0c-12.749756 0 -23.08548 -9.583069 -23.08548 -21.404419c0 -11.821289 10.335724 -21.404419 23.08548 -21.404419z" fill-rule="evenodd"/><path fill="#ffffff" d="m421.0427 667.94415q-0.34375 0 -0.75 -0.0625q-0.390625 -0.046875 -0.625 -0.140625l-1.28125 -3.40625l-1.109375 0l0.078125 -1.3125l2.125 0l1.328125 3.546875q1.140625 0.046875 1.828125 -0.71875q0.6875 -0.765625 0.6875 -2.46875q0 -1.125 -0.296875 -1.765625q-0.296875 -0.65625 -0.96875 -0.9375q-0.671875 -0.28125 -1.859375 -0.28125q-1.46875 0 -2.734375 0.421875l0 -1.34375q1.515625 -0.484375 3.203125 -0.484375q2.234375 0 3.28125 1.109375q1.0625 1.109375 1.0625 3.28125q0 1.453125 -0.546875 2.484375q-0.53125 1.03125 -1.4375 1.5625q-0.90625 0.515625 -1.984375 0.515625zm9.604034 0q-1.875 0 -2.90625 -0.875q-1.03125 -0.890625 -1.03125 -2.640625l0 -5.28125l1.734375 0l0 5.34375q0 1.0625 0.546875 1.5625q0.5625 0.5 1.65625 0.5q1.109375 0 1.671875 -0.5q0.5625 -0.5 0.5625 -1.5625l0 -5.34375l1.71875 0l0 5.28125q0 1.75 -1.03125 2.640625q-1.015625 0.875 -2.921875 0.875z" fill-rule="nonzero"/><path fill="#000000" fill-opacity="0.0" d="m426.1096 604.618l0 35.905518" fill-rule="evenodd"/><path stroke="#000000" stroke-width="1.0" stroke-linejoin="round" stroke-linecap="butt" d="m426.1096 604.61804l0 29.905518" fill-rule="evenodd"/><path fill="#000000" stroke="#000000" stroke-width="1.0" stroke-linecap="butt" d="m424.45786 634.52356l1.6517334 4.538086l1.6517334 -4.538086z" fill-rule="evenodd"/><path fill="#4a86e8" d="m65.17861 427.0016l143.49606 0l0 73.7323l-143.49606 0z" fill-rule="evenodd"/><path fill="#ffffff" d="m85.3349 447.97775q0 -0.8125 0.265625 -1.34375q0.28125 -0.546875 0.96875 -0.75l-1.625 -0.4375l0 -2.0625q0.75 -0.625 1.84375 -1.03125q1.09375 -0.421875 2.40625 -0.421875q2.046875 0 3.078125 0.828125q1.03125 0.8125 1.03125 2.75l0 5.21875l-2.15625 0l0 -5.265625q0 -1.0 -0.46875 -1.421875q-0.46875 -0.4375 -1.59375 -0.4375q-0.6875 0 -1.296875 0.21875q-0.609375 0.203125 -0.984375 0.515625l0 0.234375l1.765625 0.46875l0 1.3125q-0.625 0.171875 -0.84375 0.53125q-0.21875 0.359375 -0.21875 1.109375l0 2.734375l-2.171875 0l0 -2.75zm6.9520264 -6.796875q-0.8125 0 -1.375 -0.515625q-0.5625 -0.53125 -0.5625 -1.328125q0 -0.796875 0.5625 -1.328125q0.5625 -0.53125 1.375 -0.53125q0.8125 0 1.375 0.53125q0.546875 0.53125 0.546875 1.328125q0 0.796875 -0.546875 1.328125q-0.5625 0.515625 -1.375 0.515625zm0 -1.140625q0.28125 0 0.5 -0.21875q0.203125 -0.21875 0.203125 -0.484375q0 -0.296875 -0.203125 -0.5q-0.21875 -0.21875 -0.5 -0.21875q-0.28125 0 -0.5 0.21875q-0.21875 0.203125 -0.21875 0.5q0 0.265625 0.21875 0.484375q0.21875 0.21875 0.5 0.21875zm5.984375 5.375q0 -0.921875 -0.359375 -1.359375q-0.359375 -0.453125 -1.328125 -0.453125q-0.5 0 -1.09375 0.125q-0.59375 0.109375 -1.078125 0.296875l0 -1.578125q0.5 -0.234375 1.203125 -0.375q0.703125 -0.140625 1.390625 -0.140625q1.8125 0 2.609375 0.765625q0.8125 0.765625 0.8125 2.421875l0 5.609375l-2.15625 0l0 -5.3125zm4.0575104 -3.328125l2.171875 0l0 2.625l2.140625 0q0.796875 0 1.125 -0.34375q0.328125 -0.359375 0.328125 -1.109375l0 -1.171875l2.15625 0l0 1.09375q0 1.796875 -1.234375 2.296875q0.640625 0.265625 0.90625 0.765625q0.265625 0.5 0.265625 1.265625l0 3.21875l-2.15625 0l0 -2.96875q0 -0.828125 -0.3125 -1.140625q-0.3125 -0.328125 -1.125 -0.328125l-2.09375 0l0 4.4375l-2.171875 0l0 -8.640625zm12.760025 8.796875q-1.390625 0 -2.203125 -0.84375q-0.796875 -0.84375 -0.796875 -2.34375l0 -5.609375l2.171875 0l0 5.484375q0 0.875 0.375 1.265625q0.390625 0.375 1.171875 0.375q0.59375 0 1.171875 -0.25q0.59375 -0.265625 0.9375 -0.65625l0 -6.21875l2.15625 0l0 8.640625l-1.984375 0l-0.09375 -0.84375q-1.25 1.0 -2.90625 1.0zm10.184891 0q-1.640625 0 -2.625 -1.0625q-0.984375 -1.0625 -0.984375 -3.234375q0 -2.234375 1.140625 -3.4375q1.15625 -1.21875 3.375 -1.21875q1.46875 0 2.453125 0.5q0.984375 0.484375 1.4375 1.3125q0.453125 0.8125 0.453125 1.765625l0 5.21875l-2.15625 0l0 -5.078125q0 -0.96875 -0.515625 -1.5q-0.5 -0.546875 -1.703125 -0.546875q-2.4375 0 -2.4375 2.984375q0 1.40625 0.484375 2.015625q0.484375 0.609375 1.46875 0.609375q0.734375 0 1.109375 -0.125l0 1.578125q-0.59375 0.21875 -1.5 0.21875zm8.823029 -0.15625q-1.03125 0 -1.46875 -0.421875q-0.421875 -0.421875 -0.421875 -1.375l0 -3.453125q0 -0.8125 0.296875 -1.359375q0.3125 -0.5625 0.859375 -1.171875q0.3125 -0.34375 0.453125 -0.546875q0.140625 -0.203125 0.140625 -0.40625q0 -0.40625 -0.234375 -0.5625q-0.21875 -0.171875 -0.71875 -0.171875q-0.859375 0 -1.6875 0.484375l0 -1.5625q0.46875 -0.28125 1.140625 -0.4375q0.671875 -0.171875 1.328125 -0.171875q1.1875 0 1.796875 0.46875q0.625 0.46875 0.625 1.375q0 0.578125 -0.234375 1.0q-0.21875 0.40625 -0.65625 1.0q-0.46875 0.59375 -0.71875 1.0625q-0.234375 0.453125 -0.234375 1.078125l0 2.8125q0 0.671875 0.65625 0.671875l0.546875 0l0 1.6875l-1.46875 0zm3.128128 -8.640625l2.171875 0l0 2.625l2.140625 0q0.796875 0 1.125 -0.34375q0.328125 -0.359375 0.328125 -1.109375l0 -1.171875l2.15625 0l0 1.09375q0 1.796875 -1.234375 2.296875q0.640625 0.265625 0.90625 0.765625q0.265625 0.5 0.265625 1.265625l0 3.21875l-2.15625 0l0 -2.96875q0 -0.828125 -0.3125 -1.140625q-0.3125 -0.328125 -1.125 -0.328125l-2.09375 0l0 4.4375l-2.171875 0l0 -8.640625zm3.978775 -2.609375l-1.25 0l0 -1.46875l2.703125 0l0 1.421875l3.421875 0l-0.078125 1.46875l-4.796875 0l0 -1.421875zm11.54126 0.953125l4.84375 0q1.734375 0 2.625 0.96875q0.90625 0.96875 0.90625 2.578125q0 1.03125 -0.4375 1.84375q-0.4375 0.796875 -1.265625 1.234375q-0.8125 0.4375 -1.890625 0.4375l-2.609375 0l0 3.234375l-2.171875 0l0 -10.296875zm4.328125 5.359375q0.90625 0 1.390625 -0.484375q0.484375 -0.484375 0.484375 -1.328125q0 -0.890625 -0.453125 -1.359375q-0.453125 -0.484375 -1.34375 -0.484375l-2.234375 0l0 3.65625l2.15625 0zm5.808655 -5.734375l2.34375 0l0 1.703125l-2.34375 0l0 -1.703125zm0.171875 4.6875l-1.140625 0l0.203125 -1.59375l3.09375 0l0 7.578125l-2.15625 0l0 -5.984375zm3.9953918 -1.59375l2.0 0l0.078125 0.71875q0.515625 -0.390625 1.21875 -0.640625q0.703125 -0.25 1.453125 -0.25q1.5 0 2.1875 0.703125q0.703125 0.6875 0.703125 2.1875l0 4.859375l-2.15625 0l0 -4.75q0 -0.78125 -0.328125 -1.09375q-0.3125 -0.3125 -1.15625 -0.3125q-0.484375 0 -0.984375 0.21875q-0.5 0.203125 -0.84375 0.5625l0 5.375l-2.171875 0l0 -7.578125zm14.839523 6.53125q0.375 -0.828125 1.0 -1.515625q0.625 -0.703125 1.671875 -1.625l0.421875 -0.375q0.75 -0.6875 1.0625 -1.015625q0.3125 -0.328125 0.4375 -0.671875q0.140625 -0.34375 0.140625 -0.875q0 -0.734375 -0.484375 -1.109375q-0.46875 -0.375 -1.40625 -0.375q-1.234375 0 -2.484375 0.5l0 -1.90625q0.59375 -0.203125 1.40625 -0.328125q0.8125 -0.125 1.5625 -0.125q1.765625 0 2.671875 0.875q0.921875 0.875 0.921875 2.421875q0 0.984375 -0.46875 1.71875q-0.453125 0.734375 -1.40625 1.546875l-0.25 0.21875q-0.71875 0.625 -1.1875 1.09375q-0.46875 0.453125 -0.796875 0.9375l4.203125 0l0 1.65625l-7.015625 0l0 -1.046875z" fill-rule="nonzero"/><path fill="#ffffff" d="m127.29837 469.72775q-1.015625 0 -1.453125 -0.421875q-0.4375 -0.421875 -0.4375 -1.375l0 -6.84375l2.171875 0l0 6.28125q0 0.671875 0.65625 0.671875l0.53125 0l0 1.6875l-1.46875 0zm7.115509 0.15625q-1.953125 0 -3.046875 -0.921875q-1.078125 -0.921875 -1.078125 -2.703125l0 -5.171875l2.171875 0l0 5.203125q0 0.96875 0.484375 1.453125q0.484375 0.46875 1.46875 0.46875q0.96875 0 1.453125 -0.46875q0.484375 -0.484375 0.484375 -1.453125l0 -7.765625l2.171875 0l0 7.734375q0 1.78125 -1.09375 2.703125q-1.078125 0.921875 -3.015625 0.921875zm-2.4523773 -9.5625q-0.984375 0 -1.515625 -0.5q-0.546875 -0.515625 -0.546875 -1.4375q0 -0.90625 0.578125 -1.453125q0.578125 -0.5625 1.640625 -0.5625l3.578125 0l-0.09375 1.203125l-3.28125 0q-0.46875 0 -0.71875 0.1875q-0.25 0.1875 -0.25 0.625q0 0.75 0.75 0.75q0.734375 0 0.734375 -0.640625l0 -0.28125l1.28125 0l0 0.28125q0 0.328125 0.171875 0.46875q0.171875 0.125 0.515625 0.125l0.609375 0l0 1.203125l-0.765625 0q-0.421875 0 -0.734375 -0.125q-0.328125 -0.125 -0.453125 -0.375q-0.15625 0.234375 -0.59375 0.390625q-0.4375 0.140625 -0.90625 0.140625zm11.455399 9.5625q-1.390625 0 -2.203125 -0.84375q-0.796875 -0.84375 -0.796875 -2.34375l0 -5.609375l2.171875 0l0 5.484375q0 0.875 0.375 1.265625q0.390625 0.375 1.171875 0.375q0.59375 0 1.171875 -0.25q0.59375 -0.265625 0.9375 -0.65625l0 -6.21875l2.15625 0l0 8.640625l-1.984375 0l-0.09375 -0.84375q-1.25 1.0 -2.90625 1.0z" fill-rule="nonzero"/><path fill="#ffffff" d="m82.912766 478.43088l2.171875 0l0 10.296875l-2.171875 0l0 -10.296875zm3.9840088 0l1.875 0l4.875 6.859375l0 -6.859375l2.171875 0l0 10.296875l-1.875 0l-4.875 -6.859375l0 6.859375l-2.171875 0l0 -10.296875zm10.736023 0l4.84375 0q1.734375 0 2.625 0.96875q0.90625 0.96875 0.90625 2.578125q0 1.03125 -0.4375 1.84375q-0.4375 0.796875 -1.265625 1.234375q-0.8125 0.4375 -1.890625 0.4375l-2.609375 0l0 3.234375l-2.171875 0l0 -10.296875zm4.328125 5.359375q0.90625 0 1.390625 -0.484375q0.484375 -0.484375 0.484375 -1.328125q0 -0.890625 -0.453125 -1.359375q-0.453125 -0.484375 -1.34375 -0.484375l-2.234375 0l0 3.65625l2.15625 0zm9.771149 5.09375q-2.15625 0 -3.390625 -1.03125q-1.21875 -1.046875 -1.21875 -3.0l0 -6.421875l2.15625 0l0 6.265625q0 1.171875 0.625 1.765625q0.640625 0.578125 1.828125 0.578125q1.1875 0 1.8125 -0.578125q0.625 -0.59375 0.625 -1.765625l0 -6.265625l2.15625 0l0 6.421875q0 1.9375 -1.21875 2.984375q-1.21875 1.046875 -3.375 1.046875zm8.864029 -8.796875l-3.171875 0l0 -1.65625l8.484375 0l0 1.65625l-3.15625 0l0 8.640625l-2.15625 0l0 -8.640625zm6.1802673 8.640625l7.34375 0l0 1.4375l-7.34375 0l0 -1.4375zm8.840515 -10.296875l4.84375 0q1.734375 0 2.625 0.96875q0.90625 0.96875 0.90625 2.578125q0 1.03125 -0.4375 1.84375q-0.4375 0.796875 -1.265625 1.234375q-0.8125 0.4375 -1.890625 0.4375l-2.609375 0l0 3.234375l-2.171875 0l0 -10.296875zm4.328125 5.359375q0.90625 0 1.390625 -0.484375q0.484375 -0.484375 0.484375 -1.328125q0 -0.890625 -0.453125 -1.359375q-0.453125 -0.484375 -1.34375 -0.484375l-2.234375 0l0 3.65625l2.15625 0zm9.771149 5.09375q-2.15625 0 -3.390625 -1.03125q-1.21875 -1.046875 -1.21875 -3.0l0 -6.421875l2.15625 0l0 6.265625q0 1.171875 0.625 1.765625q0.640625 0.578125 1.828125 0.578125q1.1875 0 1.8125 -0.578125q0.625 -0.59375 0.625 -1.765625l0 -6.265625l2.15625 0l0 6.421875q0 1.9375 -1.21875 2.984375q-1.21875 1.046875 -3.375 1.046875zm6.332779 -10.453125l2.171875 0l0 8.640625l5.0625 0l0 1.65625l-7.234375 0l0 -10.296875zm8.416016 0l2.171875 0l0 8.640625l5.0625 0l0 1.65625l-7.234375 0l0 -10.296875zm12.387268 10.453125q-2.15625 0 -3.390625 -1.03125q-1.21875 -1.046875 -1.21875 -3.0l0 -6.421875l2.15625 0l0 6.265625q0 1.171875 0.625 1.765625q0.640625 0.578125 1.828125 0.578125q1.1875 0 1.8125 -0.578125q0.625 -0.59375 0.625 -1.765625l0 -6.265625l2.15625 0l0 6.421875q0 1.9375 -1.21875 2.984375q-1.21875 1.046875 -3.375 1.046875zm6.332779 -10.453125l4.84375 0q1.734375 0 2.625 0.96875q0.90625 0.96875 0.90625 2.578125q0 1.03125 -0.4375 1.84375q-0.4375 0.796875 -1.265625 1.234375q-0.8125 0.4375 -1.890625 0.4375l-2.609375 0l0 3.234375l-2.171875 0l0 -10.296875zm4.328125 5.359375q0.90625 0 1.390625 -0.484375q0.484375 -0.484375 0.484375 -1.328125q0 -0.890625 -0.453125 -1.359375q-0.453125 -0.484375 -1.34375 -0.484375l-2.234375 0l0 3.65625l2.15625 0z" fill-rule="nonzero"/><path fill="#000000" fill-opacity="0.0" d="m128.73782 498.48862l0 35.905487" fill-rule="evenodd"/><path stroke="#000000" stroke-width="1.0" stroke-linejoin="round" stroke-linecap="butt" d="m128.73782 498.4886l0 29.905518" fill-rule="evenodd"/><path fill="#000000" stroke="#000000" stroke-width="1.0" stroke-linecap="butt" d="m127.0861 528.3941l1.6517258 4.538086l1.6517334 -4.538086z" fill-rule="evenodd"/><path fill="#4a86e8" d="m69.026245 536.6378l127.11812 0l0 58.992126l-127.11812 0z" fill-rule="evenodd"/><path fill="#ffffff" d="m87.97758 550.24384q0 -0.8125 0.265625 -1.34375q0.28125 -0.546875 0.96875 -0.75l-1.625 -0.4375l0 -2.0625q0.75 -0.625 1.84375 -1.03125q1.09375 -0.421875 2.40625 -0.421875q2.046875 0 3.078125 0.828125q1.03125 0.8125 1.03125 2.75l0 5.21875l-2.15625 0l0 -5.265625q0 -1.0 -0.46875 -1.421875q-0.46875 -0.4375 -1.59375 -0.4375q-0.6875 0 -1.296875 0.21875q-0.609375 0.203125 -0.984375 0.515625l0 0.234375l1.765625 0.46875l0 1.3125q-0.625 0.171875 -0.84375 0.53125q-0.21875 0.359375 -0.21875 1.109375l0 2.734375l-2.171875 0l0 -2.75zm6.9520264 -6.796875q-0.8125 0 -1.375 -0.515625q-0.5625 -0.53125 -0.5625 -1.328125q0 -0.796875 0.5625 -1.328125q0.5625 -0.53125 1.375 -0.53125q0.8125 0 1.375 0.53125q0.546875 0.53125 0.546875 1.328125q0 0.796875 -0.546875 1.328125q-0.5625 0.515625 -1.375 0.515625zm0 -1.140625q0.28125 0 0.5 -0.21875q0.203125 -0.21875 0.203125 -0.484375q0 -0.296875 -0.203125 -0.5q-0.21875 -0.21875 -0.5 -0.21875q-0.28125 0 -0.5 0.21875q-0.21875 0.203125 -0.21875 0.5q0 0.265625 0.21875 0.484375q0.21875 0.21875 0.5 0.21875zm5.984375 5.375q0 -0.921875 -0.359375 -1.359375q-0.359375 -0.453125 -1.328125 -0.453125q-0.5 0 -1.09375 0.125q-0.59375 0.109375 -1.078125 0.296875l0 -1.578125q0.5 -0.234375 1.203125 -0.375q0.703125 -0.140625 1.390625 -0.140625q1.8125 0 2.609375 0.765625q0.8125 0.765625 0.8125 2.421875l0 5.609375l-2.15625 0l0 -5.3125zm4.0575104 -3.328125l2.171875 0l0 2.625l2.140625 0q0.796875 0 1.125 -0.34375q0.328125 -0.359375 0.328125 -1.109375l0 -1.171875l2.15625 0l0 1.09375q0 1.796875 -1.234375 2.296875q0.640625 0.265625 0.90625 0.765625q0.265625 0.5 0.265625 1.265625l0 3.21875l-2.15625 0l0 -2.96875q0 -0.828125 -0.3125 -1.140625q-0.3125 -0.328125 -1.125 -0.328125l-2.09375 0l0 4.4375l-2.171875 0l0 -8.640625zm12.760025 8.796875q-1.390625 0 -2.203125 -0.84375q-0.796875 -0.84375 -0.796875 -2.34375l0 -5.609375l2.171875 0l0 5.484375q0 0.875 0.375 1.265625q0.390625 0.375 1.171875 0.375q0.59375 0 1.171875 -0.25q0.59375 -0.265625 0.9375 -0.65625l0 -6.21875l2.15625 0l0 8.640625l-1.984375 0l-0.09375 -0.84375q-1.25 1.0 -2.90625 1.0zm10.184891 0q-1.640625 0 -2.625 -1.0625q-0.984375 -1.0625 -0.984375 -3.234375q0 -2.234375 1.140625 -3.4375q1.15625 -1.21875 3.3749924 -1.21875q1.46875 0 2.453125 0.5q0.984375 0.484375 1.4375 1.3125q0.453125 0.8125 0.453125 1.765625l0 5.21875l-2.15625 0l0 -5.078125q0 -0.96875 -0.515625 -1.5q-0.5 -0.546875 -1.703125 -0.546875q-2.4374924 0 -2.4374924 2.984375q0 1.40625 0.484375 2.015625q0.484375 0.609375 1.4687424 0.609375q0.734375 0 1.109375 -0.125l0 1.578125q-0.59375 0.21875 -1.4999924 0.21875zm8.823021 -0.15625q-1.03125 0 -1.46875 -0.421875q-0.421875 -0.421875 -0.421875 -1.375l0 -3.453125q0 -0.8125 0.296875 -1.359375q0.3125 -0.5625 0.859375 -1.171875q0.3125 -0.34375 0.453125 -0.546875q0.140625 -0.203125 0.140625 -0.40625q0 -0.40625 -0.234375 -0.5625q-0.21875 -0.171875 -0.71875 -0.171875q-0.859375 0 -1.6875 0.484375l0 -1.5625q0.46875 -0.28125 1.140625 -0.4375q0.671875 -0.171875 1.328125 -0.171875q1.1875 0 1.796875 0.46875q0.625 0.46875 0.625 1.375q0 0.578125 -0.234375 1.0q-0.21875 0.40625 -0.65625 1.0q-0.46875 0.59375 -0.71875 1.0625q-0.234375 0.453125 -0.234375 1.078125l0 2.8125q0 0.671875 0.65625 0.671875l0.546875 0l0 1.6875l-1.46875 0zm3.128128 -8.640625l2.171875 0l0 2.625l2.140625 0q0.796875 0 1.125 -0.34375q0.328125 -0.359375 0.328125 -1.109375l0 -1.171875l2.15625 0l0 1.09375q0 1.796875 -1.234375 2.296875q0.640625 0.265625 0.90625 0.765625q0.265625 0.5 0.265625 1.265625l0 3.21875l-2.15625 0l0 -2.96875q0 -0.828125 -0.3125 -1.140625q-0.3125 -0.328125 -1.125 -0.328125l-2.09375 0l0 4.4375l-2.171875 0l0 -8.640625zm3.978775 -2.609375l-1.25 0l0 -1.46875l2.703125 0l0 1.421875l3.421875 0l-0.078125 1.46875l-4.796875 0l0 -1.421875zm11.54126 0.953125l4.84375 0q1.734375 0 2.625 0.96875q0.90625 0.96875 0.90625 2.578125q0 1.03125 -0.4375 1.84375q-0.4375 0.796875 -1.265625 1.234375q-0.8125 0.4375 -1.890625 0.4375l-2.609375 0l0 3.234375l-2.171875 0l0 -10.296875zm4.328125 5.359375q0.90625 0 1.390625 -0.484375q0.484375 -0.484375 0.484375 -1.328125q0 -0.890625 -0.453125 -1.359375q-0.453125 -0.484375 -1.34375 -0.484375l-2.234375 0l0 3.65625l2.15625 0zm5.808655 -5.734375l2.34375 0l0 1.703125l-2.34375 0l0 -1.703125zm0.171875 4.6875l-1.140625 0l0.203125 -1.59375l3.09375 0l0 7.578125l-2.15625 0l0 -5.984375zm3.9953918 -1.59375l2.0 0l0.078125 0.71875q0.515625 -0.390625 1.21875 -0.640625q0.703125 -0.25 1.453125 -0.25q1.5 0 2.1875 0.703125q0.703125 0.6875 0.703125 2.1875l0 4.859375l-2.15625 0l0 -4.75q0 -0.78125 -0.328125 -1.09375q-0.3125 -0.3125 -1.15625 -0.3125q-0.484375 0 -0.984375 0.21875q-0.5 0.203125 -0.84375 0.5625l0 5.375l-2.171875 0l0 -7.578125z" fill-rule="nonzero"/><path fill="#ffffff" d="m121.50552 572.1501q-0.71875 0 -1.625 -0.140625q-0.90625 -0.140625 -1.4375 -0.359375l0 -1.875q1.234375 0.515625 2.75 0.515625q1.171875 0 1.703125 -0.328125q0.53125 -0.328125 0.53125 -1.125q0 -0.671875 -0.46875 -0.96875q-0.46875 -0.296875 -1.40625 -0.296875l-1.625 0l0.15625 -1.578125l1.34375 0q0.9375 0 1.359375 -0.3125q0.4375 -0.3125 0.4375 -0.984375q0 -0.671875 -0.5 -1.0q-0.484375 -0.328125 -1.546875 -0.328125q-0.671875 0 -1.359375 0.140625q-0.671875 0.125 -1.203125 0.375l0 -1.84375q0.53125 -0.21875 1.328125 -0.359375q0.8125 -0.15625 1.609375 -0.15625q1.859375 0 2.859375 0.796875q1.0 0.78125 1.0 2.078125q0 0.796875 -0.359375 1.453125q-0.359375 0.640625 -1.046875 0.921875q0.8125 0.25 1.21875 0.84375q0.40625 0.59375 0.40625 1.453125q0 1.53125 -1.109375 2.3125q-1.109375 0.765625 -3.015625 0.765625zm5.321518 -5.34375l6.171875 0l0 1.6875l-6.171875 0l0 -1.6875zm9.031891 -3.171875l-1.671875 0.28125l0 -1.8125l3.84375 -0.578125l0 10.46875l-2.171875 0l0 -8.359375zm6.7346344 8.515625q-0.71875 0 -1.625 -0.140625q-0.90625 -0.140625 -1.4375 -0.359375l0 -1.875q1.234375 0.515625 2.75 0.515625q1.171875 0 1.703125 -0.328125q0.53125 -0.328125 0.53125 -1.125q0 -0.671875 -0.46875 -0.96875q-0.46875 -0.296875 -1.40625 -0.296875l-1.625 0l0.15625 -1.578125l1.34375 0q0.9375 0 1.359375 -0.3125q0.4375 -0.3125 0.4375 -0.984375q0 -0.671875 -0.5 -1.0q-0.484375 -0.328125 -1.546875 -0.328125q-0.671875 0 -1.359375 0.140625q-0.671875 0.125 -1.203125 0.375l0 -1.84375q0.53125 -0.21875 1.328125 -0.359375q0.8125 -0.15625 1.609375 -0.15625q1.859375 0 2.859375 0.796875q1.0 0.78125 1.0 2.078125q0 0.796875 -0.359375 1.453125q-0.359375 0.640625 -1.046875 0.921875q0.8125 0.25 1.21875 0.84375q0.40625 0.59375 0.40625 1.453125q0 1.53125 -1.109375 2.3125q-1.109375 0.765625 -3.015625 0.765625z" fill-rule="nonzero"/><path fill="#ffffff" d="m89.804955 590.99384q-1.015625 0 -1.453125 -0.421875q-0.4375 -0.421875 -0.4375 -1.375l0 -6.84375l2.171875 0l0 6.28125q0 0.671875 0.65625 0.671875l0.53125 0l0 1.6875l-1.46875 0zm7.115509 0.15625q-1.953125 0 -3.046875 -0.921875q-1.078125 -0.921875 -1.078125 -2.703125l0 -5.171875l2.171875 0l0 5.203125q0 0.96875 0.484375 1.453125q0.484375 0.46875 1.46875 0.46875q0.96875 0 1.453125 -0.46875q0.484375 -0.484375 0.484375 -1.453125l0 -7.765625l2.171875 0l0 7.734375q0 1.78125 -1.09375 2.703125q-1.078125 0.921875 -3.015625 0.921875zm-2.4523773 -9.5625q-0.984375 0 -1.515625 -0.5q-0.546875 -0.515625 -0.546875 -1.4375q0 -0.90625 0.578125 -1.453125q0.578125 -0.5625 1.640625 -0.5625l3.578125 0l-0.09375 1.203125l-3.28125 0q-0.46875 0 -0.71875 0.1875q-0.25 0.1875 -0.25 0.625q0 0.75 0.75 0.75q0.734375 0 0.734375 -0.640625l0 -0.28125l1.28125 0l0 0.28125q0 0.328125 0.171875 0.46875q0.171875 0.125 0.515625 0.125l0.609375 0l0 1.203125l-0.765625 0q-0.421875 0 -0.734375 -0.125q-0.328125 -0.125 -0.453125 -0.375q-0.15625 0.234375 -0.59375 0.390625q-0.4375 0.140625 -0.90625 0.140625zm11.455399 9.5625q-1.390625 0 -2.203125 -0.84375q-0.796875 -0.84375 -0.796875 -2.34375l0 -5.609375l2.171875 0l0 5.484375q0 0.875 0.375 1.265625q0.390625 0.375 1.171875 0.375q0.59375 0 1.171875 -0.25q0.59375 -0.265625 0.9375 -0.65625l0 -6.21875l2.15625 0l0 8.640625l-1.984375 0l-0.09375 -0.84375q-1.25 1.0 -2.90625 1.0zm17.335526 0q-5.0 0 -5.0 -5.265625q0 -2.78125 1.234375 -4.0625q1.25 -1.296875 3.765625 -1.296875q2.53125 0 3.765625 1.296875q1.2499924 1.28125 1.2499924 4.0625q0 5.265625 -5.0156174 5.265625zm0 -1.84375q1.453125 0 2.140625 -0.828125q0.6875 -0.84375 0.6875 -2.59375q0 -1.90625 -0.671875 -2.703125q-0.671875 -0.8125 -2.15625 -0.8125q-1.46875 0 -2.140625 0.8125q-0.671875 0.796875 -0.671875 2.703125q0 1.75 0.6875 2.59375q0.6875 0.828125 2.125 0.828125zm11.04377 1.84375q-2.15625 0 -3.390625 -1.03125q-1.21875 -1.046875 -1.21875 -3.0l0 -6.421875l2.15625 0l0 6.265625q0 1.171875 0.625 1.765625q0.640625 0.578125 1.828125 0.578125q1.1875 0 1.8125 -0.578125q0.625 -0.59375 0.625 -1.765625l0 -6.265625l2.15625 0l0 6.421875q0 1.9375 -1.21875 2.984375q-1.21875 1.046875 -3.375 1.046875zm8.864029 -8.796875l-3.171875 0l0 -1.65625l8.484375 0l0 1.65625l-3.15625 0l0 8.640625l-2.15625 0l0 -8.640625zm6.4927673 -1.65625l4.84375 0q1.734375 0 2.625 0.96875q0.90625 0.96875 0.90625 2.578125q0 1.03125 -0.4375 1.84375q-0.4375 0.796875 -1.265625 1.234375q-0.8125 0.4375 -1.890625 0.4375l-2.609375 0l0 3.234375l-2.171875 0l0 -10.296875zm4.328125 5.359375q0.90625 0 1.390625 -0.484375q0.484375 -0.484375 0.484375 -1.328125q0 -0.890625 -0.453125 -1.359375q-0.453125 -0.484375 -1.34375 -0.484375l-2.234375 0l0 3.65625l2.15625 0zm9.771149 5.09375q-2.15625 0 -3.390625 -1.03125q-1.21875 -1.046875 -1.21875 -3.0l0 -6.421875l2.15625 0l0 6.265625q0 1.171875 0.625 1.765625q0.640625 0.578125 1.828125 0.578125q1.1875 0 1.8125 -0.578125q0.625 -0.59375 0.625 -1.765625l0 -6.265625l2.15625 0l0 6.421875q0 1.9375 -1.21875 2.984375q-1.21875 1.046875 -3.375 1.046875zm8.864029 -8.796875l-3.171875 0l0 -1.65625l8.484375 0l0 1.65625l-3.15625 0l0 8.640625l-2.15625 0l0 -8.640625z" fill-rule="nonzero"/><path fill="#f4b400" d="m332.22855 139.83571l91.9205 -37.47744l91.92053 37.47744l-91.92053 37.477432z" fill-rule="evenodd"/><path fill="#ffffff" d="m393.36923 142.57071q0 -1.59375 1.265625 -1.984375l-1.734375 -0.421875l0 -1.796875q0.71875 -0.640625 1.78125 -1.046875q1.0625 -0.421875 2.359375 -0.421875q1.96875 0 2.953125 0.8125q1.0 0.8125 1.0 2.625l0 5.359375l-1.734375 0l0 -5.40625q0 -1.109375 -0.515625 -1.546875q-0.515625 -0.4375 -1.765625 -0.4375q-0.78125 0 -1.484375 0.234375q-0.6875 0.21875 -1.09375 0.578125l0 0.296875l1.828125 0.453125l0 1.15625q-0.625 0.15625 -0.890625 0.515625q-0.25 0.34375 -0.25 1.046875l0 3.109375l-1.71875 0l0 -3.125zm12.870514 3.28125q-1.609375 0 -2.578125 -1.078125q-0.953125 -1.078125 -0.953125 -3.265625q0 -2.203125 1.109375 -3.40625q1.125 -1.203125 3.3125 -1.203125q1.40625 0 2.34375 0.484375q0.9375 0.484375 1.375 1.28125q0.4375 0.796875 0.4375 1.75l0 5.28125l-1.75 0l0 -5.203125q0 -1.03125 -0.5625 -1.609375q-0.5625 -0.578125 -1.875 -0.578125q-1.390625 0 -2.046875 0.796875q-0.65625 0.796875 -0.65625 2.40625q0 1.578125 0.53125 2.265625q0.53125 0.6875 1.625 0.6875q0.734375 0 1.09375 -0.125l0 1.328125q-0.53125 0.1875 -1.40625 0.1875zm11.0224 0q-1.875 0 -2.90625 -0.875q-1.03125 -0.890625 -1.03125 -2.640625l0 -5.28125l1.734375 0l0 5.34375q0 1.0625 0.546875 1.5625q0.5625 0.5 1.65625 0.5q1.109375 0 1.671875 -0.5q0.5625 -0.5 0.5625 -1.5625l0 -7.90625l1.71875 0l0 7.84375q0 1.75 -1.03125 2.640625q-1.015625 0.875 -2.921875 0.875zm2.4672546 1.890625l-1.0 0l0.078125 -1.140625l2.40625 0l0 3.125l-1.484375 0l0 -1.984375zm-3.578125 -14.625l1.734375 0l0 2.625l-1.734375 0l0 -2.625zm11.8125305 12.734375q-0.953125 0 -1.6875 -0.28125q-0.71875 -0.28125 -1.34375 -0.8125l-0.09375 0.9375l-1.578125 0l0 -8.640625l1.734375 0l0 6.375q0.453125 0.453125 1.078125 0.75q0.625 0.28125 1.3125 0.28125q0.90625 0 1.34375 -0.421875q0.4375 -0.4375 0.4375 -1.40625l0 -5.578125l1.734375 0l0 5.671875q0 1.484375 -0.78125 2.3125q-0.765625 0.8125 -2.15625 0.8125zm6.898773 -0.15625q-1.671875 0 -1.671875 -1.65625l0 -5.53125q0 -1.71875 1.21875 -2.546875l-2.515625 0l0 -1.375l4.625 0l0 1.3125q-0.859375 0.34375 -1.234375 1.03125q-0.375 0.671875 -0.375 1.84375l0 4.828125q0 0.4375 0.140625 0.578125q0.140625 0.140625 0.578125 0.140625l0.734375 0l0 1.375l-1.5 0zm2.8941345 -8.640625l1.734375 0l0 2.71875l2.5 0q0.90625 0 1.28125 -0.375q0.375 -0.390625 0.375 -1.21875l0 -1.125l1.734375 0l0 1.078125q0 1.8125 -1.296875 2.28125q0.6875 0.234375 0.953125 0.765625q0.265625 0.53125 0.265625 1.328125l0 3.1875l-1.734375 0l0 -2.96875q0 -0.9375 -0.359375 -1.28125q-0.34375 -0.34375 -1.28125 -0.34375l-2.4375 0l0 4.59375l-1.734375 0l0 -8.640625zm14.367126 8.796875q-0.953125 0 -1.6875 -0.28125q-0.71875 -0.28125 -1.34375 -0.8125l-0.09375 0.9375l-1.578125 0l0 -8.640625l1.734375 0l0 6.375q0.453125 0.453125 1.078125 0.75q0.625 0.28125 1.3125 0.28125q0.90625 0 1.34375 -0.421875q0.4375 -0.4375 0.4375 -1.40625l0 -5.578125l1.734375 0l0 5.671875q0 1.484375 -0.78125 2.3125q-0.765625 0.8125 -2.15625 0.8125z" fill-rule="nonzero"/><path fill="#000000" fill-opacity="0.0" d="m424.1499 177.31276l0 35.905502" fill-rule="evenodd"/><path stroke="#000000" stroke-width="1.0" stroke-linejoin="round" stroke-linecap="butt" d="m424.1499 177.31274l0 29.905518" fill-rule="evenodd"/><path fill="#000000" stroke="#000000" stroke-width="1.0" stroke-linecap="butt" d="m422.49817 207.21826l1.6517334 4.538101l1.6517334 -4.538101z" fill-rule="evenodd"/><path fill="#000000" fill-opacity="0.0" d="m438.7349 171.2021l59.118134 0l0 35.905502l-59.118134 0z" fill-rule="evenodd"/><path fill="#000000" d="m457.03275 196.65335l0.234375 1.453125q-0.6875 0.140625 -1.234375 0.140625q-0.890625 0 -1.390625 -0.28125q-0.484375 -0.28125 -0.6875 -0.734375q-0.203125 -0.46875 -0.203125 -1.9375l0 -5.578125l-1.203125 0l0 -1.265625l1.203125 0l0 -2.390625l1.625 -0.984375l0 3.375l1.65625 0l0 1.265625l-1.65625 0l0 5.671875q0 0.6875 0.078125 0.890625q0.09375 0.203125 0.28125 0.328125q0.203125 0.109375 0.578125 0.109375q0.265625 0 0.71875 -0.0625zm1.5895691 1.46875l0 -9.671875l1.46875 0l0 1.46875q0.5625 -1.03125 1.03125 -1.359375q0.484375 -0.328125 1.0625 -0.328125q0.828125 0 1.6875 0.53125l-0.5625 1.515625q-0.609375 -0.359375 -1.203125 -0.359375q-0.546875 0 -0.96875 0.328125q-0.421875 0.328125 -0.609375 0.890625q-0.28125 0.875 -0.28125 1.921875l0 5.0625l-1.625 0zm12.556427 0l0 -1.421875q-1.125 1.640625 -3.0625 1.640625q-0.859375 0 -1.609375 -0.328125q-0.734375 -0.328125 -1.09375 -0.828125q-0.359375 -0.5 -0.5 -1.21875q-0.109375 -0.46875 -0.109375 -1.53125l0 -5.984375l1.640625 0l0 5.359375q0 1.28125 0.109375 1.734375q0.15625 0.640625 0.65625 1.015625q0.5 0.375 1.234375 0.375q0.734375 0 1.375 -0.375q0.65625 -0.390625 0.921875 -1.03125q0.265625 -0.65625 0.265625 -1.890625l0 -5.1875l1.640625 0l0 9.671875l-1.46875 0zm10.672577 -3.109375l1.6875 0.203125q-0.40625 1.484375 -1.484375 2.3125q-1.078125 0.8125 -2.765625 0.8125q-2.125 0 -3.375 -1.296875q-1.234375 -1.3125 -1.234375 -3.671875q0 -2.453125 1.25 -3.796875q1.265625 -1.34375 3.265625 -1.34375q1.9375 0 3.15625 1.328125q1.234375 1.3125 1.234375 3.703125q0 0.15625 0 0.4375l-7.21875 0q0.09375 1.59375 0.90625 2.453125q0.8125 0.84375 2.015625 0.84375q0.90625 0 1.546875 -0.46875q0.640625 -0.484375 1.015625 -1.515625zm-5.390625 -2.65625l5.40625 0q-0.109375 -1.21875 -0.625 -1.828125q-0.78125 -0.953125 -2.03125 -0.953125q-1.125 0 -1.90625 0.765625q-0.765625 0.75 -0.84375 2.015625z" fill-rule="nonzero"/><path fill="#4a86e8" d="m360.58923 213.21785l127.1181 0l0 58.99211l-127.1181 0z" fill-rule="evenodd"/><path fill="#ffffff" d="m407.5675 248.73016q-0.765625 0 -1.484375 -0.109375q-0.71875 -0.09375 -1.1875 -0.265625l0 -1.484375q0.53125 0.21875 1.171875 0.328125q0.65625 0.109375 1.28125 0.109375q0.921875 0 1.28125 -0.15625q0.375 -0.15625 0.375 -0.625q0 -0.421875 -0.34375 -0.609375q-0.328125 -0.203125 -1.25 -0.5l-0.484375 -0.15625q-1.140625 -0.390625 -1.671875 -0.859375q-0.53125 -0.46875 -0.53125 -1.390625q0 -1.078125 0.765625 -1.625q0.765625 -0.5625 2.40625 -0.5625q0.625 0 1.21875 0.109375q0.609375 0.09375 1.03125 0.234375l0 1.453125q-0.421875 -0.171875 -0.96875 -0.265625q-0.53125 -0.09375 -1.015625 -0.09375q-0.875 0 -1.28125 0.15625q-0.390625 0.140625 -0.390625 0.5625q0 0.359375 0.296875 0.546875q0.3125 0.1875 1.203125 0.46875l0.34375 0.109375q0.9375 0.296875 1.4375 0.59375q0.515625 0.296875 0.75 0.71875q0.234375 0.421875 0.234375 1.09375q0 2.21875 -3.1875 2.21875zm3.940277 -7.734375l1.75 0l1.3125 5.515625l1.484375 -4.59375l0 -0.921875l1.328125 0l1.640625 5.515625l1.3125 -5.515625l1.734375 0l-1.984375 7.578125l-1.65625 0l-1.609375 -4.953125l-1.640625 4.953125l-1.671875 0l-2.0 -7.578125zm12.704132 -3.03125l1.90625 0l0 1.4375l-1.90625 0l0 -1.4375zm0.140625 4.359375l-1.140625 0l0.15625 -1.328125l2.734375 0l0 7.578125l-1.75 0l0 -6.25zm7.506134 6.40625q-2.0 0 -3.03125 -1.0q-1.015625 -1.015625 -1.015625 -2.953125q0 -1.953125 1.09375 -2.953125q1.109375 -1.0 3.046875 -1.0q0.765625 0 1.296875 0.125q0.546875 0.109375 1.0625 0.34375l0 1.296875q-0.828125 -0.421875 -2.015625 -0.421875q-1.359375 0 -2.046875 0.609375q-0.671875 0.609375 -0.671875 2.0q0 1.375 0.625 2.0q0.640625 0.625 2.0625 0.625q1.125 0 2.0625 -0.421875l0 1.328125q-1.0625 0.421875 -2.46875 0.421875zm4.169281 -10.9375l1.734375 0l0 3.9375q0.515625 -0.421875 1.203125 -0.65625q0.703125 -0.25 1.53125 -0.25q1.4375 0 2.125 0.6875q0.6875 0.6875 0.6875 2.15625l0 4.90625l-1.71875 0l0 -4.828125q0 -0.890625 -0.375 -1.234375q-0.375 -0.359375 -1.3125 -0.359375q-0.578125 0 -1.171875 0.25q-0.578125 0.25 -0.96875 0.65625l0 5.515625l-1.734375 0l0 -10.78125z" fill-rule="nonzero"/><path fill="#f4b400" d="m332.22855 345.5916l91.9205 -37.477448l91.92053 37.477448l-91.92053 37.477448z" fill-rule="evenodd"/><path fill="#ffffff" d="m391.98523 338.8266q0 -1.59375 1.265625 -1.984375l-1.734375 -0.421875l0 -1.796875q0.71875 -0.640625 1.78125 -1.046875q1.0625 -0.421875 2.359375 -0.421875q1.96875 0 2.953125 0.8125q1.0 0.8125 1.0 2.625l0 5.359375l-1.734375 0l0 -5.40625q0 -1.109375 -0.515625 -1.546875q-0.515625 -0.4375 -1.765625 -0.4375q-0.78125 0 -1.484375 0.234375q-0.6875 0.21875 -1.09375 0.578125l0 0.296875l1.828125 0.453125l0 1.15625q-0.625 0.15625 -0.890625 0.515625q-0.25 0.34375 -0.25 1.046875l0 3.109375l-1.71875 0l0 -3.125zm12.870514 3.28125q-1.609375 0 -2.578125 -1.078125q-0.953125 -1.078125 -0.953125 -3.265625q0 -2.203125 1.109375 -3.40625q1.125 -1.203125 3.3125 -1.203125q1.40625 0 2.34375 0.484375q0.9375 0.484375 1.375 1.28125q0.4375 0.796875 0.4375 1.75l0 5.28125l-1.75 0l0 -5.203125q0 -1.03125 -0.5625 -1.609375q-0.5625 -0.578125 -1.875 -0.578125q-1.390625 0 -2.046875 0.796875q-0.65625 0.796875 -0.65625 2.40625q0 1.578125 0.53125 2.265625q0.53125 0.6875 1.625 0.6875q0.734375 0 1.09375 -0.125l0 1.328125q-0.53125 0.1875 -1.40625 0.1875zm11.0224 0q-1.875 0 -2.90625 -0.875q-1.03125 -0.890625 -1.03125 -2.640625l0 -5.28125l1.734375 0l0 5.34375q0 1.0625 0.546875 1.5625q0.5625 0.5 1.65625 0.5q1.109375 0 1.671875 -0.5q0.5625 -0.5 0.5625 -1.5625l0 -7.90625l1.71875 0l0 7.84375q0 1.75 -1.03125 2.640625q-1.015625 0.875 -2.921875 0.875zm2.4672546 1.890625l-1.0 0l0.078125 -1.140625l2.40625 0l0 3.125l-1.484375 0l0 -1.984375zm-3.578125 -14.625l1.734375 0l0 2.625l-1.734375 0l0 -2.625zm11.8125305 12.734375q-0.953125 0 -1.6875 -0.28125q-0.71875 -0.28125 -1.34375 -0.8125l-0.09375 0.9375l-1.578125 0l0 -8.640625l1.734375 0l0 6.375q0.453125 0.453125 1.078125 0.75q0.625 0.28125 1.3125 0.28125q0.90625 0 1.34375 -0.421875q0.4375 -0.4375 0.4375 -1.40625l0 -5.578125l1.734375 0l0 5.671875q0 1.484375 -0.78125 2.3125q-0.765625 0.8125 -2.15625 0.8125zm4.976898 -5.625q0 -1.609375 0.953125 -2.46875q0.96875 -0.859375 2.953125 -0.859375q1.984375 0 2.9375 0.859375q0.953125 0.859375 0.953125 2.46875l0 5.46875l-1.734375 0l0 -5.625q0 -1.765625 -2.15625 -1.765625q-1.078125 0 -1.625 0.4375q-0.546875 0.421875 -0.546875 1.328125l0 1.765625q0.703125 -0.578125 1.6875 -0.578125l1.03125 0l0.0625 1.390625l-1.140625 0q-0.984375 0 -1.640625 0.546875l0 2.5l-1.734375 0l0 -5.46875zm12.668152 5.625q-0.875 0 -1.671875 -0.109375q-0.78125 -0.109375 -1.28125 -0.3125l0 -1.46875q0.59375 0.25 1.296875 0.375q0.703125 0.125 1.328125 0.125q1.171875 0 1.671875 -0.203125q0.5 -0.203125 0.5 -0.828125q0 -0.390625 -0.203125 -0.625q-0.1875 -0.234375 -0.53125 -0.375q-0.328125 -0.140625 -1.03125 -0.359375l-0.625 -0.21875q-1.3125 -0.4375 -1.96875 -0.96875q-0.640625 -0.546875 -0.640625 -1.53125q0 -1.15625 0.875 -1.796875q0.890625 -0.65625 2.59375 -0.65625q0.703125 0 1.421875 0.109375q0.71875 0.109375 1.21875 0.265625l0 1.453125q-0.515625 -0.203125 -1.171875 -0.3125q-0.640625 -0.109375 -1.203125 -0.109375q-1.015625 0 -1.53125 0.21875q-0.515625 0.21875 -0.515625 0.78125q0 0.34375 0.203125 0.578125q0.21875 0.21875 0.578125 0.375q0.375 0.140625 1.140625 0.390625l0.46875 0.15625q1.375 0.453125 1.984375 1.015625q0.609375 0.546875 0.609375 1.609375q0 1.21875 -0.9375 1.828125q-0.921875 0.59375 -2.578125 0.59375zm-0.59225464 -12.4375l1.4375 0l0 1.109375l4.140625 0l-0.078125 1.21875l-5.5 0l0 -2.328125zm1.359375 -2.3128662l-1.0 0l0 -1.125l2.140625 0l0 1.25l2.453125 0l-0.0625 1.125l-3.53125 0l0 -1.25zm7.859375 14.750366q-1.03125 0 -1.609375 -0.203125l-2.421875 -5.921875l1.6875 0l1.96875 4.796875q1.359375 0.0625 1.984375 -0.78125q0.640625 -0.84375 0.640625 -2.640625q0 -1.046875 -0.203125 -1.640625q-0.1875 -0.59375 -0.640625 -0.84375q-0.4375 -0.25 -1.25 -0.25l-0.609375 0l0 -1.3125l0.828125 0q1.84375 0 2.703125 0.984375q0.859375 0.984375 0.859375 3.046875q0 2.4375 -1.078125 3.609375q-1.0625 1.15625 -2.859375 1.15625z" fill-rule="nonzero"/><path fill="#ffffff" d="m413.56454 360.9516q-1.671875 0 -1.671875 -1.65625l0 -6.984375l1.734375 0l0 6.546875q0 0.359375 0.171875 0.546875q0.171875 0.171875 0.53125 0.171875l0.640625 0l0 1.375l-1.40625 0zm3.890625 0q-1.6875 0 -1.6875 -1.65625l0 -6.984375l1.734375 0l0 6.546875q0 0.359375 0.15625 0.546875q0.171875 0.171875 0.546875 0.171875l0.65625 0l0 1.375l-1.40625 0zm5.937622 0.15625q-0.875 0 -1.671875 -0.109375q-0.78125 -0.109375 -1.28125 -0.3125l0 -1.46875q0.59375 0.25 1.296875 0.375q0.703125 0.125 1.328125 0.125q1.171875 0 1.671875 -0.203125q0.5 -0.203125 0.5 -0.828125q0 -0.390625 -0.203125 -0.625q-0.1875 -0.234375 -0.53125 -0.375q-0.328125 -0.140625 -1.03125 -0.359375l-0.625 -0.21875q-1.3125 -0.4375 -1.96875 -0.96875q-0.640625 -0.546875 -0.640625 -1.53125q0 -1.15625 0.875 -1.796875q0.890625 -0.65625 2.59375 -0.65625q0.703125 0 1.421875 0.109375q0.71875 0.109375 1.21875 0.265625l0 1.453125q-0.515625 -0.203125 -1.171875 -0.3125q-0.640625 -0.109375 -1.203125 -0.109375q-1.015625 0 -1.53125 0.21875q-0.515625 0.21875 -0.515625 0.78125q0 0.34375 0.203125 0.578125q0.21875 0.21875 0.578125 0.375q0.375 0.140625 1.140625 0.390625l0.46875 0.15625q1.375 0.453125 1.984375 1.015625q0.609375 0.546875 0.609375 1.609375q0 1.21875 -0.9375 1.828125q-0.921875 0.59375 -2.578125 0.59375zm5.376526 -3.28125q0 -1.59375 1.265625 -1.984375l-1.734375 -0.421875l0 -1.796875q0.71875 -0.640625 1.78125 -1.046875q1.0625 -0.421875 2.359375 -0.421875q1.96875 0 2.953125 0.8125q1.0 0.8125 1.0 2.625l0 5.359375l-1.734375 0l0 -5.40625q0 -1.109375 -0.515625 -1.546875q-0.515625 -0.4375 -1.765625 -0.4375q-0.78125 0 -1.484375 0.234375q-0.6875 0.21875 -1.09375 0.578125l0 0.296875l1.828125 0.453125l0 1.15625q-0.625 0.15625 -0.890625 0.515625q-0.25 0.34375 -0.25 1.046875l0 3.109375l-1.71875 0l0 -3.125z" fill-rule="nonzero"/><path fill="#f4b400" d="m332.22855 463.8685l91.9205 -37.477417l91.92053 37.477417l-91.92053 37.477448z" fill-rule="evenodd"/><path fill="#ffffff" d="m391.98523 457.10352q0 -1.59375 1.265625 -1.984375l-1.734375 -0.421875l0 -1.796875q0.71875 -0.640625 1.78125 -1.046875q1.0625 -0.421875 2.359375 -0.421875q1.96875 0 2.953125 0.8125q1.0 0.8125 1.0 2.625l0 5.359375l-1.734375 0l0 -5.40625q0 -1.109375 -0.515625 -1.546875q-0.515625 -0.4375 -1.765625 -0.4375q-0.78125 0 -1.484375 0.234375q-0.6875 0.21875 -1.09375 0.578125l0 0.296875l1.828125 0.453125l0 1.15625q-0.625 0.15625 -0.890625 0.515625q-0.25 0.34375 -0.25 1.046875l0 3.109375l-1.71875 0l0 -3.125zm12.870514 3.28125q-1.609375 0 -2.578125 -1.078125q-0.953125 -1.078125 -0.953125 -3.265625q0 -2.203125 1.109375 -3.40625q1.125 -1.203125 3.3125 -1.203125q1.40625 0 2.34375 0.484375q0.9375 0.484375 1.375 1.28125q0.4375 0.796875 0.4375 1.75l0 5.28125l-1.75 0l0 -5.203125q0 -1.03125 -0.5625 -1.609375q-0.5625 -0.578125 -1.875 -0.578125q-1.390625 0 -2.046875 0.796875q-0.65625 0.796875 -0.65625 2.40625q0 1.578125 0.53125 2.265625q0.53125 0.6875 1.625 0.6875q0.734375 0 1.09375 -0.125l0 1.328125q-0.53125 0.1875 -1.40625 0.1875zm11.0224 0q-1.875 0 -2.90625 -0.875q-1.03125 -0.890625 -1.03125 -2.640625l0 -5.28125l1.734375 0l0 5.34375q0 1.0625 0.546875 1.5625q0.5625 0.5 1.65625 0.5q1.109375 0 1.671875 -0.5q0.5625 -0.5 0.5625 -1.5625l0 -7.90625l1.71875 0l0 7.84375q0 1.75 -1.03125 2.640625q-1.015625 0.875 -2.921875 0.875zm2.4672546 1.890625l-1.0 0l0.078125 -1.140625l2.40625 0l0 3.125l-1.484375 0l0 -1.984375zm-3.578125 -14.625l1.734375 0l0 2.625l-1.734375 0l0 -2.625zm11.8125305 12.734375q-0.953125 0 -1.6875 -0.28125q-0.71875 -0.28125 -1.34375 -0.8125l-0.09375 0.9375l-1.578125 0l0 -8.640625l1.734375 0l0 6.375q0.453125 0.453125 1.078125 0.75q0.625 0.28125 1.3125 0.28125q0.90625 0 1.34375 -0.421875q0.4375 -0.4375 0.4375 -1.40625l0 -5.578125l1.734375 0l0 5.671875q0 1.484375 -0.78125 2.3125q-0.765625 0.8125 -2.15625 0.8125zm4.976898 -5.625q0 -1.609375 0.953125 -2.46875q0.96875 -0.859375 2.953125 -0.859375q1.984375 0 2.9375 0.859375q0.953125 0.859375 0.953125 2.46875l0 5.46875l-1.734375 0l0 -5.625q0 -1.765625 -2.15625 -1.765625q-1.078125 0 -1.625 0.4375q-0.546875 0.421875 -0.546875 1.328125l0 1.765625q0.703125 -0.578125 1.6875 -0.578125l1.03125 0l0.0625 1.390625l-1.140625 0q-0.984375 0 -1.640625 0.546875l0 2.5l-1.734375 0l0 -5.46875zm12.668152 5.625q-0.875 0 -1.671875 -0.109375q-0.78125 -0.109375 -1.28125 -0.3125l0 -1.46875q0.59375 0.25 1.296875 0.375q0.703125 0.125 1.328125 0.125q1.171875 0 1.671875 -0.203125q0.5 -0.203125 0.5 -0.828125q0 -0.390625 -0.203125 -0.625q-0.1875 -0.234375 -0.53125 -0.375q-0.328125 -0.140625 -1.03125 -0.359375l-0.625 -0.21875q-1.3125 -0.4375 -1.96875 -0.96875q-0.640625 -0.546875 -0.640625 -1.53125q0 -1.15625 0.875 -1.796875q0.890625 -0.65625 2.59375 -0.65625q0.703125 0 1.421875 0.109375q0.71875 0.109375 1.21875 0.265625l0 1.453125q-0.515625 -0.203125 -1.171875 -0.3125q-0.640625 -0.109375 -1.203125 -0.109375q-1.015625 0 -1.53125 0.21875q-0.515625 0.21875 -0.515625 0.78125q0 0.34375 0.203125 0.578125q0.21875 0.21875 0.578125 0.375q0.375 0.140625 1.140625 0.390625l0.46875 0.15625q1.375 0.453125 1.984375 1.015625q0.609375 0.546875 0.609375 1.609375q0 1.21875 -0.9375 1.828125q-0.921875 0.59375 -2.578125 0.59375zm-0.59225464 -12.4375l1.4375 0l0 1.109375l4.140625 0l-0.078125 1.21875l-5.5 0l0 -2.328125zm1.359375 -2.3128967l-1.0 0l0 -1.125l2.140625 0l0 1.25l2.453125 0l-0.0625 1.125l-3.53125 0l0 -1.25zm7.859375 14.750397q-1.03125 0 -1.609375 -0.203125l-2.421875 -5.921875l1.6875 0l1.96875 4.796875q1.359375 0.0625 1.984375 -0.78125q0.640625 -0.84375 0.640625 -2.640625q0 -1.046875 -0.203125 -1.640625q-0.1875 -0.59375 -0.640625 -0.84375q-0.4375 -0.25 -1.25 -0.25l-0.609375 0l0 -1.3125l0.828125 0q1.84375 0 2.703125 0.984375q0.859375 0.984375 0.859375 3.046875q0 2.4375 -1.078125 3.609375q-1.0625 1.15625 -2.859375 1.15625z" fill-rule="nonzero"/><path fill="#ffffff" d="m416.25266 470.5879l1.578125 0l0.09375 0.9375q1.296875 -1.09375 3.078125 -1.09375q1.359375 0 2.125 0.8125q0.765625 0.8125 0.765625 2.28125l0 5.703125l-1.734375 0l0 -5.609375q0 -0.9375 -0.4375 -1.359375q-0.4375 -0.421875 -1.34375 -0.421875q-0.6875 0 -1.3125 0.296875q-0.625 0.28125 -1.078125 0.734375l0 6.359375l-1.734375 0l0 -8.640625zm1.0550232 -2.53125l5.140625 0l0 -1.328125l1.4375 0l0 2.546875l-6.671875 0l0.09375 -1.21875zm5.140625 -4.313263l1.4375 0l0 2.21875l-1.4375 0l0 -2.21875zm3.15625 14.625763q0.390625 -0.890625 1.0625 -1.640625q0.671875 -0.765625 1.6875 -1.640625q0.984375 -0.84375 1.390625 -1.265625q0.421875 -0.4375 0.59375 -0.84375q0.171875 -0.421875 0.171875 -1.03125q0 -0.84375 -0.5 -1.265625q-0.484375 -0.421875 -1.578125 -0.421875q-1.15625 0 -2.4375 0.46875l0 -1.53125q0.5625 -0.1875 1.328125 -0.3125q0.765625 -0.125 1.453125 -0.125q1.6875 0 2.578125 0.84375q0.90625 0.84375 0.90625 2.328125q0 1.015625 -0.484375 1.75q-0.484375 0.734375 -1.515625 1.65625l-0.265625 0.25q-0.90625 0.78125 -1.375 1.25q-0.46875 0.46875 -0.796875 1.046875l4.546875 0l0 1.34375l-6.765625 0l0 -0.859375z" fill-rule="nonzero"/><path fill="#f4b400" d="m332.22855 574.1139l91.9205 -37.477417l91.92053 37.477417l-91.92053 37.477478z" fill-rule="evenodd"/><path fill="#ffffff" d="m391.98523 567.34894q0 -1.59375 1.265625 -1.984375l-1.734375 -0.421875l0 -1.796875q0.71875 -0.640625 1.78125 -1.046875q1.0625 -0.421875 2.359375 -0.421875q1.96875 0 2.953125 0.8125q1.0 0.8125 1.0 2.625l0 5.359375l-1.734375 0l0 -5.40625q0 -1.109375 -0.515625 -1.546875q-0.515625 -0.4375 -1.765625 -0.4375q-0.78125 0 -1.484375 0.234375q-0.6875 0.21875 -1.09375 0.578125l0 0.296875l1.828125 0.453125l0 1.15625q-0.625 0.15625 -0.890625 0.515625q-0.25 0.34375 -0.25 1.046875l0 3.109375l-1.71875 0l0 -3.125zm12.870514 3.28125q-1.609375 0 -2.578125 -1.078125q-0.953125 -1.078125 -0.953125 -3.265625q0 -2.203125 1.109375 -3.40625q1.125 -1.203125 3.3125 -1.203125q1.40625 0 2.34375 0.484375q0.9375 0.484375 1.375 1.28125q0.4375 0.796875 0.4375 1.75l0 5.28125l-1.75 0l0 -5.203125q0 -1.03125 -0.5625 -1.609375q-0.5625 -0.578125 -1.875 -0.578125q-1.390625 0 -2.046875 0.796875q-0.65625 0.796875 -0.65625 2.40625q0 1.578125 0.53125 2.265625q0.53125 0.6875 1.625 0.6875q0.734375 0 1.09375 -0.125l0 1.328125q-0.53125 0.1875 -1.40625 0.1875zm11.0224 0q-1.875 0 -2.90625 -0.875q-1.03125 -0.890625 -1.03125 -2.640625l0 -5.28125l1.734375 0l0 5.34375q0 1.0625 0.546875 1.5625q0.5625 0.5 1.65625 0.5q1.109375 0 1.671875 -0.5q0.5625 -0.5 0.5625 -1.5625l0 -7.90625l1.71875 0l0 7.84375q0 1.75 -1.03125 2.640625q-1.015625 0.875 -2.921875 0.875zm2.4672546 1.890625l-1.0 0l0.078125 -1.140625l2.40625 0l0 3.125l-1.484375 0l0 -1.984375zm-3.578125 -14.625l1.734375 0l0 2.625l-1.734375 0l0 -2.625zm11.8125305 12.734375q-0.953125 0 -1.6875 -0.28125q-0.71875 -0.28125 -1.34375 -0.8125l-0.09375 0.9375l-1.578125 0l0 -8.640625l1.734375 0l0 6.375q0.453125 0.453125 1.078125 0.75q0.625 0.28125 1.3125 0.28125q0.90625 0 1.34375 -0.421875q0.4375 -0.4375 0.4375 -1.40625l0 -5.578125l1.734375 0l0 5.671875q0 1.484375 -0.78125 2.3125q-0.765625 0.8125 -2.15625 0.8125zm4.976898 -5.625q0 -1.609375 0.953125 -2.46875q0.96875 -0.859375 2.953125 -0.859375q1.984375 0 2.9375 0.859375q0.953125 0.859375 0.953125 2.46875l0 5.46875l-1.734375 0l0 -5.625q0 -1.765625 -2.15625 -1.765625q-1.078125 0 -1.625 0.4375q-0.546875 0.421875 -0.546875 1.328125l0 1.765625q0.703125 -0.578125 1.6875 -0.578125l1.03125 0l0.0625 1.390625l-1.140625 0q-0.984375 0 -1.640625 0.546875l0 2.5l-1.734375 0l0 -5.46875zm12.668152 5.625q-0.875 0 -1.671875 -0.109375q-0.78125 -0.109375 -1.28125 -0.3125l0 -1.46875q0.59375 0.25 1.296875 0.375q0.703125 0.125 1.328125 0.125q1.171875 0 1.671875 -0.203125q0.5 -0.203125 0.5 -0.828125q0 -0.390625 -0.203125 -0.625q-0.1875 -0.234375 -0.53125 -0.375q-0.328125 -0.140625 -1.03125 -0.359375l-0.625 -0.21875q-1.3125 -0.4375 -1.96875 -0.96875q-0.640625 -0.546875 -0.640625 -1.53125q0 -1.15625 0.875 -1.796875q0.890625 -0.65625 2.59375 -0.65625q0.703125 0 1.421875 0.109375q0.71875 0.109375 1.21875 0.265625l0 1.453125q-0.515625 -0.203125 -1.171875 -0.3125q-0.640625 -0.109375 -1.203125 -0.109375q-1.015625 0 -1.53125 0.21875q-0.515625 0.21875 -0.515625 0.78125q0 0.34375 0.203125 0.578125q0.21875 0.21875 0.578125 0.375q0.375 0.140625 1.140625 0.390625l0.46875 0.15625q1.375 0.453125 1.984375 1.015625q0.609375 0.546875 0.609375 1.609375q0 1.21875 -0.9375 1.828125q-0.921875 0.59375 -2.578125 0.59375zm-0.59225464 -12.4375l1.4375 0l0 1.109375l4.140625 0l-0.078125 1.21875l-5.5 0l0 -2.328125zm1.359375 -2.3129272l-1.0 0l0 -1.125l2.140625 0l0 1.25l2.453125 0l-0.0625 1.125l-3.53125 0l0 -1.25zm7.859375 14.750427q-1.03125 0 -1.609375 -0.203125l-2.421875 -5.921875l1.6875 0l1.96875 4.796875q1.359375 0.0625 1.984375 -0.78125q0.640625 -0.84375 0.640625 -2.640625q0 -1.046875 -0.203125 -1.640625q-0.1875 -0.59375 -0.640625 -0.84375q-0.4375 -0.25 -1.25 -0.25l-0.609375 0l0 -1.3125l0.828125 0q1.84375 0 2.703125 0.984375q0.859375 0.984375 0.859375 3.046875q0 2.4375 -1.078125 3.609375q-1.0625 1.15625 -2.859375 1.15625z" fill-rule="nonzero"/><path fill="#ffffff" d="m413.21265 580.8333l1.578125 0l0.09375 0.9375q1.296875 -1.09375 3.078125 -1.09375q1.359375 0 2.125 0.8125q0.765625 0.8125 0.765625 2.28125l0 5.703125l-1.734375 0l0 -5.609375q0 -0.9375 -0.4375 -1.359375q-0.4375 -0.421875 -1.34375 -0.421875q-0.6875 0 -1.3125 0.296875q-0.625 0.28125 -1.078125 0.734375l0 6.359375l-1.734375 0l0 -8.640625zm1.0550232 -2.53125l5.140625 0l0 -1.328125l1.4375 0l0 2.546875l-6.671875 0l0.09375 -1.21875zm5.140625 -4.3132935l1.4375 0l0 2.21875l-1.4375 0l0 -2.21875zm11.998138 15.641418q-0.71875 0 -1.578125 -0.140625q-0.84375 -0.125 -1.34375 -0.3125l0 -1.53125q1.203125 0.5 2.6875 0.5q1.28125 0 1.875 -0.375q0.59375 -0.375 0.59375 -1.28125q0 -1.578125 -2.125 -1.578125l-1.5625 0l0.140625 -1.296875l1.296875 0q2.03125 0 2.03125 -1.59375q0 -0.78125 -0.546875 -1.140625q-0.53125 -0.375 -1.703125 -0.375q-0.640625 0 -1.3125 0.125q-0.65625 0.125 -1.1875 0.34375l0 -1.484375q0.515625 -0.203125 1.28125 -0.34375q0.765625 -0.140625 1.484375 -0.140625q1.828125 0 2.78125 0.78125q0.953125 0.78125 0.953125 2.078125q0 0.8125 -0.390625 1.46875q-0.390625 0.65625 -1.15625 0.921875q0.890625 0.25 1.328125 0.859375q0.4375 0.59375 0.4375 1.484375q0 1.5 -1.0625 2.265625q-1.0625 0.765625 -2.921875 0.765625z" fill-rule="nonzero"/><path fill="#000000" fill-opacity="0.0" d="m424.1499 272.2104l0 35.905518" fill-rule="evenodd"/><path stroke="#000000" stroke-width="1.0" stroke-linejoin="round" stroke-linecap="butt" d="m424.1499 272.2104l0 29.905518" fill-rule="evenodd"/><path fill="#000000" stroke="#000000" stroke-width="1.0" stroke-linecap="butt" d="m422.49817 302.1159l1.6517334 4.538086l1.6517334 -4.538086z" fill-rule="evenodd"/><path fill="#000000" fill-opacity="0.0" d="m424.1499 386.7773l0 35.905518" fill-rule="evenodd"/><path stroke="#000000" stroke-width="1.0" stroke-linejoin="round" stroke-linecap="butt" d="m424.1499 386.7773l0 29.905518" fill-rule="evenodd"/><path fill="#000000" stroke="#000000" stroke-width="1.0" stroke-linecap="butt" d="m422.49817 416.68283l1.6517334 4.538086l1.6517334 -4.538086z" fill-rule="evenodd"/><path fill="#000000" fill-opacity="0.0" d="m424.1499 498.48862l0 35.905487" fill-rule="evenodd"/><path stroke="#000000" stroke-width="1.0" stroke-linejoin="round" stroke-linecap="butt" d="m424.1499 498.4886l0 29.905518" fill-rule="evenodd"/><path fill="#000000" stroke="#000000" stroke-width="1.0" stroke-linecap="butt" d="m422.49817 528.3941l1.6517334 4.538086l1.6517334 -4.538086z" fill-rule="evenodd"/><path fill="#4a86e8" d="m568.2664 316.0958l127.1181 0l0 58.992126l-127.1181 0z" fill-rule="evenodd"/><path fill="#ffffff" d="m581.617 331.655l4.578125 0q1.71875 0 2.59375 0.9375q0.875 0.9375 0.875 2.5q0 1.53125 -0.953125 2.46875q-0.953125 0.921875 -2.578125 0.921875l-2.78125 0l0 3.46875l-1.734375 0l0 -10.296875zm4.203125 5.453125q1.0 0 1.546875 -0.53125q0.546875 -0.546875 0.546875 -1.484375q0 -1.0 -0.515625 -1.53125q-0.515625 -0.546875 -1.5 -0.546875l-2.546875 0l0 4.09375l2.46875 0zm5.836853 -5.765625l1.90625 0l0 1.4375l-1.90625 0l0 -1.4375zm0.140625 4.359375l-1.140625 0l0.15625 -1.328125l2.734375 0l0 7.578125l-1.75 0l0 -6.25zm3.7874146 -1.328125l1.59375 0l0.078125 0.796875q0.546875 -0.4375 1.265625 -0.703125q0.71875 -0.265625 1.53125 -0.265625q1.46875 0 2.140625 0.6875q0.671875 0.6875 0.671875 2.15625l0 4.90625l-1.71875 0l0 -4.828125q0 -0.890625 -0.375 -1.234375q-0.359375 -0.359375 -1.34375 -0.359375q-0.59375 0 -1.15625 0.25q-0.5625 0.234375 -0.953125 0.625l0 5.546875l-1.734375 0l0 -7.578125zm18.871155 7.734375q-2.0 0 -3.015625 -0.734375q-1.015625 -0.75 -1.015625 -2.203125q0 -0.90625 0.46875 -1.578125q0.484375 -0.6875 1.359375 -0.96875q-0.765625 -0.28125 -1.15625 -0.859375q-0.390625 -0.59375 -0.390625 -1.328125q0 -1.375 0.9375 -2.15625q0.953125 -0.796875 2.8125 -0.796875q1.890625 0 2.8125 0.78125q0.9375 0.78125 0.9375 2.171875q0 0.78125 -0.390625 1.40625q-0.375 0.609375 -1.234375 0.921875q0.984375 0.296875 1.4375 0.890625q0.453125 0.578125 0.453125 1.515625q0 1.453125 -1.015625 2.203125q-1.0 0.734375 -3.0 0.734375zm0.4375 -5.890625q0.890625 -0.21875 1.28125 -0.609375q0.40625 -0.390625 0.40625 -1.140625q0 -1.609375 -2.125 -1.609375q-2.125 0 -2.125 1.609375q0 0.625 0.359375 1.015625q0.359375 0.390625 1.0625 0.515625l1.140625 0.21875zm-0.4375 4.53125q1.21875 0 1.8125 -0.390625q0.59375 -0.390625 0.59375 -1.21875q0 -0.71875 -0.40625 -1.0625q-0.40625 -0.359375 -1.328125 -0.5625l-1.3125 -0.265625q-0.875 0.1875 -1.328125 0.625q-0.453125 0.421875 -0.453125 1.234375q0 0.84375 0.59375 1.25q0.609375 0.390625 1.828125 0.390625zm5.4087524 -3.78125l6.109375 0l0 1.359375l-6.109375 0l0 -1.359375zm9.159912 -3.78125l-1.671875 0.28125l0 -1.453125l3.390625 -0.53125l0 10.46875l-1.71875 0l0 -8.765625zm6.354004 8.921875q-0.71875 0 -1.578125 -0.140625q-0.84375 -0.125 -1.34375 -0.3125l0 -1.53125q1.203125 0.5 2.6875 0.5q1.28125 0 1.875 -0.375q0.59375 -0.375 0.59375 -1.28125q0 -1.578125 -2.125 -1.578125l-1.5625 0l0.140625 -1.296875l1.296875 0q2.03125 0 2.03125 -1.59375q0 -0.78125 -0.546875 -1.140625q-0.53125 -0.375 -1.703125 -0.375q-0.640625 0 -1.3125 0.125q-0.65625 0.125 -1.1875 0.34375l0 -1.484375q0.515625 -0.203125 1.28125 -0.34375q0.765625 -0.140625 1.484375 -0.140625q1.828125 0 2.78125 0.78125q0.953125 0.78125 0.953125 2.078125q0 0.8125 -0.390625 1.46875q-0.390625 0.65625 -1.15625 0.921875q0.890625 0.25 1.328125 0.859375q0.4375 0.59375 0.4375 1.484375q0 1.5 -1.0625 2.265625q-1.0625 0.765625 -2.921875 0.765625zm13.552124 -0.15625q-1.671875 0 -1.671875 -1.65625l0 -5.53125q0 -1.71875 1.21875 -2.546875l-2.515625 0l0 -1.375l4.625 0l0 1.3125q-0.859375 0.34375 -1.234375 1.03125q-0.375 0.671875 -0.375 1.84375l0 4.828125q0 0.4375 0.140625 0.578125q0.140625 0.140625 0.578125 0.140625l0.734375 0l0 1.375l-1.5 0zm2.44104 -8.640625l1.703125 0l1.28125 6.171875l1.578125 -4.9375l0 -1.234375l1.25 0l1.734375 6.171875l1.75 -8.734375l1.6875 0l-2.46875 11.203125l-1.609375 0l-1.59375 -5.5l-1.734375 5.5l-1.578125 0l-2.0 -8.640625zm15.272278 8.796875q-1.609375 0 -2.578125 -1.078125q-0.953125 -1.078125 -0.953125 -3.265625q0 -2.234375 0.734375 -3.421875q0.75 -1.1875 2.109375 -1.1875q0.625 0 1.015625 0.203125q0.390625 0.203125 0.71875 0.625q0.328125 -0.375 0.875 -0.59375q0.546875 -0.234375 1.109375 -0.234375q1.0 0 1.53125 0.609375q0.53125 0.609375 0.53125 1.703125l0 6.484375l-1.75 0l0 -6.21875q0 -0.640625 -0.171875 -0.90625q-0.171875 -0.265625 -0.671875 -0.265625q-0.328125 0 -0.59375 0.1875q-0.265625 0.171875 -0.390625 0.546875l-0.96875 0q-0.203125 -0.40625 -0.421875 -0.5625q-0.203125 -0.171875 -0.5625 -0.171875q-0.796875 0 -1.109375 0.8125q-0.296875 0.8125 -0.296875 2.390625q0 1.578125 0.53125 2.265625q0.53125 0.6875 1.625 0.6875q0.734375 0 1.09375 -0.125l0 1.328125q-0.53125 0.1875 -1.40625 0.1875zm-1.4921265 -11.328125l6.578125 0l0 1.21875l-6.671875 0l0.09375 -1.21875zm11.828125 11.328125q-1.609375 0 -2.578125 -1.078125q-0.953125 -1.078125 -0.953125 -3.265625q0 -2.203125 1.109375 -3.40625q1.125 -1.203125 3.3125 -1.203125q1.40625 0 2.34375 0.484375q0.9375 0.484375 1.375 1.28125q0.4375 0.796875 0.4375 1.75l0 5.28125l-1.75 0l0 -5.203125q0 -1.03125 -0.5625 -1.609375q-0.5625 -0.578125 -1.875 -0.578125q-1.390625 0 -2.046875 0.796875q-0.65625 0.796875 -0.65625 2.40625q0 1.578125 0.53125 2.265625q0.53125 0.6875 1.625 0.6875q0.734375 0 1.09375 -0.125l0 1.328125q-0.53125 0.1875 -1.40625 0.1875z" fill-rule="nonzero"/><path fill="#ffffff" d="m619.88904 355.48312q0 -1.609375 0.953125 -2.46875q0.96875 -0.859375 2.953125 -0.859375q1.984375 0 2.9375 0.859375q0.953125 0.859375 0.953125 2.46875l0 5.46875l-1.734375 0l0 -5.625q0 -1.765625 -2.15625 -1.765625q-1.078125 0 -1.625 0.4375q-0.546875 0.421875 -0.546875 1.328125l0 1.765625q0.703125 -0.578125 1.6875 -0.578125l1.03125 0l0.0625 1.390625l-1.140625 0q-0.984375 0 -1.640625 0.546875l0 2.5l-1.734375 0l0 -5.46875zm4.136902 -5.953125l-1.265625 0l0 -1.203125l2.46875 0l0 1.453125l3.453125 0l-0.0625 1.21875l-4.59375 0l0 -1.46875zm8.953125 5.984375q0 -0.703125 -0.140625 -1.109375q-0.140625 -0.40625 -0.546875 -0.625q-0.40625 -0.21875 -1.171875 -0.21875q-0.515625 0 -1.125 0.109375q-0.59375 0.109375 -1.078125 0.3125l0 -1.34375q0.5 -0.21875 1.1875 -0.34375q0.6875 -0.140625 1.34375 -0.140625q1.734375 0 2.5 0.75q0.78125 0.75 0.78125 2.390625l0 5.65625l-1.75 0l0 -5.4375zm7.180664 5.59375q-1.03125 0 -1.609375 -0.203125l-2.421875 -5.921875l1.6875 0l1.96875 4.796875q1.359375 0.0625 1.984375 -0.78125q0.640625 -0.84375 0.640625 -2.640625q0 -1.046875 -0.203125 -1.640625q-0.1875 -0.59375 -0.640625 -0.84375q-0.4375 -0.25 -1.25 -0.25l-0.609375 0l0 -1.3125l0.828125 0q1.84375 0 2.703125 0.984375q0.859375 0.984375 0.859375 3.046875q0 2.4375 -1.078125 3.609375q-1.0625 1.15625 -2.859375 1.15625z" fill-rule="nonzero"/><path fill="#000000" fill-opacity="0.0" d="m509.65222 345.59186l58.614197 0" fill-rule="evenodd"/><path stroke="#000000" stroke-width="1.0" stroke-linejoin="round" stroke-linecap="butt" d="m509.65222 345.59186l52.614197 0" fill-rule="evenodd"/><path fill="#000000" stroke="#000000" stroke-width="1.0" stroke-linecap="butt" d="m562.2664 347.2436l4.538086 -1.6517334l-4.538086 -1.6517334z" fill-rule="evenodd"/><path fill="#f4b400" d="m735.7152 321.16666l102.74017 0l0 48.850403l-102.74017 0z" fill-rule="evenodd"/><path fill="#ffffff" d="m771.8331 351.60812q-0.8125 0 -1.421875 -0.203125q-0.609375 -0.21875 -1.140625 -0.703125l-0.09375 0.75l-1.5 0l0 -10.78125l1.734375 0l0 3.6875q0.984375 -0.65625 2.390625 -0.65625q1.671875 0 2.578125 0.953125q0.90625 0.953125 0.90625 2.9375q0 2.015625 -0.90625 3.015625q-0.90625 1.0 -2.546875 1.0zm-0.46875 -1.3125q1.15625 0 1.65625 -0.65625q0.5 -0.65625 0.5 -2.046875q0 -1.390625 -0.515625 -1.96875q-0.515625 -0.59375 -1.671875 -0.59375q-1.1875 0 -1.921875 0.65625l0 3.8125q0.75 0.796875 1.953125 0.796875zm5.6245117 -6.421875l1.59375 0l0.09375 0.875q0.546875 -0.359375 1.296875 -0.640625q0.75 -0.28125 1.484375 -0.40625l0 1.328125q-0.6875 0.140625 -1.484375 0.40625q-0.796875 0.25 -1.25 0.546875l0 5.46875l-1.734375 0l0 -7.578125zm9.220154 7.734375q-2.015625 0 -3.09375 -0.984375q-1.0625 -1.0 -1.0625 -2.984375q0 -1.875 0.9375 -2.90625q0.953125 -1.03125 2.8125 -1.03125q1.671875 0 2.5625 0.890625q0.90625 0.875 0.90625 2.34375l0 1.40625l-5.546875 0q0.125 1.09375 0.78125 1.515625q0.65625 0.421875 2.0625 0.421875q0.578125 0 1.171875 -0.109375q0.59375 -0.109375 1.0625 -0.28125l0 1.28125q-1.0 0.4375 -2.59375 0.4375zm1.53125 -4.390625l0 -0.53125q0 -0.8125 -0.453125 -1.234375q-0.453125 -0.4375 -1.4375 -0.4375q-1.1875 0 -1.65625 0.515625q-0.46875 0.515625 -0.46875 1.6875l4.015625 0zm5.59198 4.390625q-1.15625 0 -1.921875 -0.59375q-0.765625 -0.609375 -0.765625 -1.71875q0 -1.125 0.75 -1.765625q0.765625 -0.65625 2.296875 -0.65625l2.421875 0l0 -0.328125q0 -0.5625 -0.171875 -0.875q-0.15625 -0.3125 -0.609375 -0.453125q-0.453125 -0.15625 -1.28125 -0.15625q-1.34375 0 -2.515625 0.40625l0 -1.296875q0.546875 -0.203125 1.28125 -0.328125q0.734375 -0.140625 1.5625 -0.140625q1.6875 0 2.546875 0.6875q0.859375 0.6875 0.859375 2.1875l0 4.875l-1.484375 0l-0.125 -0.765625q-0.46875 0.46875 -1.15625 0.703125q-0.6875 0.21875 -1.6875 0.21875zm0.46875 -1.25q0.75 0 1.34375 -0.25q0.59375 -0.25 0.96875 -0.71875l0 -1.328125l-2.390625 0q-0.78125 0 -1.125 0.296875q-0.34375 0.28125 -0.34375 0.90625q0 0.578125 0.390625 0.84375q0.390625 0.25 1.15625 0.25zm5.923889 -9.6875l1.734375 0l0 6.234375l3.1875 -3.03125l2.0 0l-3.09375 3.046875l3.265625 4.53125l-1.84375 0l-2.5 -3.59375l-1.015625 0.953125l0 2.640625l-1.734375 0l0 -10.78125z" fill-rule="nonzero"/><path fill="#000000" fill-opacity="0.0" d="m695.3845 345.59186l40.346436 0" fill-rule="evenodd"/><path stroke="#000000" stroke-width="1.0" stroke-linejoin="round" stroke-linecap="butt" d="m695.3845 345.59186l34.346436 0" fill-rule="evenodd"/><path fill="#000000" stroke="#000000" stroke-width="1.0" stroke-linecap="butt" d="m729.73096 347.2436l4.538086 -1.6517334l-4.538086 -1.6517334z" fill-rule="evenodd"/><path fill="#4a86e8" d="m574.6837 434.3727l127.1181 0l0 58.992126l-127.1181 0z" fill-rule="evenodd"/><path fill="#ffffff" d="m586.8183 449.9319l4.578125 0q1.71875 0 2.59375 0.9375q0.875 0.9375 0.875 2.5q0 1.53125 -0.953125 2.46875q-0.953125 0.921875 -2.578125 0.921875l-2.78125 0l0 3.46875l-1.734375 0l0 -10.296875zm4.203125 5.453125q1.0 0 1.546875 -0.53125q0.546875 -0.546875 0.546875 -1.484375q0 -1.0 -0.515625 -1.53125q-0.515625 -0.546875 -1.5 -0.546875l-2.546875 0l0 4.09375l2.46875 0zm5.836914 -5.765625l1.90625 0l0 1.4375l-1.90625 0l0 -1.4375zm0.140625 4.359375l-1.140625 0l0.15625 -1.328125l2.734375 0l0 7.578125l-1.75 0l0 -6.25zm3.7873535 -1.328125l1.59375 0l0.078125 0.796875q0.546875 -0.4375 1.265625 -0.703125q0.71875 -0.265625 1.53125 -0.265625q1.46875 0 2.140625 0.6875q0.671875 0.6875 0.671875 2.15625l0 4.90625l-1.71875 0l0 -4.828125q0 -0.890625 -0.375 -1.234375q-0.359375 -0.359375 -1.34375 -0.359375q-0.59375 0 -1.15625 0.25q-0.5625 0.234375 -0.953125 0.625l0 5.546875l-1.734375 0l0 -7.578125zm18.871155 7.734375q-2.0 0 -3.015625 -0.734375q-1.015625 -0.75 -1.015625 -2.203125q0 -0.90625 0.46875 -1.578125q0.484375 -0.6875 1.359375 -0.96875q-0.765625 -0.28125 -1.15625 -0.859375q-0.390625 -0.59375 -0.390625 -1.328125q0 -1.375 0.9375 -2.15625q0.953125 -0.796875 2.8125 -0.796875q1.890625 0 2.8125 0.78125q0.9375 0.78125 0.9375 2.171875q0 0.78125 -0.390625 1.40625q-0.375 0.609375 -1.234375 0.921875q0.984375 0.296875 1.4375 0.890625q0.453125 0.578125 0.453125 1.515625q0 1.453125 -1.015625 2.203125q-1.0 0.734375 -3.0 0.734375zm0.4375 -5.890625q0.890625 -0.21875 1.28125 -0.609375q0.40625 -0.390625 0.40625 -1.140625q0 -1.609375 -2.125 -1.609375q-2.125 0 -2.125 1.609375q0 0.625 0.359375 1.015625q0.359375 0.390625 1.0625 0.515625l1.140625 0.21875zm-0.4375 4.53125q1.21875 0 1.8125 -0.390625q0.59375 -0.390625 0.59375 -1.21875q0 -0.71875 -0.40625 -1.0625q-0.40625 -0.359375 -1.328125 -0.5625l-1.3125 -0.265625q-0.875 0.1875 -1.328125 0.625q-0.453125 0.421875 -0.453125 1.234375q0 0.84375 0.59375 1.25q0.609375 0.390625 1.828125 0.390625zm5.4088135 -3.78125l6.109375 0l0 1.359375l-6.109375 0l0 -1.359375zm9.159851 -3.78125l-1.671875 0.28125l0 -1.453125l3.390625 -0.53125l0 10.46875l-1.71875 0l0 -8.765625zm6.354004 8.921875q-0.71875 0 -1.578125 -0.140625q-0.84375 -0.125 -1.34375 -0.3125l0 -1.53125q1.203125 0.5 2.6875 0.5q1.28125 0 1.875 -0.375q0.59375 -0.375 0.59375 -1.28125q0 -1.578125 -2.125 -1.578125l-1.5625 0l0.140625 -1.296875l1.296875 0q2.03125 0 2.03125 -1.59375q0 -0.78125 -0.546875 -1.140625q-0.53125 -0.375 -1.703125 -0.375q-0.640625 0 -1.3125 0.125q-0.65625 0.125 -1.1875 0.34375l0 -1.484375q0.515625 -0.203125 1.28125 -0.34375q0.765625 -0.140625 1.484375 -0.140625q1.828125 0 2.78125 0.78125q0.953125 0.78125 0.953125 2.078125q0 0.8125 -0.390625 1.46875q-0.390625 0.65625 -1.15625 0.921875q0.890625 0.25 1.328125 0.859375q0.4375 0.59375 0.4375 1.484375q0 1.5 -1.0625 2.265625q-1.0625 0.765625 -2.921875 0.765625zm13.552185 -0.15625q-1.671875 0 -1.671875 -1.65625l0 -5.53125q0 -1.71875 1.21875 -2.546875l-2.515625 0l0 -1.375l4.625 0l0 1.3125q-0.859375 0.34375 -1.234375 1.03125q-0.375 0.671875 -0.375 1.84375l0 4.828125q0 0.4375 0.140625 0.578125q0.140625 0.140625 0.578125 0.140625l0.734375 0l0 1.375l-1.5 0zm2.440979 -8.640625l1.703125 0l1.28125 6.171875l1.578125 -4.9375l0 -1.234375l1.25 0l1.734375 6.171875l1.75 -8.734375l1.6875 0l-2.46875 11.203125l-1.609375 0l-1.59375 -5.5l-1.734375 5.5l-1.578125 0l-2.0 -8.640625zm12.209778 5.515625q0 -1.59375 1.265625 -1.984375l-1.734375 -0.421875l0 -1.796875q0.71875 -0.640625 1.78125 -1.046875q1.0625 -0.421875 2.359375 -0.421875q1.96875 0 2.953125 0.8125q1.0 0.8125 1.0 2.625l0 5.359375l-1.734375 0l0 -5.40625q0 -1.109375 -0.515625 -1.546875q-0.515625 -0.4375 -1.765625 -0.4375q-0.78125 0 -1.484375 0.234375q-0.6875 0.21875 -1.09375 0.578125l0 0.296875l1.828125 0.453125l0 1.15625q-0.625 0.15625 -0.890625 0.515625q-0.25 0.34375 -0.25 1.046875l0 3.109375l-1.71875 0l0 -3.125zm12.495544 3.28125q-0.875 0 -1.671875 -0.109375q-0.78125 -0.109375 -1.28125 -0.3125l0 -1.46875q0.59375 0.25 1.296875 0.375q0.703125 0.125 1.328125 0.125q1.171875 0 1.671875 -0.203125q0.5 -0.203125 0.5 -0.828125q0 -0.390625 -0.203125 -0.625q-0.1875 -0.234375 -0.53125 -0.375q-0.328125 -0.140625 -1.03125 -0.359375l-0.625 -0.21875q-1.3125 -0.4375 -1.96875 -0.96875q-0.640625 -0.546875 -0.640625 -1.53125q0 -1.15625 0.875 -1.796875q0.890625 -0.65625 2.59375 -0.65625q0.703125 0 1.421875 0.109375q0.71875 0.109375 1.21875 0.265625l0 1.453125q-0.515625 -0.203125 -1.171875 -0.3125q-0.640625 -0.109375 -1.203125 -0.109375q-1.015625 0 -1.53125 0.21875q-0.515625 0.21875 -0.515625 0.78125q0 0.34375 0.203125 0.578125q0.21875 0.21875 0.578125 0.375q0.375 0.140625 1.140625 0.390625l0.46875 0.15625q1.375 0.453125 1.984375 1.015625q0.609375 0.546875 0.609375 1.609375q0 1.21875 -0.9375 1.828125q-0.921875 0.59375 -2.578125 0.59375zm4.907776 -7.53125l1.484375 0l0 0.78125l2.359375 0l-0.0625 1.296875l-3.78125 0l0 -2.078125zm0 4.34375l1.484375 0l0 0.8125l2.359375 0l-0.0625 1.28125l-3.78125 0l0 -2.09375z" fill-rule="nonzero"/><path fill="#ffffff" d="m623.99725 470.58813l1.703125 0l1.28125 6.171875l1.578125 -4.9375l0 -1.234375l1.25 0l1.734375 6.171875l1.25 -6.171875l1.703125 0l-1.984375 8.640625l-1.609375 0l-1.59375 -5.5l-1.734375 5.5l-1.578125 0l-2.0 -8.640625zm14.897278 8.796875q-0.875 0 -1.671875 -0.109375q-0.78125 -0.109375 -1.28125 -0.3125l0 -1.46875q0.59375 0.25 1.296875 0.375q0.703125 0.125 1.328125 0.125q1.171875 0 1.671875 -0.203125q0.5 -0.203125 0.5 -0.828125q0 -0.390625 -0.203125 -0.625q-0.1875 -0.234375 -0.53125 -0.375q-0.328125 -0.140625 -1.03125 -0.359375l-0.625 -0.21875q-1.3125 -0.4375 -1.96875 -0.96875q-0.640625 -0.546875 -0.640625 -1.53125q0 -1.15625 0.875 -1.796875q0.890625 -0.65625 2.59375 -0.65625q0.703125 0 1.421875 0.109375q0.71875 0.109375 1.21875 0.265625l0 1.453125q-0.515625 -0.203125 -1.171875 -0.3125q-0.640625 -0.109375 -1.203125 -0.109375q-1.015625 0 -1.53125 0.21875q-0.515625 0.21875 -0.515625 0.78125q0 0.34375 0.203125 0.578125q0.21875 0.21875 0.578125 0.375q0.375 0.140625 1.140625 0.390625l0.46875 0.15625q1.375 0.453125 1.984375 1.015625q0.609375 0.546875 0.609375 1.609375q0 1.21875 -0.9375 1.828125q-0.921875 0.59375 -2.578125 0.59375zm-3.3890991 -11.328125l6.578125 0l0 1.21875l-6.671875 0l0.09375 -1.21875zm12.5625 11.328125q-1.875 0 -2.90625 -0.875q-1.03125 -0.890625 -1.03125 -2.640625l0 -5.28125l1.734375 0l0 5.34375q0 1.0625 0.546875 1.5625q0.5625 0.5 1.65625 0.5q1.109375 0 1.671875 -0.5q0.5625 -0.5 0.5625 -1.5625l0 -5.34375l1.71875 0l0 5.28125q0 1.75 -1.03125 2.640625q-1.015625 0.875 -2.921875 0.875z" fill-rule="nonzero"/><path fill="#000000" fill-opacity="0.0" d="m516.0696 463.86877l58.614136 0" fill-rule="evenodd"/><path stroke="#000000" stroke-width="1.0" stroke-linejoin="round" stroke-linecap="butt" d="m516.0696 463.86877l52.614136 0" fill-rule="evenodd"/><path fill="#000000" stroke="#000000" stroke-width="1.0" stroke-linecap="butt" d="m568.6837 465.5205l4.538086 -1.6517334l-4.538086 -1.6517334z" fill-rule="evenodd"/><path fill="#f4b400" d="m742.13257 439.44357l102.74011 0l0 48.850403l-102.74011 0z" fill-rule="evenodd"/><path fill="#ffffff" d="m778.2505 469.885q-0.8125 0 -1.421875 -0.203125q-0.609375 -0.21875 -1.140625 -0.703125l-0.09375 0.75l-1.5 0l0 -10.78125l1.734375 0l0 3.6875q0.984375 -0.65625 2.390625 -0.65625q1.671875 0 2.578125 0.953125q0.90625 0.953125 0.90625 2.9375q0 2.015625 -0.90625 3.015625q-0.90625 1.0 -2.546875 1.0zm-0.46875 -1.3125q1.15625 0 1.65625 -0.65625q0.5 -0.65625 0.5 -2.046875q0 -1.390625 -0.515625 -1.96875q-0.515625 -0.59375 -1.671875 -0.59375q-1.1875 0 -1.921875 0.65625l0 3.8125q0.75 0.796875 1.953125 0.796875zm5.6245117 -6.421875l1.59375 0l0.09375 0.875q0.546875 -0.359375 1.296875 -0.640625q0.75 -0.28125 1.484375 -0.40625l0 1.328125q-0.6875 0.140625 -1.484375 0.40625q-0.796875 0.25 -1.25 0.546875l0 5.46875l-1.734375 0l0 -7.578125zm9.220093 7.734375q-2.015625 0 -3.09375 -0.984375q-1.0625 -1.0 -1.0625 -2.984375q0 -1.875 0.9375 -2.90625q0.953125 -1.03125 2.8125 -1.03125q1.671875 0 2.5625 0.890625q0.90625 0.875 0.90625 2.34375l0 1.40625l-5.546875 0q0.125 1.09375 0.78125 1.515625q0.65625 0.421875 2.0625 0.421875q0.578125 0 1.171875 -0.109375q0.59375 -0.109375 1.0625 -0.28125l0 1.28125q-1.0 0.4375 -2.59375 0.4375zm1.53125 -4.390625l0 -0.53125q0 -0.8125 -0.453125 -1.234375q-0.453125 -0.4375 -1.4375 -0.4375q-1.1875 0 -1.65625 0.515625q-0.46875 0.515625 -0.46875 1.6875l4.015625 0zm5.592041 4.390625q-1.15625 0 -1.921875 -0.59375q-0.765625 -0.609375 -0.765625 -1.71875q0 -1.125 0.75 -1.765625q0.765625 -0.65625 2.296875 -0.65625l2.421875 0l0 -0.328125q0 -0.5625 -0.171875 -0.875q-0.15625 -0.3125 -0.609375 -0.453125q-0.453125 -0.15625 -1.28125 -0.15625q-1.34375 0 -2.515625 0.40625l0 -1.296875q0.546875 -0.203125 1.28125 -0.328125q0.734375 -0.140625 1.5625 -0.140625q1.6875 0 2.546875 0.6875q0.859375 0.6875 0.859375 2.1875l0 4.875l-1.484375 0l-0.125 -0.765625q-0.46875 0.46875 -1.15625 0.703125q-0.6875 0.21875 -1.6875 0.21875zm0.46875 -1.25q0.75 0 1.34375 -0.25q0.59375 -0.25 0.96875 -0.71875l0 -1.328125l-2.390625 0q-0.78125 0 -1.125 0.296875q-0.34375 0.28125 -0.34375 0.90625q0 0.578125 0.390625 0.84375q0.390625 0.25 1.15625 0.25zm5.923889 -9.6875l1.734375 0l0 6.234375l3.1875 -3.03125l2.0 0l-3.09375 3.046875l3.265625 4.53125l-1.84375 0l-2.5 -3.59375l-1.015625 0.953125l0 2.640625l-1.734375 0l0 -10.78125z" fill-rule="nonzero"/><path fill="#000000" fill-opacity="0.0" d="m701.8018 463.86877l40.346497 0" fill-rule="evenodd"/><path stroke="#000000" stroke-width="1.0" stroke-linejoin="round" stroke-linecap="butt" d="m701.8018 463.86877l34.346497 0" fill-rule="evenodd"/><path fill="#000000" stroke="#000000" stroke-width="1.0" stroke-linecap="butt" d="m736.1483 465.5205l4.538086 -1.6517334l-4.538086 -1.6517334z" fill-rule="evenodd"/><path fill="#4a86e8" d="m574.6837 544.6693l127.1181 0l0 58.992126l-127.1181 0z" fill-rule="evenodd"/><path fill="#ffffff" d="m588.2343 569.72845l4.578125 0q1.71875 0 2.59375 0.9375q0.875 0.9375 0.875 2.5q0 1.53125 -0.953125 2.46875q-0.953125 0.921875 -2.578125 0.921875l-2.78125 0l0 3.46875l-1.734375 0l0 -10.296875zm4.203125 5.453125q1.0 0 1.546875 -0.53125q0.546875 -0.546875 0.546875 -1.484375q0 -1.0 -0.515625 -1.53125q-0.515625 -0.546875 -1.5 -0.546875l-2.546875 0l0 4.09375l2.46875 0zm5.836853 -5.765625l1.90625 0l0 1.4375l-1.90625 0l0 -1.4375zm0.140625 4.359375l-1.140625 0l0.15625 -1.328125l2.734375 0l0 7.578125l-1.75 0l0 -6.25zm3.7874146 -1.328125l1.59375 0l0.078125 0.796875q0.546875 -0.4375 1.265625 -0.703125q0.71875 -0.265625 1.53125 -0.265625q1.46875 0 2.140625 0.6875q0.671875 0.6875 0.671875 2.15625l0 4.90625l-1.71875 0l0 -4.828125q0 -0.890625 -0.375 -1.234375q-0.359375 -0.359375 -1.34375 -0.359375q-0.59375 0 -1.15625 0.25q-0.5625 0.234375 -0.953125 0.625l0 5.546875l-1.734375 0l0 -7.578125zm18.871155 7.734375q-2.0 0 -3.015625 -0.734375q-1.015625 -0.75 -1.015625 -2.203125q0 -0.90625 0.46875 -1.578125q0.484375 -0.6875 1.359375 -0.96875q-0.765625 -0.28125 -1.15625 -0.859375q-0.390625 -0.59375 -0.390625 -1.328125q0 -1.375 0.9375 -2.15625q0.953125 -0.796875 2.8125 -0.796875q1.890625 0 2.8125 0.78125q0.9375 0.78125 0.9375 2.171875q0 0.78125 -0.390625 1.40625q-0.375 0.609375 -1.234375 0.921875q0.984375 0.296875 1.4375 0.890625q0.453125 0.578125 0.453125 1.515625q0 1.453125 -1.015625 2.203125q-1.0 0.734375 -3.0 0.734375zm0.4375 -5.890625q0.890625 -0.21875 1.28125 -0.609375q0.40625 -0.390625 0.40625 -1.140625q0 -1.609375 -2.125 -1.609375q-2.125 0 -2.125 1.609375q0 0.625 0.359375 1.015625q0.359375 0.390625 1.0625 0.515625l1.140625 0.21875zm-0.4375 4.53125q1.21875 0 1.8125 -0.390625q0.59375 -0.390625 0.59375 -1.21875q0 -0.71875 -0.40625 -1.0625q-0.40625 -0.359375 -1.328125 -0.5625l-1.3125 -0.265625q-0.875 0.1875 -1.328125 0.625q-0.453125 0.421875 -0.453125 1.234375q0 0.84375 0.59375 1.25q0.609375 0.390625 1.828125 0.390625zm5.4087524 -3.78125l6.109375 0l0 1.359375l-6.109375 0l0 -1.359375zm9.159912 -3.78125l-1.671875 0.28125l0 -1.453125l3.390625 -0.53125l0 10.46875l-1.71875 0l0 -8.765625zm6.354004 8.921875q-0.71875 0 -1.578125 -0.140625q-0.84375 -0.125 -1.34375 -0.3125l0 -1.53125q1.203125 0.5 2.6875 0.5q1.28125 0 1.875 -0.375q0.59375 -0.375 0.59375 -1.28125q0 -1.578125 -2.125 -1.578125l-1.5625 0l0.140625 -1.296875l1.296875 0q2.03125 0 2.03125 -1.59375q0 -0.78125 -0.546875 -1.140625q-0.53125 -0.375 -1.703125 -0.375q-0.640625 0 -1.3125 0.125q-0.65625 0.125 -1.1875 0.34375l0 -1.484375q0.515625 -0.203125 1.28125 -0.34375q0.765625 -0.140625 1.484375 -0.140625q1.828125 0 2.78125 0.78125q0.953125 0.78125 0.953125 2.078125q0 0.8125 -0.390625 1.46875q-0.390625 0.65625 -1.15625 0.921875q0.890625 0.25 1.328125 0.859375q0.4375 0.59375 0.4375 1.484375q0 1.5 -1.0625 2.265625q-1.0625 0.765625 -2.921875 0.765625zm13.552124 -0.15625q-1.671875 0 -1.671875 -1.65625l0 -5.53125q0 -1.71875 1.21875 -2.546875l-2.515625 0l0 -1.375l4.625 0l0 1.3125q-0.859375 0.34375 -1.234375 1.03125q-0.375 0.671875 -0.375 1.84375l0 4.828125q0 0.4375 0.140625 0.578125q0.140625 0.140625 0.578125 0.140625l0.734375 0l0 1.375l-1.5 0zm2.44104 -8.640625l1.703125 0l1.28125 6.171875l1.578125 -4.9375l0 -1.234375l1.25 0l1.734375 6.171875l1.75 -8.734375l1.6875 0l-2.46875 11.203125l-1.609375 0l-1.59375 -5.5l-1.734375 5.5l-1.578125 0l-2.0 -8.640625zm15.272278 8.796875q-1.609375 0 -2.578125 -1.078125q-0.953125 -1.078125 -0.953125 -3.265625q0 -2.203125 1.109375 -3.40625q1.125 -1.203125 3.3125 -1.203125q1.40625 0 2.34375 0.484375q0.9375 0.484375 1.375 1.28125q0.4375 0.796875 0.4375 1.75l0 5.28125l-1.75 0l0 -5.203125q0 -1.03125 -0.5625 -1.609375q-0.5625 -0.578125 -1.875 -0.578125q-1.390625 0 -2.046875 0.796875q-0.65625 0.796875 -0.65625 2.40625q0 1.578125 0.53125 2.265625q0.53125 0.6875 1.625 0.6875q0.734375 0 1.09375 -0.125l0 1.328125q-0.53125 0.1875 -1.40625 0.1875zm1.2567749 -12.4375l1.4375 0l0 1.109375l4.140625 0l-0.078125 1.21875l-5.5 0l0 -2.328125zm9.765625 12.4375q-1.875 0 -2.90625 -0.875q-1.03125 -0.890625 -1.03125 -2.640625l0 -5.28125l1.734375 0l0 5.34375q0 1.0625 0.546875 1.5625q0.5625 0.5 1.65625 0.5q1.109375 0 1.671875 -0.5q0.5625 -0.5 0.5625 -1.5625l0 -5.34375l1.71875 0l0 5.28125q0 1.75 -1.03125 2.640625q-1.015625 0.875 -2.921875 0.875z" fill-rule="nonzero"/><path fill="#000000" fill-opacity="0.0" d="m516.0696 574.16534l58.614136 0" fill-rule="evenodd"/><path stroke="#000000" stroke-width="1.0" stroke-linejoin="round" stroke-linecap="butt" d="m516.0696 574.16534l52.614136 0" fill-rule="evenodd"/><path fill="#000000" stroke="#000000" stroke-width="1.0" stroke-linecap="butt" d="m568.6837 575.8171l4.538086 -1.6517334l-4.538086 -1.6517334z" fill-rule="evenodd"/><path fill="#f4b400" d="m742.13257 549.7402l102.74011 0l0 48.850403l-102.74011 0z" fill-rule="evenodd"/><path fill="#ffffff" d="m778.2505 580.1816q-0.8125 0 -1.421875 -0.203125q-0.609375 -0.21875 -1.140625 -0.703125l-0.09375 0.75l-1.5 0l0 -10.78125l1.734375 0l0 3.6875q0.984375 -0.65625 2.390625 -0.65625q1.671875 0 2.578125 0.953125q0.90625 0.953125 0.90625 2.9375q0 2.015625 -0.90625 3.015625q-0.90625 1.0 -2.546875 1.0zm-0.46875 -1.3125q1.15625 0 1.65625 -0.65625q0.5 -0.65625 0.5 -2.046875q0 -1.390625 -0.515625 -1.96875q-0.515625 -0.59375 -1.671875 -0.59375q-1.1875 0 -1.921875 0.65625l0 3.8125q0.75 0.796875 1.953125 0.796875zm5.6245117 -6.421875l1.59375 0l0.09375 0.875q0.546875 -0.359375 1.296875 -0.640625q0.75 -0.28125 1.484375 -0.40625l0 1.328125q-0.6875 0.140625 -1.484375 0.40625q-0.796875 0.25 -1.25 0.546875l0 5.46875l-1.734375 0l0 -7.578125zm9.220093 7.734375q-2.015625 0 -3.09375 -0.984375q-1.0625 -1.0 -1.0625 -2.984375q0 -1.875 0.9375 -2.90625q0.953125 -1.03125 2.8125 -1.03125q1.671875 0 2.5625 0.890625q0.90625 0.875 0.90625 2.34375l0 1.40625l-5.546875 0q0.125 1.09375 0.78125 1.515625q0.65625 0.421875 2.0625 0.421875q0.578125 0 1.171875 -0.109375q0.59375 -0.109375 1.0625 -0.28125l0 1.28125q-1.0 0.4375 -2.59375 0.4375zm1.53125 -4.390625l0 -0.53125q0 -0.8125 -0.453125 -1.234375q-0.453125 -0.4375 -1.4375 -0.4375q-1.1875 0 -1.65625 0.515625q-0.46875 0.515625 -0.46875 1.6875l4.015625 0zm5.592041 4.390625q-1.15625 0 -1.921875 -0.59375q-0.765625 -0.609375 -0.765625 -1.71875q0 -1.125 0.75 -1.765625q0.765625 -0.65625 2.296875 -0.65625l2.421875 0l0 -0.328125q0 -0.5625 -0.171875 -0.875q-0.15625 -0.3125 -0.609375 -0.453125q-0.453125 -0.15625 -1.28125 -0.15625q-1.34375 0 -2.515625 0.40625l0 -1.296875q0.546875 -0.203125 1.28125 -0.328125q0.734375 -0.140625 1.5625 -0.140625q1.6875 0 2.546875 0.6875q0.859375 0.6875 0.859375 2.1875l0 4.875l-1.484375 0l-0.125 -0.765625q-0.46875 0.46875 -1.15625 0.703125q-0.6875 0.21875 -1.6875 0.21875zm0.46875 -1.25q0.75 0 1.34375 -0.25q0.59375 -0.25 0.96875 -0.71875l0 -1.328125l-2.390625 0q-0.78125 0 -1.125 0.296875q-0.34375 0.28125 -0.34375 0.90625q0 0.578125 0.390625 0.84375q0.390625 0.25 1.15625 0.25zm5.923889 -9.6875l1.734375 0l0 6.234375l3.1875 -3.03125l2.0 0l-3.09375 3.046875l3.265625 4.53125l-1.84375 0l-2.5 -3.59375l-1.015625 0.953125l0 2.640625l-1.734375 0l0 -10.78125z" fill-rule="nonzero"/><path fill="#000000" fill-opacity="0.0" d="m701.8018 574.16534l40.346497 0" fill-rule="evenodd"/><path stroke="#000000" stroke-width="1.0" stroke-linejoin="round" stroke-linecap="butt" d="m701.8018 574.16534l34.346497 0" fill-rule="evenodd"/><path fill="#000000" stroke="#000000" stroke-width="1.0" stroke-linecap="butt" d="m736.1483 575.8171l4.538086 -1.6517334l-4.538086 -1.6517334z" fill-rule="evenodd"/></g></svg>