<svg version="1.1" viewBox="0.0 0.0 2062.459317585302 1213.6509186351707" fill="none" stroke="none" stroke-linecap="square" stroke-miterlimit="10" xmlns:xlink="http://www.w3.org/1999/xlink" xmlns="http://www.w3.org/2000/svg"><clipPath id="p.0"><path d="m0 0l2062.4592 0l0 1213.6509l-2062.4592 0l0 -1213.6509z" clip-rule="nonzero"/></clipPath><g clip-path="url(#p.0)"><path fill="#000000" fill-opacity="0.0" d="m0 0l2062.4592 0l0 1213.6509l-2062.4592 0z" fill-rule="evenodd"/><path fill="#cc0000" d="m136.73766 69.519684l69.67786 0l0 0c9.127991 0 16.527695 7.665451 16.527695 17.121262c0 9.455811 -7.399704 17.121262 -16.527695 17.121262l-69.67786 0l0 0c-9.127983 0 -16.52768 -7.665451 -16.52768 -17.121262c0 -9.455811 7.3996964 -17.121262 16.52768 -17.121262z" fill-rule="evenodd"/><path fill="#ffffff" d="m158.70155 92.657196q-2.0 0 -3.21875 -0.515625l0 -1.53125q1.5 0.578125 3.0625 0.578125q1.296875 0 1.875 -0.296875q0.59375 -0.3125 0.59375 -1.140625q0 -0.53125 -0.25 -0.84375q-0.25 -0.3125 -0.8125 -0.53125q-0.5625 -0.234375 -1.671875 -0.515625q-1.671875 -0.4375 -2.34375 -1.09375q-0.671875 -0.671875 -0.671875 -1.828125q0 -1.375 1.0 -2.140625q1.015625 -0.765625 2.953125 -0.765625q0.84375 0 1.640625 0.125q0.796875 0.125 1.28125 0.296875l0 1.53125q-1.203125 -0.453125 -2.6875 -0.453125q-1.21875 0 -1.828125 0.3125q-0.59375 0.3125 -0.59375 1.09375q0 0.453125 0.21875 0.734375q0.21875 0.28125 0.734375 0.5q0.53125 0.21875 1.5625 0.46875q1.8125 0.46875 2.515625 1.203125q0.703125 0.734375 0.703125 1.90625q0 1.375 -1.03125 2.140625q-1.03125 0.765625 -3.03125 0.765625zm8.101273 0q-1.203125 0 -1.8125 -0.625q-0.609375 -0.640625 -0.609375 -1.78125l0 -3.96875l-1.109375 0l0 -1.359375l1.109375 0l0 -1.75l1.734375 -0.53125l0 2.28125l2.015625 0l-0.109375 1.359375l-1.90625 0l0 3.859375q0 0.65625 0.296875 0.921875q0.296875 0.265625 1.0 0.265625q0.421875 0 0.90625 -0.15625l0 1.234375q-0.625 0.25 -1.515625 0.25zm4.7167664 0q-1.15625 0 -1.921875 -0.59375q-0.765625 -0.609375 -0.765625 -1.71875q0 -1.125 0.75 -1.765625q0.765625 -0.65625 2.296875 -0.65625l2.421875 0l0 -0.328125q0 -0.5625 -0.171875 -0.875q-0.15625 -0.3125 -0.609375 -0.453125q-0.453125 -0.15625 -1.28125 -0.15625q-1.34375 0 -2.515625 0.40625l0 -1.296875q0.546875 -0.203125 1.28125 -0.328125q0.734375 -0.140625 1.5625 -0.140625q1.6875 0 2.546875 0.6875q0.859375 0.6875 0.859375 2.1875l0 4.875l-1.484375 0l-0.125 -0.765625q-0.46875 0.46875 -1.15625 0.703125q-0.6875 0.21875 -1.6875 0.21875zm0.46875 -1.25q0.75 0 1.34375 -0.25q0.59375 -0.25 0.96875 -0.71875l0 -1.328125l-2.390625 0q-0.78125 0 -1.125 0.296875q-0.34375 0.28125 -0.34375 0.90625q0 0.578125 0.390625 0.84375q0.390625 0.25 1.15625 0.25zm5.923889 -6.484375l1.59375 0l0.09375 0.875q0.546875 -0.359375 1.296875 -0.640625q0.75 -0.28125 1.484375 -0.40625l0 1.328125q-0.6875 0.140625 -1.484375 0.40625q-0.796875 0.25 -1.25 0.546875l0 5.46875l-1.734375 0l0 -7.578125zm8.762634 7.734375q-1.203125 0 -1.8125 -0.625q-0.609375 -0.640625 -0.609375 -1.78125l0 -3.96875l-1.109375 0l0 -1.359375l1.109375 0l0 -1.75l1.734375 -0.53125l0 2.28125l2.015625 0l-0.109375 1.359375l-1.90625 0l0 3.859375q0 0.65625 0.296875 0.921875q0.296875 0.265625 1.0 0.265625q0.421875 0 0.90625 -0.15625l0 1.234375q-0.625 0.25 -1.515625 0.25z" fill-rule="nonzero"/><path fill="#000000" fill-opacity="0.0" d="m171.57527 103.76221l0 28.724411" fill-rule="evenodd"/><path stroke="#000000" stroke-width="1.0" stroke-linejoin="round" stroke-linecap="butt" d="m171.57527 103.7622l0 22.724411" fill-rule="evenodd"/><path fill="#000000" stroke="#000000" stroke-width="1.0" stroke-linecap="butt" d="m169.92354 126.48661l1.6517334 4.5380936l1.6517334 -4.5380936z" fill-rule="evenodd"/><path fill="#4a86e8" d="m100.18372 132.48557l142.78085 0l0 58.98224l-142.78085 0z" fill-rule="evenodd"/><path fill="#000000" fill-opacity="0.0" d="m118.031334 132.48557l0 58.98224m107.085625 -58.98224l0 58.98224" fill-rule="evenodd"/><path fill="#000000" fill-opacity="0.0" d="m100.18372 132.48557l142.78085 0l0 58.98224l-142.78085 0z" fill-rule="evenodd"/><path stroke="#ffffff" stroke-width="3.0" stroke-linejoin="round" stroke-linecap="butt" d="m118.031334 132.48557l0 58.98224m107.085625 -58.98224l0 58.98224" fill-rule="evenodd"/><path stroke="#ffffff" stroke-width="3.0" stroke-linejoin="round" stroke-linecap="butt" d="m100.18372 132.48557l142.78085 0l0 58.98224l-142.78085 0z" fill-rule="evenodd"/><path fill="#ffffff" d="m146.95334 167.99294q-0.765625 0 -1.484375 -0.109375q-0.71875 -0.09375 -1.1875 -0.265625l0 -1.484375q0.53125 0.21875 1.171875 0.328125q0.65625 0.109375 1.28125 0.109375q0.921875 0 1.28125 -0.15625q0.375 -0.15625 0.375 -0.625q0 -0.421875 -0.34375 -0.609375q-0.328125 -0.203125 -1.25 -0.5l-0.484375 -0.15625q-1.140625 -0.390625 -1.671875 -0.859375q-0.53125 -0.46875 -0.53125 -1.390625q0 -1.078125 0.765625 -1.625q0.765625 -0.5625 2.40625 -0.5625q0.625 0 1.21875 0.109375q0.609375 0.09375 1.03125 0.234375l0 1.453125q-0.421875 -0.171875 -0.96875 -0.265625q-0.53125 -0.09375 -1.015625 -0.09375q-0.875 0 -1.28125 0.15625q-0.390625 0.140625 -0.390625 0.5625q0 0.359375 0.296875 0.546875q0.3125 0.1875 1.203125 0.46875l0.34375 0.109375q0.9375 0.296875 1.4375 0.59375q0.515625 0.296875 0.75 0.71875q0.234375 0.421875 0.234375 1.09375q0 2.21875 -3.1875 2.21875zm8.736511 0q-2.015625 0 -3.09375 -0.984375q-1.0625 -1.0 -1.0625 -2.984375q0 -1.875 0.9375 -2.90625q0.953125 -1.03125 2.8125 -1.03125q1.671875 0 2.5625 0.890625q0.90625 0.875 0.90625 2.34375l0 1.40625l-5.546875 0q0.125 1.09375 0.78125 1.515625q0.65625 0.421875 2.0625 0.421875q0.578125 0 1.171875 -0.109375q0.59375 -0.109375 1.0625 -0.28125l0 1.28125q-1.0 0.4375 -2.59375 0.4375zm1.53125 -4.390625l0 -0.53125q0 -0.8125 -0.453125 -1.234375q-0.453125 -0.4375 -1.4375 -0.4375q-1.1875 0 -1.65625 0.515625q-0.46875 0.515625 -0.46875 1.6875l4.015625 0zm6.1232605 4.390625q-1.203125 0 -1.8125 -0.625q-0.609375 -0.640625 -0.609375 -1.78125l0 -3.96875l-1.109375 0l0 -1.359375l1.109375 0l0 -1.75l1.734375 -0.53125l0 2.28125l2.015625 0l-0.109375 1.359375l-1.90625 0l0 3.859375q0 0.65625 0.296875 0.921875q0.296875 0.265625 1.0 0.265625q0.421875 0 0.90625 -0.15625l0 1.234375q-0.625 0.25 -1.515625 0.25zm5.25177 0q-1.359375 0 -2.09375 -0.75q-0.734375 -0.765625 -0.734375 -2.203125l0 -4.78125l1.75 0l0 4.78125q0 0.84375 0.40625 1.25q0.421875 0.390625 1.296875 0.390625q0.609375 0 1.15625 -0.21875q0.546875 -0.234375 0.96875 -0.65625l0 -5.546875l1.71875 0l0 7.578125l-1.578125 0l-0.078125 -0.78125q-1.203125 0.9375 -2.8125 0.9375zm6.5136414 -7.734375l1.5 0l0.09375 0.75q0.53125 -0.46875 1.140625 -0.6875q0.609375 -0.234375 1.421875 -0.234375q1.6875 0 2.5625 0.921875q0.890625 0.90625 0.890625 2.90625q0 2.015625 -0.9375 3.046875q-0.921875 1.03125 -2.578125 1.03125q-1.375 0 -2.359375 -0.640625l0 3.9375l-1.734375 0l0 -11.03125zm3.640625 6.421875q1.125 0 1.65625 -0.6875q0.546875 -0.6875 0.546875 -2.09375q0 -1.34375 -0.5 -1.90625q-0.484375 -0.578125 -1.65625 -0.578125q-1.171875 0 -1.953125 0.8125l0 3.78125q0.765625 0.671875 1.90625 0.671875zm13.419525 2.3125q-1.109375 -0.984375 -1.640625 -2.59375q-0.515625 -1.609375 -0.515625 -3.40625q0 -1.8125 0.515625 -3.40625q0.53125 -1.609375 1.640625 -2.59375l1.96875 0q-2.359375 2.046875 -2.359375 6.0q0 3.953125 2.359375 6.0l-1.96875 0zm2.7312622 0q1.234375 -1.078125 1.796875 -2.578125q0.5625 -1.5 0.5625 -3.421875q0 -3.96875 -2.359375 -6.0l1.984375 0q1.09375 0.984375 1.609375 2.59375q0.53125 1.609375 0.53125 3.40625q0 1.796875 -0.53125 3.40625q-0.515625 1.609375 -1.609375 2.59375l-1.984375 0z" fill-rule="nonzero"/><path fill="#000000" fill-opacity="0.0" d="m172.06168 191.4672l-0.9763794 28.283463" fill-rule="evenodd"/><path stroke="#000000" stroke-width="1.0" stroke-linejoin="round" stroke-linecap="butt" d="m172.06168 191.4672l-0.76937866 22.287033" fill-rule="evenodd"/><path fill="#000000" stroke="#000000" stroke-width="1.0" stroke-linecap="butt" d="m169.64156 213.69724l1.4941864 4.592392l1.807312 -4.478409z" fill-rule="evenodd"/><path fill="#4a86e8" d="m100.185036 220.191l142.78085 0l0 58.982224l-142.78085 0z" fill-rule="evenodd"/><path fill="#000000" fill-opacity="0.0" d="m118.032646 220.191l0 58.982224m107.085625 -58.982224l0 58.982224" fill-rule="evenodd"/><path fill="#000000" fill-opacity="0.0" d="m100.185036 220.191l142.78085 0l0 58.982224l-142.78085 0z" fill-rule="evenodd"/><path stroke="#ffffff" stroke-width="3.0" stroke-linejoin="round" stroke-linecap="butt" d="m118.032646 220.191l0 58.982224m107.085625 -58.982224l0 58.982224" fill-rule="evenodd"/><path stroke="#ffffff" stroke-width="3.0" stroke-linejoin="round" stroke-linecap="butt" d="m100.185036 220.191l142.78085 0l0 58.982224l-142.78085 0z" fill-rule="evenodd"/><path fill="#ffffff" d="m150.67403 255.69836q-0.953125 0 -1.421875 -0.453125q-0.453125 -0.46875 -0.453125 -1.515625l0 -8.96875l1.734375 0l0 8.8125q0 0.4375 0.15625 0.609375q0.15625 0.15625 0.484375 0.15625q0.390625 0 0.734375 -0.09375l0 1.265625q-0.53125 0.1875 -1.234375 0.1875zm5.51001 0q-3.953125 0 -3.953125 -3.953125q0 -3.953125 3.953125 -3.953125q3.96875 0 3.96875 3.953125q0 3.953125 -3.96875 3.953125zm0 -1.46875q1.203125 0 1.703125 -0.578125q0.5 -0.578125 0.5 -1.90625q0 -1.3125 -0.5 -1.875q-0.5 -0.578125 -1.703125 -0.578125q-1.1875 0 -1.6875 0.578125q-0.5 0.5625 -0.5 1.875q0 1.328125 0.5 1.90625q0.5 0.578125 1.6875 0.578125zm8.896027 1.46875q-3.953125 0 -3.953125 -3.953125q0 -3.953125 3.953125 -3.953125q3.96875 0 3.96875 3.953125q0 3.953125 -3.96875 3.953125zm0 -1.46875q1.203125 0 1.703125 -0.578125q0.5 -0.578125 0.5 -1.90625q0 -1.3125 -0.5 -1.875q-0.5 -0.578125 -1.703125 -0.578125q-1.1875 0 -1.6875 0.578125q-0.5 0.5625 -0.5 1.875q0 1.328125 0.5 1.90625q0.5 0.578125 1.6875 0.578125zm5.6710205 -6.265625l1.5 0l0.09375 0.75q0.53125 -0.46875 1.140625 -0.6875q0.609375 -0.234375 1.421875 -0.234375q1.6875 0 2.5625 0.921875q0.890625 0.90625 0.890625 2.90625q0 2.015625 -0.9375 3.046875q-0.921875 1.03125 -2.578125 1.03125q-1.375 0 -2.359375 -0.640625l0 3.9375l-1.734375 0l0 -11.03125zm3.640625 6.421875q1.125 0 1.65625 -0.6875q0.546875 -0.6875 0.546875 -2.09375q0 -1.34375 -0.5 -1.90625q-0.484375 -0.578125 -1.65625 -0.578125q-1.171875 0 -1.953125 0.8125l0 3.78125q0.765625 0.671875 1.90625 0.671875zm13.419525 2.3125q-1.109375 -0.984375 -1.640625 -2.59375q-0.515625 -1.609375 -0.515625 -3.40625q0 -1.8125 0.515625 -3.40625q0.53125 -1.609375 1.640625 -2.59375l1.96875 0q-2.359375 2.046875 -2.359375 6.0q0 3.953125 2.359375 6.0l-1.96875 0zm2.7312622 0q1.234375 -1.078125 1.796875 -2.578125q0.5625 -1.5 0.5625 -3.421875q0 -3.96875 -2.359375 -6.0l1.984375 0q1.09375 0.984375 1.609375 2.59375q0.53125 1.609375 0.53125 3.40625q0 1.796875 -0.53125 3.40625q-0.515625 1.609375 -1.609375 2.59375l-1.984375 0z" fill-rule="nonzero"/><path fill="#4a86e8" d="m360.98294 125.2336l137.76376 0l0 58.992126l-137.76376 0z" fill-rule="evenodd"/><path fill="#ffffff" d="m380.04498 147.96466q0 -1.59375 1.265625 -1.984375l-1.734375 -0.421875l0 -1.796875q0.71875 -0.640625 1.78125 -1.046875q1.0625 -0.421875 2.359375 -0.421875q1.96875 0 2.953125 0.8125q1.0 0.8125 1.0 2.625l0 5.359375l-1.734375 0l0 -5.40625q0 -1.109375 -0.515625 -1.546875q-0.515625 -0.4375 -1.765625 -0.4375q-0.78125 0 -1.484375 0.234375q-0.6875 0.21875 -1.09375 0.578125l0 0.296875l1.828125 0.453125l0 1.15625q-0.625 0.15625 -0.890625 0.515625q-0.25 0.34375 -0.25 1.046875l0 3.109375l-1.71875 0l0 -3.125zm6.745514 -6.4375q-0.765625 0 -1.28125 -0.5q-0.53125 -0.5 -0.53125 -1.234375q0 -0.75 0.53125 -1.25q0.515625 -0.5 1.28125 -0.5q0.75 0 1.28125 0.5q0.515625 0.5 0.515625 1.25q0 0.734375 -0.515625 1.234375q-0.53125 0.5 -1.28125 0.5zm0 -1.0q0.3125 0 0.53125 -0.21875q0.203125 -0.234375 0.203125 -0.515625q0 -0.3125 -0.203125 -0.53125q-0.21875 -0.234375 -0.53125 -0.234375q-0.3125 0 -0.53125 0.234375q-0.234375 0.21875 -0.234375 0.53125q0 0.28125 0.234375 0.515625q0.234375 0.21875 0.53125 0.21875zm6.171875 5.125q0 -0.703125 -0.140625 -1.109375q-0.140625 -0.40625 -0.546875 -0.625q-0.40625 -0.21875 -1.171875 -0.21875q-0.515625 0 -1.125 0.109375q-0.59375 0.109375 -1.078125 0.3125l0 -1.34375q0.5 -0.21875 1.1875 -0.34375q0.6875 -0.140625 1.34375 -0.140625q1.734375 0 2.5 0.75q0.78125 0.75 0.78125 2.390625l0 5.65625l-1.75 0l0 -5.4375zm3.7900085 -3.203125l1.734375 0l0 2.71875l2.5 0q0.90625 0 1.28125 -0.375q0.375 -0.390625 0.375 -1.21875l0 -1.125l1.734375 0l0 1.078125q0 1.8125 -1.296875 2.28125q0.6875 0.234375 0.953125 0.765625q0.265625 0.53125 0.265625 1.328125l0 3.1875l-1.734375 0l0 -2.96875q0 -0.9375 -0.359375 -1.28125q-0.34375 -0.34375 -1.28125 -0.34375l-2.4375 0l0 4.59375l-1.734375 0l0 -8.640625zm12.601501 8.796875q-1.390625 0 -2.171875 -0.8125q-0.765625 -0.828125 -0.765625 -2.3125l0 -5.671875l1.734375 0l0 5.578125q0 0.96875 0.421875 1.40625q0.421875 0.421875 1.359375 0.421875q0.6875 0 1.328125 -0.28125q0.640625 -0.296875 1.0625 -0.75l0 -6.375l1.734375 0l0 8.640625l-1.578125 0l-0.09375 -0.9375q-1.265625 1.09375 -3.03125 1.09375zm9.945648 0q-1.609375 0 -2.578125 -1.078125q-0.953125 -1.078125 -0.953125 -3.265625q0 -2.203125 1.109375 -3.40625q1.125 -1.203125 3.3125 -1.203125q1.40625 0 2.34375 0.484375q0.9375 0.484375 1.375 1.28125q0.4375 0.796875 0.4375 1.75l0 5.28125l-1.75 0l0 -5.203125q0 -1.03125 -0.5625 -1.609375q-0.5625 -0.578125 -1.875 -0.578125q-1.390625 0 -2.046875 0.796875q-0.65625 0.796875 -0.65625 2.40625q0 1.578125 0.53125 2.265625q0.53125 0.6875 1.625 0.6875q0.734375 0 1.09375 -0.125l0 1.328125q-0.53125 0.1875 -1.40625 0.1875zm7.0849 -5.625q0 -1.609375 0.953125 -2.46875q0.96875 -0.859375 2.953125 -0.859375q1.984375 0 2.9375 0.859375q0.953125 0.859375 0.953125 2.46875l0 5.46875l-1.734375 0l0 -5.625q0 -1.765625 -2.15625 -1.765625q-1.078125 0 -1.625 0.4375q-0.546875 0.421875 -0.546875 1.328125l0 1.765625q0.703125 -0.578125 1.6875 -0.578125l1.03125 0l0.0625 1.390625l-1.140625 0q-0.984375 0 -1.640625 0.546875l0 2.5l-1.734375 0l0 -5.46875zm6.058777 -7.125l1.734375 0l0 2.625l-1.734375 0l0 -2.625zm7.03125 7.15625q0 -0.703125 -0.140625 -1.109375q-0.140625 -0.40625 -0.546875 -0.625q-0.40625 -0.21875 -1.171875 -0.21875q-0.515625 0 -1.125 0.109375q-0.59375 0.109375 -1.078125 0.3125l0 -1.34375q0.5 -0.21875 1.1875 -0.34375q0.6875 -0.140625 1.34375 -0.140625q1.734375 0 2.5 0.75q0.78125 0.75 0.78125 2.390625l0 5.65625l-1.75 0l0 -5.4375zm3.4618835 4.578125q0.390625 -0.890625 1.0625 -1.640625q0.671875 -0.765625 1.6875 -1.640625q0.984375 -0.84375 1.390625 -1.265625q0.421875 -0.4375 0.59375 -0.84375q0.171875 -0.421875 0.171875 -1.03125q0 -0.84375 -0.5 -1.265625q-0.484375 -0.421875 -1.578125 -0.421875q-1.15625 0 -2.4375 0.46875l0 -1.53125q0.5625 -0.1875 1.328125 -0.3125q0.765625 -0.125 1.453125 -0.125q1.6875 0 2.578125 0.84375q0.90625 0.84375 0.90625 2.328125q0 1.015625 -0.484375 1.75q-0.484375 0.734375 -1.515625 1.65625l-0.265625 0.25q-0.90625 0.78125 -1.375 1.25q-0.46875 0.46875 -0.796875 1.046875l4.546875 0l0 1.34375l-6.765625 0l0 -0.859375zm16.095276 0.859375q-1.671875 0 -1.671875 -1.65625l0 -6.984375l1.71875 0l0 6.546875q0 0.359375 0.171875 0.546875q0.171875 0.171875 0.53125 0.171875l0.734375 0l0 1.375l-1.484375 0zm7.146393 0.15625q-1.875 0 -2.90625 -0.875q-1.03125 -0.890625 -1.03125 -2.640625l0 -5.28125l1.734375 0l0 5.34375q0 1.0625 0.546875 1.5625q0.5625 0.5 1.65625 0.5q1.109375 0 1.671875 -0.5q0.5625 -0.5 0.5625 -1.5625l0 -7.90625l1.71875 0l0 7.84375q0 1.75 -1.03125 2.640625q-1.015625 0.875 -2.921875 0.875zm-2.1889954 -10.0625q-0.9375 0 -1.46875 -0.46875q-0.53125 -0.484375 -0.53125 -1.375q0 -0.890625 0.5625 -1.40625q0.5625 -0.53125 1.578125 -0.53125l3.53125 0l-0.078125 1.03125l-3.28125 0q-0.5625 0 -0.828125 0.21875q-0.265625 0.21875 -0.265625 0.6875q0 0.859375 0.890625 0.859375q0.84375 0 0.84375 -0.671875l0 -0.34375l1.0625 0l0 0.34375q0 0.328125 0.1875 0.484375q0.171875 0.140625 0.546875 0.140625l0.625 0l0 1.0l-0.734375 0q-0.40625 0 -0.71875 -0.109375q-0.3125 -0.125 -0.453125 -0.390625q-0.15625 0.265625 -0.578125 0.40625q-0.421875 0.125 -0.890625 0.125zm11.125 10.0625q-1.390625 0 -2.171875 -0.8125q-0.765625 -0.828125 -0.765625 -2.3125l0 -5.671875l1.734375 0l0 5.578125q0 0.96875 0.421875 1.40625q0.421875 0.421875 1.359375 0.421875q0.6875 0 1.328125 -0.28125q0.640625 -0.296875 1.0625 -0.75l0 -6.375l1.734375 0l0 8.640625l-1.578125 0l-0.09375 -0.9375q-1.265625 1.09375 -3.03125 1.09375z" fill-rule="nonzero"/><path fill="#ffffff" d="m376.33633 159.79279l1.734375 0l0 10.296875l-1.734375 0l0 -10.296875zm3.7600098 0l1.53125 0l5.375 7.578125l0 -7.578125l1.71875 0l0 10.296875l-1.53125 0l-5.359375 -7.5625l0 7.5625l-1.734375 0l0 -10.296875zm10.672028 0l4.578125 0q1.71875 0 2.59375 0.9375q0.875 0.9375 0.875 2.5q0 1.53125 -0.953125 2.46875q-0.953125 0.921875 -2.578125 0.921875l-2.78125 0l0 3.46875l-1.734375 0l0 -10.296875zm4.203125 5.453125q1.0 0 1.546875 -0.53125q0.546875 -0.546875 0.546875 -1.484375q0 -1.0 -0.515625 -1.53125q-0.515625 -0.546875 -1.5 -0.546875l-2.546875 0l0 4.09375l2.46875 0zm9.627502 5.0q-2.140625 0 -3.3125 -1.015625q-1.171875 -1.03125 -1.171875 -2.96875l0 -6.46875l1.75 0l0 6.40625q0 1.28125 0.703125 1.9375q0.703125 0.640625 2.03125 0.640625q1.3125 0 2.015625 -0.640625q0.703125 -0.65625 0.703125 -1.9375l0 -6.40625l1.734375 0l0 6.46875q0 1.9375 -1.171875 2.96875q-1.15625 1.015625 -3.28125 1.015625zm9.065277 -9.09375l-3.296875 0l0 -1.359375l8.3125 0l0 1.359375l-3.28125 0l0 8.9375l-1.734375 0l0 -8.9375zm6.0880127 8.9375l7.265625 0l0 1.234375l-7.265625 0l0 -1.234375zm8.984161 -10.296875l4.578125 0q1.71875 0 2.59375 0.9375q0.875 0.9375 0.875 2.5q0 1.53125 -0.953125 2.46875q-0.953125 0.921875 -2.578125 0.921875l-2.78125 0l0 3.46875l-1.734375 0l0 -10.296875zm4.203125 5.453125q1.0 0 1.546875 -0.53125q0.546875 -0.546875 0.546875 -1.484375q0 -1.0 -0.515625 -1.53125q-0.515625 -0.546875 -1.5 -0.546875l-2.546875 0l0 4.09375l2.46875 0zm9.627502 5.0q-2.140625 0 -3.3125 -1.015625q-1.171875 -1.03125 -1.171875 -2.96875l0 -6.46875l1.75 0l0 6.40625q0 1.28125 0.703125 1.9375q0.703125 0.640625 2.03125 0.640625q1.3125 0 2.015625 -0.640625q0.703125 -0.65625 0.703125 -1.9375l0 -6.40625l1.734375 0l0 6.46875q0 1.9375 -1.171875 2.96875q-1.15625 1.015625 -3.28125 1.015625zm6.393402 -10.453125l1.734375 0l0 8.953125l5.28125 0l0 1.34375l-7.015625 0l0 -10.296875zm8.400024 0l1.734375 0l0 8.953125l5.28125 0l0 1.34375l-7.015625 0l0 -10.296875zm12.230652 10.453125q-2.140625 0 -3.3125 -1.015625q-1.171875 -1.03125 -1.171875 -2.96875l0 -6.46875l1.75 0l0 6.40625q0 1.28125 0.703125 1.9375q0.703125 0.640625 2.03125 0.640625q1.3125 0 2.015625 -0.640625q0.703125 -0.65625 0.703125 -1.9375l0 -6.40625l1.734375 0l0 6.46875q0 1.9375 -1.171875 2.96875q-1.15625 1.015625 -3.28125 1.015625zm6.393402 -10.453125l4.578125 0q1.71875 0 2.59375 0.9375q0.875 0.9375 0.875 2.5q0 1.53125 -0.953125 2.46875q-0.953125 0.921875 -2.578125 0.921875l-2.78125 0l0 3.46875l-1.734375 0l0 -10.296875zm4.203125 5.453125q1.0 0 1.546875 -0.53125q0.546875 -0.546875 0.546875 -1.484375q0 -1.0 -0.515625 -1.53125q-0.515625 -0.546875 -1.5 -0.546875l-2.546875 0l0 4.09375l2.46875 0z" fill-rule="nonzero"/><path fill="#000000" fill-opacity="0.0" d="m428.14304 96.950134l-0.9763794 28.283463" fill-rule="evenodd"/><path stroke="#000000" stroke-width="1.0" stroke-linejoin="round" stroke-linecap="butt" d="m428.14304 96.950134l-0.76934814 22.287033" fill-rule="evenodd"/><path fill="#000000" stroke="#000000" stroke-width="1.0" stroke-linecap="butt" d="m425.72293 119.18018l1.4941711 4.5923767l1.807312 -4.478409z" fill-rule="evenodd"/><path fill="#000000" fill-opacity="0.0" d="m428.14304 184.22572l-0.9763794 28.283463" fill-rule="evenodd"/><path stroke="#000000" stroke-width="1.0" stroke-linejoin="round" stroke-linecap="butt" d="m428.14304 184.22572l-0.76934814 22.287033" fill-rule="evenodd"/><path fill="#000000" stroke="#000000" stroke-width="1.0" stroke-linecap="butt" d="m425.72293 206.45578l1.4941711 4.5923767l1.807312 -4.478409z" fill-rule="evenodd"/><path fill="#000000" fill-opacity="0.0" d="m172.06233 282.4672l0 24.999908l-96.39069 0l0 -54.480225l24.98912 0" fill-rule="evenodd"/><path stroke="#000000" stroke-width="1.0" stroke-linejoin="round" stroke-linecap="butt" d="m172.06233 282.4672l0 24.999908l-96.39069 0l0 -54.480225l18.98912 0" fill-rule="evenodd"/><path fill="#000000" stroke="#000000" stroke-width="1.0" stroke-linecap="butt" d="m94.66076 254.63861l4.538101 -1.6517334l-4.538101 -1.6517334z" fill-rule="evenodd"/><path fill="#cc0000" d="m393.7954 69.519684l69.67786 0l0 0c9.127991 0 16.52768 7.665451 16.52768 17.121262c0 9.455811 -7.3996887 17.121262 -16.52768 17.121262l-69.67786 0l0 0c-9.127991 0 -16.52768 -7.665451 -16.52768 -17.121262c0 -9.455811 7.3996887 -17.121262 16.52768 -17.121262z" fill-rule="evenodd"/><path fill="#ffffff" d="m404.01352 92.657196q-0.765625 0 -1.484375 -0.109375q-0.71875 -0.09375 -1.1875 -0.265625l0 -1.484375q0.53125 0.21875 1.171875 0.328125q0.65625 0.109375 1.28125 0.109375q0.921875 0 1.28125 -0.15625q0.375 -0.15625 0.375 -0.625q0 -0.421875 -0.34375 -0.609375q-0.328125 -0.203125 -1.25 -0.5l-0.484375 -0.15625q-1.140625 -0.390625 -1.671875 -0.859375q-0.53125 -0.46875 -0.53125 -1.390625q0 -1.078125 0.765625 -1.625q0.765625 -0.5625 2.40625 -0.5625q0.625 0 1.21875 0.109375q0.609375 0.09375 1.03125 0.234375l0 1.453125q-0.421875 -0.171875 -0.96875 -0.265625q-0.53125 -0.09375 -1.015625 -0.09375q-0.875 0 -1.28125 0.15625q-0.390625 0.140625 -0.390625 0.5625q0 0.359375 0.296875 0.546875q0.3125 0.1875 1.203125 0.46875l0.34375 0.109375q0.9375 0.296875 1.4375 0.59375q0.515625 0.296875 0.75 0.71875q0.234375 0.421875 0.234375 1.09375q0 2.21875 -3.1875 2.21875zm8.736511 0q-2.015625 0 -3.09375 -0.984375q-1.0625 -1.0 -1.0625 -2.984375q0 -1.875 0.9375 -2.90625q0.953125 -1.03125 2.8125 -1.03125q1.671875 0 2.5625 0.890625q0.90625 0.875 0.90625 2.34375l0 1.40625l-5.546875 0q0.125 1.09375 0.78125 1.515625q0.65625 0.421875 2.0625 0.421875q0.578125 0 1.171875 -0.109375q0.59375 -0.109375 1.0625 -0.28125l0 1.28125q-1.0 0.4375 -2.59375 0.4375zm1.53125 -4.390625l0 -0.53125q0 -0.8125 -0.453125 -1.234375q-0.453125 -0.4375 -1.4375 -0.4375q-1.1875 0 -1.65625 0.515625q-0.46875 0.515625 -0.46875 1.6875l4.015625 0zm6.1232605 4.390625q-1.203125 0 -1.8125 -0.625q-0.609375 -0.640625 -0.609375 -1.78125l0 -3.96875l-1.109375 0l0 -1.359375l1.109375 0l0 -1.75l1.734375 -0.53125l0 2.28125l2.015625 0l-0.109375 1.359375l-1.90625 0l0 3.859375q0 0.65625 0.296875 0.921875q0.296875 0.265625 1.0 0.265625q0.421875 0 0.90625 -0.15625l0 1.234375q-0.625 0.25 -1.515625 0.25zm5.25177 0q-1.359375 0 -2.09375 -0.75q-0.734375 -0.765625 -0.734375 -2.203125l0 -4.78125l1.75 0l0 4.78125q0 0.84375 0.40625 1.25q0.421875 0.390625 1.296875 0.390625q0.609375 0 1.15625 -0.21875q0.546875 -0.234375 0.96875 -0.65625l0 -5.546875l1.71875 0l0 7.578125l-1.578125 0l-0.078125 -0.78125q-1.203125 0.9375 -2.8125 0.9375zm6.5136414 -7.734375l1.5 0l0.09375 0.75q0.53125 -0.46875 1.140625 -0.6875q0.609375 -0.234375 1.421875 -0.234375q1.6875 0 2.5625 0.921875q0.890625 0.90625 0.890625 2.90625q0 2.015625 -0.9375 3.046875q-0.921875 1.03125 -2.578125 1.03125q-1.375 0 -2.359375 -0.640625l0 3.9375l-1.734375 0l0 -11.03125zm3.640625 6.421875q1.125 0 1.65625 -0.6875q0.546875 -0.6875 0.546875 -2.09375q0 -1.34375 -0.5 -1.90625q-0.484375 -0.578125 -1.65625 -0.578125q-1.171875 0 -1.953125 0.8125l0 3.78125q0.765625 0.671875 1.90625 0.671875zm13.419525 2.3125q-1.109375 -0.984375 -1.640625 -2.59375q-0.515625 -1.609375 -0.515625 -3.40625q0 -1.8125 0.515625 -3.40625q0.53125 -1.609375 1.640625 -2.59375l1.96875 0q-2.359375 2.046875 -2.359375 6.0q0 3.953125 2.359375 6.0l-1.96875 0zm2.7312622 0q1.234375 -1.078125 1.796875 -2.578125q0.5625 -1.5 0.5625 -3.421875q0 -3.96875 -2.359375 -6.0l1.984375 0q1.09375 0.984375 1.609375 2.59375q0.53125 1.609375 0.53125 3.40625q0 1.796875 -0.53125 3.40625q-0.515625 1.609375 -1.609375 2.59375l-1.984375 0z" fill-rule="nonzero"/><path fill="#cc0000" d="m391.84003 375.7454l69.67786 0l0 0c9.127991 0 16.52768 7.6654663 16.52768 17.121277c0 9.455811 -7.3996887 17.121246 -16.52768 17.121246l-69.67786 0l0 0c-9.127991 0 -16.52768 -7.665436 -16.52768 -17.121246c0 -9.455811 7.3996887 -17.121277 16.52768 -17.121277z" fill-rule="evenodd"/><path fill="#ffffff" d="m421.61206 398.8829q-0.34375 0 -0.75 -0.0625q-0.390625 -0.046875 -0.625 -0.140625l-1.28125 -3.40625l-1.109375 0l0.078125 -1.3125l2.125 0l1.328125 3.546875q1.140625 0.046875 1.828125 -0.71875q0.6875 -0.765625 0.6875 -2.46875q0 -1.125 -0.296875 -1.765625q-0.296875 -0.65625 -0.96875 -0.9375q-0.671875 -0.28125 -1.859375 -0.28125q-1.46875 0 -2.734375 0.421875l0 -1.34375q1.515625 -0.484375 3.203125 -0.484375q2.234375 0 3.28125 1.109375q1.0625 1.109375 1.0625 3.28125q0 1.453125 -0.546875 2.484375q-0.53125 1.03125 -1.4375 1.5625q-0.90625 0.515625 -1.984375 0.515625zm9.604004 0q-1.875 0 -2.90625 -0.875q-1.03125 -0.890625 -1.03125 -2.640625l0 -5.28125l1.734375 0l0 5.34375q0 1.0625 0.546875 1.5625q0.5625 0.5 1.65625 0.5q1.109375 0 1.671875 -0.5q0.5625 -0.5 0.5625 -1.5625l0 -5.34375l1.71875 0l0 5.28125q0 1.75 -1.03125 2.640625q-1.015625 0.875 -2.921875 0.875z" fill-rule="nonzero"/><path fill="#cc0000" d="m650.85315 62.70866l69.67786 0l0 0c9.127991 0 16.52771 7.665447 16.52771 17.121258c0 9.455811 -7.399719 17.121262 -16.52771 17.121262l-69.67786 0l0 0c-9.127991 0 -16.52771 -7.665451 -16.52771 -17.121262c0 -9.455811 7.399719 -17.121258 16.52771 -17.121258z" fill-rule="evenodd"/><path fill="#ffffff" d="m664.79065 85.84617q-0.953125 0 -1.421875 -0.453125q-0.453125 -0.46875 -0.453125 -1.515625l0 -8.96875l1.734375 0l0 8.8125q0 0.4375 0.15625 0.609375q0.15625 0.15625 0.484375 0.15625q0.390625 0 0.734375 -0.09375l0 1.265625q-0.53125 0.1875 -1.234375 0.1875zm5.51001 0q-3.953125 0 -3.953125 -3.953125q0 -3.953125 3.953125 -3.953125q3.96875 0 3.96875 3.953125q0 3.953125 -3.96875 3.953125zm0 -1.46875q1.203125 0 1.703125 -0.578125q0.5 -0.578125 0.5 -1.90625q0 -1.3125 -0.5 -1.875q-0.5 -0.578125 -1.703125 -0.578125q-1.1875 0 -1.6875 0.578125q-0.5 0.5625 -0.5 1.875q0 1.328125 0.5 1.90625q0.5 0.578125 1.6875 0.578125zm8.895996 1.46875q-3.953125 0 -3.953125 -3.953125q0 -3.953125 3.953125 -3.953125q3.96875 0 3.96875 3.953125q0 3.953125 -3.96875 3.953125zm0 -1.46875q1.203125 0 1.703125 -0.578125q0.5 -0.578125 0.5 -1.90625q0 -1.3125 -0.5 -1.875q-0.5 -0.578125 -1.703125 -0.578125q-1.1875 0 -1.6875 0.578125q-0.5 0.5625 -0.5 1.875q0 1.328125 0.5 1.90625q0.5 0.578125 1.6875 0.578125zm5.6710205 -6.265625l1.5 0l0.09375 0.75q0.53125 -0.46875 1.140625 -0.6875q0.609375 -0.234375 1.421875 -0.234375q1.6875 0 2.5625 0.921875q0.890625 0.90625 0.890625 2.90625q0 2.015625 -0.9375 3.046875q-0.921875 1.03125 -2.578125 1.03125q-1.375 0 -2.359375 -0.640625l0 3.9375l-1.734375 0l0 -11.03125zm3.640625 6.421875q1.125 0 1.65625 -0.6875q0.546875 -0.6875 0.546875 -2.09375q0 -1.34375 -0.5 -1.90625q-0.484375 -0.578125 -1.65625 -0.578125q-1.171875 0 -1.953125 0.8125l0 3.78125q0.765625 0.671875 1.90625 0.671875zm13.419556 2.3125q-1.109375 -0.984375 -1.640625 -2.59375q-0.515625 -1.609375 -0.515625 -3.40625q0 -1.8125 0.515625 -3.40625q0.53125 -1.609375 1.640625 -2.59375l1.96875 0q-2.359375 2.046875 -2.359375 6.0q0 3.953125 2.359375 6.0l-1.96875 0zm2.7312622 0q1.234375 -1.078125 1.796875 -2.578125q0.5625 -1.5 0.5625 -3.421875q0 -3.96875 -2.359375 -6.0l1.984375 0q1.09375 0.984375 1.609375 2.59375q0.53125 1.609375 0.53125 3.40625q0 1.796875 -0.53125 3.40625q-0.515625 1.609375 -1.609375 2.59375l-1.984375 0z" fill-rule="nonzero"/><path fill="#000000" fill-opacity="0.0" d="m686.66797 96.950134l-0.9763794 28.283463" fill-rule="evenodd"/><path stroke="#000000" stroke-width="1.0" stroke-linejoin="round" stroke-linecap="butt" d="m686.66797 96.950134l-0.76934814 22.287033" fill-rule="evenodd"/><path fill="#000000" stroke="#000000" stroke-width="1.0" stroke-linecap="butt" d="m684.24786 119.18018l1.4942017 4.5923767l1.807312 -4.478409z" fill-rule="evenodd"/><path fill="#000000" fill-opacity="0.0" d="m684.2244 172.25853l-0.9763794 28.283463" fill-rule="evenodd"/><path stroke="#000000" stroke-width="1.0" stroke-linejoin="round" stroke-linecap="butt" d="m684.2244 172.25853l-0.76934814 22.287033" fill-rule="evenodd"/><path fill="#000000" stroke="#000000" stroke-width="1.0" stroke-linecap="butt" d="m681.80426 194.48859l1.4942017 4.5923767l1.807312 -4.478409z" fill-rule="evenodd"/><path fill="#000000" fill-opacity="0.0" d="m684.22705 275.85303l-0.9763794 28.283447" fill-rule="evenodd"/><path stroke="#000000" stroke-width="1.0" stroke-linejoin="round" stroke-linecap="butt" d="m684.22705 275.85303l-0.76934814 22.287018" fill-rule="evenodd"/><path fill="#000000" stroke="#000000" stroke-width="1.0" stroke-linecap="butt" d="m681.8069 298.08307l1.4942017 4.5923767l1.807312 -4.4783936z" fill-rule="evenodd"/><path fill="#000000" fill-opacity="0.0" d="m428.14304 345.0761l-0.9763794 28.283478" fill-rule="evenodd"/><path stroke="#000000" stroke-width="1.0" stroke-linejoin="round" stroke-linecap="butt" d="m428.14304 345.0761l-0.76934814 22.287048" fill-rule="evenodd"/><path fill="#000000" stroke="#000000" stroke-width="1.0" stroke-linecap="butt" d="m425.72293 367.30615l1.4941711 4.592407l1.807312 -4.478424z" fill-rule="evenodd"/><path fill="#000000" fill-opacity="0.0" d="m684.22705 379.4462l-0.9763794 28.283447" fill-rule="evenodd"/><path stroke="#000000" stroke-width="1.0" stroke-linejoin="round" stroke-linecap="butt" d="m684.22705 379.4462l-0.76934814 22.287018" fill-rule="evenodd"/><path fill="#000000" stroke="#000000" stroke-width="1.0" stroke-linecap="butt" d="m681.8069 401.67624l1.4942017 4.5923767l1.807312 -4.4783936z" fill-rule="evenodd"/><path fill="#000000" fill-opacity="0.0" d="m684.2244 481.91995l-0.9763794 28.283447" fill-rule="evenodd"/><path stroke="#000000" stroke-width="1.0" stroke-linejoin="round" stroke-linecap="butt" d="m684.2244 481.91995l-0.76934814 22.287018" fill-rule="evenodd"/><path fill="#000000" stroke="#000000" stroke-width="1.0" stroke-linecap="butt" d="m681.80426 504.15l1.4942017 4.5923767l1.807312 -4.4783936z" fill-rule="evenodd"/><path fill="#0f9d58" d="m325.09055 342.69028l13.62207 -54.48819l191.51181 0l-13.62207 54.48819z" fill-rule="evenodd"/><path fill="#ffffff" d="m370.9171 311.80618q-1.015625 0 -1.453125 -0.421875q-0.4375 -0.421875 -0.4375 -1.375l0 -6.84375l2.171875 0l0 6.28125q0 0.671875 0.65625 0.671875l0.53125 0l0 1.6875l-1.46875 0zm4.09375 0q-1.015625 0 -1.453125 -0.421875q-0.421875 -0.421875 -0.421875 -1.375l0 -6.84375l2.15625 0l0 6.28125q0 0.671875 0.65625 0.671875l0.546875 0l0 1.6875l-1.484375 0zm5.6951294 0.15625q-1.34375 0 -2.171875 -0.65625q-0.828125 -0.65625 -0.828125 -2.0625q0 -1.296875 0.875 -1.984375q0.890625 -0.703125 2.53125 -0.703125l2.453125 0l0 -0.40625q0 -0.8125 -0.453125 -1.140625q-0.453125 -0.328125 -1.578125 -0.328125q-1.515625 0 -2.875 0.4375l0 -1.609375q0.6875 -0.234375 1.546875 -0.359375q0.875 -0.140625 1.671875 -0.140625q0.90625 0 1.546875 0.15625l3.0 0l-0.109375 1.65625l-0.984375 0q0.390625 0.578125 0.390625 1.546875l0 5.4375l-2.15625 0l0 -3.65625l-2.328125 0q-0.734375 0 -1.109375 0.25q-0.375 0.25 -0.375 0.84375q0 0.59375 0.34375 0.828125q0.34375 0.21875 1.1875 0.21875q0.734375 0 1.109375 -0.125l0 1.578125q-0.71875 0.21875 -1.6875 0.21875zm10.514526 0q-1.640625 0 -2.625 -1.0625q-0.984375 -1.0625 -0.984375 -3.234375q0 -2.234375 1.140625 -3.4375q1.15625 -1.21875 3.375 -1.21875q1.46875 0 2.453125 0.5q0.984375 0.484375 1.4375 1.3125q0.453125 0.8125 0.453125 1.765625l0 5.21875l-2.15625 0l0 -5.078125q0 -0.96875 -0.515625 -1.5q-0.5 -0.546875 -1.703125 -0.546875q-2.4375 0 -2.4375 2.984375q0 1.40625 0.484375 2.015625q0.484375 0.609375 1.46875 0.609375q0.734375 0 1.109375 -0.125l0 1.578125q-0.59375 0.21875 -1.5 0.21875zm10.401154 0q-1.015625 0 -1.765625 -0.234375l-2.4375 -5.921875l2.09375 0l1.90625 4.625q1.1875 0 1.71875 -0.796875q0.546875 -0.796875 0.546875 -2.421875q0 -0.96875 -0.1875 -1.5q-0.171875 -0.546875 -0.59375 -0.78125q-0.40625 -0.234375 -1.15625 -0.234375l-0.65625 0l0 -1.53125l0.96875 0q1.890625 0 2.78125 1.0q0.890625 0.984375 0.890625 3.046875q0 2.4375 -1.109375 3.59375q-1.09375 1.15625 -3.0 1.15625zm5.1820374 -5.515625q0 -1.625 1.0 -2.53125q1.0 -0.90625 3.078125 -0.90625q2.09375 0 3.078125 0.90625q1.0 0.90625 1.0 2.53125l0 5.359375l-2.171875 0l0 -5.515625q0 -0.78125 -0.5 -1.1875q-0.5 -0.421875 -1.40625 -0.421875q-0.9375 0 -1.421875 0.421875q-0.484375 0.40625 -0.484375 1.1875l0 1.546875q0.671875 -0.515625 1.5 -0.515625l1.03125 0l0.078125 1.71875l-1.15625 0q-0.84375 0 -1.453125 0.46875l0 2.296875l-2.171875 0l0 -5.359375zm7.126129 -4.1875q-0.8125 0 -1.375 -0.515625q-0.5625 -0.53125 -0.5625 -1.328125q0 -0.796875 0.5625 -1.328125q0.5625 -0.53125 1.375 -0.53125q0.8125 0 1.375 0.53125q0.546875 0.53125 0.546875 1.328125q0 0.796875 -0.546875 1.328125q-0.5625 0.515625 -1.375 0.515625zm0 -1.140625q0.28125 0 0.5 -0.21875q0.203125 -0.21875 0.203125 -0.484375q0 -0.296875 -0.203125 -0.5q-0.21875 -0.21875 -0.5 -0.21875q-0.28125 0 -0.5 0.21875q-0.21875 0.203125 -0.21875 0.5q0 0.265625 0.21875 0.484375q0.21875 0.21875 0.5 0.21875zm5.984375 5.375q0 -0.921875 -0.359375 -1.359375q-0.359375 -0.453125 -1.328125 -0.453125q-0.5 0 -1.09375 0.125q-0.59375 0.109375 -1.078125 0.296875l0 -1.578125q0.5 -0.234375 1.203125 -0.375q0.703125 -0.140625 1.390625 -0.140625q1.8125 0 2.609375 0.765625q0.8125 0.765625 0.8125 2.421875l0 5.609375l-2.15625 0l0 -5.3125zm6.2450256 5.46875q-1.5625 0 -2.75 -0.515625l0 -1.640625q1.078125 0.484375 2.234375 0.484375q1.515625 0 2.15625 -0.625q0.640625 -0.640625 0.640625 -2.171875q0 -1.546875 -0.640625 -2.171875q-0.640625 -0.640625 -2.15625 -0.640625q-1.15625 0 -2.234375 0.484375l0 -1.640625q1.1875 -0.515625 2.75 -0.515625q2.171875 0 3.25 1.140625q1.078125 1.125 1.078125 3.34375q0 2.203125 -1.078125 3.34375q-1.078125 1.125 -3.25 1.125zm1.6060181 -12.625l2.171875 0l0 2.640625l-2.171875 0l0 -2.640625zm7.125 7.15625q0 -0.921875 -0.359375 -1.359375q-0.359375 -0.453125 -1.328125 -0.453125q-0.5 0 -1.09375 0.125q-0.59375 0.109375 -1.078125 0.296875l0 -1.578125q0.5 -0.234375 1.203125 -0.375q0.703125 -0.140625 1.390625 -0.140625q1.8125 0 2.609375 0.765625q0.8125 0.765625 0.8125 2.421875l0 5.609375l-2.15625 0l0 -5.3125zm10.630005 -5.15625l1.46875 0l-0.90625 3.296875l-1.6875 0l1.125 -3.296875zm2.5 0l1.46875 0l-0.890625 3.296875l-1.6875 0l1.109375 -3.296875zm2.975525 0.171875l2.171875 0l0 4.3125l4.484375 0l0 -4.3125l2.171875 0l0 10.296875l-2.171875 0l0 -4.3125l-4.484375 0l0 4.3125l-2.171875 0l0 -10.296875zm14.59314 10.453125q-2.015625 0 -3.140625 -1.0q-1.125 -1.0 -1.125 -2.96875q0 -1.84375 0.984375 -2.890625q0.984375 -1.046875 2.875 -1.046875q1.71875 0 2.671875 0.90625q0.953125 0.90625 0.953125 2.421875l0 1.375l-5.484375 0q0.15625 0.890625 0.796875 1.25q0.65625 0.34375 1.921875 0.34375q0.609375 0 1.234375 -0.109375q0.640625 -0.125 1.078125 -0.296875l0 1.546875q-1.046875 0.46875 -2.765625 0.46875zm1.328125 -4.53125l0 -0.40625q0 -1.40625 -1.671875 -1.40625q-1.0625 0 -1.5 0.421875q-0.421875 0.421875 -0.421875 1.390625l3.59375 0zm5.515747 4.53125q-1.109375 0 -1.625 -0.5q-0.5 -0.515625 -0.5 -1.640625l0 -8.796875l2.171875 0l0 8.625q0 0.390625 0.140625 0.546875q0.15625 0.15625 0.484375 0.15625q0.40625 0 0.75 -0.109375l0 1.484375q-0.34375 0.125 -0.671875 0.171875q-0.3125 0.0625 -0.75 0.0625zm4.3680115 0q-1.109375 0 -1.625 -0.5q-0.5 -0.515625 -0.5 -1.640625l0 -8.796875l2.171875 0l0 8.625q0 0.390625 0.140625 0.546875q0.15625 0.15625 0.484375 0.15625q0.40625 0 0.75 -0.109375l0 1.484375q-0.34375 0.125 -0.671875 0.171875q-0.3125 0.0625 -0.75 0.0625zm5.719879 0q-4.109375 0 -4.109375 -3.953125q0 -1.921875 1.015625 -2.9375q1.015625 -1.015625 3.09375 -1.015625q2.078125 0 3.09375 1.015625q1.03125 1.015625 1.03125 2.9375q0 3.953125 -4.125 3.953125zm0 -1.84375q1.0625 0 1.5 -0.46875q0.4375 -0.484375 0.4375 -1.640625q0 -1.140625 -0.4375 -1.625q-0.4375 -0.484375 -1.5 -0.484375q-1.046875 0 -1.484375 0.484375q-0.4375 0.484375 -0.4375 1.625q0 1.15625 0.4375 1.640625q0.4375 0.46875 1.484375 0.46875z" fill-rule="nonzero"/><path fill="#ffffff" d="m404.22717 320.5093l2.125 0l1.546875 6.953125l1.6875 -5.609375l0 -1.34375l1.765625 0l1.984375 6.96875l1.59375 -6.96875l2.109375 0l-2.375 10.296875l-2.0625 0l-1.875 -6.59375l-2.03125 6.59375l-2.078125 0l-2.390625 -10.296875zm16.909424 10.453125q-4.109375 0 -4.109375 -3.953125q0 -1.921875 1.015625 -2.9375q1.015625 -1.015625 3.09375 -1.015625q2.078125 0 3.09375 1.015625q1.03125 1.015625 1.03125 2.9375q0 3.953125 -4.125 3.953125zm0 -1.84375q1.0625 0 1.5 -0.46875q0.4375 -0.484375 0.4375 -1.640625q0 -1.140625 -0.4375 -1.625q-0.4375 -0.484375 -1.5 -0.484375q-1.046875 0 -1.484375 0.484375q-0.4375 0.484375 -0.4375 1.625q0 1.15625 0.4375 1.640625q0.4375 0.46875 1.484375 0.46875zm5.627136 -5.890625l2.0 0l0.109375 0.78125q0.515625 -0.34375 1.265625 -0.59375q0.765625 -0.25 1.5 -0.359375l0 1.640625q-0.6875 0.09375 -1.484375 0.328125q-0.78125 0.234375 -1.21875 0.484375l0 5.296875l-2.171875 0l0 -7.578125zm8.173035 7.734375q-1.109375 0 -1.625 -0.5q-0.5 -0.515625 -0.5 -1.640625l0 -8.796875l2.171875 0l0 8.625q0 0.390625 0.140625 0.546875q0.15625 0.15625 0.484375 0.15625q0.40625 0 0.75 -0.109375l0 1.484375q-0.34375 0.125 -0.671875 0.171875q-0.3125 0.0625 -0.75 0.0625zm5.094879 0q-1.609375 0 -2.546875 -0.875q-0.9375 -0.890625 -0.9375 -2.84375q0 -1.3125 0.484375 -2.25q0.484375 -0.953125 1.3125 -1.4375q0.828125 -0.5 1.84375 -0.5q1.25 0 2.140625 0.578125l0 -3.609375l2.15625 0l0 10.78125l-1.859375 0l-0.125 -0.703125q-0.5 0.4375 -1.09375 0.65625q-0.59375 0.203125 -1.375 0.203125zm0.59375 -1.578125q0.53125 0 0.921875 -0.15625q0.40625 -0.171875 0.78125 -0.53125l0 -3.453125q-0.671875 -0.59375 -1.578125 -0.59375q-0.984375 0 -1.5 0.65625q-0.515625 0.65625 -0.515625 1.9375q0 1.15625 0.46875 1.65625q0.484375 0.484375 1.421875 0.484375zm6.2525024 -9.046875l1.703125 0l-1.125 3.296875l-1.46875 0l0.890625 -3.296875zm2.5 0l1.703125 0l-1.125 3.296875l-1.453125 0l0.875 -3.296875z" fill-rule="nonzero"/><path fill="#4a86e8" d="m1035.7572 311.98163l127.118164 0l0 58.992126l-127.118164 0z" fill-rule="evenodd"/><path fill="#ffffff" d="m1067.4679 329.19705l1.734375 0l0 2.71875l2.5 0q0.90625 0 1.28125 -0.375q0.375 -0.390625 0.375 -1.21875l0 -1.125l1.734375 0l0 1.078125q0 1.8125 -1.296875 2.28125q0.6875 0.234375 0.953125 0.765625q0.265625 0.53125 0.265625 1.328125l0 3.1875l-1.734375 0l0 -2.96875q0 -0.9375 -0.359375 -1.28125q-0.34375 -0.34375 -1.28125 -0.34375l-2.4375 0l0 4.59375l-1.734375 0l0 -8.640625zm12.60144 8.796875q-1.390625 0 -2.171875 -0.8125q-0.765625 -0.828125 -0.765625 -2.3125l0 -5.671875l1.734375 0l0 5.578125q0 0.96875 0.421875 1.40625q0.421875 0.421875 1.359375 0.421875q0.6875 0 1.328125 -0.28125q0.640625 -0.296875 1.0625 -0.75l0 -6.375l1.734375 0l0 8.640625l-1.578125 0l-0.09375 -0.9375q-1.265625 1.09375 -3.03125 1.09375zm2.9613037 -12.75l1.734375 0l0 2.625l-1.734375 0l0 -2.625zm5.921875 12.75q-1.5 0 -2.59375 -0.46875l0 -1.390625q1.078125 0.46875 2.171875 0.46875q1.109375 0 1.734375 -0.296875q0.640625 -0.3125 0.90625 -0.984375q0.28125 -0.671875 0.28125 -1.796875q0 -1.671875 -0.6875 -2.375q-0.671875 -0.703125 -2.25 -0.703125q-1.109375 0 -2.15625 0.46875l0 -1.390625q1.140625 -0.484375 2.546875 -0.484375q2.125 0 3.171875 1.140625q1.0625 1.125 1.0625 3.34375q0 2.203125 -1.03125 3.34375q-1.015625 1.125 -3.15625 1.125zm9.202026 0q-1.03125 0 -1.609375 -0.203125l-2.421875 -5.921875l1.6875 0l1.96875 4.796875q1.359375 0.0625 1.984375 -0.78125q0.640625 -0.84375 0.640625 -2.640625q0 -1.046875 -0.203125 -1.640625q-0.1875 -0.59375 -0.640625 -0.84375q-0.4375 -0.25 -1.25 -0.25l-0.609375 0l0 -1.3125l0.828125 0q1.84375 0 2.703125 0.984375q0.859375 0.984375 0.859375 3.046875q0 2.4375 -1.078125 3.609375q-1.0625 1.15625 -2.859375 1.15625zm7.336548 -0.15625q-1.671875 0 -1.671875 -1.65625l0 -6.984375l1.71875 0l0 6.546875q0 0.359375 0.171875 0.546875q0.171875 0.171875 0.53125 0.171875l0.734375 0l0 1.375l-1.484375 0zm5.3494873 0.15625q-1.5 0 -2.59375 -0.46875l0 -1.390625q1.078125 0.46875 2.171875 0.46875q1.109375 0 1.734375 -0.296875q0.640625 -0.3125 0.90625 -0.984375q0.28125 -0.671875 0.28125 -1.796875q0 -1.671875 -0.6875 -2.375q-0.671875 -0.703125 -2.25 -0.703125q-1.109375 0 -2.15625 0.46875l0 -1.390625q1.140625 -0.484375 2.546875 -0.484375q2.125 0 3.171875 1.140625q1.0625 1.125 1.0625 3.34375q0 2.203125 -1.03125 3.34375q-1.015625 1.125 -3.15625 1.125zm8.483276 0q-1.328125 0 -2.140625 -0.640625q-0.8125 -0.65625 -0.8125 -2.0q0 -1.28125 0.859375 -1.96875q0.875 -0.703125 2.5 -0.703125l2.640625 0l0 -0.546875q0 -0.640625 -0.21875 -1.0q-0.203125 -0.375 -0.6875 -0.53125q-0.46875 -0.15625 -1.3125 -0.15625q-1.53125 0 -2.8125 0.421875l0 -1.34375q0.65625 -0.21875 1.46875 -0.34375q0.828125 -0.140625 1.625 -0.140625q1.890625 0 2.78125 0.796875q0.90625 0.78125 0.90625 2.46875l0 5.53125l-1.75 0l0 -3.8125l-2.53125 0q-0.921875 0 -1.359375 0.3125q-0.4375 0.296875 -0.4375 1.015625q0 0.6875 0.390625 0.96875q0.40625 0.28125 1.34375 0.28125q0.640625 0 1.109375 -0.125l0 1.328125q-0.6875 0.1875 -1.5625 0.1875zm10.082153 -5.59375q0 -0.703125 -0.140625 -1.109375q-0.140625 -0.40625 -0.546875 -0.625q-0.40625 -0.21875 -1.171875 -0.21875q-0.515625 0 -1.125 0.109375q-0.59375 0.109375 -1.078125 0.3125l0 -1.34375q0.5 -0.21875 1.1875 -0.34375q0.6875 -0.140625 1.34375 -0.140625q1.734375 0 2.5 0.75q0.78125 0.75 0.78125 2.390625l0 5.65625l-1.75 0l0 -5.4375z" fill-rule="nonzero"/><path fill="#ffffff" d="m1078.1476 348.07205l-1.671875 0.28125l0 -1.453125l3.390625 -0.53125l0 10.46875l-1.71875 0l0 -8.765625zm7.963379 9.046875q-2.375 0 -3.453125 -1.359375q-1.078125 -1.359375 -1.078125 -3.953125q0 -2.6875 1.046875 -4.0625q1.0625 -1.375 3.484375 -1.375q2.390625 0 3.453125 1.375q1.0625 1.375 1.0625 4.0625q0 2.59375 -1.09375 3.953125q-1.078125 1.359375 -3.421875 1.359375zm0 -1.484375q1.46875 0 2.109375 -0.96875q0.640625 -0.984375 0.640625 -2.859375q0 -2.0 -0.625 -2.96875q-0.625 -0.96875 -2.125 -0.96875q-1.515625 0 -2.140625 0.96875q-0.625 0.96875 -0.625 2.96875q0 1.890625 0.640625 2.859375q0.640625 0.96875 2.125 0.96875zm10.416016 1.484375q-2.375 0 -3.453125 -1.359375q-1.078125 -1.359375 -1.078125 -3.953125q0 -2.6875 1.046875 -4.0625q1.0625 -1.375 3.484375 -1.375q2.390625 0 3.453125 1.375q1.0625 1.375 1.0625 4.0625q0 2.59375 -1.09375 3.953125q-1.078125 1.359375 -3.421875 1.359375zm0 -1.484375q1.46875 0 2.109375 -0.96875q0.640625 -0.984375 0.640625 -2.859375q0 -2.0 -0.625 -2.96875q-0.625 -0.96875 -2.125 -0.96875q-1.515625 0 -2.140625 0.96875q-0.625 0.96875 -0.625 2.96875q0 1.890625 0.640625 2.859375q0.640625 0.96875 2.125 0.96875zm6.2128906 -6.375l1.59375 0l0.078125 0.796875q1.21875 -0.96875 2.671875 -0.96875q0.78125 0 1.25 0.25q0.46875 0.25 0.71875 0.75q0.578125 -0.46875 1.265625 -0.734375q0.703125 -0.265625 1.59375 -0.265625q1.3125 0 1.9375 0.671875q0.625 0.671875 0.625 2.0625l0 5.015625l-1.703125 0l0 -4.828125q0 -0.875 -0.375 -1.234375q-0.375 -0.359375 -1.203125 -0.359375q-0.546875 0 -1.046875 0.203125q-0.484375 0.1875 -0.828125 0.578125q0.09375 0.296875 0.09375 0.78125l0 4.859375l-1.625 0l0 -4.8125q0 -0.875 -0.296875 -1.234375q-0.296875 -0.375 -1.078125 -0.375q-1.0 0 -1.96875 0.90625l0 5.515625l-1.703125 0l0 -7.578125zm16.21167 7.734375q-0.765625 0 -1.484375 -0.109375q-0.71875 -0.09375 -1.1875 -0.265625l0 -1.484375q0.53125 0.21875 1.171875 0.328125q0.65625 0.109375 1.28125 0.109375q0.921875 0 1.28125 -0.15625q0.375 -0.15625 0.375 -0.625q0 -0.421875 -0.34375 -0.609375q-0.328125 -0.203125 -1.25 -0.5l-0.484375 -0.15625q-1.140625 -0.390625 -1.671875 -0.859375q-0.53125 -0.46875 -0.53125 -1.390625q0 -1.078125 0.765625 -1.625q0.765625 -0.5625 2.40625 -0.5625q0.625 0 1.21875 0.109375q0.609375 0.09375 1.03125 0.234375l0 1.453125q-0.421875 -0.171875 -0.96875 -0.265625q-0.53125 -0.09375 -1.015625 -0.09375q-0.875 0 -1.28125 0.15625q-0.390625 0.140625 -0.390625 0.5625q0 0.359375 0.296875 0.546875q0.3125 0.1875 1.203125 0.46875l0.34375 0.109375q0.9375 0.296875 1.4375 0.59375q0.515625 0.296875 0.75 0.71875q0.234375 0.421875 0.234375 1.09375q0 2.21875 -3.1875 2.21875z" fill-rule="nonzero"/><path fill="#000000" fill-opacity="0.0" d="m427.16666 259.91864l-0.9763794 28.283447" fill-rule="evenodd"/><path stroke="#000000" stroke-width="1.0" stroke-linejoin="round" stroke-linecap="butt" d="m427.16666 259.91864l-0.76934814 22.287018" fill-rule="evenodd"/><path fill="#000000" stroke="#000000" stroke-width="1.0" stroke-linecap="butt" d="m424.74655 282.14868l1.4941711 4.5923767l1.807312 -4.4783936z" fill-rule="evenodd"/><path fill="#4a86e8" d="m364.0973 210.25722l142.77164 0l0 58.99211l-142.77164 0z" fill-rule="evenodd"/><path fill="#ffffff" d="m374.25354 232.98828q0 -1.59375 1.265625 -1.984375l-1.734375 -0.421875l0 -1.796875q0.71875 -0.640625 1.78125 -1.046875q1.0625 -0.421875 2.359375 -0.421875q1.96875 0 2.953125 0.8125q1.0 0.8125 1.0 2.625l0 5.359375l-1.734375 0l0 -5.40625q0 -1.109375 -0.515625 -1.546875q-0.515625 -0.4375 -1.765625 -0.4375q-0.78125 0 -1.484375 0.234375q-0.6875 0.21875 -1.09375 0.578125l0 0.296875l1.828125 0.453125l0 1.15625q-0.625 0.15625 -0.890625 0.515625q-0.25 0.34375 -0.25 1.046875l0 3.109375l-1.71875 0l0 -3.125zm6.745514 -6.4375q-0.765625 0 -1.28125 -0.5q-0.53125 -0.5 -0.53125 -1.234375q0 -0.75 0.53125 -1.25q0.515625 -0.5 1.28125 -0.5q0.75 0 1.28125 0.5q0.515625 0.5 0.515625 1.25q0 0.734375 -0.515625 1.234375q-0.53125 0.5 -1.28125 0.5zm0 -1.0q0.3125 0 0.53125 -0.21875q0.203125 -0.234375 0.203125 -0.515625q0 -0.3125 -0.203125 -0.53125q-0.21875 -0.234375 -0.53125 -0.234375q-0.3125 0 -0.53125 0.234375q-0.234375 0.21875 -0.234375 0.53125q0 0.28125 0.234375 0.515625q0.234375 0.21875 0.53125 0.21875zm6.171875 5.125q0 -0.703125 -0.140625 -1.109375q-0.140625 -0.40625 -0.546875 -0.625q-0.40625 -0.21875 -1.171875 -0.21875q-0.515625 0 -1.125 0.109375q-0.59375 0.109375 -1.078125 0.3125l0 -1.34375q0.5 -0.21875 1.1875 -0.34375q0.6875 -0.140625 1.34375 -0.140625q1.734375 0 2.5 0.75q0.78125 0.75 0.78125 2.390625l0 5.65625l-1.75 0l0 -5.4375zm3.7900085 -3.203125l1.734375 0l0 2.71875l2.5 0q0.90625 0 1.28125 -0.375q0.375 -0.390625 0.375 -1.21875l0 -1.125l1.734375 0l0 1.078125q0 1.8125 -1.296875 2.28125q0.6875 0.234375 0.953125 0.765625q0.265625 0.53125 0.265625 1.328125l0 3.1875l-1.734375 0l0 -2.96875q0 -0.9375 -0.359375 -1.28125q-0.34375 -0.34375 -1.28125 -0.34375l-2.4375 0l0 4.59375l-1.734375 0l0 -8.640625zm12.601501 8.796875q-1.390625 0 -2.171875 -0.8125q-0.765625 -0.828125 -0.765625 -2.3125l0 -5.671875l1.734375 0l0 5.578125q0 0.96875 0.421875 1.40625q0.421875 0.421875 1.359375 0.421875q0.6875 0 1.328125 -0.28125q0.640625 -0.296875 1.0625 -0.75l0 -6.375l1.734375 0l0 8.640625l-1.578125 0l-0.09375 -0.9375q-1.265625 1.09375 -3.03125 1.09375zm9.945648 0q-1.609375 0 -2.578125 -1.078125q-0.953125 -1.078125 -0.953125 -3.265625q0 -2.203125 1.109375 -3.40625q1.125 -1.203125 3.3125 -1.203125q1.40625 0 2.34375 0.484375q0.9375 0.484375 1.375 1.28125q0.4375 0.796875 0.4375 1.75l0 5.28125l-1.75 0l0 -5.203125q0 -1.03125 -0.5625 -1.609375q-0.5625 -0.578125 -1.875 -0.578125q-1.390625 0 -2.046875 0.796875q-0.65625 0.796875 -0.65625 2.40625q0 1.578125 0.53125 2.265625q0.53125 0.6875 1.625 0.6875q0.734375 0 1.09375 -0.125l0 1.328125q-0.53125 0.1875 -1.40625 0.1875zm8.55365 -0.15625q-1.6875 0 -1.6875 -1.65625l0 -3.703125q0 -0.84375 0.328125 -1.40625q0.328125 -0.5625 0.90625 -1.15625q0.359375 -0.359375 0.5 -0.578125q0.15625 -0.21875 0.15625 -0.46875q0 -0.453125 -0.25 -0.625q-0.25 -0.171875 -0.8125 -0.171875q-0.859375 0 -1.734375 0.484375l0 -1.28125q0.46875 -0.28125 1.09375 -0.4375q0.625 -0.15625 1.234375 -0.15625q1.125 0 1.6875 0.484375q0.578125 0.484375 0.578125 1.359375q0 0.546875 -0.234375 0.953125q-0.234375 0.390625 -0.703125 0.890625q-0.5 0.609375 -0.765625 1.046875q-0.25 0.4375 -0.25 1.109375l0 3.21875q0 0.4375 0.125 0.578125q0.140625 0.140625 0.578125 0.140625l0.734375 0l0 1.375l-1.484375 0zm3.23526 -8.640625l1.734375 0l0 2.71875l2.5 0q0.90625 0 1.28125 -0.375q0.375 -0.390625 0.375 -1.21875l0 -1.125l1.734375 0l0 1.078125q0 1.8125 -1.296875 2.28125q0.6875 0.234375 0.953125 0.765625q0.265625 0.53125 0.265625 1.328125l0 3.1875l-1.734375 0l0 -2.96875q0 -0.9375 -0.359375 -1.28125q-0.34375 -0.34375 -1.28125 -0.34375l-2.4375 0l0 4.59375l-1.734375 0l0 -8.640625zm3.960907 -2.78125l-1.265625 0l0 -1.203125l2.46875 0l0 1.453125l3.453125 0l-0.0625 1.21875l-4.59375 0l0 -1.46875zm5.703125 1.125l4.578125 0q1.71875 0 2.59375 0.9375q0.875 0.9375 0.875 2.5q0 1.53125 -0.953125 2.46875q-0.953125 0.921875 -2.578125 0.921875l-2.78125 0l0 3.46875l-1.734375 0l0 -10.296875zm4.203125 5.453125q1.0 0 1.546875 -0.53125q0.546875 -0.546875 0.546875 -1.484375q0 -1.0 -0.515625 -1.53125q-0.515625 -0.546875 -1.5 -0.546875l-2.546875 0l0 4.09375l2.46875 0zm5.8368835 -5.765625l1.90625 0l0 1.4375l-1.90625 0l0 -1.4375zm0.140625 4.359375l-1.140625 0l0.15625 -1.328125l2.734375 0l0 7.578125l-1.75 0l0 -6.25zm3.787384 -1.328125l1.59375 0l0.078125 0.796875q0.546875 -0.4375 1.265625 -0.703125q0.71875 -0.265625 1.53125 -0.265625q1.46875 0 2.140625 0.6875q0.671875 0.6875 0.671875 2.15625l0 4.90625l-1.71875 0l0 -4.828125q0 -0.890625 -0.375 -1.234375q-0.359375 -0.359375 -1.34375 -0.359375q-0.59375 0 -1.15625 0.25q-0.5625 0.234375 -0.953125 0.625l0 5.546875l-1.734375 0l0 -7.578125zm17.76178 7.734375q-0.71875 0 -1.578125 -0.140625q-0.84375 -0.125 -1.34375 -0.3125l0 -1.53125q1.203125 0.5 2.6875 0.5q1.28125 0 1.875 -0.375q0.59375 -0.375 0.59375 -1.28125q0 -1.578125 -2.125 -1.578125l-1.5625 0l0.140625 -1.296875l1.296875 0q2.03125 0 2.03125 -1.59375q0 -0.78125 -0.546875 -1.140625q-0.53125 -0.375 -1.703125 -0.375q-0.640625 0 -1.3125 0.125q-0.65625 0.125 -1.1875 0.34375l0 -1.484375q0.515625 -0.203125 1.28125 -0.34375q0.765625 -0.140625 1.484375 -0.140625q1.828125 0 2.78125 0.78125q0.953125 0.78125 0.953125 2.078125q0 0.8125 -0.390625 1.46875q-0.390625 0.65625 -1.15625 0.921875q0.890625 0.25 1.328125 0.859375q0.4375 0.59375 0.4375 1.484375q0 1.5 -1.0625 2.265625q-1.0625 0.765625 -2.921875 0.765625zm5.382141 -5.140625l6.109375 0l0 1.359375l-6.109375 0l0 -1.359375zm9.159912 -3.78125l-1.671875 0.28125l0 -1.453125l3.390625 -0.53125l0 10.46875l-1.71875 0l0 -8.765625zm6.354004 8.921875q-0.71875 0 -1.578125 -0.140625q-0.84375 -0.125 -1.34375 -0.3125l0 -1.53125q1.203125 0.5 2.6875 0.5q1.28125 0 1.875 -0.375q0.59375 -0.375 0.59375 -1.28125q0 -1.578125 -2.125 -1.578125l-1.5625 0l0.140625 -1.296875l1.296875 0q2.03125 0 2.03125 -1.59375q0 -0.78125 -0.546875 -1.140625q-0.53125 -0.375 -1.703125 -0.375q-0.640625 0 -1.3125 0.125q-0.65625 0.125 -1.1875 0.34375l0 -1.484375q0.515625 -0.203125 1.28125 -0.34375q0.765625 -0.140625 1.484375 -0.140625q1.828125 0 2.78125 0.78125q0.953125 0.78125 0.953125 2.078125q0 0.8125 -0.390625 1.46875q-0.390625 0.65625 -1.15625 0.921875q0.890625 0.25 1.328125 0.859375q0.4375 0.59375 0.4375 1.484375q0 1.5 -1.0625 2.265625q-1.0625 0.765625 -2.921875 0.765625z" fill-rule="nonzero"/><path fill="#ffffff" d="m375.81604 255.11328q-1.671875 0 -1.671875 -1.65625l0 -6.984375l1.71875 0l0 6.546875q0 0.359375 0.171875 0.546875q0.171875 0.171875 0.53125 0.171875l0.734375 0l0 1.375l-1.484375 0zm7.1463623 0.15625q-1.875 0 -2.90625 -0.875q-1.03125 -0.890625 -1.03125 -2.640625l0 -5.28125l1.734375 0l0 5.34375q0 1.0625 0.546875 1.5625q0.5625 0.5 1.65625 0.5q1.109375 0 1.671875 -0.5q0.5625 -0.5 0.5625 -1.5625l0 -7.90625l1.71875 0l0 7.84375q0 1.75 -1.03125 2.640625q-1.015625 0.875 -2.921875 0.875zm-2.1889954 -10.0625q-0.9375 0 -1.46875 -0.46875q-0.53125 -0.484375 -0.53125 -1.375q0 -0.890625 0.5625 -1.40625q0.5625 -0.53125 1.578125 -0.53125l3.53125 0l-0.078125 1.03125l-3.28125 0q-0.5625 0 -0.828125 0.21875q-0.265625 0.21875 -0.265625 0.6875q0 0.859375 0.890625 0.859375q0.84375 0 0.84375 -0.671875l0 -0.34375l1.0625 0l0 0.34375q0 0.328125 0.1875 0.484375q0.171875 0.140625 0.546875 0.140625l0.625 0l0 1.0l-0.734375 0q-0.40625 0 -0.71875 -0.109375q-0.3125 -0.125 -0.453125 -0.390625q-0.15625 0.265625 -0.578125 0.40625q-0.421875 0.125 -0.890625 0.125zm11.1250305 10.0625q-1.390625 0 -2.171875 -0.8125q-0.765625 -0.828125 -0.765625 -2.3125l0 -5.671875l1.734375 0l0 5.578125q0 0.96875 0.421875 1.40625q0.421875 0.421875 1.359375 0.421875q0.6875 0 1.328125 -0.28125q0.640625 -0.296875 1.0625 -0.75l0 -6.375l1.734375 0l0 8.640625l-1.578125 0l-0.09375 -0.9375q-1.265625 1.09375 -3.03125 1.09375zm17.209412 0q-2.453125 0 -3.671875 -1.28125q-1.203125 -1.296875 -1.203125 -4.0q0 -2.78125 1.203125 -4.0625q1.203125 -1.28125 3.671875 -1.28125q2.484375 0 3.6875 1.28125q1.203125 1.28125 1.203125 4.0625q0 2.703125 -1.21875 4.0q-1.203125 1.28125 -3.671875 1.28125zm0 -1.46875q1.640625 0 2.390625 -0.890625q0.75 -0.90625 0.75 -2.921875q0 -2.09375 -0.75 -2.96875q-0.734375 -0.875 -2.390625 -0.875q-1.625 0 -2.375 0.875q-0.734375 0.875 -0.734375 2.96875q0 2.0 0.75 2.90625q0.75 0.90625 2.359375 0.90625zm10.995758 1.46875q-2.140625 0 -3.3125 -1.015625q-1.171875 -1.03125 -1.171875 -2.96875l0 -6.46875l1.75 0l0 6.40625q0 1.28125 0.703125 1.9375q0.703125 0.640625 2.03125 0.640625q1.3125 0 2.015625 -0.640625q0.703125 -0.65625 0.703125 -1.9375l0 -6.40625l1.734375 0l0 6.46875q0 1.9375 -1.171875 2.96875q-1.15625 1.015625 -3.28125 1.015625zm9.065277 -9.09375l-3.296875 0l0 -1.359375l8.3125 0l0 1.359375l-3.28125 0l0 8.9375l-1.734375 0l0 -8.9375zm6.4161377 -1.359375l4.578125 0q1.71875 0 2.59375 0.9375q0.875 0.9375 0.875 2.5q0 1.53125 -0.953125 2.46875q-0.953125 0.921875 -2.578125 0.921875l-2.78125 0l0 3.46875l-1.734375 0l0 -10.296875zm4.203125 5.453125q1.0 0 1.546875 -0.53125q0.546875 -0.546875 0.546875 -1.484375q0 -1.0 -0.515625 -1.53125q-0.515625 -0.546875 -1.5 -0.546875l-2.546875 0l0 4.09375l2.46875 0zm9.627533 5.0q-2.140625 0 -3.3125 -1.015625q-1.171875 -1.03125 -1.171875 -2.96875l0 -6.46875l1.75 0l0 6.40625q0 1.28125 0.703125 1.9375q0.703125 0.640625 2.03125 0.640625q1.3125 0 2.015625 -0.640625q0.703125 -0.65625 0.703125 -1.9375l0 -6.40625l1.734375 0l0 6.46875q0 1.9375 -1.171875 2.96875q-1.15625 1.015625 -3.28125 1.015625zm9.065277 -9.09375l-3.296875 0l0 -1.359375l8.3125 0l0 1.359375l-3.28125 0l0 8.9375l-1.734375 0l0 -8.9375z" fill-rule="nonzero"/><path fill="#000000" fill-opacity="0.0" d="m768.7231 237.99738l69.48035 0.40945435" fill-rule="evenodd"/><path stroke="#000000" stroke-width="1.0" stroke-linejoin="round" stroke-linecap="butt" d="m768.7231 237.99738l63.480408 0.37409973" fill-rule="evenodd"/><path fill="#000000" stroke="#000000" stroke-width="1.0" stroke-linecap="butt" d="m832.1938 240.02316l4.5477295 -1.6249542l-4.5282593 -1.6784515z" fill-rule="evenodd"/><path fill="#f4b400" d="m632.3672 124.51312l102.74017 0l0 48.850388l-102.74017 0z" fill-rule="evenodd"/><path fill="#ffffff" d="m659.09247 154.95457q-0.765625 0 -1.484375 -0.109375q-0.71875 -0.09375 -1.1875 -0.265625l0 -1.484375q0.53125 0.21875 1.171875 0.328125q0.65625 0.109375 1.28125 0.109375q0.921875 0 1.28125 -0.15625q0.375 -0.15625 0.375 -0.625q0 -0.421875 -0.34375 -0.609375q-0.328125 -0.203125 -1.25 -0.5l-0.484375 -0.15625q-1.140625 -0.390625 -1.671875 -0.859375q-0.53125 -0.46875 -0.53125 -1.390625q0 -1.078125 0.765625 -1.625q0.765625 -0.5625 2.40625 -0.5625q0.625 0 1.21875 0.109375q0.609375 0.09375 1.03125 0.234375l0 1.453125q-0.421875 -0.171875 -0.96875 -0.265625q-0.53125 -0.09375 -1.015625 -0.09375q-0.875 0 -1.28125 0.15625q-0.390625 0.140625 -0.390625 0.5625q0 0.359375 0.296875 0.546875q0.3125 0.1875 1.203125 0.46875l0.34375 0.109375q0.9375 0.296875 1.4375 0.59375q0.515625 0.296875 0.75 0.71875q0.234375 0.421875 0.234375 1.09375q0 2.21875 -3.1875 2.21875zm3.9402466 -7.734375l1.75 0l1.3125 5.515625l1.484375 -4.59375l0 -0.921875l1.328125 0l1.640625 5.515625l1.3125 -5.515625l1.734375 0l-1.984375 7.578125l-1.65625 0l-1.609375 -4.953125l-1.640625 4.953125l-1.671875 0l-2.0 -7.578125zm12.704163 -3.03125l1.90625 0l0 1.4375l-1.90625 0l0 -1.4375zm0.140625 4.359375l-1.140625 0l0.15625 -1.328125l2.734375 0l0 7.578125l-1.75 0l0 -6.25zm6.6780396 6.40625q-1.203125 0 -1.8125 -0.625q-0.609375 -0.640625 -0.609375 -1.78125l0 -3.96875l-1.109375 0l0 -1.359375l1.109375 0l0 -1.75l1.734375 -0.53125l0 2.28125l2.015625 0l-0.109375 1.359375l-1.90625 0l0 3.859375q0 0.65625 0.296875 0.921875q0.296875 0.265625 1.0 0.265625q0.421875 0 0.90625 -0.15625l0 1.234375q-0.625 0.25 -1.515625 0.25zm6.5560913 0q-2.0 0 -3.03125 -1.0q-1.015625 -1.015625 -1.015625 -2.953125q0 -1.953125 1.09375 -2.953125q1.109375 -1.0 3.046875 -1.0q0.765625 0 1.296875 0.125q0.546875 0.109375 1.0625 0.34375l0 1.296875q-0.828125 -0.421875 -2.015625 -0.421875q-1.359375 0 -2.046875 0.609375q-0.671875 0.609375 -0.671875 2.0q0 1.375 0.625 2.0q0.640625 0.625 2.0625 0.625q1.125 0 2.0625 -0.421875l0 1.328125q-1.0625 0.421875 -2.46875 0.421875zm4.1693115 -10.9375l1.734375 0l0 3.9375q0.515625 -0.421875 1.203125 -0.65625q0.703125 -0.25 1.53125 -0.25q1.4375 0 2.125 0.6875q0.6875 0.6875 0.6875 2.15625l0 4.90625l-1.71875 0l0 -4.828125q0 -0.890625 -0.375 -1.234375q-0.375 -0.359375 -1.3125 -0.359375q-0.578125 0 -1.171875 0.25q-0.578125 0.25 -0.96875 0.65625l0 5.515625l-1.734375 0l0 -10.78125zm11.076111 11.9375q-1.109375 -0.984375 -1.640625 -2.59375q-0.515625 -1.609375 -0.515625 -3.40625q0 -1.8125 0.515625 -3.40625q0.53125 -1.609375 1.640625 -2.59375l1.96875 0q-2.359375 2.046875 -2.359375 6.0q0 3.953125 2.359375 6.0l-1.96875 0zm2.7312622 0q1.234375 -1.078125 1.796875 -2.578125q0.5625 -1.5 0.5625 -3.421875q0 -3.96875 -2.359375 -6.0l1.984375 0q1.09375 0.984375 1.609375 2.59375q0.53125 1.609375 0.53125 3.40625q0 1.796875 -0.53125 3.40625q-0.515625 1.609375 -1.609375 2.59375l-1.984375 0z" fill-rule="nonzero"/><path fill="#f4b400" d="m591.81665 238.40707l91.92053 -37.477432l91.92053 37.477432l-91.92053 37.477448z" fill-rule="evenodd"/><path fill="#ffffff" d="m653.9894 241.14207q0 -1.59375 1.265625 -1.984375l-1.734375 -0.421875l0 -1.796875q0.71875 -0.640625 1.78125 -1.046875q1.0625 -0.421875 2.359375 -0.421875q1.96875 0 2.953125 0.8125q1.0 0.8125 1.0 2.625l0 5.359375l-1.734375 0l0 -5.40625q0 -1.109375 -0.515625 -1.546875q-0.515625 -0.4375 -1.765625 -0.4375q-0.78125 0 -1.484375 0.234375q-0.6875 0.21875 -1.09375 0.578125l0 0.296875l1.828125 0.453125l0 1.15625q-0.625 0.15625 -0.890625 0.515625q-0.25 0.34375 -0.25 1.046875l0 3.109375l-1.71875 0l0 -3.125zm12.870483 3.28125q-1.609375 0 -2.578125 -1.078125q-0.953125 -1.078125 -0.953125 -3.265625q0 -2.203125 1.109375 -3.40625q1.125 -1.203125 3.3125 -1.203125q1.40625 0 2.34375 0.484375q0.9375 0.484375 1.375 1.28125q0.4375 0.796875 0.4375 1.75l0 5.28125l-1.75 0l0 -5.203125q0 -1.03125 -0.5625 -1.609375q-0.5625 -0.578125 -1.875 -0.578125q-1.390625 0 -2.046875 0.796875q-0.65625 0.796875 -0.65625 2.40625q0 1.578125 0.53125 2.265625q0.53125 0.6875 1.625 0.6875q0.734375 0 1.09375 -0.125l0 1.328125q-0.53125 0.1875 -1.40625 0.1875zm7.0849 -5.625q0 -1.609375 0.953125 -2.46875q0.96875 -0.859375 2.953125 -0.859375q1.984375 0 2.9375 0.859375q0.953125 0.859375 0.953125 2.46875l0 5.46875l-1.734375 0l0 -5.625q0 -1.765625 -2.15625 -1.765625q-1.078125 0 -1.625 0.4375q-0.546875 0.421875 -0.546875 1.328125l0 1.765625q0.703125 -0.578125 1.6875 -0.578125l1.03125 0l0.0625 1.390625l-1.140625 0q-0.984375 0 -1.640625 0.546875l0 2.5l-1.734375 0l0 -5.46875zm12.668152 5.625q-0.875 0 -1.671875 -0.109375q-0.78125 -0.109375 -1.28125 -0.3125l0 -1.46875q0.59375 0.25 1.296875 0.375q0.703125 0.125 1.328125 0.125q1.171875 0 1.671875 -0.203125q0.5 -0.203125 0.5 -0.828125q0 -0.390625 -0.203125 -0.625q-0.1875 -0.234375 -0.53125 -0.375q-0.328125 -0.140625 -1.03125 -0.359375l-0.625 -0.21875q-1.3125 -0.4375 -1.96875 -0.96875q-0.640625 -0.546875 -0.640625 -1.53125q0 -1.15625 0.875 -1.796875q0.890625 -0.65625 2.59375 -0.65625q0.703125 0 1.421875 0.109375q0.71875 0.109375 1.21875 0.265625l0 1.453125q-0.515625 -0.203125 -1.171875 -0.3125q-0.640625 -0.109375 -1.203125 -0.109375q-1.015625 0 -1.53125 0.21875q-0.515625 0.21875 -0.515625 0.78125q0 0.34375 0.203125 0.578125q0.21875 0.21875 0.578125 0.375q0.375 0.140625 1.140625 0.390625l0.46875 0.15625q1.375 0.453125 1.984375 1.015625q0.609375 0.546875 0.609375 1.609375q0 1.21875 -0.9375 1.828125q-0.921875 0.59375 -2.578125 0.59375zm-0.5922241 -12.4375l1.4375 0l0 1.109375l4.140625 0l-0.078125 1.21875l-5.5 0l0 -2.328125zm1.359375 -2.3128815l-1.0 0l0 -1.125l2.140625 0l0 1.25l2.453125 0l-0.0625 1.125l-3.53125 0l0 -1.25zm7.859375 14.750381q-1.03125 0 -1.609375 -0.203125l-2.421875 -5.921875l1.6875 0l1.96875 4.796875q1.359375 0.0625 1.984375 -0.78125q0.640625 -0.84375 0.640625 -2.640625q0 -1.046875 -0.203125 -1.640625q-0.1875 -0.59375 -0.640625 -0.84375q-0.4375 -0.25 -1.25 -0.25l-0.609375 0l0 -1.3125l0.828125 0q1.84375 0 2.703125 0.984375q0.859375 0.984375 0.859375 3.046875q0 2.4375 -1.078125 3.609375q-1.0625 1.15625 -2.859375 1.15625zm5.633423 -8.796875l1.578125 0l0.09375 0.9375q1.296875 -1.09375 3.078125 -1.09375q1.359375 0 2.125 0.8125q0.765625 0.8125 0.765625 2.28125l0 5.703125l-1.734375 0l0 -5.609375q0 -0.9375 -0.4375 -1.359375q-0.4375 -0.421875 -1.34375 -0.421875q-0.6875 0 -1.3125 0.296875q-0.625 0.28125 -1.078125 0.734375l0 6.359375l-1.734375 0l0 -8.640625zm1.0549927 -2.53125l5.140625 0l0 -1.328125l1.4375 0l0 2.546875l-6.671875 0l0.09375 -1.21875zm5.140625 -4.3132477l1.4375 0l0 2.21875l-1.4375 0l0 -2.21875zm4.828125 6.7194977l-1.671875 0.28125l0 -1.453125l3.390625 -0.53125l0 10.46875l-1.71875 0l0 -8.765625z" fill-rule="nonzero"/><path fill="#4a86e8" d="m838.2034 208.91077l127.1181 0l0 58.992126l-127.1181 0z" fill-rule="evenodd"/><path fill="#ffffff" d="m856.41 224.46996l1.734375 0l0 8.953125l5.28125 0l0 1.34375l-7.015625 0l0 -10.296875zm8.160034 0l7.171875 0l0 1.359375l-5.4375 0l0 3.109375l4.84375 0l0 1.34375l-4.84375 0l0 3.140625l5.4375 0l0 1.34375l-7.171875 0l0 -10.296875zm8.800049 0l4.171875 0q2.3125 0 3.40625 1.234375q1.09375 1.21875 1.09375 3.96875q0 2.640625 -1.09375 3.875q-1.09375 1.21875 -3.40625 1.21875l-4.171875 0l0 -10.296875zm3.890625 8.953125q1.078125 0 1.71875 -0.3125q0.65625 -0.3125 0.984375 -1.125q0.328125 -0.8125 0.328125 -2.3125q0 -1.5 -0.3125 -2.328125q-0.296875 -0.828125 -0.953125 -1.171875q-0.640625 -0.34375 -1.765625 -0.34375l-2.15625 0l0 7.59375l2.15625 0zm12.413391 -8.953125l4.578125 0q1.71875 0 2.59375 0.9375q0.875 0.9375 0.875 2.5q0 1.53125 -0.953125 2.46875q-0.953125 0.921875 -2.578125 0.921875l-2.78125 0l0 3.46875l-1.734375 0l0 -10.296875zm4.203125 5.453125q1.0 0 1.546875 -0.53125q0.546875 -0.546875 0.546875 -1.484375q0 -1.0 -0.515625 -1.53125q-0.515625 -0.546875 -1.5 -0.546875l-2.546875 0l0 4.09375l2.46875 0zm5.836914 -5.765625l1.90625 0l0 1.4375l-1.90625 0l0 -1.4375zm0.140625 4.359375l-1.140625 0l0.15625 -1.328125l2.734375 0l0 7.578125l-1.75 0l0 -6.25zm3.7873535 -1.328125l1.59375 0l0.078125 0.796875q0.546875 -0.4375 1.265625 -0.703125q0.71875 -0.265625 1.53125 -0.265625q1.46875 0 2.140625 0.6875q0.671875 0.6875 0.671875 2.15625l0 4.90625l-1.71875 0l0 -4.828125q0 -0.890625 -0.375 -1.234375q-0.359375 -0.359375 -1.34375 -0.359375q-0.59375 0 -1.15625 0.25q-0.5625 0.234375 -0.953125 0.625l0 5.546875l-1.734375 0l0 -7.578125zm18.871155 7.734375q-2.0 0 -3.015625 -0.734375q-1.015625 -0.75 -1.015625 -2.203125q0 -0.90625 0.46875 -1.578125q0.484375 -0.6875 1.359375 -0.96875q-0.765625 -0.28125 -1.15625 -0.859375q-0.390625 -0.59375 -0.390625 -1.328125q0 -1.375 0.9375 -2.15625q0.953125 -0.796875 2.8125 -0.796875q1.890625 0 2.8125 0.78125q0.9375 0.78125 0.9375 2.171875q0 0.78125 -0.390625 1.40625q-0.375 0.609375 -1.234375 0.921875q0.984375 0.296875 1.4375 0.890625q0.453125 0.578125 0.453125 1.515625q0 1.453125 -1.015625 2.203125q-1.0 0.734375 -3.0 0.734375zm0.4375 -5.890625q0.890625 -0.21875 1.28125 -0.609375q0.40625 -0.390625 0.40625 -1.140625q0 -1.609375 -2.125 -1.609375q-2.125 0 -2.125 1.609375q0 0.625 0.359375 1.015625q0.359375 0.390625 1.0625 0.515625l1.140625 0.21875zm-0.4375 4.53125q1.21875 0 1.8125 -0.390625q0.59375 -0.390625 0.59375 -1.21875q0 -0.71875 -0.40625 -1.0625q-0.40625 -0.359375 -1.328125 -0.5625l-1.3125 -0.265625q-0.875 0.1875 -1.328125 0.625q-0.453125 0.421875 -0.453125 1.234375q0 0.84375 0.59375 1.25q0.609375 0.390625 1.828125 0.390625zm5.4087524 -3.78125l6.109375 0l0 1.359375l-6.109375 0l0 -1.359375zm9.159912 -3.78125l-1.671875 0.28125l0 -1.453125l3.390625 -0.53125l0 10.46875l-1.71875 0l0 -8.765625zm6.354004 8.921875q-0.71875 0 -1.578125 -0.140625q-0.84375 -0.125 -1.34375 -0.3125l0 -1.53125q1.203125 0.5 2.6875 0.5q1.28125 0 1.875 -0.375q0.59375 -0.375 0.59375 -1.28125q0 -1.578125 -2.125 -1.578125l-1.5625 0l0.140625 -1.296875l1.296875 0q2.03125 0 2.03125 -1.59375q0 -0.78125 -0.546875 -1.140625q-0.53125 -0.375 -1.703125 -0.375q-0.640625 0 -1.3125 0.125q-0.65625 0.125 -1.1875 0.34375l0 -1.484375q0.515625 -0.203125 1.28125 -0.34375q0.765625 -0.140625 1.484375 -0.140625q1.828125 0 2.78125 0.78125q0.953125 0.78125 0.953125 2.078125q0 0.8125 -0.390625 1.46875q-0.390625 0.65625 -1.15625 0.921875q0.890625 0.25 1.328125 0.859375q0.4375 0.59375 0.4375 1.484375q0 1.5 -1.0625 2.265625q-1.0625 0.765625 -2.921875 0.765625z" fill-rule="nonzero"/><path fill="#ffffff" d="m882.71716 253.92308q-1.609375 0 -2.578125 -1.078125q-0.953125 -1.078125 -0.953125 -3.265625q0 -2.234375 0.734375 -3.421875q0.75 -1.1875 2.109375 -1.1875q0.625 0 1.015625 0.203125q0.390625 0.203125 0.71875 0.625q0.328125 -0.375 0.875 -0.59375q0.546875 -0.234375 1.109375 -0.234375q1.0 0 1.53125 0.609375q0.53125 0.609375 0.53125 1.703125l0 6.484375l-1.75 0l0 -6.21875q0 -0.640625 -0.171875 -0.90625q-0.171875 -0.265625 -0.671875 -0.265625q-0.328125 0 -0.59375 0.1875q-0.265625 0.171875 -0.390625 0.546875l-0.96875 0q-0.203125 -0.40625 -0.421875 -0.5625q-0.203125 -0.171875 -0.5625 -0.171875q-0.796875 0 -1.109375 0.8125q-0.296875 0.8125 -0.296875 2.390625q0 1.578125 0.53125 2.265625q0.53125 0.6875 1.625 0.6875q0.734375 0 1.09375 -0.125l0 1.328125q-0.53125 0.1875 -1.40625 0.1875zm-1.4921265 -11.328125l6.578125 0l0 1.21875l-6.671875 0l0.09375 -1.21875zm11.828125 11.328125q-1.609375 0 -2.578125 -1.078125q-0.953125 -1.078125 -0.953125 -3.265625q0 -2.203125 1.109375 -3.40625q1.125 -1.203125 3.3125 -1.203125q1.40625 0 2.34375 0.484375q0.9375 0.484375 1.375 1.28125q0.4375 0.796875 0.4375 1.75l0 5.28125l-1.75 0l0 -5.203125q0 -1.03125 -0.5625 -1.609375q-0.5625 -0.578125 -1.875 -0.578125q-1.390625 0 -2.046875 0.796875q-0.65625 0.796875 -0.65625 2.40625q0 1.578125 0.53125 2.265625q0.53125 0.6875 1.625 0.6875q0.734375 0 1.09375 -0.125l0 1.328125q-0.53125 0.1875 -1.40625 0.1875zm7.0849 -5.625q0 -1.609375 0.953125 -2.46875q0.96875 -0.859375 2.953125 -0.859375q1.984375 0 2.9375 0.859375q0.953125 0.859375 0.953125 2.46875l0 5.46875l-1.734375 0l0 -5.625q0 -1.765625 -2.15625 -1.765625q-1.078125 0 -1.625 0.4375q-0.546875 0.421875 -0.546875 1.328125l0 1.765625q0.703125 -0.578125 1.6875 -0.578125l1.03125 0l0.0625 1.390625l-1.140625 0q-0.984375 0 -1.640625 0.546875l0 2.5l-1.734375 0l0 -5.46875zm4.136902 -5.953125l-1.265625 0l0 -1.203125l2.46875 0l0 1.453125l3.453125 0l-0.0625 1.21875l-4.59375 0l0 -1.46875zm8.953125 5.984375q0 -0.703125 -0.140625 -1.109375q-0.140625 -0.40625 -0.546875 -0.625q-0.40625 -0.21875 -1.171875 -0.21875q-0.515625 0 -1.125 0.109375q-0.59375 0.109375 -1.078125 0.3125l0 -1.34375q0.5 -0.21875 1.1875 -0.34375q0.6875 -0.140625 1.34375 -0.140625q1.734375 0 2.5 0.75q0.78125 0.75 0.78125 2.390625l0 5.65625l-1.75 0l0 -5.4375zm7.180664 5.59375q-1.03125 0 -1.609375 -0.203125l-2.421875 -5.921875l1.6875 0l1.96875 4.796875q1.359375 0.0625 1.984375 -0.78125q0.640625 -0.84375 0.640625 -2.640625q0 -1.046875 -0.203125 -1.640625q-0.1875 -0.59375 -0.640625 -0.84375q-0.4375 -0.25 -1.25 -0.25l-0.609375 0l0 -1.3125l0.828125 0q1.84375 0 2.703125 0.984375q0.859375 0.984375 0.859375 3.046875q0 2.4375 -1.078125 3.609375q-1.0625 1.15625 -2.859375 1.15625z" fill-rule="nonzero"/><path fill="#000000" fill-opacity="0.0" d="m965.32153 239.54855l69.48035 0.40945435" fill-rule="evenodd"/><path stroke="#000000" stroke-width="1.0" stroke-linejoin="round" stroke-linecap="butt" d="m965.32153 239.54855l63.480347 0.37409973" fill-rule="evenodd"/><path fill="#000000" stroke="#000000" stroke-width="1.0" stroke-linecap="butt" d="m1028.7922 241.57436l4.5477295 -1.6249695l-4.5283203 -1.6784363z" fill-rule="evenodd"/><path fill="#f4b400" d="m1039.9594 213.7769l102.74011 0l0 48.850388l-102.74011 0z" fill-rule="evenodd"/><path fill="#ffffff" d="m1076.0773 244.21835q-0.8125 0 -1.421875 -0.203125q-0.609375 -0.21875 -1.140625 -0.703125l-0.09375 0.75l-1.5 0l0 -10.78125l1.734375 0l0 3.6875q0.984375 -0.65625 2.390625 -0.65625q1.671875 0 2.578125 0.953125q0.90625 0.953125 0.90625 2.9375q0 2.015625 -0.90625 3.015625q-0.90625 1.0 -2.546875 1.0zm-0.46875 -1.3125q1.15625 0 1.65625 -0.65625q0.5 -0.65625 0.5 -2.046875q0 -1.390625 -0.515625 -1.96875q-0.515625 -0.59375 -1.671875 -0.59375q-1.1875 0 -1.921875 0.65625l0 3.8125q0.75 0.796875 1.953125 0.796875zm5.6245117 -6.421875l1.59375 0l0.09375 0.875q0.546875 -0.359375 1.296875 -0.640625q0.75 -0.28125 1.484375 -0.40625l0 1.328125q-0.6875 0.140625 -1.484375 0.40625q-0.796875 0.25 -1.25 0.546875l0 5.46875l-1.734375 0l0 -7.578125zm9.220093 7.734375q-2.015625 0 -3.09375 -0.984375q-1.0625 -1.0 -1.0625 -2.984375q0 -1.875 0.9375 -2.90625q0.953125 -1.03125 2.8125 -1.03125q1.671875 0 2.5625 0.890625q0.90625 0.875 0.90625 2.34375l0 1.40625l-5.546875 0q0.125 1.09375 0.78125 1.515625q0.65625 0.421875 2.0625 0.421875q0.578125 0 1.171875 -0.109375q0.59375 -0.109375 1.0625 -0.28125l0 1.28125q-1.0 0.4375 -2.59375 0.4375zm1.53125 -4.390625l0 -0.53125q0 -0.8125 -0.453125 -1.234375q-0.453125 -0.4375 -1.4375 -0.4375q-1.1875 0 -1.65625 0.515625q-0.46875 0.515625 -0.46875 1.6875l4.015625 0zm5.592041 4.390625q-1.15625 0 -1.921875 -0.59375q-0.765625 -0.609375 -0.765625 -1.71875q0 -1.125 0.75 -1.765625q0.765625 -0.65625 2.296875 -0.65625l2.421875 0l0 -0.328125q0 -0.5625 -0.171875 -0.875q-0.15625 -0.3125 -0.609375 -0.453125q-0.453125 -0.15625 -1.28125 -0.15625q-1.34375 0 -2.515625 0.40625l0 -1.296875q0.546875 -0.203125 1.28125 -0.328125q0.734375 -0.140625 1.5625 -0.140625q1.6875 0 2.546875 0.6875q0.859375 0.6875 0.859375 2.1875l0 4.875l-1.484375 0l-0.125 -0.765625q-0.46875 0.46875 -1.15625 0.703125q-0.6875 0.21875 -1.6875 0.21875zm0.46875 -1.25q0.75 0 1.34375 -0.25q0.59375 -0.25 0.96875 -0.71875l0 -1.328125l-2.390625 0q-0.78125 0 -1.125 0.296875q-0.34375 0.28125 -0.34375 0.90625q0 0.578125 0.390625 0.84375q0.390625 0.25 1.15625 0.25zm5.923828 -9.6875l1.734375 0l0 6.234375l3.1875 -3.03125l2.0 0l-3.09375 3.046875l3.265625 4.53125l-1.84375 0l-2.5 -3.59375l-1.015625 0.953125l0 2.640625l-1.734375 0l0 -10.78125z" fill-rule="nonzero"/><path fill="#f4b400" d="m591.81665 340.92676l91.92053 -37.477417l91.92053 37.477417l-91.92053 37.477448z" fill-rule="evenodd"/><path fill="#ffffff" d="m652.46936 343.66177q0 -1.59375 1.265625 -1.984375l-1.734375 -0.421875l0 -1.796875q0.71875 -0.640625 1.78125 -1.046875q1.0625 -0.421875 2.359375 -0.421875q1.96875 0 2.953125 0.8125q1.0 0.8125 1.0 2.625l0 5.359375l-1.734375 0l0 -5.40625q0 -1.109375 -0.515625 -1.546875q-0.515625 -0.4375 -1.765625 -0.4375q-0.78125 0 -1.484375 0.234375q-0.6875 0.21875 -1.09375 0.578125l0 0.296875l1.828125 0.453125l0 1.15625q-0.625 0.15625 -0.890625 0.515625q-0.25 0.34375 -0.25 1.046875l0 3.109375l-1.71875 0l0 -3.125zm12.870544 3.28125q-1.609375 0 -2.578125 -1.078125q-0.953125 -1.078125 -0.953125 -3.265625q0 -2.203125 1.109375 -3.40625q1.125 -1.203125 3.3125 -1.203125q1.40625 0 2.34375 0.484375q0.9375 0.484375 1.375 1.28125q0.4375 0.796875 0.4375 1.75l0 5.28125l-1.75 0l0 -5.203125q0 -1.03125 -0.5625 -1.609375q-0.5625 -0.578125 -1.875 -0.578125q-1.390625 0 -2.046875 0.796875q-0.65625 0.796875 -0.65625 2.40625q0 1.578125 0.53125 2.265625q0.53125 0.6875 1.625 0.6875q0.734375 0 1.09375 -0.125l0 1.328125q-0.53125 0.1875 -1.40625 0.1875zm7.0849 -5.625q0 -1.609375 0.953125 -2.46875q0.96875 -0.859375 2.953125 -0.859375q1.984375 0 2.9375 0.859375q0.953125 0.859375 0.953125 2.46875l0 5.46875l-1.734375 0l0 -5.625q0 -1.765625 -2.15625 -1.765625q-1.078125 0 -1.625 0.4375q-0.546875 0.421875 -0.546875 1.328125l0 1.765625q0.703125 -0.578125 1.6875 -0.578125l1.03125 0l0.0625 1.390625l-1.140625 0q-0.984375 0 -1.640625 0.546875l0 2.5l-1.734375 0l0 -5.46875zm12.668152 5.625q-0.875 0 -1.671875 -0.109375q-0.78125 -0.109375 -1.28125 -0.3125l0 -1.46875q0.59375 0.25 1.296875 0.375q0.703125 0.125 1.328125 0.125q1.171875 0 1.671875 -0.203125q0.5 -0.203125 0.5 -0.828125q0 -0.390625 -0.203125 -0.625q-0.1875 -0.234375 -0.53125 -0.375q-0.328125 -0.140625 -1.03125 -0.359375l-0.625 -0.21875q-1.3125 -0.4375 -1.96875 -0.96875q-0.640625 -0.546875 -0.640625 -1.53125q0 -1.15625 0.875 -1.796875q0.890625 -0.65625 2.59375 -0.65625q0.703125 0 1.421875 0.109375q0.71875 0.109375 1.21875 0.265625l0 1.453125q-0.515625 -0.203125 -1.171875 -0.3125q-0.640625 -0.109375 -1.203125 -0.109375q-1.015625 0 -1.53125 0.21875q-0.515625 0.21875 -0.515625 0.78125q0 0.34375 0.203125 0.578125q0.21875 0.21875 0.578125 0.375q0.375 0.140625 1.140625 0.390625l0.46875 0.15625q1.375 0.453125 1.984375 1.015625q0.609375 0.546875 0.609375 1.609375q0 1.21875 -0.9375 1.828125q-0.921875 0.59375 -2.578125 0.59375zm-0.59228516 -12.4375l1.4375 0l0 1.109375l4.140625 0l-0.078125 1.21875l-5.5 0l0 -2.328125zm1.359375 -2.3128967l-1.0 0l0 -1.125l2.140625 0l0 1.25l2.453125 0l-0.0625 1.125l-3.53125 0l0 -1.25zm7.859375 14.750397q-1.03125 0 -1.609375 -0.203125l-2.421875 -5.921875l1.6875 0l1.96875 4.796875q1.359375 0.0625 1.984375 -0.78125q0.640625 -0.84375 0.640625 -2.640625q0 -1.046875 -0.203125 -1.640625q-0.1875 -0.59375 -0.640625 -0.84375q-0.4375 -0.25 -1.25 -0.25l-0.609375 0l0 -1.3125l0.828125 0q1.84375 0 2.703125 0.984375q0.859375 0.984375 0.859375 3.046875q0 2.4375 -1.078125 3.609375q-1.0625 1.15625 -2.859375 1.15625zm5.633423 -8.796875l1.578125 0l0.09375 0.9375q1.296875 -1.09375 3.078125 -1.09375q1.359375 0 2.125 0.8125q0.765625 0.8125 0.765625 2.28125l0 5.703125l-1.734375 0l0 -5.609375q0 -0.9375 -0.4375 -1.359375q-0.4375 -0.421875 -1.34375 -0.421875q-0.6875 0 -1.3125 0.296875q-0.625 0.28125 -1.078125 0.734375l0 6.359375l-1.734375 0l0 -8.640625zm1.0549927 -2.53125l5.140625 0l0 -1.328125l1.4375 0l0 2.546875l-6.671875 0l0.09375 -1.21875zm5.140625 -4.313263l1.4375 0l0 2.21875l-1.4375 0l0 -2.21875zm3.15625 14.625763q0.390625 -0.890625 1.0625 -1.640625q0.671875 -0.765625 1.6875 -1.640625q0.984375 -0.84375 1.390625 -1.265625q0.421875 -0.4375 0.59375 -0.84375q0.171875 -0.421875 0.171875 -1.03125q0 -0.84375 -0.5 -1.265625q-0.484375 -0.421875 -1.578125 -0.421875q-1.15625 0 -2.4375 0.46875l0 -1.53125q0.5625 -0.1875 1.328125 -0.3125q0.765625 -0.125 1.453125 -0.125q1.6875 0 2.578125 0.84375q0.90625 0.84375 0.90625 2.328125q0 1.015625 -0.484375 1.75q-0.484375 0.734375 -1.515625 1.65625l-0.265625 0.25q-0.90625 0.78125 -1.375 1.25q-0.46875 0.46875 -0.796875 1.046875l4.546875 0l0 1.34375l-6.765625 0l0 -0.859375z" fill-rule="nonzero"/><path fill="#000000" fill-opacity="0.0" d="m768.7231 340.72177l69.48035 0.40945435" fill-rule="evenodd"/><path stroke="#000000" stroke-width="1.0" stroke-linejoin="round" stroke-linecap="butt" d="m768.7231 340.72177l63.480408 0.374115" fill-rule="evenodd"/><path fill="#000000" stroke="#000000" stroke-width="1.0" stroke-linecap="butt" d="m832.1938 342.7476l4.5477295 -1.6249695l-4.5282593 -1.6784363z" fill-rule="evenodd"/><path fill="#4a86e8" d="m837.24805 311.98163l127.1181 0l0 58.992126l-127.1181 0z" fill-rule="evenodd"/><path fill="#ffffff" d="m855.4546 337.0408l1.734375 0l0 8.953125l5.28125 0l0 1.34375l-7.015625 0l0 -10.296875zm8.160034 0l7.171875 0l0 1.359375l-5.4375 0l0 3.109375l4.84375 0l0 1.34375l-4.84375 0l0 3.140625l5.4375 0l0 1.34375l-7.171875 0l0 -10.296875zm8.800049 0l4.171875 0q2.3125 0 3.40625 1.234375q1.09375 1.21875 1.09375 3.96875q0 2.640625 -1.09375 3.875q-1.09375 1.21875 -3.40625 1.21875l-4.171875 0l0 -10.296875zm3.890625 8.953125q1.078125 0 1.71875 -0.3125q0.65625 -0.3125 0.984375 -1.125q0.328125 -0.8125 0.328125 -2.3125q0 -1.5 -0.3125 -2.328125q-0.296875 -0.828125 -0.953125 -1.171875q-0.640625 -0.34375 -1.765625 -0.34375l-2.15625 0l0 7.59375l2.15625 0zm12.413391 -8.953125l4.578125 0q1.71875 0 2.59375 0.9375q0.875 0.9375 0.875 2.5q0 1.53125 -0.953125 2.46875q-0.953125 0.921875 -2.578125 0.921875l-2.78125 0l0 3.46875l-1.734375 0l0 -10.296875zm4.203125 5.453125q1.0 0 1.546875 -0.53125q0.546875 -0.546875 0.546875 -1.484375q0 -1.0 -0.515625 -1.53125q-0.515625 -0.546875 -1.5 -0.546875l-2.546875 0l0 4.09375l2.46875 0zm5.836914 -5.765625l1.90625 0l0 1.4375l-1.90625 0l0 -1.4375zm0.140625 4.359375l-1.140625 0l0.15625 -1.328125l2.734375 0l0 7.578125l-1.75 0l0 -6.25zm3.7873535 -1.328125l1.59375 0l0.078125 0.796875q0.546875 -0.4375 1.265625 -0.703125q0.71875 -0.265625 1.53125 -0.265625q1.46875 0 2.140625 0.6875q0.671875 0.6875 0.671875 2.15625l0 4.90625l-1.71875 0l0 -4.828125q0 -0.890625 -0.375 -1.234375q-0.359375 -0.359375 -1.34375 -0.359375q-0.59375 0 -1.15625 0.25q-0.5625 0.234375 -0.953125 0.625l0 5.546875l-1.734375 0l0 -7.578125zm18.871155 7.734375q-2.0 0 -3.015625 -0.734375q-1.015625 -0.75 -1.015625 -2.203125q0 -0.90625 0.46875 -1.578125q0.484375 -0.6875 1.359375 -0.96875q-0.765625 -0.28125 -1.15625 -0.859375q-0.390625 -0.59375 -0.390625 -1.328125q0 -1.375 0.9375 -2.15625q0.953125 -0.796875 2.8125 -0.796875q1.890625 0 2.8125 0.78125q0.9375 0.78125 0.9375 2.171875q0 0.78125 -0.390625 1.40625q-0.375 0.609375 -1.234375 0.921875q0.984375 0.296875 1.4375 0.890625q0.453125 0.578125 0.453125 1.515625q0 1.453125 -1.015625 2.203125q-1.0 0.734375 -3.0 0.734375zm0.4375 -5.890625q0.890625 -0.21875 1.28125 -0.609375q0.40625 -0.390625 0.40625 -1.140625q0 -1.609375 -2.125 -1.609375q-2.125 0 -2.125 1.609375q0 0.625 0.359375 1.015625q0.359375 0.390625 1.0625 0.515625l1.140625 0.21875zm-0.4375 4.53125q1.21875 0 1.8125 -0.390625q0.59375 -0.390625 0.59375 -1.21875q0 -0.71875 -0.40625 -1.0625q-0.40625 -0.359375 -1.328125 -0.5625l-1.3125 -0.265625q-0.875 0.1875 -1.328125 0.625q-0.453125 0.421875 -0.453125 1.234375q0 0.84375 0.59375 1.25q0.609375 0.390625 1.828125 0.390625zm5.4087524 -3.78125l6.109375 0l0 1.359375l-6.109375 0l0 -1.359375zm9.159912 -3.78125l-1.671875 0.28125l0 -1.453125l3.390625 -0.53125l0 10.46875l-1.71875 0l0 -8.765625zm6.354004 8.921875q-0.71875 0 -1.578125 -0.140625q-0.84375 -0.125 -1.34375 -0.3125l0 -1.53125q1.203125 0.5 2.6875 0.5q1.28125 0 1.875 -0.375q0.59375 -0.375 0.59375 -1.28125q0 -1.578125 -2.125 -1.578125l-1.5625 0l0.140625 -1.296875l1.296875 0q2.03125 0 2.03125 -1.59375q0 -0.78125 -0.546875 -1.140625q-0.53125 -0.375 -1.703125 -0.375q-0.640625 0 -1.3125 0.125q-0.65625 0.125 -1.1875 0.34375l0 -1.484375q0.515625 -0.203125 1.28125 -0.34375q0.765625 -0.140625 1.484375 -0.140625q1.828125 0 2.78125 0.78125q0.953125 0.78125 0.953125 2.078125q0 0.8125 -0.390625 1.46875q-0.390625 0.65625 -1.15625 0.921875q0.890625 0.25 1.328125 0.859375q0.4375 0.59375 0.4375 1.484375q0 1.5 -1.0625 2.265625q-1.0625 0.765625 -2.921875 0.765625z" fill-rule="nonzero"/><path fill="#000000" fill-opacity="0.0" d="m965.32153 341.27298l69.48035 0.40942383" fill-rule="evenodd"/><path stroke="#000000" stroke-width="1.0" stroke-linejoin="round" stroke-linecap="butt" d="m965.32153 341.27298l63.480347 0.37408447" fill-rule="evenodd"/><path fill="#000000" stroke="#000000" stroke-width="1.0" stroke-linecap="butt" d="m1028.7922 343.29877l4.5477295 -1.6249695l-4.5283203 -1.6784363z" fill-rule="evenodd"/><path fill="#000000" fill-opacity="0.0" d="m1155.9462 340.72177l69.48035 0.40945435" fill-rule="evenodd"/><path stroke="#000000" stroke-width="1.0" stroke-linejoin="round" stroke-linecap="butt" d="m1155.9462 340.72177l63.48047 0.374115" fill-rule="evenodd"/><path fill="#000000" stroke="#000000" stroke-width="1.0" stroke-linecap="butt" d="m1219.4169 342.7476l4.5477295 -1.6249695l-4.5281982 -1.6784363z" fill-rule="evenodd"/><path fill="#f4b400" d="m1224.4658 316.5013l102.740234 0l0 48.850403l-102.740234 0z" fill-rule="evenodd"/><path fill="#ffffff" d="m1260.5837 346.94275q-0.8125 0 -1.421875 -0.203125q-0.609375 -0.21875 -1.140625 -0.703125l-0.09375 0.75l-1.5 0l0 -10.78125l1.734375 0l0 3.6875q0.984375 -0.65625 2.390625 -0.65625q1.671875 0 2.578125 0.953125q0.90625 0.953125 0.90625 2.9375q0 2.015625 -0.90625 3.015625q-0.90625 1.0 -2.546875 1.0zm-0.46875 -1.3125q1.15625 0 1.65625 -0.65625q0.5 -0.65625 0.5 -2.046875q0 -1.390625 -0.515625 -1.96875q-0.515625 -0.59375 -1.671875 -0.59375q-1.1875 0 -1.921875 0.65625l0 3.8125q0.75 0.796875 1.953125 0.796875zm5.6245117 -6.421875l1.59375 0l0.09375 0.875q0.546875 -0.359375 1.296875 -0.640625q0.75 -0.28125 1.484375 -0.40625l0 1.328125q-0.6875 0.140625 -1.484375 0.40625q-0.796875 0.25 -1.25 0.546875l0 5.46875l-1.734375 0l0 -7.578125zm9.220215 7.734375q-2.015625 0 -3.09375 -0.984375q-1.0625 -1.0 -1.0625 -2.984375q0 -1.875 0.9375 -2.90625q0.953125 -1.03125 2.8125 -1.03125q1.671875 0 2.5625 0.890625q0.90625 0.875 0.90625 2.34375l0 1.40625l-5.546875 0q0.125 1.09375 0.78125 1.515625q0.65625 0.421875 2.0625 0.421875q0.578125 0 1.171875 -0.109375q0.59375 -0.109375 1.0625 -0.28125l0 1.28125q-1.0 0.4375 -2.59375 0.4375zm1.53125 -4.390625l0 -0.53125q0 -0.8125 -0.453125 -1.234375q-0.453125 -0.4375 -1.4375 -0.4375q-1.1875 0 -1.65625 0.515625q-0.46875 0.515625 -0.46875 1.6875l4.015625 0zm5.592041 4.390625q-1.15625 0 -1.921875 -0.59375q-0.765625 -0.609375 -0.765625 -1.71875q0 -1.125 0.75 -1.765625q0.765625 -0.65625 2.296875 -0.65625l2.421875 0l0 -0.328125q0 -0.5625 -0.171875 -0.875q-0.15625 -0.3125 -0.609375 -0.453125q-0.453125 -0.15625 -1.28125 -0.15625q-1.34375 0 -2.515625 0.40625l0 -1.296875q0.546875 -0.203125 1.28125 -0.328125q0.734375 -0.140625 1.5625 -0.140625q1.6875 0 2.546875 0.6875q0.859375 0.6875 0.859375 2.1875l0 4.875l-1.484375 0l-0.125 -0.765625q-0.46875 0.46875 -1.15625 0.703125q-0.6875 0.21875 -1.6875 0.21875zm0.46875 -1.25q0.75 0 1.34375 -0.25q0.59375 -0.25 0.96875 -0.71875l0 -1.328125l-2.390625 0q-0.78125 0 -1.125 0.296875q-0.34375 0.28125 -0.34375 0.90625q0 0.578125 0.390625 0.84375q0.390625 0.25 1.15625 0.25zm5.923828 -9.6875l1.734375 0l0 6.234375l3.1875 -3.03125l2.0 0l-3.09375 3.046875l3.265625 4.53125l-1.84375 0l-2.5 -3.59375l-1.015625 0.953125l0 2.640625l-1.734375 0l0 -10.78125z" fill-rule="nonzero"/><path fill="#000000" fill-opacity="0.0" d="m722.80316 181.26378l120.06299 0l0 19.748032l-120.06299 0z" fill-rule="evenodd"/><path fill="#000000" d="m735.9594 205.62378l0 -10.109375l-3.78125 0l0 -1.34375l9.078125 0l0 1.34375l-3.78125 0l0 10.109375l-1.515625 0zm6.0703125 0l0 -8.296875l1.265625 0l0 1.25q0.484375 -0.875 0.890625 -1.15625q0.40625 -0.28125 0.90625 -0.28125q0.703125 0 1.4375 0.453125l-0.484375 1.296875q-0.515625 -0.296875 -1.03125 -0.296875q-0.453125 0 -0.828125 0.28125q-0.359375 0.265625 -0.515625 0.765625q-0.234375 0.75 -0.234375 1.640625l0 4.34375l-1.40625 0zm10.78125 0l0 -1.21875q-0.96875 1.40625 -2.640625 1.40625q-0.734375 0 -1.375 -0.28125q-0.625 -0.28125 -0.9375 -0.703125q-0.3125 -0.4375 -0.4375 -1.046875q-0.078125 -0.421875 -0.078125 -1.3125l0 -5.140625l1.40625 0l0 4.59375q0 1.109375 0.078125 1.484375q0.140625 0.5625 0.5625 0.875q0.4375 0.3125 1.0625 0.3125q0.640625 0 1.1875 -0.3125q0.5625 -0.328125 0.78125 -0.890625q0.234375 -0.5625 0.234375 -1.625l0 -4.4375l1.40625 0l0 8.296875l-1.25 0zm9.1328125 -2.671875l1.453125 0.171875q-0.34375 1.28125 -1.28125 1.984375q-0.921875 0.703125 -2.359375 0.703125q-1.828125 0 -2.890625 -1.125q-1.0625 -1.125 -1.0625 -3.140625q0 -2.09375 1.078125 -3.25q1.078125 -1.15625 2.796875 -1.15625q1.65625 0 2.703125 1.140625q1.0625 1.125 1.0625 3.171875q0 0.125 0 0.375l-6.1875 0q0.078125 1.375 0.765625 2.109375q0.703125 0.71875 1.734375 0.71875q0.78125 0 1.328125 -0.40625q0.546875 -0.40625 0.859375 -1.296875zm-4.609375 -2.28125l4.625 0q-0.09375 -1.046875 -0.53125 -1.5625q-0.671875 -0.8125 -1.734375 -0.8125q-0.96875 0 -1.640625 0.65625q-0.65625 0.640625 -0.71875 1.71875z" fill-rule="nonzero"/><path fill="#f4b400" d="m591.8193 444.4858l91.92053 -37.477417l91.92053 37.477417l-91.92053 37.477448z" fill-rule="evenodd"/><path fill="#ffffff" d="m652.39197 447.22083q0 -1.59375 1.265625 -1.984375l-1.734375 -0.421875l0 -1.796875q0.71875 -0.640625 1.78125 -1.046875q1.0625 -0.421875 2.359375 -0.421875q1.96875 0 2.953125 0.8125q1.0 0.8125 1.0 2.625l0 5.359375l-1.734375 0l0 -5.40625q0 -1.109375 -0.515625 -1.546875q-0.515625 -0.4375 -1.765625 -0.4375q-0.78125 0 -1.484375 0.234375q-0.6875 0.21875 -1.09375 0.578125l0 0.296875l1.828125 0.453125l0 1.15625q-0.625 0.15625 -0.890625 0.515625q-0.25 0.34375 -0.25 1.046875l0 3.109375l-1.71875 0l0 -3.125zm12.870544 3.28125q-1.609375 0 -2.578125 -1.078125q-0.953125 -1.078125 -0.953125 -3.265625q0 -2.203125 1.109375 -3.40625q1.125 -1.203125 3.3125 -1.203125q1.40625 0 2.34375 0.484375q0.9375 0.484375 1.375 1.28125q0.4375 0.796875 0.4375 1.75l0 5.28125l-1.75 0l0 -5.203125q0 -1.03125 -0.5625 -1.609375q-0.5625 -0.578125 -1.875 -0.578125q-1.390625 0 -2.046875 0.796875q-0.65625 0.796875 -0.65625 2.40625q0 1.578125 0.53125 2.265625q0.53125 0.6875 1.625 0.6875q0.734375 0 1.09375 -0.125l0 1.328125q-0.53125 0.1875 -1.40625 0.1875zm7.0849 -5.625q0 -1.609375 0.953125 -2.46875q0.96875 -0.859375 2.953125 -0.859375q1.984375 0 2.9375 0.859375q0.953125 0.859375 0.953125 2.46875l0 5.46875l-1.734375 0l0 -5.625q0 -1.765625 -2.15625 -1.765625q-1.078125 0 -1.625 0.4375q-0.546875 0.421875 -0.546875 1.328125l0 1.765625q0.703125 -0.578125 1.6875 -0.578125l1.03125 0l0.0625 1.390625l-1.140625 0q-0.984375 0 -1.640625 0.546875l0 2.5l-1.734375 0l0 -5.46875zm12.668152 5.625q-0.875 0 -1.671875 -0.109375q-0.78125 -0.109375 -1.28125 -0.3125l0 -1.46875q0.59375 0.25 1.296875 0.375q0.703125 0.125 1.328125 0.125q1.171875 0 1.671875 -0.203125q0.5 -0.203125 0.5 -0.828125q0 -0.390625 -0.203125 -0.625q-0.1875 -0.234375 -0.53125 -0.375q-0.328125 -0.140625 -1.03125 -0.359375l-0.625 -0.21875q-1.3125 -0.4375 -1.96875 -0.96875q-0.640625 -0.546875 -0.640625 -1.53125q0 -1.15625 0.875 -1.796875q0.890625 -0.65625 2.59375 -0.65625q0.703125 0 1.421875 0.109375q0.71875 0.109375 1.21875 0.265625l0 1.453125q-0.515625 -0.203125 -1.171875 -0.3125q-0.640625 -0.109375 -1.203125 -0.109375q-1.015625 0 -1.53125 0.21875q-0.515625 0.21875 -0.515625 0.78125q0 0.34375 0.203125 0.578125q0.21875 0.21875 0.578125 0.375q0.375 0.140625 1.140625 0.390625l0.46875 0.15625q1.375 0.453125 1.984375 1.015625q0.609375 0.546875 0.609375 1.609375q0 1.21875 -0.9375 1.828125q-0.921875 0.59375 -2.578125 0.59375zm-0.5922241 -12.4375l1.4375 0l0 1.109375l4.140625 0l-0.078125 1.21875l-5.5 0l0 -2.328125zm1.359375 -2.3128967l-1.0 0l0 -1.125l2.140625 0l0 1.25l2.453125 0l-0.0625 1.125l-3.53125 0l0 -1.25zm7.859375 14.750397q-1.03125 0 -1.609375 -0.203125l-2.421875 -5.921875l1.6875 0l1.96875 4.796875q1.359375 0.0625 1.984375 -0.78125q0.640625 -0.84375 0.640625 -2.640625q0 -1.046875 -0.203125 -1.640625q-0.1875 -0.59375 -0.640625 -0.84375q-0.4375 -0.25 -1.25 -0.25l-0.609375 0l0 -1.3125l0.828125 0q1.84375 0 2.703125 0.984375q0.859375 0.984375 0.859375 3.046875q0 2.4375 -1.078125 3.609375q-1.0625 1.15625 -2.859375 1.15625zm5.633362 -8.796875l1.578125 0l0.09375 0.9375q1.296875 -1.09375 3.078125 -1.09375q1.359375 0 2.125 0.8125q0.765625 0.8125 0.765625 2.28125l0 5.703125l-1.734375 0l0 -5.609375q0 -0.9375 -0.4375 -1.359375q-0.4375 -0.421875 -1.34375 -0.421875q-0.6875 0 -1.3125 0.296875q-0.625 0.28125 -1.078125 0.734375l0 6.359375l-1.734375 0l0 -8.640625zm1.0550537 -2.53125l5.140625 0l0 -1.328125l1.4375 0l0 2.546875l-6.671875 0l0.09375 -1.21875zm5.140625 -4.313263l1.4375 0l0 2.21875l-1.4375 0l0 -2.21875zm6.078125 15.641388q-0.71875 0 -1.578125 -0.140625q-0.84375 -0.125 -1.34375 -0.3125l0 -1.53125q1.203125 0.5 2.6875 0.5q1.28125 0 1.875 -0.375q0.59375 -0.375 0.59375 -1.28125q0 -1.578125 -2.125 -1.578125l-1.5625 0l0.140625 -1.296875l1.296875 0q2.03125 0 2.03125 -1.59375q0 -0.78125 -0.546875 -1.140625q-0.53125 -0.375 -1.703125 -0.375q-0.640625 0 -1.3125 0.125q-0.65625 0.125 -1.1875 0.34375l0 -1.484375q0.515625 -0.203125 1.28125 -0.34375q0.765625 -0.140625 1.484375 -0.140625q1.828125 0 2.78125 0.78125q0.953125 0.78125 0.953125 2.078125q0 0.8125 -0.390625 1.46875q-0.390625 0.65625 -1.15625 0.921875q0.890625 0.25 1.328125 0.859375q0.4375 0.59375 0.4375 1.484375q0 1.5 -1.0625 2.265625q-1.0625 0.765625 -2.921875 0.765625z" fill-rule="nonzero"/><path fill="#000000" fill-opacity="0.0" d="m775.6601 444.54855l69.48035 0.40945435" fill-rule="evenodd"/><path stroke="#000000" stroke-width="1.0" stroke-linejoin="round" stroke-linecap="butt" d="m775.6601 444.54855l63.480408 0.374115" fill-rule="evenodd"/><path fill="#000000" stroke="#000000" stroke-width="1.0" stroke-linecap="butt" d="m839.1308 446.57434l4.5477295 -1.624939l-4.5282593 -1.6784668z" fill-rule="evenodd"/><path fill="#4a86e8" d="m845.14044 415.0525l127.1181 0l0 58.992126l-127.1181 0z" fill-rule="evenodd"/><path fill="#ffffff" d="m863.347 430.6117l1.734375 0l0 8.953125l5.28125 0l0 1.34375l-7.015625 0l0 -10.296875zm8.160034 0l7.171875 0l0 1.359375l-5.4375 0l0 3.109375l4.84375 0l0 1.34375l-4.84375 0l0 3.140625l5.4375 0l0 1.34375l-7.171875 0l0 -10.296875zm8.800049 0l4.171875 0q2.3125 0 3.40625 1.234375q1.09375 1.21875 1.09375 3.96875q0 2.640625 -1.09375 3.875q-1.09375 1.21875 -3.40625 1.21875l-4.171875 0l0 -10.296875zm3.890625 8.953125q1.078125 0 1.71875 -0.3125q0.65625 -0.3125 0.984375 -1.125q0.328125 -0.8125 0.328125 -2.3125q0 -1.5 -0.3125 -2.328125q-0.296875 -0.828125 -0.953125 -1.171875q-0.640625 -0.34375 -1.765625 -0.34375l-2.15625 0l0 7.59375l2.15625 0zm12.413391 -8.953125l4.578125 0q1.71875 0 2.59375 0.9375q0.875 0.9375 0.875 2.5q0 1.53125 -0.953125 2.46875q-0.953125 0.921875 -2.578125 0.921875l-2.78125 0l0 3.46875l-1.734375 0l0 -10.296875zm4.203125 5.453125q1.0 0 1.546875 -0.53125q0.546875 -0.546875 0.546875 -1.484375q0 -1.0 -0.515625 -1.53125q-0.515625 -0.546875 -1.5 -0.546875l-2.546875 0l0 4.09375l2.46875 0zm5.836914 -5.765625l1.90625 0l0 1.4375l-1.90625 0l0 -1.4375zm0.140625 4.359375l-1.140625 0l0.15625 -1.328125l2.734375 0l0 7.578125l-1.75 0l0 -6.25zm3.7873535 -1.328125l1.59375 0l0.078125 0.796875q0.546875 -0.4375 1.265625 -0.703125q0.71875 -0.265625 1.53125 -0.265625q1.46875 0 2.140625 0.6875q0.671875 0.6875 0.671875 2.15625l0 4.90625l-1.71875 0l0 -4.828125q0 -0.890625 -0.375 -1.234375q-0.359375 -0.359375 -1.34375 -0.359375q-0.59375 0 -1.15625 0.25q-0.5625 0.234375 -0.953125 0.625l0 5.546875l-1.734375 0l0 -7.578125zm18.871155 7.734375q-2.0 0 -3.015625 -0.734375q-1.015625 -0.75 -1.015625 -2.203125q0 -0.90625 0.46875 -1.578125q0.484375 -0.6875 1.359375 -0.96875q-0.765625 -0.28125 -1.15625 -0.859375q-0.390625 -0.59375 -0.390625 -1.328125q0 -1.375 0.9375 -2.15625q0.953125 -0.796875 2.8125 -0.796875q1.890625 0 2.8125 0.78125q0.9375 0.78125 0.9375 2.171875q0 0.78125 -0.390625 1.40625q-0.375 0.609375 -1.234375 0.921875q0.984375 0.296875 1.4375 0.890625q0.453125 0.578125 0.453125 1.515625q0 1.453125 -1.015625 2.203125q-1.0 0.734375 -3.0 0.734375zm0.4375 -5.890625q0.890625 -0.21875 1.28125 -0.609375q0.40625 -0.390625 0.40625 -1.140625q0 -1.609375 -2.125 -1.609375q-2.125 0 -2.125 1.609375q0 0.625 0.359375 1.015625q0.359375 0.390625 1.0625 0.515625l1.140625 0.21875zm-0.4375 4.53125q1.21875 0 1.8125 -0.390625q0.59375 -0.390625 0.59375 -1.21875q0 -0.71875 -0.40625 -1.0625q-0.40625 -0.359375 -1.328125 -0.5625l-1.3125 -0.265625q-0.875 0.1875 -1.328125 0.625q-0.453125 0.421875 -0.453125 1.234375q0 0.84375 0.59375 1.25q0.609375 0.390625 1.828125 0.390625zm5.4087524 -3.78125l6.109375 0l0 1.359375l-6.109375 0l0 -1.359375zm9.159912 -3.78125l-1.671875 0.28125l0 -1.453125l3.390625 -0.53125l0 10.46875l-1.71875 0l0 -8.765625zm6.354004 8.921875q-0.71875 0 -1.578125 -0.140625q-0.84375 -0.125 -1.34375 -0.3125l0 -1.53125q1.203125 0.5 2.6875 0.5q1.28125 0 1.875 -0.375q0.59375 -0.375 0.59375 -1.28125q0 -1.578125 -2.125 -1.578125l-1.5625 0l0.140625 -1.296875l1.296875 0q2.03125 0 2.03125 -1.59375q0 -0.78125 -0.546875 -1.140625q-0.53125 -0.375 -1.703125 -0.375q-0.640625 0 -1.3125 0.125q-0.65625 0.125 -1.1875 0.34375l0 -1.484375q0.515625 -0.203125 1.28125 -0.34375q0.765625 -0.140625 1.484375 -0.140625q1.828125 0 2.78125 0.78125q0.953125 0.78125 0.953125 2.078125q0 0.8125 -0.390625 1.46875q-0.390625 0.65625 -1.15625 0.921875q0.890625 0.25 1.328125 0.859375q0.4375 0.59375 0.4375 1.484375q0 1.5 -1.0625 2.265625q-1.0625 0.765625 -2.921875 0.765625z" fill-rule="nonzero"/><path fill="#ffffff" d="m893.30896 459.90857q-1.671875 0 -1.671875 -1.65625l0 -5.53125q0 -1.71875 1.21875 -2.546875l-2.515625 0l0 -1.375l4.625 0l0 1.3125q-0.859375 0.34375 -1.234375 1.03125q-0.375 0.671875 -0.375 1.84375l0 4.828125q0 0.4375 0.140625 0.578125q0.140625 0.140625 0.578125 0.140625l0.734375 0l0 1.375l-1.5 0zm2.440979 -8.640625l1.703125 0l1.28125 6.171875l1.578125 -4.9375l0 -1.234375l1.25 0l1.734375 6.171875l1.75 -8.734375l1.6875 0l-2.46875 11.203125l-1.609375 0l-1.59375 -5.5l-1.734375 5.5l-1.578125 0l-2.0 -8.640625zm15.272278 8.796875q-1.609375 0 -2.578125 -1.078125q-0.953125 -1.078125 -0.953125 -3.265625q0 -2.203125 1.109375 -3.40625q1.125 -1.203125 3.3125 -1.203125q1.40625 0 2.34375 0.484375q0.9375 0.484375 1.375 1.28125q0.4375 0.796875 0.4375 1.75l0 5.28125l-1.75 0l0 -5.203125q0 -1.03125 -0.5625 -1.609375q-0.5625 -0.578125 -1.875 -0.578125q-1.390625 0 -2.046875 0.796875q-0.65625 0.796875 -0.65625 2.40625q0 1.578125 0.53125 2.265625q0.53125 0.6875 1.625 0.6875q0.734375 0 1.09375 -0.125l0 1.328125q-0.53125 0.1875 -1.40625 0.1875zm1.2567749 -12.4375l1.4375 0l0 1.109375l4.140625 0l-0.078125 1.21875l-5.5 0l0 -2.328125zm9.765625 12.4375q-1.875 0 -2.90625 -0.875q-1.03125 -0.890625 -1.03125 -2.640625l0 -5.28125l1.734375 0l0 5.34375q0 1.0625 0.546875 1.5625q0.5625 0.5 1.65625 0.5q1.109375 0 1.671875 -0.5q0.5625 -0.5 0.5625 -1.5625l0 -5.34375l1.71875 0l0 5.28125q0 1.75 -1.03125 2.640625q-1.015625 0.875 -2.921875 0.875z" fill-rule="nonzero"/><path fill="#000000" fill-opacity="0.0" d="m972.25854 444.54855l69.48035 0.40945435" fill-rule="evenodd"/><path stroke="#000000" stroke-width="1.0" stroke-linejoin="round" stroke-linecap="butt" d="m972.25854 444.54855l63.480347 0.374115" fill-rule="evenodd"/><path fill="#000000" stroke="#000000" stroke-width="1.0" stroke-linecap="butt" d="m1035.7292 446.57434l4.5477295 -1.624939l-4.5283203 -1.6784668z" fill-rule="evenodd"/><path fill="#f4b400" d="m1041.7389 420.3281l102.74011 0l0 48.850372l-102.74011 0z" fill-rule="evenodd"/><path fill="#ffffff" d="m1077.8568 450.76953q-0.8125 0 -1.421875 -0.203125q-0.609375 -0.21875 -1.140625 -0.703125l-0.09375 0.75l-1.5 0l0 -10.78125l1.734375 0l0 3.6875q0.984375 -0.65625 2.390625 -0.65625q1.671875 0 2.578125 0.953125q0.90625 0.953125 0.90625 2.9375q0 2.015625 -0.90625 3.015625q-0.90625 1.0 -2.546875 1.0zm-0.46875 -1.3125q1.15625 0 1.65625 -0.65625q0.5 -0.65625 0.5 -2.046875q0 -1.390625 -0.515625 -1.96875q-0.515625 -0.59375 -1.671875 -0.59375q-1.1875 0 -1.921875 0.65625l0 3.8125q0.75 0.796875 1.953125 0.796875zm5.6245117 -6.421875l1.59375 0l0.09375 0.875q0.546875 -0.359375 1.296875 -0.640625q0.75 -0.28125 1.484375 -0.40625l0 1.328125q-0.6875 0.140625 -1.484375 0.40625q-0.796875 0.25 -1.25 0.546875l0 5.46875l-1.734375 0l0 -7.578125zm9.220093 7.734375q-2.015625 0 -3.09375 -0.984375q-1.0625 -1.0 -1.0625 -2.984375q0 -1.875 0.9375 -2.90625q0.953125 -1.03125 2.8125 -1.03125q1.671875 0 2.5625 0.890625q0.90625 0.875 0.90625 2.34375l0 1.40625l-5.546875 0q0.125 1.09375 0.78125 1.515625q0.65625 0.421875 2.0625 0.421875q0.578125 0 1.171875 -0.109375q0.59375 -0.109375 1.0625 -0.28125l0 1.28125q-1.0 0.4375 -2.59375 0.4375zm1.53125 -4.390625l0 -0.53125q0 -0.8125 -0.453125 -1.234375q-0.453125 -0.4375 -1.4375 -0.4375q-1.1875 0 -1.65625 0.515625q-0.46875 0.515625 -0.46875 1.6875l4.015625 0zm5.592041 4.390625q-1.15625 0 -1.921875 -0.59375q-0.765625 -0.609375 -0.765625 -1.71875q0 -1.125 0.75 -1.765625q0.765625 -0.65625 2.296875 -0.65625l2.421875 0l0 -0.328125q0 -0.5625 -0.171875 -0.875q-0.15625 -0.3125 -0.609375 -0.453125q-0.453125 -0.15625 -1.28125 -0.15625q-1.34375 0 -2.515625 0.40625l0 -1.296875q0.546875 -0.203125 1.28125 -0.328125q0.734375 -0.140625 1.5625 -0.140625q1.6875 0 2.546875 0.6875q0.859375 0.6875 0.859375 2.1875l0 4.875l-1.484375 0l-0.125 -0.765625q-0.46875 0.46875 -1.15625 0.703125q-0.6875 0.21875 -1.6875 0.21875zm0.46875 -1.25q0.75 0 1.34375 -0.25q0.59375 -0.25 0.96875 -0.71875l0 -1.328125l-2.390625 0q-0.78125 0 -1.125 0.296875q-0.34375 0.28125 -0.34375 0.90625q0 0.578125 0.390625 0.84375q0.390625 0.25 1.15625 0.25zm5.923828 -9.6875l1.734375 0l0 6.234375l3.1875 -3.03125l2.0 0l-3.09375 3.046875l3.265625 4.53125l-1.84375 0l-2.5 -3.59375l-1.015625 0.953125l0 2.640625l-1.734375 0l0 -10.78125z" fill-rule="nonzero"/><path fill="#cc0000" d="m648.9017 511.29135l69.67792 0l0 0c9.12793 0 16.527649 7.665436 16.527649 17.121246c0 9.455811 -7.399719 17.121277 -16.527649 17.121277l-69.67792 0l0 0c-9.127991 0 -16.527649 -7.6654663 -16.527649 -17.121277c0 -9.455811 7.399658 -17.121246 16.527649 -17.121246z" fill-rule="evenodd"/><path fill="#ffffff" d="m678.6737 534.42883q-0.34375 0 -0.75 -0.0625q-0.390625 -0.046875 -0.625 -0.140625l-1.28125 -3.40625l-1.109375 0l0.078125 -1.3125l2.125 0l1.328125 3.546875q1.140625 0.046875 1.828125 -0.71875q0.6875 -0.765625 0.6875 -2.46875q0 -1.125 -0.296875 -1.765625q-0.296875 -0.65625 -0.96875 -0.9375q-0.671875 -0.28125 -1.859375 -0.28125q-1.46875 0 -2.734375 0.421875l0 -1.34375q1.515625 -0.484375 3.203125 -0.484375q2.234375 0 3.28125 1.109375q1.0625 1.109375 1.0625 3.28125q0 1.453125 -0.546875 2.484375q-0.53125 1.03125 -1.4375 1.5625q-0.90625 0.515625 -1.984375 0.515625zm9.604065 0q-1.875 0 -2.90625 -0.875q-1.03125 -0.890625 -1.03125 -2.640625l0 -5.28125l1.734375 0l0 5.34375q0 1.0625 0.546875 1.5625q0.5625 0.5 1.65625 0.5q1.109375 0 1.671875 -0.5q0.5625 -0.5 0.5625 -1.5625l0 -5.34375l1.71875 0l0 5.28125q0 1.75 -1.03125 2.640625q-1.015625 0.875 -2.921875 0.875z" fill-rule="nonzero"/></g></svg>